# Blender 4.2.0
# www.blender.org
mtllib player.mtl
o Cube
v -1.000000 1.000000 0.006655
v -1.000000 1.000000 1.000000
v -1.000000 -1.000000 0.006656
v -1.000000 -1.000000 1.000000
v 1.000000 1.000000 0.006655
v 1.000000 1.000000 1.000000
v 1.000000 -1.000000 0.006656
v 1.000000 -1.000000 1.000000
v -1.000000 1.000000 0.441419
v 1.000000 -1.000000 0.441419
v -1.000000 -1.000000 0.441419
v 1.000000 1.000000 0.441419
v 1.000000 1.000000 1.000000
v 1.000000 -1.000000 1.000000
v -1.000000 1.000000 0.000000
v -1.000000 1.000000 1.000000
v -1.000000 -1.000000 0.000000
v -1.000000 -1.000000 1.000000
v 1.000000 1.000000 0.000000
v 1.000000 -1.000000 0.000000
v 1.000000 2.972397 1.000000
v 1.000000 2.972397 0.928332
v -1.000000 2.972397 0.928332
v -1.000000 2.972397 1.000000
v -1.000000 -2.972397 1.000000
v -1.000000 -2.972397 0.928332
v 1.000000 -2.972397 0.928332
v 1.000000 -2.972397 1.000000
v 2.334833 -1.000000 0.441419
v 2.334833 1.000000 0.441419
v 2.334833 1.000000 0.000000
v 2.334833 -1.000000 0.000000
vn -0.0000 -0.0000 -1.0000
vn -0.0000 -1.0000 -0.0000
vn 1.0000 -0.0000 -0.0000
vn -0.0000 -0.0000 1.0000
vn -1.0000 -0.0000 -0.0000
vn -0.0000 1.0000 -0.0000
vn 0.1383 -0.9904 -0.0000
vn -0.0000 0.2397 -0.9709
vn -0.0000 -0.2397 -0.9709
vt 0.124433 0.001347
vt 0.550610 0.425805
vt 0.125293 0.426664
vt 0.630477 0.490596
vt 0.553710 0.480694
vt 0.044579 0.479605
vt 0.054421 0.480273
vt 0.046521 0.480849
vt 0.108171 0.535878
vt 0.571342 0.999049
vt 0.108171 0.999049
vt 0.121892 0.480023
vt 0.050303 0.470671
vt 0.154528 0.475873
vt 0.136467 0.573946
vt 0.629194 0.529658
vt 0.632088 0.457981
vt 0.629159 0.531897
vt 0.040637 0.488900
vt 0.054548 0.484164
vt 0.052191 0.498796
vt 0.542156 0.573605
vt 0.571342 0.535878
vt 0.108171 0.999512
vt 0.521632 0.475738
vt 0.028107 0.487318
vt 0.029982 0.498030
vt 0.030940 0.495561
vt 0.050792 0.506576
vt 0.000488 0.506930
vt 0.652155 0.521550
vt 0.655919 0.525711
vt 0.681344 0.511911
vt 0.652307 0.516009
vt 0.052753 0.482115
vt 0.047894 0.481833
vt 0.048029 0.482089
vt 0.052787 0.482117
vt 0.045585 0.483123
vt 0.549751 0.000488
vt 0.640322 0.471094
vt 0.571342 0.999512
s 0
usemtl Material
f 5/1/1 3/2/1 1/3/1
f 3/2/2 10/4/2 11/5/2
f 7/6/3 12/7/3 10/8/3
f 2/9/4 8/10/4 6/11/4
f 1/3/5 11/5/5 9/12/5
f 5/13/6 9/12/6 12/7/6
f 2/9/5 15/14/5 16/15/5
f 8/16/2 20/17/2 14/18/2
f 14/19/3 19/20/3 13/21/3
f 2/9/3 18/22/3 4/23/3
f 8/10/4 13/24/4 6/11/4
f 12/7/5 13/21/5 19/20/5
f 11/5/3 15/14/3 9/12/3
f 11/5/7 18/22/7 17/25/7
f 22/26/6 24/27/6 21/28/6
f 22/26/3 6/29/3 12/7/3
f 23/30/8 12/7/8 9/12/8
f 2/9/5 23/30/5 9/12/5
f 21/28/4 2/9/4 6/29/4
f 26/31/2 28/32/2 25/33/2
f 26/31/5 4/23/5 11/5/5
f 27/34/9 11/5/9 10/4/9
f 8/16/3 27/34/3 10/4/3
f 25/33/4 8/16/4 4/23/4
f 30/35/5 32/36/5 29/37/5
f 30/35/1 10/8/1 12/7/1
f 31/38/2 12/7/2 19/20/2
f 32/36/4 19/20/4 20/39/4
f 29/37/6 20/39/6 10/8/6
f 5/1/1 7/40/1 3/2/1
f 3/2/2 7/41/2 10/4/2
f 7/6/3 5/13/3 12/7/3
f 2/9/4 4/23/4 8/10/4
f 1/3/5 3/2/5 11/5/5
f 5/13/6 1/3/6 9/12/6
f 2/9/3 9/12/3 15/14/3
f 8/16/5 10/4/5 20/17/5
f 14/19/3 20/39/3 19/20/3
f 2/9/4 16/15/4 18/22/4
f 8/10/5 14/42/5 13/24/5
f 12/7/4 6/29/4 13/21/4
f 11/5/3 17/25/3 15/14/3
f 11/5/4 4/23/4 18/22/4
f 22/26/6 23/30/6 24/27/6
f 22/26/3 21/28/3 6/29/3
f 23/30/8 22/26/8 12/7/8
f 2/9/5 24/27/5 23/30/5
f 21/28/4 24/27/4 2/9/4
f 26/31/2 27/34/2 28/32/2
f 26/31/5 25/33/5 4/23/5
f 27/34/9 26/31/9 11/5/9
f 8/16/3 28/32/3 27/34/3
f 25/33/4 28/32/4 8/16/4
f 30/35/5 31/38/5 32/36/5
f 30/35/1 29/37/1 10/8/1
f 31/38/2 30/35/2 12/7/2
f 32/36/4 31/38/4 19/20/4
f 29/37/6 32/36/6 20/39/6
o Cube.001
v -1.000000 1.000000 0.000000
v -1.000000 1.000000 1.000000
v -1.000000 -1.000000 0.000000
v -1.000000 -1.000000 1.000000
vn -1.0000 -0.0000 -0.0000
vt 0.682319 0.213217
vt 0.788684 0.000488
vt 0.788684 0.213217
vt 0.682319 0.000488
s 0
usemtl Material
f 33/43/10 36/44/10 34/45/10
f 33/43/10 35/46/10 36/44/10
