# Blender 4.2.2 LTS
# www.blender.org
mtllib face.mtl
o 頭
v -0.020045 0.316460 0.191486
v -0.233485 0.281973 -0.031673
v 0.009431 -0.173476 -0.278468
v -0.008057 0.380124 0.095587
v -0.009266 0.400432 -0.023868
v 0.004957 0.383050 -0.143068
v -0.055491 -0.168917 0.023936
v -0.092312 -0.193305 -0.203817
v -0.278907 0.098492 0.053573
v -0.272075 0.080204 -0.149395
v -0.279594 0.199636 -0.030868
v 0.006347 0.095880 0.279387
v -0.009972 0.217785 0.258209
v -0.195777 -0.095308 -0.241232
v -0.110905 -0.033927 -0.277223
v -0.218288 -0.014764 0.112383
v -0.262992 0.001912 -0.024691
v -0.015660 0.009304 0.256935
v -0.107716 -0.057915 0.185202
v -0.113011 0.296270 -0.233364
v -0.204347 0.317363 -0.007063
v -0.119157 -0.138120 0.028880
v 0.054203 0.126575 -0.299320
v -0.006247 -0.090533 0.174643
v -0.221615 0.080307 -0.245077
v -0.101462 -0.160754 -0.269520
v -0.123210 0.373949 -0.028289
v -0.017308 -0.159845 0.055443
v -0.291663 0.096988 -0.034852
v -0.115326 -0.008980 0.224425
v -0.113408 0.022176 0.240018
v -0.057484 0.012843 -0.281836
v -0.193451 0.113621 -0.268484
v -0.059351 0.106352 -0.288935
v -0.179237 0.058136 -0.239236
v 0.200525 -0.136943 -0.184040
v 0.235912 0.281654 -0.016967
v 0.137292 0.367820 -0.056766
v 0.155415 0.181673 -0.272586
v 0.274833 0.099798 0.073671
v 0.289767 0.077586 -0.011928
v 0.269676 0.226947 -0.046948
v 0.195120 0.013576 0.180044
v 0.224693 -0.041316 -0.220921
v 0.153789 -0.000664 -0.251906
v 0.247188 0.014679 0.068207
v 0.101251 0.005878 0.240405
v 0.172178 0.256574 0.169350
v 0.085758 -0.098989 0.145670
v 0.127943 0.297041 -0.225237
v 0.204981 0.317283 0.006268
v 0.072435 -0.154104 0.053521
v 0.132177 -0.177692 -0.125039
v 0.128601 -0.185764 -0.196909
v 0.164393 0.012055 0.208831
v 0.208971 0.101379 0.190879
v 0.122910 -0.160861 -0.261500
v 0.008785 0.317687 -0.245373
v 0.117582 0.355329 0.092436
v 0.006790 -0.215449 -0.199368
v 0.282635 0.095558 -0.133192
v 0.102057 0.218957 0.240102
v 0.259995 -0.027532 -0.149601
v 0.063020 -0.001984 -0.283729
v 0.166381 0.029778 -0.228578
v 0.078908 0.109185 -0.284798
v 0.169329 0.109751 -0.246721
v 0.027996 -0.122737 -0.305352
v -0.185933 0.254989 0.154581
v -0.185469 -0.043536 0.131861
v -0.185860 0.271033 -0.191872
v -0.111391 0.301333 0.177175
v -0.191703 -0.127885 -0.213417
v -0.189616 -0.091198 0.028431
v -0.201101 0.307942 -0.099967
v -0.108804 0.334854 -0.190896
v -0.117684 0.332693 0.133371
v -0.132439 0.365094 0.028475
v -0.128843 0.366110 -0.084850
v 0.001788 0.356346 -0.198490
v -0.009343 0.353836 0.147782
v -0.006728 0.395983 0.038651
v 0.003044 0.398035 -0.084650
v -0.196987 0.296902 0.086112
v -0.126464 0.353290 0.083125
v -0.119447 0.355429 -0.139036
v 0.008081 -0.200653 -0.246133
v 0.000772 -0.126294 0.122301
v -0.113035 -0.176814 -0.243717
v -0.086105 -0.119216 0.111828
v -0.102609 -0.186206 -0.130395
v -0.109518 0.244537 -0.266547
v 0.009345 0.266188 -0.277099
v -0.206170 0.012334 0.166438
v -0.249318 -0.044788 -0.122321
v -0.249565 0.095203 -0.202940
v -0.247035 0.102354 0.134780
v -0.287663 0.092538 -0.093622
v -0.241897 0.175521 -0.189518
v -0.239775 0.204178 0.121311
v -0.260393 0.227535 0.045744
v -0.217770 -0.094734 -0.079934
v -0.256820 0.224737 -0.107552
v -0.181362 0.007829 0.192912
v -0.208686 0.101146 0.191642
v -0.110907 0.098593 0.257030
v -0.203759 0.187779 0.179966
v -0.121075 0.217756 0.230721
v -0.010907 -0.050143 0.216104
v -0.007154 0.273484 0.227596
v -0.111063 0.260862 0.211484
v -0.245601 -0.032915 -0.169568
v -0.238118 -0.011198 -0.196452
v -0.171005 -0.019107 -0.254304
v -0.168447 -0.149882 -0.122336
v -0.159433 -0.159968 -0.199825
v -0.152825 0.097007 0.234433
v -0.156328 -0.105284 -0.273356
v -0.163017 0.236515 -0.247628
v -0.161438 -0.130448 -0.261455
v -0.273500 0.162101 -0.126402
v -0.135022 0.172665 0.237800
v -0.214829 0.017027 -0.227874
v -0.088306 -0.000626 -0.272699
v -0.033956 0.141166 -0.303678
v -0.204027 0.173460 -0.250946
v -0.010478 -0.088065 -0.308843
v -0.072387 0.186762 0.256558
v -0.022558 0.099067 0.279161
v -0.276935 0.172379 0.053118
v -0.021536 -0.211064 -0.120029
v 0.006898 0.009506 -0.289475
v -0.046647 0.054904 -0.287383
v -0.157387 0.143343 -0.276654
v -0.134224 0.169951 -0.284502
v -0.202036 0.046484 -0.248404
v -0.158037 0.004812 -0.256753
v -0.163078 0.035915 -0.236210
v -0.122188 0.124066 -0.265232
v -0.115012 0.023275 -0.246907
v -0.077726 0.093370 -0.266551
v 0.198762 0.270875 -0.179204
v 0.195181 -0.131977 -0.235811
v 0.195670 -0.137697 -0.121547
v 0.186951 -0.072470 0.083112
v 0.208509 0.307050 -0.087215
v 0.118279 0.337066 -0.183516
v 0.100526 0.335104 0.143332
v 0.126261 0.367905 0.037622
v 0.194292 0.289358 0.107877
v 0.128831 0.355429 -0.130908
v 0.120939 -0.179785 -0.235939
v 0.010022 0.208365 -0.297799
v 0.101442 -0.134022 -0.283679
v 0.127263 0.244537 -0.258795
v 0.216848 -0.099941 -0.227154
v 0.243339 -0.046140 -0.020048
v 0.238236 0.102354 0.150667
v 0.290140 0.066738 -0.071200
v 0.232741 0.191811 0.141027
v 0.189164 -0.026216 0.153207
v 0.241972 -0.077037 -0.135501
v 0.257389 0.227535 0.062695
v 0.264384 0.200319 -0.128048
v 0.181655 0.102315 0.216541
v 0.095948 0.095245 0.262724
v 0.192356 0.187599 0.192727
v 0.094522 -0.043573 0.206242
v 0.092383 0.261813 0.219073
v 0.247479 -0.029740 -0.187215
v 0.154294 -0.042129 -0.261630
v 0.173057 -0.131402 -0.034753
v 0.185578 -0.113616 -0.258631
v 0.137788 0.096997 0.243887
v 0.179410 0.236515 -0.236418
v 0.080685 0.306586 0.188596
v 0.247655 0.136323 -0.210431
v 0.065619 0.390919 -0.021649
v 0.272734 0.173529 0.072387
v 0.287875 0.171959 -0.010335
v 0.091987 0.174615 0.256520
v 0.228157 0.015420 -0.214397
v 0.049501 0.022284 0.256413
v 0.106762 -0.000552 -0.266187
v 0.136709 0.170441 0.236565
v 0.191603 0.011044 -0.242780
v 0.217782 0.177003 -0.237912
v 0.038910 -0.193205 -0.039955
v 0.287118 0.164320 -0.070772
v 0.262979 0.088583 -0.185018
v 0.046188 -0.209109 -0.140636
v 0.065713 0.055277 -0.283922
v 0.225554 0.068333 -0.237820
v 0.135366 0.154630 -0.277867
v 0.207065 0.123580 -0.257240
v 0.094266 0.035374 -0.253865
v 0.216502 0.044884 -0.235285
v 0.135553 0.120613 -0.256091
v 0.191059 0.050908 -0.224535
v 0.088597 0.081842 -0.260215
v 0.126257 0.018815 -0.242993
v 0.025977 -0.091300 -0.308588
v 0.058310 -0.101030 -0.303614
v -0.023412 -0.117530 -0.305844
v -0.112188 -0.135440 -0.282109
v -0.077753 0.039562 -0.256561
vn -0.8596 0.4414 -0.2573
vn -0.6674 0.5772 -0.4706
vn -0.8392 0.3009 -0.4531
vn -0.6520 0.2787 -0.7052
vn -0.5812 -0.8056 -0.1146
vn -0.7703 -0.5952 -0.2289
vn -0.3756 -0.8349 -0.4024
vn -0.4396 0.8839 0.1599
vn -0.3943 0.9190 -0.0085
vn -0.6932 0.7179 0.0633
vn -0.4304 0.8877 -0.1635
vn -0.0268 0.9830 0.1819
vn -0.0643 0.9979 0.0103
vn 0.0031 0.9871 -0.1600
vn -0.3148 -0.9424 -0.1129
vn 0.0040 -0.9895 -0.1444
vn -0.3198 -0.8217 0.4718
vn -0.2326 -0.9209 0.3129
vn -0.0397 -0.9127 0.4068
vn -0.3894 -0.9130 0.1218
vn -0.1310 -0.9830 0.1284
vn -0.3385 -0.6992 0.6297
vn -0.6098 -0.6592 0.4400
vn -0.6613 -0.6960 0.2797
vn -0.7826 -0.6112 0.1185
vn -0.5969 -0.7943 0.1131
vn -0.5816 -0.5128 -0.6314
vn -0.2724 -0.3312 -0.9034
vn -0.2458 -0.6469 -0.7219
vn -0.4570 -0.0776 -0.8861
vn -0.3471 0.6246 -0.6996
vn -0.2496 0.4061 -0.8791
vn -0.5090 0.4543 -0.7311
vn 0.0264 0.6582 -0.7524
vn 0.0288 0.4396 -0.8977
vn -0.7756 -0.2227 -0.5907
vn -0.9457 -0.0587 -0.3197
vn -0.8742 0.0107 -0.4854
vn -0.8543 -0.1369 -0.5014
vn -0.7163 -0.1100 -0.6890
vn -0.7022 -0.1461 -0.6968
vn -0.9401 0.2034 -0.2734
vn -0.7799 -0.3643 0.5090
vn -0.8228 -0.4638 0.3285
vn -0.9159 -0.3802 0.1289
vn -0.9162 -0.3980 -0.0472
vn -0.9218 -0.2782 -0.2699
vn -0.8283 0.3172 0.4619
vn -0.9537 0.1655 0.2511
vn -0.8841 -0.0707 0.4618
vn -0.8689 0.4455 0.2157
vn -0.9525 0.3036 -0.0243
vn -0.9962 -0.0847 0.0211
vn -0.6426 0.5160 0.5664
vn -0.7044 0.2610 0.6601
vn -0.6860 0.6442 0.3382
vn -0.8167 0.5764 -0.0297
vn -0.6952 0.6780 -0.2387
vn -0.3407 -0.5176 0.7849
vn -0.6030 -0.4079 0.6856
vn -0.4770 0.1908 0.8580
vn -0.7306 -0.0252 0.6824
vn -0.0301 -0.6466 0.7622
vn -0.0240 -0.7725 0.6346
vn -0.2284 0.2467 0.9418
vn -0.4152 0.3760 0.8284
vn -0.0285 0.3530 0.9352
vn -0.3718 0.5208 0.7684
vn 0.0125 0.0498 -0.9987
vn -0.0936 0.0609 -0.9937
vn -0.3352 0.1751 -0.9257
vn 0.1540 -0.9544 0.2557
vn -0.4207 0.0360 -0.9065
vn -0.4675 -0.8315 0.2999
vn -0.1276 0.2966 -0.9464
vn -0.2268 -0.1528 -0.9619
vn -0.2598 0.1740 -0.9499
vn -0.1144 -0.0194 -0.9932
vn -0.2636 0.0476 -0.9635
vn 0.0362 0.2305 -0.9724
vn -0.2983 -0.1408 -0.9440
vn -0.5455 -0.0510 0.8366
vn -0.3545 -0.3015 0.8851
vn -0.3511 -0.0432 0.9353
vn -0.0548 -0.4191 0.9063
vn -0.0258 0.5573 0.8299
vn -0.0830 0.7058 0.7035
vn -0.1142 -0.0336 0.9929
vn -0.9898 -0.0571 -0.1307
vn -0.9554 -0.1422 0.2587
vn 0.0005 -0.8585 0.5128
vn -0.4186 -0.1113 -0.9013
vn -0.4321 -0.2545 -0.8652
vn -0.3476 0.4189 -0.8389
vn -0.4758 0.0797 -0.8759
vn 0.2022 -0.1965 -0.9594
vn 0.0744 0.2175 -0.9732
vn -0.2165 0.3397 -0.9153
vn -0.1853 -0.3927 -0.9008
vn 0.0783 -0.3633 -0.9284
vn 0.8827 0.3607 -0.3012
vn 0.6962 0.5779 -0.4258
vn 0.7151 0.6701 -0.1990
vn 0.3896 0.7850 -0.4816
vn -0.0065 0.8429 -0.5380
vn 0.6673 0.6243 0.4063
vn 0.3937 0.8503 0.3493
vn 0.3454 0.7792 0.5231
vn 0.2696 0.6767 0.6851
vn -0.0352 0.8407 0.5404
vn 0.4167 0.8904 0.1830
vn 0.2222 0.9749 0.0166
vn 0.3437 -0.8563 -0.3855
vn 0.4143 -0.9065 -0.0814
vn 0.2790 -0.8822 0.3793
vn 0.2994 -0.7865 0.5402
vn 0.4278 -0.8918 0.1473
vn 0.1979 -0.9767 0.0827
vn 0.6437 -0.6760 0.3588
vn 0.6612 -0.5734 0.4838
vn 0.5806 -0.7714 0.2604
vn 0.6709 -0.7305 0.1277
vn 0.3240 -0.6412 -0.6956
vn 0.2597 -0.3665 -0.8934
vn 0.5379 -0.2087 -0.8168
vn 0.3021 0.4170 -0.8572
vn 0.3944 0.6235 -0.6751
vn 0.5580 0.4652 -0.6871
vn 0.8839 -0.4676 0.0087
vn 0.8507 -0.2903 -0.4382
vn 0.9542 -0.2567 -0.1534
vn 0.8950 -0.0393 -0.4444
vn 0.9669 0.0106 -0.2550
vn 0.8496 0.1406 -0.5083
vn 0.6894 0.2998 -0.6594
vn 0.8500 -0.4913 0.1903
vn 0.8687 -0.3850 0.3117
vn 0.9339 0.1717 0.3136
vn 0.8026 0.2784 0.5275
vn 0.8572 -0.0778 0.5091
vn 0.9782 0.1702 -0.1189
vn 0.8972 0.4368 -0.0657
vn 0.8570 0.4386 0.2705
vn 0.8120 0.5829 0.0293
vn 0.6869 0.7175 0.1158
vn 0.2826 -0.6532 0.7025
vn 0.7442 -0.3451 0.5719
vn 0.5443 -0.3867 0.7444
vn 0.7522 -0.0352 0.6580
vn 0.6632 0.2698 0.6981
vn 0.6153 -0.0274 0.7878
vn 0.4935 0.1922 0.8483
vn 0.3405 0.3834 0.8585
vn 0.9869 -0.1580 -0.0316
vn 0.9792 -0.1661 0.1164
vn 0.7131 0.0108 -0.7010
vn 0.8954 -0.1256 -0.4272
vn 0.6764 -0.6160 -0.4037
vn 0.5915 0.5163 0.6193
vn 0.3090 0.5285 0.7907
vn 0.3582 0.1509 -0.9214
vn 0.2718 0.2041 -0.9404
vn 0.1766 0.4096 -0.8950
vn 0.7179 -0.1038 -0.6883
vn 0.1949 -0.0843 -0.9772
vn 0.4491 -0.2115 -0.8681
vn 0.3406 0.1956 -0.9196
vn 0.1976 -0.0554 -0.9787
vn 0.3977 -0.1340 -0.9077
vn 0.4694 -0.0522 0.8815
vn 0.3008 -0.4131 0.8596
vn 0.3359 0.3462 -0.8759
vn 0.3006 -0.0588 0.9519
vn 0.2658 0.1902 0.9451
vn 0.0682 -0.0463 0.9966
vn 0.1365 -0.3455 0.9284
vn 0.9391 -0.1296 0.3181
vn 0.2468 -0.0234 -0.9688
vn 0.0913 -0.3142 -0.9449
vn 0.0114 0.9419 -0.3358
vn 0.4322 0.8531 -0.2922
vn 0.0279 -0.4238 -0.9053
vn 0.4808 -0.2869 -0.8286
vn 0.4941 -0.1018 -0.8634
vn 0.5060 0.1017 -0.8565
vn 0.3004 0.1456 -0.9426
vn 0.1124 0.2547 -0.9605
vn 0.2669 -0.4256 -0.8646
vn 0.2720 -0.2025 -0.9407
vn 0.5651 -0.2290 -0.7926
vn 0.0253 -0.6443 -0.7643
vn -0.1394 -0.2361 -0.9617
vn -0.3813 0.6667 0.6404
vn -0.4223 0.8494 0.3166
vn -0.4077 0.8508 -0.3315
vn -0.4009 0.7722 0.4929
vn -0.3694 0.7790 -0.5066
vn 0.0150 -0.8805 -0.4738
vn -0.0265 0.9345 0.3549
vn -0.4580 -0.3223 -0.8285
vn 0.4494 0.8891 -0.0876
vn 0.7185 -0.6934 -0.0546
vn 0.9807 0.1808 0.0739
vn 0.0896 0.0558 -0.9944
vn -0.0877 -0.0061 -0.9961
vn 0.3149 0.3644 -0.8764
vt 0.728612 0.195783
vt 0.787787 0.259877
vt 0.717108 0.261235
vt 0.725053 0.307157
vt 0.191149 0.373482
vt 0.216523 0.355701
vt 0.202564 0.392778
vt 0.873864 0.103305
vt 0.878841 0.143308
vt 0.811717 0.120763
vt 0.868709 0.182840
vt 0.959647 0.110546
vt 0.961693 0.153422
vt 0.951534 0.196130
vt 0.346046 0.698572
vt 0.355389 0.678213
vt 0.395600 0.749837
vt 0.986598 0.490354
vt 0.995391 0.537221
vt 0.965965 0.538652
vt 0.121644 0.361208
vt 0.161009 0.409323
vt 0.090401 0.381258
vt 0.006665 0.142996
vt 0.066833 0.151054
vt 0.015755 0.213133
vt 0.106473 0.222791
vt 0.170564 0.271403
vt 0.154350 0.326824
vt 0.347739 0.634835
vt 0.376933 0.649949
vt 0.372545 0.670936
vt 0.362060 0.613201
vt 0.847989 0.299462
vt 0.813954 0.325458
vt 0.787307 0.302391
vt 0.614950 0.422093
vt 0.595815 0.457874
vt 0.515063 0.424398
vt 0.244433 0.356792
vt 0.222723 0.393831
vt 0.290528 0.204197
vt 0.305260 0.234534
vt 0.284261 0.257015
vt 0.313950 0.272085
vt 0.290045 0.287420
vt 0.694612 0.226523
vt 0.678027 0.272217
vt 0.082110 0.102654
vt 0.108390 0.149295
vt 0.187493 0.190068
vt 0.218826 0.258864
vt 0.249403 0.275965
vt 0.168821 0.019530
vt 0.214219 0.061626
vt 0.136700 0.062030
vt 0.229319 0.043560
vt 0.271942 0.086380
vt 0.240022 0.138186
vt 0.308987 0.124089
vt 0.304096 0.150023
vt 0.806579 0.012315
vt 0.759023 0.032999
vt 0.768041 -0.000000
vt 0.812133 0.058585
vt 0.737392 0.083383
vt 0.775730 0.138527
vt 0.801420 0.190792
vt 0.007637 0.094883
vt 0.054089 0.096118
vt 0.242993 0.691535
vt 0.276055 0.721183
vt 0.232803 0.756154
vt 0.060480 0.704521
vt 0.086945 0.756729
vt 0.030379 0.715665
vt 0.123295 0.744589
vt 0.228518 0.652920
vt 0.265531 0.664727
vt 0.221619 0.602750
vt 0.286347 0.639072
vt 0.261360 0.295715
vt 0.500429 0.609332
vt 0.461352 0.657176
vt 0.461821 0.587848
vt 0.980180 0.676121
vt 0.941254 0.615107
vt 0.981339 0.591004
vt 0.339808 0.602147
vt 0.379732 0.561064
vt 0.064429 0.257535
vt 0.030649 0.293063
vt 0.388434 0.542833
vt 0.378831 0.512572
vt 0.411364 0.587186
vt 0.532363 0.520493
vt 0.478321 0.460031
vt 0.577420 0.491141
vt 0.416969 0.467752
vt 0.428027 0.435123
vt 0.049251 0.035569
vt 0.013722 0.074684
vt 0.210844 0.731780
vt 0.190355 0.712090
vt 0.098491 0.687238
vt 0.144957 0.735831
vt 0.253578 0.576066
vt 0.288621 0.559223
vt 0.167721 0.663308
vt 0.091002 0.044145
vt 0.267885 0.169444
vt 0.189087 0.099962
vt 0.336935 0.523900
vt 0.364118 0.523852
vt 0.936741 0.442231
vt 0.943951 0.490467
vt 0.486732 0.562068
vt 0.496144 0.526448
vt 0.059369 0.790080
vt 0.040036 0.775507
vt 0.057439 0.766541
vt 0.667090 0.358665
vt 0.680485 0.366527
vt 0.679539 0.381514
vt 0.057641 0.831418
vt 0.039097 0.829826
vt 0.042982 0.805188
vt 0.460221 0.493733
vt 0.379272 0.486162
vt 0.383110 0.501768
vt 0.451294 0.467778
vt 0.397240 0.513026
vt 0.440886 0.233634
vt 0.405822 0.166336
vt 0.474910 0.148058
vt 0.399036 0.092168
vt 0.336754 0.053645
vt 0.378698 0.036180
vt 0.611004 0.153006
vt 0.598384 0.082224
vt 0.629628 0.094799
vt 0.242603 0.507389
vt 0.296615 0.526857
vt 0.559535 0.079704
vt 0.513008 0.039702
vt 0.548883 0.011782
vt 0.463584 0.012450
vt 0.505315 -0.000000
vt 0.880898 0.756548
vt 0.879794 0.727413
vt 0.966377 0.737889
vt 0.908234 0.548177
vt 0.881046 0.471380
vt 0.882324 0.673005
vt 0.940155 0.691813
vt 0.812997 0.520324
vt 0.794151 0.466326
vt 0.838257 0.606881
vt 0.824150 0.671280
vt 0.501338 0.758956
vt 0.507675 0.731948
vt 0.559111 0.752353
vt 0.338521 0.154144
vt 0.363824 0.111282
vt 0.363501 0.174035
vt 0.657653 0.517916
vt 0.771617 0.676615
vt 0.790568 0.752515
vt 0.735134 0.687445
vt 0.402279 0.368435
vt 0.395100 0.299251
vt 0.434061 0.303448
vt 0.379304 0.261541
vt 0.359370 0.227494
vt 0.310744 0.679017
vt 0.762884 0.591752
vt 0.737550 0.523732
vt 0.075952 0.438113
vt 0.103046 0.456214
vt 0.057398 0.484191
vt 0.483281 0.264832
vt 0.503441 0.223605
vt 0.581978 0.219211
vt 0.634031 0.224440
vt 0.527323 0.174581
vt 0.544243 0.139564
vt 0.851031 0.422801
vt 0.767553 0.433114
vt 0.800760 0.415813
vt 0.064296 0.514614
vt 0.122594 0.489463
vt 0.076295 0.530535
vt 0.136156 0.532690
vt 0.179035 0.534061
vt 0.002613 0.660192
vt 0.026203 0.646530
vt 0.694200 0.625829
vt 0.679484 0.575991
vt 0.333652 0.391389
vt 0.346352 0.369922
vt 0.375948 0.363761
vt 0.581466 0.760281
vt 0.602273 0.735797
vt 0.554999 0.773262
vt 0.174557 0.471941
vt 0.208124 0.520424
vt 0.567630 0.706646
vt 0.611730 0.689789
vt 0.572436 0.676495
vt 0.629230 0.699412
vt 0.633479 0.675105
vt 0.652589 0.664434
vt 0.652893 0.568688
vt 0.577376 0.555013
vt 0.341165 0.257218
vt 0.321671 0.210417
vt 0.350029 0.305353
vt 0.028793 0.575001
vt 0.090660 0.560427
vt 0.053666 0.618533
vt 0.555115 0.658100
vt 0.107146 0.587832
vt 0.157425 0.561021
vt 0.141912 0.642318
vt 0.083970 0.646194
vt 0.473902 0.313630
vt 0.688437 0.508827
vt 0.354691 0.329206
vt 0.497917 0.695574
vt 0.467100 0.694817
vt 0.421376 0.022213
vt 0.440149 0.086681
vt 0.630346 0.616221
vt 0.660647 0.612394
vt 0.014779 0.770909
vt 0.007712 0.798168
vt 0.007220 0.764778
vt 0.023974 0.826201
vt 0.009826 0.847295
vt 0.000000 0.828827
vt 0.085181 0.804234
vt 0.072065 0.779185
vt 0.089633 0.770498
vt 0.615073 0.595217
vt 0.629584 0.574536
vt 0.028519 0.792144
vt 0.433350 0.725327
vt 0.440056 0.671821
vt 0.312324 0.614377
vt 0.982636 0.443628
vt 0.136884 0.424195
vt 0.765259 0.342921
vt 0.128423 0.005205
vt 0.876456 0.066560
vt 0.714182 0.138220
vt 0.866286 0.223552
vt 0.877869 0.033449
vt 0.879132 0.001924
vt 0.861942 0.263731
vt 0.326070 0.664754
vt 0.026228 0.031105
vt 0.663183 0.233761
vt 0.321924 0.513701
vt 0.328825 0.487948
vt 0.555148 0.394033
vt 0.415416 0.739717
vt 0.947978 0.240006
vt 0.958163 0.068742
vt 0.937303 0.002214
vt 0.949227 0.035123
vt 0.933396 0.281760
vt 0.919594 0.323682
vt 0.477640 0.527378
vt 0.458577 0.569390
vt 0.067564 0.813900
vt 0.666493 0.384780
vt 0.820030 0.757018
vt 0.402813 0.532454
vt 0.422667 0.557056
vt 0.649782 0.158146
vt 0.876822 0.778106
vt 0.312763 0.507053
vt 0.250030 0.479174
vt 0.260059 0.456762
vt 0.494761 0.083570
vt 0.818117 0.715238
vt 0.524716 0.261285
vt 0.098086 0.424196
vt 0.481058 0.676320
vt 0.533046 0.638138
vt 0.838586 0.392308
vt 0.018032 0.551499
vt 0.517721 0.315103
vt 0.579950 0.299651
vt 0.713463 0.449064
vt 0.036299 0.463046
vt 0.734017 0.412702
vt 0.944050 0.787826
vt 0.663528 0.465176
vt 0.952206 0.764159
vt 0.619757 0.661756
vt 0.599937 0.668630
vt 0.551343 0.606690
vt 0.027822 0.851063
vt 0.014898 0.865824
vt 0.576028 0.577040
vt 0.073947 0.803929
vt 0.576207 0.594139
vt 0.035199 0.852243
vt 0.681871 0.313565
vt 0.438345 0.581516
vt 0.659504 0.102342
vt 0.591204 0.017609
vt 0.584609 0.257446
vt 0.663183 0.214318
vt 0.553824 0.634650
s 1
usemtl Material.005
f 103/1/1 71/2/2 99/3/3
f 99/3/3 71/2/2 126/4/4
f 116/5/5 73/6/6 89/7/7
f 78/8/8 27/9/9 21/10/10
f 27/9/9 79/11/11 21/10/10
f 82/12/12 5/13/13 27/9/9
f 5/13/13 83/14/14 27/9/9
f 8/15/15 89/16/7 60/17/16
f 90/18/17 7/19/18 28/20/19
f 91/21/20 8/22/15 131/23/21
f 19/24/22 70/25/23 90/26/17
f 74/27/24 102/28/25 115/29/26
f 120/30/27 205/31/28 26/32/29
f 120/30/27 118/33/30 205/31/28
f 20/34/31 92/35/32 119/36/33
f 58/37/34 93/38/35 92/39/32
f 73/6/6 14/40/36 120/41/27
f 10/42/37 96/43/38 113/44/39
f 96/43/38 25/45/40 123/46/41
f 121/47/42 99/3/3 96/48/38
f 70/25/23 94/49/43 16/50/44
f 70/25/23 16/50/44 74/27/24
f 16/50/44 17/51/45 102/28/25
f 95/52/46 112/53/47 73/6/6
f 100/54/48 130/55/49 97/56/50
f 101/57/51 11/58/52 130/55/49
f 130/55/49 11/58/52 29/59/53
f 11/58/52 103/60/1 121/61/42
f 69/62/54 100/63/48 107/64/55
f 84/65/56 101/66/51 100/63/48
f 21/10/10 2/67/57 101/66/51
f 2/67/57 75/68/58 103/1/1
f 30/69/59 104/70/60 19/24/22
f 104/70/60 94/49/43 70/25/23
f 122/71/61 107/72/55 105/73/62
f 109/74/63 19/75/22 24/76/64
f 30/77/59 19/75/22 109/74/63
f 128/78/65 108/79/66 122/71/61
f 13/80/67 111/81/68 108/79/66
f 112/53/47 113/82/39 14/40/36
f 132/83/69 127/84/70 32/85/71
f 131/86/21 188/87/72 7/88/18
f 14/89/36 114/90/73 118/33/30
f 14/89/36 118/33/30 120/30/27
f 115/29/26 116/5/5 91/21/20
f 22/91/74 115/29/26 91/21/20
f 90/26/17 22/91/74 7/92/18
f 21/10/10 75/68/58 2/67/57
f 89/16/7 120/30/27 26/32/29
f 137/93/75 114/90/73 136/94/76
f 114/90/73 137/93/75 15/95/77
f 125/96/78 135/97/79 153/98/80
f 33/99/81 126/100/4 135/97/79
f 117/101/82 104/70/60 31/102/83
f 122/71/61 117/103/82 106/104/84
f 118/33/30 15/95/77 127/84/70
f 18/105/85 31/106/83 30/77/59
f 110/107/86 1/108/87 111/81/68
f 128/78/65 106/104/84 129/109/88
f 105/110/62 94/49/43 104/70/60
f 98/111/89 121/61/42 10/42/37
f 98/111/89 10/42/37 112/53/47
f 9/112/90 17/51/45 16/50/44
f 105/110/62 97/56/50 94/49/43
f 113/113/39 123/114/41 14/89/36
f 24/115/64 90/18/17 88/116/91
f 133/117/92 132/83/69 32/85/71
f 133/117/92 34/118/93 125/96/78
f 124/119/94 206/120/95 32/121/71
f 136/122/76 35/123/96 138/124/97
f 137/125/75 138/126/97 140/127/98
f 135/97/79 34/118/93 139/128/99
f 25/129/40 33/99/81 136/130/76
f 33/99/81 134/131/100 35/132/96
f 164/133/101 142/134/102 146/135/103
f 147/136/104 58/137/34 80/138/105
f 150/139/106 59/140/107 148/141/108
f 176/142/109 81/143/110 1/108/87
f 149/144/111 178/145/112 82/146/12
f 83/147/14 5/148/13 178/145/112
f 152/149/113 54/150/114 60/151/16
f 88/116/91 52/152/115 49/153/116
f 54/150/114 53/154/117 191/155/118
f 49/153/116 145/156/119 161/157/120
f 52/152/115 172/158/121 145/156/119
f 172/158/121 144/159/122 145/156/119
f 53/154/117 144/159/122 172/158/121
f 57/160/123 154/161/124 173/162/125
f 155/163/126 50/164/127 175/165/128
f 93/38/35 58/37/34 155/166/126
f 162/167/129 156/168/130 63/169/131
f 63/170/131 190/171/132 61/172/133
f 177/173/134 187/174/135 164/133/101
f 69/175/54 108/79/66 111/81/68
f 145/156/119 157/176/136 161/157/120
f 161/157/120 157/176/136 46/177/137
f 144/159/122 162/167/129 157/176/136
f 179/178/138 160/179/139 158/180/140
f 189/181/141 164/133/101 42/182/142
f 163/183/143 150/139/106 160/184/139
f 37/185/144 51/186/145 163/183/143
f 161/157/120 168/187/146 49/153/116
f 161/157/120 43/188/147 55/189/148
f 161/157/120 55/189/148 168/187/146
f 56/190/149 167/191/150 165/192/151
f 185/193/152 167/191/150 62/194/153
f 49/195/116 168/196/146 24/76/64
f 162/167/129 63/169/131 159/197/154
f 157/176/136 41/198/155 46/177/137
f 161/157/120 46/177/137 43/188/147
f 156/199/130 44/200/156 170/201/157
f 156/202/130 173/162/125 44/203/156
f 143/204/158 173/162/125 156/202/130
f 54/150/114 144/159/122 53/154/117
f 52/152/115 53/154/117 172/158/121
f 146/135/103 51/186/145 37/185/144
f 62/194/153 48/205/159 169/206/160
f 169/206/160 48/205/159 176/142/109
f 171/207/161 186/208/162 44/203/156
f 186/208/162 171/207/161 45/209/163
f 182/210/164 197/211/165 193/212/166
f 39/213/167 23/214/168 153/98/80
f 187/174/135 195/215/169 39/216/167
f 177/173/134 195/215/169 187/174/135
f 195/215/169 177/173/134 193/217/166
f 55/218/148 174/219/170 47/220/171
f 171/207/161 184/221/172 45/209/163
f 110/107/86 176/142/109 1/108/87
f 166/222/173 181/223/174 12/224/175
f 12/224/175 181/223/174 13/80/67
f 47/220/171 166/222/173 183/225/176
f 174/219/170 165/192/151 185/193/152
f 159/226/154 61/172/133 189/181/141
f 46/177/137 41/198/155 40/227/177
f 170/201/157 182/228/164 190/171/132
f 203/229/178 154/161/124 68/230/179
f 154/161/124 203/229/178 173/162/125
f 60/151/16 191/155/118 131/86/21
f 147/136/104 6/231/180 151/232/181
f 193/212/166 67/233/182 195/234/169
f 66/235/183 192/236/184 23/237/168
f 196/238/185 184/239/172 64/240/186
f 45/241/163 65/242/187 186/243/162
f 67/233/182 198/244/188 194/245/189
f 200/246/190 192/236/184 66/235/183
f 200/246/190 196/238/185 192/236/184
f 3/247/191 68/230/179 57/160/123
f 204/248/192 3/247/191 26/32/29
f 74/27/24 90/26/17 70/25/23
f 111/81/68 72/249/193 69/175/54
f 103/1/1 75/68/58 71/2/2
f 89/7/7 73/6/6 120/41/27
f 24/115/64 19/250/22 90/18/17
f 131/23/21 8/22/15 60/251/16
f 73/6/6 115/29/26 102/28/25
f 22/91/74 74/27/24 115/29/26
f 135/252/79 119/36/33 92/35/32
f 153/98/80 92/39/32 93/38/35
f 126/4/4 96/48/38 99/3/3
f 73/6/6 112/53/47 14/40/36
f 113/44/39 96/43/38 123/46/41
f 121/47/42 103/1/1 99/3/3
f 97/56/50 107/253/55 100/54/48
f 74/27/24 16/50/44 102/28/25
f 102/28/25 17/51/45 95/52/46
f 102/28/25 95/52/46 73/6/6
f 121/61/42 29/59/53 11/58/52
f 100/54/48 101/57/51 130/55/49
f 78/8/8 84/65/56 85/254/194
f 69/62/54 84/65/56 100/63/48
f 84/65/56 21/10/10 101/66/51
f 101/66/51 2/67/57 11/255/52
f 11/255/52 2/67/57 103/1/1
f 19/24/22 104/70/60 70/25/23
f 122/71/61 108/79/66 107/72/55
f 128/78/65 13/80/67 108/79/66
f 111/81/68 1/108/87 72/249/193
f 118/33/30 114/90/73 15/95/77
f 7/88/18 188/87/72 28/20/19
f 31/102/83 104/70/60 30/69/59
f 71/2/2 119/36/33 126/4/4
f 71/2/2 20/34/31 119/36/33
f 91/21/20 116/5/5 8/22/15
f 7/92/18 22/91/74 91/21/20
f 21/10/10 79/11/11 75/68/58
f 79/11/11 86/256/195 75/68/58
f 77/257/196 69/62/54 72/258/193
f 71/2/2 86/256/195 76/259/197
f 84/65/56 77/257/196 85/254/194
f 123/114/41 136/94/76 114/90/73
f 76/259/197 20/34/31 71/2/2
f 8/15/15 116/260/5 89/16/7
f 15/95/77 32/85/71 127/84/70
f 25/129/40 126/100/4 33/99/81
f 106/261/84 117/101/82 31/102/83
f 91/21/20 131/23/21 7/92/18
f 98/111/89 17/51/45 29/59/53
f 13/80/67 110/107/86 111/81/68
f 106/104/84 128/78/65 122/71/61
f 129/109/88 13/80/67 128/78/65
f 129/109/88 106/104/84 31/106/83
f 12/224/175 129/109/88 18/105/85
f 18/105/85 129/109/88 31/106/83
f 109/74/63 18/105/85 30/77/59
f 117/103/82 122/71/61 105/73/62
f 117/101/82 105/110/62 104/70/60
f 9/112/90 130/55/49 29/59/53
f 97/56/50 130/55/49 9/112/90
f 16/50/44 97/56/50 9/112/90
f 95/52/46 98/111/89 112/53/47
f 17/51/45 9/112/90 29/59/53
f 205/31/28 127/84/70 204/248/192
f 10/262/37 121/47/42 96/48/38
f 112/263/47 10/264/37 113/113/39
f 20/265/31 58/37/34 92/39/32
f 14/89/36 123/114/41 114/90/73
f 205/31/28 204/248/192 26/32/29
f 26/32/29 87/266/198 89/16/7
f 88/116/91 90/18/17 28/20/19
f 60/17/16 89/16/7 87/266/198
f 86/256/195 83/14/14 6/267/180
f 27/9/9 83/14/14 79/11/11
f 82/12/12 85/254/194 4/268/199
f 77/257/196 1/269/87 81/270/110
f 78/8/8 82/12/12 27/9/9
f 4/268/199 77/257/196 81/270/110
f 76/259/197 6/267/180 80/271/105
f 58/272/34 76/259/197 80/271/105
f 141/273/200 133/117/92 206/274/95
f 125/96/78 23/214/168 132/83/69
f 133/117/92 125/96/78 132/83/69
f 33/99/81 135/97/79 134/131/100
f 32/85/71 206/274/95 133/117/92
f 15/275/77 137/125/75 124/119/94
f 137/125/75 140/127/98 124/119/94
f 134/131/100 135/97/79 139/128/99
f 137/276/75 136/122/76 138/124/97
f 125/96/78 34/118/93 135/97/79
f 136/130/76 33/99/81 35/132/96
f 35/132/96 134/131/100 139/128/99
f 139/128/99 34/118/93 141/273/200
f 143/277/158 54/150/114 152/149/113
f 124/119/94 140/127/98 206/120/95
f 139/128/99 138/278/97 35/132/96
f 141/273/200 138/278/97 139/128/99
f 206/274/95 138/278/97 141/273/200
f 140/279/98 138/278/97 206/274/95
f 62/194/153 167/191/150 48/205/159
f 164/133/101 187/174/135 142/134/102
f 148/141/108 48/280/159 150/139/106
f 152/149/113 57/281/123 143/277/158
f 147/136/104 80/138/105 6/231/180
f 4/282/199 148/283/108 59/284/107
f 149/144/111 51/186/145 38/285/201
f 176/142/109 148/283/108 81/143/110
f 82/146/12 59/140/107 149/144/111
f 175/165/128 39/216/167 155/163/126
f 82/146/12 178/145/112 5/148/13
f 24/115/64 88/116/91 49/153/116
f 60/151/16 54/150/114 191/155/118
f 191/155/118 53/154/117 188/87/72
f 49/153/116 52/152/115 145/156/119
f 144/159/122 54/150/114 36/286/202
f 155/166/126 153/98/80 93/38/35
f 156/168/130 36/286/202 143/277/158
f 177/173/134 61/172/133 190/171/132
f 190/171/132 182/228/164 193/217/166
f 167/191/150 158/180/140 160/179/139
f 145/156/119 144/159/122 157/176/136
f 144/159/122 36/286/202 162/167/129
f 159/226/154 63/170/131 61/172/133
f 163/183/143 180/287/203 42/182/142
f 179/178/138 163/288/143 160/179/139
f 48/280/159 160/184/139 150/139/106
f 189/181/141 61/172/133 164/133/101
f 180/287/203 189/181/141 42/182/142
f 159/197/154 157/176/136 162/167/129
f 42/182/142 37/185/144 163/183/143
f 163/183/143 51/186/145 150/139/106
f 42/182/142 164/133/101 146/135/103
f 37/185/144 42/182/142 146/135/103
f 185/193/152 165/192/151 167/191/150
f 132/83/69 202/289/204 127/84/70
f 63/170/131 156/199/130 170/201/157
f 149/144/111 150/139/106 51/186/145
f 203/229/178 202/289/204 64/290/186
f 188/87/72 52/152/115 28/20/19
f 173/162/125 171/207/161 44/203/156
f 181/223/174 185/193/152 62/194/153
f 168/187/146 55/189/148 47/291/171
f 187/174/135 175/165/128 142/134/102
f 175/165/128 50/164/127 142/134/102
f 143/204/158 57/160/123 173/162/125
f 52/152/115 188/87/72 53/154/117
f 146/135/103 151/232/181 38/285/201
f 146/135/103 38/285/201 51/186/145
f 151/232/181 142/134/102 147/136/104
f 142/134/102 50/164/127 147/136/104
f 166/222/173 185/193/152 181/223/174
f 182/210/164 186/208/162 197/211/165
f 153/98/80 23/214/168 125/96/78
f 47/220/171 174/219/170 166/222/173
f 184/221/172 203/229/178 64/290/186
f 173/162/125 203/229/178 171/207/161
f 169/206/160 13/80/67 62/194/153
f 18/105/85 47/220/171 183/225/176
f 47/220/171 109/74/63 168/196/146
f 110/107/86 169/206/160 176/142/109
f 129/109/88 12/224/175 13/80/67
f 13/80/67 181/223/174 62/194/153
f 183/225/176 166/222/173 12/224/175
f 18/105/85 183/225/176 12/224/175
f 24/76/64 168/196/146 109/74/63
f 165/192/151 43/292/147 56/190/149
f 55/218/148 165/192/151 174/219/170
f 189/181/141 41/293/155 159/226/154
f 180/287/203 40/294/177 41/293/155
f 158/295/140 46/177/137 40/227/177
f 40/296/177 179/178/138 158/180/140
f 43/188/147 158/295/140 56/297/149
f 152/149/113 3/298/191 57/281/123
f 190/171/132 193/217/166 177/173/134
f 170/201/157 44/200/156 182/228/164
f 63/170/131 170/201/157 190/171/132
f 155/166/126 58/37/34 50/299/127
f 186/208/162 182/210/164 44/203/156
f 68/230/179 154/161/124 57/160/123
f 131/86/21 191/155/118 188/87/72
f 88/116/91 28/20/19 52/152/115
f 83/147/14 151/232/181 6/231/180
f 87/300/198 152/149/113 60/151/16
f 199/301/205 186/208/162 65/302/187
f 38/285/201 83/147/14 178/145/112
f 149/144/111 38/285/201 178/145/112
f 147/136/104 50/164/127 58/137/34
f 23/214/168 192/303/184 132/83/69
f 192/303/184 64/290/186 132/83/69
f 192/236/184 196/238/185 64/240/186
f 184/239/172 201/304/206 45/305/163
f 39/213/167 195/234/169 194/245/189
f 195/234/169 67/233/182 194/245/189
f 23/214/168 194/245/189 66/306/183
f 45/241/163 201/307/206 65/242/187
f 66/306/183 198/244/188 200/308/190
f 197/211/165 199/301/205 193/212/166
f 193/212/166 199/301/205 67/233/182
f 65/302/187 200/308/190 199/301/205
f 196/238/185 201/304/206 184/239/172
f 196/238/185 65/309/187 201/304/206
f 198/244/188 199/301/205 200/308/190
f 67/233/182 199/301/205 198/244/188
f 3/247/191 204/248/192 68/230/179
f 68/230/179 202/289/204 203/229/178
f 68/230/179 204/248/192 202/289/204
f 127/84/70 202/289/204 204/248/192
f 69/175/54 107/72/55 108/79/66
f 74/27/24 22/91/74 90/26/17
f 73/6/6 116/5/5 115/29/26
f 135/252/79 126/4/4 119/36/33
f 153/98/80 135/97/79 92/39/32
f 126/4/4 25/310/40 96/48/38
f 97/56/50 105/110/62 107/253/55
f 121/61/42 98/111/89 29/59/53
f 78/8/8 21/10/10 84/65/56
f 77/257/196 84/65/56 69/62/54
f 71/2/2 75/68/58 86/256/195
f 123/114/41 25/129/40 136/94/76
f 15/95/77 124/311/94 32/85/71
f 98/111/89 95/52/46 17/51/45
f 16/50/44 94/49/43 97/56/50
f 205/31/28 118/33/30 127/84/70
f 26/32/29 3/247/191 87/266/198
f 86/256/195 79/11/11 83/14/14
f 82/12/12 78/8/8 85/254/194
f 77/257/196 72/258/193 1/269/87
f 4/268/199 85/254/194 77/257/196
f 76/259/197 86/256/195 6/267/180
f 58/272/34 20/34/31 76/259/197
f 141/273/200 34/118/93 133/117/92
f 143/277/158 36/286/202 54/150/114
f 148/141/108 176/312/109 48/280/159
f 4/282/199 81/143/110 148/283/108
f 82/146/12 4/313/199 59/140/107
f 175/165/128 187/174/135 39/216/167
f 155/166/126 39/213/167 153/98/80
f 156/168/130 162/167/129 36/286/202
f 177/173/134 164/133/101 61/172/133
f 167/191/150 56/190/149 158/180/140
f 163/183/143 179/314/138 180/287/203
f 48/280/159 167/315/150 160/184/139
f 159/197/154 41/198/155 157/176/136
f 132/83/69 64/290/186 202/289/204
f 149/144/111 59/140/107 150/139/106
f 151/232/181 146/135/103 142/134/102
f 166/222/173 174/219/170 185/193/152
f 184/221/172 171/207/161 203/229/178
f 169/206/160 110/107/86 13/80/67
f 47/220/171 18/105/85 109/74/63
f 165/192/151 55/218/148 43/292/147
f 189/181/141 180/287/203 41/293/155
f 180/287/203 179/314/138 40/294/177
f 158/295/140 43/188/147 46/177/137
f 152/149/113 87/300/198 3/298/191
f 83/147/14 38/285/201 151/232/181
f 199/301/205 197/211/165 186/208/162
f 23/214/168 39/213/167 194/245/189
f 66/306/183 194/245/189 198/244/188
f 65/302/187 196/316/185 200/308/190
