# Blender 4.3.0
# www.blender.org
mtllib keyHole.mtl
o 鍵穴
v 0.012269 -0.185284 2.281897
v -0.012269 -0.185284 2.257359
v -0.012269 -0.185284 2.281897
v 0.019438 -0.099374 2.250190
v 0.022579 -0.118340 2.247049
v -0.022579 -0.118340 2.247049
v 0.012269 -0.185284 2.257359
v 0.015706 -0.185359 2.276354
v 0.016890 -0.185242 2.269628
v 0.015706 -0.185359 2.262902
v -0.006725 -0.185359 2.285334
v 0.000000 -0.185242 2.286518
v 0.006725 -0.185359 2.285334
v -0.015706 -0.185359 2.262902
v -0.016890 -0.185242 2.269628
v -0.015706 -0.185359 2.276354
v 0.006725 -0.185359 2.253922
v 0.000000 -0.185242 2.252738
v -0.006725 -0.185359 2.253922
v 0.012926 -0.087332 2.260270
v 0.017510 -0.089025 2.273541
v 0.009449 -0.087379 2.282586
v 0.024753 -0.099017 2.259111
v 0.026369 -0.098681 2.269628
v 0.024753 -0.099017 2.280145
v 0.019438 -0.099374 2.289066
v 0.028912 -0.118187 2.257103
v 0.031134 -0.118066 2.269628
v 0.028912 -0.118187 2.282153
v -0.007481 -0.085831 2.273914
v -0.003955 -0.088747 2.286748
v -0.015312 -0.089322 2.280513
v 0.010517 -0.099017 2.294381
v 0.000000 -0.098681 2.295997
v -0.010517 -0.099017 2.294381
v -0.019438 -0.099374 2.289066
v 0.012525 -0.118187 2.298540
v 0.000000 -0.118066 2.300762
v -0.012525 -0.118187 2.298540
v -0.017510 -0.089025 2.265715
v -0.009358 -0.087332 2.256702
v -0.024753 -0.099017 2.280145
v -0.026369 -0.098681 2.269628
v -0.024753 -0.099017 2.259111
v -0.019438 -0.099374 2.250190
v -0.028912 -0.118187 2.282153
v -0.031134 -0.118066 2.269628
v -0.028912 -0.118187 2.257103
v 0.003913 -0.089025 2.252119
v -0.010517 -0.099017 2.244875
v 0.000000 -0.098681 2.243259
v 0.010517 -0.099017 2.244875
v -0.012525 -0.118187 2.240716
v 0.000000 -0.118066 2.238494
v 0.012525 -0.118187 2.240716
v 0.022579 -0.118340 2.292207
v -0.022579 -0.118340 2.292207
v 0.030204 -0.312892 2.282652
v -0.000190 -0.312131 2.304795
v -0.031682 -0.313018 2.260185
v 0.025604 -0.309498 2.244026
v 0.025602 -0.309498 2.295232
v -0.025602 -0.309498 2.244024
v -0.025604 -0.309498 2.295230
v -0.032893 -0.311556 2.284037
v -0.035135 -0.308650 2.269628
v -0.032787 -0.308390 2.255593
v 0.014118 -0.310596 2.302577
v -0.014102 -0.309604 2.302507
v -0.014118 -0.310596 2.236679
v 0.014035 -0.308390 2.236841
v 0.032893 -0.311553 2.255221
v 0.035196 -0.309953 2.269627
v 0.032787 -0.308390 2.283663
v 0.001472 -0.311662 2.234450
vn 0.7070 -0.0328 -0.7065
vn 0.9342 -0.0308 -0.3554
vn 0.8278 -0.4488 -0.3367
vn 0.9219 -0.1592 0.3531
vn 0.9343 -0.0297 0.3552
vn 0.7065 -0.0329 0.7069
vn 0.3555 -0.0305 0.9342
vn 0.3434 -0.3849 0.8567
vn -0.3611 -0.3462 0.8659
vn -0.3555 -0.0302 0.9342
vn -0.7069 -0.0329 0.7066
vn -0.9343 -0.0307 0.3551
vn -0.8293 -0.4431 0.3404
vn -0.9141 -0.1643 -0.3708
vn -0.9344 -0.0297 -0.3551
vn -0.7065 -0.0329 -0.7069
vn -0.3555 -0.0305 -0.9342
vn -0.3295 -0.4038 -0.8534
vn 0.3690 -0.2371 -0.8987
vn 0.3555 -0.0299 -0.9342
vn 0.9510 -0.3093 0.0041
vn 0.5233 -0.8263 0.2081
vn 0.5676 0.8159 0.1103
vn 0.8362 0.4405 0.3267
vn 0.8942 0.4476 -0.0117
vn -0.1369 0.9876 0.0768
vn -0.1076 0.8255 0.5541
vn 0.2787 0.8729 0.4004
vn -0.4918 0.8041 0.3341
vn -0.3241 0.4397 0.8376
vn 0.0131 0.4516 0.8921
vn -0.5704 0.8136 -0.1124
vn -0.8362 0.4405 -0.3267
vn -0.8950 0.4460 0.0101
vn 0.1107 0.8155 -0.5681
vn 0.3267 0.4405 -0.8362
vn -0.0117 0.4476 -0.8942
vn -0.0100 -0.4692 0.8830
vn -0.6097 -0.7780 -0.1517
vn 0.0261 -0.4649 -0.8850
vn -0.9326 0.0104 0.3608
vn 0.6427 -0.3494 -0.6818
vn -0.9819 -0.1893 -0.0003
vn -0.9995 -0.0322 0.0005
vn -0.6643 -0.3337 -0.6688
vn 0.0001 -0.0323 0.9995
vn -0.6430 -0.3502 0.6811
vn -0.0003 -0.0322 -0.9995
vn 0.9995 -0.0324 -0.0005
vn 0.6656 -0.3164 0.6759
vn -0.9999 0.0131 -0.0000
vn -0.9326 0.0104 -0.3608
vn -0.7071 0.0058 -0.7071
vn 0.3607 0.0104 0.9326
vn -0.0000 0.0132 0.9999
vn -0.3607 0.0104 0.9326
vn -0.7071 0.0058 0.7071
vn -0.3608 0.0104 -0.9326
vn -0.0000 0.0131 -0.9999
vn 0.3608 0.0104 -0.9326
vn 0.7071 0.0058 -0.7071
vn 0.8383 0.4478 -0.3110
vn 0.3954 0.8774 -0.2716
vn 0.6322 0.4392 -0.6383
vn 0.6385 0.4388 0.6322
vn 0.9326 0.0104 -0.3608
vn 0.9999 0.0131 -0.0000
vn 0.9326 0.0104 0.3608
vn 0.3086 0.4495 0.8383
vn 0.7071 0.0058 0.7071
vn -0.6323 0.4276 0.6460
vn -0.8461 0.4358 0.3069
vn -0.2723 0.8734 -0.4039
vn -0.6383 0.4392 -0.6322
vn -0.3110 0.4478 -0.8383
vt 0.377079 0.000000
vt 0.378818 0.062500
vt 0.624873 0.058266
vt 0.624695 0.187500
vt 0.379837 0.187500
vt 0.379628 0.250000
vt 0.379877 0.312500
vt 0.624818 0.312500
vt 0.624820 0.437500
vt 0.379877 0.437500
vt 0.379628 0.500000
vt 0.379877 0.562500
vt 0.626465 0.558261
vt 0.624985 0.687500
vt 0.379877 0.687500
vt 0.379628 0.750000
vt 0.379837 0.812500
vt 0.624878 0.812500
vt 0.624780 0.937500
vt 0.378819 0.937500
vt 0.377079 1.000000
vt 0.624993 0.125000
vt 0.625000 0.189881
vt 0.185034 0.609760
vt 0.136879 0.574484
vt 0.137525 0.625000
vt 0.273800 0.609370
vt 0.265248 0.562120
vt 0.215181 0.578687
vt 0.307139 0.583422
vt 0.300516 0.511879
vt 0.250000 0.512525
vt 0.314967 0.640241
vt 0.362162 0.676626
vt 0.361158 0.625000
vt 0.234759 0.689966
vt 0.199484 0.738121
vt 0.250000 0.737475
vt 0.853788 0.527649
vt 0.724836 0.513718
vt 0.633554 0.669664
vt 0.775539 0.750000
vt 0.875000 0.729738
vt 0.375000 0.563731
vt 0.624992 0.883352
vt 0.625000 1.000000
vt 0.625387 0.625000
vt 0.379523 0.625000
vt 0.625255 0.750000
vt 0.379523 0.375000
vt 0.624998 0.376650
vt 0.625255 0.500000
vt 0.379191 0.875000
vt 0.379191 0.125000
vt 0.624971 0.250000
vt 0.375000 0.625000
vt 0.375000 0.686269
vt 0.375000 0.747704
vt 0.375000 0.313731
vt 0.375000 0.375000
vt 0.375000 0.436269
vt 0.375000 0.497704
vt 0.375000 0.813731
vt 0.375000 0.875000
vt 0.375000 0.936269
vt 0.375000 0.997704
vt 0.136879 0.675516
vt 0.203892 0.659471
vt 0.148028 0.738949
vt 0.148028 0.511052
vt 0.375000 0.063731
vt 0.375000 0.002296
vt 0.375000 0.011923
vt 0.375000 0.125000
vt 0.375000 0.068703
vt 0.375000 0.181297
vt 0.375000 0.186269
vt 0.375000 0.238077
vt 0.199484 0.511879
vt 0.375000 0.252812
vt 0.375000 0.261923
vt 0.375000 0.318703
vt 0.375000 0.431297
vt 0.375000 0.488077
vt 0.362162 0.573374
vt 0.284471 0.671108
vt 0.363949 0.520464
vt 0.351972 0.738949
vt 0.375000 0.502812
vt 0.363949 0.729537
vt 0.300516 0.738121
vt 0.375000 0.752812
vt 0.375000 0.761923
vt 0.375000 0.818703
vt 0.375000 0.931297
vt 0.375000 0.988077
vt 0.375000 0.247704
vt 0.631389 0.670163
vt 0.625000 0.000000
s 1
f 7/1/1 10/2/2 72/3/3
f 74/4/4 8/5/5 1/6/6
f 1/6/6 13/7/7 68/8/8
f 69/9/9 11/10/10 3/11/11
f 3/11/11 16/12/12 65/13/13
f 67/14/14 14/15/15 2/16/16
f 2/16/16 19/17/17 70/18/18
f 71/19/19 17/20/20 7/21/1
f 73/22/21 74/4/4 58/23/22
f 73/22/21 58/23/22 72/3/3
f 21/24/23 25/25/24 24/26/25
f 30/27/26 31/28/27 22/29/28
f 30/27/26 32/30/29 31/28/27
f 31/28/27 35/31/30 34/32/31
f 40/33/32 44/34/33 43/35/34
f 49/36/35 52/37/36 51/38/37
f 58/39/22 59/40/38 60/41/39
f 58/39/22 75/42/40 72/43/3
f 46/44/41 16/12/12 3/11/11
f 75/45/40 61/46/42 72/46/3
f 66/47/43 67/14/14 60/41/39
f 66/47/43 60/41/39 65/13/13
f 65/13/13 15/48/44 66/47/43
f 2/16/16 63/49/45 67/14/14
f 68/8/8 12/50/46 59/51/38
f 3/11/11 64/52/47 69/9/9
f 70/18/18 18/53/48 75/45/40
f 7/21/1 61/46/42 71/19/19
f 72/3/3 9/54/49 73/22/21
f 1/6/6 62/55/50 74/4/4
f 10/2/2 9/54/49 72/3/3
f 9/54/49 8/5/5 74/4/4
f 13/7/7 12/50/46 68/8/8
f 12/50/46 11/10/10 69/9/9
f 16/12/12 15/48/44 65/13/13
f 15/48/44 14/15/15 67/14/14
f 19/17/17 18/53/48 70/18/18
f 18/53/48 17/20/20 71/19/19
f 47/56/51 15/48/44 16/12/12
f 47/56/51 48/57/52 14/15/15
f 48/57/52 6/58/53 2/16/16
f 37/59/54 13/7/7 1/6/6
f 74/4/4 62/55/50 58/23/22
f 38/60/55 12/50/46 13/7/7
f 38/60/55 39/61/56 11/10/10
f 39/61/56 57/62/57 3/11/11
f 53/63/58 19/17/17 2/16/16
f 54/64/59 18/53/48 19/17/17
f 54/64/59 55/65/60 17/20/20
f 55/65/60 5/66/61 7/21/1
f 21/24/23 24/26/25 23/67/62
f 30/27/26 22/29/28 20/68/63
f 22/29/28 21/24/23 20/68/63
f 20/68/63 23/67/62 4/69/64
f 26/70/65 25/25/24 21/24/23
f 27/71/66 5/72/61 4/73/64
f 28/74/67 27/71/66 23/75/62
f 28/74/67 24/74/25 25/76/24
f 29/77/68 25/76/24 26/78/65
f 34/32/31 33/79/69 22/29/28
f 22/29/28 33/79/69 26/70/65
f 35/31/30 31/28/27 32/30/29
f 37/59/54 56/80/70 26/81/65
f 38/60/55 37/59/54 33/82/69
f 38/60/55 34/60/31 35/83/30
f 39/61/56 35/83/30 36/84/71
f 43/35/34 42/85/72 32/30/29
f 30/27/26 40/33/32 32/30/29
f 41/86/73 40/33/32 30/27/26
f 32/30/29 42/85/72 36/87/71
f 45/88/74 44/34/33 40/33/32
f 46/44/41 57/89/57 36/87/71
f 47/56/51 46/44/41 42/85/72
f 47/56/51 43/35/34 44/34/33
f 48/57/52 44/34/33 45/90/74
f 49/36/35 51/38/37 50/91/75
f 30/27/26 20/68/63 41/86/73
f 20/68/63 49/36/35 41/86/73
f 41/86/73 50/91/75 45/88/74
f 4/69/64 52/37/36 49/36/35
f 53/63/58 6/92/53 45/93/74
f 54/64/59 53/63/58 50/94/75
f 54/64/59 51/64/37 52/95/36
f 55/65/60 52/95/36 4/96/64
f 27/71/66 10/2/2 7/1/1
f 28/74/67 9/54/49 10/2/2
f 28/74/67 29/77/68 8/5/5
f 29/77/68 56/97/70 1/6/6
f 65/13/13 59/51/38 69/9/9
f 60/41/39 75/42/40 58/39/22
f 65/13/13 60/41/39 59/40/38
f 70/18/18 60/98/39 63/49/45
f 70/18/18 75/45/40 60/98/39
f 71/19/19 61/46/42 75/45/40
f 68/8/8 58/23/22 62/55/50
f 68/8/8 59/51/38 58/23/22
f 67/14/14 63/49/45 60/41/39
f 67/14/14 66/47/43 15/48/44
f 3/11/11 65/13/13 64/52/47
f 69/9/9 59/51/38 12/50/46
f 1/6/6 68/8/8 62/55/50
f 71/19/19 75/45/40 18/53/48
f 2/16/16 70/18/18 63/49/45
f 74/4/4 73/22/21 9/54/49
f 7/1/1 72/3/3 61/99/42
f 46/44/41 3/11/11 57/62/57
f 47/56/51 16/12/12 46/44/41
f 47/56/51 14/15/15 15/48/44
f 48/57/52 2/16/16 14/15/15
f 37/59/54 1/6/6 56/97/70
f 38/60/55 13/7/7 37/59/54
f 38/60/55 11/10/10 12/50/46
f 39/61/56 3/11/11 11/10/10
f 53/63/58 2/16/16 6/58/53
f 54/64/59 19/17/17 53/63/58
f 54/64/59 17/20/20 18/53/48
f 55/65/60 7/21/1 17/20/20
f 21/24/23 23/67/62 20/68/63
f 26/70/65 21/24/23 22/29/28
f 27/71/66 4/73/64 23/75/62
f 28/74/67 23/75/62 24/74/25
f 28/74/67 25/76/24 29/77/68
f 29/77/68 26/78/65 56/97/70
f 34/32/31 22/29/28 31/28/27
f 35/31/30 32/30/29 36/87/71
f 37/59/54 26/81/65 33/82/69
f 38/60/55 33/82/69 34/60/31
f 38/60/55 35/83/30 39/61/56
f 39/61/56 36/84/71 57/62/57
f 43/35/34 32/30/29 40/33/32
f 45/88/74 40/33/32 41/86/73
f 46/44/41 36/87/71 42/85/72
f 47/56/51 42/85/72 43/35/34
f 47/56/51 44/34/33 48/57/52
f 48/57/52 45/90/74 6/58/53
f 49/36/35 50/91/75 41/86/73
f 4/69/64 49/36/35 20/68/63
f 53/63/58 45/93/74 50/94/75
f 54/64/59 50/94/75 51/64/37
f 54/64/59 52/95/36 55/65/60
f 55/65/60 4/96/64 5/66/61
f 27/71/66 7/1/1 5/72/61
f 28/74/67 10/2/2 27/71/66
f 28/74/67 8/5/5 9/54/49
f 29/77/68 1/6/6 8/5/5
f 65/13/13 69/9/9 64/52/47
