# Blender 4.1.1
# www.blender.org
mtllib LeftLowerArm.mtl
o 左腕
v 0.124731 0.056103 -0.020798
v 0.124599 0.056448 0.010566
v 0.104902 0.080461 -0.027286
v 0.088289 0.101586 -0.010427
v 0.090177 0.099773 0.015058
v 0.107986 0.077573 0.025287
v 0.023693 -0.003161 -0.015159
v 0.023595 -0.002904 0.008174
v 0.008941 0.014960 -0.025155
v -0.003418 0.030676 -0.011817
v -0.002013 0.029328 0.011516
v 0.011236 0.012812 0.021511
v -0.024463 0.017052 -0.011290
v -0.023524 0.016725 0.011131
v -0.000658 -0.009935 0.008890
v -0.000622 -0.010268 -0.014528
v -0.010199 0.003450 0.020153
v -0.012004 0.005736 -0.018888
v -0.013273 0.024304 0.011624
v 0.012433 -0.008183 -0.015051
v -0.000023 0.007788 0.021619
v -0.014677 0.025652 -0.011709
v 0.012336 -0.007928 0.008282
v -0.002318 0.009936 -0.025047
v 0.016821 0.000838 -0.023231
v 0.010316 0.008829 -0.027639
v 0.012322 -0.008909 -0.020012
v -0.000689 0.007073 -0.028828
v -0.005220 -0.002599 -0.025599
v 0.000866 -0.009701 -0.021055
v 0.015378 -0.008612 -0.038902
v 0.012666 -0.004489 -0.044228
v 0.011043 -0.010986 -0.033583
v 0.005618 -0.002741 -0.044236
v 0.001283 -0.005115 -0.038917
v 0.003995 -0.009238 -0.033590
v 0.010924 -0.017106 -0.044764
v 0.009065 -0.014280 -0.048415
v 0.007952 -0.018733 -0.041118
v 0.004234 -0.013082 -0.048421
v 0.001263 -0.014709 -0.044775
v 0.003122 -0.017535 -0.041124
v 0.007013 -0.020370 -0.047353
v 0.006280 -0.019255 -0.048794
v 0.005840 -0.021012 -0.045913
v 0.004373 -0.018782 -0.048796
v 0.003200 -0.019424 -0.047357
v 0.003933 -0.020539 -0.045915
v -0.036286 -0.003603 -0.003837
v -0.035762 -0.003786 0.008673
v -0.023004 -0.018661 0.007423
v -0.022984 -0.018847 -0.005643
v -0.028327 -0.011193 0.013707
v -0.029334 -0.009917 -0.008076
v -0.036286 -0.003603 -0.003837
v -0.035762 -0.003786 0.008673
v -0.023004 -0.018661 0.007423
v -0.022984 -0.018847 -0.005643
v -0.028327 -0.011193 0.013707
v -0.029334 -0.009917 -0.008076
v -0.038558 -0.013976 -0.000615
v -0.038322 -0.014058 0.005039
v -0.032556 -0.020781 0.004474
v -0.032547 -0.020865 -0.001432
v -0.034961 -0.017406 0.007314
v -0.035417 -0.016829 -0.002531
v -0.039409 -0.019696 0.001626
v -0.039372 -0.019709 0.002510
v -0.038471 -0.020760 0.002421
v -0.038470 -0.020773 0.001498
v -0.038847 -0.020232 0.002865
v -0.038918 -0.020142 0.001327
vn 0.2091 -0.3363 -0.9183
vn -0.3316 0.4451 -0.8318
vn -0.6065 0.7886 0.1010
vn 0.5064 -0.8622 0.0116
vn -0.2127 0.2630 0.9411
vn 0.2306 -0.4277 0.8740
vn -0.3130 0.6874 -0.6553
vn -0.2932 0.2891 -0.9113
vn 0.1274 -0.5816 0.8034
vn -0.2710 0.3299 0.9043
vn -0.5950 0.7995 0.0820
vn 0.1581 -0.9874 0.0114
vn 0.4074 -0.9132 0.0118
vn -0.4057 0.9108 0.0771
vn -0.1722 0.4052 0.8978
vn 0.2370 -0.5135 0.8247
vn -0.2370 0.5135 -0.8247
vn 0.3138 -0.7171 -0.6224
vn -0.6793 -0.7073 -0.1957
vn -0.0719 0.8277 -0.5566
vn -0.6697 -0.7110 -0.2145
vn 0.0552 -0.9881 0.1434
vn 0.7894 0.3742 -0.4867
vn -0.5800 0.1694 -0.7968
vn -0.9268 -0.1943 0.3215
vn 0.0911 0.3631 -0.9273
vn 0.7195 -0.6220 0.3088
vn -0.2375 -0.9566 0.1688
vn -0.8522 0.2448 -0.4624
vn 0.9105 0.3758 -0.1728
vn -0.7798 0.0223 -0.6256
vn -0.2099 -0.8440 0.4936
vn 0.7278 -0.6048 0.3233
vn -0.1630 -0.6538 0.7389
vn -0.7997 0.3141 -0.5116
vn 0.8549 -0.0963 -0.5098
vn -0.2033 -0.8217 -0.5324
vn -0.2032 -0.8217 -0.5325
vn 0.7011 -0.3451 -0.6240
vn 0.0175 0.0661 -0.9977
vn -0.8935 -0.4328 0.1200
vn 0.5874 -0.8001 0.1216
vn 0.3629 -0.9317 0.0138
vn -0.4413 0.1574 0.8834
vn -0.5250 -0.0066 -0.8511
vn -0.8602 0.5081 0.0434
vn 0.1666 -0.5627 0.8097
vn -0.2063 -0.3911 -0.8969
vn -0.0000 1.0000 -0.0000
vn 0.2124 -0.9771 0.0142
vn -0.6322 -0.1137 0.7664
vn -0.5927 -0.1176 -0.7968
vn -0.9729 0.2269 0.0440
vn -0.0774 -0.6737 0.7350
vn -0.2844 -0.4350 -0.8543
vn -0.9855 0.1637 0.0437
vn -0.2305 -0.7175 0.6573
vn -0.3924 -0.4910 -0.7778
vn -0.0084 -0.9999 0.0142
vn -0.6748 -0.1933 0.7123
vn -0.6351 -0.1980 -0.7466
vn 0.0664 -0.2060 -0.9763
vn -0.3125 0.4302 -0.8469
vn -0.6104 0.7878 0.0823
vn -0.2808 0.3220 0.9042
vn 0.2876 -0.4781 0.8299
vn 0.0387 0.3827 -0.9231
vn -0.5867 0.2038 -0.7838
vn 0.1322 -0.5814 0.8028
vn -0.2848 0.3266 0.9012
vn -0.6587 0.7514 0.0385
vn 0.1533 -0.9881 0.0143
vn 0.4076 -0.9131 0.0117
vn 0.9121 -0.4081 0.0393
vn -0.6806 -0.7050 -0.1991
vn 0.1937 0.7782 -0.5974
vn -0.8026 -0.5916 -0.0766
vn 0.1555 -0.9865 -0.0503
vn -0.8275 0.2144 -0.5188
vn 0.9052 -0.4246 -0.0203
vn 0.0707 -0.9973 -0.0192
vn -0.8006 0.2998 -0.5187
vn 0.8113 0.4646 -0.3549
vn -0.2033 -0.8217 -0.5325
vn -0.9729 0.2269 0.0441
vt 0.312500 0.625000
vt 0.312500 0.562500
s 0
f 3/1/1 7/1/1 9/1/1
f 4/1/2 9/1/2 10/1/2
f 4/1/3 11/2/3 5/2/3
f 2/2/4 7/1/4 1/1/4
f 5/2/5 12/2/5 6/2/5
f 6/2/6 8/2/6 2/2/6
f 9/1/7 28/1/7 24/1/7
f 22/1/8 18/1/8 13/1/8
f 21/2/9 15/2/9 23/2/9
f 19/2/10 17/2/10 21/2/10
f 22/1/11 14/2/11 19/2/11
f 23/2/12 16/1/12 20/1/12
f 8/2/13 20/1/13 7/1/13
f 10/1/14 19/2/14 11/2/14
f 11/2/15 21/2/15 12/2/15
f 12/2/16 23/2/16 8/2/16
f 10/1/17 24/1/17 22/1/17
f 20/1/18 25/1/18 7/1/18
f 29/1/19 36/1/19 30/1/19
f 26/1/20 34/1/20 28/1/20
f 16/1/21 29/1/21 30/1/21
f 20/1/22 30/1/22 27/1/22
f 9/1/23 25/1/23 26/1/23
f 24/1/24 29/1/24 18/1/24
f 35/1/25 42/1/25 36/1/25
f 32/1/26 40/1/26 34/1/26
f 25/1/27 33/1/27 31/1/27
f 27/1/28 36/1/28 33/1/28
f 28/1/29 35/1/29 29/1/29
f 26/1/30 31/1/30 32/1/30
f 41/1/31 46/1/31 47/1/31
f 39/1/32 48/1/32 45/1/32
f 31/1/33 39/1/33 37/1/33
f 36/1/34 39/1/34 33/1/34
f 35/1/35 40/1/35 41/1/35
f 32/1/36 37/1/36 38/1/36
f 45/1/37 47/1/37 46/1/37
f 43/1/38 46/1/38 44/1/38
f 37/1/39 44/1/39 38/1/39
f 38/1/40 46/1/40 40/1/40
f 42/1/41 47/1/41 48/1/41
f 39/1/42 43/1/42 37/1/42
f 15/2/43 52/1/43 16/1/43
f 14/2/44 53/2/44 17/2/44
f 13/1/45 54/1/45 49/1/45
f 14/2/46 49/1/46 50/2/46
f 15/2/47 53/2/47 51/2/47
f 16/1/48 54/1/48 18/1/48
f 50/2/49 55/1/49 56/2/49
f 51/2/49 59/2/49 57/2/49
f 54/1/49 58/1/49 60/1/49
f 52/1/49 57/2/49 58/1/49
f 53/2/49 56/2/49 59/2/49
f 49/1/49 60/1/49 55/1/49
f 57/2/50 64/1/50 58/1/50
f 59/2/51 62/2/51 65/2/51
f 60/1/52 61/1/52 55/1/52
f 55/1/53 62/2/53 56/2/53
f 57/2/54 65/2/54 63/2/54
f 58/1/55 66/1/55 60/1/55
f 61/1/56 68/2/56 62/2/56
f 63/2/57 71/2/57 69/2/57
f 66/1/58 70/1/58 72/1/58
f 63/2/59 70/1/59 64/1/59
f 62/2/60 71/2/60 65/2/60
f 66/1/61 67/1/61 61/1/61
f 3/1/62 1/1/62 7/1/62
f 4/1/63 3/1/63 9/1/63
f 4/1/64 10/1/64 11/2/64
f 2/2/4 8/2/4 7/1/4
f 5/2/65 11/2/65 12/2/65
f 6/2/66 12/2/66 8/2/66
f 9/1/67 26/1/67 28/1/67
f 22/1/68 24/1/68 18/1/68
f 21/2/69 17/2/69 15/2/69
f 19/2/70 14/2/70 17/2/70
f 22/1/71 13/1/71 14/2/71
f 23/2/72 15/2/72 16/1/72
f 8/2/73 23/2/73 20/1/73
f 10/1/14 22/1/14 19/2/14
f 11/2/15 19/2/15 21/2/15
f 12/2/16 21/2/16 23/2/16
f 10/1/17 9/1/17 24/1/17
f 20/1/74 27/1/74 25/1/74
f 29/1/75 35/1/75 36/1/75
f 26/1/76 32/1/76 34/1/76
f 16/1/77 18/1/77 29/1/77
f 20/1/78 16/1/78 30/1/78
f 9/1/23 7/1/23 25/1/23
f 24/1/79 28/1/79 29/1/79
f 35/1/25 41/1/25 42/1/25
f 32/1/26 38/1/26 40/1/26
f 25/1/80 27/1/80 33/1/80
f 27/1/81 30/1/81 36/1/81
f 28/1/82 34/1/82 35/1/82
f 26/1/83 25/1/83 31/1/83
f 41/1/31 40/1/31 46/1/31
f 39/1/32 42/1/32 48/1/32
f 31/1/33 33/1/33 39/1/33
f 36/1/34 42/1/34 39/1/34
f 35/1/35 34/1/35 40/1/35
f 32/1/36 31/1/36 37/1/36
f 45/1/37 48/1/37 47/1/37
f 43/1/84 45/1/84 46/1/84
f 37/1/39 43/1/39 44/1/39
f 38/1/40 44/1/40 46/1/40
f 42/1/41 41/1/41 47/1/41
f 39/1/42 45/1/42 43/1/42
f 15/2/43 51/2/43 52/1/43
f 14/2/44 50/2/44 53/2/44
f 13/1/45 18/1/45 54/1/45
f 14/2/46 13/1/46 49/1/46
f 15/2/47 17/2/47 53/2/47
f 16/1/48 52/1/48 54/1/48
f 50/2/49 49/1/49 55/1/49
f 51/2/49 53/2/49 59/2/49
f 54/1/49 52/1/49 58/1/49
f 52/1/49 51/2/49 57/2/49
f 53/2/49 50/2/49 56/2/49
f 49/1/49 54/1/49 60/1/49
f 57/2/50 63/2/50 64/1/50
f 59/2/51 56/2/51 62/2/51
f 60/1/52 66/1/52 61/1/52
f 55/1/85 61/1/85 62/2/85
f 57/2/54 59/2/54 65/2/54
f 58/1/55 64/1/55 66/1/55
f 61/1/56 67/1/56 68/2/56
f 63/2/57 65/2/57 71/2/57
f 66/1/58 64/1/58 70/1/58
f 63/2/59 69/2/59 70/1/59
f 62/2/60 68/2/60 71/2/60
f 66/1/61 72/1/61 67/1/61
