# Blender 4.1.1
# www.blender.org
mtllib LeftUpperArm.mtl
o 左上腕
v 0.038494 0.061748 0.027481
v 0.040969 0.061040 -0.029575
v 0.045467 -0.048756 -0.028919
v 0.044929 -0.048538 0.014925
v 0.042978 0.004359 -0.054494
v 0.037892 0.006274 0.050952
v 0.023635 0.045296 0.022876
v 0.025070 0.043163 -0.029355
v -0.008248 -0.003538 -0.027528
v -0.011169 0.001400 0.026568
v -0.041301 -0.043772 0.018985
v -0.044809 -0.044729 -0.018353
v -0.003741 -0.045385 -0.032565
v 0.017439 0.000709 -0.039285
v 0.012726 0.002824 0.034955
v 0.002849 -0.044915 0.031397
v 0.033019 0.052102 -0.030077
v 0.031064 0.053522 0.025694
v -0.033204 -0.125585 -0.020798
v -0.033336 -0.125240 0.010566
v -0.053032 -0.101227 -0.027286
v -0.069645 -0.080102 -0.010427
v -0.067758 -0.081915 0.015058
v -0.049948 -0.104115 0.025287
vn -0.2702 0.0186 0.9626
vn -0.4240 0.0631 -0.9035
vn -0.8206 0.5634 -0.0957
vn -0.7838 0.6132 -0.0983
vn -0.7341 0.6777 -0.0430
vn -0.3297 0.3356 0.8824
vn -0.3897 0.2756 -0.8788
vn -0.2648 0.1376 0.9544
vn 0.6993 -0.7148 0.0121
vn -0.3566 0.3654 -0.8599
vn -0.5377 0.3357 0.7734
vn -0.7371 0.6746 -0.0403
vn -0.4230 -0.4091 -0.8085
vn 0.3503 -0.1415 0.9259
vn 0.3114 -0.3675 0.8763
vn -0.5537 0.2081 -0.8063
vn -0.8223 0.5600 0.1007
vn 0.0991 -0.1800 -0.9787
vn -0.3311 -0.0018 0.9436
vn -0.3249 0.0785 -0.9425
vn -0.7410 0.6694 0.0524
vn -0.8141 0.5790 -0.0460
vn -0.7483 0.6617 -0.0476
vn -0.6503 0.3576 0.6703
vn -0.4374 0.2786 -0.8550
vn -0.3488 0.1467 0.9256
vn 0.6996 -0.7145 0.0108
vn -0.5193 0.3008 -0.7999
vn -0.5502 0.3304 0.7669
vn -0.7453 0.6653 -0.0431
vn 0.0611 -0.1714 -0.9833
vn -0.3980 -0.5390 0.7423
vn 0.3102 -0.3671 0.8769
vn -0.3181 0.1931 -0.9282
vn -0.8104 0.5827 0.0612
vn 0.0615 -0.1670 -0.9840
vt 0.312500 0.562500
vt 0.312500 0.625000
s 0
f 16/1/1 10/1/1 11/1/1
f 13/2/2 9/2/2 14/2/2
f 9/2/3 11/1/3 10/1/3
f 7/1/4 9/2/4 10/1/4
f 17/2/5 7/1/5 18/1/5
f 15/1/6 7/1/6 10/1/6
f 14/2/7 8/2/7 17/2/7
f 11/1/8 24/1/8 16/1/8
f 4/1/9 19/2/9 3/2/9
f 5/2/10 17/2/10 2/2/10
f 6/1/11 18/1/11 15/1/11
f 2/2/12 18/1/12 1/1/12
f 3/2/13 14/2/13 5/2/13
f 4/1/14 15/1/14 16/1/14
f 16/1/15 20/1/15 4/1/15
f 12/2/16 21/2/16 22/2/16
f 11/1/17 22/2/17 23/1/17
f 13/2/18 19/2/18 21/2/18
f 16/1/19 15/1/19 10/1/19
f 13/2/20 12/2/20 9/2/20
f 9/2/21 12/2/21 11/1/21
f 7/1/22 8/2/22 9/2/22
f 17/2/23 8/2/23 7/1/23
f 15/1/24 18/1/24 7/1/24
f 14/2/25 9/2/25 8/2/25
f 11/1/26 23/1/26 24/1/26
f 4/1/27 20/1/27 19/2/27
f 5/2/28 14/2/28 17/2/28
f 6/1/29 1/1/29 18/1/29
f 2/2/30 17/2/30 18/1/30
f 3/2/31 13/2/31 14/2/31
f 4/1/32 6/1/32 15/1/32
f 16/1/33 24/1/33 20/1/33
f 12/2/34 13/2/34 21/2/34
f 11/1/35 12/2/35 22/2/35
f 13/2/36 3/2/36 19/2/36
