# Blender 4.2.2 LTS
# www.blender.org
mtllib rightLeg.mtl
o 右足
v -0.018204 -0.052724 -0.014090
v -0.028843 -0.051831 0.002416
v -0.018870 -0.052804 0.020303
v 0.025669 -0.051349 0.017580
v 0.007417 -0.052561 -0.016682
v 0.026119 -0.051282 -0.005653
v 0.006586 -0.052660 0.026205
v 0.009119 -0.036849 -0.029006
v 0.030393 -0.036406 -0.008991
v 0.029815 -0.036612 0.020861
v -0.019031 -0.037982 0.029679
v -0.030516 -0.038114 0.002006
v 0.007819 -0.037314 0.038070
v -0.017988 -0.037610 -0.024112
v 0.039736 0.068155 -0.010075
v 0.039148 0.068133 0.020306
v -0.022147 0.067972 0.001517
v -0.009419 0.068026 -0.025141
v 0.018121 0.068107 -0.030300
v -0.010479 0.067986 0.029603
v 0.016800 0.068057 0.037964
v 0.016913 0.038295 -0.036102
v 0.012772 -0.001454 -0.032488
v -0.016508 0.037810 0.033783
v -0.017882 -0.002424 0.031452
v 0.015370 0.038096 0.043624
v 0.011356 -0.001852 0.040570
v 0.035938 -0.001073 -0.010708
v 0.042171 0.038486 -0.012426
v 0.035308 -0.001250 0.021806
v 0.041484 0.038397 0.023057
v -0.030388 -0.002537 0.001320
v -0.030144 0.037754 0.000945
v -0.016746 -0.002105 -0.027134
v -0.015270 0.037970 -0.030149
v -0.026160 -0.052621 -0.006621
v -0.026517 -0.052664 0.011814
v -0.006931 -0.052741 0.025285
v 0.027085 -0.052070 0.006056
v -0.006101 -0.052641 -0.017514
v 0.019294 -0.052295 -0.011787
v 0.018623 -0.052378 0.022852
v 0.008086 -0.047189 -0.026577
v -0.019189 -0.047907 0.028057
v 0.006875 -0.047484 0.035946
v -0.018242 -0.054315 0.003159
v 0.006854 -0.054277 0.004786
v 0.010762 -0.020784 -0.030615
v 0.028463 -0.046754 -0.008047
v 0.027917 -0.046888 0.020094
v -0.018540 -0.021957 0.030478
v -0.030146 -0.047862 0.002243
v 0.009409 -0.021265 0.039210
v -0.018217 -0.047671 -0.022083
v -0.005060 -0.037225 -0.029856
v -0.027010 -0.037925 -0.012681
v 0.020694 -0.036930 0.032199
v -0.006357 -0.037689 0.037083
v -0.027587 -0.038132 0.017109
v 0.033196 -0.036427 0.006135
v 0.021735 -0.036558 -0.021482
v 0.043933 0.057014 -0.012495
v 0.043243 0.056967 0.023185
v -0.028758 0.056624 0.001063
v -0.013807 0.056739 -0.030231
v 0.028711 0.070308 -0.019660
v 0.038998 0.070319 0.005097
v -0.015555 0.070179 0.015323
v 0.003499 0.070215 0.033152
v 0.027777 0.070277 0.028600
v -0.015037 0.070196 -0.011460
v 0.004663 0.070253 -0.027029
v 0.018544 0.056912 -0.036267
v 0.014842 0.018421 -0.034355
v -0.015051 0.056654 0.034060
v -0.017195 0.017693 0.032546
v 0.016992 0.056807 0.043905
v 0.013363 0.018122 0.042033
v 0.032908 -0.020324 -0.009783
v 0.039055 0.018706 -0.011623
v 0.032305 -0.020538 0.021293
v 0.038396 0.018573 0.022374
v -0.030496 -0.022093 0.001671
v -0.030266 0.017608 0.001059
v -0.017455 -0.021571 -0.025517
v -0.016008 0.017932 -0.028709
v 0.031891 0.038420 -0.027226
v 0.026510 -0.001204 -0.024304
v 0.045499 0.038476 0.005538
v 0.038991 -0.001092 0.005764
v -0.026667 0.037746 0.018883
v -0.027200 -0.002553 0.017768
v -0.001461 0.037936 0.042521
v -0.004081 -0.002173 0.039506
v 0.030656 0.038261 0.036580
v 0.025377 -0.001523 0.034163
v -0.025982 0.037834 -0.016524
v -0.026571 -0.002376 -0.014678
v 0.000079 0.038134 -0.037040
v -0.002668 -0.001776 -0.033401
v 0.020293 -0.046966 -0.019575
v 0.031066 -0.046845 0.006212
v -0.027423 -0.047970 0.016323
v -0.006896 -0.047721 0.034989
v 0.019321 -0.047203 0.030540
v -0.026884 -0.047839 -0.011445
v -0.005686 -0.047428 -0.027406
v -0.003997 -0.021173 -0.031498
v -0.026847 -0.021898 -0.013618
v 0.022812 -0.020867 0.033096
v -0.005348 -0.021653 0.038183
v -0.027448 -0.022112 0.017394
v 0.035826 -0.020346 0.005963
v 0.023895 -0.020483 -0.022784
v 0.033477 0.057193 -0.027183
v 0.029201 0.018608 -0.025822
v 0.047077 0.057222 0.005551
v 0.042245 0.018692 0.005595
v -0.025044 0.056838 0.019005
v -0.026933 0.017597 0.018252
v 0.000146 0.056938 0.042595
v -0.002771 0.017881 0.040945
v 0.032243 0.057109 0.036606
v 0.028016 0.018369 0.035311
v -0.024359 0.056885 -0.016394
v -0.026276 0.017729 -0.015672
v 0.001685 0.057042 -0.036947
v -0.001294 0.018179 -0.035284
v -0.024842 -0.054089 0.002726
v -0.006551 -0.054297 0.003917
v 0.018883 -0.053985 0.005560
v 0.010893 0.075641 0.003485
vn 0.8042 -0.2131 -0.5548
vn 0.5882 -0.7006 -0.4040
vn 0.2709 -0.8535 -0.4451
vn 0.5031 -0.2227 -0.8350
vn 0.9567 -0.1940 0.2172
vn 0.8309 -0.5240 0.1869
vn 0.8408 -0.5182 -0.1568
vn 0.9641 -0.1961 -0.1789
vn -0.9812 -0.0316 0.1903
vn -0.9215 -0.3465 0.1756
vn -0.5863 -0.6956 0.4152
vn -0.8237 -0.0787 0.5616
vn -0.4960 -0.1518 0.8550
vn -0.2389 -0.8621 0.4468
vn -0.0174 -0.8827 0.4696
vn -0.0629 -0.1984 0.9781
vn 0.4115 -0.1986 0.8895
vn 0.2163 -0.8648 0.4531
vn 0.5503 -0.7149 0.4313
vn 0.7679 -0.1875 0.6125
vn -0.7790 -0.1069 -0.6178
vn -0.5382 -0.7128 -0.4497
vn -0.9087 -0.3566 -0.2171
vn -0.9717 -0.0413 -0.2325
vn 0.0644 -0.2343 -0.9700
vn 0.0436 -0.8793 -0.4742
vn -0.1805 -0.8670 -0.4645
vn -0.3937 -0.1917 -0.8990
vn 0.0608 -0.1025 -0.9929
vn 0.0622 -0.1058 -0.9924
vn -0.4036 -0.0666 -0.9125
vn -0.4047 -0.0618 -0.9124
vn -0.7847 -0.0229 -0.6195
vn -0.7843 -0.0282 -0.6198
vn -0.9727 -0.0037 -0.2322
vn -0.9727 0.0012 -0.2321
vn 0.4154 -0.1049 0.9036
vn 0.4153 -0.1052 0.9036
vn 0.7738 -0.1365 0.6186
vn 0.7736 -0.1369 0.6187
vn -0.5035 -0.0259 0.8636
vn -0.5037 -0.0275 0.8635
vn -0.0676 -0.0640 0.9957
vn -0.0673 -0.0630 0.9957
vn -0.9817 0.0088 0.1903
vn -0.9817 0.0052 0.1903
vn -0.8266 -0.0027 0.5628
vn -0.8266 -0.0002 0.5628
vn 0.9630 -0.1560 0.2196
vn 0.9632 -0.1552 0.2193
vn 0.9705 -0.1606 -0.1801
vn 0.9703 -0.1614 -0.1800
vn 0.8125 -0.1549 -0.5620
vn 0.8128 -0.1548 -0.5616
vn 0.5096 -0.1373 -0.8494
vn 0.5089 -0.1360 -0.8500
vn 0.6066 0.5498 -0.5742
vn 0.8116 -0.0793 -0.5787
vn 0.5198 -0.0420 -0.8532
vn 0.5271 0.5588 -0.6402
vn 0.8122 -0.1508 -0.5635
vn 0.8122 -0.1540 -0.5626
vn 0.5075 -0.1341 -0.8511
vn 0.5063 -0.1292 -0.8526
vn 0.8481 0.5255 0.0672
vn 0.9741 -0.0821 0.2106
vn 0.9820 -0.0825 -0.1701
vn 0.8511 0.5239 -0.0333
vn 0.9627 -0.1577 0.2199
vn 0.9629 -0.1565 0.2198
vn 0.9704 -0.1611 -0.1799
vn 0.9706 -0.1602 -0.1799
vn -0.7509 0.6063 0.2616
vn -0.9762 0.0817 0.2011
vn -0.8315 0.0562 0.5526
vn -0.7161 0.6053 0.3475
vn -0.9817 0.0070 0.1903
vn -0.9817 0.0084 0.1903
vn -0.8264 -0.0024 0.5630
vn -0.8262 -0.0064 0.5633
vn -0.2853 0.6023 0.7455
vn -0.4899 0.0380 0.8710
vn -0.0776 -0.0082 0.9970
vn -0.1842 0.6001 0.7784
vn -0.5016 -0.0352 0.8644
vn -0.5027 -0.0292 0.8640
vn -0.0661 -0.0663 0.9956
vn -0.0645 -0.0728 0.9953
vn 0.4636 0.5698 0.6785
vn 0.4320 -0.0376 0.9011
vn 0.7707 -0.0774 0.6325
vn 0.5541 0.5615 0.6145
vn 0.4168 -0.1129 0.9019
vn 0.4161 -0.1073 0.9030
vn 0.7736 -0.1382 0.6185
vn 0.7734 -0.1418 0.6179
vn -0.6856 0.6210 -0.3800
vn -0.7935 0.0592 -0.6057
vn -0.9666 0.0840 -0.2423
vn -0.7287 0.6190 -0.2932
vn -0.7860 -0.0155 -0.6181
vn -0.7853 -0.0197 -0.6188
vn -0.9727 0.0028 -0.2320
vn -0.9728 0.0044 -0.2317
vn -0.0936 0.6111 -0.7860
vn 0.0402 -0.0124 -0.9991
vn -0.3981 0.0383 -0.9165
vn -0.1996 0.6167 -0.7615
vn 0.0563 -0.0932 -0.9941
vn 0.0587 -0.0994 -0.9933
vn -0.4065 -0.0581 -0.9118
vn -0.4086 -0.0521 -0.9112
vn -0.4936 -0.8685 0.0452
vn -0.0988 -0.9909 -0.0916
vn -0.1105 -0.9904 0.0832
vn -0.0249 -0.9971 0.0722
vn 0.0075 -0.9957 -0.0918
vn 0.0066 -0.9968 -0.0795
vn 0.0009 -0.9972 0.0753
vn 0.0444 -0.9961 0.0758
vn 0.0303 -0.9949 -0.0962
vn 0.2314 -0.9692 -0.0843
vn 0.2121 -0.9728 0.0936
vn 0.0840 0.9559 -0.2814
vn -0.1817 0.9569 -0.2264
vn -0.3074 0.9516 -0.0053
vn -0.2079 0.9530 0.2203
vn 0.0514 0.9566 0.2870
vn 0.2771 0.9514 0.1340
vn 0.1917 0.9729 -0.1294
vn 0.8010 -0.2008 -0.5640
vn 0.5845 -0.5945 -0.5522
vn 0.2359 -0.8158 -0.5280
vn 0.4857 -0.2456 -0.8389
vn 0.9570 -0.1929 0.2165
vn 0.7863 -0.6031 0.1343
vn 0.7925 -0.6006 -0.1058
vn 0.9640 -0.1984 -0.1772
vn -0.9813 -0.0326 0.1895
vn -0.9326 -0.2973 0.2045
vn -0.5907 -0.6154 0.5219
vn -0.8170 -0.0594 0.5736
vn -0.4853 -0.1335 0.8641
vn -0.2108 -0.8304 0.5158
vn -0.0259 -0.8879 0.4594
vn -0.0645 -0.2006 0.9776
vn 0.3926 -0.2228 0.8923
vn 0.1696 -0.8246 0.5397
vn 0.5325 -0.6031 0.5940
vn 0.7593 -0.2014 0.6188
vn -0.7716 -0.0883 -0.6300
vn -0.5299 -0.6407 -0.5556
vn -0.9179 -0.3120 -0.2452
vn -0.9719 -0.0425 -0.2317
vn 0.0625 -0.2367 -0.9696
vn 0.0338 -0.8848 -0.4648
vn -0.1438 -0.8366 -0.5286
vn -0.3821 -0.1743 -0.9075
vn 0.0621 -0.1017 -0.9929
vn 0.0623 -0.1056 -0.9925
vn -0.4035 -0.0665 -0.9126
vn -0.4039 -0.0611 -0.9128
vn -0.7844 -0.0226 -0.6198
vn -0.7843 -0.0283 -0.6198
vn -0.9727 -0.0036 -0.2322
vn 0.4153 -0.1050 0.9036
vn 0.4152 -0.1053 0.9036
vn 0.7737 -0.1366 0.6186
vn 0.7738 -0.1367 0.6185
vn -0.5037 -0.0261 0.8635
vn -0.5038 -0.0276 0.8634
vn -0.0676 -0.0632 0.9957
vn -0.9817 0.0051 0.1904
vn -0.8267 -0.0028 0.5627
vn -0.8266 -0.0003 0.5628
vn 0.9631 -0.1558 0.2193
vn 0.9633 -0.1551 0.2192
vn 0.8128 -0.1545 -0.5616
vn 0.8129 -0.1547 -0.5615
vn 0.5097 -0.1372 -0.8493
vn 0.5097 -0.1353 -0.8496
vn 0.7499 0.3974 -0.5290
vn 0.8196 -0.0679 -0.5690
vn 0.5094 -0.0522 -0.8589
vn 0.4632 0.4304 -0.7747
vn 0.8127 -0.1502 -0.5630
vn 0.8127 -0.1535 -0.5621
vn 0.5090 -0.1329 -0.8504
vn 0.5079 -0.1278 -0.8519
vn 0.9016 0.3826 0.2016
vn 0.9706 -0.0935 0.2220
vn 0.9789 -0.0938 -0.1814
vn 0.9111 0.3786 -0.1631
vn 0.9628 -0.1575 0.2197
vn 0.9630 -0.1563 0.2196
vn 0.9704 -0.1612 -0.1800
vn 0.9705 -0.1602 -0.1799
vn -0.8543 0.4908 0.1710
vn -0.9793 0.0707 0.1898
vn -0.8245 0.0665 0.5619
vn -0.7260 0.4848 0.4878
vn -0.8266 -0.0026 0.5629
vn -0.8264 -0.0067 0.5630
vn -0.4373 0.4764 0.7628
vn -0.5022 0.0261 0.8644
vn -0.0654 0.0016 0.9979
vn -0.0650 0.4651 0.8829
vn -0.5025 -0.0360 0.8638
vn -0.5034 -0.0298 0.8635
vn -0.0672 -0.0670 0.9955
vn -0.0660 -0.0739 0.9951
vn 0.3813 0.4368 0.8148
vn 0.4184 -0.0499 0.9069
vn 0.7792 -0.0665 0.6232
vn 0.7081 0.4082 0.5761
vn 0.4158 -0.1137 0.9023
vn 0.4153 -0.1079 0.9033
vn 0.7735 -0.1383 0.6186
vn 0.7732 -0.1420 0.6181
vn -0.6843 0.5038 -0.5272
vn -0.7845 0.0710 -0.6161
vn -0.9703 0.0727 -0.2308
vn -0.8422 0.4988 -0.2048
vn -0.7854 -0.0147 -0.6188
vn -0.7848 -0.0191 -0.6195
vn -0.9727 0.0029 -0.2320
vn -0.9727 0.0046 -0.2319
vn 0.0392 0.4712 -0.8812
vn 0.0556 0.0002 -0.9985
vn -0.4097 0.0279 -0.9118
vn -0.3537 0.4953 -0.7935
vn 0.0586 -0.0915 -0.9941
vn 0.0608 -0.0979 -0.9933
vn -0.4049 -0.0568 -0.9126
vn -0.4067 -0.0506 -0.9121
vn -0.4863 -0.8711 -0.0682
vn -0.0239 -0.9881 -0.1518
vn -0.0435 -0.9882 0.1469
vn -0.0041 -0.9961 0.0876
vn -0.0150 -0.9969 -0.0773
vn 0.0106 -0.9970 -0.0768
vn -0.0032 -0.9974 0.0726
vn 0.0182 -0.9955 0.0928
vn 0.0545 -0.9955 -0.0781
vn 0.2242 -0.9704 -0.0892
vn 0.2214 -0.9712 0.0880
vn 0.0542 0.9814 -0.1844
vn -0.1204 0.9815 -0.1487
vn -0.2037 0.9790 -0.0033
vn -0.1375 0.9798 0.1449
vn 0.0327 0.9817 0.1877
vn 0.1805 0.9796 0.0879
vn 0.2304 0.9720 -0.0466
vt 0.312759 0.587915
vt 0.312700 0.595007
vt 0.312694 0.595378
vt 0.312761 0.587850
vt 0.312741 0.592272
vt 0.312704 0.598707
vt 0.312639 0.602324
vt 0.312629 0.602841
vt 0.312897 0.576302
vt 0.312825 0.581058
vt 0.312824 0.580866
vt 0.312888 0.578374
vt 0.312896 0.576651
vt 0.312772 0.587499
vt 0.313939 0.603989
vt 0.313602 0.594315
vt 0.313607 0.593733
vt 0.313495 0.596810
vt 0.313234 0.590413
vt 0.313331 0.586321
vt 0.313276 0.583477
vt 0.313169 0.581579
vt 0.313176 0.580775
vt 0.313083 0.585805
vt 0.313001 0.582173
vt 0.313065 0.578557
vt 0.313075 0.578040
vt 0.312976 0.576316
vt 0.312981 0.575892
vt 0.312935 0.579213
vt 0.312500 0.617767
vt 0.313217 0.610755
vt 0.313219 0.610878
vt 0.312565 0.610304
vt 0.312575 0.609807
vt 0.312658 0.605822
vt 0.312586 0.609905
vt 0.312718 0.613780
vt 0.313212 0.610386
vt 0.313647 0.603053
vt 0.313938 0.603989
vt 0.312981 0.575823
vt 0.312980 0.575547
vt 0.312896 0.576026
vt 0.312888 0.572989
vt 0.313174 0.580723
vt 0.313578 0.593639
vt 0.312824 0.580797
vt 0.312823 0.580452
vt 0.312704 0.595263
vt 0.312772 0.594467
vt 0.312639 0.602568
vt 0.312693 0.601104
vt 0.312824 0.580728
vt 0.312895 0.575750
vt 0.313579 0.593876
vt 0.313617 0.602960
vt 0.313573 0.593905
vt 0.313352 0.585974
vt 0.313346 0.585766
vt 0.313588 0.602867
vt 0.313618 0.602960
vt 0.313182 0.580981
vt 0.313174 0.580711
vt 0.313184 0.581035
vt 0.313074 0.578032
vt 0.313071 0.577943
vt 0.313182 0.580983
vt 0.312981 0.575752
vt 0.312980 0.575466
vt 0.312980 0.575478
vt 0.313183 0.610761
vt 0.313181 0.610638
vt 0.313205 0.610362
vt 0.312578 0.609775
vt 0.312692 0.605781
vt 0.313939 0.603988
vt 0.313235 0.602139
vt 0.312983 0.600204
vt 0.312878 0.595554
vt 0.312983 0.600205
vt 0.312852 0.590440
vt 0.312838 0.585689
vt 0.312829 0.582392
vt 0.313071 0.577944
vt 0.313018 0.592155
s 0
usemtl Material.010
f 9/1/1 101/2/1 61/3/1
f 49/4/2 41/5/2 101/2/2
f 101/2/3 5/6/3 43/7/3
f 101/2/4 8/8/4 61/3/4
f 10/9/5 102/10/5 60/11/5
f 4/12/6 102/10/6 50/13/6
f 102/10/7 6/14/7 49/4/7
f 60/11/8 49/4/8 9/1/8
f 12/15/9 103/16/9 59/17/9
f 52/15/10 37/18/10 103/16/10
f 103/16/11 3/19/11 44/20/11
f 59/17/12 44/20/12 11/21/12
f 11/21/13 104/22/13 58/23/13
f 44/20/14 38/24/14 104/22/14
f 104/22/15 7/25/15 45/26/15
f 58/23/16 45/26/16 13/27/16
f 13/27/17 105/28/17 57/29/17
f 7/25/18 105/28/18 45/26/18
f 42/30/19 50/13/19 105/28/19
f 57/29/20 50/13/20 10/9/20
f 54/31/21 56/32/21 14/31/21
f 1/31/22 106/33/22 54/31/22
f 36/33/23 52/15/23 106/33/23
f 106/33/24 12/15/24 56/32/24
f 43/7/25 55/34/25 8/8/25
f 5/6/26 107/35/26 43/7/26
f 40/36/27 54/31/27 107/35/27
f 107/35/28 14/31/28 55/34/28
f 48/8/29 100/34/29 23/8/29
f 8/8/30 108/37/30 48/8/30
f 55/34/31 85/38/31 108/37/31
f 108/37/32 34/31/32 100/34/32
f 85/38/33 98/33/33 34/31/33
f 14/31/34 109/39/34 85/38/34
f 56/32/35 83/40/35 109/39/35
f 109/39/36 32/41/36 98/33/36
f 27/27/37 110/42/37 96/43/37
f 53/27/38 57/29/38 110/42/38
f 110/42/39 10/9/39 81/44/39
f 96/43/40 81/44/40 30/45/40
f 25/21/41 111/46/41 94/23/41
f 51/21/42 58/23/42 111/46/42
f 111/46/43 13/27/43 53/27/43
f 94/23/44 53/27/44 27/27/44
f 32/41/45 112/47/45 92/17/45
f 12/15/46 112/47/46 83/40/46
f 112/47/47 11/21/47 51/21/47
f 92/17/48 51/21/48 25/21/48
f 30/45/49 113/48/49 90/49/49
f 81/44/50 60/11/50 113/48/50
f 113/48/51 9/1/51 79/1/51
f 90/49/52 79/1/52 28/1/52
f 79/1/53 88/3/53 28/1/53
f 9/1/54 114/3/54 79/1/54
f 61/3/55 48/8/55 114/3/55
f 114/3/56 23/8/56 88/3/56
f 15/1/57 115/50/57 66/51/57
f 29/1/58 115/50/58 62/1/58
f 87/3/59 73/52/59 115/50/59
f 115/50/60 19/53/60 66/51/60
f 80/1/61 87/3/61 29/1/61
f 28/1/62 116/3/62 80/1/62
f 88/3/63 74/8/63 116/3/63
f 116/3/64 22/8/64 87/3/64
f 16/45/65 117/54/65 67/49/65
f 63/55/66 89/49/66 117/54/66
f 89/49/67 62/1/67 117/54/67
f 117/54/68 15/1/68 67/49/68
f 31/45/69 118/49/69 89/49/69
f 82/45/70 90/49/70 118/49/70
f 90/49/71 80/1/71 118/49/71
f 118/49/72 29/1/72 89/49/72
f 17/15/73 119/56/73 68/17/73
f 64/57/74 91/58/74 119/56/74
f 119/56/75 24/59/75 75/60/75
f 119/56/76 20/21/76 68/17/76
f 33/61/77 120/56/77 91/58/77
f 84/62/78 92/17/78 120/56/78
f 120/56/79 25/21/79 76/60/79
f 91/58/80 76/60/80 24/59/80
f 20/21/81 121/63/81 69/64/81
f 75/60/82 93/65/82 121/63/82
f 121/63/83 26/27/83 77/66/83
f 121/63/84 21/67/84 69/64/84
f 24/59/85 122/68/85 93/65/85
f 76/60/86 94/23/86 122/68/86
f 122/68/87 27/27/87 78/27/87
f 93/65/88 78/27/88 26/27/88
f 21/67/89 123/69/89 70/70/89
f 77/66/90 95/43/90 123/69/90
f 123/69/91 31/45/91 63/55/91
f 123/69/92 16/45/92 70/70/92
f 26/27/93 124/71/93 95/43/93
f 78/27/94 96/43/94 124/71/94
f 124/71/95 30/45/95 82/45/95
f 95/43/96 82/45/96 31/45/96
f 18/31/97 125/72/97 71/33/97
f 35/31/98 125/72/98 65/31/98
f 97/73/99 64/57/99 125/72/99
f 125/72/100 17/15/100 71/33/100
f 86/38/101 97/73/101 35/31/101
f 34/31/102 126/74/102 86/38/102
f 98/33/103 84/62/103 126/74/103
f 126/74/104 33/61/104 97/73/104
f 19/53/105 127/75/105 72/76/105
f 22/8/106 127/75/106 73/52/106
f 99/34/107 65/31/107 127/75/107
f 127/75/108 18/31/108 72/76/108
f 74/8/109 99/34/109 22/8/109
f 23/8/110 128/37/110 74/8/110
f 100/34/111 86/38/111 128/37/111
f 128/37/112 35/31/112 99/34/112
f 2/77/113 129/78/113 37/18/113
f 46/79/114 36/33/114 1/31/114
f 37/18/115 46/79/115 3/19/115
f 3/19/116 130/80/116 38/24/116
f 1/31/117 130/80/117 46/81/117
f 130/80/118 5/6/118 47/82/118
f 38/24/119 47/82/119 7/25/119
f 47/82/120 42/30/120 7/25/120
f 47/82/121 41/5/121 131/83/121
f 131/83/122 6/14/122 39/84/122
f 131/83/123 4/12/123 42/30/123
f 72/76/124 66/51/124 19/53/124
f 71/33/125 72/76/125 18/31/125
f 68/17/126 71/33/126 17/15/126
f 69/64/127 68/17/127 20/21/127
f 70/70/128 69/64/128 21/85/128
f 67/49/129 70/70/129 16/45/129
f 15/1/130 132/86/130 67/49/130
f 9/1/131 49/4/131 101/2/131
f 49/4/132 6/14/132 41/5/132
f 101/2/133 41/5/133 5/6/133
f 101/2/134 43/7/134 8/8/134
f 10/9/135 50/13/135 102/10/135
f 4/12/136 39/84/136 102/10/136
f 102/10/137 39/84/137 6/14/137
f 60/11/138 102/10/138 49/4/138
f 12/15/139 52/15/139 103/16/139
f 52/15/140 2/77/140 37/18/140
f 103/16/141 37/18/141 3/19/141
f 59/17/142 103/16/142 44/20/142
f 11/21/143 44/20/143 104/22/143
f 44/20/144 3/19/144 38/24/144
f 104/22/145 38/24/145 7/25/145
f 58/23/146 104/22/146 45/26/146
f 13/27/147 45/26/147 105/28/147
f 7/25/148 42/30/148 105/28/148
f 42/30/149 4/12/149 50/13/149
f 57/29/150 105/28/150 50/13/150
f 54/31/151 106/33/151 56/32/151
f 1/31/152 36/33/152 106/33/152
f 36/33/153 2/15/153 52/15/153
f 106/33/154 52/15/154 12/15/154
f 43/7/155 107/35/155 55/34/155
f 5/6/156 40/36/156 107/35/156
f 40/36/157 1/31/157 54/31/157
f 107/35/158 54/31/158 14/31/158
f 48/8/159 108/37/159 100/34/159
f 8/8/160 55/34/160 108/37/160
f 55/34/161 14/31/161 85/38/161
f 108/37/162 85/38/162 34/31/162
f 85/38/163 109/39/163 98/33/163
f 14/31/164 56/32/164 109/39/164
f 56/32/165 12/15/165 83/40/165
f 109/39/36 83/40/36 32/41/36
f 27/27/166 53/27/166 110/42/166
f 53/27/167 13/27/167 57/29/167
f 110/42/168 57/29/168 10/9/168
f 96/43/169 110/42/169 81/44/169
f 25/21/170 51/21/170 111/46/170
f 51/21/171 11/21/171 58/23/171
f 111/46/43 58/23/43 13/27/43
f 94/23/172 111/46/172 53/27/172
f 32/41/45 83/40/45 112/47/45
f 12/15/173 59/17/173 112/47/173
f 112/47/174 59/17/174 11/21/174
f 92/17/175 112/47/175 51/21/175
f 30/45/176 81/44/176 113/48/176
f 81/44/177 10/9/177 60/11/177
f 113/48/51 60/11/51 9/1/51
f 90/49/52 113/48/52 79/1/52
f 79/1/178 114/3/178 88/3/178
f 9/1/179 61/3/179 114/3/179
f 61/3/180 8/8/180 48/8/180
f 114/3/181 48/8/181 23/8/181
f 15/1/182 62/1/182 115/50/182
f 29/1/183 87/3/183 115/50/183
f 87/3/184 22/8/184 73/52/184
f 115/50/185 73/52/185 19/53/185
f 80/1/186 116/3/186 87/3/186
f 28/1/187 88/3/187 116/3/187
f 88/3/188 23/8/188 74/8/188
f 116/3/189 74/8/189 22/8/189
f 16/45/190 63/55/190 117/54/190
f 63/55/191 31/45/191 89/49/191
f 89/49/192 29/1/192 62/1/192
f 117/54/193 62/1/193 15/1/193
f 31/45/194 82/45/194 118/49/194
f 82/45/195 30/45/195 90/49/195
f 90/49/196 28/1/196 80/1/196
f 118/49/197 80/1/197 29/1/197
f 17/15/198 64/57/198 119/56/198
f 64/57/199 33/61/199 91/58/199
f 119/56/200 91/58/200 24/59/200
f 119/56/201 75/60/201 20/21/201
f 33/61/77 84/62/77 120/56/77
f 84/62/78 32/41/78 92/17/78
f 120/56/202 92/17/202 25/21/202
f 91/58/203 120/56/203 76/60/203
f 20/21/204 75/60/204 121/63/204
f 75/60/205 24/59/205 93/65/205
f 121/63/206 93/65/206 26/27/206
f 121/63/207 77/66/207 21/67/207
f 24/59/208 76/60/208 122/68/208
f 76/60/209 25/21/209 94/23/209
f 122/68/210 94/23/210 27/27/210
f 93/65/211 122/68/211 78/27/211
f 21/67/212 77/66/212 123/69/212
f 77/66/213 26/27/213 95/43/213
f 123/69/214 95/43/214 31/45/214
f 123/69/215 63/55/215 16/45/215
f 26/27/216 78/27/216 124/71/216
f 78/27/217 27/27/217 96/43/217
f 124/71/218 96/43/218 30/45/218
f 95/43/219 124/71/219 82/45/219
f 18/31/220 65/31/220 125/72/220
f 35/31/221 97/73/221 125/72/221
f 97/73/222 33/61/222 64/57/222
f 125/72/223 64/57/223 17/15/223
f 86/38/224 126/74/224 97/73/224
f 34/31/225 98/33/225 126/74/225
f 98/33/226 32/41/226 84/62/226
f 126/74/227 84/62/227 33/61/227
f 19/53/228 73/52/228 127/75/228
f 22/8/229 99/34/229 127/75/229
f 99/34/230 35/31/230 65/31/230
f 127/75/231 65/31/231 18/31/231
f 74/8/232 128/37/232 99/34/232
f 23/8/233 100/34/233 128/37/233
f 100/34/234 34/31/234 86/38/234
f 128/37/235 86/38/235 35/31/235
f 2/77/236 36/33/236 129/78/236
f 46/79/237 129/78/237 36/33/237
f 37/18/238 129/78/238 46/79/238
f 3/19/239 46/81/239 130/80/239
f 1/31/240 40/36/240 130/80/240
f 130/80/241 40/36/241 5/6/241
f 38/24/242 130/80/242 47/82/242
f 47/82/243 131/83/243 42/30/243
f 47/82/244 5/6/244 41/5/244
f 131/83/245 41/5/245 6/14/245
f 131/83/246 39/84/246 4/12/246
f 72/76/247 132/86/247 66/51/247
f 71/33/248 132/86/248 72/76/248
f 68/17/249 132/86/249 71/33/249
f 69/64/250 132/86/250 68/17/250
f 70/70/251 132/86/251 69/64/251
f 67/49/252 132/86/252 70/70/252
f 15/1/253 66/51/253 132/86/253
