# Blender 4.1.1
# www.blender.org
mtllib RightUpperArm.mtl
o 右上腕
v -0.039136 0.062389 0.027481
v -0.041610 0.061682 -0.029575
v -0.046108 -0.048116 -0.028919
v -0.045571 -0.047896 0.014925
v -0.043619 0.005000 -0.054494
v -0.038533 0.006916 0.050952
v -0.024275 0.045938 0.022876
v -0.025711 0.043805 -0.029354
v 0.007607 -0.002896 -0.027527
v 0.010528 0.002041 0.026568
v 0.040660 -0.043131 0.018985
v 0.044168 -0.044088 -0.018353
v 0.003100 -0.044744 -0.032566
v -0.018080 0.001350 -0.039285
v -0.013368 0.003465 0.034954
v -0.003490 -0.044273 0.031397
v -0.033660 0.052743 -0.030077
v -0.031706 0.054164 0.025694
v 0.032563 -0.124944 -0.020798
v 0.032694 -0.124599 0.010565
v 0.052391 -0.100586 -0.027286
v 0.069004 -0.079461 -0.010428
v 0.067116 -0.081274 0.015057
v 0.049307 -0.103474 0.025287
vn 0.3311 -0.0018 0.9436
vn 0.4240 0.0631 -0.9035
vn 0.8206 0.5634 -0.0957
vn 0.8140 0.5790 -0.0460
vn 0.7340 0.6778 -0.0430
vn 0.6501 0.3576 0.6704
vn 0.3898 0.2756 -0.8787
vn 0.2648 0.1376 0.9544
vn -0.6993 -0.7148 0.0121
vn 0.3566 0.3654 -0.8599
vn 0.5502 0.3304 0.7669
vn 0.7371 0.6746 -0.0403
vn 0.4230 -0.4091 -0.8085
vn 0.3980 -0.5390 0.7423
vn -0.3114 -0.3675 0.8763
vn 0.3181 0.1931 -0.9282
vn 0.8104 0.5827 0.0612
vn -0.0615 -0.1670 -0.9840
vn 0.2701 0.0186 0.9626
vn 0.3249 0.0785 -0.9425
vn 0.7410 0.6694 0.0524
vn 0.7838 0.6132 -0.0983
vn 0.7483 0.6616 -0.0476
vn 0.3297 0.3356 0.8824
vn 0.4374 0.2786 -0.8550
vn 0.3489 0.1466 0.9256
vn -0.6996 -0.7145 0.0108
vn 0.5193 0.3008 -0.7999
vn 0.5377 0.3357 0.7734
vn 0.7453 0.6653 -0.0431
vn -0.0611 -0.1714 -0.9833
vn -0.3503 -0.1415 0.9259
vn -0.3102 -0.3672 0.8769
vn 0.5537 0.2081 -0.8063
vn 0.8224 0.5600 0.1008
vn -0.0991 -0.1800 -0.9787
vt 0.312500 0.562500
vt 0.312500 0.625000
s 0
f 16/1/1 10/1/1 15/1/1
f 9/2/2 13/2/2 14/2/2
f 11/1/3 9/2/3 10/1/3
f 7/1/4 9/2/4 8/2/4
f 7/1/5 17/2/5 18/1/5
f 15/1/6 7/1/6 18/1/6
f 8/2/7 14/2/7 17/2/7
f 24/1/8 11/1/8 16/1/8
f 19/2/9 4/1/9 3/2/9
f 17/2/10 5/2/10 2/2/10
f 6/1/11 18/1/11 1/1/11
f 18/1/12 2/2/12 1/1/12
f 14/2/13 3/2/13 5/2/13
f 4/1/14 15/1/14 6/1/14
f 20/1/15 16/1/15 4/1/15
f 12/2/16 21/2/16 13/2/16
f 11/1/17 22/2/17 12/2/17
f 13/2/18 19/2/18 3/2/18
f 16/1/19 11/1/19 10/1/19
f 9/2/20 12/2/20 13/2/20
f 11/1/21 12/2/21 9/2/21
f 7/1/22 10/1/22 9/2/22
f 7/1/23 8/2/23 17/2/23
f 15/1/24 10/1/24 7/1/24
f 8/2/25 9/2/25 14/2/25
f 24/1/26 23/1/26 11/1/26
f 19/2/27 20/1/27 4/1/27
f 17/2/28 14/2/28 5/2/28
f 6/1/29 15/1/29 18/1/29
f 18/1/30 17/2/30 2/2/30
f 14/2/31 13/2/31 3/2/31
f 4/1/32 16/1/32 15/1/32
f 20/1/33 24/1/33 16/1/33
f 12/2/34 22/2/34 21/2/34
f 11/1/35 23/1/35 22/2/35
f 13/2/36 21/2/36 19/2/36
