# Blender 4.2.2 LTS
# www.blender.org
mtllib rightArm.mtl
o 右腕
v -0.087048 0.070315 -0.023857
v -0.097017 0.033314 -0.029703
v -0.092722 0.047251 0.001932
v -0.071831 0.069300 0.000124
v -0.071120 0.068919 -0.028165
v -0.006115 -0.011945 -0.017154
v -0.071691 0.046169 -0.042351
v -0.089767 0.069375 -0.001043
v -0.036564 -0.028330 -0.044671
v 0.076377 -0.115956 -0.039059
v 0.106691 -0.089650 -0.050929
v 0.087846 -0.115858 -0.057991
v 0.089332 -0.104686 -0.026668
v 0.090230 -0.102163 -0.066323
v 0.086669 -0.098315 -0.070599
v 0.080098 -0.113675 -0.068829
v 0.082962 -0.110999 -0.081619
v 0.072158 -0.113053 -0.085332
v 0.080600 -0.113704 -0.093593
v 0.079822 -0.120473 -0.091014
v 0.077598 -0.119639 -0.094436
v -0.099412 0.061813 -0.009610
v 0.121714 -0.122570 -0.047556
v 0.124571 -0.119368 -0.041117
v 0.126790 -0.118199 -0.043412
v -0.093278 0.070392 -0.011894
v -0.097572 0.040327 -0.004319
v -0.069066 0.069041 -0.012918
v -0.019290 0.010668 -0.024060
v -0.062653 0.045969 0.006809
v -0.075138 0.030616 -0.041823
v -0.070643 0.060494 -0.038059
v -0.072363 0.041575 0.007475
v -0.030330 -0.037621 -0.026811
v -0.076974 0.059003 0.007213
v -0.078109 0.073783 -0.011907
v -0.025738 -0.043495 -0.038033
v -0.009615 -0.013792 -0.044850
v 0.014194 -0.023924 -0.028609
v -0.057085 -0.004745 -0.011104
v -0.030911 -0.021958 -0.048967
v -0.016869 -0.014853 -0.011293
v 0.060936 -0.079259 -0.060498
v -0.027487 -0.009237 -0.048129
v -0.019115 0.008057 -0.035797
v 0.087673 -0.078368 -0.039230
v 0.055605 -0.089136 -0.061048
v 0.105604 -0.092825 -0.032487
v 0.015119 -0.025888 -0.038952
v 0.054037 -0.099259 -0.057467
v -0.029536 -0.018622 -0.010928
v 0.084486 -0.081490 -0.030408
v 0.098289 -0.091124 -0.059621
v 0.080605 -0.110554 -0.030646
v 0.098849 -0.098898 -0.027509
v 0.108664 -0.089747 -0.041098
v 0.074118 -0.116773 -0.052040
v 0.072975 -0.112030 -0.068722
v 0.076723 -0.094127 -0.069449
v 0.072692 -0.107778 -0.087217
v 0.076103 -0.114389 -0.080192
v 0.077149 -0.107765 -0.090887
v 0.068507 -0.102472 -0.067027
v 0.081595 -0.119333 -0.093286
v 0.089381 -0.107910 -0.063123
v -0.097354 0.029182 -0.021658
v -0.096341 0.058114 0.000260
v -0.096283 0.062002 -0.026538
v -0.095125 0.045054 -0.034004
v -0.103959 0.046771 -0.017106
v -0.097022 0.030640 -0.012704
v -0.099673 0.045206 -0.028177
v 0.124962 -0.116506 -0.047919
v 0.121930 -0.123637 -0.043858
v -0.068626 0.062417 0.005461
v -0.076426 0.029122 0.001894
vn 0.5504 0.5124 -0.6591
vn 0.7701 0.5483 0.3260
vn 0.8377 0.5198 0.1673
vn -0.0194 0.9335 0.3580
vn -0.0503 0.5833 0.8107
vn -0.1090 0.7542 -0.6475
vn -0.2152 0.9634 0.1600
vn -0.2167 0.9689 -0.1191
vn -0.4932 -0.2281 -0.8395
vn 0.1389 0.3693 -0.9189
vn 0.2773 0.4956 -0.8231
vn -0.6231 -0.6863 0.3751
vn 0.2439 0.2911 -0.9251
vn -0.1565 -0.9837 0.0891
vn -0.5950 -0.7617 -0.2567
vn 0.7738 0.4573 0.4384
vn 0.2575 -0.2894 0.9219
vn 0.2146 0.6973 -0.6839
vn -0.5656 -0.1197 -0.8159
vn 0.5495 -0.8339 -0.0514
vn 0.9189 -0.2867 -0.2710
vn 0.2828 0.8118 -0.5108
vn -0.2254 -0.9736 -0.0350
vn -0.5704 -0.1940 -0.7981
vn 0.7163 -0.1040 -0.6901
vn -0.8988 -0.4327 0.0709
vn -0.4073 -0.9101 0.0761
vn -0.2209 -0.9654 0.1383
vn 0.4255 -0.9001 -0.0930
vn 0.8343 0.2019 -0.5131
vn 0.5872 0.5925 -0.5515
vn -0.7207 0.6190 -0.3121
vn 0.0931 -0.2190 0.9713
vn -0.5773 -0.7803 0.2403
vn 0.4592 -0.6976 0.5500
vn 0.9615 0.1577 -0.2253
vn -0.6229 0.2023 -0.7557
vn 0.1673 -0.9273 -0.3347
vn -0.0787 -0.8204 0.5663
vn 0.6398 0.3592 -0.6794
vn 0.5090 0.1436 -0.8487
vn 0.3338 -0.2335 -0.9133
vn -0.7610 0.4931 0.4216
vn -0.8227 0.5494 -0.1459
vn -0.7381 0.6065 0.2957
vn -0.9352 0.1160 0.3345
vn -0.9030 -0.0475 0.4271
vn -0.9236 -0.3714 0.0947
vn -0.9339 -0.3006 -0.1935
vn -0.8992 0.2185 -0.3790
vn -0.9275 -0.1641 -0.3359
vn -0.9041 -0.3079 0.2964
vn 0.7640 -0.4376 -0.4742
vn 0.6878 -0.6424 0.3379
vn 0.7353 -0.6385 -0.2272
vn 0.6035 0.2803 0.7464
vn 0.7450 0.6534 -0.1342
vn 0.6349 0.6031 -0.4829
vn 0.2185 0.2654 -0.9391
vn 0.7639 0.6127 0.2025
vn 0.1504 0.1349 0.9794
vn 0.4700 0.8788 0.0822
vn 0.4573 0.8867 -0.0687
vn 0.0073 0.9589 -0.2837
vn -0.7133 -0.6371 -0.2921
vn -0.0725 0.5899 0.8042
vn -0.7001 -0.7090 0.0846
vn -0.3332 0.2929 -0.8962
vn -0.3047 0.5817 -0.7542
vn -0.2775 -0.0590 0.9589
vn -0.5107 -0.5464 0.6638
vn -0.3346 0.2987 0.8938
vn -0.3370 0.0428 -0.9405
vn -0.2195 -0.4247 0.8783
vn -0.3268 -0.2957 0.8976
vn -0.0675 0.0917 -0.9935
vn -0.3367 -0.2672 -0.9029
vn 0.4322 0.7221 -0.5402
vn 0.6989 0.7116 -0.0726
vn 0.4239 0.4978 -0.7566
vn 0.6320 0.5384 0.5574
vn -0.0627 0.0824 -0.9946
vn -0.4132 -0.2278 -0.8817
vn -0.0792 -0.9416 -0.3274
vn 0.5728 0.6854 0.4495
vn 0.5780 0.7982 0.1699
vn -0.5711 -0.8070 0.1502
vn -0.5708 -0.6352 -0.5203
vn 0.1112 -0.0385 0.9931
vn 0.3808 0.3316 0.8632
vn -0.4114 -0.6589 0.6298
vn -0.1571 -0.3834 0.9101
vn 0.8308 0.5402 -0.1341
vn 0.2357 -0.4991 -0.8339
vn 0.1421 -0.5562 -0.8188
vn 0.6426 0.2207 0.7337
vn 0.4581 0.7729 0.4391
vn -0.0528 -0.9615 -0.2697
vn -0.6199 -0.7649 -0.1750
vn -0.3528 0.0767 -0.9325
vn 0.4689 0.8791 -0.0854
vn 0.2944 0.3883 0.8732
vn 0.2291 0.6690 -0.7071
vn -0.4101 0.7658 -0.4953
vn 0.6569 -0.4944 -0.5692
vn 0.0919 -0.5776 0.8111
vn 0.7641 -0.5639 0.3133
vn 0.9762 -0.1468 -0.1594
vn -0.9776 0.0243 -0.2090
vn 0.2767 -0.0035 -0.9609
vn -0.6002 -0.7741 0.2014
vn -0.8798 -0.0785 -0.4689
vn -0.2672 0.2667 -0.9260
vn -0.7089 -0.1294 0.6934
vn -0.7674 0.2139 -0.6045
vn -0.7858 -0.0971 -0.6108
vn -0.5850 0.7497 -0.3095
vn -0.9181 0.3601 -0.1657
vn 0.1519 -0.1886 0.9702
vn 0.4596 0.0828 0.8843
vn 0.7466 0.6568 -0.1058
vn 0.0551 0.0296 0.9980
vn -0.7107 -0.6132 -0.3448
vn -0.6935 -0.7066 0.1408
vn -0.3659 0.3541 -0.8606
vn -0.3390 0.0318 0.9402
vn -0.4978 -0.5836 0.6416
vn -0.0659 -0.3901 0.9184
vn -0.4487 -0.4050 0.7967
vn -0.0719 0.0848 -0.9938
vn -0.3498 -0.2902 -0.8907
vn 0.4764 0.7518 -0.4559
vn 0.7014 0.6979 -0.1448
vn -0.1344 -0.0039 -0.9909
vn -0.4913 -0.2817 -0.8242
vn -0.1065 -0.9570 -0.2699
vn 0.6069 0.7313 0.3112
vn 0.5828 0.8063 -0.1010
vn -0.5672 -0.8019 0.1877
vn 0.0586 -0.1007 0.9932
vn 0.4702 0.5081 0.7217
vn -0.3967 -0.6381 0.6599
vn -0.2442 -0.4740 0.8460
vn 0.8244 0.5429 -0.1601
vn 0.5282 0.1034 0.8428
vn 0.4581 0.7729 0.4390
vn -0.3149 0.2213 -0.9230
vn 0.0561 -0.6161 0.7857
vt 0.312500 0.614583
vt 0.312500 0.623698
vt 0.312500 0.622879
vt 0.312500 0.572917
vt 0.312500 0.593750
vt 0.312500 0.564914
vt 0.312500 0.574983
vt 0.312500 0.563802
vt 0.312500 0.612882
vt 0.312500 0.624728
vt 0.312500 0.614921
vt 0.312500 0.624456
vt 0.312500 0.623617
vt 0.312500 0.625000
vt 0.312500 0.572780
vt 0.312500 0.563439
vt 0.312500 0.572698
vt 0.312500 0.585590
vt 0.312500 0.593859
vt 0.312500 0.617534
vt 0.312500 0.593765
vt 0.312500 0.585942
vt 0.312500 0.566396
vt 0.312500 0.562500
vt 0.312500 0.624804
vt 0.312500 0.624054
vt 0.312500 0.624532
vt 0.312500 0.624805
vt 0.312500 0.617211
vt 0.312500 0.624251
vt 0.312500 0.623793
vt 0.312500 0.619275
vt 0.312500 0.580555
vt 0.312500 0.563785
vt 0.312500 0.620594
vt 0.312500 0.591287
vt 0.312500 0.563398
vt 0.312500 0.593740
vt 0.312500 0.624397
vt 0.312500 0.614717
vt 0.312500 0.562639
vt 0.312500 0.623736
s 0
usemtl Material.009
f 45/1/1 38/2/1 32/3/1
f 6/4/2 29/5/2 75/6/2
f 75/6/3 28/5/3 4/7/3
f 4/7/4 36/5/4 8/4/4
f 35/8/5 4/7/5 8/4/5
f 5/9/6 32/3/6 1/1/6
f 8/4/7 36/5/7 26/5/7
f 36/5/8 1/1/8 26/5/8
f 31/10/9 2/11/9 69/12/9
f 53/13/10 43/14/10 38/2/10
f 38/2/11 43/14/11 44/14/11
f 34/15/12 40/16/12 71/17/12
f 38/2/13 44/14/13 7/14/13
f 74/18/14 10/4/14 57/19/14
f 50/20/15 57/19/15 37/21/15
f 25/22/16 56/5/16 48/4/16
f 24/23/17 55/8/17 13/24/17
f 53/13/18 15/14/18 59/14/18
f 63/25/19 58/26/19 50/20/19
f 17/14/20 65/27/20 16/28/20
f 17/14/21 14/14/21 65/27/21
f 62/14/22 59/14/22 15/14/22
f 58/26/23 16/28/23 12/29/23
f 63/25/24 50/20/24 47/30/24
f 14/14/25 15/14/25 53/13/25
f 63/25/26 18/14/26 58/26/26
f 18/14/27 61/14/27 58/26/27
f 58/26/28 61/14/28 16/28/28
f 61/14/29 17/14/29 16/28/29
f 17/14/30 15/14/30 14/14/30
f 19/14/31 62/14/31 15/14/31
f 60/14/32 63/25/32 59/14/32
f 30/8/33 51/24/33 42/8/33
f 18/14/34 20/14/34 61/14/34
f 20/14/35 17/14/35 61/14/35
f 64/14/36 19/14/36 17/14/36
f 62/14/37 21/14/37 60/14/37
f 64/14/38 20/14/38 21/14/38
f 10/4/39 74/18/39 54/8/39
f 11/1/40 73/31/40 53/13/40
f 53/13/41 73/31/41 14/14/41
f 73/31/42 23/32/42 65/27/42
f 22/33/43 67/34/43 8/4/43
f 68/35/44 22/33/44 26/5/44
f 26/5/45 22/33/45 8/4/45
f 70/36/46 67/34/46 22/33/46
f 70/36/47 27/37/47 67/34/47
f 71/17/48 70/36/48 66/38/48
f 70/36/49 2/11/49 66/38/49
f 72/39/50 70/36/50 68/35/50
f 70/36/51 72/39/51 2/11/51
f 27/37/52 70/36/52 71/17/52
f 23/32/53 73/31/53 25/14/53
f 24/23/54 74/18/54 25/22/54
f 74/18/55 23/32/55 25/14/55
f 30/8/56 6/4/56 75/6/56
f 5/9/57 29/5/57 45/1/57
f 5/9/58 45/1/58 32/3/58
f 32/3/59 38/2/59 7/14/59
f 75/6/60 29/5/60 28/5/60
f 35/8/61 30/8/61 75/6/61
f 4/7/62 28/5/62 36/5/62
f 36/5/63 28/5/63 5/9/63
f 36/5/64 5/9/64 1/1/64
f 66/38/65 9/40/65 37/21/65
f 35/8/66 75/6/66 4/7/66
f 34/15/67 66/38/67 37/21/67
f 69/12/68 32/3/68 7/14/68
f 1/1/69 32/3/69 68/35/69
f 35/8/70 3/24/70 33/24/70
f 76/41/71 71/17/71 40/16/71
f 67/34/72 35/8/72 8/4/72
f 7/14/73 31/10/73 69/12/73
f 33/24/74 40/16/74 51/24/74
f 3/24/75 76/41/75 33/24/75
f 41/42/76 43/14/76 47/30/76
f 9/40/77 47/30/77 50/20/77
f 53/13/78 49/1/78 11/1/78
f 45/1/79 39/5/79 49/1/79
f 45/1/80 49/1/80 38/2/80
f 6/4/81 39/5/81 29/5/81
f 31/10/82 44/14/82 41/42/82
f 9/40/83 31/10/83 41/42/83
f 12/29/84 74/18/84 57/19/84
f 39/5/85 52/4/85 46/5/85
f 49/1/86 46/5/86 11/1/86
f 10/4/87 37/21/87 57/19/87
f 9/40/88 50/20/88 37/21/88
f 42/8/89 13/24/89 55/8/89
f 42/8/90 52/4/90 6/4/90
f 54/8/91 34/15/91 10/4/91
f 51/24/92 54/8/92 13/24/92
f 73/31/93 56/5/93 25/22/93
f 14/14/94 73/31/94 65/27/94
f 65/27/95 23/32/95 12/29/95
f 48/4/96 24/23/96 25/22/96
f 46/5/97 48/4/97 56/5/97
f 58/26/98 12/29/98 57/19/98
f 50/20/99 58/26/99 57/19/99
f 47/30/100 59/14/100 63/25/100
f 46/5/101 56/5/101 11/1/101
f 55/8/102 48/4/102 52/4/102
f 53/13/103 59/14/103 43/14/103
f 62/14/104 60/14/104 59/14/104
f 12/29/105 16/28/105 65/27/105
f 13/24/106 74/18/106 24/23/106
f 20/14/107 64/14/107 17/14/107
f 17/14/108 19/14/108 15/14/108
f 63/25/109 60/14/109 18/14/109
f 64/14/110 21/14/110 19/14/110
f 18/14/111 21/14/111 20/14/111
f 60/14/112 21/14/112 18/14/112
f 62/14/113 19/14/113 21/14/113
f 67/34/114 27/37/114 3/24/114
f 69/12/115 72/39/115 68/35/115
f 2/11/116 72/39/116 69/12/116
f 1/1/117 68/35/117 26/5/117
f 68/35/118 70/36/118 22/33/118
f 30/8/119 33/24/119 51/24/119
f 30/8/120 42/8/120 6/4/120
f 5/9/121 28/5/121 29/5/121
f 35/8/122 33/24/122 30/8/122
f 66/38/123 2/11/123 9/40/123
f 34/15/124 71/17/124 66/38/124
f 69/12/125 68/35/125 32/3/125
f 35/8/126 67/34/126 3/24/126
f 76/41/127 27/37/127 71/17/127
f 33/24/128 76/41/128 40/16/128
f 3/24/129 27/37/129 76/41/129
f 41/42/130 44/14/130 43/14/130
f 9/40/131 41/42/131 47/30/131
f 53/13/132 38/2/132 49/1/132
f 45/1/133 29/5/133 39/5/133
f 31/10/134 7/14/134 44/14/134
f 9/40/135 2/11/135 31/10/135
f 12/29/136 23/32/136 74/18/136
f 39/5/137 6/4/137 52/4/137
f 49/1/138 39/5/138 46/5/138
f 10/4/139 34/15/139 37/21/139
f 42/8/140 51/24/140 13/24/140
f 42/8/141 55/8/141 52/4/141
f 54/8/142 40/16/142 34/15/142
f 51/24/143 40/16/143 54/8/143
f 73/31/144 11/1/144 56/5/144
f 48/4/145 55/8/145 24/23/145
f 46/5/146 52/4/146 48/4/146
f 47/30/147 43/14/147 59/14/147
f 13/24/148 54/8/148 74/18/148
