# Blender 4.2.2 LTS
# www.blender.org
mtllib SpellCard.mtl
o 立方体
v 0.996644 -1.569973 0.078678
v 1.043479 -1.517215 0.078525
v 0.929896 -1.604893 0.080035
v 0.913050 -1.574772 0.085707
v 0.960793 -1.541214 0.087052
v 1.008187 -1.536156 0.083744
v 1.073077 -1.350210 0.086818
v 1.105088 -1.330192 0.080095
v 1.093672 -1.397543 0.080204
v 1.060375 -1.436885 0.084955
v 1.066187 -1.473945 0.080367
v 1.013992 -1.468320 0.088479
v 0.914001 -1.485587 0.091995
v 0.909142 -1.358788 0.095492
v 0.955482 -1.335053 0.094829
v 0.981995 -1.402055 0.092794
v 0.955181 -1.475695 0.091304
v 1.025137 -1.321011 0.091757
v 1.022174 -1.398553 0.090502
v 0.915224 1.607327 0.080086
v 1.085534 1.436110 0.078333
v 1.105719 1.335832 0.079085
v 1.086222 1.321334 0.085280
v 1.073552 1.405202 0.084814
v 1.055835 1.468136 0.083417
v 1.031132 1.441576 0.088259
v 1.044248 1.340089 0.090007
v 0.911018 1.578378 0.085113
v 0.915124 1.530823 0.089375
v 0.967039 1.550190 0.085847
v 0.972844 1.584695 0.080288
v 1.037625 1.524975 0.079503
v 1.022391 1.517032 0.083838
v 0.932671 1.326843 0.095505
v 1.007836 1.351174 0.092529
v 0.936742 1.398684 0.094426
v 0.916661 1.463297 0.092737
v 0.975674 1.465640 0.090989
v 0.989612 1.501896 0.088188
v -0.919121 -1.609075 0.078444
v -1.104408 -1.354607 0.079243
v -0.919471 -1.592987 0.083178
v -0.915124 -1.530823 0.089375
v -0.991214 -1.574772 0.078948
v -0.966152 -1.542097 0.086705
v -0.996501 -1.548374 0.083344
v -1.020733 -1.499818 0.085696
v -1.040944 -1.518895 0.079663
v -0.986011 -1.325240 0.093882
v -1.039161 -1.337487 0.090461
v -0.913288 -1.359462 0.095475
v -0.978393 -1.404995 0.092950
v -0.916661 -1.463296 0.092737
v -0.969601 -1.487103 0.090182
v -1.070107 -1.465933 0.080322
v -1.082144 -1.395872 0.083410
v -1.081398 -1.329520 0.085878
v -1.052304 -1.419151 0.087127
v -1.019912 -1.439424 0.089282
v -0.996644 1.569973 0.078678
v -1.043479 1.517215 0.078525
v -0.929896 1.604893 0.080035
v -0.913050 1.574772 0.085707
v -0.960793 1.541214 0.087052
v -1.008187 1.536156 0.083744
v -1.073077 1.350210 0.086818
v -1.105088 1.330192 0.080095
v -1.093672 1.397543 0.080204
v -1.060375 1.436885 0.084955
v -1.066187 1.473945 0.080367
v -1.013992 1.468320 0.088479
v -0.914001 1.485587 0.091995
v -0.909142 1.358788 0.095492
v -0.955482 1.335053 0.094829
v -0.981995 1.402055 0.092794
v -0.955181 1.475695 0.091304
v -1.025137 1.321011 0.091757
v -1.022174 1.398553 0.090502
v 0.919121 -1.609075 -0.078444
v 1.104408 -1.354607 -0.079243
v 0.919471 -1.592987 -0.083178
v 0.915124 -1.530823 -0.089375
v 0.991214 -1.574772 -0.078948
v 0.966152 -1.542097 -0.086705
v 0.996501 -1.548374 -0.083344
v 1.020733 -1.499818 -0.085696
v 1.040944 -1.518895 -0.079663
v 0.986011 -1.325240 -0.093882
v 1.039161 -1.337487 -0.090461
v 0.913288 -1.359462 -0.095475
v 0.978393 -1.404995 -0.092950
v 0.916661 -1.463296 -0.092737
v 0.969601 -1.487103 -0.090182
v 1.070107 -1.465933 -0.080322
v 1.082144 -1.395872 -0.083410
v 1.081398 -1.329520 -0.085878
v 1.052304 -1.419151 -0.087127
v 1.019912 -1.439424 -0.089282
v 0.996644 1.569973 -0.078678
v 1.043479 1.517215 -0.078525
v 0.929896 1.604893 -0.080035
v 0.913050 1.574772 -0.085707
v 0.960793 1.541214 -0.087052
v 1.008187 1.536156 -0.083744
v 1.073077 1.350210 -0.086818
v 1.105088 1.330192 -0.080095
v 1.093672 1.397543 -0.080204
v 1.060375 1.436885 -0.084955
v 1.066187 1.473945 -0.080367
v 1.013992 1.468320 -0.088479
v 0.914001 1.485587 -0.091995
v 0.909142 1.358788 -0.095492
v 0.955482 1.335053 -0.094829
v 0.981995 1.402055 -0.092794
v 0.955181 1.475695 -0.091304
v 1.025137 1.321011 -0.091757
v 1.022174 1.398553 -0.090502
v -0.916460 -1.354607 -0.095494
v -0.996644 -1.569973 -0.078678
v -1.043479 -1.517215 -0.078525
v -0.929896 -1.604893 -0.080035
v -0.913050 -1.574772 -0.085707
v -0.960793 -1.541214 -0.087052
v -1.008187 -1.536156 -0.083744
v -1.085148 -1.331432 -0.085291
v -1.106836 -1.322050 -0.078916
v -1.093672 -1.397543 -0.080204
v -1.060375 -1.436885 -0.084955
v -1.066187 -1.473945 -0.080367
v -1.018548 -1.471366 -0.087882
v -0.914001 -1.485587 -0.091995
v -0.964647 -1.395872 -0.093569
v -0.955181 -1.475695 -0.091304
v -0.993191 -1.329520 -0.093505
v -0.998387 -1.437763 -0.090854
v -1.046340 -1.361596 -0.089596
v -0.919121 1.609075 -0.078444
v -0.919471 1.592987 -0.083178
v -0.915124 1.530823 -0.089375
v -0.991214 1.574772 -0.078948
v -0.966152 1.542097 -0.086705
v -0.996501 1.548374 -0.083344
v -1.020733 1.499818 -0.085696
v -1.040944 1.518895 -0.079663
v -0.984345 1.325107 -0.093829
v -1.033634 1.331080 -0.091002
v -0.926315 1.330192 -0.095553
v -0.912950 1.392434 -0.094802
v -0.978393 1.404995 -0.092950
v -0.916661 1.463296 -0.092737
v -0.969601 1.487103 -0.090182
v -1.104383 1.358788 -0.078610
v -1.070107 1.465933 -0.080322
v -1.096713 1.335053 -0.082617
v -1.079861 1.399475 -0.083669
v -1.072522 1.333315 -0.086987
v -1.052304 1.419151 -0.087127
v -1.019912 1.439424 -0.089282
vn 0.2620 -0.2299 0.9373
vn 0.0775 -0.0760 0.9941
vn 0.0215 -0.0705 0.9973
vn 0.2275 -0.0370 0.9731
vn 0.1990 -0.0502 0.9787
vn 0.1116 -0.0419 0.9929
vn 0.2361 -0.0828 0.9682
vn 0.1293 -0.0801 0.9884
vn 0.0211 -0.0268 0.9994
vn 0.0465 -0.0120 0.9988
vn 0.3238 0.0723 0.9434
vn 0.2685 0.0969 0.9584
vn 0.2711 0.0463 0.9615
vn 0.2066 0.1329 0.9694
vn 0.1172 0.0716 0.9905
vn 0.1308 0.0588 0.9897
vn 0.0333 0.0921 0.9952
vn 0.0603 0.1623 0.9849
vn 0.0423 0.0681 0.9968
vn 0.0399 0.0617 0.9973
vn 0.1186 0.1384 0.9832
vn 0.0354 0.0130 0.9993
vn 0.0439 0.0258 0.9987
vn 0.0282 0.0349 0.9990
vn 0.0706 0.0498 0.9963
vn 0.0276 0.0503 0.9984
vn -0.0306 -0.0970 0.9948
vn -0.1278 -0.2825 0.9507
vn -0.0377 -0.0654 0.9971
vn -0.0706 -0.0674 0.9952
vn -0.0905 -0.0932 0.9915
vn -0.0287 -0.0144 0.9995
vn -0.0679 -0.0244 0.9974
vn -0.0833 -0.0273 0.9961
vn -0.0208 -0.0257 0.9995
vn -0.0256 -0.0503 0.9984
vn -0.3649 -0.1035 0.9253
vn -0.2432 -0.0333 0.9694
vn -0.1800 -0.0742 0.9809
vn -0.1504 -0.0351 0.9880
vn -0.1021 -0.0576 0.9931
vn -0.1121 -0.0225 0.9934
vn -0.2620 0.2299 0.9373
vn -0.0775 0.0760 0.9941
vn -0.0215 0.0705 0.9973
vn -0.2275 0.0370 0.9731
vn -0.1990 0.0502 0.9787
vn -0.1116 0.0419 0.9929
vn -0.2361 0.0828 0.9682
vn -0.1293 0.0801 0.9884
vn -0.0211 0.0268 0.9994
vn -0.0465 0.0120 0.9988
vn 0.0306 -0.0970 -0.9948
vn 0.1278 -0.2825 -0.9507
vn 0.0377 -0.0654 -0.9971
vn 0.0706 -0.0674 -0.9952
vn 0.0905 -0.0932 -0.9915
vn 0.0287 -0.0144 -0.9995
vn 0.0679 -0.0244 -0.9974
vn 0.0833 -0.0273 -0.9961
vn 0.0208 -0.0257 -0.9995
vn 0.0256 -0.0503 -0.9984
vn 0.3649 -0.1035 -0.9253
vn 0.2432 -0.0333 -0.9694
vn 0.1800 -0.0742 -0.9809
vn 0.1504 -0.0351 -0.9880
vn 0.1021 -0.0576 -0.9931
vn 0.1121 -0.0225 -0.9934
vn 0.2620 0.2299 -0.9373
vn 0.0775 0.0760 -0.9941
vn 0.0215 0.0705 -0.9973
vn 0.2275 0.0370 -0.9731
vn 0.1990 0.0502 -0.9787
vn 0.1116 0.0419 -0.9929
vn 0.2361 0.0828 -0.9682
vn 0.1293 0.0801 -0.9884
vn 0.0211 0.0268 -0.9994
vn 0.0465 0.0120 -0.9988
vn -0.2620 -0.2299 -0.9373
vn -0.0775 -0.0759 -0.9941
vn -0.0215 -0.0705 -0.9973
vn -0.2959 -0.0353 -0.9546
vn -0.1985 -0.0497 -0.9788
vn -0.2361 -0.0828 -0.9682
vn -0.1394 -0.0853 -0.9866
vn -0.0168 -0.0270 -0.9995
vn -0.0298 -0.0118 -0.9995
vn -0.0394 -0.0330 -0.9987
vn -0.0531 -0.0219 -0.9983
vn -0.0575 -0.0537 -0.9969
vn -0.0604 -0.0215 -0.9979
vn -0.0850 -0.0371 -0.9957
vn -0.0306 0.0970 -0.9948
vn -0.1278 0.2825 -0.9507
vn -0.0377 0.0654 -0.9971
vn -0.0706 0.0674 -0.9952
vn -0.0905 0.0932 -0.9915
vn -0.0554 0.0151 -0.9983
vn -0.0249 0.0174 -0.9995
vn -0.0309 0.0133 -0.9994
vn -0.0679 0.0244 -0.9974
vn -0.0827 0.0263 -0.9962
vn -0.0229 0.0279 -0.9993
vn -0.0256 0.0503 -0.9984
vn -0.3561 0.0991 -0.9292
vn -0.1770 0.0754 -0.9813
vn -0.1756 0.0299 -0.9840
vn -0.1477 0.0332 -0.9885
vn -0.1021 0.0576 -0.9931
vn -0.1014 0.0223 -0.9946
vn -0.0002 -0.2823 0.9593
vn -0.0004 -0.0992 0.9951
vn -0.0002 -0.0497 0.9988
vn 0.0001 -0.0264 0.9997
vn 0.2058 -0.0004 0.9786
vn 0.0441 -0.0000 0.9990
vn 0.0144 -0.0001 0.9999
vn -0.0000 0.1711 0.9853
vn 0.0001 0.0893 0.9960
vn 0.0002 0.0497 0.9988
vn -0.0001 0.0261 0.9997
vn 0.0003 0.0150 0.9999
vn -0.2057 0.0003 0.9786
vn -0.0441 0.0002 0.9990
vn -0.0143 -0.0000 0.9999
vn -0.4637 -0.8859 -0.0110
vn -0.9410 -0.3385 -0.0061
vn -0.9850 -0.1714 -0.0202
vn -0.4637 0.8859 0.0110
vn -0.9410 0.3385 0.0061
vn -0.9856 0.1670 0.0257
vn -0.0297 -0.0000 -0.9996
vn -0.0573 0.0001 -0.9984
vn -0.1778 0.0002 -0.9841
vn -0.4618 0.0005 -0.8870
vn 0.0002 -0.2823 -0.9593
vn 0.0004 -0.0992 -0.9951
vn 0.0002 -0.0497 -0.9988
vn -0.0001 -0.0264 -0.9997
vn -0.0002 0.2823 -0.9593
vn -0.0004 0.0992 -0.9951
vn -0.0002 0.0497 -0.9988
vn 0.0001 0.0291 -0.9996
vn -0.0002 0.0121 -0.9999
vn 0.2057 0.0003 -0.9786
vn 0.0441 0.0002 -0.9990
vn 0.0143 -0.0000 -0.9999
vn 0.4637 -0.8859 0.0110
vn 0.9410 -0.3385 0.0061
vn 0.9857 -0.1670 0.0214
vn 0.4637 0.8859 -0.0126
vn 0.7478 0.6639 -0.0049
vn 0.9404 0.3382 -0.0340
vn -0.0000 -0.0000 -1.0000
vn 0.0005 1.0000 0.0055
vn -0.0000 -0.0000 1.0000
vn -1.0000 0.0003 0.0055
vn 0.1069 -0.0000 0.9943
vn 0.1172 -0.1862 0.9755
vn 0.2282 -0.1607 0.9603
vn 0.0738 -0.1445 0.9867
vn 0.0847 -0.1497 0.9851
vn 0.0317 -0.0620 0.9976
vn 0.0907 -0.0196 0.9957
vn 0.0999 -0.0360 0.9943
vn 1.0000 -0.0002 -0.0041
vn 0.1606 -0.0964 0.9823
vn 0.0248 -0.0205 0.9995
vn 0.0237 -0.0288 0.9993
vn 0.0529 -0.0394 0.9978
vn 0.0554 -0.0599 0.9967
vn 0.0600 -0.0360 0.9975
vn 0.0585 -0.0184 0.9981
vn 0.3458 0.1743 0.9220
vn 0.1225 0.0240 0.9922
vn 0.1073 0.0310 0.9937
vn 0.0618 0.1486 0.9870
vn 0.0900 0.0902 0.9919
vn 0.1799 0.1825 0.9666
vn 0.0995 0.0697 0.9926
vn 0.0773 0.0271 0.9966
vn 0.0625 0.0310 0.9976
vn -0.1042 -0.1836 0.9774
vn -0.0799 -0.1417 0.9867
vn -0.2131 -0.2019 0.9560
vn -0.1679 -0.1311 0.9770
vn -0.0602 -0.0174 0.9980
vn -0.0316 -0.0370 0.9988
vn -0.0553 -0.0396 0.9977
vn -0.0729 -0.0581 0.9956
vn -0.1842 -0.1136 0.9763
vn -0.1627 -0.0811 0.9833
vn -0.1172 0.1862 0.9755
vn -0.2282 0.1607 0.9603
vn -0.0738 0.1445 0.9867
vn -0.0847 0.1497 0.9851
vn -0.0316 0.0620 0.9976
vn -0.0907 0.0196 0.9957
vn -0.0999 0.0360 0.9943
vn -0.1606 0.0964 0.9823
vn -0.0248 0.0205 0.9995
vn -0.0237 0.0288 0.9993
vn -0.0529 0.0394 0.9978
vn -0.0554 0.0599 0.9967
vn -0.0600 0.0360 0.9975
vn -0.0585 0.0184 0.9981
vn 0.1042 -0.1836 -0.9774
vn 0.0799 -0.1417 -0.9867
vn 0.2131 -0.2019 -0.9560
vn 0.1679 -0.1311 -0.9770
vn 0.0602 -0.0174 -0.9980
vn 0.0316 -0.0370 -0.9988
vn 0.0553 -0.0396 -0.9977
vn 0.0729 -0.0581 -0.9956
vn 0.1842 -0.1136 -0.9763
vn 0.1627 -0.0811 -0.9833
vn 0.1172 0.1862 -0.9755
vn 0.2282 0.1607 -0.9603
vn 0.0738 0.1445 -0.9867
vn 0.0847 0.1497 -0.9851
vn 0.0316 0.0620 -0.9976
vn 0.0907 0.0196 -0.9957
vn 0.0999 0.0360 -0.9943
vn 0.1606 0.0964 -0.9823
vn 0.0248 0.0205 -0.9995
vn 0.0237 0.0288 -0.9993
vn 0.0529 0.0394 -0.9978
vn 0.0554 0.0599 -0.9967
vn 0.0600 0.0360 -0.9975
vn 0.0585 0.0184 -0.9981
vn -0.1172 -0.1862 -0.9755
vn -0.2282 -0.1607 -0.9603
vn -0.0738 -0.1445 -0.9867
vn -0.0847 -0.1497 -0.9851
vn -0.0317 -0.0620 -0.9976
vn -0.1373 -0.0354 -0.9899
vn -0.1040 -0.0419 -0.9937
vn -0.1606 -0.0964 -0.9823
vn -0.0243 -0.0312 -0.9992
vn -0.0579 -0.0597 -0.9965
vn -0.1042 0.1836 -0.9774
vn -0.0799 0.1417 -0.9867
vn -0.2131 0.2019 -0.9560
vn -0.1679 0.1311 -0.9770
vn -0.0316 0.0370 -0.9988
vn -0.0553 0.0396 -0.9977
vn -0.0729 0.0581 -0.9956
vn -0.3013 0.0633 -0.9514
vn -0.1842 0.1136 -0.9763
vn -0.1627 0.0811 -0.9833
vn 0.0005 -0.1848 0.9828
vn 0.0003 -0.0703 0.9975
vn -0.0000 -0.0276 0.9996
vn 0.3026 0.0003 0.9531
vn -0.1050 -0.0000 0.9945
vn 0.0691 0.0002 0.9976
vn 0.0395 0.0001 0.9992
vn -0.0003 0.1849 0.9828
vn -0.0003 0.0703 0.9975
vn -0.0000 0.0276 0.9996
vn -0.2767 -0.0004 0.9610
vn -0.7474 -0.6644 0.0052
vn -0.0642 -0.0001 0.9979
vn -0.0220 -0.0001 0.9998
vn -0.4296 -0.9030 0.0054
vn -0.8803 -0.4744 0.0056
vn -0.7474 0.6644 -0.0052
vn -0.9556 -0.2943 0.0149
vn -0.4296 0.9030 -0.0054
vn -0.8803 0.4744 -0.0056
vn -0.1065 -0.0001 -0.9943
vn -0.9525 0.3045 -0.0101
vn -0.0260 -0.0001 -0.9997
vn -0.0732 -0.0002 -0.9973
vn 0.1050 -0.0000 -0.9945
vn -0.2821 -0.0003 -0.9594
vn -0.0005 -0.1848 -0.9828
vn -0.0003 -0.0703 -0.9975
vn -0.0001 -0.0267 -0.9996
vn 0.0005 0.1848 -0.9828
vn 0.0003 0.0703 -0.9975
vn 0.0001 0.0276 -0.9996
vn 0.2767 -0.0004 -0.9610
vn 0.7474 -0.6644 -0.0052
vn 0.0642 -0.0001 -0.9979
vn 0.0220 -0.0001 -0.9998
vn 0.4296 -0.9030 -0.0054
vn 0.8803 -0.4744 -0.0056
vn 0.8820 0.4712 0.0072
vn 0.9556 -0.2943 -0.0149
vn 0.3655 0.9306 0.0193
vn 0.6776 0.7346 0.0334
vn 0.9827 0.1852 -0.0026
vn -0.0000 -1.0000 -0.0000
vt 0.046777 0.647799
vt 0.038597 0.638997
vt 0.046391 0.636780
vt 0.031152 0.640679
vt 0.032833 0.631583
vt 0.024664 0.625380
vt 0.035425 0.625383
vt 0.291116 0.032339
vt 0.295371 0.042412
vt 0.288794 0.042383
vt 0.299070 0.034727
vt 0.295932 0.019187
vt 0.302701 0.029182
vt 0.302667 0.041838
vt 0.312546 0.035102
vt 0.617723 0.692949
vt 0.627125 0.702670
vt 0.617346 0.706183
vt 0.633855 0.709606
vt 0.623358 0.708971
vt 0.034317 0.044774
vt 0.037282 0.035166
vt 0.043478 0.044094
vt 0.031089 0.037119
vt 0.044494 0.034252
vt 0.017857 0.039578
vt 0.023346 0.044488
vt 0.021441 0.034200
vt 0.032855 0.025693
vt 0.374820 0.647702
vt 0.367259 0.639191
vt 0.374791 0.638312
vt 0.366438 0.630785
vt 0.374623 0.630407
vt 0.364140 0.644555
vt 0.369769 0.655051
vt 0.358494 0.636356
vt 0.630061 0.956316
vt 0.620627 0.960663
vt 0.620543 0.953683
vt 0.626358 0.967064
vt 0.618260 0.966584
vt 0.637644 0.965106
vt 0.629721 0.975883
vt 0.616977 0.974020
vt 0.026798 0.381062
vt 0.033464 0.373537
vt 0.038989 0.379870
vt 0.045975 0.370267
vt 0.046554 0.379664
vt 0.019449 0.376011
vt 0.023032 0.370634
vt 0.034446 0.362127
vt 0.039083 0.369456
vt 0.362930 0.709586
vt 0.364027 0.701931
vt 0.372863 0.706616
vt 0.352634 0.708738
vt 0.356995 0.699023
vt 0.346499 0.704653
vt 0.372356 0.696899
vt 0.365194 0.693377
vt 0.373640 0.689464
vt 0.624574 0.031914
vt 0.629261 0.038026
vt 0.623066 0.041698
vt 0.633266 0.044080
vt 0.635323 0.035617
vt 0.633364 0.024331
vt 0.644141 0.032254
vt 0.643705 0.043934
vt 0.641558 0.627723
vt 0.632755 0.635903
vt 0.630538 0.628109
vt 0.634437 0.643348
vt 0.625341 0.641667
vt 0.619138 0.649836
vt 0.619142 0.639075
vt 0.634327 0.291116
vt 0.624255 0.295371
vt 0.624283 0.288794
vt 0.631939 0.299070
vt 0.647480 0.295932
vt 0.637485 0.302701
vt 0.624829 0.302667
vt 0.631564 0.312546
vt 0.372893 0.970534
vt 0.363491 0.960814
vt 0.373271 0.957301
vt 0.356762 0.953878
vt 0.367259 0.954513
vt 0.309718 0.625139
vt 0.303052 0.632664
vt 0.297528 0.626331
vt 0.290541 0.635934
vt 0.289962 0.626537
vt 0.317068 0.630189
vt 0.313484 0.635567
vt 0.302070 0.644073
vt 0.297433 0.636744
vt 0.038980 0.709627
vt 0.040077 0.701972
vt 0.048913 0.706657
vt 0.028684 0.708780
vt 0.033045 0.699064
vt 0.022549 0.704694
vt 0.048406 0.696941
vt 0.041245 0.693419
vt 0.049690 0.689505
vt 0.301419 0.291240
vt 0.295307 0.295928
vt 0.291635 0.289733
vt 0.289253 0.299932
vt 0.297717 0.301989
vt 0.309002 0.300030
vt 0.301079 0.310808
vt 0.289400 0.310372
vt 0.352159 0.384761
vt 0.360962 0.376581
vt 0.363179 0.384375
vt 0.359280 0.369136
vt 0.368376 0.370817
vt 0.374579 0.362648
vt 0.374575 0.373409
vt 0.042217 0.300994
vt 0.037962 0.290921
vt 0.044539 0.290950
vt 0.034263 0.298606
vt 0.037401 0.314146
vt 0.030632 0.304151
vt 0.030666 0.291496
vt 0.020787 0.298231
vt 0.048943 0.970576
vt 0.039541 0.960855
vt 0.049321 0.957342
vt 0.032812 0.953919
vt 0.043309 0.954554
vt 0.289739 0.358401
vt 0.297919 0.367204
vt 0.290125 0.369421
vt 0.305364 0.365522
vt 0.303683 0.374617
vt 0.311852 0.380821
vt 0.301091 0.380817
vt 0.367794 0.043726
vt 0.375745 0.037962
vt 0.377403 0.044923
vt 0.368061 0.034263
vt 0.375171 0.030666
vt 0.363167 0.029945
vt 0.368436 0.020787
vt 0.293774 0.692991
vt 0.300619 0.703143
vt 0.294425 0.706815
vt 0.304624 0.709196
vt 0.299534 0.695177
vt 0.305031 0.699405
vt 0.310684 0.693120
vt 0.312896 0.705926
vt 0.618897 0.364782
vt 0.626422 0.371448
vt 0.620089 0.376972
vt 0.629692 0.383959
vt 0.620295 0.384538
vt 0.623948 0.357432
vt 0.629325 0.361016
vt 0.637832 0.372430
vt 0.630502 0.377067
vt 0.312819 0.953821
vt 0.302640 0.961594
vt 0.303428 0.953851
vt 0.295642 0.953910
vt 0.293664 0.960041
vt 0.309672 0.964502
vt 0.320168 0.958872
vt 0.294311 0.966626
vt 0.301472 0.970147
vt 0.293027 0.974061
vt 0.375426 0.301419
vt 0.370112 0.295736
vt 0.377962 0.292225
vt 0.364678 0.297717
vt 0.365157 0.289619
vt 0.371950 0.289438
vt 0.366636 0.309002
vt 0.355859 0.301079
vt 0.357722 0.288335
vt 0.044435 0.628182
vt 0.292081 0.378019
vt 0.621940 0.630065
vt 0.371777 0.382419
vt 0.355049 0.628685
vt 0.288148 0.021967
vt 0.043796 0.023177
vt 0.041169 0.651910
vt 0.022039 0.631351
vt 0.623484 0.695136
vt 0.632952 0.693958
vt 0.626678 0.682932
vt 0.634788 0.702613
vt 0.352140 0.644550
vt 0.637658 0.955425
vt 0.045387 0.359611
vt 0.357000 0.687024
vt 0.623683 0.024317
vt 0.645668 0.633331
vt 0.625109 0.652461
vt 0.644699 0.288148
vt 0.367133 0.968348
vt 0.357665 0.969526
vt 0.363939 0.980551
vt 0.355828 0.960871
vt 0.291129 0.646590
vt 0.033050 0.687065
vt 0.309016 0.290350
vt 0.348049 0.379153
vt 0.368608 0.360023
vt 0.045185 0.311366
vt 0.043183 0.968389
vt 0.033715 0.969567
vt 0.039989 0.980593
vt 0.031878 0.960912
vt 0.295347 0.354291
vt 0.314477 0.374849
vt 0.357172 0.041191
vt 0.302728 0.682974
vt 0.640348 0.383371
vt 0.309667 0.976501
vt 0.376317 0.309016
vt 0.377993 0.023934
vt 0.622007 0.309399
vt 0.309399 0.044659
vt 0.023934 0.288674
s 0
usemtl マテリアル
f 2/1/1 6/2/1 1/3/1
f 6/2/2 12/4/2 5/5/2
f 5/5/3 13/6/3 4/7/3
f 7/8/4 9/9/4 8/10/4
f 7/8/5 10/11/5 9/9/5
f 19/12/6 12/13/6 7/8/6
f 10/11/7 11/14/7 9/9/7
f 10/11/8 12/13/8 6/15/8
f 13/16/9 16/17/9 14/18/9
f 16/17/10 18/19/10 15/20/10
f 21/21/11 24/22/11 22/23/11
f 25/24/12 24/22/12 21/21/12
f 24/22/13 23/25/13 22/23/13
f 33/26/14 25/24/14 32/27/14
f 25/24/15 33/28/15 26/29/15
f 25/24/16 26/29/16 24/22/16
f 29/30/17 30/31/17 28/32/17
f 28/32/18 31/33/18 20/34/18
f 29/30/19 39/35/19 30/31/19
f 38/36/20 39/35/20 29/30/20
f 30/31/21 33/37/21 31/33/21
f 35/38/22 36/39/22 34/40/22
f 35/38/23 38/41/23 36/39/23
f 38/41/24 37/42/24 36/39/24
f 38/41/25 26/43/25 39/44/25
f 38/41/26 29/45/26 37/42/26
f 43/46/27 45/47/27 42/48/27
f 42/48/28 44/49/28 40/50/28
f 54/51/29 45/47/29 43/46/29
f 45/47/30 54/52/30 47/53/30
f 45/47/31 47/53/31 46/54/31
f 49/55/32 52/56/32 51/57/32
f 50/58/33 59/59/33 52/56/33
f 58/60/34 59/59/34 50/58/34
f 52/56/35 53/61/35 51/57/35
f 54/62/36 43/63/36 53/61/36
f 55/64/37 56/65/37 41/66/37
f 56/65/38 57/67/38 41/66/38
f 55/64/39 58/68/39 56/65/39
f 58/68/40 57/67/40 56/65/40
f 58/68/41 47/69/41 59/70/41
f 58/68/42 50/71/42 57/67/42
f 61/72/43 65/73/43 60/74/43
f 65/73/44 71/75/44 64/76/44
f 64/76/45 72/77/45 63/78/45
f 66/79/46 68/80/46 67/81/46
f 66/79/47 69/82/47 68/80/47
f 78/83/48 71/84/48 66/79/48
f 69/82/49 70/85/49 68/80/49
f 69/82/50 71/84/50 65/86/50
f 72/87/51 75/88/51 73/89/51
f 75/88/52 77/90/52 74/91/52
f 82/92/53 84/93/53 81/94/53
f 81/94/54 83/95/54 79/96/54
f 93/97/55 84/93/55 82/92/55
f 84/93/56 93/98/56 86/99/56
f 84/93/57 86/99/57 85/100/57
f 88/101/58 91/102/58 90/103/58
f 89/104/59 98/105/59 91/102/59
f 97/106/60 98/105/60 89/104/60
f 91/102/61 92/107/61 90/103/61
f 93/108/62 82/109/62 92/107/62
f 94/110/63 95/111/63 80/112/63
f 95/111/64 96/113/64 80/112/64
f 94/110/65 97/114/65 95/111/65
f 97/114/66 96/113/66 95/111/66
f 97/114/67 86/115/67 98/116/67
f 97/114/68 89/117/68 96/113/68
f 100/118/69 104/119/69 99/120/69
f 104/119/70 110/121/70 103/122/70
f 103/122/71 111/123/71 102/124/71
f 105/125/72 107/126/72 106/127/72
f 105/125/73 108/128/73 107/126/73
f 117/129/74 110/130/74 105/125/74
f 108/128/75 109/131/75 107/126/75
f 108/128/76 110/130/76 104/132/76
f 111/133/77 114/134/77 112/135/77
f 114/134/78 116/136/78 113/137/78
f 120/138/79 124/139/79 119/140/79
f 124/139/80 130/141/80 123/142/80
f 123/142/81 131/143/81 122/144/81
f 125/145/82 127/146/82 126/147/82
f 125/145/83 128/148/83 127/146/83
f 128/148/84 129/149/84 127/146/84
f 128/148/85 130/150/85 124/151/85
f 131/152/86 132/153/86 118/154/86
f 132/153/87 134/155/87 118/154/87
f 133/156/88 135/157/88 132/153/88
f 135/157/89 134/155/89 132/153/89
f 133/156/90 130/158/90 135/157/90
f 135/157/91 136/159/91 134/155/91
f 135/157/92 130/158/92 136/159/92
f 139/160/93 141/161/93 138/162/93
f 138/162/94 140/163/94 137/164/94
f 151/165/95 141/161/95 139/160/95
f 141/161/96 151/166/96 143/167/96
f 141/161/97 143/167/97 142/168/97
f 146/169/98 149/170/98 145/171/98
f 147/172/99 149/170/99 148/173/99
f 145/171/100 149/170/100 147/172/100
f 146/169/101 158/174/101 149/170/101
f 157/175/102 158/174/102 146/169/102
f 149/170/103 150/176/103 148/173/103
f 151/177/104 139/178/104 150/176/104
f 153/179/105 155/180/105 152/181/105
f 153/179/106 157/182/106 155/180/106
f 155/180/107 156/183/107 154/184/107
f 157/182/108 156/183/108 155/180/108
f 157/182/109 143/185/109 158/186/109
f 157/182/110 146/187/110 156/183/110
f 3/188/111 42/48/111 40/50/111
f 4/7/112 43/46/112 42/48/112
f 13/16/113 53/61/113 43/63/113
f 13/16/114 51/57/114 53/61/114
f 8/10/115 23/25/115 7/8/115
f 35/38/116 15/20/116 18/19/116
f 34/40/117 14/18/117 15/20/117
f 20/34/118 63/78/118 28/32/118
f 63/78/119 29/30/119 28/32/119
f 72/87/120 37/42/120 29/45/120
f 72/87/121 36/39/121 37/42/121
f 73/89/122 34/40/122 36/39/122
f 67/81/123 57/67/123 66/79/123
f 49/55/124 74/91/124 77/90/124
f 51/57/125 73/89/125 74/91/125
f 121/189/126 44/49/126 119/140/126
f 55/64/127 127/146/127 129/149/127
f 41/66/128 126/147/128 127/146/128
f 62/190/129 140/163/129 60/74/129
f 153/179/130 68/80/130 70/85/130
f 152/181/131 67/81/131 68/80/131
f 147/172/132 134/155/132 145/171/132
f 134/155/133 146/169/133 145/171/133
f 125/145/134 154/184/134 156/183/134
f 126/147/135 152/181/135 154/184/135
f 121/189/136 81/94/136 79/96/136
f 122/144/137 82/92/137 81/94/137
f 131/152/138 92/107/138 82/109/138
f 131/152/139 90/103/139 92/107/139
f 101/191/140 138/162/140 137/164/140
f 102/124/141 139/160/141 138/162/141
f 111/133/142 150/176/142 139/178/142
f 111/133/143 148/173/143 150/176/143
f 112/135/144 147/172/144 148/173/144
f 106/127/145 96/113/145 105/125/145
f 88/101/146 113/137/146 116/136/146
f 90/103/147 112/135/147 113/137/147
f 3/188/148 83/95/148 1/3/148
f 94/110/149 9/9/149 11/14/149
f 80/112/150 8/10/150 9/9/150
f 101/191/151 31/33/151 99/120/151
f 32/192/152 100/118/152 99/120/152
f 21/21/153 107/126/153 109/131/153
f 90/103/154 118/154/154 147/172/154 112/135/154
f 101/191/155 137/164/155 62/190/155 20/34/155
f 51/57/156 14/18/156 34/40/156 73/89/156
f 126/147/157 41/66/157 67/81/157 152/181/157
f 18/193/158 7/8/158 23/25/158 27/194/158
f 1/3/159 6/2/159 3/188/159
f 2/1/160 11/195/160 6/2/160
f 3/188/161 5/5/161 4/7/161
f 3/188/162 6/2/162 5/5/162
f 5/5/163 17/196/163 13/6/163
f 18/193/164 19/12/164 7/8/164
f 7/8/165 12/13/165 10/11/165
f 8/10/166 80/112/166 106/127/166 22/23/166
f 11/14/167 10/11/167 6/15/167
f 14/18/168 16/17/168 15/20/168
f 13/16/169 17/197/169 16/17/169
f 17/197/170 12/198/170 16/17/170
f 17/197/171 5/199/171 12/198/171
f 16/17/172 12/198/172 19/200/172
f 16/17/173 19/200/173 18/19/173
f 21/21/174 32/27/174 25/24/174
f 24/22/175 27/194/175 23/25/175
f 24/22/176 26/29/176 27/194/176
f 28/32/177 30/31/177 31/33/177
f 30/31/178 39/35/178 33/37/178
f 31/33/179 33/37/179 32/192/179
f 33/37/180 39/35/180 26/201/180
f 27/202/181 26/43/181 35/38/181
f 35/38/182 26/43/182 38/41/182
f 42/48/183 46/54/183 44/49/183
f 42/48/184 45/47/184 46/54/184
f 46/54/185 48/203/185 44/49/185
f 46/54/186 47/53/186 48/203/186
f 49/55/187 50/58/187 52/56/187
f 52/56/188 54/62/188 53/61/188
f 52/56/189 59/59/189 54/62/189
f 54/62/190 59/59/190 47/204/190
f 48/205/191 47/69/191 55/64/191
f 55/64/192 47/69/192 58/68/192
f 60/74/193 65/73/193 62/190/193
f 61/72/194 70/206/194 65/73/194
f 62/190/195 64/76/195 63/78/195
f 62/190/196 65/73/196 64/76/196
f 64/76/197 76/207/197 72/77/197
f 77/208/198 78/83/198 66/79/198
f 66/79/199 71/84/199 69/82/199
f 70/85/200 69/82/200 65/86/200
f 73/89/201 75/88/201 74/91/201
f 72/87/202 76/209/202 75/88/202
f 76/209/203 71/210/203 75/88/203
f 76/209/204 64/211/204 71/210/204
f 75/88/205 71/210/205 78/212/205
f 75/88/206 78/212/206 77/90/206
f 81/94/207 85/100/207 83/95/207
f 81/94/208 84/93/208 85/100/208
f 85/100/209 87/213/209 83/95/209
f 85/100/210 86/99/210 87/213/210
f 88/101/211 89/104/211 91/102/211
f 91/102/212 93/108/212 92/107/212
f 91/102/213 98/105/213 93/108/213
f 93/108/214 98/105/214 86/214/214
f 87/215/215 86/115/215 94/110/215
f 94/110/216 86/115/216 97/114/216
f 99/120/217 104/119/217 101/191/217
f 100/118/218 109/216/218 104/119/218
f 101/191/219 103/122/219 102/124/219
f 101/191/220 104/119/220 103/122/220
f 103/122/221 115/217/221 111/123/221
f 116/218/222 117/129/222 105/125/222
f 105/125/223 110/130/223 108/128/223
f 109/131/224 108/128/224 104/132/224
f 112/135/225 114/134/225 113/137/225
f 111/133/226 115/219/226 114/134/226
f 115/219/227 110/220/227 114/134/227
f 115/219/228 103/221/228 110/220/228
f 114/134/229 110/220/229 117/222/229
f 114/134/230 117/222/230 116/136/230
f 119/140/231 124/139/231 121/189/231
f 120/138/232 129/223/232 124/139/232
f 121/189/233 123/142/233 122/144/233
f 121/189/234 124/139/234 123/142/234
f 123/142/235 133/224/235 131/143/235
f 125/145/236 136/225/236 128/148/236
f 136/225/237 130/150/237 128/148/237
f 129/149/238 128/148/238 124/151/238
f 131/152/239 133/156/239 132/153/239
f 133/156/240 123/226/240 130/158/240
f 138/162/241 142/168/241 140/163/241
f 138/162/242 141/161/242 142/168/242
f 142/168/243 144/227/243 140/163/243
f 142/168/244 143/167/244 144/227/244
f 149/170/245 151/177/245 150/176/245
f 149/170/246 158/174/246 151/177/246
f 151/177/247 158/174/247 143/228/247
f 152/181/248 155/180/248 154/184/248
f 144/229/249 143/185/249 153/179/249
f 153/179/250 143/185/250 157/182/250
f 3/188/251 4/7/251 42/48/251
f 4/7/252 13/6/252 43/46/252
f 51/57/253 13/16/253 14/18/253
f 8/10/254 22/23/254 23/25/254
f 77/208/255 66/79/255 57/67/255 50/71/255
f 27/202/256 35/38/256 18/19/256
f 15/20/257 35/38/257 34/40/257
f 62/190/258 63/78/258 20/34/258
f 63/78/259 72/77/259 29/30/259
f 36/39/260 72/87/260 73/89/260
f 41/66/261 57/67/261 67/81/261
f 120/138/262 119/140/262 44/49/262 48/203/262
f 50/58/263 49/55/263 77/90/263
f 49/55/264 51/57/264 74/91/264
f 40/50/265 44/49/265 121/189/265
f 129/149/266 120/230/266 48/205/266 55/64/266
f 61/72/267 60/74/267 140/163/267 144/227/267
f 127/146/268 55/64/268 41/66/268
f 137/164/269 140/163/269 62/190/269
f 70/85/270 61/231/270 144/229/270 153/179/270
f 156/183/271 146/187/271 136/225/271 125/145/271
f 68/80/272 153/179/272 152/181/272
f 118/154/273 134/155/273 147/172/273
f 134/155/274 136/159/274 146/169/274
f 116/218/275 105/125/275 96/113/275 89/117/275
f 125/145/276 126/147/276 154/184/276
f 121/189/277 122/144/277 81/94/277
f 122/144/278 131/143/278 82/92/278
f 90/103/279 131/152/279 118/154/279
f 101/191/280 102/124/280 138/162/280
f 102/124/281 111/123/281 139/160/281
f 148/173/282 111/133/282 112/135/282
f 80/112/283 96/113/283 106/127/283
f 2/1/284 1/3/284 83/95/284 87/213/284
f 89/104/285 88/101/285 116/136/285
f 88/101/286 90/103/286 113/137/286
f 79/96/287 83/95/287 3/188/287
f 11/14/288 2/232/288 87/215/288 94/110/288
f 109/131/289 100/233/289 32/27/289 21/21/289
f 9/9/290 94/110/290 80/112/290
f 20/34/291 31/33/291 101/191/291
f 31/33/292 32/192/292 99/120/292
f 106/127/293 107/126/293 21/21/293 22/23/293
f 3/188/294 40/50/294 121/189/294 79/96/294
