# Blender 4.2.2 LTS
# www.blender.org
mtllib leftThigh.mtl
o もも.001
v 0.024804 0.061639 -0.041868
v 0.043937 0.050368 -0.001877
v 0.026396 0.053313 0.040362
v -0.048206 0.083947 0.026621
v -0.016597 0.078639 -0.049494
v -0.049089 0.088567 -0.019012
v -0.014611 0.068257 0.053045
v -0.028136 -0.079126 -0.010889
v -0.027502 -0.079656 0.021882
v 0.038647 -0.083510 0.001507
v 0.024911 -0.082217 -0.027231
v -0.004810 -0.080265 -0.032748
v 0.026054 -0.083172 0.031823
v -0.003385 -0.081457 0.040890
v -0.042645 -0.027297 -0.016100
v -0.052509 0.041809 -0.020017
v -0.041771 -0.029418 0.028959
v -0.051507 0.037567 0.031713
v 0.049270 -0.044834 0.000595
v 0.053015 0.006735 -0.000864
v 0.030365 -0.039659 -0.038847
v 0.031311 0.017084 -0.046142
v -0.015652 0.032693 -0.054666
v -0.010541 -0.031855 -0.046277
v 0.033117 0.009440 0.047072
v 0.031938 -0.043481 0.042348
v -0.013399 0.023161 0.061570
v -0.008579 -0.036621 0.054971
v 0.033404 0.059435 -0.021538
v 0.034184 0.055314 0.018758
v 0.005494 0.064169 0.045666
v -0.047956 0.089387 0.003613
v 0.003741 0.073430 -0.044878
v -0.032468 0.086760 -0.033683
v -0.031062 0.079333 0.038926
v -0.055367 0.073347 -0.021593
v -0.054339 0.068310 0.031469
v 0.052834 0.031697 -0.001781
v 0.030579 0.043987 -0.048260
v -0.007839 -0.062085 -0.041524
v 0.030574 -0.068270 0.038745
v -0.006065 -0.064621 0.050086
v -0.015660 -0.083247 -0.021056
v -0.026653 -0.082988 0.005407
v 0.031643 -0.086337 0.016247
v 0.011282 -0.085467 0.035320
v -0.014662 -0.083976 0.030495
v 0.031089 -0.085932 -0.012363
v 0.010037 -0.084557 -0.028965
v -0.036871 -0.059660 -0.014282
v -0.047577 0.007256 -0.017848
v -0.036081 -0.060788 0.026488
v -0.046639 0.004074 0.030538
v 0.046247 -0.068990 0.001002
v 0.051143 -0.019049 0.000001
v 0.029152 -0.066237 -0.034722
v 0.030838 -0.011287 -0.042337
v -0.017575 0.062523 -0.057077
v -0.013096 0.000419 -0.050280
v 0.032431 0.034909 0.047358
v 0.032528 -0.017021 0.044851
v -0.015265 0.051203 0.062155
v -0.010989 -0.006730 0.058442
v 0.008913 0.024977 -0.056117
v 0.010855 -0.035713 -0.047538
v 0.046942 0.010601 -0.026320
v 0.043979 -0.042901 -0.021579
v -0.035706 0.031041 0.051375
v -0.028009 -0.032681 0.046087
v 0.011161 0.015464 0.059881
v 0.012813 -0.040469 0.053502
v 0.047942 0.006367 0.025304
v 0.044851 -0.045018 0.023388
v -0.057365 0.041369 0.006191
v -0.046875 -0.027517 0.006727
v -0.037508 0.038670 -0.041648
v -0.029579 -0.028866 -0.034940
v -0.024856 -0.060865 -0.031077
v -0.040394 -0.060156 0.006343
v 0.042012 -0.069359 0.021498
v 0.013229 -0.066967 0.048504
v -0.023445 -0.062871 0.041759
v 0.041229 -0.068246 -0.018924
v 0.011470 -0.064466 -0.042323
v 0.007529 0.053680 -0.058198
v 0.009884 -0.005368 -0.051652
v 0.046302 0.036690 -0.027746
v 0.045461 -0.016150 -0.023806
v -0.037961 0.060846 0.051365
v -0.031857 -0.000820 0.048919
v 0.009821 0.042437 0.060116
v 0.011987 -0.012503 0.056846
v 0.047322 0.031687 0.024909
v 0.046396 -0.019325 0.024481
v -0.060044 0.073051 0.005247
v -0.052120 0.006926 0.006669
v -0.039799 0.069862 -0.043513
v -0.033544 0.004902 -0.038090
v -0.005408 0.080681 0.000659
v 0.004324 -0.092777 0.003531
vn -0.8156 -0.1765 -0.5510
vn -0.5240 -0.1779 -0.8330
vn -0.5564 -0.5191 -0.6488
vn -0.7504 -0.4250 -0.5063
vn -0.9612 -0.1901 0.1998
vn -0.9670 -0.1900 -0.1697
vn -0.8568 -0.5138 -0.0438
vn -0.8796 -0.4425 0.1744
vn 0.9749 -0.1188 0.1881
vn 0.8213 -0.1388 0.5534
vn 0.7335 -0.5649 0.3780
vn 0.8751 -0.4520 0.1727
vn 0.4759 -0.1521 0.8662
vn 0.0581 -0.1842 0.9812
vn 0.1436 -0.5843 0.7987
vn 0.4015 -0.4832 0.7781
vn -0.4397 -0.1925 0.8773
vn -0.7678 -0.2032 0.6076
vn -0.5836 -0.5578 0.5902
vn -0.4169 -0.4859 0.7681
vn 0.7661 -0.1326 -0.6289
vn 0.9619 -0.1296 -0.2408
vn 0.7659 -0.5578 -0.3199
vn 0.6803 -0.4513 -0.5775
vn -0.0872 -0.1623 -0.9829
vn 0.3750 -0.1577 -0.9135
vn 0.1818 -0.5534 -0.8128
vn -0.0918 -0.4453 -0.8907
vn 0.2979 0.3916 -0.8706
vn 0.4167 0.5619 -0.7146
vn 0.3781 -0.0488 -0.9245
vn -0.0743 -0.0851 -0.9936
vn -0.1027 -0.1419 -0.9845
vn 0.3669 -0.1239 -0.9220
vn 0.3769 -0.1126 -0.9194
vn -0.0916 -0.1297 -0.9873
vn 0.8598 0.3974 -0.3206
vn 0.8274 0.5242 -0.2015
vn 0.9702 0.0106 -0.2420
vn 0.7888 -0.0269 -0.6141
vn 0.7656 -0.0980 -0.6358
vn 0.9672 -0.0763 -0.2423
vn 0.9680 -0.0736 -0.2400
vn 0.7701 -0.0905 -0.6315
vn -0.2100 0.4669 0.8590
vn -0.4881 0.6053 0.6288
vn -0.7876 -0.0594 0.6133
vn -0.4290 -0.0474 0.9021
vn -0.4416 -0.1285 0.8880
vn -0.7895 -0.1414 0.5973
vn -0.7845 -0.1483 0.6021
vn -0.4349 -0.1384 0.8898
vn 0.5478 0.4482 0.7064
vn 0.2625 0.5700 0.7786
vn 0.0669 -0.0054 0.9977
vn 0.5047 0.0039 0.8633
vn 0.4887 -0.0838 0.8684
vn 0.0422 -0.1066 0.9934
vn 0.0470 -0.1172 0.9920
vn 0.4907 -0.0929 0.8664
vn 0.8871 0.4236 0.1834
vn 0.7853 0.5230 0.3315
vn 0.8281 0.0290 0.5599
vn 0.9792 0.0145 0.2022
vn 0.9798 -0.0648 0.1890
vn 0.8212 -0.0676 0.5667
vn 0.8215 -0.0735 0.5655
vn 0.9797 -0.0668 0.1892
vn -0.8669 0.4222 0.2649
vn -0.8028 0.5959 0.0186
vn -0.9792 -0.0882 -0.1829
vn -0.9737 -0.0880 0.2104
vn -0.9676 -0.1478 0.2045
vn -0.9717 -0.1505 -0.1821
vn -0.9721 -0.1483 -0.1816
vn -0.9663 -0.1503 0.2090
vn -0.5931 0.3662 -0.7170
vn -0.4027 0.5845 -0.7044
vn -0.5403 -0.0897 -0.8367
vn -0.8186 -0.1024 -0.5651
vn -0.8224 -0.1518 -0.5483
vn -0.5360 -0.1504 -0.8307
vn -0.5295 -0.1402 -0.8366
vn -0.8209 -0.1451 -0.5523
vn 0.5692 0.8190 0.0727
vn 0.4978 0.8593 -0.1174
vn 0.2848 0.9383 -0.1961
vn 0.1542 0.9866 0.0532
vn 0.2103 0.9509 0.2271
vn 0.3059 0.8889 0.3409
vn 0.4959 0.8299 0.2556
vn -0.1646 -0.9084 -0.3844
vn 0.1829 -0.9333 -0.3092
vn 0.3380 -0.9409 -0.0199
vn 0.2092 -0.9409 0.2663
vn -0.1192 -0.9276 0.3541
vn -0.4098 -0.8980 0.1605
vn -0.4316 -0.8858 -0.1706
vn -0.8053 -0.1868 -0.5627
vn -0.5241 -0.1778 -0.8329
vn -0.4918 -0.4436 -0.7492
vn -0.6367 -0.5175 -0.5716
vn -0.9598 -0.1930 0.2038
vn -0.9664 -0.1826 -0.1808
vn -0.8894 -0.4274 -0.1622
vn -0.8541 -0.5165 0.0605
vn 0.9716 -0.1287 0.1984
vn 0.8150 -0.1270 0.5654
vn 0.7272 -0.4580 0.5112
vn 0.7843 -0.5610 0.2651
vn 0.4793 -0.1554 0.8638
vn 0.0373 -0.1685 0.9850
vn 0.0140 -0.4776 0.8785
vn 0.2720 -0.5773 0.7699
vn -0.4400 -0.1923 0.8771
vn -0.7828 -0.1887 0.5930
vn -0.7156 -0.4548 0.5301
vn -0.4902 -0.5603 0.6676
vn 0.7765 -0.1484 -0.6124
vn 0.9611 -0.1244 -0.2467
vn 0.8582 -0.4573 -0.2332
vn 0.7032 -0.5638 -0.4331
vn -0.0627 -0.1794 -0.9818
vn 0.3764 -0.1588 -0.9127
vn 0.3085 -0.4696 -0.8272
vn 0.0509 -0.5555 -0.8300
vn 0.1660 0.5731 -0.8025
vn 0.5045 0.4351 -0.7458
vn 0.3878 -0.0619 -0.9197
vn -0.0826 -0.0760 -0.9937
vn -0.0960 -0.1479 -0.9843
vn 0.3720 -0.1295 -0.9191
vn 0.3838 -0.1190 -0.9157
vn -0.0828 -0.1365 -0.9872
vn 0.7526 0.5325 -0.3874
vn 0.8937 0.4251 -0.1431
vn 0.9727 -0.0015 -0.2323
vn 0.7828 -0.0148 -0.6221
vn 0.7677 -0.1020 -0.6326
vn 0.9675 -0.0783 -0.2404
vn 0.9684 -0.0758 -0.2377
vn 0.7730 -0.0950 -0.6273
vn -0.2459 0.6026 0.7592
vn -0.4514 0.4210 0.7868
vn -0.7825 -0.0672 0.6190
vn -0.4405 -0.0330 0.8971
vn -0.4480 -0.1224 0.8856
vn -0.7938 -0.1362 0.5927
vn -0.7895 -0.1429 0.5969
vn -0.4423 -0.1323 0.8871
vn 0.4629 0.5529 0.6928
vn 0.3868 0.4229 0.8195
vn 0.0755 -0.0158 0.9970
vn 0.4957 0.0171 0.8684
vn 0.4858 -0.0801 0.8704
vn 0.0367 -0.1011 0.9942
vn 0.0408 -0.1120 0.9929
vn 0.4875 -0.0895 0.8685
vn 0.8136 0.5201 0.2599
vn 0.7799 0.4290 0.4558
vn 0.8343 0.0163 0.5511
vn 0.9813 0.0270 0.1906
vn 0.9798 -0.0650 0.1893
vn 0.8204 -0.0659 0.5680
vn 0.8207 -0.0719 0.5669
vn 0.9796 -0.0670 0.1894
vn -0.7903 0.5981 0.1328
vn -0.9041 0.3989 -0.1531
vn -0.9803 -0.0974 -0.1719
vn -0.9771 -0.0767 0.1987
vn -0.9689 -0.1448 0.2008
vn -0.9717 -0.1502 -0.1826
vn -0.9721 -0.1480 -0.1821
vn -0.9677 -0.1470 0.2047
vn -0.6192 0.5779 -0.5316
vn -0.3708 0.4137 -0.8315
vn -0.5295 -0.1022 -0.8421
vn -0.8244 -0.0939 -0.5581
vn -0.8203 -0.1543 -0.5507
vn -0.5307 -0.1553 -0.8332
vn -0.5230 -0.1456 -0.8398
vn -0.8184 -0.1479 -0.5553
vn 0.5125 0.8552 0.0775
vn 0.4577 0.8877 -0.0494
vn 0.3207 0.9433 -0.0858
vn 0.1972 0.9793 -0.0454
vn 0.1608 0.9767 0.1422
vn 0.3304 0.9092 0.2535
vn 0.4596 0.8640 0.2057
vn -0.1301 -0.9555 -0.2646
vn 0.1140 -0.9677 -0.2247
vn 0.2375 -0.9712 -0.0183
vn 0.1392 -0.9713 0.1929
vn -0.1008 -0.9646 0.2439
vn -0.2940 -0.9502 0.1031
vn -0.3057 -0.9448 -0.1177
vt 0.312694 0.595378
vt 0.312759 0.587915
vt 0.312629 0.602841
vt 0.312888 0.572989
vt 0.312828 0.580784
vt 0.312823 0.580452
vt 0.312865 0.583387
vt 0.313609 0.594022
vt 0.313647 0.603054
vt 0.313938 0.603989
vt 0.313346 0.585766
vt 0.313586 0.593899
vt 0.313276 0.583477
vt 0.313607 0.593733
vt 0.313939 0.603989
vt 0.313352 0.585974
vt 0.313182 0.580979
vt 0.313183 0.581024
vt 0.313074 0.578024
vt 0.313071 0.577943
vt 0.313174 0.580711
vt 0.312980 0.575474
vt 0.312980 0.575466
vt 0.313219 0.610878
vt 0.312718 0.613780
vt 0.312500 0.617767
vt 0.313212 0.610386
vt 0.312565 0.610304
vt 0.312586 0.609905
vt 0.312692 0.605781
vt 0.312639 0.602567
vt 0.312693 0.601104
vt 0.312578 0.609775
vt 0.313939 0.603988
vt 0.313190 0.610784
vt 0.313647 0.603053
vt 0.313217 0.610755
vt 0.313241 0.610479
vt 0.313064 0.580452
vt 0.312981 0.575992
vt 0.313073 0.578412
vt 0.312986 0.579790
vt 0.313071 0.577944
vt 0.313169 0.581091
vt 0.313143 0.583837
vt 0.313175 0.580765
vt 0.313182 0.580970
vt 0.313578 0.593639
vt 0.313615 0.593993
vt 0.312772 0.594467
vt 0.312704 0.595263
vt 0.313017 0.592517
vt 0.313144 0.583837
vt 0.313011 0.592560
s 0
usemtl Material.008
f 77/1/1 50/2/1 15/2/1
f 24/3/2 78/1/2 77/1/2
f 78/1/3 12/3/3 43/1/3
f 78/1/4 8/2/4 50/2/4
f 17/4/5 79/5/5 52/4/5
f 75/6/6 50/2/6 79/5/6
f 79/5/7 8/2/7 44/7/7
f 79/5/8 9/4/8 52/4/8
f 73/8/9 54/9/9 19/10/9
f 73/8/10 41/11/10 80/12/10
f 80/12/11 13/13/11 45/14/11
f 80/12/12 10/15/12 54/9/12
f 26/16/13 81/17/13 41/11/13
f 71/18/14 42/19/14 81/17/14
f 81/17/15 14/20/15 46/21/15
f 81/17/16 13/13/16 41/11/16
f 28/20/17 82/22/17 42/19/17
f 69/23/18 52/4/18 82/22/18
f 82/22/19 9/4/19 47/23/19
f 82/22/20 14/20/20 42/19/20
f 67/24/21 56/25/21 21/26/21
f 19/10/22 83/27/22 67/24/22
f 83/27/23 10/15/23 48/24/23
f 83/27/24 11/26/24 56/25/24
f 65/28/25 40/3/25 24/3/25
f 21/26/26 84/29/26 65/28/26
f 84/29/27 11/26/27 49/28/27
f 84/29/28 12/3/28 40/3/28
f 33/30/29 58/31/29 5/32/29
f 1/26/30 85/33/30 33/30/30
f 39/26/31 64/28/31 85/33/31
f 85/33/32 23/3/32 58/31/32
f 64/28/33 59/3/33 23/3/33
f 22/26/34 86/29/34 64/28/34
f 57/25/35 65/28/35 86/29/35
f 86/29/36 24/3/36 59/3/36
f 29/24/37 39/26/37 1/26/37
f 2/34/38 87/35/38 29/24/38
f 38/36/39 66/37/39 87/35/39
f 87/35/40 22/26/40 39/26/40
f 66/37/41 57/25/41 22/26/41
f 20/10/42 88/38/42 66/37/42
f 55/15/43 67/24/43 88/38/43
f 88/38/44 21/26/44 57/25/44
f 7/39/45 89/40/45 62/41/45
f 35/42/46 37/4/46 89/40/46
f 89/40/47 18/4/47 68/23/47
f 62/41/48 68/23/48 27/20/48
f 27/43/49 90/23/49 63/43/49
f 68/23/50 53/4/50 90/23/50
f 90/23/51 17/4/51 69/23/51
f 63/43/52 69/23/52 28/20/52
f 3/13/53 91/44/53 60/13/53
f 31/45/54 62/41/54 91/44/54
f 91/44/55 27/20/55 70/46/55
f 60/13/56 70/46/56 25/13/56
f 25/13/57 92/47/57 61/11/57
f 70/46/58 63/43/58 92/47/58
f 92/47/59 28/20/59 71/18/59
f 61/11/60 71/18/60 26/16/60
f 2/34/61 93/48/61 38/36/61
f 3/13/62 93/48/62 30/14/62
f 93/48/63 25/13/63 72/14/63
f 93/48/64 20/10/64 38/36/64
f 72/14/65 55/15/65 20/15/65
f 72/14/66 61/11/66 94/49/66
f 94/49/67 26/16/67 73/8/67
f 94/49/68 19/10/68 55/15/68
f 4/4/69 95/6/69 37/4/69
f 6/2/70 95/6/70 32/6/70
f 95/6/71 16/2/71 74/6/71
f 37/4/72 74/6/72 18/4/72
f 18/4/73 96/6/73 53/4/73
f 74/6/74 51/2/74 96/6/74
f 96/6/75 15/2/75 75/6/75
f 53/4/76 75/6/76 17/4/76
f 34/50/77 36/2/77 6/2/77
f 5/32/78 97/51/78 34/50/78
f 58/31/79 76/1/79 97/51/79
f 97/51/80 16/2/80 36/2/80
f 76/1/81 51/2/81 16/2/81
f 23/3/82 98/1/82 76/1/82
f 59/3/83 77/1/83 98/1/83
f 98/1/84 15/2/84 51/2/84
f 29/24/85 30/14/85 2/15/85
f 33/30/86 29/24/86 1/26/86
f 34/50/87 33/30/87 5/32/87
f 6/2/88 99/52/88 34/50/88
f 4/4/89 99/52/89 32/6/89
f 31/53/90 35/42/90 7/39/90
f 30/14/91 31/53/91 3/13/91
f 49/28/92 43/1/92 12/3/92
f 48/24/93 49/28/93 11/26/93
f 45/14/94 48/24/94 10/15/94
f 46/21/95 45/14/95 13/13/95
f 47/23/96 46/21/96 14/43/96
f 44/7/97 47/23/97 9/4/97
f 43/1/98 44/7/98 8/2/98
f 77/1/99 78/1/99 50/2/99
f 24/3/100 40/3/100 78/1/100
f 78/1/101 40/3/101 12/3/101
f 78/1/102 43/1/102 8/2/102
f 17/4/103 75/6/103 79/5/103
f 75/6/104 15/2/104 50/2/104
f 79/5/105 50/2/105 8/2/105
f 79/5/106 44/7/106 9/4/106
f 73/8/107 80/12/107 54/9/107
f 73/8/108 26/16/108 41/11/108
f 80/12/109 41/11/109 13/13/109
f 80/12/110 45/14/110 10/15/110
f 26/16/111 71/18/111 81/17/111
f 71/18/112 28/20/112 42/19/112
f 81/17/113 42/19/113 14/20/113
f 81/17/114 46/21/114 13/13/114
f 28/20/115 69/23/115 82/22/115
f 69/23/116 17/4/116 52/4/116
f 82/22/117 52/4/117 9/4/117
f 82/22/118 47/23/118 14/20/118
f 67/24/119 83/27/119 56/25/119
f 19/10/120 54/9/120 83/27/120
f 83/27/121 54/9/121 10/15/121
f 83/27/122 48/24/122 11/26/122
f 65/28/123 84/29/123 40/3/123
f 21/26/124 56/25/124 84/29/124
f 84/29/125 56/25/125 11/26/125
f 84/29/126 49/28/126 12/3/126
f 33/30/127 85/33/127 58/31/127
f 1/26/128 39/26/128 85/33/128
f 39/26/129 22/26/129 64/28/129
f 85/33/130 64/28/130 23/3/130
f 64/28/131 86/29/131 59/3/131
f 22/26/132 57/25/132 86/29/132
f 57/25/133 21/26/133 65/28/133
f 86/29/134 65/28/134 24/3/134
f 29/24/135 87/35/135 39/26/135
f 2/34/136 38/36/136 87/35/136
f 38/36/137 20/10/137 66/37/137
f 87/35/138 66/37/138 22/26/138
f 66/37/139 88/38/139 57/25/139
f 20/10/140 55/15/140 88/38/140
f 55/15/141 19/15/141 67/24/141
f 88/38/142 67/24/142 21/26/142
f 7/39/143 35/42/143 89/40/143
f 35/42/144 4/4/144 37/4/144
f 89/40/145 37/4/145 18/4/145
f 62/41/146 89/40/146 68/23/146
f 27/43/147 68/23/147 90/23/147
f 68/23/148 18/4/148 53/4/148
f 90/23/149 53/4/149 17/4/149
f 63/43/150 90/23/150 69/23/150
f 3/13/151 31/45/151 91/44/151
f 31/45/152 7/39/152 62/41/152
f 91/44/153 62/41/153 27/20/153
f 60/13/154 91/44/154 70/46/154
f 25/13/155 70/46/155 92/47/155
f 70/46/156 27/20/156 63/43/156
f 92/47/157 63/43/157 28/20/157
f 61/11/158 92/47/158 71/18/158
f 2/34/159 30/14/159 93/48/159
f 3/13/160 60/13/160 93/48/160
f 93/48/161 60/13/161 25/13/161
f 93/48/162 72/14/162 20/10/162
f 72/14/163 94/49/163 55/15/163
f 72/14/164 25/13/164 61/11/164
f 94/49/165 61/11/165 26/16/165
f 94/49/166 73/8/166 19/10/166
f 4/4/167 32/6/167 95/6/167
f 6/2/168 36/2/168 95/6/168
f 95/6/169 36/2/169 16/2/169
f 37/4/170 95/6/170 74/6/170
f 18/4/171 74/6/171 96/6/171
f 74/6/172 16/2/172 51/2/172
f 96/6/173 51/2/173 15/2/173
f 53/4/174 96/6/174 75/6/174
f 34/50/175 97/51/175 36/2/175
f 5/32/176 58/31/176 97/51/176
f 58/31/177 23/3/177 76/1/177
f 97/51/178 76/1/178 16/2/178
f 76/1/179 98/1/179 51/2/179
f 23/3/180 59/3/180 98/1/180
f 59/3/181 24/3/181 77/1/181
f 98/1/182 77/1/182 15/2/182
f 29/24/183 99/52/183 30/14/183
f 33/30/184 99/52/184 29/24/184
f 34/50/185 99/52/185 33/30/185
f 6/2/186 32/6/186 99/52/186
f 4/4/187 35/42/187 99/52/187
f 31/53/188 99/52/188 35/42/188
f 30/14/189 99/52/189 31/53/189
f 49/28/190 100/54/190 43/1/190
f 48/24/191 100/54/191 49/28/191
f 45/14/192 100/54/192 48/24/192
f 46/21/193 100/54/193 45/14/193
f 47/23/194 100/54/194 46/21/194
f 44/7/195 100/54/195 47/23/195
f 43/1/196 100/54/196 44/7/196
