# Blender 4.2.2 LTS
# www.blender.org
mtllib leftArm.mtl
o 左腕
v -0.120659 -0.023310 -0.044374
v 0.104290 0.146238 -0.016859
v 0.095360 0.170553 -0.000244
v -0.123200 -0.009116 -0.047803
v -0.081089 -0.019874 -0.093597
v -0.083983 -0.008741 -0.084318
v -0.073910 -0.014922 -0.079744
v -0.089115 -0.004760 -0.071369
v -0.085868 0.002540 -0.070001
v -0.104938 0.016141 -0.051803
v -0.071175 -0.013876 -0.062468
v -0.096107 0.000383 -0.064386
v -0.111420 -0.020190 -0.052004
v -0.109293 -0.009691 -0.056500
v -0.088388 0.024899 -0.050511
v -0.045923 -0.000783 -0.039052
v -0.062676 -0.010089 -0.055914
v 0.032114 0.065490 -0.045107
v 0.081043 0.174140 0.006622
v 0.029593 0.127882 -0.039180
v 0.073945 0.173631 0.000102
v 0.082606 0.109591 -0.014900
v 0.097670 0.131631 -0.028201
v -0.126700 -0.020005 -0.045485
v -0.118095 -0.023348 -0.048429
v -0.121394 -0.024320 -0.043789
v 0.104207 0.146273 -0.016863
v 0.100013 0.163439 -0.005389
v -0.123146 -0.008932 -0.047896
v -0.081501 -0.019852 -0.093468
v -0.088596 -0.004921 -0.071890
v -0.070184 -0.012794 -0.061070
v -0.096316 0.000121 -0.064933
v -0.089242 -0.004712 -0.026703
v -0.111815 0.009959 -0.051296
v -0.109399 -0.009758 -0.056620
v -0.102776 0.016615 -0.051975
v -0.045685 -0.000601 -0.039091
v -0.062646 -0.010066 -0.055972
v -0.007699 0.085763 -0.039667
v 0.025073 0.053390 -0.026867
v 0.084633 0.174602 0.005241
v 0.041083 0.140635 -0.039499
v 0.050384 0.141542 -0.003094
v 0.056728 0.156165 -0.038270
v 0.070589 0.170990 -0.027089
v 0.074809 0.173564 0.002706
v -0.123990 -0.022711 -0.044353
v -0.114461 -0.022503 -0.050649
v 0.095707 0.124885 -0.012938
v 0.097748 0.145329 -0.032430
v 0.098647 0.161220 -0.023749
v -0.103199 -0.003217 -0.060291
v -0.077006 -0.018859 -0.094561
v -0.078569 -0.021049 -0.092104
v -0.079255 -0.010923 -0.092861
v -0.070843 -0.011524 -0.085803
v -0.072856 -0.013591 -0.072307
v -0.074901 -0.006548 -0.088691
v -0.091830 -0.001184 -0.067640
v -0.076383 0.007036 -0.068191
v -0.066897 -0.011136 -0.059611
v -0.067879 -0.004421 -0.067491
v -0.112240 0.009452 -0.051067
v -0.126418 -0.018197 -0.046455
v -0.014084 0.022298 -0.032718
v -0.042020 0.057897 -0.043914
v -0.054880 0.011236 -0.060791
v -0.058848 0.024785 -0.059410
v -0.059169 -0.009173 -0.047957
v 0.014699 0.109149 -0.038568
v 0.028368 0.091636 -0.048117
v 0.044952 0.089981 -0.046795
v -0.007227 0.086975 -0.040467
v 0.020645 0.047798 -0.028322
v 0.076237 0.174063 0.005975
v 0.073352 0.144816 -0.042568
v 0.070526 0.170971 -0.027200
v 0.055983 0.155902 -0.039033
v 0.065446 0.165347 -0.035402
v 0.089151 0.167815 -0.027420
v 0.091043 0.173598 -0.008131
v -0.111536 -0.019891 -0.052318
v 0.093322 0.121998 -0.013066
v 0.091783 0.172356 0.000134
v 0.097391 0.142747 -0.002067
v -0.103215 -0.003214 -0.060314
v -0.082540 -0.016255 -0.091590
v -0.078736 -0.021316 -0.092164
v -0.075891 -0.018142 -0.086275
v -0.079869 -0.012488 -0.078179
v -0.083827 -0.009274 -0.084624
v -0.084932 -0.014170 -0.061099
v -0.071839 -0.014058 -0.063424
v -0.080811 -0.016888 -0.038679
v -0.080564 -0.018197 -0.049849
v -0.098509 0.001102 -0.027509
v -0.081727 -0.010654 -0.030542
v -0.066417 -0.011225 -0.059620
v -0.125175 -0.017603 -0.041572
v -0.086141 0.019429 -0.032291
v -0.004527 0.062717 -0.014773
v -0.014423 0.072519 -0.021758
v -0.042020 0.057897 -0.043914
v -0.107162 0.008188 -0.034479
v -0.059191 -0.009144 -0.047969
v 0.012468 0.108926 -0.038304
v 0.016599 0.101805 -0.015014
v 0.059783 0.117361 0.000803
v 0.066435 0.153287 0.008306
v 0.059850 0.084292 -0.018764
v 0.038722 0.108608 -0.003930
v 0.065586 0.165370 -0.035005
v 0.072791 0.173005 -0.012855
v 0.091573 0.146775 0.003793
vn 0.9176 -0.1220 -0.3784
vn 0.9236 -0.3803 -0.0493
vn 0.6183 0.7341 -0.2807
vn 0.7426 0.6516 -0.1549
vn 0.7584 -0.6266 -0.1794
vn -0.3658 -0.3028 -0.8801
vn -0.5595 0.1884 -0.8071
vn 0.7897 -0.6120 -0.0431
vn -0.2587 0.1317 -0.9569
vn 0.8143 -0.5734 0.0906
vn -0.6744 0.5342 -0.5097
vn -0.7849 0.4323 -0.4440
vn -0.5065 0.2979 -0.8092
vn -0.5358 0.3796 -0.7542
vn 0.7679 -0.4372 -0.4682
vn 0.6791 -0.5147 -0.5233
vn 0.0828 0.0339 -0.9960
vn -0.3800 0.5434 -0.7485
vn -0.2462 0.5106 -0.8238
vn 0.3068 -0.2246 -0.9249
vn 0.3207 0.9293 0.1832
vn 0.2538 0.4044 -0.8787
vn 0.7184 -0.6463 -0.2573
vn 0.1250 0.7804 -0.6126
vn -0.0101 0.9990 -0.0436
vn -0.6199 -0.5376 0.5716
vn 0.9116 -0.0500 0.4080
vn -0.0621 -0.5959 0.8007
vn -0.5953 -0.7660 0.2425
vn -0.9088 -0.3665 0.1994
vn -0.8468 -0.4383 0.3015
vn 0.5285 -0.8449 0.0820
vn -0.3477 -0.9174 -0.1934
vn -0.8501 -0.5063 -0.1453
vn 0.3438 -0.7264 0.5952
vn -0.4751 0.8334 0.2823
vn 0.3183 -0.9476 -0.0282
vn 0.3787 -0.9182 0.1160
vn 0.4048 -0.9121 -0.0647
vn 0.5564 -0.7989 0.2282
vn -0.5420 0.1512 0.8266
vn -0.2282 -0.3393 -0.9126
vn 0.1644 -0.9793 0.1184
vn -0.7684 0.5610 0.3078
vn 0.1158 -0.2236 0.9678
vn 0.1748 -0.0076 0.9846
vn -0.2035 -0.0394 0.9783
vn -0.7995 0.5949 0.0823
vn -0.1455 -0.1764 0.9735
vn -0.0878 -0.4589 -0.8841
vn 0.9064 0.1619 -0.3903
vn 0.9370 0.3494 -0.0077
vn 0.5497 0.3763 -0.7458
vn -0.3551 -0.0788 -0.9315
vn -0.4459 -0.7193 -0.5327
vn -0.5607 0.1871 -0.8066
vn 0.0340 -0.7567 -0.6529
vn 0.7169 0.1964 -0.6690
vn -0.8309 0.2125 -0.5142
vn 0.7669 -0.6411 0.0287
vn 0.2931 0.1600 -0.9426
vn 0.9006 -0.4019 -0.1655
vn 0.8875 -0.4587 -0.0437
vn 0.4756 0.3110 -0.8229
vn -0.2734 0.7922 -0.5456
vn 0.6598 -0.3883 -0.6433
vn -0.1590 0.6385 -0.7530
vn -0.2279 0.6033 -0.7643
vn -0.5061 0.3469 -0.7896
vn 0.5998 -0.7856 -0.1519
vn 0.6001 -0.7806 -0.1747
vn -0.2494 0.2398 -0.9383
vn -0.5428 0.0681 -0.8371
vn -0.4848 -0.0548 -0.8729
vn 0.5377 -0.3352 -0.7737
vn 0.0860 0.0677 -0.9940
vn -0.0872 0.1761 -0.9805
vn -0.2386 0.3147 -0.9187
vn -0.2438 0.4621 -0.8527
vn 0.4373 -0.1582 -0.8853
vn 0.3640 -0.3321 -0.8702
vn -0.0422 0.9949 -0.0916
vn 0.3562 0.3309 -0.8739
vn 0.7125 -0.6674 -0.2166
vn 0.0240 0.3377 -0.9410
vn -0.0281 0.9977 -0.0624
vn 0.7167 0.0211 0.6971
vn 0.8167 0.4810 -0.3188
vn 0.8812 -0.3445 0.3238
vn -0.1899 -0.4025 0.8955
vn 0.0674 -0.7883 0.6115
vn -0.5697 -0.7150 0.4052
vn -0.1378 -0.8425 0.5207
vn 0.1619 -0.9681 -0.1911
vn -0.7005 -0.6418 -0.3122
vn -0.3938 -0.8960 -0.2050
vn -0.3206 0.4358 0.8410
vn 0.4122 -0.8834 0.2230
vn 0.3948 -0.9152 -0.0814
vn -0.5640 0.7903 0.2393
vn -0.8010 0.5304 0.2775
vn -0.9297 0.3328 0.1580
vn -0.2249 -0.3091 -0.9241
vn 0.1696 -0.3744 0.9116
vn 0.2973 -0.5409 0.7868
vn -0.4215 0.4845 0.7666
vn -0.5561 0.7476 0.3631
vn -0.1100 -0.0376 0.9932
vn -0.6234 0.7221 0.2999
vn 0.0809 -0.9198 -0.3841
vn -0.6934 0.6788 0.2417
vn 0.4288 -0.4873 0.7607
vn 0.2185 -0.4966 0.8400
vn -0.4042 0.2239 0.8868
vn 0.3631 -0.4739 0.8022
vn 0.6001 0.1084 0.7925
vn -0.4789 0.1476 0.8653
vn -0.7395 0.6699 0.0663
vn -0.2686 0.3579 0.8943
vn -0.7116 0.4442 0.5443
vn -0.7655 0.6428 0.0274
vn -0.7196 0.6944 -0.0053
vn -0.7526 0.6116 0.2439
vn -0.6660 0.2177 0.7134
vn 0.2884 0.1803 -0.9404
vn -0.2719 0.7930 -0.5451
vn -0.2680 0.6157 -0.7410
vn -0.4428 0.3947 -0.8051
vn 0.5975 -0.7904 -0.1354
vn 0.6099 -0.7165 -0.3385
vn -0.3346 0.2362 -0.9123
vn 0.0416 0.1134 -0.9927
vn 0.3738 -0.2755 -0.8856
vn 0.1561 0.9418 -0.2977
vn 0.6300 0.1049 0.7695
vn 0.7721 0.5541 -0.3113
vn -0.2820 -0.3243 0.9029
vn -0.8058 0.4603 0.3726
vn -0.3196 -0.4746 -0.8201
vn 0.1867 -0.3902 0.9016
vn 0.3398 -0.6078 0.7177
vn -0.3447 0.2885 0.8933
vn -0.5999 0.7619 0.2444
vn 0.0797 -0.9283 -0.3632
vn -0.7247 0.6124 0.3158
vn 0.4216 -0.4896 0.7633
vn -0.4968 0.2736 0.8236
vn -0.7032 0.7105 -0.0263
vt 0.312500 0.624434
vt 0.312500 0.568065
vt 0.312500 0.608539
vt 0.312500 0.562500
vt 0.312500 0.617746
vt 0.312500 0.592448
vt 0.312500 0.616997
vt 0.312500 0.625000
vt 0.312500 0.624999
vt 0.312500 0.624793
vt 0.312500 0.624991
vt 0.312500 0.623927
vt 0.312500 0.613253
vt 0.312500 0.625008
vt 0.312500 0.625093
vt 0.312500 0.562412
vt 0.312500 0.570420
vt 0.312500 0.584284
vt 0.312500 0.563746
vt 0.312500 0.595088
vt 0.312500 0.621725
vt 0.312500 0.572777
vt 0.312500 0.578957
vt 0.312500 0.578629
vt 0.312500 0.593751
vt 0.312500 0.563802
vt 0.312500 0.625961
vt 0.312500 0.577535
vt 0.312500 0.572917
vt 0.312500 0.563455
vt 0.312500 0.563513
vt 0.312500 0.593745
vt 0.312500 0.562489
vt 0.312500 0.564968
vt 0.312500 0.608300
vt 0.312500 0.593750
vt 0.312500 0.572357
vt 0.312500 0.562252
vt 0.312500 0.578112
s 0
usemtl Material.006
f 51/1/1 2/2/1 23/3/1
f 23/3/2 2/2/2 50/4/2
f 81/5/3 82/6/3 52/7/3
f 82/6/4 3/4/4 52/7/4
f 23/3/5 50/4/5 22/4/5
f 13/8/6 65/9/6 14/8/6
f 64/8/7 53/8/7 4/8/7
f 57/8/8 55/8/8 54/8/8
f 56/8/9 54/8/9 5/8/9
f 63/8/10 7/8/10 57/8/10
f 56/8/11 6/8/11 9/8/11
f 9/8/12 6/8/12 8/8/12
f 9/8/13 60/8/13 12/8/13
f 60/8/14 9/8/14 8/8/14
f 68/10/15 62/8/15 63/8/15
f 62/8/16 11/8/16 63/8/16
f 77/11/17 73/12/17 72/8/17
f 74/8/18 69/8/18 67/8/18
f 67/8/19 69/8/19 15/8/19
f 73/12/20 18/13/20 68/10/20
f 3/4/21 82/6/21 19/4/21
f 77/11/22 80/14/22 81/5/22
f 23/3/23 22/4/23 18/13/23
f 80/14/24 78/15/24 81/5/24
f 82/6/25 76/4/25 19/4/25
f 26/16/26 100/17/26 24/18/26
f 86/4/27 27/4/27 28/4/27
f 34/4/28 26/16/28 98/19/28
f 91/8/29 90/8/29 94/8/29
f 92/8/30 88/8/30 30/8/30
f 92/8/31 30/8/31 91/8/31
f 96/20/32 94/8/32 32/8/32
f 93/21/33 91/8/33 96/20/33
f 93/21/34 31/8/34 92/8/34
f 98/19/35 95/22/35 38/4/35
f 37/8/36 105/23/36 101/24/36
f 39/8/37 106/25/37 99/8/37
f 106/25/38 95/22/38 96/20/38
f 99/8/39 96/20/39 32/8/39
f 26/16/40 25/8/40 83/8/40
f 105/23/41 100/17/41 97/26/41
f 93/21/42 83/8/42 36/8/42
f 95/22/43 26/16/43 96/20/43
f 107/27/44 108/28/44 44/29/44
f 115/4/45 110/30/45 109/4/45
f 115/4/46 42/4/46 110/30/46
f 112/26/47 102/31/47 109/4/47
f 114/32/48 44/29/48 47/33/48
f 109/4/49 110/30/49 112/26/49
f 1/34/50 48/35/50 65/9/50
f 51/1/51 52/7/51 2/2/51
f 52/7/52 3/4/52 2/2/52
f 81/5/53 52/7/53 51/1/53
f 13/8/54 49/8/54 65/9/54
f 49/8/55 1/34/55 65/9/55
f 64/8/56 12/8/56 53/8/56
f 54/8/57 55/8/57 5/8/57
f 59/8/58 57/8/58 54/8/58
f 6/8/59 56/8/59 5/8/59
f 57/8/60 7/8/60 55/8/60
f 61/8/61 68/10/61 63/8/61
f 63/8/62 11/8/62 58/8/62
f 63/8/63 58/8/63 7/8/63
f 59/8/64 54/8/64 56/8/64
f 9/8/65 59/8/65 56/8/65
f 68/10/66 17/8/66 62/8/66
f 9/8/67 15/8/67 61/8/67
f 15/8/68 69/8/68 61/8/68
f 12/8/69 10/8/69 9/8/69
f 70/36/70 66/4/70 16/4/70
f 17/8/71 75/37/71 70/36/71
f 72/8/72 20/8/72 79/8/72
f 4/8/73 53/8/73 65/9/73
f 53/8/74 14/8/74 65/9/74
f 73/12/75 23/3/75 18/13/75
f 68/10/76 72/8/76 73/12/76
f 79/8/77 77/11/77 72/8/77
f 71/8/78 72/8/78 74/8/78
f 74/8/79 72/8/79 69/8/79
f 77/11/80 23/3/80 73/12/80
f 18/13/81 17/8/81 68/10/81
f 82/6/82 78/15/82 21/38/82
f 51/1/83 77/11/83 81/5/83
f 18/13/84 22/4/84 75/37/84
f 77/11/85 79/8/85 80/14/85
f 82/6/86 21/38/86 76/4/86
f 28/4/87 115/4/87 86/4/87
f 59/8/88 63/8/88 57/8/88
f 86/4/89 84/4/89 27/4/89
f 26/16/90 97/26/90 100/17/90
f 95/22/91 98/19/91 26/16/91
f 91/8/92 30/8/92 89/8/92
f 91/8/93 89/8/93 90/8/93
f 96/20/94 91/8/94 94/8/94
f 93/21/95 33/8/95 31/8/95
f 93/21/96 92/8/96 91/8/96
f 101/24/97 105/23/97 97/26/97
f 106/25/98 38/4/98 95/22/98
f 99/8/99 106/25/99 96/20/99
f 105/23/100 37/8/100 35/8/100
f 29/8/101 105/23/101 35/8/101
f 100/17/102 29/8/102 24/18/102
f 87/8/103 93/21/103 36/8/103
f 98/19/104 102/31/104 34/4/104
f 98/19/105 41/4/105 111/4/105
f 102/31/106 101/24/106 97/26/106
f 101/24/107 104/8/107 37/8/107
f 102/31/108 97/26/108 34/4/108
f 40/8/109 104/8/109 103/39/109
f 83/8/110 96/20/110 26/16/110
f 108/28/111 40/8/111 103/39/111
f 115/4/112 84/4/112 86/4/112
f 109/4/113 102/31/113 111/4/113
f 102/31/114 108/28/114 103/39/114
f 111/4/115 115/4/115 109/4/115
f 115/4/116 85/4/116 42/4/116
f 44/29/117 108/28/117 112/26/117
f 114/32/118 43/8/118 107/27/118
f 110/30/119 42/4/119 47/33/119
f 110/30/120 47/33/120 44/29/120
f 46/8/121 113/8/121 114/32/121
f 113/8/122 45/8/122 114/32/122
f 114/32/123 107/27/123 44/29/123
f 112/26/124 110/30/124 44/29/124
f 61/8/125 69/8/125 68/10/125
f 9/8/126 61/8/126 59/8/126
f 9/8/127 10/8/127 15/8/127
f 12/8/128 64/8/128 10/8/128
f 70/36/129 75/37/129 66/4/129
f 17/8/130 18/13/130 75/37/130
f 72/8/131 71/8/131 20/8/131
f 68/10/132 69/8/132 72/8/132
f 77/11/133 51/1/133 23/3/133
f 82/6/134 81/5/134 78/15/134
f 28/4/135 85/4/135 115/4/135
f 59/8/136 61/8/136 63/8/136
f 26/16/137 34/4/137 97/26/137
f 29/8/138 100/17/138 105/23/138
f 87/8/139 33/8/139 93/21/139
f 98/19/140 111/4/140 102/31/140
f 98/19/141 38/4/141 41/4/141
f 102/31/142 103/39/142 101/24/142
f 101/24/143 103/39/143 104/8/143
f 83/8/144 93/21/144 96/20/144
f 108/28/145 107/27/145 40/8/145
f 115/4/146 111/4/146 84/4/146
f 102/31/147 112/26/147 108/28/147
f 114/32/148 45/8/148 43/8/148
