# Blender 4.2.2 LTS
# www.blender.org
mtllib eyebrows.mtl
o 眉毛.002
v -0.059920 0.122350 -0.300322
v -0.062650 0.127332 -0.299474
v -0.066310 0.130012 -0.298723
v -0.069907 0.132295 -0.297985
v -0.073450 0.134251 -0.297258
v -0.076948 0.135938 -0.296541
v -0.080407 0.137410 -0.295831
v -0.083832 0.138711 -0.295129
v -0.087229 0.139876 -0.294432
v -0.090602 0.140936 -0.293740
v -0.093952 0.141912 -0.293053
v -0.097280 0.142816 -0.292370
v -0.100587 0.143654 -0.291691
v -0.103873 0.144425 -0.291018
v -0.107134 0.145123 -0.290348
v -0.110371 0.145741 -0.289684
v -0.113580 0.146274 -0.289026
v -0.116762 0.146719 -0.288373
v -0.119914 0.147072 -0.287727
v -0.123034 0.147331 -0.287087
v -0.126123 0.147495 -0.286453
v -0.129178 0.147563 -0.285826
v -0.132198 0.147536 -0.285207
v -0.135182 0.147416 -0.284595
v -0.138130 0.147203 -0.283990
v -0.141039 0.146903 -0.283393
v -0.143909 0.146518 -0.282804
v -0.146740 0.146054 -0.282224
v -0.149530 0.145517 -0.281651
v -0.152279 0.144914 -0.281087
v -0.154985 0.144251 -0.280532
v -0.157649 0.143539 -0.279986
v -0.160269 0.142782 -0.279448
v -0.162843 0.141989 -0.278920
v -0.165370 0.141164 -0.278402
v -0.167847 0.140312 -0.277894
v -0.170273 0.139435 -0.277396
v -0.172644 0.138538 -0.276910
v -0.174957 0.137620 -0.276435
v -0.177209 0.136683 -0.275973
v -0.179396 0.135726 -0.275525
v -0.181513 0.134747 -0.275090
v -0.183556 0.133745 -0.274671
v -0.185521 0.132716 -0.274268
v -0.187401 0.131655 -0.273882
v -0.189192 0.130558 -0.273515
v -0.190887 0.129418 -0.273167
v -0.192480 0.128227 -0.272840
v -0.193965 0.126979 -0.272536
v -0.195337 0.125668 -0.272255
v -0.196589 0.124289 -0.271998
v -0.197718 0.122841 -0.271766
v -0.198722 0.121323 -0.271560
v -0.199597 0.119738 -0.271381
v -0.200341 0.118088 -0.271228
v -0.200956 0.116382 -0.271102
v -0.201439 0.114626 -0.271003
v -0.201792 0.112830 -0.270930
v -0.202018 0.111006 -0.270884
v -0.202118 0.109169 -0.270863
v -0.201856 0.108188 -0.270966
v -0.201235 0.107581 -0.272248
v -0.200201 0.107551 -0.272462
v -0.199079 0.107495 -0.272692
v -0.197895 0.107648 -0.272935
v -0.196649 0.108005 -0.273191
v -0.195338 0.108558 -0.273460
v -0.193960 0.109298 -0.273742
v -0.192513 0.110211 -0.274039
v -0.190991 0.111279 -0.274352
v -0.189390 0.112484 -0.274680
v -0.187705 0.113802 -0.275026
v -0.185927 0.115208 -0.275390
v -0.184053 0.116677 -0.275775
v -0.182074 0.118185 -0.276181
v -0.179988 0.119713 -0.276609
v -0.177788 0.121240 -0.277060
v -0.175472 0.122750 -0.277535
v -0.173035 0.124226 -0.278035
v -0.170477 0.125657 -0.278560
v -0.167794 0.127029 -0.279110
v -0.164985 0.128334 -0.279687
v -0.162050 0.129565 -0.280289
v -0.158988 0.130715 -0.280917
v -0.155801 0.131782 -0.281571
v -0.152489 0.132762 -0.282250
v -0.149054 0.133658 -0.282955
v -0.145500 0.134470 -0.283684
v -0.141828 0.135203 -0.284437
v -0.138042 0.135862 -0.285214
v -0.134143 0.136449 -0.286013
v -0.130125 0.136957 -0.286838
v -0.125976 0.137372 -0.287689
v -0.121680 0.137670 -0.288570
v -0.117214 0.137821 -0.289486
v -0.112549 0.137786 -0.290443
v -0.107652 0.137517 -0.291448
v -0.102481 0.136960 -0.292509
v -0.096993 0.136051 -0.293634
v -0.091134 0.134719 -0.294836
v -0.084849 0.132884 -0.296126
v -0.078073 0.130458 -0.297516
v -0.070738 0.127347 -0.299020
v -0.061845 0.123171 -0.300651
v -0.058380 0.122350 -0.292816
v -0.061110 0.127332 -0.291967
v -0.064770 0.130012 -0.291216
v -0.068367 0.132295 -0.290478
v -0.071910 0.134251 -0.289752
v -0.075408 0.135938 -0.289034
v -0.078867 0.137410 -0.288325
v -0.082292 0.138711 -0.287622
v -0.085689 0.139876 -0.286925
v -0.089062 0.140936 -0.286233
v -0.092412 0.141912 -0.285546
v -0.095740 0.142816 -0.284863
v -0.099048 0.143654 -0.284185
v -0.102333 0.144425 -0.283511
v -0.105594 0.145123 -0.282842
v -0.108831 0.145741 -0.282178
v -0.112040 0.146274 -0.281519
v -0.115222 0.146719 -0.280867
v -0.118374 0.147072 -0.280220
v -0.121495 0.147331 -0.279580
v -0.124583 0.147495 -0.278946
v -0.127638 0.147563 -0.278320
v -0.130658 0.147536 -0.277700
v -0.133642 0.147416 -0.277088
v -0.136590 0.147203 -0.276483
v -0.139499 0.146903 -0.275886
v -0.142369 0.146518 -0.275298
v -0.145200 0.146054 -0.274717
v -0.147990 0.145517 -0.274144
v -0.150739 0.144914 -0.273581
v -0.153446 0.144251 -0.273025
v -0.156109 0.143539 -0.272479
v -0.158729 0.142782 -0.271942
v -0.161303 0.141989 -0.271414
v -0.163830 0.141164 -0.270895
v -0.166307 0.140312 -0.270387
v -0.168733 0.139435 -0.269889
v -0.171104 0.138538 -0.269403
v -0.173417 0.137620 -0.268928
v -0.175669 0.136683 -0.268466
v -0.177856 0.135726 -0.268018
v -0.179973 0.134747 -0.267583
v -0.182016 0.133745 -0.267164
v -0.183981 0.132716 -0.266761
v -0.185861 0.131655 -0.266376
v -0.187652 0.130558 -0.266008
v -0.189347 0.129418 -0.265660
v -0.190940 0.128227 -0.265334
v -0.192425 0.126979 -0.265029
v -0.193797 0.125668 -0.264748
v -0.195049 0.124289 -0.264491
v -0.196178 0.122841 -0.264259
v -0.197182 0.121323 -0.264053
v -0.198057 0.119738 -0.263874
v -0.198801 0.118088 -0.263721
v -0.199416 0.116382 -0.263595
v -0.199899 0.114626 -0.263496
v -0.200252 0.112830 -0.263423
v -0.200478 0.111006 -0.263377
v -0.200578 0.109169 -0.263357
v -0.200316 0.108188 -0.263459
v -0.199695 0.107581 -0.264741
v -0.198661 0.107551 -0.264955
v -0.197539 0.107495 -0.265186
v -0.196355 0.107648 -0.265428
v -0.195109 0.108005 -0.265684
v -0.193798 0.108558 -0.265953
v -0.192420 0.109298 -0.266236
v -0.190973 0.110211 -0.266533
v -0.189451 0.111279 -0.266845
v -0.187850 0.112484 -0.267173
v -0.186165 0.113802 -0.267519
v -0.184387 0.115208 -0.267884
v -0.182513 0.116677 -0.268268
v -0.180534 0.118185 -0.268674
v -0.178448 0.119713 -0.269102
v -0.176248 0.121240 -0.269553
v -0.173932 0.122750 -0.270028
v -0.171495 0.124226 -0.270528
v -0.168937 0.125657 -0.271053
v -0.166254 0.127029 -0.271604
v -0.163445 0.128334 -0.272180
v -0.160510 0.129565 -0.272782
v -0.157448 0.130715 -0.273410
v -0.154261 0.131782 -0.274064
v -0.150949 0.132762 -0.274743
v -0.147514 0.133658 -0.275448
v -0.143960 0.134470 -0.276177
v -0.140288 0.135203 -0.276930
v -0.136502 0.135862 -0.277707
v -0.132603 0.136449 -0.278507
v -0.128585 0.136957 -0.279331
v -0.124436 0.137372 -0.280182
v -0.120140 0.137670 -0.281063
v -0.115674 0.137821 -0.281980
v -0.111009 0.137786 -0.282936
v -0.106112 0.137517 -0.283941
v -0.100941 0.136960 -0.285002
v -0.095453 0.136051 -0.286128
v -0.089594 0.134719 -0.287329
v -0.083309 0.132884 -0.288619
v -0.076533 0.130458 -0.290009
v -0.069198 0.127347 -0.291514
v -0.060305 0.123171 -0.293144
v 0.078884 0.122350 -0.297228
v 0.081572 0.127332 -0.296252
v 0.085192 0.130012 -0.295330
v 0.088751 0.132295 -0.294424
v 0.092256 0.134251 -0.293531
v 0.095716 0.135938 -0.292650
v 0.099137 0.137410 -0.291779
v 0.102526 0.138711 -0.290916
v 0.105887 0.139876 -0.290060
v 0.109223 0.140936 -0.289210
v 0.112537 0.141912 -0.288366
v 0.115830 0.142816 -0.287528
v 0.119101 0.143654 -0.286695
v 0.122351 0.144425 -0.285867
v 0.125578 0.145123 -0.285046
v 0.128780 0.145741 -0.284230
v 0.131955 0.146274 -0.283422
v 0.135102 0.146719 -0.282620
v 0.138220 0.147072 -0.281826
v 0.141307 0.147331 -0.281040
v 0.144362 0.147495 -0.280262
v 0.147384 0.147563 -0.279492
v 0.150372 0.147536 -0.278732
v 0.153324 0.147416 -0.277980
v 0.156240 0.147203 -0.277237
v 0.159118 0.146903 -0.276504
v 0.161958 0.146518 -0.275781
v 0.164758 0.146054 -0.275068
v 0.167518 0.145517 -0.274365
v 0.170237 0.144914 -0.273673
v 0.172915 0.144251 -0.272991
v 0.175550 0.143539 -0.272320
v 0.178141 0.142782 -0.271660
v 0.180688 0.141989 -0.271012
v 0.183187 0.141164 -0.270375
v 0.185638 0.140312 -0.269751
v 0.188038 0.139435 -0.269140
v 0.190383 0.138538 -0.268543
v 0.192672 0.137620 -0.267960
v 0.194900 0.136683 -0.267393
v 0.197063 0.135726 -0.266842
v 0.199157 0.134747 -0.266308
v 0.201179 0.133745 -0.265794
v 0.203122 0.132716 -0.265299
v 0.204982 0.131655 -0.264825
v 0.206754 0.130558 -0.264374
v 0.208431 0.129418 -0.263947
v 0.210007 0.128227 -0.263546
v 0.211476 0.126979 -0.263172
v 0.212832 0.125668 -0.262826
v 0.214071 0.124289 -0.262511
v 0.215188 0.122841 -0.262226
v 0.216181 0.121323 -0.261973
v 0.217047 0.119738 -0.261753
v 0.217783 0.118088 -0.261565
v 0.218391 0.116382 -0.261411
v 0.218869 0.114626 -0.261289
v 0.219219 0.112830 -0.261200
v 0.219442 0.111006 -0.261143
v 0.219541 0.109169 -0.261118
v 0.219284 0.108188 -0.261233
v 0.218724 0.107581 -0.262542
v 0.217701 0.107551 -0.262805
v 0.216591 0.107495 -0.263088
v 0.215420 0.107648 -0.263386
v 0.214187 0.108005 -0.263700
v 0.212890 0.108558 -0.264030
v 0.211528 0.109298 -0.264377
v 0.210095 0.110211 -0.264742
v 0.208590 0.111279 -0.265125
v 0.207006 0.112484 -0.265528
v 0.205339 0.113802 -0.265953
v 0.203581 0.115208 -0.266401
v 0.201726 0.116677 -0.266873
v 0.199769 0.118185 -0.267371
v 0.197705 0.119713 -0.267897
v 0.195529 0.121240 -0.268451
v 0.193237 0.122750 -0.269035
v 0.190827 0.124226 -0.269648
v 0.188296 0.125657 -0.270293
v 0.185642 0.127029 -0.270969
v 0.182863 0.128334 -0.271677
v 0.179960 0.129565 -0.272416
v 0.176931 0.130715 -0.273187
v 0.173778 0.131782 -0.273990
v 0.170502 0.132762 -0.274824
v 0.167104 0.133658 -0.275690
v 0.163588 0.134470 -0.276585
v 0.159955 0.135203 -0.277510
v 0.156210 0.135862 -0.278464
v 0.152353 0.136449 -0.279446
v 0.148378 0.136957 -0.280458
v 0.144274 0.137372 -0.281503
v 0.140024 0.137670 -0.282586
v 0.135606 0.137821 -0.283711
v 0.130991 0.137786 -0.284886
v 0.126146 0.137517 -0.286119
v 0.121032 0.136960 -0.287422
v 0.115602 0.136051 -0.288805
v 0.109806 0.134719 -0.290280
v 0.103588 0.132884 -0.291864
v 0.096885 0.130458 -0.293571
v 0.089629 0.127347 -0.295419
v 0.080823 0.123171 -0.297465
v 0.076993 0.122350 -0.289801
v 0.079681 0.127332 -0.288825
v 0.083301 0.130012 -0.287904
v 0.086859 0.132295 -0.286997
v 0.090365 0.134251 -0.286105
v 0.093825 0.135938 -0.285224
v 0.097246 0.137410 -0.284352
v 0.100635 0.138711 -0.283489
v 0.103996 0.139876 -0.282634
v 0.107332 0.140936 -0.281784
v 0.110646 0.141912 -0.280940
v 0.113938 0.142816 -0.280102
v 0.117210 0.143654 -0.279269
v 0.120460 0.144425 -0.278441
v 0.123687 0.145123 -0.277619
v 0.126889 0.145741 -0.276804
v 0.130064 0.146274 -0.275995
v 0.133211 0.146719 -0.275194
v 0.136329 0.147072 -0.274400
v 0.139416 0.147331 -0.273614
v 0.142471 0.147495 -0.272836
v 0.145493 0.147563 -0.272066
v 0.148481 0.147536 -0.271306
v 0.151433 0.147416 -0.270554
v 0.154349 0.147203 -0.269811
v 0.157227 0.146903 -0.269078
v 0.160067 0.146518 -0.268355
v 0.162867 0.146054 -0.267642
v 0.165627 0.145517 -0.266939
v 0.168346 0.144914 -0.266247
v 0.171024 0.144251 -0.265565
v 0.173659 0.143539 -0.264894
v 0.176250 0.142782 -0.264234
v 0.178797 0.141989 -0.263586
v 0.181296 0.141164 -0.262949
v 0.183747 0.140312 -0.262325
v 0.186147 0.139435 -0.261714
v 0.188492 0.138538 -0.261117
v 0.190781 0.137620 -0.260534
v 0.193008 0.136683 -0.259967
v 0.195172 0.135726 -0.259416
v 0.197266 0.134747 -0.258882
v 0.199287 0.133745 -0.258368
v 0.201231 0.132716 -0.257873
v 0.203091 0.131655 -0.257399
v 0.204863 0.130558 -0.256948
v 0.206540 0.129418 -0.256521
v 0.208116 0.128227 -0.256119
v 0.209585 0.126979 -0.255745
v 0.210941 0.125668 -0.255400
v 0.212180 0.124289 -0.255085
v 0.213297 0.122841 -0.254800
v 0.214290 0.121323 -0.254547
v 0.215155 0.119738 -0.254327
v 0.215892 0.118088 -0.254139
v 0.216500 0.116382 -0.253985
v 0.216978 0.114626 -0.253863
v 0.217328 0.112830 -0.253774
v 0.217551 0.111006 -0.253717
v 0.217650 0.109169 -0.253692
v 0.217393 0.108188 -0.253807
v 0.216833 0.107581 -0.255116
v 0.215810 0.107551 -0.255379
v 0.214700 0.107495 -0.255661
v 0.213529 0.107648 -0.255960
v 0.212296 0.108005 -0.256274
v 0.210999 0.108558 -0.256604
v 0.209636 0.109298 -0.256951
v 0.208204 0.110211 -0.257316
v 0.206699 0.111279 -0.257699
v 0.205115 0.112484 -0.258102
v 0.203448 0.113802 -0.258527
v 0.201690 0.115208 -0.258975
v 0.199835 0.116677 -0.259447
v 0.197878 0.118185 -0.259945
v 0.195814 0.119713 -0.260471
v 0.193638 0.121240 -0.261025
v 0.191346 0.122750 -0.261609
v 0.188936 0.124226 -0.262222
v 0.186405 0.125657 -0.262867
v 0.183751 0.127029 -0.263543
v 0.180972 0.128334 -0.264250
v 0.178069 0.129565 -0.264990
v 0.175040 0.130715 -0.265761
v 0.171887 0.131782 -0.266564
v 0.168611 0.132762 -0.267398
v 0.165213 0.133658 -0.268263
v 0.161697 0.134470 -0.269159
v 0.158064 0.135203 -0.270084
v 0.154319 0.135862 -0.271038
v 0.150462 0.136449 -0.272020
v 0.146487 0.136957 -0.273032
v 0.142383 0.137372 -0.274077
v 0.138133 0.137670 -0.275160
v 0.133715 0.137821 -0.276285
v 0.129100 0.137786 -0.277460
v 0.124255 0.137517 -0.278693
v 0.119141 0.136960 -0.279996
v 0.113711 0.136051 -0.281378
v 0.107915 0.134719 -0.282854
v 0.101697 0.132884 -0.284438
v 0.094994 0.130458 -0.286145
v 0.087738 0.127347 -0.287992
v 0.078932 0.123171 -0.290039
vn 0.9426 0.2720 -0.1934
vn -0.2882 -0.9557 0.0591
vn 0.3758 0.9235 -0.0771
vn -0.2688 -0.9616 0.0551
vn 0.4108 0.9078 -0.0843
vn -0.2519 -0.9664 0.0517
vn -0.2360 -0.9706 0.0484
vn -0.2195 -0.9746 0.0450
vn -0.2010 -0.9787 0.0412
vn -0.1801 -0.9830 0.0370
vn -0.1573 -0.9870 0.0323
vn -0.1330 -0.9907 0.0273
vn -0.1068 -0.9940 0.0219
vn -0.0794 -0.9967 0.0163
vn -0.0509 -0.9986 0.0104
vn 0.0279 0.9996 -0.0058
vn -0.0213 -0.9998 0.0044
vn 0.0479 0.9988 -0.0099
vn 0.0086 -1.0000 -0.0018
vn -0.1231 0.9921 0.0252
vn 0.0391 -0.9992 -0.0081
vn -0.2647 0.9628 0.0544
vn 0.0692 -0.9975 -0.0142
vn -0.3741 0.9242 0.0767
vn 0.0991 -0.9949 -0.0200
vn -0.4561 0.8850 0.0936
vn 0.1276 -0.9915 -0.0262
vn -0.5148 0.8508 0.1056
vn 0.1553 -0.9874 -0.0318
vn -0.5549 0.8241 0.1139
vn 0.1815 -0.9827 -0.0373
vn -0.5810 0.8051 0.1191
vn 0.2058 -0.9777 -0.0422
vn -0.5958 0.7938 0.1222
vn 0.2286 -0.9724 -0.0469
vn -0.5999 0.7905 0.1231
vn 0.2485 -0.9673 -0.0510
vn -0.5966 0.7932 0.1224
vn 0.2668 -0.9622 -0.0547
vn -0.5860 0.8014 0.1202
vn 0.2830 -0.9574 -0.0581
vn -0.5711 0.8125 0.1172
vn 0.2984 -0.9525 -0.0612
vn -0.5508 0.8269 0.1130
vn 0.3128 -0.9477 -0.0642
vn -0.5269 0.8430 0.1081
vn 0.3270 -0.9427 -0.0670
vn -0.4998 0.8600 0.1026
vn 0.3408 -0.9375 -0.0699
vn -0.4704 0.8772 0.0965
vn 0.3550 -0.9320 -0.0728
vn -0.4387 0.8941 0.0900
vn 0.3697 -0.9260 -0.0759
vn -0.4058 0.9102 0.0832
vn 0.3860 -0.9191 -0.0792
vn -0.3723 0.9250 0.0764
vn 0.4042 -0.9109 -0.0829
vn -0.3382 0.9385 0.0694
vn 0.4243 -0.9014 -0.0870
vn -0.3053 0.9502 0.0626
vn 0.4474 -0.8896 -0.0919
vn -0.2727 0.9605 0.0559
vn 0.4739 -0.8752 -0.0972
vn -0.2420 0.9690 0.0497
vn 0.5040 -0.8575 -0.1034
vn -0.2139 0.9759 0.0439
vn 0.5389 -0.8351 -0.1105
vn -0.1880 0.9814 0.0386
vn 0.5784 -0.8071 -0.1187
vn -0.1647 0.9858 0.0338
vn 0.6226 -0.7721 -0.1277
vn -0.1429 0.9893 0.0293
vn 0.6698 -0.7297 -0.1374
vn -0.1204 0.9924 0.0247
vn 0.7185 -0.6798 -0.1473
vn -0.0955 0.9952 0.0196
vn 0.7665 -0.6228 -0.1572
vn -0.0664 0.9977 0.0136
vn 0.8121 -0.5593 -0.1666
vn -0.8507 -0.4959 0.1745
vn -0.0324 0.9995 0.0067
vn 0.8536 -0.4906 -0.1752
vn -0.5710 -0.8126 0.1171
vn 0.0072 1.0000 -0.0015
vn 0.8898 -0.4182 -0.1826
vn -0.5172 -0.8492 0.1061
vn 0.0526 0.9986 -0.0108
vn 0.9195 -0.3450 -0.1886
vn -0.4660 -0.8796 0.0956
vn 0.1028 0.9945 -0.0211
vn 0.9431 -0.2703 -0.1934
vn -0.4185 -0.9042 0.0858
vn 0.1569 0.9871 -0.0322
vn 0.9605 -0.1968 -0.1970
vn -0.3769 -0.9230 0.0774
vn 0.2130 0.9761 -0.0437
vn 0.9719 -0.1254 -0.1993
vn -0.3411 -0.9374 0.0699
vn 0.2694 0.9615 -0.0553
vn 0.9781 -0.0554 -0.2007
vn -0.3120 -0.9479 0.0640
vn 0.3238 0.9438 -0.0665
vn 0.4024 0.9117 -0.0826
vn 0.5623 0.8189 -0.1153
vn 0.2398 -0.1673 0.9563
vn -0.2398 0.1673 -0.9563
vn -0.9325 0.2722 -0.2375
vn 0.2852 -0.9557 0.0726
vn -0.3718 0.9235 -0.0947
vn 0.2659 -0.9616 0.0678
vn -0.4065 0.9078 -0.1035
vn 0.2491 -0.9664 0.0635
vn 0.2335 -0.9705 0.0595
vn 0.2171 -0.9746 0.0553
vn 0.1988 -0.9787 0.0506
vn 0.1781 -0.9830 0.0453
vn 0.1560 -0.9870 0.0399
vn 0.1316 -0.9907 0.0335
vn 0.1057 -0.9940 0.0269
vn 0.0785 -0.9967 0.0200
vn 0.0504 -0.9986 0.0129
vn -0.0275 0.9996 -0.0070
vn 0.0211 -0.9998 0.0054
vn -0.0477 0.9988 -0.0123
vn -0.0085 -1.0000 -0.0022
vn 0.1218 0.9921 0.0310
vn -0.0382 -0.9992 -0.0097
vn 0.2615 0.9629 0.0664
vn -0.0684 -0.9975 -0.0174
vn 0.3701 0.9242 0.0942
vn -0.0974 -0.9949 -0.0248
vn 0.4514 0.8849 0.1150
vn -0.1262 -0.9915 -0.0322
vn 0.5091 0.8509 0.1297
vn -0.1536 -0.9874 -0.0391
vn 0.5491 0.8240 0.1398
vn -0.1796 -0.9827 -0.0457
vn 0.5751 0.8049 0.1464
vn -0.2036 -0.9777 -0.0519
vn 0.5893 0.7938 0.1501
vn -0.2261 -0.9724 -0.0576
vn 0.5937 0.7904 0.1512
vn -0.2460 -0.9672 -0.0627
vn 0.5900 0.7933 0.1503
vn -0.2640 -0.9622 -0.0672
vn 0.5798 0.8012 0.1476
vn -0.2799 -0.9574 -0.0713
vn 0.5649 0.8126 0.1438
vn -0.2953 -0.9524 -0.0752
vn 0.5450 0.8269 0.1388
vn -0.3094 -0.9477 -0.0788
vn 0.5215 0.8429 0.1328
vn -0.3234 -0.9427 -0.0824
vn 0.4946 0.8599 0.1260
vn -0.3369 -0.9376 -0.0858
vn 0.4656 0.8770 0.1186
vn -0.3511 -0.9321 -0.0894
vn 0.4340 0.8941 0.1105
vn -0.3657 -0.9260 -0.0932
vn 0.4014 0.9102 0.1022
vn -0.3819 -0.9191 -0.0972
vn 0.3683 0.9249 0.0938
vn -0.3999 -0.9109 -0.1018
vn 0.3346 0.9385 0.0852
vn -0.4196 -0.9014 -0.1069
vn 0.3020 0.9502 0.0769
vn -0.4425 -0.8897 -0.1127
vn 0.2698 0.9605 0.0687
vn -0.4688 -0.8752 -0.1194
vn 0.2399 0.9689 0.0611
vn -0.4985 -0.8575 -0.1270
vn 0.2116 0.9759 0.0539
vn -0.5331 -0.8351 -0.1357
vn 0.1860 0.9814 0.0474
vn -0.5723 -0.8070 -0.1457
vn 0.1629 0.9858 0.0415
vn -0.6160 -0.7720 -0.1568
vn 0.1414 0.9893 0.0360
vn -0.6625 -0.7298 -0.1687
vn 0.1191 0.9924 0.0303
vn -0.7107 -0.6799 -0.1810
vn 0.0945 0.9952 0.0241
vn -0.7582 -0.6228 -0.1931
vn 0.0657 0.9977 0.0167
vn -0.8032 -0.5595 -0.2045
vn 0.8415 -0.4960 0.2142
vn 0.0321 0.9995 0.0082
vn -0.8441 -0.4911 -0.2151
vn 0.5649 -0.8125 0.1439
vn -0.0071 1.0000 -0.0018
vn -0.8801 -0.4185 -0.2241
vn 0.5121 -0.8490 0.1303
vn -0.0521 0.9986 -0.0133
vn -0.9096 -0.3451 -0.2316
vn 0.4610 -0.8796 0.1174
vn -0.1017 0.9945 -0.0259
vn -0.9330 -0.2705 -0.2375
vn 0.4144 -0.9039 0.1056
vn -0.1552 0.9871 -0.0396
vn -0.9501 -0.1971 -0.2419
vn 0.3730 -0.9230 0.0949
vn -0.2107 0.9761 -0.0536
vn -0.9615 -0.1252 -0.2448
vn 0.3379 -0.9373 0.0860
vn -0.2665 0.9615 -0.0679
vn -0.9676 -0.0555 -0.2464
vn 0.3086 -0.9479 0.0786
vn -0.3207 0.9436 -0.0817
vn -0.3981 0.9117 -0.1014
vn -0.5561 0.8190 -0.1416
vn -0.2844 -0.1673 0.9440
vn 0.2845 0.1674 -0.9439
vn 0.9427 0.2719 -0.1934
vn 0.3759 0.9235 -0.0771
vn -0.2688 -0.9616 0.0552
vn -0.2360 -0.9705 0.0484
vn 0.0282 0.9996 -0.0058
vn 0.0479 0.9988 -0.0097
vn 0.0386 -0.9992 -0.0079
vn -0.2647 0.9628 0.0543
vn 0.0984 -0.9949 -0.0202
vn -0.4560 0.8850 0.0935
vn 0.1277 -0.9915 -0.0262
vn -0.5150 0.8506 0.1057
vn 0.1553 -0.9874 -0.0319
vn -0.5549 0.8241 0.1138
vn 0.1815 -0.9827 -0.0372
vn -0.5813 0.8049 0.1192
vn 0.2285 -0.9724 -0.0469
vn 0.2486 -0.9673 -0.0509
vn -0.5966 0.7931 0.1224
vn -0.5273 0.8428 0.1082
vn 0.3270 -0.9427 -0.0671
vn -0.4998 0.8600 0.1025
vn 0.3404 -0.9377 -0.0698
vn -0.4705 0.8771 0.0965
vn -0.4388 0.8941 0.0900
vn -0.4058 0.9102 0.0833
vn -0.3387 0.9383 0.0694
vn 0.4243 -0.9013 -0.0870
vn 0.4471 -0.8898 -0.0917
vn -0.2727 0.9605 0.0560
vn 0.4740 -0.8752 -0.0972
vn -0.2425 0.9689 0.0498
vn 0.5389 -0.8351 -0.1106
vn 0.5782 -0.8072 -0.1187
vn 0.6226 -0.7720 -0.1277
vn 0.6694 -0.7301 -0.1373
vn 0.7185 -0.6798 -0.1474
vn 0.7664 -0.6228 -0.1572
vn 0.8119 -0.5596 -0.1666
vn -0.0324 0.9995 0.0066
vn 0.8537 -0.4904 -0.1751
vn 0.0072 1.0000 -0.0014
vn 0.9195 -0.3448 -0.1886
vn 0.9431 -0.2703 -0.1935
vn -0.4185 -0.9042 0.0859
vn 0.9604 -0.1968 -0.1970
vn -0.3769 -0.9230 0.0773
vn 0.2129 0.9761 -0.0437
vn 0.9719 -0.1254 -0.1994
vn -0.3416 -0.9372 0.0701
vn 0.2694 0.9614 -0.0553
vn 0.9781 -0.0555 -0.2006
vn 0.3242 0.9436 -0.0665
vn 0.4028 0.9115 -0.0827
vn 0.5623 0.8189 -0.1154
vn -0.2871 -0.3117 0.9058
vn 0.2008 -0.0001 0.9796
vn 0.2008 -0.0002 0.9796
vn 0.2008 0.0004 0.9796
vn 0.2014 -0.0009 0.9795
vn 0.2016 -0.0008 0.9795
vn 0.2010 -0.0002 0.9796
vn 0.2004 0.0005 0.9797
vn 0.1996 0.0003 0.9799
vn 0.1997 -0.0000 0.9799
vn 0.2011 -0.0002 0.9796
vn 0.2022 0.0005 0.9793
vn 0.2022 -0.0006 0.9793
vn 0.2016 0.0004 0.9795
vn 0.2020 -0.0007 0.9794
vn 0.2001 0.0008 0.9798
vn 0.2003 0.0001 0.9797
vn 0.2017 0.0011 0.9794
vn 0.2017 0.0011 0.9795
vn 0.2011 0.0012 0.9796
vn 0.1971 0.0008 0.9804
vn 0.1996 0.0013 0.9799
vn 0.1999 0.0004 0.9798
vn 0.2000 0.0002 0.9798
vn 0.2007 0.0002 0.9796
vn 0.2010 0.0001 0.9796
vn 0.2015 -0.0005 0.9795
vn 0.2016 -0.0005 0.9795
vn 0.2007 -0.0001 0.9796
vn 0.2017 -0.0002 0.9794
vn 0.2015 -0.0002 0.9795
vn 0.2005 0.0001 0.9797
vn 0.9153 0.2087 0.3445
vn 0.2013 -0.0003 0.9795
vn 0.1448 -0.6034 0.7842
vn 0.2010 -0.0000 0.9796
vn 0.2008 -0.0000 0.9796
vn 0.2009 -0.0000 0.9796
vn 0.2013 -0.0001 0.9795
vn 0.2009 -0.0001 0.9796
vn 0.2007 -0.0001 0.9797
vn 0.2007 0.0003 0.9797
vn 0.2007 -0.0002 0.9797
vn 0.2011 -0.0001 0.9796
vn 0.2014 -0.0001 0.9795
vn 0.2009 -0.0002 0.9796
vn 0.2008 0.0002 0.9796
vn 0.2010 0.0003 0.9796
vn 0.0130 -0.2698 0.9628
vn 0.0768 -0.2165 0.9733
vn 0.2011 0.0004 0.9796
vn 0.2007 0.0001 0.9797
vn 0.2011 -0.0003 0.9796
vn 0.2006 0.0001 0.9797
vn 0.1882 -0.5685 0.8008
vn 0.2021 -0.0007 0.9794
vn 0.2119 -0.0075 0.9773
vn 0.2001 0.0004 0.9798
vn 0.4175 -0.0745 0.9056
vn 0.2010 -0.0001 0.9796
vn 0.1053 -0.2205 0.9697
vn 0.1102 -0.2441 0.9635
vn 0.2355 -0.0773 0.9688
vn 0.1999 0.0015 0.9798
vn 0.2516 -0.0700 0.9653
vn 0.1051 -0.3128 0.9440
vn 0.0922 -0.3416 0.9353
vn 0.2516 -0.0702 0.9653
vn 0.2509 -0.0722 0.9653
vn 0.1486 -0.2168 0.9648
vn 0.1715 -0.1679 0.9708
vn 0.2504 -0.0756 0.9652
vn 0.2499 -0.0798 0.9650
vn 0.1840 -0.1436 0.9724
vn 0.1924 -0.1306 0.9726
vn 0.2498 -0.0857 0.9645
vn 0.2500 -0.0933 0.9637
vn 0.1985 -0.1238 0.9723
vn 0.2034 -0.1207 0.9716
vn 0.2508 -0.1044 0.9624
vn 0.2523 -0.1192 0.9603
vn 0.2074 -0.1200 0.9709
vn 0.2111 -0.1210 0.9700
vn 0.2638 -0.2163 0.9400
vn 0.3938 -0.5976 0.6984
vn 0.2145 -0.1234 0.9689
vn 0.2174 -0.1264 0.9679
vn 0.3111 -0.3439 0.8860
vn 0.2727 -0.2448 0.9304
vn 0.2212 -0.1317 0.9663
vn 0.2254 -0.1386 0.9643
vn 0.2522 -0.1952 0.9478
vn 0.2314 -0.1499 0.9612
vn 0.2873 0.3118 -0.9057
vn -0.0535 0.2622 -0.9635
vn -0.2013 -0.0003 -0.9795
vn -0.2003 0.0003 -0.9797
vn -0.2008 0.0001 -0.9796
vn -0.2016 -0.0007 -0.9795
vn -0.2006 0.0012 -0.9797
vn -0.2021 0.0015 -0.9794
vn -0.2004 -0.0006 -0.9797
vn -0.1996 -0.0003 -0.9799
vn -0.1990 0.0004 -0.9800
vn -0.2011 0.0014 -0.9796
vn -0.2022 0.0001 -0.9793
vn -0.2021 -0.0006 -0.9794
vn -0.2020 0.0003 -0.9794
vn -0.2015 0.0001 -0.9795
vn -0.2035 -0.0007 -0.9791
vn -0.2017 -0.0011 -0.9794
vn -0.2000 -0.0018 -0.9798
vn -0.1982 -0.0000 -0.9802
vn -0.2015 -0.0008 -0.9795
vn -0.2008 -0.0004 -0.9796
vn -0.2001 -0.0011 -0.9798
vn -0.2006 -0.0002 -0.9797
vn -0.2005 0.0005 -0.9797
vn -0.2008 -0.0003 -0.9796
vn -0.2008 -0.0000 -0.9796
vn -0.2018 0.0002 -0.9794
vn -0.2005 -0.0001 -0.9797
vn -0.2006 -0.0000 -0.9797
vn -0.9152 -0.2086 -0.3448
vn -0.2011 -0.0000 -0.9796
vn -0.1446 0.6036 -0.7840
vn -0.2012 -0.0000 -0.9795
vn -0.2008 -0.0001 -0.9796
vn -0.2009 -0.0000 -0.9796
vn -0.2010 0.0001 -0.9796
vn -0.2007 -0.0001 -0.9797
vn -0.2012 0.0001 -0.9796
vn -0.2007 0.0001 -0.9797
vn -0.2009 -0.0001 -0.9796
vn -0.2012 -0.0001 -0.9796
vn -0.2007 -0.0002 -0.9796
vn -0.2010 -0.0003 -0.9796
vn -0.0542 0.2134 -0.9755
vn -0.1053 0.2207 -0.9696
vn -0.2011 -0.0004 -0.9796
vn -0.2010 -0.0002 -0.9796
vn -0.2006 -0.0004 -0.9797
vn -0.1882 0.5682 -0.8011
vn -0.2011 0.0003 -0.9796
vn -0.2013 0.0003 -0.9795
vn -0.2020 -0.0005 -0.9794
vn -0.2010 -0.0012 -0.9796
vn -0.2007 0.0002 -0.9797
vn -0.4177 0.0746 -0.9055
vn -0.2010 -0.0000 -0.9796
vn -0.1102 0.2441 -0.9635
vn -0.1059 0.3031 -0.9471
vn -0.2357 0.0773 -0.9687
vn -0.2007 -0.0000 -0.9797
vn -0.2007 -0.0000 -0.9796
vn -0.2516 0.0701 -0.9653
vn -0.1037 0.3171 -0.9427
vn -0.1484 0.2173 -0.9647
vn -0.2516 0.0702 -0.9653
vn -0.2509 0.0722 -0.9653
vn -0.1714 0.1679 -0.9708
vn -0.1840 0.1436 -0.9724
vn -0.2503 0.0756 -0.9652
vn -0.2499 0.0798 -0.9650
vn -0.1925 0.1306 -0.9726
vn -0.1983 0.1240 -0.9723
vn -0.2498 0.0857 -0.9645
vn -0.2500 0.0933 -0.9637
vn -0.2036 0.1206 -0.9716
vn -0.2074 0.1199 -0.9709
vn -0.2508 0.1046 -0.9624
vn -0.2523 0.1189 -0.9603
vn -0.2111 0.1210 -0.9700
vn -0.2143 0.1232 -0.9690
vn -0.2638 0.2163 -0.9400
vn -0.3935 0.5977 -0.6985
vn -0.2176 0.1267 -0.9678
vn -0.2212 0.1317 -0.9663
vn -0.3111 0.3439 -0.8860
vn -0.2727 0.2444 -0.9305
vn -0.2254 0.1386 -0.9644
vn -0.2314 0.1499 -0.9612
vn -0.2522 0.1953 -0.9478
vn -0.9325 0.2722 -0.2374
vn 0.2659 -0.9616 0.0677
vn -0.4064 0.9078 -0.1035
vn 0.2492 -0.9664 0.0635
vn 0.2334 -0.9706 0.0594
vn 0.1782 -0.9830 0.0454
vn 0.1556 -0.9870 0.0396
vn 0.0504 -0.9986 0.0128
vn -0.0276 0.9996 -0.0071
vn -0.0474 0.9988 -0.0121
vn -0.0085 -1.0000 -0.0021
vn -0.0386 -0.9992 -0.0098
vn 0.2614 0.9629 0.0666
vn 0.4512 0.8850 0.1149
vn 0.5089 0.8510 0.1297
vn -0.1536 -0.9874 -0.0392
vn 0.5750 0.8049 0.1464
vn -0.2036 -0.9777 -0.0518
vn 0.5894 0.7938 0.1501
vn -0.2258 -0.9725 -0.0575
vn 0.5936 0.7904 0.1511
vn -0.2459 -0.9673 -0.0626
vn 0.5900 0.7933 0.1502
vn 0.5798 0.8012 0.1477
vn 0.5648 0.8126 0.1439
vn 0.5450 0.8269 0.1387
vn -0.3235 -0.9427 -0.0824
vn -0.3368 -0.9376 -0.0858
vn 0.4656 0.8770 0.1185
vn -0.3510 -0.9321 -0.0894
vn -0.3659 -0.9260 -0.0932
vn -0.3817 -0.9191 -0.0973
vn 0.3683 0.9250 0.0938
vn -0.4193 -0.9015 -0.1069
vn 0.3020 0.9502 0.0768
vn -0.4423 -0.8898 -0.1126
vn 0.2701 0.9604 0.0687
vn -0.4989 -0.8573 -0.1270
vn 0.1865 0.9813 0.0476
vn -0.5725 -0.8068 -0.1458
vn 0.1634 0.9857 0.0415
vn -0.6159 -0.7720 -0.1568
vn -0.6626 -0.7297 -0.1687
vn 0.0945 0.9952 0.0240
vn 0.8415 -0.4960 0.2143
vn -0.8444 -0.4907 -0.2150
vn 0.5645 -0.8128 0.1438
vn -0.8801 -0.4186 -0.2241
vn 0.5117 -0.8492 0.1304
vn 0.4609 -0.8797 0.1174
vn -0.9330 -0.2705 -0.2376
vn 0.4140 -0.9041 0.1054
vn -0.1552 0.9871 -0.0395
vn 0.3729 -0.9230 0.0950
vn -0.9614 -0.1255 -0.2447
vn 0.3379 -0.9372 0.0860
vn -0.2664 0.9615 -0.0679
vn -0.3984 0.9116 -0.1015
vn -0.5564 0.8188 -0.1417
vn 0.2442 -0.3117 0.9183
vn -0.0988 -0.2621 0.9600
vn -0.2470 0.0001 0.9690
vn -0.2467 -0.0002 0.9691
vn -0.2467 0.0005 0.9691
vn -0.2475 -0.0011 0.9689
vn -0.2474 -0.0008 0.9689
vn -0.2468 -0.0001 0.9691
vn -0.2462 0.0006 0.9692
vn -0.2454 0.0003 0.9694
vn -0.2456 -0.0001 0.9694
vn -0.2469 -0.0002 0.9690
vn -0.2480 0.0005 0.9688
vn -0.2464 -0.0006 0.9692
vn -0.2474 0.0005 0.9689
vn -0.2478 -0.0007 0.9688
vn -0.2460 0.0008 0.9693
vn -0.2461 0.0001 0.9692
vn -0.2465 0.0011 0.9691
vn -0.2470 0.0012 0.9690
vn -0.2431 0.0008 0.9700
vn -0.2454 0.0013 0.9694
vn -0.2466 0.0004 0.9691
vn -0.2458 0.0002 0.9693
vn -0.2469 0.0004 0.9690
vn -0.2468 0.0001 0.9691
vn -0.2473 -0.0005 0.9689
vn -0.2466 -0.0001 0.9691
vn -0.2477 -0.0002 0.9688
vn -0.2473 -0.0002 0.9689
vn -0.2464 0.0001 0.9692
vn -0.9304 0.2084 0.3015
vn -0.2472 -0.0003 0.9690
vn -0.1817 -0.6034 0.7765
vn -0.2464 -0.0000 0.9692
vn -0.2465 -0.0000 0.9691
vn -0.2467 -0.0000 0.9691
vn -0.2469 0.0001 0.9690
vn -0.2467 -0.0001 0.9691
vn -0.2466 -0.0002 0.9691
vn -0.2470 0.0003 0.9690
vn -0.2465 -0.0002 0.9691
vn -0.2469 -0.0001 0.9690
vn -0.2469 -0.0005 0.9691
vn -0.2466 0.0001 0.9691
vn -0.1001 -0.2132 0.9719
vn -0.1509 -0.2205 0.9636
vn -0.2468 -0.0000 0.9691
vn -0.2467 0.0002 0.9691
vn -0.2468 0.0003 0.9691
vn -0.2466 -0.0003 0.9691
vn -0.2257 -0.5684 0.7912
vn -0.2469 -0.0003 0.9690
vn -0.2467 -0.0005 0.9691
vn -0.2479 -0.0007 0.9688
vn -0.2537 -0.0075 0.9673
vn -0.4595 -0.0746 0.8850
vn -0.2470 -0.0003 0.9690
vn -0.1555 -0.2439 0.9572
vn -0.1504 -0.3029 0.9411
vn -0.2808 -0.0773 0.9566
vn -0.2465 0.0015 0.9691
vn -0.2967 -0.0701 0.9524
vn -0.1479 -0.3170 0.9368
vn -0.1937 -0.2172 0.9567
vn -0.2966 -0.0703 0.9524
vn -0.2961 -0.0720 0.9525
vn -0.2169 -0.1679 0.9617
vn -0.2295 -0.1437 0.9626
vn -0.2954 -0.0755 0.9524
vn -0.2950 -0.0795 0.9522
vn -0.2377 -0.1310 0.9625
vn -0.2439 -0.1239 0.9618
vn -0.2949 -0.0862 0.9516
vn -0.2950 -0.0932 0.9510
vn -0.2488 -0.1207 0.9610
vn -0.2531 -0.1200 0.9600
vn -0.2958 -0.1043 0.9496
vn -0.2972 -0.1189 0.9474
vn -0.2564 -0.1210 0.9590
vn -0.2596 -0.1232 0.9578
vn -0.3077 -0.2163 0.9266
vn -0.4262 -0.5977 0.6791
vn -0.2628 -0.1267 0.9565
vn -0.2664 -0.1317 0.9548
vn -0.3524 -0.3439 0.8704
vn -0.3163 -0.2451 0.9165
vn -0.2705 -0.1387 0.9527
vn -0.2763 -0.1497 0.9493
vn -0.2965 -0.1953 0.9349
vn -0.2443 0.3118 -0.9182
vn 0.2470 -0.0002 -0.9690
vn 0.2464 0.0003 -0.9692
vn 0.2466 0.0001 -0.9691
vn 0.2474 -0.0007 -0.9689
vn 0.2464 0.0012 -0.9692
vn 0.2479 0.0016 -0.9688
vn 0.2471 -0.0006 -0.9690
vn 0.2454 -0.0002 -0.9694
vn 0.2449 0.0004 -0.9695
vn 0.2469 0.0014 -0.9690
vn 0.2472 0.0001 -0.9690
vn 0.2480 -0.0006 -0.9688
vn 0.2478 0.0003 -0.9688
vn 0.2475 0.0005 -0.9689
vn 0.2469 -0.0007 -0.9690
vn 0.2475 -0.0011 -0.9689
vn 0.2459 -0.0018 -0.9693
vn 0.2441 0.0001 -0.9697
vn 0.2473 -0.0008 -0.9689
vn 0.2467 -0.0004 -0.9691
vn 0.2458 -0.0011 -0.9693
vn 0.2463 -0.0002 -0.9692
vn 0.2464 0.0004 -0.9692
vn 0.2466 -0.0003 -0.9691
vn 0.2466 -0.0000 -0.9691
vn 0.2476 0.0002 -0.9689
vn 0.2464 -0.0001 -0.9692
vn 0.2465 -0.0000 -0.9691
vn 0.9304 -0.2084 -0.3015
vn 0.2469 -0.0000 -0.9690
vn 0.1820 0.6029 -0.7768
vn 0.2470 -0.0000 -0.9690
vn 0.2468 -0.0000 -0.9691
vn 0.2468 0.0001 -0.9691
vn 0.2465 -0.0001 -0.9691
vn 0.2467 0.0001 -0.9691
vn 0.2462 0.0001 -0.9692
vn 0.2467 -0.0000 -0.9691
vn 0.2469 -0.0001 -0.9690
vn 0.2470 0.0001 -0.9690
vn 0.2467 -0.0001 -0.9691
vn 0.2469 -0.0002 -0.9690
vn 0.0583 0.2697 -0.9612
vn 0.1225 0.2165 -0.9686
vn 0.2467 0.0002 -0.9691
vn 0.2467 -0.0003 -0.9691
vn 0.2470 0.0002 -0.9690
vn 0.2257 0.5684 -0.7912
vn 0.2469 0.0003 -0.9690
vn 0.2471 0.0003 -0.9690
vn 0.2478 -0.0005 -0.9688
vn 0.2466 -0.0012 -0.9691
vn 0.2466 0.0002 -0.9691
vn 0.4595 0.0746 -0.8850
vn 0.2468 0.0004 -0.9691
vn 0.1507 0.2206 -0.9637
vn 0.1554 0.2442 -0.9572
vn 0.2808 0.0773 -0.9566
vn 0.2465 0.0001 -0.9691
vn 0.2967 0.0701 -0.9524
vn 0.1494 0.3129 -0.9380
vn 0.1361 0.3415 -0.9300
vn 0.2966 0.0700 -0.9524
vn 0.2960 0.0725 -0.9524
vn 0.1937 0.2168 -0.9568
vn 0.2166 0.1684 -0.9616
vn 0.2954 0.0754 -0.9524
vn 0.2950 0.0796 -0.9522
vn 0.2295 0.1437 -0.9626
vn 0.2380 0.1306 -0.9624
vn 0.2949 0.0862 -0.9516
vn 0.2950 0.0932 -0.9509
vn 0.2439 0.1239 -0.9618
vn 0.2488 0.1207 -0.9610
vn 0.2958 0.1043 -0.9495
vn 0.2972 0.1196 -0.9473
vn 0.2530 0.1200 -0.9600
vn 0.2564 0.1210 -0.9590
vn 0.3076 0.2162 -0.9266
vn 0.4262 0.5977 -0.6791
vn 0.2596 0.1232 -0.9578
vn 0.2628 0.1267 -0.9565
vn 0.3524 0.3439 -0.8704
vn 0.3160 0.2446 -0.9167
vn 0.2664 0.1317 -0.9548
vn 0.2705 0.1387 -0.9527
vn 0.2964 0.1949 -0.9350
vn 0.2764 0.1499 -0.9493
vt 0.031820 0.759102
vt 0.063640 0.766723
vt 0.031820 0.766723
vt 0.968180 0.457845
vt 0.936360 0.443521
vt 0.968180 0.443521
vt 0.872720 0.565109
vt 0.904540 0.534019
vt 0.904540 0.565109
vt 0.968180 0.429296
vt 0.936360 0.429296
vt 0.872720 0.598884
vt 0.904540 0.598884
vt 0.936360 0.415162
vt 0.968180 0.415162
vt 0.968180 0.401120
vt 0.936360 0.401120
vt 0.936360 0.387174
vt 0.968180 0.387174
vt 0.936360 0.373329
vt 0.968180 0.373329
vt 0.968180 0.359593
vt 0.936360 0.359593
vt 0.936360 0.345974
vt 0.968180 0.345974
vt 0.968180 0.332477
vt 0.936360 0.332477
vt 0.936360 0.319107
vt 0.968180 0.319107
vt 0.936360 0.305872
vt 0.968180 0.305872
vt 0.968180 0.292776
vt 0.936360 0.292776
vt 0.872720 0.011845
vt 0.904540 0.016338
vt 0.872720 0.016338
vt 0.936360 0.279826
vt 0.968180 0.279826
vt 0.904540 0.021093
vt 0.872720 0.021093
vt 0.936360 0.267025
vt 0.968180 0.267025
vt 0.872720 0.026112
vt 0.904540 0.026112
vt 0.968180 0.254379
vt 0.936360 0.254379
vt 0.904540 0.031396
vt 0.872720 0.031396
vt 0.968180 0.241891
vt 0.936360 0.241891
vt 0.872720 0.036953
vt 0.904540 0.036953
vt 0.968180 0.229568
vt 0.936360 0.229568
vt 0.904540 0.042791
vt 0.872720 0.042791
vt 0.936360 0.217411
vt 0.968180 0.217411
vt 0.872720 0.048928
vt 0.904540 0.048928
vt 0.968180 0.205425
vt 0.936360 0.205425
vt 0.904540 0.055378
vt 0.872720 0.055378
vt 0.968180 0.193614
vt 0.936360 0.193614
vt 0.872720 0.062164
vt 0.904540 0.062164
vt 0.936360 0.181979
vt 0.968180 0.181979
vt 0.904540 0.069309
vt 0.872720 0.069309
vt 0.936360 0.170525
vt 0.968180 0.170525
vt 0.872720 0.076842
vt 0.904540 0.076842
vt 0.968180 0.159254
vt 0.936360 0.159254
vt 0.904540 0.084789
vt 0.872720 0.084789
vt 0.936360 0.148172
vt 0.968180 0.148172
vt 0.872720 0.093174
vt 0.904540 0.093174
vt 0.968180 0.137283
vt 0.936360 0.137283
vt 0.872720 0.102020
vt 0.904540 0.102020
vt 0.936360 0.126594
vt 0.968180 0.126594
vt 0.904540 0.111343
vt 0.872720 0.111343
vt 0.968180 0.116116
vt 0.936360 0.116116
vt 0.872720 0.121162
vt 0.904540 0.121162
vt 0.936360 0.105859
vt 0.968180 0.105859
vt 0.904540 0.131489
vt 0.872720 0.131489
vt 0.968180 0.095833
vt 0.936360 0.095833
vt 0.904540 0.142335
vt 0.872720 0.142335
vt 0.936360 0.086053
vt 0.968180 0.086053
vt 0.872720 0.153708
vt 0.904540 0.153708
vt 0.936360 0.076534
vt 0.968180 0.076534
vt 0.904540 0.165614
vt 0.872720 0.165614
vt 0.936360 0.067291
vt 0.968180 0.067291
vt 0.904540 0.178056
vt 0.872720 0.178056
vt 0.968180 0.058344
vt 0.936360 0.058344
vt 0.872720 0.191033
vt 0.904540 0.191033
vt 0.936360 0.049711
vt 0.968180 0.049711
vt 0.904540 0.204543
vt 0.872720 0.204543
vt 0.968180 0.041412
vt 0.936360 0.041412
vt 0.872720 0.218582
vt 0.904540 0.218582
vt 0.936360 0.033471
vt 0.968180 0.033471
vt 0.872720 0.233141
vt 0.904540 0.233141
vt 0.968180 0.025911
vt 0.936360 0.025911
vt 0.904540 0.248208
vt 0.872720 0.248208
vt 0.936360 0.018757
vt 0.968180 0.018757
vt 0.904540 0.263773
vt 0.872720 0.263773
vt 0.936360 0.012036
vt 0.968180 0.012036
vt 0.872720 0.279819
vt 0.904540 0.279819
vt 0.968180 0.005776
vt 0.936360 0.005776
vt 0.904540 0.296347
vt 0.872720 0.296347
vt 0.936360 -0.000000
vt 0.968180 -0.000000
vt 0.904540 0.313380
vt 0.872720 0.313380
vt 0.031820 0.696491
vt 0.063640 0.690805
vt 0.063640 0.696491
vt 0.872720 0.330966
vt 0.904540 0.330966
vt 0.063640 0.702470
vt 0.031820 0.702470
vt 0.904540 0.349176
vt 0.872720 0.349176
vt 0.063640 0.708741
vt 0.031820 0.708741
vt 0.968180 0.562375
vt 0.936360 0.578282
vt 0.936360 0.562375
vt 0.872720 0.368107
vt 0.904540 0.368107
vt 0.063640 0.715296
vt 0.031820 0.715296
vt 0.936360 0.546789
vt 0.968180 0.546789
vt 0.904540 0.387880
vt 0.872720 0.387880
vt 0.031820 0.722120
vt 0.063640 0.722120
vt 0.968180 0.531480
vt 0.936360 0.531480
vt 0.904540 0.408639
vt 0.872720 0.408639
vt 0.063640 0.729187
vt 0.031820 0.729187
vt 0.968180 0.516408
vt 0.936360 0.516408
vt 0.904540 0.430555
vt 0.872720 0.430555
vt 0.031820 0.736464
vt 0.063640 0.736464
vt 0.936360 0.501536
vt 0.968180 0.501536
vt 0.904540 0.453820
vt 0.872720 0.453820
vt 0.031820 0.743910
vt 0.063640 0.743910
vt 0.968180 0.486834
vt 0.936360 0.486834
vt 0.872720 0.478653
vt 0.904540 0.478653
vt 0.063640 0.751475
vt 0.031820 0.751475
vt 0.968180 0.472278
vt 0.936360 0.472278
vt 0.872720 0.505297
vt 0.904540 0.505297
vt 0.063640 0.759102
vt 0.936360 0.457845
vt 0.872720 0.534019
vt 0.968180 0.578282
vt 0.904540 0.011845
vt 0.031820 0.690805
s 0
usemtl 眉毛
f 60/1/1 165/2/1 61/3/1
f 9/4/2 114/5/2 10/6/2
f 103/7/3 206/8/3 207/9/3
f 11/10/4 114/5/4 115/11/4
f 104/12/5 207/9/5 208/13/5
f 11/10/6 116/14/6 12/15/6
f 13/16/7 116/14/7 117/17/7
f 13/16/8 118/18/8 14/19/8
f 14/19/9 119/20/9 15/21/9
f 16/22/10 119/20/10 120/23/10
f 16/22/11 121/24/11 17/25/11
f 18/26/12 121/24/12 122/27/12
f 18/26/13 123/28/13 19/29/13
f 19/29/14 124/30/14 20/31/14
f 21/32/15 124/30/15 125/33/15
f 62/34/16 167/35/16 63/36/16
f 21/32/17 126/37/17 22/38/17
f 63/36/18 168/39/18 64/40/18
f 22/38/19 127/41/19 23/42/19
f 65/43/20 168/39/20 169/44/20
f 24/45/21 127/41/21 128/46/21
f 65/43/22 170/47/22 66/48/22
f 25/49/23 128/46/23 129/50/23
f 67/51/24 170/47/24 171/52/24
f 26/53/25 129/50/25 130/54/25
f 67/51/26 172/55/26 68/56/26
f 26/53/27 131/57/27 27/58/27
f 69/59/28 172/55/28 173/60/28
f 28/61/29 131/57/29 132/62/29
f 69/59/30 174/63/30 70/64/30
f 29/65/31 132/62/31 133/66/31
f 71/67/32 174/63/32 175/68/32
f 29/65/33 134/69/33 30/70/33
f 71/67/34 176/71/34 72/72/34
f 30/70/35 135/73/35 31/74/35
f 73/75/36 176/71/36 177/76/36
f 32/77/37 135/73/37 136/78/37
f 73/75/38 178/79/38 74/80/38
f 32/77/39 137/81/39 33/82/39
f 75/83/40 178/79/40 179/84/40
f 34/85/41 137/81/41 138/86/41
f 76/87/42 179/84/42 180/88/42
f 34/85/43 139/89/43 35/90/43
f 76/87/44 181/91/44 77/92/44
f 36/93/45 139/89/45 140/94/45
f 78/95/46 181/91/46 182/96/46
f 36/93/47 141/97/47 37/98/47
f 78/95/48 183/99/48 79/100/48
f 38/101/49 141/97/49 142/102/49
f 79/100/50 184/103/50 80/104/50
f 38/101/51 143/105/51 39/106/51
f 81/107/52 184/103/52 185/108/52
f 39/106/53 144/109/53 40/110/53
f 81/107/54 186/111/54 82/112/54
f 40/110/55 145/113/55 41/114/55
f 82/112/56 187/115/56 83/116/56
f 42/117/57 145/113/57 146/118/57
f 84/119/58 187/115/58 188/120/58
f 42/117/59 147/121/59 43/122/59
f 84/119/60 189/123/60 85/124/60
f 44/125/61 147/121/61 148/126/61
f 86/127/62 189/123/62 190/128/62
f 44/125/63 149/129/63 45/130/63
f 87/131/64 190/128/64 191/132/64
f 46/133/65 149/129/65 150/134/65
f 87/131/66 192/135/66 88/136/66
f 46/133/67 151/137/67 47/138/67
f 88/136/68 193/139/68 89/140/68
f 47/138/69 152/141/69 48/142/69
f 90/143/70 193/139/70 194/144/70
f 49/145/71 152/141/71 153/146/71
f 90/143/72 195/147/72 91/148/72
f 49/145/73 154/149/73 50/150/73
f 91/148/74 196/151/74 92/152/74
f 51/153/75 154/154/75 155/155/75
f 93/156/76 196/151/76 197/157/76
f 51/153/77 156/158/77 52/159/77
f 93/156/78 198/160/78 94/161/78
f 52/159/79 157/162/79 53/163/79
f 2/164/80 105/165/80 106/166/80
f 95/167/81 198/160/81 199/168/81
f 53/163/82 158/169/82 54/170/82
f 2/164/83 107/171/83 3/172/83
f 95/167/84 200/173/84 96/174/84
f 55/175/85 158/169/85 159/176/85
f 4/177/86 107/171/86 108/178/86
f 96/174/87 201/179/87 97/180/87
f 55/175/88 160/181/88 56/182/88
f 5/183/89 108/178/89 109/184/89
f 97/180/90 202/185/90 98/186/90
f 57/187/91 160/181/91 161/188/91
f 5/183/92 110/189/92 6/190/92
f 98/186/93 203/191/93 99/192/93
f 58/193/94 161/188/94 162/194/94
f 7/195/95 110/189/95 111/196/95
f 100/197/96 203/191/96 204/198/96
f 58/193/97 163/199/97 59/200/97
f 8/201/98 111/196/98 112/202/98
f 101/203/99 204/198/99 205/204/99
f 60/1/100 163/199/100 164/205/100
f 8/201/101 113/206/101 9/4/101
f 102/207/102 205/204/102 206/8/102
f 208/13/103 1/208/103 104/12/103
f 61/3/104 166/209/104 62/34/104
f 20/31/105 86/127/105 87/131/105
f 191/132/106 190/128/106 124/30/106
f 373/2/107 268/1/107 269/3/107
f 322/5/108 217/4/108 218/6/108
f 311/7/109 414/8/109 310/207/109
f 219/10/110 322/5/110 218/6/110
f 312/12/111 415/9/111 311/7/111
f 324/14/112 219/10/112 220/15/112
f 221/16/113 324/14/113 220/15/113
f 326/18/114 221/16/114 222/19/114
f 327/20/115 222/19/115 223/21/115
f 224/22/116 327/20/116 223/21/116
f 329/24/117 224/22/117 225/25/117
f 226/26/118 329/24/118 225/25/118
f 331/28/119 226/26/119 227/29/119
f 332/30/120 227/29/120 228/31/120
f 229/32/121 332/30/121 228/31/121
f 375/35/122 270/34/122 271/36/122
f 334/37/123 229/32/123 230/38/123
f 376/39/124 271/36/124 272/40/124
f 335/41/125 230/38/125 231/42/125
f 273/43/126 376/39/126 272/40/126
f 232/45/127 335/41/127 231/42/127
f 378/47/128 273/43/128 274/48/128
f 233/49/129 336/46/129 232/45/129
f 275/51/130 378/47/130 274/48/130
f 234/53/131 337/50/131 233/49/131
f 380/55/132 275/51/132 276/56/132
f 339/57/133 234/53/133 235/58/133
f 277/59/134 380/55/134 276/56/134
f 236/61/135 339/57/135 235/58/135
f 382/63/136 277/59/136 278/64/136
f 237/65/137 340/62/137 236/61/137
f 279/67/138 382/63/138 278/64/138
f 342/69/139 237/65/139 238/70/139
f 384/71/140 279/67/140 280/72/140
f 343/73/141 238/70/141 239/74/141
f 281/75/142 384/71/142 280/72/142
f 344/78/143 239/74/143 240/77/143
f 386/79/144 281/75/144 282/80/144
f 345/81/145 240/77/145 241/82/145
f 283/83/146 386/79/146 282/80/146
f 242/85/147 345/81/147 241/82/147
f 284/87/148 387/84/148 283/83/148
f 347/89/149 242/85/149 243/90/149
f 389/91/150 284/87/150 285/92/150
f 244/93/151 347/89/151 243/90/151
f 286/95/152 389/91/152 285/92/152
f 349/97/153 244/93/153 245/98/153
f 391/99/154 286/95/154 287/100/154
f 246/101/155 349/97/155 245/98/155
f 392/103/156 287/100/156 288/104/156
f 351/105/157 246/101/157 247/106/157
f 289/107/158 392/103/158 288/104/158
f 352/109/159 247/106/159 248/110/159
f 394/111/160 289/107/160 290/112/160
f 353/113/161 248/110/161 249/114/161
f 395/115/162 290/112/162 291/116/162
f 250/117/163 353/113/163 249/114/163
f 292/119/164 395/115/164 291/116/164
f 355/121/165 250/117/165 251/122/165
f 397/123/166 292/119/166 293/124/166
f 252/125/167 355/121/167 251/122/167
f 294/127/168 397/123/168 293/124/168
f 357/129/169 252/125/169 253/130/169
f 295/131/170 398/128/170 294/127/170
f 254/133/171 357/129/171 253/130/171
f 400/135/172 295/131/172 296/136/172
f 359/137/173 254/133/173 255/138/173
f 401/139/174 296/136/174 297/140/174
f 256/142/175 359/137/175 255/138/175
f 298/143/176 401/139/176 297/140/176
f 257/145/177 360/141/177 256/142/177
f 403/147/178 298/143/178 299/148/178
f 362/149/179 257/145/179 258/150/179
f 404/151/180 299/148/180 300/152/180
f 259/153/181 362/154/181 258/210/181
f 301/156/182 404/151/182 300/152/182
f 364/158/183 259/153/183 260/159/183
f 302/161/184 405/157/184 301/156/184
f 365/162/185 260/159/185 261/163/185
f 210/164/186 313/165/186 209/208/186
f 303/167/187 406/160/187 302/161/187
f 366/169/188 261/163/188 262/170/188
f 315/171/189 210/164/189 211/172/189
f 408/173/190 303/167/190 304/174/190
f 263/175/191 366/169/191 262/170/191
f 212/177/192 315/171/192 211/172/192
f 409/179/193 304/174/193 305/180/193
f 368/181/194 263/175/194 264/182/194
f 213/183/195 316/178/195 212/177/195
f 306/186/196 409/179/196 305/180/196
f 265/187/197 368/181/197 264/182/197
f 318/189/198 213/183/198 214/190/198
f 411/191/199 306/186/199 307/192/199
f 370/194/200 265/187/200 266/193/200
f 215/195/201 318/189/201 214/190/201
f 308/197/202 411/191/202 307/192/202
f 371/199/203 266/193/203 267/200/203
f 216/201/204 319/196/204 215/195/204
f 413/204/205 308/197/205 309/203/205
f 268/1/206 371/199/206 267/200/206
f 321/206/207 216/201/207 217/4/207
f 414/8/208 309/203/208 310/207/208
f 209/208/209 416/13/209 312/12/209
f 269/3/210 374/209/210 373/2/210
f 295/131/211 294/127/211 228/31/211
f 332/30/212 398/128/212 399/132/212
f 60/1/213 164/205/213 165/2/213
f 9/4/2 113/206/2 114/5/2
f 103/7/214 102/207/214 206/8/214
f 11/10/215 10/6/215 114/5/215
f 104/12/5 103/7/5 207/9/5
f 11/10/6 115/11/6 116/14/6
f 13/16/216 12/15/216 116/14/216
f 13/16/8 117/17/8 118/18/8
f 14/19/9 118/18/9 119/20/9
f 16/22/10 15/21/10 119/20/10
f 16/22/11 120/23/11 121/24/11
f 18/26/12 17/25/12 121/24/12
f 18/26/13 122/27/13 123/28/13
f 19/29/14 123/28/14 124/30/14
f 21/32/15 20/31/15 124/30/15
f 62/34/217 166/209/217 167/35/217
f 21/32/17 125/33/17 126/37/17
f 63/36/218 167/35/218 168/39/218
f 22/38/19 126/37/19 127/41/19
f 65/43/20 64/40/20 168/39/20
f 24/45/219 23/42/219 127/41/219
f 65/43/220 169/44/220 170/47/220
f 25/49/23 24/45/23 128/46/23
f 67/51/24 66/48/24 170/47/24
f 26/53/221 25/49/221 129/50/221
f 67/51/222 171/52/222 172/55/222
f 26/53/223 130/54/223 131/57/223
f 69/59/224 68/56/224 172/55/224
f 28/61/225 27/58/225 131/57/225
f 69/59/226 173/60/226 174/63/226
f 29/65/227 28/61/227 132/62/227
f 71/67/228 70/64/228 174/63/228
f 29/65/33 133/66/33 134/69/33
f 71/67/34 175/68/34 176/71/34
f 30/70/229 134/69/229 135/73/229
f 73/75/36 72/72/36 176/71/36
f 32/77/230 31/74/230 135/73/230
f 73/75/231 177/76/231 178/79/231
f 32/77/39 136/78/39 137/81/39
f 75/83/40 74/80/40 178/79/40
f 34/85/41 33/82/41 137/81/41
f 76/87/42 75/83/42 179/84/42
f 34/85/43 138/86/43 139/89/43
f 76/87/44 180/88/44 181/91/44
f 36/93/45 35/90/45 139/89/45
f 78/95/232 77/92/232 181/91/232
f 36/93/233 140/94/233 141/97/233
f 78/95/234 182/96/234 183/99/234
f 38/101/235 37/98/235 141/97/235
f 79/100/236 183/99/236 184/103/236
f 38/101/51 142/102/51 143/105/51
f 81/107/237 80/104/237 184/103/237
f 39/106/53 143/105/53 144/109/53
f 81/107/238 185/108/238 186/111/238
f 40/110/55 144/109/55 145/113/55
f 82/112/56 186/111/56 187/115/56
f 42/117/57 41/114/57 145/113/57
f 84/119/239 83/116/239 187/115/239
f 42/117/240 146/118/240 147/121/240
f 84/119/60 188/120/60 189/123/60
f 44/125/241 43/122/241 147/121/241
f 86/127/242 85/124/242 189/123/242
f 44/125/243 148/126/243 149/129/243
f 87/131/244 86/127/244 190/128/244
f 46/133/65 45/130/65 149/129/65
f 87/131/66 191/132/66 192/135/66
f 46/133/245 150/134/245 151/137/245
f 88/136/68 192/135/68 193/139/68
f 47/138/246 151/137/246 152/141/246
f 90/143/70 89/140/70 193/139/70
f 49/145/247 48/142/247 152/141/247
f 90/143/72 194/144/72 195/147/72
f 49/145/248 153/146/248 154/149/248
f 91/148/74 195/147/74 196/151/74
f 51/153/249 50/210/249 154/154/249
f 93/156/76 92/152/76 196/151/76
f 51/153/250 155/155/250 156/158/250
f 93/156/78 197/157/78 198/160/78
f 52/159/251 156/158/251 157/162/251
f 2/164/80 1/208/80 105/165/80
f 95/167/252 94/161/252 198/160/252
f 53/163/253 157/162/253 158/169/253
f 2/164/83 106/166/83 107/171/83
f 95/167/254 199/168/254 200/173/254
f 55/175/85 54/170/85 158/169/85
f 4/177/86 3/172/86 107/171/86
f 96/174/87 200/173/87 201/179/87
f 55/175/255 159/176/255 160/181/255
f 5/183/89 4/177/89 108/178/89
f 97/180/90 201/179/90 202/185/90
f 57/187/256 56/182/256 160/181/256
f 5/183/257 109/184/257 110/189/257
f 98/186/93 202/185/93 203/191/93
f 58/193/258 57/187/258 161/188/258
f 7/195/259 6/190/259 110/189/259
f 100/197/260 99/192/260 203/191/260
f 58/193/261 162/194/261 163/199/261
f 8/201/262 7/195/262 111/196/262
f 101/203/263 100/197/263 204/198/263
f 60/1/264 59/200/264 163/199/264
f 8/201/101 112/202/101 113/206/101
f 102/207/265 101/203/265 205/204/265
f 208/13/266 105/165/266 1/208/266
f 61/3/267 165/2/267 166/209/267
f 104/12/268 1/208/268 2/164/268
f 2/164/269 3/172/269 4/177/269
f 4/177/270 5/183/270 6/190/270
f 6/190/271 7/195/271 8/201/271
f 8/201/272 9/4/272 10/6/272
f 10/6/273 11/10/273 12/15/273
f 12/15/274 13/16/274 14/19/274
f 14/19/275 15/21/275 16/22/275
f 16/22/276 17/25/276 18/26/276
f 18/26/277 19/29/277 20/31/277
f 20/31/278 21/32/278 22/38/278
f 22/38/279 23/42/279 24/45/279
f 24/45/280 25/49/280 26/53/280
f 26/53/281 27/58/281 28/61/281
f 28/61/282 29/65/282 30/70/282
f 30/70/283 31/74/283 32/77/283
f 32/77/284 33/82/284 34/85/284
f 34/85/285 35/90/286 36/93/285
f 36/93/287 37/98/287 38/101/287
f 38/101/288 39/106/288 40/110/288
f 40/110/289 41/114/289 42/117/289
f 42/117/290 43/122/290 44/125/290
f 44/125/291 45/130/291 46/133/291
f 46/133/292 47/138/292 48/142/292
f 48/142/293 49/145/293 50/210/293
f 50/210/294 51/153/294 52/159/295
f 52/159/296 53/163/296 54/170/296
f 54/170/297 55/175/297 56/182/297
f 56/182/298 57/187/298 58/193/298
f 58/193/299 59/200/299 60/1/299
f 60/1/300 61/3/300 62/34/300
f 63/36/301 64/40/301 65/43/301
f 60/1/302 62/34/302 63/36/302
f 56/182/303 58/193/303 60/1/303
f 52/159/304 54/170/304 56/182/304
f 48/142/305 50/210/305 52/159/305
f 44/125/306 46/133/306 48/142/306
f 40/110/307 42/117/307 44/125/307
f 36/93/308 38/101/308 40/110/308
f 32/77/309 34/85/309 36/93/309
f 28/61/310 30/70/310 32/77/310
f 24/45/311 26/53/311 28/61/311
f 20/31/310 22/38/310 24/45/310
f 16/22/312 18/26/312 20/31/312
f 12/15/313 14/19/313 16/22/313
f 8/201/314 10/6/314 12/15/314
f 4/177/315 6/190/315 8/201/315
f 104/12/316 2/164/316 4/177/316
f 103/7/317 104/12/317 4/177/317
f 4/177/318 8/201/318 12/15/318
f 12/15/305 16/22/305 20/31/305
f 20/31/303 24/45/303 28/61/303
f 28/61/319 32/77/319 36/93/319
f 36/93/320 40/110/320 44/125/320
f 44/125/274 48/142/274 52/159/274
f 52/159/321 56/182/321 60/1/321
f 60/1/322 63/36/322 65/43/322
f 65/43/313 66/48/313 67/51/313
f 67/51/306 68/56/306 69/59/306
f 69/59/323 70/64/323 71/67/323
f 71/67/324 72/72/324 73/75/324
f 69/59/325 71/67/325 73/75/325
f 65/43/304 67/51/304 69/59/304
f 52/159/326 60/1/326 65/43/326
f 36/93/327 44/125/327 52/159/327
f 20/31/303 28/61/303 36/93/303
f 4/177/303 12/15/303 20/31/303
f 102/207/328 103/7/328 4/177/328
f 101/203/329 102/207/329 4/177/329
f 20/31/303 36/93/303 52/159/303
f 52/159/330 65/43/330 69/59/330
f 69/59/331 73/75/331 74/80/331
f 52/159/332 69/59/332 74/80/332
f 101/203/333 4/177/333 20/31/333
f 100/197/334 101/203/334 20/31/334
f 52/159/335 74/80/335 75/83/335
f 52/159/336 75/83/336 76/87/336
f 99/192/337 100/197/337 20/31/337
f 98/186/338 99/192/338 20/31/338
f 52/159/339 76/87/339 77/92/339
f 52/159/340 77/92/340 78/95/340
f 97/180/341 98/186/341 20/31/341
f 96/174/342 97/180/342 20/31/342
f 52/159/343 78/95/343 79/100/343
f 52/159/344 79/100/344 80/104/344
f 95/167/345 96/174/345 20/31/345
f 94/161/346 95/167/346 20/31/346
f 52/159/347 80/104/347 81/107/347
f 52/159/348 81/107/348 82/112/348
f 93/156/349 94/161/349 20/31/349
f 92/152/350 93/156/350 20/31/350
f 20/31/351 52/159/351 82/112/351
f 20/31/352 82/112/352 83/116/352
f 91/148/353 92/152/353 20/31/353
f 90/143/354 91/148/354 20/31/354
f 20/31/355 83/116/355 84/119/355
f 20/31/356 84/119/356 85/124/356
f 89/140/357 90/143/357 20/31/357
f 88/136/358 89/140/358 20/31/358
f 20/31/359 85/124/359 86/127/359
f 87/131/360 88/136/360 20/31/360
f 106/166/361 105/165/361 208/13/361
f 106/166/362 208/13/362 207/9/362
f 108/178/363 107/171/363 106/166/363
f 110/189/364 109/184/364 108/178/364
f 112/202/365 111/196/365 110/189/365
f 114/5/366 113/206/366 112/202/366
f 116/14/367 115/11/367 114/5/367
f 118/18/368 117/17/368 116/14/368
f 120/23/369 119/20/369 118/18/369
f 122/27/370 121/24/370 120/23/370
f 124/30/371 123/28/371 122/27/371
f 126/37/372 125/33/372 124/30/372
f 128/46/373 127/41/373 126/37/373
f 130/54/374 129/50/374 128/46/374
f 132/62/366 131/57/366 130/54/366
f 134/69/375 133/66/375 132/62/375
f 136/78/376 135/73/376 134/69/376
f 138/86/377 137/81/377 136/78/377
f 140/94/378 139/89/378 138/86/378
f 142/102/379 141/97/379 140/94/379
f 144/109/380 143/105/380 142/102/380
f 146/118/381 145/113/381 144/109/381
f 148/126/382 147/121/382 146/118/382
f 150/134/383 149/129/383 148/126/383
f 152/141/384 151/137/384 150/134/384
f 154/154/385 153/146/385 152/141/385
f 156/158/386 155/155/386 154/154/386
f 158/169/387 157/162/387 156/158/387
f 160/181/388 159/176/388 158/169/388
f 162/194/389 161/188/389 160/181/389
f 164/205/390 163/199/390 162/194/390
f 166/209/391 165/2/391 164/205/391
f 169/44/392 168/39/392 167/35/392
f 167/35/393 166/209/393 164/205/393
f 164/205/394 162/194/394 160/181/394
f 160/181/395 158/169/395 156/158/395
f 156/158/396 154/154/396 152/141/396
f 152/141/397 150/134/397 148/126/397
f 148/126/398 146/118/398 144/109/398
f 144/109/399 142/102/399 140/94/399
f 140/94/398 138/86/398 136/78/398
f 136/78/400 134/69/400 132/62/400
f 132/62/396 130/54/396 128/46/396
f 128/46/401 126/37/401 124/30/401
f 124/30/402 122/27/402 120/23/402
f 120/23/403 118/18/403 116/14/403
f 116/14/387 114/5/387 112/202/387
f 112/202/404 110/189/404 108/178/404
f 108/178/405 106/166/405 207/9/405
f 108/178/406 207/9/406 206/8/406
f 116/14/407 112/202/407 108/178/407
f 124/30/408 120/23/408 116/14/408
f 132/62/397 128/46/397 124/30/397
f 140/94/397 136/78/397 132/62/397
f 148/126/397 144/109/397 140/94/397
f 156/158/409 152/141/409 148/126/409
f 164/205/397 160/181/397 156/158/397
f 169/44/410 167/35/410 164/205/410
f 171/52/411 170/47/411 169/44/411
f 173/60/412 172/55/412 171/52/412
f 175/68/413 174/63/413 173/60/413
f 177/76/414 176/71/414 175/68/414
f 177/76/415 175/68/415 173/60/415
f 173/60/397 171/52/397 169/44/397
f 169/44/416 164/205/416 156/158/416
f 156/158/397 148/126/397 140/94/397
f 140/94/417 132/62/417 124/30/417
f 124/30/396 116/14/396 108/178/396
f 108/178/418 206/8/418 205/204/418
f 108/178/419 205/204/419 204/198/419
f 156/158/417 140/94/417 124/30/417
f 173/60/420 169/44/420 156/158/420
f 178/79/421 177/76/421 173/60/422
f 178/79/423 173/60/423 156/158/423
f 124/30/424 108/178/424 204/198/424
f 124/30/425 204/198/425 203/191/425
f 179/84/426 178/79/426 156/158/426
f 180/88/427 179/84/427 156/158/427
f 124/30/428 203/191/428 202/185/428
f 124/30/429 202/185/429 201/179/429
f 181/91/430 180/88/430 156/158/430
f 182/96/431 181/91/431 156/158/431
f 124/30/432 201/179/432 200/173/432
f 124/30/433 200/173/433 199/168/433
f 183/99/434 182/96/434 156/158/434
f 184/103/435 183/99/435 156/158/435
f 124/30/436 199/168/436 198/160/436
f 124/30/437 198/160/437 197/157/437
f 185/108/438 184/103/438 156/158/438
f 186/111/439 185/108/439 156/158/439
f 124/30/440 197/157/440 196/151/440
f 124/30/441 196/151/441 195/147/441
f 186/111/442 156/158/442 124/30/442
f 187/115/443 186/111/443 124/30/443
f 124/30/444 195/147/444 194/144/444
f 124/30/445 194/144/445 193/139/445
f 188/120/446 187/115/446 124/30/446
f 189/123/447 188/120/447 124/30/447
f 124/30/448 193/139/448 192/135/448
f 124/30/449 192/135/449 191/132/449
f 190/128/450 189/123/450 124/30/450
f 373/2/451 372/205/451 268/1/451
f 322/5/108 321/206/108 217/4/108
f 311/7/109 415/9/109 414/8/109
f 219/10/452 323/11/452 322/5/452
f 312/12/453 416/13/453 415/9/453
f 324/14/454 323/11/454 219/10/454
f 221/16/455 325/17/455 324/14/455
f 326/18/114 325/17/114 221/16/114
f 327/20/115 326/18/115 222/19/115
f 224/22/456 328/23/456 327/20/456
f 329/24/457 328/23/457 224/22/457
f 226/26/118 330/27/118 329/24/118
f 331/28/119 330/27/119 226/26/119
f 332/30/120 331/28/120 227/29/120
f 229/32/458 333/33/458 332/30/458
f 375/35/459 374/209/459 270/34/459
f 334/37/123 333/33/123 229/32/123
f 376/39/460 375/35/460 271/36/460
f 335/41/461 334/37/461 230/38/461
f 273/43/126 377/44/126 376/39/126
f 232/45/462 336/46/462 335/41/462
f 378/47/463 377/44/463 273/43/463
f 233/49/129 337/50/129 336/46/129
f 275/51/130 379/52/130 378/47/130
f 234/53/131 338/54/131 337/50/131
f 380/55/464 379/52/464 275/51/464
f 339/57/133 338/54/133 234/53/133
f 277/59/465 381/60/465 380/55/465
f 236/61/466 340/62/466 339/57/466
f 382/63/136 381/60/136 277/59/136
f 237/65/137 341/66/137 340/62/137
f 279/67/467 383/68/467 382/63/467
f 342/69/468 341/66/468 237/65/468
f 384/71/469 383/68/469 279/67/469
f 343/73/470 342/69/470 238/70/470
f 281/75/471 385/76/471 384/71/471
f 344/78/472 343/73/472 239/74/472
f 386/79/473 385/76/473 281/75/473
f 345/81/145 344/78/145 240/77/145
f 283/83/474 387/84/474 386/79/474
f 242/85/147 346/86/147 345/81/147
f 284/87/475 388/88/475 387/84/475
f 347/89/149 346/86/149 242/85/149
f 389/91/476 388/88/476 284/87/476
f 244/93/151 348/94/151 347/89/151
f 286/95/152 390/96/152 389/91/152
f 349/97/477 348/94/477 244/93/477
f 391/99/154 390/96/154 286/95/154
f 246/101/478 350/102/478 349/97/478
f 392/103/479 391/99/479 287/100/479
f 351/105/480 350/102/480 246/101/480
f 289/107/158 393/108/158 392/103/158
f 352/109/481 351/105/481 247/106/481
f 394/111/160 393/108/160 289/107/160
f 353/113/482 352/109/482 248/110/482
f 395/115/483 394/111/483 290/112/483
f 250/117/163 354/118/163 353/113/163
f 292/119/164 396/120/164 395/115/164
f 355/121/484 354/118/484 250/117/484
f 397/123/485 396/120/485 292/119/485
f 252/125/486 356/126/486 355/121/486
f 294/127/487 398/128/487 397/123/487
f 357/129/169 356/126/169 252/125/169
f 295/131/170 399/132/170 398/128/170
f 254/133/488 358/134/488 357/129/488
f 400/135/172 399/132/172 295/131/172
f 359/137/173 358/134/173 254/133/173
f 401/139/489 400/135/489 296/136/489
f 256/142/490 360/141/490 359/137/490
f 298/143/491 402/144/491 401/139/491
f 257/145/492 361/146/492 360/141/492
f 403/147/178 402/144/178 298/143/178
f 362/149/493 361/146/493 257/145/493
f 404/151/180 403/147/180 299/148/180
f 259/153/181 363/155/181 362/154/181
f 301/156/494 405/157/494 404/151/494
f 364/158/183 363/155/183 259/153/183
f 302/161/184 406/160/184 405/157/184
f 365/162/185 364/158/185 260/159/185
f 210/164/495 314/166/495 313/165/495
f 303/167/187 407/168/187 406/160/187
f 366/169/496 365/162/496 261/163/496
f 315/171/497 314/166/497 210/164/497
f 408/173/190 407/168/190 303/167/190
f 263/175/498 367/176/498 366/169/498
f 212/177/499 316/178/499 315/171/499
f 409/179/193 408/173/193 304/174/193
f 368/181/194 367/176/194 263/175/194
f 213/183/500 317/184/500 316/178/500
f 306/186/196 410/185/196 409/179/196
f 265/187/501 369/188/501 368/181/501
f 318/189/502 317/184/502 213/183/502
f 411/191/503 410/185/503 306/186/503
f 370/194/200 369/188/200 265/187/200
f 215/195/504 319/196/504 318/189/504
f 308/197/202 412/198/202 411/191/202
f 371/199/505 370/194/505 266/193/505
f 216/201/506 320/202/506 319/196/506
f 413/204/507 412/198/507 308/197/507
f 268/1/206 372/205/206 371/199/206
f 321/206/207 320/202/207 216/201/207
f 414/8/208 413/204/208 309/203/208
f 209/208/508 313/165/508 416/13/508
f 269/3/509 270/34/509 374/209/509
f 210/164/510 209/208/510 312/12/510
f 210/164/511 312/12/511 311/7/511
f 212/177/512 211/172/512 210/164/512
f 214/190/513 213/183/513 212/177/513
f 216/201/514 215/195/514 214/190/514
f 218/6/515 217/4/515 216/201/515
f 220/15/516 219/10/516 218/6/516
f 222/19/517 221/16/517 220/15/517
f 224/22/518 223/21/518 222/19/518
f 226/26/519 225/25/519 224/22/519
f 228/31/520 227/29/520 226/26/520
f 230/38/521 229/32/521 228/31/521
f 232/45/522 231/42/522 230/38/522
f 234/53/523 233/49/523 232/45/523
f 236/61/524 235/58/524 234/53/524
f 238/70/525 237/65/525 236/61/525
f 240/77/526 239/74/526 238/70/526
f 242/85/527 241/82/527 240/77/527
f 244/93/528 243/90/528 242/85/528
f 246/101/529 245/98/529 244/93/529
f 248/110/530 247/106/530 246/101/530
f 250/117/531 249/114/531 248/110/531
f 252/125/532 251/122/532 250/117/532
f 254/133/533 253/130/533 252/125/533
f 256/142/534 255/138/534 254/133/534
f 258/210/535 257/145/535 256/142/535
f 260/159/536 259/153/536 258/210/536
f 262/170/537 261/163/537 260/159/537
f 264/182/538 263/175/538 262/170/538
f 266/193/539 265/187/539 264/182/539
f 268/1/540 267/200/540 266/193/540
f 270/34/541 269/3/541 268/1/541
f 273/43/542 272/40/542 271/36/542
f 271/36/543 270/34/543 268/1/543
f 268/1/544 266/193/544 264/182/544
f 264/182/545 262/170/545 260/159/545
f 260/159/546 258/210/546 256/142/546
f 256/142/547 254/133/547 252/125/547
f 252/125/548 250/117/548 248/110/548
f 248/110/549 246/101/549 244/93/549
f 244/93/550 242/85/550 240/77/550
f 240/77/551 238/70/551 236/61/551
f 236/61/552 234/53/552 232/45/552
f 232/45/551 230/38/551 228/31/551
f 228/31/553 226/26/553 224/22/553
f 224/22/551 222/19/551 220/15/551
f 220/15/554 218/6/554 216/201/554
f 216/201/513 214/190/513 212/177/513
f 212/177/555 210/164/555 311/7/555
f 212/177/556 311/7/556 310/207/556
f 220/15/557 216/201/557 212/177/557
f 228/31/558 224/22/558 220/15/558
f 236/61/559 232/45/559 228/31/559
f 244/93/560 240/77/560 236/61/560
f 252/125/517 248/110/517 244/93/517
f 260/159/517 256/142/517 252/125/517
f 268/1/546 264/182/546 260/159/546
f 273/43/561 271/36/561 268/1/561
f 275/51/562 274/48/562 273/43/562
f 277/59/563 276/56/563 275/51/563
f 279/67/564 278/64/564 277/59/564
f 281/75/565 280/72/565 279/67/565
f 281/75/532 279/67/532 277/59/532
f 277/59/545 275/51/545 273/43/545
f 273/43/566 268/1/566 260/159/566
f 260/159/567 252/125/567 244/93/567
f 244/93/517 236/61/517 228/31/517
f 228/31/557 220/15/557 212/177/557
f 212/177/568 310/207/568 309/203/568
f 212/177/569 309/203/569 308/197/569
f 260/159/557 244/93/557 228/31/557
f 277/59/570 273/43/570 260/159/570
f 282/80/571 281/75/571 277/59/571
f 282/80/572 277/59/572 260/159/572
f 228/31/573 212/177/573 308/197/573
f 228/31/574 308/197/574 307/192/574
f 283/83/575 282/80/575 260/159/575
f 284/87/576 283/83/576 260/159/576
f 228/31/577 307/192/577 306/186/577
f 228/31/578 306/186/578 305/180/578
f 285/92/579 284/87/579 260/159/579
f 286/95/580 285/92/580 260/159/580
f 228/31/581 305/180/581 304/174/581
f 228/31/582 304/174/582 303/167/582
f 287/100/583 286/95/583 260/159/583
f 288/104/584 287/100/584 260/159/584
f 228/31/585 303/167/585 302/161/585
f 228/31/586 302/161/586 301/156/586
f 289/107/587 288/104/587 260/159/587
f 290/112/588 289/107/588 260/159/588
f 228/31/589 301/156/589 300/152/589
f 228/31/590 300/152/590 299/148/590
f 290/112/591 260/159/591 228/31/591
f 291/116/592 290/112/592 228/31/592
f 228/31/593 299/148/593 298/143/593
f 228/31/594 298/143/594 297/140/594
f 292/119/595 291/116/595 228/31/595
f 293/124/596 292/119/596 228/31/596
f 228/31/597 297/140/597 296/136/597
f 228/31/598 296/136/598 295/131/598
f 294/127/599 293/124/599 228/31/599
f 416/13/600 313/165/600 314/166/600
f 314/166/601 315/171/601 316/178/601
f 316/178/602 317/184/602 318/189/602
f 318/189/603 319/196/603 320/202/603
f 320/202/604 321/206/604 322/5/604
f 322/5/605 323/11/605 324/14/605
f 324/14/606 325/17/606 326/18/606
f 326/18/607 327/20/607 328/23/607
f 328/23/608 329/24/608 330/27/608
f 330/27/609 331/28/609 332/30/609
f 332/30/610 333/33/610 334/37/610
f 334/37/611 335/41/611 336/46/611
f 336/46/612 337/50/612 338/54/612
f 338/54/604 339/57/604 340/62/604
f 340/62/613 341/66/613 342/69/613
f 342/69/614 343/73/614 344/78/614
f 344/78/615 345/81/615 346/86/615
f 346/86/616 347/89/616 348/94/616
f 348/94/617 349/97/617 350/102/617
f 350/102/618 351/105/618 352/109/618
f 352/109/619 353/113/619 354/118/619
f 354/118/620 355/121/620 356/126/620
f 356/126/621 357/129/621 358/134/621
f 358/134/622 359/137/622 360/141/622
f 360/141/623 361/146/623 362/154/623
f 362/154/624 363/155/624 364/158/624
f 364/158/625 365/162/625 366/169/625
f 366/169/626 367/176/626 368/181/626
f 368/181/627 369/188/627 370/194/627
f 370/194/628 371/199/628 372/205/628
f 372/205/629 373/2/629 374/209/629
f 375/35/630 376/39/630 377/44/630
f 372/205/631 374/209/631 375/35/631
f 368/181/632 370/194/632 372/205/632
f 364/158/633 366/169/633 368/181/633
f 360/141/634 362/154/634 364/158/634
f 356/126/634 358/134/634 360/141/634
f 352/109/635 354/118/635 356/126/635
f 348/94/636 350/102/636 352/109/636
f 344/78/635 346/86/635 348/94/635
f 340/62/637 342/69/637 344/78/637
f 336/46/638 338/54/638 340/62/638
f 332/30/639 334/37/639 336/46/639
f 328/23/640 330/27/640 332/30/640
f 324/14/641 326/18/641 328/23/641
f 320/202/625 322/5/625 324/14/625
f 316/178/642 318/189/642 320/202/642
f 416/13/643 314/166/643 316/178/643
f 415/9/644 416/13/644 316/178/644
f 316/178/633 320/202/633 324/14/633
f 324/14/638 328/23/638 332/30/638
f 332/30/645 336/46/645 340/62/645
f 340/62/646 344/78/646 348/94/646
f 348/94/633 352/109/633 356/126/633
f 356/126/647 360/141/647 364/158/647
f 364/158/638 368/181/638 372/205/638
f 372/205/648 375/35/648 377/44/648
f 377/44/649 378/47/649 379/52/649
f 379/52/650 380/55/650 381/60/650
f 381/60/651 382/63/651 383/68/651
f 383/68/652 384/71/652 385/76/652
f 381/60/653 383/68/653 385/76/653
f 377/44/645 379/52/645 381/60/645
f 364/158/654 372/205/654 377/44/654
f 348/94/641 356/126/641 364/158/641
f 332/30/634 340/62/634 348/94/634
f 316/178/655 324/14/655 332/30/655
f 414/8/656 415/9/656 316/178/656
f 413/204/657 414/8/657 316/178/657
f 332/30/633 348/94/633 364/158/633
f 364/158/658 377/44/658 381/60/658
f 381/60/659 385/76/659 386/79/659
f 364/158/660 381/60/660 386/79/660
f 413/204/661 316/178/661 332/30/661
f 412/198/662 413/204/662 332/30/662
f 364/158/663 386/79/663 387/84/663
f 364/158/664 387/84/664 388/88/664
f 411/191/665 412/198/665 332/30/665
f 410/185/666 411/191/666 332/30/666
f 364/158/667 388/88/667 389/91/667
f 364/158/668 389/91/668 390/96/668
f 409/179/669 410/185/669 332/30/669
f 408/173/670 409/179/670 332/30/670
f 364/158/671 390/96/671 391/99/671
f 364/158/672 391/99/672 392/103/672
f 407/168/673 408/173/673 332/30/673
f 406/160/674 407/168/674 332/30/674
f 364/158/675 392/103/675 393/108/675
f 364/158/676 393/108/676 394/111/676
f 405/157/677 406/160/677 332/30/677
f 404/151/678 405/157/678 332/30/678
f 332/30/679 364/158/679 394/111/679
f 332/30/680 394/111/680 395/115/680
f 403/147/681 404/151/681 332/30/681
f 402/144/682 403/147/682 332/30/682
f 332/30/683 395/115/683 396/120/683
f 332/30/684 396/120/684 397/123/684
f 401/139/685 402/144/685 332/30/685
f 400/135/686 401/139/686 332/30/686
f 332/30/687 397/123/687 398/128/687
f 399/132/688 400/135/688 332/30/688
