# Blender 4.2.2 LTS
# www.blender.org
mtllib staff.mtl
o LowerHalf
v -0.002175 0.047458 0.015945
v -0.009140 0.075494 0.007979
v 0.014901 0.042091 -0.005636
v 0.015110 0.075871 -0.007702
v 0.001039 0.026358 -0.001138
v 0.025006 0.093286 0.006716
v -0.009857 0.145203 -0.003696
v 0.011719 0.094063 -0.010794
v -0.000598 0.397824 0.012512
v -0.010631 0.228276 -0.010569
v 0.011457 0.370886 0.011021
v -0.014027 0.039356 0.003375
v -0.006756 0.038604 -0.012584
v 0.003842 0.042975 -0.014166
v 0.011856 0.039799 0.008508
v -0.000844 0.031754 0.008754
v 0.003660 0.093686 -0.002906
v 0.023411 0.095928 -0.007821
v 0.007750 0.092296 0.010766
v 0.013314 0.155144 0.005924
v -0.010345 0.373075 -0.004720
v 0.017129 0.374282 -0.004138
v -0.010536 0.277491 0.009891
v 0.007709 0.452376 0.001535
v 0.032114 0.452518 0.002760
v -0.007101 0.073572 -0.011015
v 0.012600 0.075466 0.009755
v 0.024907 0.456562 0.016595
v 0.033359 0.456838 -0.004868
v 0.017764 0.454710 -0.009360
v -0.026324 0.513896 0.006612
v -0.017513 0.513582 -0.014474
v -0.003201 0.517407 0.011386
v -0.007428 0.552646 -0.004069
v 0.045228 0.587580 0.002620
v 0.006084 0.600359 -0.013463
v 0.021830 0.601485 -0.015254
v 0.027291 0.606287 0.004429
v -0.007029 0.623017 -0.017860
v -0.002994 0.622946 0.020777
v -0.017277 0.635632 0.002022
v -0.000464 0.629544 -0.014113
v 0.009377 0.648381 -0.001247
v 0.005982 0.648713 0.009272
v -0.017679 0.638834 -0.007262
v 0.008558 0.641578 0.011602
v 0.023849 0.661055 -0.007310
v 0.014096 0.661032 0.002911
v 0.007270 0.652473 0.012292
v -0.029739 0.664434 0.007141
v 0.101180 0.726585 0.008551
v 0.085381 0.692187 0.008891
v 0.082996 0.692336 -0.005377
v 0.089757 0.686283 0.008777
v 0.052774 0.658550 -0.011605
v 0.101747 0.750071 0.004476
v -0.059648 0.666435 -0.011327
v -0.051007 0.670986 -0.008985
v -0.049102 0.676162 0.001569
v -0.062495 0.655200 0.000159
v -0.084887 0.682006 0.006964
v -0.098468 0.709474 -0.009738
v -0.108956 0.728263 0.003817
v -0.087551 0.722855 0.004763
v -0.086755 0.827796 -0.002998
v -0.091371 0.812268 0.010279
v -0.034970 0.861906 -0.007840
v -0.034011 0.869528 0.009129
v -0.023553 0.862982 0.013948
v -0.004023 0.877487 0.006926
v 0.019739 0.877407 -0.004832
v 0.019817 0.861120 0.001650
v 0.025916 0.862994 -0.006253
v 0.053742 0.857471 -0.006461
v -0.020241 0.648837 0.004027
v 0.015369 0.649129 0.004320
v -0.012269 0.648939 0.008973
v -0.018594 0.648727 -0.000260
v 0.013235 0.649316 0.000343
v 0.003431 0.693739 0.000301
v 0.002359 0.472350 0.003178
v -0.001602 0.515970 -0.009986
v 0.027912 0.469261 0.004997
v -0.015208 0.515872 0.014509
v 0.033196 0.580107 0.021323
v -0.024097 0.520112 -0.005920
v 0.012352 0.573977 -0.022684
v 0.035466 0.561943 0.002871
v 0.016328 0.580303 0.023300
v 0.037067 0.583268 -0.016722
v 0.003630 0.600450 -0.004483
v 0.027571 0.603960 -0.004405
v 0.021654 0.607273 0.015112
v 0.010056 0.623595 -0.018900
v -0.018477 0.621635 0.006682
v 0.004903 0.634896 0.001957
v 0.091994 0.709984 0.003480
v 0.115732 0.723748 0.004026
v 0.080733 0.671234 -0.001224
v 0.055246 0.655521 0.009313
v 0.109759 0.721315 0.009571
v 0.112583 0.744205 0.003119
v -0.035295 0.644346 0.009476
v -0.057282 0.668115 0.011926
v -0.098840 0.734553 -0.005877
v -0.099434 0.732067 0.011986
v -0.106073 0.791166 -0.003804
v -0.110425 0.748000 -0.008959
v -0.110389 0.756733 0.007678
v -0.080627 0.800587 -0.002624
v -0.090428 0.811621 -0.009722
v -0.059012 0.829243 -0.001407
v -0.052813 0.843829 0.009268
v -0.038665 0.868822 -0.000341
v -0.084178 0.801422 0.008326
v -0.034221 0.845313 0.002549
v -0.030391 0.853026 -0.009483
v 0.028219 0.871717 -0.007105
v 0.056953 0.852908 0.006048
v 0.061165 0.861608 0.005740
v 0.062322 0.859075 -0.003938
v 0.020046 0.864581 0.009368
v 0.035456 0.871464 0.010124
v -0.005128 0.646484 -0.005259
v -0.018588 0.648727 -0.000251
v -0.001257 0.872082 0.000726
v 0.001005 0.827726 -0.002614
v -0.077459 0.752806 -0.001294
v 0.006568 0.755062 0.002620
v -0.000163 0.755994 -0.002617
v -0.103868 0.757468 0.000237
v 0.004081 0.519390 0.003808
v 0.009612 0.600863 0.016386
v 0.003212 0.594380 0.006974
v 0.015269 0.638106 0.003184
v -0.017058 0.626224 -0.001991
v 0.014663 0.642312 -0.005889
v -0.005837 0.659084 -0.005857
v 0.109775 0.708413 -0.004057
v 0.098840 0.718592 -0.006932
v 0.067080 0.683568 0.003374
v 0.038357 0.642578 0.002750
v 0.112366 0.733464 -0.007334
v -0.076970 0.705504 -0.001937
v -0.092253 0.762206 -0.000398
v 0.100934 0.750472 -0.004470
v -0.002202 0.676927 -0.001819
v -0.000529 0.693703 0.003055
vn -0.8241 0.3369 0.4553
vn -0.6256 0.2691 -0.7322
vn -0.9206 -0.3441 0.1845
vn 0.2517 -0.2494 -0.9351
vn -0.4997 -0.3981 -0.7693
vn 0.7355 -0.1657 -0.6569
vn 0.8769 -0.3374 -0.3423
vn 0.6928 -0.1228 0.7106
vn 0.7365 -0.3823 0.5581
vn -0.1024 -0.7189 0.6876
vn 0.0638 -0.9906 -0.1208
vn -0.1789 -0.1347 0.9746
vn -0.0706 0.0128 -0.9974
vn 0.7583 -0.0030 -0.6519
vn 0.8506 -0.1218 0.5115
vn -0.3090 0.1525 0.9387
vn -0.9760 -0.1255 -0.1779
vn -0.6976 0.0096 -0.7164
vn 0.9314 0.0032 0.3639
vn -0.7657 -0.0079 0.6432
vn 0.9805 -0.1506 0.1261
vn -0.9110 0.0954 -0.4013
vn 0.5965 -0.0570 0.8006
vn 0.4623 -0.0525 0.8852
vn -0.6077 0.0903 0.7890
vn -0.9524 0.1378 0.2720
vn 0.9477 0.2089 -0.2411
vn 0.9531 0.0118 0.3025
vn -0.0749 0.0731 -0.9945
vn -0.9330 0.2439 -0.2646
vn -0.8366 -0.5200 0.1724
vn -0.4864 -0.2206 -0.8454
vn 0.6576 -0.1323 -0.7416
vn 0.6671 -0.7241 0.1753
vn 0.5806 -0.1046 0.8074
vn 0.8635 0.4503 0.2271
vn -0.3110 -0.0933 0.9458
vn -0.9359 -0.1759 0.3052
vn -0.9319 0.1170 -0.3433
vn -0.8584 0.3584 -0.3670
vn -0.2241 0.0290 -0.9741
vn -0.9022 -0.3267 -0.2815
vn -0.1187 0.0865 0.9891
vn -0.3173 -0.0352 0.9477
vn -0.9657 -0.0284 0.2581
vn 0.6858 0.0518 -0.7259
vn 0.8626 -0.5020 0.0627
vn 0.5591 -0.0222 0.8288
vn 0.3744 0.3355 -0.8645
vn 0.7870 0.5188 -0.3340
vn 0.9777 0.1995 0.0653
vn 0.8351 0.5315 0.1419
vn 0.5097 0.3173 0.7997
vn -0.6101 -0.1512 -0.7778
vn -0.9210 -0.3126 0.2324
vn -0.9063 -0.2121 -0.3656
vn -0.0323 0.3070 -0.9512
vn 0.1311 0.0804 -0.9881
vn -0.2267 -0.0115 0.9739
vn 0.5715 0.3938 -0.7199
vn 0.9210 0.3771 0.0974
vn 0.0542 -0.5186 0.8533
vn -0.2656 -0.7308 0.6288
vn 0.0647 -0.9979 0.0082
vn -0.1313 -0.7519 -0.6461
vn 0.0970 -0.5079 -0.8560
vn -0.2447 0.5277 -0.8134
vn 0.1058 0.6386 -0.7623
vn -0.1693 0.9589 0.2279
vn 0.2681 0.8503 0.4528
vn 0.0039 0.2991 0.9542
vn -0.3295 0.3351 -0.8827
vn -0.5278 0.1891 -0.8280
vn 0.5948 0.1366 -0.7922
vn 0.2275 -0.3617 -0.9041
vn 0.7536 -0.4485 -0.4805
vn 0.9596 -0.1135 0.2574
vn -0.2711 0.1169 0.9554
vn -0.8179 0.5455 0.1828
vn -0.4541 0.7705 0.4473
vn -0.6097 0.2155 0.7628
vn 0.6836 -0.7034 -0.1944
vn 0.4550 -0.4093 0.7908
vn 0.3915 -0.5596 0.7305
vn 0.4130 -0.0945 0.9058
vn 0.3476 -0.9356 0.0619
vn -0.3829 0.7643 -0.5189
vn -0.3614 0.7530 0.5499
vn 0.7795 0.5489 0.3018
vn -0.6081 -0.7933 -0.0309
vn -0.2213 -0.2497 -0.9427
vn 0.3105 0.4827 -0.8189
vn 0.5113 0.8336 0.2091
vn 0.8233 0.5657 0.0459
vn -0.7230 -0.5179 0.4572
vn 0.5204 0.1411 -0.8422
vn -0.0237 0.0535 0.9983
vn 0.8570 0.4769 0.1953
vn -0.0287 -0.0190 0.9994
vn -0.9153 -0.2765 0.2929
vn -0.5734 -0.2527 -0.7793
vn 0.8795 -0.1650 -0.4463
vn 0.5909 -0.2484 0.7675
vn -0.9226 0.2966 -0.2467
vn -0.2552 0.1313 -0.9579
vn -0.5982 -0.0067 -0.8013
vn -0.4972 0.2884 0.8183
vn -0.8162 0.0592 0.5748
vn -0.2085 0.4101 -0.8879
vn 0.7950 -0.4391 -0.4185
vn 0.6460 -0.5678 0.5102
vn 0.2032 -0.3370 0.9193
vn 0.1127 -0.3774 -0.9192
vn -0.3639 0.7200 0.5909
vn -0.7171 0.6622 -0.2177
vn 0.3872 -0.9158 0.1068
vn -0.4622 0.8402 -0.2836
vn 0.0916 0.8749 -0.4755
vn -0.0926 0.9221 0.3757
vn 0.0518 -0.9941 0.0950
vn -0.0292 0.0663 0.9974
vn 0.2565 0.6040 0.7546
vn 0.0675 -0.6199 0.7818
vn -0.0153 -0.6114 -0.7912
vn 0.8373 0.0009 -0.5467
vn 0.1699 0.3802 -0.9092
vn 0.7698 0.3813 0.5118
vn 0.3178 -0.8236 0.4698
vn -0.9579 -0.2550 -0.1320
vn -0.6966 0.2760 -0.6623
vn 0.6745 0.0703 -0.7349
vn -0.1699 0.5160 -0.8396
vn -0.3557 -0.0719 -0.9318
vn -0.5375 0.2546 0.8039
vn 0.7336 0.2899 0.6147
vn 0.4246 0.3705 0.8261
vn 0.2703 0.1116 -0.9563
vn 0.1384 0.9818 0.1297
vn 0.0208 -0.9995 -0.0245
vn -0.5042 -0.0829 0.8596
vn -0.9864 0.1484 0.0701
vn 0.1705 0.9320 0.3198
vn -0.5088 -0.1651 0.8449
vn 0.9973 -0.0699 -0.0212
vn -0.9698 0.0370 -0.2413
vn 0.1122 -0.4852 -0.8672
vn -0.8658 0.1212 0.4854
vt 0.911394 0.707766
vt 0.914663 0.706570
vt 0.907703 0.715099
vt 0.583092 0.703980
vt 0.619677 0.723716
vt 0.616902 0.732761
vt 0.593102 0.690141
vt 0.627077 0.715079
vt 0.031995 0.911607
vt 0.056057 0.907780
vt 0.062253 0.923312
vt 0.034170 0.927508
vt 0.944292 0.565787
vt 0.937370 0.557592
vt 0.958438 0.561452
vt 0.629191 0.731079
vt 0.887754 0.733295
vt 0.885460 0.740430
vt 0.883807 0.729730
vt 0.956405 0.546309
vt 0.893133 0.734528
vt 0.909118 0.744424
vt 0.892098 0.753098
vt 0.576936 0.673611
vt 0.583576 0.666808
vt 0.223098 0.926047
vt 0.199201 0.914952
vt 0.224770 0.907390
vt 0.680650 0.578840
vt 0.655860 0.577208
vt 0.663343 0.571210
vt 0.199203 0.928324
vt 0.808197 0.649887
vt 0.815666 0.617003
vt 0.821486 0.711187
vt 0.204539 0.038799
vt 0.220884 0.036673
vt 0.245343 0.080605
vt 0.238503 0.055096
vt 0.498575 0.400780
vt 0.625206 0.501688
vt 0.449608 0.597315
vt 0.271708 0.408783
vt 0.798769 0.526210
vt 0.812924 0.435695
vt 0.382361 0.341045
vt 0.306127 0.293720
vt 0.369225 0.311123
vt 0.883747 0.332173
vt 0.895566 0.285841
vt 0.897188 0.336660
vt 0.892460 0.907810
vt 0.853314 0.911575
vt 0.854206 0.902310
vt 0.905235 0.282487
vt 0.906321 0.891923
vt 0.257606 0.432429
vt 0.240199 0.374699
vt 0.716485 0.593785
vt 0.696118 0.563288
vt 0.721893 0.576694
vt 0.889607 0.095331
vt 0.879121 0.065789
vt 0.888972 0.088738
vt 0.711819 0.604933
vt 0.961776 0.570443
vt 0.885310 0.449075
vt 0.888040 0.417529
vt 0.899481 0.419604
vt 0.664048 0.900138
vt 0.627813 0.895958
vt 0.655802 0.896018
vt 0.899403 0.448715
vt 0.812464 0.707620
vt 0.647992 0.558590
vt 0.797425 0.700034
vt 0.427709 0.214335
vt 0.401234 0.205670
vt 0.607955 0.515789
vt 0.246195 0.368743
vt 0.799926 0.420121
vt 0.303076 0.107863
vt 0.886322 0.294093
vt 0.854085 0.895602
vt 0.893523 0.285340
vt 0.900362 0.275982
vt 0.905575 0.282416
vt 0.730163 0.395377
vt 0.709826 0.451427
vt 0.717874 0.369507
vt 0.397400 0.718671
vt 0.391618 0.709594
vt 0.399641 0.699231
vt 0.464948 0.718222
vt 0.467071 0.706641
vt 0.297735 0.268585
vt 0.274574 0.216669
vt 0.279426 0.206999
vt 0.309136 0.288972
vt 0.297364 0.301787
vt 0.465247 0.699655
vt 0.418004 0.693711
vt 0.141056 0.626801
vt 0.177469 0.623148
vt 0.194880 0.635391
vt 0.227528 0.614422
vt 0.187096 0.193707
vt 0.172330 0.169656
vt 0.149734 0.362125
vt 0.114370 0.292775
vt 0.160802 0.350531
vt 0.130342 0.613042
vt 0.211437 0.605948
vt 0.569658 0.232805
vt 0.556254 0.162245
vt 0.582127 0.182032
vt 0.135356 0.440295
vt 0.128538 0.442559
vt 0.113335 0.439697
vt 0.490013 0.867955
vt 0.485440 0.874723
vt 0.463983 0.856535
vt 0.367008 0.884148
vt 0.357321 0.894033
vt 0.364457 0.883407
vt 0.454291 0.877506
vt 0.483969 0.886954
vt 0.486884 0.897965
vt 0.634925 0.423913
vt 0.633308 0.410269
vt 0.635546 0.414387
vt 0.111782 0.280020
vt 0.093923 0.263221
vt 0.121118 0.264412
vt 0.168086 0.200698
vt 0.159398 0.173661
vt 0.317810 0.889933
vt 0.314899 0.880095
vt 0.353136 0.884291
vt 0.126124 0.030061
vt 0.116838 0.034518
vt 0.092206 0.030963
vt 0.093243 0.028943
vt 0.349594 0.900620
vt 0.328191 0.903769
vt 0.528833 0.872503
vt 0.521972 0.887023
vt 0.825273 0.820957
vt 0.846113 0.824102
vt 0.830201 0.829097
vt 0.671348 0.073861
vt 0.642413 0.063656
vt 0.654821 0.065701
vt 0.622163 0.079395
vt 0.653093 0.096507
vt 0.037405 0.494912
vt 0.045160 0.456651
vt 0.043393 0.498640
vt 0.537463 0.095211
vt 0.506316 0.123480
vt 0.487719 0.136279
vt 0.587592 0.072048
vt 0.501338 0.108958
vt 0.679311 0.834235
vt 0.650439 0.834907
vt 0.654517 0.825960
vt 0.421086 0.035085
vt 0.453010 0.037578
vt 0.405507 0.040061
vt 0.290329 0.714609
vt 0.252763 0.750906
vt 0.270548 0.735031
vt 0.525717 0.106635
vt 0.730500 0.834469
vt 0.702141 0.825864
vt 0.767874 0.825053
vt 0.471033 0.046784
vt 0.299559 0.705011
vt 0.296073 0.674434
vt 0.261254 0.753439
vt 0.314051 0.604920
vt 0.315195 0.669528
vt 0.390011 0.438566
vt 0.417034 0.440723
vt 0.391303 0.439986
vt 0.792458 0.831363
vt 0.611054 0.060051
vt 0.340695 0.035827
vt 0.355836 0.049666
vt 0.327775 0.042934
vt 0.302298 0.611102
vt 0.487648 0.157741
vt 0.470107 0.510976
vt 0.469134 0.502529
vt 0.491175 0.500730
vt 0.490576 0.514929
vt 0.494682 0.512189
vt 0.747411 0.918738
vt 0.728938 0.915417
vt 0.758320 0.909658
vt 0.180035 0.845276
vt 0.144521 0.837983
vt 0.200269 0.829161
vt 0.711622 0.126926
vt 0.697232 0.129214
vt 0.285687 0.552473
vt 0.031101 0.469093
vt 0.040181 0.431700
vt 0.031063 0.442544
vt 0.034928 0.378442
vt 0.098696 0.845079
vt 0.722853 0.223107
vt 0.719607 0.195042
vt 0.050195 0.413872
vt 0.040989 0.353475
vt 0.225683 0.518966
vt 0.162567 0.517502
vt 0.162602 0.506699
vt 0.255212 0.543916
vt 0.054351 0.827471
vt 0.813291 0.313294
vt 0.807077 0.303125
vt 0.820195 0.250333
vt 0.713234 0.280874
vt 0.681440 0.307238
vt 0.733513 0.243042
vt 0.707811 0.250815
vt 0.092327 0.563880
vt 0.073659 0.565856
vt 0.130480 0.519540
vt 0.343670 0.800683
vt 0.354426 0.788863
vt 0.384956 0.792253
vt 0.722547 0.217724
vt 0.599711 0.345805
vt 0.675143 0.294506
vt 0.811203 0.206095
vt 0.823501 0.163208
vt 0.597987 0.334669
vt 0.637397 0.322141
vt 0.810998 0.249538
vt 0.033165 0.654306
vt 0.053453 0.583394
vt 0.803112 0.149408
vt 0.815409 0.168533
vt 0.510037 0.791662
vt 0.570700 0.797484
vt 0.522723 0.797094
vt 0.551756 0.789219
vt 0.806445 0.107435
vt 0.042980 0.664076
vt 0.057235 0.730549
vt 0.039399 0.703131
vt 0.058532 0.712307
vt 0.528781 0.326229
vt 0.549841 0.328210
vt 0.582332 0.792306
vt 0.509010 0.326819
vt 0.486678 0.300776
vt 0.522389 0.332006
vt 0.725215 0.726138
vt 0.725649 0.760034
vt 0.713315 0.719039
vt 0.900926 0.193151
vt 0.897842 0.199163
vt 0.898791 0.164477
vt 0.305615 0.884548
vt 0.293607 0.884590
vt 0.533398 0.889840
vt 0.051040 0.258832
vt 0.034248 0.247547
vt 0.065341 0.256447
vt 0.041629 0.236171
vt 0.204036 0.283204
vt 0.205451 0.277250
vt 0.219157 0.274743
vt 0.172142 0.126386
vt 0.160667 0.142316
vt 0.143123 0.110000
vt 0.535658 0.884661
vt 0.535165 0.895853
vt 0.622285 0.960453
vt 0.619514 0.969046
vt 0.613642 0.962597
vt 0.950809 0.942307
vt 0.806176 0.988815
vt 1.302442 0.514486
vt 0.495801 0.531630
vt 0.263829 0.889967
vt 1.008595 0.598497
vt 0.322086 0.974420
vt 0.397036 0.551680
vt 0.172006 0.939207
vt 1.024286 0.585581
vt 0.573374 0.167255
vt 0.915432 0.408901
vt 0.850981 0.899035
vt 0.851646 0.910176
vt 0.842740 0.903756
vt 0.731630 0.466165
vt 0.244918 0.369137
vt 0.241339 0.375770
vt 0.588987 0.249191
vt 0.600462 0.249321
vt 0.140771 0.358911
vt 0.134747 0.636069
vt 0.575274 0.149728
vt 0.602371 0.162034
vt 0.255401 0.219253
vt 0.178275 0.207494
vt 0.182453 0.167660
vt 0.373657 0.866320
vt 0.361618 0.874042
vt 0.363786 0.868124
vt 0.455287 0.901060
vt 0.352202 0.872082
vt 0.326792 0.865097
vt 0.089165 0.277936
vt 0.052520 0.271054
vt 0.078541 0.252662
vt 0.312327 0.872038
vt 0.133375 0.122517
vt 0.324145 0.375534
vt 0.326487 0.373059
vt 0.328321 0.375405
vt 0.513089 0.863734
vt 0.310862 0.036574
vt 0.133988 0.828368
vt 0.548306 0.076277
vt 0.683231 0.821043
vt 0.769784 0.842832
vt 0.408810 0.046975
vt 0.299052 0.651654
vt 0.323254 0.636610
vt 0.320837 0.649787
vt 0.629807 0.060215
vt 0.341018 0.029739
vt 0.358031 0.030072
vt 0.245348 0.765598
vt 0.226465 0.760398
vt 0.265917 0.759482
vt 0.723987 0.917765
vt 0.274003 0.565245
vt 0.215842 0.833720
vt 0.734604 0.184046
vt 0.191566 0.523905
vt 0.028778 0.339805
vt 0.036888 0.839840
vt 0.330296 0.803759
vt 0.334525 0.791854
vt 0.802095 0.322921
vt 0.031348 0.057572
vt 0.029027 0.039185
vt 0.029688 0.028868
vt 0.178594 0.698764
vt 0.142541 0.699156
vt 0.146910 0.697481
vt 0.683950 0.319505
vt 0.048660 0.615614
vt 0.800975 0.029238
vt 0.806757 0.032041
vt 0.745932 0.030031
vt 0.431284 0.789712
vt 0.517094 0.781946
vt 0.736017 0.032665
vt 0.816731 0.110931
vt 0.548960 0.344371
vt 0.495289 0.301880
vt 0.714442 0.755693
vt 0.086375 0.753093
vt 0.084301 0.761801
vt 0.885896 0.197153
vt 0.884616 0.166039
vt 0.338855 0.376506
vt 0.339108 0.375168
vt 0.945647 0.053067
vt 0.954304 0.054303
vt 0.951402 0.068132
vt 0.959643 0.062100
vt 0.066784 0.519077
vt 0.056173 0.800246
vt 0.347300 0.423990
vt 0.153949 0.279953
vt 0.485602 0.121434
vt 0.547956 0.331517
vt 0.676906 0.486752
vt 0.775467 0.077895
vt 0.932101 0.927567
s 1
usemtl Material.001
f 2/1/1 26/2/2 12/3/3
f 26/4/2 14/5/4 13/6/5
f 4/7/6 3/8/7 14/5/4
f 3/9/7 4/10/6 27/11/8
f 3/9/7 27/11/8 15/12/9
f 16/13/10 5/14/11 15/15/9
f 3/8/7 5/16/11 14/5/4
f 12/17/3 16/18/10 1/19/12
f 15/15/9 5/14/11 3/20/7
f 12/21/3 13/22/5 5/23/11
f 26/4/2 8/24/13 18/25/14
f 4/26/6 6/27/15 27/28/8
f 27/29/8 6/30/15 19/31/16
f 4/26/6 18/32/14 6/27/15
f 7/33/17 10/34/18 8/35/13
f 6/36/15 18/37/14 20/38/19
f 8/39/13 20/38/19 18/37/14
f 19/31/16 23/40/20 7/41/17
f 8/24/13 10/42/18 22/43/21
f 23/44/20 21/45/22 7/33/17
f 11/46/23 28/47/24 9/48/25
f 9/49/25 24/50/26 21/51/22
f 22/52/21 29/53/27 25/54/28
f 21/51/22 24/50/26 30/55/29
f 22/52/21 25/54/28 11/56/23
f 10/42/18 21/57/22 30/58/29
f 1/59/12 19/31/16 2/60/1
f 12/61/3 1/59/12 2/60/1
f 12/62/3 26/63/2 13/64/5
f 26/4/2 4/7/6 14/5/4
f 15/65/9 27/29/8 1/59/12
f 1/59/12 27/29/8 19/31/16
f 1/66/12 16/13/10 15/15/9
f 14/5/4 5/16/11 13/6/5
f 16/18/10 12/21/3 5/23/11
f 2/67/1 19/68/16 17/69/30
f 4/7/6 26/4/2 18/25/14
f 8/70/13 26/71/2 17/72/30
f 26/73/2 2/67/1 17/69/30
f 17/74/30 7/33/17 8/35/13
f 19/31/16 6/30/15 20/75/19
f 17/74/30 19/76/16 7/33/17
f 20/38/19 22/77/21 11/78/23
f 23/40/20 19/31/16 9/48/25
f 19/31/16 20/79/19 11/46/23
f 9/48/25 19/31/16 11/46/23
f 22/43/21 10/42/18 29/80/27
f 23/44/20 9/81/25 21/45/22
f 20/38/19 8/82/13 22/77/21
f 10/34/18 7/33/17 21/45/22
f 9/49/25 28/83/24 24/50/26
f 11/56/23 25/54/28 28/84/24
f 10/42/18 30/58/29 29/80/27
f 25/54/28 29/298/27 28/84/24
usemtl Material.002
f 24/85/26 81/86/31 30/87/29
f 81/88/31 32/89/32 30/90/29
f 82/91/33 132/92/34 33/93/35
f 29/94/27 33/93/35 83/95/36
f 81/96/31 84/97/37 31/98/38
f 24/99/26 28/100/24 81/96/31
f 28/100/24 84/97/37 81/96/31
f 28/101/24 33/93/35 84/102/37
f 86/103/39 34/104/40 87/105/41
f 34/104/40 91/106/42 87/105/41
f 84/97/37 89/107/43 133/108/44
f 84/97/37 133/108/44 31/98/38
f 32/109/32 87/110/41 82/111/33
f 31/112/38 134/113/45 34/104/40
f 82/114/33 90/115/46 88/116/47
f 89/117/43 85/118/48 133/119/44
f 37/120/49 92/121/50 90/122/46
f 34/123/40 134/124/45 91/125/42
f 35/126/51 38/127/52 93/128/53
f 87/129/41 36/130/54 37/131/49
f 87/132/41 37/133/49 90/134/46
f 85/135/48 93/136/53 133/108/44
f 95/137/55 136/138/56 91/139/42
f 42/140/57 94/141/58 37/142/49
f 36/143/54 42/140/57 37/142/49
f 133/144/44 40/145/59 95/137/55
f 92/121/50 43/146/60 135/147/61
f 46/148/62 103/149/63 96/150/64
f 45/151/65 137/152/66 96/153/64
f 47/154/67 137/152/66 138/155/68
f 48/156/69 50/157/70 49/158/71
f 53/159/72 140/160/73 143/161/74
f 55/162/75 53/159/72 139/163/76
f 53/159/72 143/161/74 139/163/76
f 139/164/76 143/165/74 98/166/77
f 52/167/78 97/168/79 141/169/80
f 52/170/78 51/171/81 97/172/79
f 53/159/72 141/173/80 140/160/73
f 99/174/82 54/175/83 100/176/84
f 141/169/80 97/168/79 140/177/73
f 54/178/83 52/170/78 141/179/80
f 54/178/83 101/180/85 52/170/78
f 46/181/62 100/182/84 54/178/83
f 47/183/67 53/184/72 55/185/75
f 142/186/86 99/174/82 100/176/84
f 137/152/66 55/162/75 142/187/86
f 47/154/67 55/162/75 137/152/66
f 48/188/69 47/189/67 138/190/68
f 49/191/71 46/181/62 54/178/83
f 140/160/73 146/192/87 143/161/74
f 56/193/88 146/194/87 140/195/73
f 51/196/81 140/195/73 97/197/79
f 143/198/74 102/199/89 98/200/77
f 103/201/63 60/202/90 45/203/65
f 138/155/68 57/204/91 58/205/92
f 137/152/66 57/204/91 138/155/68
f 49/191/71 103/206/63 46/181/62
f 138/207/68 59/208/93 50/157/70
f 137/152/66 45/151/65 57/204/91
f 59/208/93 58/209/92 144/210/94
f 103/201/63 61/211/95 60/202/90
f 58/205/92 57/204/91 105/212/96
f 58/205/92 105/212/96 144/213/94
f 104/214/97 144/210/94 64/215/98
f 61/216/95 106/217/99 63/218/100
f 104/219/97 106/217/99 61/216/95
f 60/202/90 61/211/95 62/220/101
f 106/221/99 145/222/102 115/223/103
f 107/224/104 111/225/105 108/226/106
f 108/226/106 111/225/105 145/227/102
f 106/217/99 115/228/103 66/229/107
f 106/217/99 66/229/107 109/230/108
f 108/231/106 109/232/108 107/233/104
f 105/212/96 145/227/102 64/234/98
f 111/225/105 67/235/109 110/236/110
f 112/237/111 113/238/112 115/223/103
f 110/236/110 117/239/113 112/240/111
f 110/241/110 112/237/111 115/223/103
f 66/229/107 68/242/114 65/243/115
f 112/237/111 117/244/113 116/245/116
f 114/246/117 71/247/118 67/248/109
f 114/246/117 70/249/119 71/247/118
f 117/244/113 72/250/120 116/245/116
f 69/251/121 123/252/122 70/253/119
f 69/251/121 122/254/123 123/252/122
f 117/239/113 73/255/124 72/256/120
f 70/249/119 123/257/122 71/247/118
f 71/258/118 121/259/125 118/260/126
f 123/261/122 120/262/127 71/263/118
f 122/264/123 72/265/120 119/266/128
f 41/267/129 75/268/130 136/138/56
f 135/147/61 43/146/60 76/269/131
f 42/270/57 124/271/132 94/272/58
f 94/272/58 124/271/132 43/273/60
f 75/274/130 124/275/132 39/276/133
f 95/277/55 40/278/59 77/279/134
f 79/280/135 44/281/136 135/147/61
f 146/282/87 56/283/88 102/284/89
f 148/285/137 147/286/138 126/287/139
f 147/286/138 127/288/140 126/287/139
f 147/286/138 80/289/141 127/288/140
f 128/290/142 130/291/143 131/292/144
f 131/292/144 130/291/143 129/293/145
f 128/294/142 131/295/144 129/296/145
f 28/297/24 29/298/27 83/299/36
f 81/88/31 31/300/38 32/89/32
f 29/94/27 82/91/33 33/93/35
f 28/101/24 83/95/36 33/93/35
f 29/301/27 30/302/29 32/109/32
f 29/301/27 32/109/32 82/111/33
f 132/303/34 82/114/33 88/116/47
f 132/303/34 88/116/47 33/304/35
f 32/109/32 86/305/39 87/110/41
f 86/103/39 31/112/38 34/104/40
f 31/112/38 86/103/39 32/306/32
f 88/116/47 35/307/51 85/308/48
f 33/304/35 88/116/47 85/308/48
f 33/309/35 85/310/48 89/107/43
f 31/98/38 133/108/44 134/311/45
f 33/309/35 89/107/43 84/97/37
f 82/111/33 87/110/41 90/134/46
f 88/116/47 90/115/46 35/307/51
f 35/126/51 90/122/46 92/121/50
f 35/126/51 92/121/50 38/127/52
f 87/312/41 91/313/42 36/314/54
f 85/315/48 35/126/51 93/128/53
f 134/124/45 95/137/55 91/139/42
f 91/139/42 136/138/56 36/316/54
f 36/316/54 136/138/56 39/317/133
f 36/318/54 39/319/133 42/270/57
f 133/108/44 93/136/53 40/278/59
f 134/124/45 133/144/44 95/137/55
f 37/133/49 94/272/58 92/320/50
f 93/128/53 38/127/52 135/147/61
f 136/138/56 75/321/130 39/317/133
f 93/128/53 135/147/61 44/281/136
f 40/278/59 93/136/53 44/322/136
f 136/323/56 95/324/55 41/325/129
f 92/121/50 94/326/58 43/146/60
f 38/127/52 92/121/50 135/147/61
f 48/188/69 138/190/68 50/327/70
f 45/203/65 60/202/90 57/328/91
f 54/175/83 139/164/76 98/166/77
f 52/170/78 101/180/85 51/171/81
f 99/329/82 55/162/75 139/163/76
f 99/174/82 139/164/76 54/175/83
f 54/175/83 98/166/77 101/330/85
f 142/186/86 55/331/75 99/174/82
f 47/189/67 141/169/80 53/332/72
f 48/333/69 54/178/83 141/179/80
f 47/189/67 48/188/69 141/169/80
f 46/181/62 142/334/86 100/335/84
f 96/336/64 137/152/66 142/187/86
f 96/150/64 142/186/86 46/148/62
f 48/188/69 49/337/71 54/338/83
f 140/195/73 51/196/81 56/193/88
f 101/180/85 102/339/89 56/340/88
f 98/341/77 102/339/89 101/180/85
f 143/198/74 146/342/87 102/199/89
f 101/180/85 56/340/88 51/171/81
f 138/207/68 58/209/92 59/208/93
f 49/191/71 50/343/70 104/219/97
f 45/203/65 96/344/64 103/201/63
f 49/191/71 104/219/97 103/206/63
f 57/328/91 60/202/90 62/220/101
f 59/208/93 144/210/94 104/214/97
f 50/157/70 59/208/93 104/214/97
f 103/206/63 104/219/97 61/216/95
f 57/204/91 62/345/101 105/212/96
f 62/345/101 108/226/106 105/212/96
f 104/219/97 64/346/98 106/217/99
f 144/210/94 105/347/96 64/215/98
f 62/220/101 61/211/95 63/348/100
f 62/349/101 63/350/100 108/231/106
f 106/221/99 64/351/98 145/222/102
f 105/212/96 108/226/106 145/227/102
f 63/218/100 106/217/99 109/230/108
f 108/231/106 63/350/100 109/232/108
f 107/352/104 66/353/107 65/354/115
f 109/355/108 66/356/107 107/357/104
f 145/227/102 111/225/105 110/236/110
f 115/223/103 145/222/102 110/241/110
f 111/225/105 107/224/104 65/358/115
f 66/229/107 115/228/103 113/359/112
f 110/236/110 67/235/109 117/239/113
f 66/229/107 113/359/112 68/242/114
f 111/360/105 65/361/115 67/362/109
f 65/363/115 68/364/114 114/246/117
f 65/361/115 114/365/117 67/362/109
f 112/237/111 116/245/116 113/238/112
f 113/359/112 69/251/121 68/242/114
f 114/246/117 68/364/114 70/249/119
f 113/238/112 116/245/116 122/366/123
f 68/242/114 69/251/121 70/253/119
f 117/239/113 67/235/109 118/260/126
f 67/235/109 71/367/118 118/260/126
f 118/260/126 73/255/124 117/239/113
f 122/366/123 116/245/116 72/250/120
f 69/251/121 113/359/112 122/254/123
f 118/260/126 121/259/125 74/368/146
f 118/260/126 74/368/146 73/255/124
f 71/263/118 120/262/127 121/369/125
f 123/252/122 119/370/128 120/371/127
f 123/252/122 122/254/123 119/370/128
f 73/372/124 119/266/128 72/265/120
f 119/266/128 73/372/124 74/373/146
f 39/319/133 124/271/132 42/270/57
f 125/374/147 95/324/55 77/375/134
f 41/325/129 95/324/55 125/374/147
f 40/278/59 44/322/136 77/279/134
f 74/376/146 121/377/125 119/378/128
f 119/378/128 121/377/125 120/379/127
f 126/380/139 80/289/141 148/381/137
f 148/382/137 80/383/141 147/384/138
f 80/385/141 126/386/139 127/387/140
f 128/290/142 129/388/145 130/291/143
l 78 125
o LeatherStraps
v -0.058518 0.666733 0.011404
v -0.076758 0.682846 0.011728
v -0.063546 0.660838 0.002306
v -0.082116 0.676563 0.001567
v -0.063283 0.661123 -0.004004
v -0.081757 0.676961 -0.004058
v -0.061158 0.663581 -0.010040
v -0.076572 0.682975 -0.013833
v -0.052828 0.673289 -0.012738
v -0.066382 0.694890 -0.005463
v -0.047333 0.679737 -0.001277
v -0.067881 0.693186 0.007413
v -0.050889 0.675625 0.009361
v -0.066324 0.648250 -0.005448
v -0.087273 0.662884 -0.006343
v -0.067232 0.623429 -0.003846
v -0.073809 0.584129 -0.005025
v -0.092022 0.600254 -0.005646
v -0.072960 0.683964 0.011527
v -0.092698 0.698581 0.009015
v -0.081723 0.677206 0.003195
v -0.096346 0.695811 -0.001596
v -0.077598 0.680501 -0.011217
v -0.090380 0.700512 -0.012229
v -0.065785 0.689676 -0.010319
v -0.077263 0.710669 -0.006265
v -0.063255 0.691545 0.005110
v -0.082100 0.706807 0.010637
vn -0.4976 -0.5763 0.6484
vn -0.6436 -0.7629 -0.0613
vn -0.5723 -0.6692 -0.4741
vn -0.0483 -0.2284 -0.9724
vn -0.0483 -0.2283 -0.9724
vn -0.0482 -0.2284 -0.9724
vn 0.5769 0.5616 -0.5931
vn 0.5769 0.5615 -0.5932
vn 0.6142 0.6448 0.4550
vn -0.7592 0.6509 -0.0022
vn 0.1236 0.1199 0.9851
vn 0.1235 0.1199 0.9851
vn 0.7592 -0.6509 0.0022
vn 0.1050 0.1191 -0.9873
vn 0.0890 -0.0178 -0.9959
vn -0.4224 -0.4336 0.7960
vn -0.6935 -0.6333 -0.3436
vn -0.6934 -0.6333 -0.3436
vn 0.0769 -0.0014 -0.9970
vn 0.8432 0.4994 -0.1991
vn 0.8432 0.4993 -0.1991
vn -0.6136 0.7896 0.0048
vn 0.4240 0.2041 0.8824
vn 0.6136 -0.7896 -0.0049
vn -0.5160 -0.5797 0.6306
vn -0.6478 -0.7558 -0.0953
vn -0.5434 -0.5551 -0.6298
vn 0.2161 0.4307 -0.8762
vn 0.5896 0.7890 0.1731
vn 0.1598 0.2602 0.9522
vn 0.7594 -0.6507 0.0023
vn 0.7591 -0.6509 0.0024
vn 0.7591 -0.6510 0.0024
vn 0.1030 0.0868 -0.9909
vn -0.0023 -0.0643 -0.9979
vn 0.0527 0.0211 -0.9984
vn -0.1385 -0.0168 0.9902
vn -0.7688 -0.5024 0.3955
vn -0.6727 -0.4590 -0.5804
vn 0.2006 0.2904 -0.9357
vn 0.6500 0.6790 0.3412
vt 0.275482 0.025076
vt 0.312521 0.227377
vt 0.275482 0.224763
vt 0.317677 0.027912
vt 0.362227 0.228500
vt 0.362227 0.028813
vt 0.405143 0.226995
vt 0.512784 0.528718
vt 0.562039 0.729308
vt 0.480839 0.729491
vt 0.308843 0.279551
vt 0.335363 0.478849
vt 0.275482 0.480666
vt 0.399887 0.280890
vt 0.408563 0.481031
vt 0.587892 0.039920
vt 0.661460 0.095858
vt 0.595884 0.212717
vt 0.751946 0.528539
vt 0.755322 0.729210
vt 0.669848 0.729228
vt 0.503324 0.305605
vt 0.660605 0.374964
vt 0.622869 0.458317
vt 0.225329 0.139556
vt 0.024977 0.146078
vt 0.060547 0.025076
vt 0.225329 0.451460
vt 0.041289 0.662580
vt 0.584196 0.779906
vt 0.599468 0.974900
vt 0.534730 0.974777
vt 0.779042 0.025481
vt 0.836448 0.220359
vt 0.749439 0.220473
vt 0.292144 0.974831
vt 0.305528 0.779851
vt 0.390551 0.974831
vt 0.309423 0.534750
vt 0.375701 0.728131
vt 0.289955 0.728349
vt 0.736396 0.337294
vt 0.905422 0.369497
vt 0.869206 0.449961
vt 0.490837 0.779879
vt 0.474817 0.974852
vt 0.704881 0.800251
vt 0.812599 0.806225
vt 0.749111 0.969981
vt 0.405082 0.027335
vt 0.604524 0.528943
vt 0.493479 0.188316
vt 0.477721 0.091481
vt 0.662027 0.141323
vt 0.668294 0.528556
vt 0.471390 0.400414
vt 0.470866 0.349434
vt 0.533010 0.467269
vt 0.599239 0.289686
vt 0.213379 0.248343
vt 0.204486 0.779346
vt 0.721037 0.027941
vt 0.847003 0.026937
vt 0.396051 0.779894
vt 0.400095 0.533118
vt 0.770111 0.455617
vt 0.847364 0.291011
vt 0.836134 0.915955
vt 0.670640 0.905185
s 0
usemtl Material.007
f 150/389/148 151/390/148 149/391/148
f 152/392/149 153/393/149 151/390/149
f 154/394/150 155/395/150 153/393/150
f 156/396/151 157/397/152 155/398/153
f 158/399/154 159/400/155 157/401/154
f 160/402/156 161/403/156 159/400/156
f 156/404/157 154/405/157 150/406/157
f 150/407/158 149/408/159 161/409/159
f 155/410/160 159/411/160 161/412/160
f 153/413/161 163/414/161 154/415/161
f 164/416/162 166/417/162 163/414/162
f 168/418/163 169/419/163 167/420/163
f 170/421/164 171/422/164 169/423/165
f 171/424/166 172/425/166 173/426/166
f 174/427/167 175/428/168 173/429/167
f 174/430/169 170/431/169 168/432/169
f 176/433/170 167/420/170 175/434/170
f 171/435/171 173/436/171 167/437/171
f 150/389/172 152/392/172 151/390/172
f 152/392/173 154/394/173 153/393/173
f 154/394/174 156/438/174 155/395/174
f 156/396/175 158/439/175 157/397/175
f 158/399/176 160/402/176 159/400/176
f 160/440/157 158/441/157 156/404/157
f 154/405/157 152/442/157 150/406/157
f 150/406/157 160/440/157 156/404/157
f 160/443/177 150/407/177 161/409/177
f 151/444/178 153/445/178 155/410/178
f 161/412/179 149/446/180 151/444/180
f 155/410/160 157/447/160 159/411/160
f 161/412/160 151/444/160 155/410/160
f 153/413/181 162/448/181 163/414/181
f 162/448/182 164/416/182 163/414/182
f 164/416/183 165/449/183 166/417/183
f 167/420/184 176/433/184 168/418/184
f 169/423/185 168/450/185 170/421/185
f 171/422/186 170/421/186 172/451/186
f 172/425/187 174/452/187 173/426/187
f 174/427/188 176/453/188 175/428/188
f 168/432/169 176/454/169 174/430/169
f 174/430/169 172/455/169 170/431/169
f 173/436/171 175/456/171 167/437/171
f 167/437/171 169/457/171 171/435/171
o ManaSphere
v -0.025858 0.790701 -0.005551
v -0.027814 0.784708 0.005438
v -0.034903 0.758731 0.005437
v -0.033958 0.749097 -0.005457
v -0.014000 0.729364 0.005533
v -0.010437 0.728755 -0.005435
v 0.019399 0.732167 -0.005459
v 0.021546 0.735348 0.005436
v 0.034902 0.758731 0.005438
v 0.037181 0.766825 -0.005490
v 0.013930 0.796791 -0.005451
v 0.027815 0.784709 0.005437
v 0.000000 0.798993 0.005455
v 0.000000 0.804253 -0.000000
v -0.025985 0.794825 -0.000000
v -0.040301 0.771179 -0.000000
v -0.033284 0.737818 -0.000000
v 0.006826 0.721186 -0.000000
v 0.036123 0.743855 -0.000000
v 0.040301 0.771179 -0.000000
v 0.025985 0.794825 -0.000000
vn -0.2527 0.6965 0.6716
vn -0.8752 -0.1841 0.4474
vn -0.3819 -0.9210 -0.0763
vn 0.5676 -0.7335 0.3740
vn 0.7088 0.4291 0.5599
vn -0.0001 -0.0003 1.0000
vn -0.0013 0.0002 -1.0000
vn 0.2527 0.6965 0.6716
vn 0.4330 0.3371 -0.8360
vn 0.8343 -0.1276 0.5363
vn 0.4423 -0.2277 -0.8675
vn 0.0559 -0.4951 -0.8670
vn -0.3651 -0.4231 -0.8293
vn -0.4578 0.0871 -0.8848
vn -0.7088 0.4291 0.5599
vn -0.0736 0.4951 -0.8657
vn -0.2538 0.4932 0.8321
vn -0.5205 0.1420 0.8419
vn -0.3701 -0.2605 0.8917
vn -0.0002 -0.0000 1.0000
vn 0.0019 0.0047 1.0000
vn -0.0007 0.0001 1.0000
vn 0.0006 -0.0001 1.0000
vn 0.0029 -0.0028 -1.0000
vn -0.0007 -0.0005 -1.0000
vn 0.0006 -0.0004 -1.0000
vn 0.3150 0.8682 -0.3834
vn 0.2538 0.4931 0.8321
vn 0.6368 0.3856 -0.6677
vn 0.5205 0.1420 0.8419
vn 0.9041 -0.1382 -0.4043
vn 0.4703 -0.2687 0.8406
vn 0.6021 -0.7782 -0.1785
vn 0.0737 -0.4233 0.9030
vn -0.3818 -0.9216 -0.0693
vn -0.3817 -0.9217 -0.0698
vn -0.3817 -0.9217 -0.0696
vn -0.9362 -0.1969 -0.2913
vn -0.7931 0.4802 -0.3748
vn -0.2786 0.7679 -0.5769
vt 0.084467 0.624589
vt 0.189778 0.624485
vt 0.091889 0.434100
vt 0.479318 0.204073
vt 0.479310 0.076021
vt 0.288980 0.152121
vt 0.266474 0.624265
vt 0.358565 0.624569
vt 0.324325 0.434075
vt 0.467022 0.624353
vt 0.425893 0.434053
vt 0.125726 0.208501
vt 0.226279 0.208227
vt 0.188125 0.017926
vt 0.971011 0.443667
vt 0.725294 0.404205
vt 0.792908 0.589831
vt 0.979947 0.156441
vt 0.709869 0.169787
vt 0.793495 0.277588
vt 0.028701 0.624363
vt 0.115423 0.398490
vt 0.225162 0.398264
vt 0.086570 0.017943
vt 0.034197 0.208167
vt 0.033302 0.398149
vt 0.307746 0.814543
vt 0.413653 0.814599
vt 0.669475 0.117130
vt 0.669156 0.036567
vt 0.669248 0.219754
vt 0.288681 0.225705
vt 0.478991 0.253321
vt 0.055215 0.814525
vt 0.180096 0.814533
vt 0.201403 0.433943
vt 0.288688 0.047291
vt 0.818026 0.334852
vt 0.917051 0.357576
vt 0.920693 0.563218
vt 0.718998 0.520119
vt 0.928156 0.052770
vt 0.778753 0.045027
vt 0.931894 0.257240
vt 0.236594 0.017638
vt 0.035837 0.017638
vt 0.045259 0.017722
s 0
usemtl Material.006
f 190/458/189 191/459/189 189/460/189
f 192/461/190 193/462/190 179/463/190
f 193/464/191 194/465/191 181/466/191
f 194/465/192 195/467/192 184/468/192
f 196/469/193 197/470/193 188/471/193
f 184/472/194 189/473/194 179/474/194
f 182/475/195 187/476/195 186/477/195
f 189/460/196 197/478/196 190/458/196
f 197/470/197 186/479/197 187/480/197
f 185/481/198 195/482/198 196/469/198
f 183/483/199 186/479/199 195/482/199
f 182/484/200 183/485/200 194/465/200
f 193/462/201 180/486/201 182/487/201
f 177/488/202 180/486/202 192/461/202
f 178/489/203 191/490/203 192/461/203
f 187/491/204 177/492/204 190/458/204
f 191/459/205 178/493/205 189/460/205
f 192/461/206 179/463/206 178/489/206
f 193/462/207 181/494/207 179/463/207
f 188/495/208 184/472/208 185/496/208
f 184/472/209 179/474/209 181/497/209
f 179/474/210 189/473/210 178/498/210
f 189/473/211 184/472/211 188/495/211
f 187/476/212 180/499/212 177/500/212
f 182/475/213 186/477/213 183/501/213
f 187/476/214 182/475/214 180/499/214
f 187/491/215 190/458/215 197/478/215
f 188/471/216 197/470/216 189/502/216
f 196/469/217 186/479/217 197/470/217
f 185/481/218 196/469/218 188/471/218
f 186/479/219 196/469/219 195/482/219
f 184/503/220 195/482/220 185/504/220
f 194/465/221 183/485/221 195/467/221
f 181/466/222 194/465/222 184/468/222
f 193/464/223 182/484/224 194/465/225
f 192/461/226 180/486/226 193/462/226
f 177/488/227 192/461/227 191/490/227
f 190/458/228 177/492/228 191/459/228
