# Blender 4.2.2 LTS
# www.blender.org
mtllib upperClothing.mtl
o 上着
v 0.000000 0.036891 -0.134059
v -0.032875 0.038346 -0.130637
v -0.019399 0.036993 -0.131831
v -0.095794 0.035174 -0.135225
v -0.072282 0.039648 -0.130627
v -0.052373 0.041162 -0.130738
v -0.111029 0.029369 -0.134001
v -0.121581 0.019145 -0.134089
v 0.000000 0.120132 -0.063448
v -0.042250 0.120728 -0.060758
v -0.006686 0.036942 -0.133201
v -0.022681 0.150423 -0.052168
v -0.019714 0.120985 -0.062857
v -0.050052 0.150603 -0.038160
v 0.000000 0.150979 -0.056556
v -0.056578 0.145249 -0.007831
v -0.060173 0.133052 -0.043628
v -0.119431 0.038049 -0.101101
v -0.065470 0.132177 -0.025004
v -0.069782 0.131259 -0.001428
v -0.067241 0.128370 0.027720
v -0.049677 0.141066 0.042298
v -0.054991 0.143869 0.021043
v -0.140273 -0.015056 -0.105173
v -0.141695 0.036512 -0.011978
v -0.137445 0.059994 0.027572
v -0.122285 0.088650 0.047598
v -0.099739 0.108479 0.036626
v -0.035499 0.064618 -0.097561
v -0.021281 0.073751 -0.087819
v -0.011326 0.081753 -0.082757
v -0.003446 0.090747 -0.076246
v 0.000000 0.100510 -0.069516
v -0.051098 0.082148 -0.079539
v -0.069499 0.064662 -0.095830
v -0.078669 0.091412 -0.069056
v -0.091402 0.060750 -0.098108
v -0.063747 0.118481 -0.056058
v -0.143298 -0.035438 -0.007799
v -0.143012 -0.035432 0.028538
v -0.033977 0.139912 0.056006
v 0.000000 0.139611 0.063656
v -0.060833 0.124348 0.046156
v -0.045913 0.116198 0.064599
v 0.000000 0.115133 0.070795
v -0.127001 -0.038311 0.058795
v -0.110888 -0.038754 0.074945
v -0.084799 -0.039675 0.086036
v -0.058405 -0.041322 0.096030
v -0.027801 -0.038120 0.100808
v 0.000000 -0.039357 0.101008
v 0.000000 0.001164 0.099466
v 0.000000 0.049238 0.090937
v 0.000000 0.100021 0.076145
v -0.051919 0.148051 -0.023037
v -0.019788 0.096893 -0.069688
v -0.046690 0.101814 -0.069761
v -0.043945 0.053130 -0.113877
v -0.070901 0.051841 -0.113009
v -0.057471 0.052575 -0.113376
v -0.054074 0.063097 -0.097201
v -0.073698 0.121141 -0.043915
v -0.091072 0.096466 -0.062091
v -0.082520 0.109253 -0.056400
v -0.081979 0.122341 -0.024503
v -0.071201 0.105073 -0.062569
v -0.084034 0.119752 0.004102
v -0.082715 0.117213 0.031471
v -0.075013 0.113012 0.051446
v -0.100912 0.111880 -0.032926
v -0.059168 0.098793 0.076403
v -0.025934 0.093261 0.077892
v -0.057890 0.057942 0.089217
v -0.022246 0.114896 0.070268
v -0.016513 0.139762 0.059831
v -0.029789 0.050673 0.093325
v -0.028246 0.002552 0.099885
v -0.128793 0.036295 0.049560
v -0.093215 0.048755 -0.115622
v -0.104356 0.108779 0.000231
v -0.094658 0.098784 0.057737
v -0.117561 0.055526 -0.073699
v -0.135223 0.059973 -0.057155
v -0.121940 0.093406 -0.038297
v -0.128611 0.083072 -0.000586
v -0.086265 0.077401 0.078417
v -0.124028 0.095795 0.001525
v -0.054493 0.009813 0.091085
v -0.109840 0.022337 0.071417
v -0.086920 0.023513 0.079863
v -0.107489 0.067019 0.068513
v -0.138790 0.003956 0.035533
v -0.136128 0.032871 -0.066946
v -0.104750 0.049325 -0.101503
v -0.106445 0.038413 -0.115084
v -0.119853 0.027954 -0.118391
v 0.000000 0.019152 -0.160947
v -0.032833 0.020118 -0.157631
v -0.017231 0.019254 -0.158924
v -0.095752 0.017435 -0.162113
v -0.072240 0.021394 -0.157626
v -0.052331 0.021603 -0.158019
v -0.110987 0.011629 -0.160889
v -0.124624 0.003193 -0.151124
v -0.006644 0.019203 -0.160089
v -0.143396 -0.068841 -0.061471
v -0.151533 -0.073498 -0.038173
v -0.150827 -0.078833 -0.008283
v -0.150628 -0.079836 0.025540
v -0.135773 -0.082710 0.053653
v -0.120810 -0.083121 0.068649
v -0.098236 -0.086048 0.081498
v -0.063984 -0.084175 0.100556
v -0.032162 -0.079719 0.105685
v 0.000000 -0.082827 0.107396
v -0.154419 -0.101486 -0.042010
v -0.158220 -0.105487 -0.010540
v -0.157516 -0.112174 0.021707
v -0.160103 -0.110820 0.038034
v -0.144150 -0.114100 0.067253
v -0.128114 -0.114852 0.081719
v -0.102071 -0.115768 0.092818
v -0.075716 -0.117425 0.102728
v -0.045153 -0.114216 0.107563
v 0.000000 -0.115575 0.107675
v -0.136836 -0.040581 -0.122283
v -0.139664 -0.054660 -0.094541
v 0.000000 -0.008801 -0.174065
v -0.037068 -0.007267 -0.170879
v -0.021581 -0.008707 -0.172283
v -0.095494 -0.012897 -0.172646
v -0.073661 -0.006107 -0.170878
v -0.055174 -0.003726 -0.170878
v -0.112768 -0.015787 -0.169009
v -0.121245 -0.025728 -0.155794
v -0.009128 -0.009312 -0.173675
v -0.136540 -0.068453 -0.114899
v -0.139829 -0.084436 -0.080284
v 0.000000 -0.035006 -0.170021
v -0.032057 -0.033423 -0.166582
v -0.020397 -0.035210 -0.168056
v -0.099253 -0.036975 -0.171157
v -0.075739 -0.032323 -0.166565
v -0.055825 -0.029653 -0.166576
v -0.114497 -0.042964 -0.169915
v -0.125059 -0.053470 -0.153011
v -0.010132 -0.034956 -0.169163
v -0.143226 0.014072 -0.019193
v -0.141561 -0.020611 -0.084686
v -0.142839 -0.023823 -0.061226
v -0.151813 -0.144050 -0.048609
v -0.152624 -0.145442 -0.017181
v -0.151935 -0.152349 0.014993
v -0.151770 -0.153933 0.050192
v -0.136010 -0.157984 0.075145
v -0.120027 -0.158767 0.089395
v -0.094053 -0.159684 0.100438
v -0.067774 -0.161323 0.110388
v -0.037304 -0.158136 0.115145
v 0.000000 -0.159468 0.115378
v -0.133960 -0.101911 -0.100782
v -0.141157 -0.117157 -0.073055
v 0.000000 -0.067720 -0.158590
v -0.038067 -0.066066 -0.155168
v -0.023361 -0.068514 -0.156618
v -0.093714 -0.069494 -0.159749
v -0.075451 -0.064821 -0.155172
v -0.055598 -0.062250 -0.155175
v -0.108924 -0.075364 -0.158509
v -0.119452 -0.085612 -0.141655
v -0.010833 -0.068860 -0.158200
v -0.127808 -0.136571 -0.127786
v 0.000000 -0.113662 -0.172945
v -0.041107 -0.111911 -0.170680
v -0.029348 -0.113370 -0.171980
v -0.091417 -0.114507 -0.174779
v -0.072621 -0.110676 -0.171162
v -0.056678 -0.108751 -0.171119
v -0.103655 -0.118968 -0.173594
v -0.112329 -0.126031 -0.159595
v -0.017854 -0.114370 -0.172671
v -0.031517 0.081015 -0.081116
v -0.043299 0.073383 -0.088550
v -0.120068 -0.131301 -0.143690
v -0.128797 -0.093761 -0.122279
v -0.130800 -0.060961 -0.133955
v -0.129041 -0.033155 -0.139038
v -0.132448 -0.005931 -0.128149
v -0.138257 0.004713 -0.096904
v -0.131521 0.014356 -0.119319
v -0.129016 0.034637 -0.088683
v -0.143424 -0.029902 -0.035229
v -0.137868 0.002114 0.000980
v -0.137829 0.019822 0.011907
v -0.143435 0.000154 -0.062656
v -0.141044 0.025293 -0.045070
v -0.138459 0.048243 -0.034567
v 0.032875 0.038346 -0.130637
v 0.019399 0.036993 -0.131831
v 0.095794 0.035174 -0.135225
v 0.072282 0.039648 -0.130627
v 0.052373 0.041162 -0.130738
v 0.111029 0.029369 -0.134001
v 0.121581 0.019145 -0.134089
v 0.042250 0.120728 -0.060758
v 0.006686 0.036942 -0.133201
v 0.022681 0.150423 -0.052168
v 0.019714 0.120985 -0.062857
v 0.050052 0.150603 -0.038160
v 0.056578 0.145249 -0.007831
v 0.060173 0.133052 -0.043628
v 0.119431 0.038049 -0.101101
v 0.065470 0.132177 -0.025004
v 0.069782 0.131259 -0.001428
v 0.067241 0.128370 0.027720
v 0.049677 0.141066 0.042298
v 0.054991 0.143869 0.021043
v 0.140273 -0.015056 -0.105173
v 0.141695 0.036512 -0.011978
v 0.137445 0.059994 0.027572
v 0.122285 0.088650 0.047598
v 0.099739 0.108479 0.036626
v 0.035499 0.064618 -0.097561
v 0.021281 0.073751 -0.087819
v 0.011326 0.081753 -0.082757
v 0.003446 0.090747 -0.076246
v 0.051098 0.082148 -0.079539
v 0.069499 0.064662 -0.095830
v 0.078669 0.091412 -0.069056
v 0.091402 0.060750 -0.098108
v 0.063747 0.118481 -0.056058
v 0.143298 -0.035438 -0.007799
v 0.143012 -0.035432 0.028538
v 0.033977 0.139912 0.056006
v 0.060833 0.124348 0.046156
v 0.045913 0.116198 0.064599
v 0.127001 -0.038311 0.058795
v 0.110888 -0.038754 0.074945
v 0.084799 -0.039675 0.086036
v 0.058405 -0.041322 0.096030
v 0.027801 -0.038120 0.100808
v 0.051919 0.148051 -0.023037
v 0.019788 0.096893 -0.069688
v 0.046690 0.101814 -0.069761
v 0.043945 0.053130 -0.113877
v 0.070901 0.051841 -0.113009
v 0.057471 0.052575 -0.113376
v 0.054074 0.063097 -0.097201
v 0.073698 0.121141 -0.043915
v 0.091072 0.096466 -0.062091
v 0.082520 0.109253 -0.056400
v 0.081979 0.122341 -0.024503
v 0.071201 0.105073 -0.062569
v 0.084034 0.119752 0.004102
v 0.082715 0.117213 0.031471
v 0.075013 0.113012 0.051446
v 0.100912 0.111880 -0.032926
v 0.059168 0.098793 0.076403
v 0.025934 0.093261 0.077892
v 0.057890 0.057942 0.089217
v 0.022246 0.114896 0.070268
v 0.016513 0.139762 0.059831
v 0.029789 0.050673 0.093325
v 0.028246 0.002552 0.099885
v 0.128793 0.036295 0.049560
v 0.093215 0.048755 -0.115622
v 0.104356 0.108779 0.000231
v 0.094658 0.098784 0.057737
v 0.117561 0.055526 -0.073699
v 0.135223 0.059973 -0.057155
v 0.121940 0.093406 -0.038297
v 0.128611 0.083072 -0.000586
v 0.086265 0.077401 0.078417
v 0.124028 0.095795 0.001525
v 0.054493 0.009813 0.091085
v 0.109840 0.022337 0.071417
v 0.086920 0.023513 0.079863
v 0.107489 0.067019 0.068513
v 0.138790 0.003956 0.035533
v 0.136128 0.032871 -0.066946
v 0.104750 0.049325 -0.101503
v 0.106445 0.038413 -0.115084
v 0.119853 0.027954 -0.118391
v 0.032833 0.020118 -0.157631
v 0.017231 0.019254 -0.158924
v 0.095752 0.017435 -0.162113
v 0.072240 0.021394 -0.157626
v 0.052331 0.021603 -0.158019
v 0.110987 0.011629 -0.160889
v 0.124624 0.003193 -0.151124
v 0.006644 0.019203 -0.160089
v 0.143396 -0.068841 -0.061471
v 0.151533 -0.073498 -0.038173
v 0.150827 -0.078833 -0.008283
v 0.150628 -0.079836 0.025540
v 0.135773 -0.082710 0.053653
v 0.120810 -0.083121 0.068649
v 0.098236 -0.086048 0.081498
v 0.063984 -0.084175 0.100556
v 0.032162 -0.079719 0.105685
v 0.154419 -0.101486 -0.042010
v 0.158220 -0.105487 -0.010540
v 0.157516 -0.112174 0.021707
v 0.160103 -0.110820 0.038034
v 0.144150 -0.114100 0.067253
v 0.128114 -0.114852 0.081719
v 0.102071 -0.115768 0.092818
v 0.075716 -0.117425 0.102728
v 0.045153 -0.114216 0.107563
v 0.136836 -0.040581 -0.122283
v 0.139664 -0.054660 -0.094541
v 0.037068 -0.007267 -0.170879
v 0.021581 -0.008707 -0.172283
v 0.095494 -0.012897 -0.172646
v 0.073661 -0.006107 -0.170878
v 0.055174 -0.003726 -0.170878
v 0.112768 -0.015787 -0.169009
v 0.121245 -0.025728 -0.155794
v 0.009128 -0.009312 -0.173675
v 0.136540 -0.068453 -0.114899
v 0.139829 -0.084436 -0.080284
v 0.032057 -0.033423 -0.166582
v 0.020397 -0.035210 -0.168056
v 0.099253 -0.036975 -0.171157
v 0.075739 -0.032323 -0.166565
v 0.055825 -0.029653 -0.166576
v 0.114497 -0.042964 -0.169915
v 0.125059 -0.053470 -0.153011
v 0.010132 -0.034956 -0.169163
v 0.143226 0.014072 -0.019193
v 0.141561 -0.020611 -0.084686
v 0.142839 -0.023823 -0.061226
v 0.151813 -0.144050 -0.048609
v 0.152624 -0.145442 -0.017181
v 0.151935 -0.152349 0.014993
v 0.151770 -0.153933 0.050192
v 0.136010 -0.157984 0.075145
v 0.120027 -0.158767 0.089395
v 0.094053 -0.159684 0.100438
v 0.067774 -0.161323 0.110388
v 0.037304 -0.158136 0.115145
v 0.133960 -0.101911 -0.100782
v 0.141157 -0.117157 -0.073055
v 0.038067 -0.066066 -0.155168
v 0.023361 -0.068514 -0.156618
v 0.093714 -0.069494 -0.159749
v 0.075451 -0.064821 -0.155172
v 0.055598 -0.062250 -0.155175
v 0.108924 -0.075364 -0.158509
v 0.119452 -0.085612 -0.141655
v 0.010833 -0.068860 -0.158200
v 0.127808 -0.136571 -0.127786
v 0.041107 -0.111911 -0.170680
v 0.029348 -0.113370 -0.171980
v 0.091417 -0.114507 -0.174779
v 0.072621 -0.110676 -0.171162
v 0.056678 -0.108751 -0.171119
v 0.103655 -0.118968 -0.173594
v 0.112329 -0.126031 -0.159595
v 0.017854 -0.114370 -0.172671
v 0.031517 0.081015 -0.081116
v 0.043299 0.073383 -0.088550
v 0.120068 -0.131301 -0.143690
v 0.128797 -0.093761 -0.122279
v 0.130800 -0.060961 -0.133955
v 0.129041 -0.033155 -0.139038
v 0.132448 -0.005931 -0.128149
v 0.138257 0.004713 -0.096904
v 0.131521 0.014356 -0.119319
v 0.129016 0.034637 -0.088683
v 0.143424 -0.029902 -0.035229
v 0.137868 0.002114 0.000980
v 0.137829 0.019822 0.011907
v 0.143435 0.000154 -0.062656
v 0.141044 0.025293 -0.045070
v 0.138459 0.048243 -0.034567
vn -0.0198 0.2180 -0.9757
vn -0.0912 0.3317 -0.9389
vn -0.1183 0.3366 0.9342
vn -0.5420 0.5149 0.6641
vn -0.6988 0.6654 0.2625
vn -0.7086 0.7019 0.0725
vn -0.7493 0.6532 -0.1092
vn -0.8632 0.5044 -0.0214
vn -0.4117 0.4790 -0.7753
vn 0.0996 0.5318 -0.8410
vn -0.0701 0.6841 -0.7260
vn 0.0357 0.8343 -0.5502
vn -0.0576 0.8275 -0.5586
vn -0.0259 0.3336 0.9424
vn -0.1992 0.3557 0.9131
vn -0.3579 0.6953 0.6233
vn -0.4979 0.7899 0.3581
vn -0.5652 0.8185 0.1032
vn -0.6218 0.7827 0.0262
vn -0.4996 0.8250 -0.2641
vn -0.5344 0.6206 -0.5739
vn -0.1794 0.5087 -0.8421
vn -0.1816 0.5011 -0.8461
vn -0.0503 0.6979 -0.7145
vn -0.0817 0.8019 -0.5918
vn -0.0463 0.8240 -0.5647
vn -0.3791 0.7890 -0.4835
vn -0.3935 0.8918 -0.2230
vn -0.4812 0.8755 0.0447
vn -0.4289 0.8974 0.1039
vn -0.2458 0.5222 -0.8166
vn -0.5810 0.6221 -0.5248
vn -0.8424 0.3686 -0.3931
vn -0.6132 0.7767 0.1437
vn -0.9009 0.4286 0.0687
vn -0.4193 0.7825 0.4603
vn -0.3237 0.7189 0.6151
vn -0.0481 0.3441 0.9377
vn 0.0913 0.3320 0.9389
vn 0.0232 0.1746 0.9844
vn 0.0160 0.0229 0.9996
vn -0.2855 0.1205 0.9508
vn -0.1563 0.0207 0.9875
vn -0.1596 0.2909 0.9434
vn -0.3379 0.0294 0.9407
vn -0.3453 0.1165 0.9312
vn -0.3479 0.0600 0.9356
vn -0.5501 0.4589 0.6977
vn -0.3483 0.0790 0.9341
vn -0.4497 0.7657 0.4599
vn -0.8109 0.0803 0.5796
vn -0.8223 -0.0037 0.5690
vn -0.9765 0.0671 0.2050
vn -0.4820 0.5679 -0.6672
vn -0.4486 0.6366 -0.6272
vn -0.8944 0.1781 -0.4102
vn -0.5127 0.7322 -0.4484
vn -0.4862 0.7598 -0.4317
vn -0.6600 0.6838 -0.3111
vn -0.5706 0.7083 -0.4156
vn 0.0336 0.8283 -0.5593
vn -0.0559 0.8333 -0.5501
vn -0.0642 0.8329 -0.5496
vn -0.0649 0.8109 -0.5815
vn -0.3406 0.7846 -0.5181
vn -0.6264 0.6502 -0.4300
vn -0.0480 0.8274 -0.5595
vn 0.1195 0.8070 -0.5784
vn -0.0020 0.1166 0.9932
vn -0.9857 0.1685 0.0077
vn -0.3904 0.0231 0.9203
vn -0.3427 0.1427 0.9286
vn -0.8731 0.1177 0.4732
vn -0.1664 0.1320 0.9772
vn -0.7059 0.0577 0.7059
vn -0.4831 0.2257 0.8460
vn -0.7824 0.4234 0.4567
vn -0.9433 0.1386 -0.3017
vn -0.1742 0.1188 0.9775
vn -0.6280 0.4444 0.6388
vn -0.9628 0.2612 0.0694
vn -0.0523 0.0085 0.9986
vn -0.4051 0.4264 0.8088
vn -0.9783 0.2070 0.0119
vn -0.0223 0.4546 -0.8904
vn -0.0404 0.4402 -0.8970
vn -0.0786 0.4397 -0.8947
vn 0.0994 0.4278 -0.8984
vn -0.9525 0.0704 -0.2964
vn -0.0627 0.4337 -0.8989
vn -0.1965 0.3202 -0.9268
vn 0.0866 0.4432 -0.8922
vn -0.6616 0.2521 -0.7062
vn 0.1323 -0.1711 -0.9763
vn -0.0840 -0.1695 -0.9819
vn -0.2013 -0.0291 -0.9791
vn -0.0319 -0.1628 -0.9861
vn -0.8632 0.0716 -0.4998
vn -0.9028 -0.0214 -0.4295
vn 0.0211 -0.1642 -0.9862
vn -0.1055 -0.1808 -0.9778
vn -0.9915 -0.0431 -0.1229
vn -0.1019 -0.1611 -0.9817
vn -0.9908 -0.0490 -0.1259
vn -0.9443 0.1420 -0.2967
vn -0.9942 0.0129 -0.1067
vn -0.9267 -0.0448 -0.3732
vn -0.3879 0.0889 0.9174
vn -0.1275 -0.3120 -0.9415
vn -0.3448 0.0990 0.9334
vn -0.9771 -0.1422 -0.1585
vn 0.0499 -0.3230 -0.9451
vn -0.1690 0.1397 0.9757
vn -0.0019 -0.3076 -0.9515
vn -0.9843 -0.1156 -0.1336
vn -0.9201 -0.1800 -0.3479
vn 0.0027 0.1706 0.9853
vn -0.6853 -0.3439 -0.6419
vn -0.9905 -0.1376 -0.0069
vn -0.1433 -0.3030 -0.9421
vn -0.9829 -0.1121 -0.1464
vn 0.2421 -0.3191 -0.9163
vn -0.8788 -0.0357 0.4758
vn -0.0526 -0.3300 -0.9425
vn -0.6696 0.0094 0.7427
vn 0.0437 -0.3296 -0.9431
vn -0.1926 0.3019 -0.9337
vn 0.0705 0.3221 -0.9441
vn -0.8642 0.0680 -0.4985
vn -0.9729 0.0072 -0.2309
vn -0.0422 0.3249 -0.9448
vn -0.0395 0.3226 -0.9457
vn -0.0283 0.3272 -0.9445
vn 0.1479 0.3338 -0.9310
vn -0.0268 0.3067 -0.9514
vn -0.9700 0.0168 -0.2425
vn -0.0156 0.7099 -0.7041
vn -0.0415 0.2727 -0.9612
vn -0.0923 0.2719 -0.9579
vn -0.0606 0.5809 -0.8117
vn 0.0198 0.5168 -0.8559
vn -0.9384 -0.0545 -0.3412
vn -0.9053 0.0311 -0.4236
vn -0.8802 -0.2871 -0.3780
vn -0.9174 0.0872 -0.3882
vn -0.6973 0.6226 -0.3551
vn -0.8390 0.2490 -0.4839
vn -0.9631 0.1432 -0.2278
vn -0.9345 0.3271 -0.1401
vn -0.9376 0.1939 -0.2887
vn -0.9828 0.1800 0.0409
vn -0.9856 0.0130 0.1686
vn -0.9902 0.1357 0.0319
vn -0.9880 0.1509 -0.0344
vn -0.9690 0.1968 -0.1496
vn -0.9966 0.0561 -0.0597
vn -0.9931 0.1108 -0.0389
vn -0.9875 0.1422 -0.0676
vn -0.9562 0.2850 -0.0664
vn -0.9385 0.3372 -0.0736
vn 0.0198 0.2180 -0.9757
vn 0.0912 0.3317 -0.9389
vn 0.1183 0.3366 0.9342
vn 0.5420 0.5149 0.6641
vn 0.6988 0.6654 0.2625
vn 0.7500 0.6486 0.1297
vn 0.7476 0.6547 -0.1113
vn 0.8632 0.5044 -0.0214
vn 0.4117 0.4790 -0.7753
vn 0.0455 0.4529 -0.8904
vn 0.0025 0.6452 -0.7640
vn 0.0607 0.8425 -0.5353
vn 0.0605 0.8259 -0.5606
vn 0.0259 0.3336 0.9424
vn 0.1992 0.3557 0.9131
vn 0.3503 0.7185 0.6009
vn 0.4923 0.7989 0.3454
vn 0.5917 0.7955 0.1304
vn 0.5123 0.8567 -0.0603
vn 0.6516 0.7435 -0.1504
vn 0.2253 0.6637 -0.7133
vn 0.1794 0.5087 -0.8421
vn 0.1717 0.4692 -0.8662
vn 0.0354 0.7009 -0.7124
vn 0.0817 0.8019 -0.5918
vn 0.0463 0.8240 -0.5647
vn 0.2461 0.5307 -0.8111
vn 0.3935 0.8918 -0.2230
vn 0.4812 0.8755 0.0447
vn 0.4841 0.8723 0.0686
vn 0.2458 0.5222 -0.8166
vn 0.4787 0.6992 -0.5310
vn 0.6464 0.7589 -0.0794
vn 0.6132 0.7767 0.1437
vn 0.9009 0.4286 0.0687
vn 0.3535 0.8786 0.3211
vn 0.3237 0.7189 0.6151
vn -0.0071 0.2995 0.9541
vn 0.0082 0.2796 0.9601
vn -0.0232 0.1746 0.9844
vn 0.0055 0.0380 0.9993
vn 0.2855 0.1205 0.9508
vn 0.1563 0.0207 0.9875
vn 0.1596 0.2909 0.9434
vn 0.3217 0.0140 0.9467
vn 0.3453 0.1165 0.9312
vn 0.3878 0.0767 0.9186
vn 0.5501 0.4589 0.6977
vn 0.4345 0.0294 0.9002
vn 0.4477 0.4441 0.7761
vn 0.8051 0.2179 0.5517
vn 0.8223 -0.0037 0.5690
vn 0.9765 0.0671 0.2050
vn 0.5479 0.5365 -0.6418
vn 0.4486 0.6366 -0.6272
vn 0.7726 0.4119 -0.4831
vn 0.5127 0.7322 -0.4484
vn 0.5411 0.6872 -0.4846
vn 0.6600 0.6838 -0.3111
vn 0.5706 0.7083 -0.4156
vn -0.0336 0.8283 -0.5593
vn 0.0559 0.8333 -0.5501
vn 0.0642 0.8329 -0.5496
vn 0.0649 0.8109 -0.5815
vn 0.3406 0.7846 -0.5181
vn 0.6264 0.6502 -0.4300
vn 0.0480 0.8274 -0.5595
vn -0.1195 0.8070 -0.5784
vn 0.0020 0.1166 0.9932
vn 0.9852 0.1708 0.0109
vn 0.4958 -0.0123 0.8683
vn 0.4878 0.0561 0.8712
vn 0.8730 0.1178 0.4733
vn 0.1750 0.1259 0.9765
vn 0.7059 0.0577 0.7059
vn 0.3059 0.3731 0.8759
vn 0.7824 0.4234 0.4567
vn 0.9433 0.1386 -0.3017
vn 0.1677 0.1231 0.9781
vn 0.6280 0.4444 0.6388
vn 0.9628 0.2612 0.0694
vn 0.0008 0.0547 0.9985
vn 0.4051 0.4264 0.8088
vn 0.9783 0.2070 0.0119
vn 0.0223 0.4546 -0.8904
vn 0.0502 0.4369 -0.8981
vn 0.0964 0.4350 -0.8953
vn -0.0994 0.4278 -0.8984
vn 0.9135 0.0473 -0.4040
vn 0.1129 0.4221 -0.8995
vn 0.1965 0.3202 -0.9268
vn -0.0506 0.4286 -0.9021
vn 0.6616 0.2521 -0.7062
vn -0.1323 -0.1711 -0.9763
vn 0.0337 -0.1524 -0.9877
vn 0.2013 -0.0291 -0.9791
vn 0.0319 -0.1628 -0.9861
vn 0.8632 0.0716 -0.4998
vn 0.9028 -0.0214 -0.4295
vn -0.0211 -0.1642 -0.9862
vn 0.1055 -0.1808 -0.9778
vn 0.9915 -0.0431 -0.1229
vn 0.1176 -0.1676 -0.9788
vn 0.9968 -0.0347 -0.0721
vn 0.9443 0.1420 -0.2967
vn 0.9942 0.0129 -0.1067
vn 0.9267 -0.0448 -0.3732
vn 0.3879 0.0889 0.9174
vn 0.0947 -0.3045 -0.9478
vn 0.3448 0.0990 0.9334
vn 0.9771 -0.1422 -0.1585
vn -0.0499 -0.3230 -0.9451
vn 0.1690 0.1397 0.9757
vn 0.0813 -0.3288 -0.9409
vn 0.9980 -0.0567 -0.0283
vn 0.9201 -0.1800 -0.3479
vn -0.0027 0.1706 0.9853
vn 0.6853 -0.3439 -0.6419
vn 0.9905 -0.1376 -0.0069
vn 0.1655 -0.3071 -0.9372
vn 0.9829 -0.1121 -0.1464
vn -0.2421 -0.3191 -0.9163
vn 0.8788 -0.0357 0.4758
vn 0.0526 -0.3300 -0.9425
vn 0.6696 0.0094 0.7427
vn -0.0437 -0.3296 -0.9431
vn 0.1926 0.3019 -0.9337
vn -0.0705 0.3221 -0.9441
vn 0.8642 0.0680 -0.4985
vn 0.9031 0.0342 -0.4282
vn 0.0422 0.3249 -0.9448
vn 0.0395 0.3226 -0.9457
vn 0.1102 0.3166 -0.9421
vn -0.1479 0.3338 -0.9310
vn 0.0656 0.2976 -0.9524
vn 0.9700 0.0168 -0.2425
vn 0.0156 0.7099 -0.7041
vn 0.0159 0.2954 -0.9552
vn 0.0923 0.2719 -0.9579
vn 0.0797 0.6204 -0.7802
vn -0.0344 0.7035 -0.7098
vn 0.9384 -0.0545 -0.3412
vn 0.9028 0.0313 -0.4289
vn 0.8802 -0.2871 -0.3780
vn 0.9174 0.0872 -0.3882
vn 0.5876 0.7315 -0.3458
vn 0.9182 0.3575 -0.1707
vn 0.9631 0.1432 -0.2278
vn 0.9345 0.3271 -0.1401
vn 0.9376 0.1939 -0.2887
vn 0.9840 0.1701 0.0536
vn 0.9856 0.0130 0.1686
vn 0.9738 -0.0740 0.2148
vn 0.9956 0.0911 0.0207
vn 0.9690 0.1968 -0.1496
vn 0.9991 0.0408 -0.0129
vn 0.9927 0.1158 -0.0349
vn 0.9917 0.1251 -0.0294
vn 0.9562 0.2850 -0.0664
vn 0.9369 0.3465 0.0457
vn -0.1876 0.3185 -0.9292
vn -0.3956 0.4861 -0.7792
vn -0.1909 0.4180 0.8882
vn -0.0171 0.9566 0.2907
vn -0.2147 0.2735 0.9376
vn -0.5417 0.5137 0.6653
vn -0.7275 0.5727 0.3778
vn -0.7500 0.6486 0.1297
vn -0.7476 0.6547 -0.1113
vn -0.7372 0.6515 -0.1791
vn -0.0455 0.4529 -0.8904
vn -0.0701 0.6841 -0.7261
vn 0.0037 0.6795 -0.7336
vn -0.0789 0.8339 -0.5463
vn -0.0601 0.8023 -0.5939
vn -0.0544 0.8422 -0.5364
vn -0.0657 0.8229 -0.5644
vn -0.0538 0.5761 -0.8156
vn -0.0241 0.3359 0.9416
vn 0.0510 0.5337 0.8442
vn -0.3503 0.7185 0.6009
vn -0.4923 0.7989 0.3454
vn -0.5917 0.7955 0.1304
vn -0.5123 0.8567 -0.0603
vn -0.6516 0.7435 -0.1504
vn -0.2253 0.6637 -0.7133
vn -0.2352 0.4622 -0.8550
vn -0.1717 0.4692 -0.8662
vn -0.0354 0.7009 -0.7124
vn -0.0486 0.8264 -0.5610
vn -0.0476 0.8231 -0.5659
vn -0.2461 0.5307 -0.8111
vn -0.4424 0.7846 -0.4344
vn -0.4936 0.8692 0.0300
vn -0.4841 0.8723 0.0686
vn -0.2480 0.5275 -0.8125
vn -0.4787 0.6992 -0.5310
vn -0.5498 0.8351 0.0210
vn -0.6697 0.7379 0.0837
vn -0.5458 0.8345 0.0761
vn -0.9418 0.3250 0.0860
vn -0.3535 0.8786 0.3211
vn -0.3863 0.5584 0.7342
vn 0.0071 0.2995 0.9541
vn -0.0082 0.2796 0.9601
vn 0.0857 0.1373 0.9868
vn -0.0055 0.0380 0.9993
vn -0.1373 0.0287 0.9901
vn -0.2873 0.1140 0.9510
vn -0.3217 0.0140 0.9467
vn -0.2944 0.0831 0.9521
vn -0.3878 0.0767 0.9186
vn -0.4345 0.0294 0.9002
vn -0.4477 0.4441 0.7761
vn -0.8083 0.0163 0.5886
vn -0.4671 0.5037 0.7267
vn -0.1410 0.9757 0.1675
vn -0.7380 0.0515 0.6728
vn -0.7851 -0.0258 0.6189
vn -0.9654 -0.1652 0.2018
vn -0.9619 0.2434 0.1243
vn -0.5479 0.5365 -0.6418
vn -0.1050 0.7066 -0.6998
vn -0.5956 0.7669 -0.2391
vn -0.7529 0.5769 -0.3166
vn -0.2666 0.8207 -0.5053
vn -0.3984 0.9155 -0.0560
vn -0.5526 0.6820 -0.4790
vn -0.5411 0.6872 -0.4846
vn -0.5584 0.7929 -0.2438
vn -0.3591 0.8729 -0.3303
vn 0.0009 0.8367 -0.5477
vn -0.0565 0.8333 -0.5499
vn -0.0646 0.8330 -0.5495
vn -0.0197 0.8283 -0.5600
vn -0.3406 0.7845 -0.5182
vn -0.6779 0.5931 -0.4343
vn -0.0354 0.8342 -0.5504
vn 0.0741 0.8265 -0.5580
vn -0.0386 0.1453 0.9886
vn -0.9852 0.1708 0.0109
vn -0.4958 -0.0123 0.8683
vn -0.4878 0.0561 0.8712
vn -0.8730 0.1178 0.4733
vn -0.1750 0.1259 0.9765
vn -0.3059 0.3731 0.8759
vn -0.7793 0.4124 0.4718
vn -0.9877 0.1162 -0.1045
vn -0.1677 0.1231 0.9781
vn -0.5972 0.4191 0.6838
vn -0.9625 0.2606 0.0751
vn -0.0008 0.0547 0.9985
vn -0.3527 0.3725 0.8584
vn -0.9594 0.2246 -0.1706
vn -0.0561 0.4358 -0.8983
vn -0.0502 0.4369 -0.8981
vn -0.0964 0.4350 -0.8953
vn -0.0254 0.3277 -0.9444
vn -0.9135 0.0473 -0.4040
vn -0.1129 0.4221 -0.8995
vn -0.2434 0.2899 -0.9256
vn 0.0506 0.4286 -0.9021
vn -0.8383 -0.0099 -0.5452
vn 0.2085 -0.0928 -0.9736
vn -0.0337 -0.1524 -0.9877
vn -0.0965 0.0393 -0.9946
vn -0.0267 -0.1670 -0.9856
vn -0.8648 0.0690 -0.4974
vn -0.9422 -0.0951 -0.3212
vn 0.0214 -0.1640 -0.9862
vn -0.1482 -0.1622 -0.9756
vn -0.9917 -0.0509 -0.1177
vn -0.1176 -0.1676 -0.9788
vn -0.9968 -0.0347 -0.0721
vn -0.9887 -0.0603 -0.1374
vn -0.9975 -0.0383 -0.0596
vn -0.9187 0.0050 -0.3950
vn -0.3871 0.0886 0.9178
vn -0.0947 -0.3045 -0.9478
vn -0.3469 0.1000 0.9326
vn -0.9653 -0.0184 -0.2607
vn 0.0481 -0.3243 -0.9447
vn -0.1669 0.1387 0.9762
vn -0.0813 -0.3288 -0.9409
vn -0.9980 -0.0567 -0.0283
vn -0.9333 -0.1983 -0.2993
vn -0.0000 0.1729 0.9849
vn -0.6869 -0.3457 -0.6393
vn -0.9906 -0.1363 -0.0080
vn -0.1655 -0.3071 -0.9372
vn -0.9816 -0.1909 -0.0040
vn 0.2985 -0.2703 -0.9153
vn -0.8484 -0.0628 0.5256
vn -0.0688 -0.3180 -0.9456
vn -0.6652 0.0080 0.7466
vn 0.0426 -0.3302 -0.9429
vn -0.1993 0.2988 -0.9333
vn 0.0903 0.3138 -0.9452
vn -0.8633 0.0697 -0.4998
vn -0.9031 0.0342 -0.4282
vn -0.0369 0.3270 -0.9443
vn -0.0630 0.3309 -0.9416
vn -0.1102 0.3166 -0.9421
vn 0.1158 0.3199 -0.9404
vn -0.0656 0.2976 -0.9524
vn -0.9526 0.1257 -0.2769
vn -0.0159 0.2954 -0.9552
vn 0.0781 0.4135 -0.9072
vn -0.0857 0.6324 -0.7699
vn -0.1089 0.6324 -0.7669
vn 0.0109 0.7215 -0.6923
vn -0.0804 0.7564 -0.6491
vn -0.9135 0.0473 -0.4041
vn -0.9028 0.0313 -0.4289
vn -0.8357 -0.2288 -0.4993
vn -0.9584 0.0085 -0.2854
vn -0.6856 0.6358 -0.3545
vn -0.7196 0.6364 -0.2779
vn -0.9182 0.3575 -0.1707
vn -0.9491 0.1989 -0.2442
vn -0.8982 0.3503 -0.2654
vn -0.9997 0.0125 -0.0196
vn -0.9840 0.1701 0.0536
vn -0.9749 -0.1154 0.1905
vn -0.9738 -0.0740 0.2148
vn -0.9944 0.1052 0.0078
vn -0.9994 0.0193 -0.0277
vn -0.9721 0.2014 -0.1202
vn -0.9876 -0.0152 0.1561
vn -0.9997 0.0117 -0.0198
vn -0.9875 -0.0337 -0.1538
vn -0.9929 0.1144 -0.0314
vn -0.9776 0.0996 -0.1852
vn -0.9954 0.0833 -0.0478
vn -0.9629 0.2700 0.0023
vn -0.9369 0.3465 0.0457
vn 0.1876 0.3185 -0.9292
vn 0.3956 0.4861 -0.7792
vn 0.1909 0.4180 0.8882
vn 0.2147 0.2735 0.9376
vn 0.0171 0.9566 0.2911
vn 0.5417 0.5137 0.6653
vn 0.7275 0.5727 0.3778
vn 0.7086 0.7019 0.0725
vn 0.7493 0.6532 -0.1092
vn 0.7372 0.6515 -0.1791
vn -0.0996 0.5318 -0.8410
vn 0.0701 0.6841 -0.7261
vn 0.0789 0.8339 -0.5463
vn -0.0279 0.8000 -0.5993
vn 0.0544 0.8422 -0.5364
vn 0.0657 0.8229 -0.5644
vn 0.0547 0.8269 -0.5596
vn 0.0241 0.3359 0.9416
vn -0.0510 0.5337 0.8442
vn 0.3579 0.6953 0.6233
vn 0.4979 0.7899 0.3581
vn 0.5652 0.8185 0.1032
vn 0.6218 0.7827 0.0262
vn 0.4996 0.8250 -0.2641
vn 0.5344 0.6206 -0.5739
vn 0.2352 0.4622 -0.8550
vn 0.1816 0.5011 -0.8461
vn 0.0503 0.6979 -0.7145
vn 0.0486 0.8264 -0.5610
vn 0.0476 0.8231 -0.5659
vn 0.3791 0.7890 -0.4835
vn 0.4424 0.7846 -0.4344
vn 0.4936 0.8692 0.0300
vn 0.4289 0.8974 0.1039
vn 0.2480 0.5275 -0.8125
vn 0.5810 0.6221 -0.5248
vn 0.5498 0.8351 0.0210
vn 0.9348 0.3483 -0.0699
vn 0.5458 0.8345 0.0761
vn 0.9418 0.3250 0.0860
vn 0.4193 0.7825 0.4603
vn 0.3863 0.5584 0.7342
vn 0.0481 0.3441 0.9377
vn -0.0913 0.3320 0.9389
vn -0.0857 0.1373 0.9868
vn -0.0160 0.0229 0.9996
vn 0.1373 0.0287 0.9901
vn 0.2873 0.1140 0.9510
vn 0.3379 0.0294 0.9407
vn 0.2944 0.0831 0.9521
vn 0.3479 0.0600 0.9356
vn 0.3483 0.0790 0.9341
vn 0.4497 0.7657 0.4599
vn 0.8083 0.0163 0.5886
vn 0.7262 0.0826 0.6825
vn 0.1410 0.9757 0.1675
vn 0.7851 -0.0258 0.6189
vn 0.7380 0.0515 0.6728
vn 0.9654 -0.1652 0.2018
vn 0.9619 0.2434 0.1243
vn 0.4820 0.5679 -0.6672
vn 0.1050 0.7066 -0.6998
vn 0.7529 0.5769 -0.3166
vn 0.5956 0.7669 -0.2391
vn 0.2666 0.8207 -0.5053
vn 0.9445 0.1391 -0.2977
vn 0.5526 0.6820 -0.4790
vn 0.4862 0.7598 -0.4317
vn 0.5584 0.7929 -0.2438
vn 0.3591 0.8729 -0.3303
vn -0.0009 0.8367 -0.5477
vn 0.0565 0.8333 -0.5499
vn 0.0646 0.8330 -0.5495
vn 0.0197 0.8283 -0.5600
vn 0.3406 0.7845 -0.5182
vn 0.6779 0.5931 -0.4343
vn 0.0354 0.8342 -0.5504
vn -0.0741 0.8265 -0.5580
vn 0.0386 0.1453 0.9886
vn 0.9857 0.1685 0.0077
vn 0.3904 0.0231 0.9203
vn 0.3427 0.1427 0.9286
vn 0.8731 0.1177 0.4732
vn 0.1664 0.1320 0.9772
vn 0.4831 0.2257 0.8460
vn 0.7793 0.4124 0.4718
vn 0.9877 0.1162 -0.1045
vn 0.1742 0.1188 0.9775
vn 0.5972 0.4191 0.6838
vn 0.9625 0.2606 0.0751
vn 0.0523 0.0085 0.9986
vn 0.3527 0.3725 0.8584
vn 0.9594 0.2246 -0.1706
vn 0.0561 0.4358 -0.8983
vn 0.0404 0.4402 -0.8970
vn 0.0786 0.4397 -0.8947
vn 0.0254 0.3277 -0.9444
vn 0.9525 0.0704 -0.2964
vn 0.0627 0.4337 -0.8989
vn 0.2434 0.2899 -0.9256
vn -0.0866 0.4432 -0.8922
vn 0.8383 -0.0099 -0.5452
vn -0.2085 -0.0928 -0.9736
vn 0.0840 -0.1695 -0.9819
vn 0.0965 0.0393 -0.9946
vn 0.0267 -0.1670 -0.9856
vn 0.8648 0.0690 -0.4974
vn 0.9422 -0.0951 -0.3212
vn -0.0214 -0.1640 -0.9862
vn 0.1482 -0.1622 -0.9756
vn 0.9917 -0.0509 -0.1177
vn 0.1019 -0.1611 -0.9817
vn 0.9908 -0.0490 -0.1259
vn 0.9887 -0.0603 -0.1374
vn 0.9975 -0.0383 -0.0596
vn 0.9187 0.0050 -0.3950
vn 0.3871 0.0886 0.9178
vn 0.1275 -0.3120 -0.9415
vn 0.3469 0.1000 0.9326
vn 0.9653 -0.0184 -0.2607
vn -0.0481 -0.3243 -0.9447
vn 0.1669 0.1387 0.9762
vn 0.0019 -0.3076 -0.9515
vn 0.9843 -0.1156 -0.1336
vn 0.9333 -0.1983 -0.2993
vn 0.6869 -0.3457 -0.6393
vn 0.9906 -0.1363 -0.0080
vn 0.1433 -0.3030 -0.9421
vn 0.9816 -0.1909 -0.0040
vn -0.2985 -0.2703 -0.9153
vn 0.8484 -0.0628 0.5256
vn 0.0688 -0.3180 -0.9456
vn 0.6652 0.0080 0.7466
vn -0.0426 -0.3302 -0.9430
vn 0.1993 0.2988 -0.9333
vn -0.0903 0.3138 -0.9452
vn 0.8633 0.0697 -0.4998
vn 0.9729 0.0072 -0.2309
vn 0.0369 0.3270 -0.9443
vn 0.0630 0.3309 -0.9416
vn 0.0283 0.3272 -0.9445
vn -0.1158 0.3199 -0.9404
vn 0.0268 0.3067 -0.9514
vn 0.9526 0.1257 -0.2769
vn 0.0415 0.2727 -0.9612
vn -0.0781 0.4135 -0.9072
vn 0.0857 0.6324 -0.7699
vn 0.1006 0.5885 -0.8022
vn 0.0864 0.6071 -0.7899
vn 0.9135 0.0473 -0.4041
vn 0.9053 0.0311 -0.4236
vn 0.8357 -0.2288 -0.4993
vn 0.9584 0.0085 -0.2854
vn 0.6856 0.6358 -0.3545
vn 0.7525 0.5758 -0.3197
vn 0.8390 0.2490 -0.4839
vn 0.9491 0.1989 -0.2442
vn 0.8982 0.3503 -0.2654
vn 0.9997 0.0125 -0.0196
vn 0.9828 0.1800 0.0409
vn 0.9749 -0.1154 0.1905
vn 0.9902 0.1357 0.0319
vn 0.9944 0.1052 0.0078
vn 0.9161 0.2120 -0.3403
vn 0.9721 0.2014 -0.1202
vn 0.9876 -0.0152 0.1561
vn 0.9970 0.0303 -0.0709
vn 0.9875 -0.0337 -0.1538
vn 0.9970 0.0623 -0.0458
vn 0.9776 0.0996 -0.1852
vn 0.9911 0.0971 -0.0916
vn 0.9875 0.1422 -0.0676
vn 0.9629 0.2700 0.0023
vn 0.9385 0.3372 -0.0736
vt 0.868463 0.605749
vt 0.830389 0.630557
vt 0.869569 0.630557
vt 0.868662 0.577388
vt 0.830830 0.602014
vt 0.123652 0.030220
vt 0.181458 0.031845
vt 0.160632 0.000366
vt 0.711843 0.548318
vt 0.676535 0.528137
vt 0.687517 0.547812
vt 0.710302 0.571481
vt 0.685046 0.574457
vt 0.702938 0.607279
vt 0.677926 0.610013
vt 0.691752 0.635267
vt 0.667234 0.627293
vt 0.680941 0.656984
vt 0.659498 0.645057
vt 0.852167 0.554832
vt 0.829783 0.567570
vt 0.919778 0.590895
vt 0.892967 0.571800
vt 0.899148 0.605656
vt 0.943244 0.562508
vt 0.918261 0.566253
vt 0.929807 0.576068
vt 0.718995 0.757131
vt 0.726612 0.735640
vt 0.712197 0.734636
vt 0.732869 0.759408
vt 0.705123 0.755032
vt 0.717761 0.779609
vt 0.153461 0.032118
vt 0.181480 0.051097
vt 0.148850 0.059679
vt 0.708037 0.524266
vt 0.735567 0.546648
vt 0.737047 0.515533
vt 0.734760 0.571921
vt 0.726923 0.605361
vt 0.715395 0.639660
vt 0.702962 0.662154
vt 0.691888 0.675658
vt 0.871212 0.550335
vt 0.888448 0.540955
vt 0.906002 0.531556
vt 0.941197 0.543096
vt 0.946249 0.515533
vt 0.750473 0.743394
vt 0.756438 0.767502
vt 0.738526 0.783598
vt 0.763770 0.794619
vt 0.717092 0.681411
vt 0.739517 0.655610
vt 0.754000 0.616077
vt 0.759337 0.570486
vt 0.899240 0.515947
vt 0.733422 0.692428
vt 0.796055 0.629520
vt 0.783289 0.620688
vt 0.799068 0.565019
vt 0.829783 0.597877
vt 0.767073 0.545341
vt 0.062275 0.051802
vt 0.107021 0.052654
vt 0.086971 0.033618
vt 0.108681 0.104619
vt 0.144062 0.113951
vt 0.181539 0.115644
vt 0.146025 0.174771
vt 0.181569 0.176496
vt 0.146583 0.225962
vt 0.112957 0.165233
vt 0.108047 0.229768
vt 0.072927 0.079649
vt 0.072101 0.147486
vt 0.074787 0.227235
vt 0.041905 0.225565
vt 0.043218 0.148574
vt 0.046171 0.092248
vt 0.269295 0.623899
vt 0.221584 0.679204
vt 0.276904 0.671828
vt 0.145631 0.688532
vt 0.240042 0.652498
vt 0.150863 0.633145
vt 0.237802 0.576609
vt 0.218901 0.607509
vt 0.772414 0.669695
vt 0.786581 0.719396
vt 0.804666 0.701804
vt 0.794011 0.756689
vt 0.829783 0.713699
vt 0.771136 0.752261
vt 0.777232 0.771309
vt 0.797267 0.779901
vt 0.783383 0.797130
vt 0.801285 0.801169
vt 0.258433 0.705710
vt 0.241407 0.725741
vt 0.241480 0.704063
vt 0.274424 0.705710
vt 0.261035 0.726767
vt 0.282835 0.705735
vt 0.274352 0.726777
vt 0.724873 0.816770
vt 0.769646 0.830959
vt 0.789259 0.833470
vt 0.744752 0.820169
vt 0.216868 0.723855
vt 0.216942 0.700517
vt 0.141109 0.278502
vt 0.181569 0.227528
vt 0.148398 0.587659
vt 0.096184 0.633597
vt 0.057849 0.285344
vt 0.101039 0.283870
vt 0.092550 0.667649
vt 0.147216 0.669774
vt 0.021555 0.224262
vt 0.029383 0.281070
vt 0.086280 0.325785
vt 0.352736 0.666207
vt 0.320778 0.627891
vt 0.316449 0.664890
vt 0.061639 0.551567
vt 0.099850 0.553381
vt 0.098411 0.516665
vt 0.124765 0.321973
vt 0.356966 0.627636
vt 0.315963 0.604697
vt 0.062665 0.591136
vt 0.095142 0.591173
vt 0.181587 0.323686
vt 0.181591 0.282490
vt 0.020246 0.321578
vt 0.056429 0.631985
vt 0.907748 0.778275
vt 0.930286 0.746653
vt 0.905254 0.745582
vt 0.255496 0.761314
vt 0.236012 0.759567
vt 0.271160 0.762010
vt 0.930900 0.782040
vt 0.959685 0.752872
vt 0.175563 0.433584
vt 0.133253 0.444069
vt 0.166779 0.463810
vt 0.282646 0.761350
vt 0.958074 0.791587
vt 0.978606 0.760732
vt 0.213228 0.755114
vt 0.157828 0.381345
vt 0.184347 0.403358
vt 0.192406 0.389190
vt 0.932428 0.814812
vt 0.282660 0.794492
vt 0.269913 0.794469
vt 0.961799 0.821908
vt 0.979687 0.795727
vt 0.212424 0.787919
vt 0.124037 0.382511
vt 0.147440 0.399472
vt 0.106184 0.430491
vt 0.140346 0.421770
vt 0.907492 0.810626
vt 0.242334 0.792660
vt 0.098894 0.455485
vt 0.117942 0.480189
vt 0.257000 0.794839
vt 0.082381 0.495938
vt 0.159183 0.519784
vt 0.041524 0.512161
vt 0.030450 0.377160
vt 0.053070 0.323243
vt 0.269075 0.837613
vt 0.253317 0.837251
vt 0.063188 0.378824
vt 0.058124 0.473295
vt 0.953498 0.861865
vt 0.980725 0.829998
vt 0.096302 0.381345
vt 0.282706 0.836161
vt 0.011541 0.585441
vt 0.065735 0.447512
vt 0.134669 0.377556
vt 0.083595 0.398829
vt 0.113474 0.405497
vt 0.234816 0.834239
vt 0.005027 0.626219
vt 0.059586 0.652570
vt 0.930730 0.854962
vt 0.005443 0.670415
vt 0.055374 0.687937
vt 0.212756 0.829440
vt 0.010272 0.375518
vt 0.000000 0.319965
vt 0.905867 0.850904
vt 0.948699 0.919203
vt 0.972385 0.869803
vt 0.211317 0.887183
vt 0.027375 0.382877
vt 0.073346 0.421729
vt 0.011733 0.443893
vt 0.905254 0.910306
vt 0.230914 0.891177
vt 0.260166 0.894178
vt 0.245705 0.892951
vt 0.925226 0.913393
vt 0.282633 0.893274
vt 0.894592 0.630557
vt 0.907259 0.626221
vt 0.929302 0.603777
vt 0.918947 0.616305
vt 0.016198 0.422835
vt 0.000000 0.000000
vt 0.811897 0.735194
vt 0.212403 0.568004
vt 0.199999 0.638410
vt 0.226982 0.514398
vt 0.219692 0.541201
vt 0.161416 0.490028
vt 0.667800 0.676869
vt 0.707374 0.687585
vt 0.805964 0.540448
vt 0.010486 0.279860
vt 0.282710 0.726802
vt 0.011013 0.545892
vt 0.941353 0.585883
vt 0.020663 0.401777
vt 0.138637 -0.000000
vt 0.181430 0.000732
vt 0.692676 0.731211
vt 0.882833 0.526710
vt 0.304462 0.645311
vt 0.723069 0.699533
vt 0.811502 0.825658
vt 0.351106 0.604697
vt 0.181615 0.379242
vt 0.000000 0.700517
vt 0.963908 0.925250
s 0
usemtl Material.012
f 13/1/1 15/2/1 9/3/1
f 10/4/2 12/5/2 13/1/2
f 44/6/3 45/7/3 75/8/3
f 43/9/4 41/10/4 22/11/4
f 21/12/5 22/11/5 23/13/5
f 20/14/6 23/13/6 16/15/6
f 19/16/7 16/15/7 55/17/7
f 17/18/8 55/17/8 14/19/8
f 10/4/9 17/20/9 14/21/9
f 182/22/10 57/23/10 56/24/10
f 61/25/11 34/26/11 183/27/11
f 60/28/12 35/29/12 61/30/12
f 59/31/13 58/32/13 6/33/13
f 74/34/14 54/35/14 45/7/14
f 44/6/15 72/36/15 74/34/15
f 44/37/16 69/38/16 71/39/16
f 43/9/17 68/40/17 69/38/17
f 21/12/18 67/41/18 68/40/18
f 20/14/19 65/42/19 67/41/19
f 19/16/20 62/43/20 65/42/20
f 17/18/21 38/44/21 62/43/21
f 38/45/22 57/23/22 66/46/22
f 57/23/23 36/47/23 66/46/23
f 36/47/24 35/48/24 37/49/24
f 59/31/25 37/50/25 35/29/25
f 79/51/26 5/52/26 4/53/26
f 38/44/27 64/54/27 62/43/27
f 62/43/28 70/55/28 65/42/28
f 65/42/29 80/56/29 67/41/29
f 67/41/30 28/57/30 68/40/30
f 63/58/31 66/46/31 36/47/31
f 63/59/32 70/55/32 64/54/32
f 70/55/33 85/60/33 87/61/33
f 28/57/34 87/61/34 27/62/34
f 27/62/35 85/60/35 26/63/35
f 69/38/36 28/57/36 81/64/36
f 81/65/37 71/66/37 69/67/37
f 72/36/38 73/68/38 76/69/38
f 53/70/39 72/36/39 76/69/39
f 53/70/40 77/71/40 52/72/40
f 50/73/41 52/72/41 77/71/41
f 76/69/42 88/74/42 77/71/42
f 77/71/43 49/75/43 50/73/43
f 71/66/44 86/76/44 73/68/44
f 90/77/45 73/68/45 86/76/45
f 88/74/46 48/78/46 49/75/46
f 47/79/47 90/77/47 89/80/47
f 86/76/48 81/65/48 91/81/48
f 90/77/49 91/81/49 89/80/49
f 27/62/50 81/64/50 28/57/50
f 26/82/51 89/83/51 91/84/51
f 47/85/52 78/86/52 40/87/52
f 25/88/53 194/89/53 78/86/53
f 84/90/54 82/91/54 83/92/54
f 37/50/55 18/93/55 63/59/55
f 18/93/56 93/94/56 83/92/56
f 79/51/57 94/95/57 37/50/57
f 18/93/58 95/96/58 96/97/58
f 96/97/59 7/98/59 8/99/59
f 4/53/60 95/96/60 79/51/60
f 3/100/61 98/101/61 2/102/61
f 11/103/62 99/104/62 3/100/62
f 1/105/63 105/106/63 11/103/63
f 102/107/64 5/52/64 6/33/64
f 100/108/65 7/98/65 4/53/65
f 103/109/66 8/99/66 7/98/66
f 101/110/67 4/53/67 5/52/67
f 2/102/68 102/111/68 6/112/68
f 114/113/69 51/114/69 50/73/69
f 39/115/70 109/116/70 40/87/70
f 47/79/71 112/117/71 48/78/71
f 48/78/72 113/118/72 49/75/72
f 40/87/73 110/119/73 46/120/73
f 49/75/74 114/113/74 50/73/74
f 46/121/75 111/122/75 47/79/75
f 112/117/76 123/123/76 113/118/76
f 119/124/77 110/125/77 109/126/77
f 116/127/78 107/128/78 106/129/78
f 113/118/79 124/130/79 114/113/79
f 120/131/80 111/132/80 110/125/80
f 117/133/81 108/134/81 107/128/81
f 114/113/82 125/135/82 115/136/82
f 121/137/83 112/117/83 111/122/83
f 118/138/84 109/116/84 108/134/84
f 133/139/85 101/140/85 102/141/85
f 98/101/86 130/142/86 129/143/86
f 99/104/87 136/144/87 130/142/87
f 132/145/88 100/146/88 101/140/88
f 188/147/89 126/148/89 24/149/89
f 105/106/90 128/150/90 136/144/90
f 131/151/91 103/152/91 100/146/91
f 102/111/92 129/143/92 133/153/92
f 134/154/93 104/155/93 103/156/93
f 143/157/94 131/151/94 132/145/94
f 136/144/95 139/158/95 147/159/95
f 142/160/96 134/161/96 131/151/96
f 129/143/97 144/162/97 133/153/97
f 145/163/98 135/164/98 134/154/98
f 186/165/99 126/148/99 187/166/99
f 144/167/100 132/145/100 133/139/100
f 130/142/101 140/168/101 129/143/101
f 137/169/102 127/170/102 126/148/102
f 130/142/103 147/159/103 141/171/103
f 127/170/104 24/149/104 126/148/104
f 106/129/105 138/172/105 116/127/105
f 150/173/106 127/170/106 106/129/106
f 162/174/107 116/127/107 138/172/107
f 156/175/108 122/176/108 121/137/108
f 141/171/109 171/177/109 165/178/109
f 157/179/110 123/123/110 122/176/110
f 161/180/111 138/172/111 137/169/111
f 166/181/112 145/182/112 142/160/112
f 158/183/113 124/130/113 123/123/113
f 147/159/114 163/184/114 171/177/114
f 116/127/115 152/185/115 117/133/115
f 185/186/116 137/169/116 186/165/116
f 159/187/117 125/135/117 124/130/117
f 169/188/118 146/189/118 145/163/118
f 152/185/119 118/138/119 117/133/119
f 140/168/120 165/178/120 164/190/120
f 153/191/121 119/192/121 118/138/121
f 167/193/122 142/160/122 143/157/122
f 154/194/123 120/195/123 119/192/123
f 140/168/124 168/196/124 144/162/124
f 155/197/125 121/137/125 120/198/125
f 168/199/126 143/157/126 144/167/126
f 176/200/127 169/201/127 166/181/127
f 164/190/128 178/202/128 168/196/128
f 179/203/129 170/204/129 169/188/129
f 185/186/130 172/205/130 161/180/130
f 178/206/131 167/193/131 168/199/131
f 165/178/132 174/207/132 164/190/132
f 165/178/133 181/208/133 175/209/133
f 177/210/134 166/181/134 167/193/134
f 171/177/135 173/211/135 181/208/135
f 172/205/136 162/174/136 161/180/136
f 183/27/137 34/26/137 182/22/137
f 13/1/138 33/212/138 56/24/138
f 56/24/139 10/4/139 13/1/139
f 182/22/140 33/212/140 32/213/140
f 30/214/141 183/27/141 31/215/141
f 135/164/142 188/147/142 104/155/142
f 170/204/143 184/216/143 185/186/143
f 170/204/144 186/165/144 146/189/144
f 146/189/145 187/166/145 135/164/145
f 96/97/146 190/217/146 191/218/146
f 8/99/147 188/147/147 190/217/147
f 188/147/148 189/217/148 190/217/148
f 189/217/149 191/218/149 190/217/149
f 192/217/150 106/129/150 107/128/150
f 107/128/151 39/115/151 192/217/151
f 148/219/152 194/89/152 25/88/152
f 193/217/153 192/217/153 39/115/153
f 92/220/154 193/217/154 39/115/154
f 93/221/155 195/217/155 196/222/155
f 150/173/156 148/219/156 196/222/156
f 189/217/157 149/223/157 150/173/157
f 196/222/158 25/88/158 197/217/158
f 85/60/159 25/88/159 26/63/159
f 84/90/160 197/217/160 85/60/160
f 15/2/161 208/1/161 9/3/161
f 207/5/162 205/4/162 208/1/162
f 262/8/163 45/7/163 236/6/163
f 234/10/164 235/9/164 216/11/164
f 216/11/165 215/12/165 217/13/165
f 214/14/166 217/13/166 215/12/166
f 213/16/167 210/15/167 214/14/167
f 242/17/168 211/18/168 209/19/168
f 205/4/169 209/21/169 211/20/169
f 361/22/170 244/23/170 227/26/170
f 362/27/171 228/48/171 248/25/171
f 248/30/172 246/31/172 247/28/172
f 202/33/173 247/28/173 246/31/173
f 54/35/174 261/34/174 45/7/174
f 259/36/175 236/6/175 261/34/175
f 236/37/176 256/38/176 235/9/176
f 235/9/177 255/40/177 215/12/177
f 215/12/178 254/41/178 214/14/178
f 214/14/179 252/42/179 213/16/179
f 213/16/180 249/43/180 211/18/180
f 211/18/181 231/44/181 205/224/181
f 244/23/182 231/45/182 253/46/182
f 244/23/183 229/47/183 227/26/183
f 229/47/184 228/48/184 227/26/184
f 230/50/185 246/31/185 228/29/185
f 201/52/186 266/51/186 200/53/186
f 231/44/187 251/54/187 253/225/187
f 257/55/188 249/43/188 252/42/188
f 267/56/189 252/42/189 254/41/189
f 254/41/190 222/57/190 267/56/190
f 253/46/191 250/58/191 229/47/191
f 250/59/192 257/55/192 271/90/192
f 274/61/193 271/90/193 257/55/193
f 274/61/194 222/57/194 221/62/194
f 272/60/195 221/62/195 220/63/195
f 256/38/196 222/57/196 255/40/196
f 258/66/197 268/65/197 256/67/197
f 259/36/198 260/68/198 258/66/198
f 53/70/199 259/36/199 54/35/199
f 264/71/200 53/70/200 52/72/200
f 241/73/201 52/72/201 51/114/201
f 275/74/202 263/69/202 264/71/202
f 240/75/203 264/71/203 241/73/203
f 258/66/204 260/68/204 273/76/204
f 277/77/205 260/68/205 275/74/205
f 239/78/206 275/74/206 240/75/206
f 238/79/207 277/77/207 239/78/207
f 273/76/208 278/81/208 268/65/208
f 277/77/209 278/81/209 273/76/209
f 221/62/210 268/64/210 278/226/210
f 278/84/211 265/86/211 220/82/211
f 233/87/212 265/86/212 238/85/212
f 265/86/213 373/89/213 219/88/213
f 271/90/214 269/91/214 250/59/214
f 250/59/215 212/93/215 230/50/215
f 270/92/216 370/218/216 212/93/216
f 281/95/217 266/51/217 230/50/217
f 212/93/218 282/96/218 281/95/218
f 203/98/219 283/97/219 204/99/219
f 282/96/220 200/53/220 266/51/220
f 284/101/221 199/100/221 198/102/221
f 285/104/222 206/103/222 199/100/222
f 291/106/223 1/105/223 206/103/223
f 201/52/224 288/107/224 202/33/224
f 203/98/225 286/108/225 200/53/225
f 204/99/226 289/109/226 203/98/226
f 200/53/227 287/110/227 201/52/227
f 288/111/228 198/102/228 202/112/228
f 51/114/229 300/113/229 241/73/229
f 232/115/230 295/116/230 294/134/230
f 238/79/231 298/117/231 297/122/231
f 239/78/232 299/118/232 298/117/232
f 233/87/233 296/119/233 295/116/233
f 240/75/234 300/113/234 299/118/234
f 237/121/235 297/122/235 296/227/235
f 298/117/236 308/123/236 307/176/236
f 296/125/237 304/124/237 295/126/237
f 293/128/238 301/127/238 292/129/238
f 299/118/239 309/130/239 308/123/239
f 297/132/240 305/131/240 296/125/240
f 294/134/241 302/133/241 293/128/241
f 300/113/242 125/135/242 309/130/242
f 298/117/243 306/137/243 297/122/243
f 295/116/244 303/138/244 294/134/244
f 287/140/245 316/139/245 288/141/245
f 284/101/246 313/142/246 285/104/246
f 285/104/247 319/144/247 291/106/247
f 286/146/248 315/145/248 287/140/248
f 367/147/249 310/148/249 366/166/249
f 291/106/250 128/150/250 97/228/250
f 289/152/251 314/151/251 286/146/251
f 288/111/252 312/143/252 284/101/252
f 290/155/253 317/154/253 289/156/253
f 314/151/254 325/157/254 315/145/254
f 319/144/255 139/158/255 128/150/255
f 317/161/256 324/160/256 314/151/256
f 326/162/257 312/143/257 316/153/257
f 318/164/258 327/163/258 317/154/258
f 310/148/259 365/165/259 366/166/259
f 315/145/260 326/167/260 316/139/260
f 322/168/261 313/142/261 312/143/261
f 311/170/262 320/169/262 310/148/262
f 313/142/263 329/159/263 319/144/263
f 311/170/264 218/149/264 331/223/264
f 321/172/265 292/129/265 301/127/265
f 311/170/266 332/173/266 292/129/266
f 301/127/267 343/174/267 321/172/267
f 307/176/268 338/175/268 306/137/268
f 323/171/269 351/177/269 329/159/269
f 308/123/270 339/179/270 307/176/270
f 321/172/271 342/180/271 320/169/271
f 327/182/272 346/181/272 324/160/272
f 309/130/273 340/183/273 308/123/273
f 329/159/274 163/184/274 139/158/274
f 301/127/275 334/185/275 333/229/275
f 320/169/276 364/186/276 365/165/276
f 125/135/277 341/187/277 309/130/277
f 328/189/278 349/188/278 327/163/278
f 303/138/279 334/185/279 302/133/279
f 322/168/280 345/178/280 323/171/280
f 304/192/281 335/191/281 303/138/281
f 324/160/282 347/193/282 325/157/282
f 305/195/283 336/194/283 304/192/283
f 348/196/284 322/168/284 326/162/284
f 306/137/285 337/197/285 305/198/285
f 325/157/286 348/199/286 326/167/286
f 349/201/287 355/200/287 346/181/287
f 357/202/288 344/190/288 348/196/288
f 350/204/289 358/203/289 349/188/289
f 364/186/290 352/205/290 363/216/290
f 347/193/291 357/206/291 348/199/291
f 353/207/292 345/178/292 344/190/292
f 345/178/293 360/208/293 351/177/293
f 346/181/294 356/210/294 347/193/294
f 351/177/295 173/211/295 163/184/295
f 343/174/296 352/205/296 342/180/296
f 362/27/297 361/22/297 227/26/297
f 208/1/298 33/212/298 9/3/298
f 205/4/299 243/24/299 208/1/299
f 226/213/300 243/24/300 361/22/300
f 224/214/301 361/22/301 223/230/301
f 367/147/302 318/164/302 290/155/302
f 350/204/303 363/216/303 359/231/303
f 365/165/304 350/204/304 328/189/304
f 366/166/305 328/189/305 318/164/305
f 370/218/306 204/99/306 283/97/306
f 204/99/307 367/147/307 290/155/307
f 368/217/308 367/147/308 369/217/308
f 370/218/309 368/217/309 369/217/309
f 292/129/310 371/217/310 293/128/310
f 293/128/311 232/115/311 294/134/311
f 373/89/312 330/219/312 219/88/312
f 372/217/313 371/217/313 330/219/313
f 232/115/314 373/89/314 279/220/314
f 374/217/315 280/221/315 375/222/315
f 375/222/316 371/217/316 332/173/316
f 332/173/317 218/149/317 368/217/317
f 376/217/318 330/219/318 375/222/318
f 219/88/319 272/60/319 220/63/319
f 271/90/320 376/217/320 270/92/320
f 13/1/321 12/5/321 15/2/321
f 10/4/322 14/21/322 12/5/322
f 75/8/323 41/232/323 44/6/323
f 44/6/324 74/34/324 45/7/324
f 45/7/325 42/233/325 75/8/325
f 43/9/326 44/37/326 41/10/326
f 21/12/327 43/9/327 22/11/327
f 20/14/328 21/12/328 23/13/328
f 19/16/329 20/14/329 16/15/329
f 17/18/330 19/16/330 55/17/330
f 182/22/331 34/26/331 57/23/331
f 183/27/332 29/230/332 61/25/332
f 61/25/333 35/48/333 34/26/333
f 61/30/334 29/234/334 58/32/334
f 60/28/335 59/31/335 35/29/335
f 61/30/336 58/32/336 60/28/336
f 6/33/337 5/52/337 59/31/337
f 59/31/338 60/28/338 58/32/338
f 74/34/339 72/36/339 54/35/339
f 44/6/340 71/66/340 72/36/340
f 44/37/341 43/9/341 69/38/341
f 43/9/342 21/12/342 68/40/342
f 21/12/343 20/14/343 67/41/343
f 20/14/344 19/16/344 65/42/344
f 19/16/345 17/18/345 62/43/345
f 17/18/346 10/224/346 38/44/346
f 38/45/347 10/4/347 57/23/347
f 57/23/348 34/26/348 36/47/348
f 36/47/349 34/26/349 35/48/349
f 59/31/350 79/51/350 37/50/350
f 79/51/351 59/31/351 5/52/351
f 38/44/352 66/225/352 64/54/352
f 62/43/353 64/54/353 70/55/353
f 65/42/354 70/55/354 80/56/354
f 67/41/355 80/56/355 28/57/355
f 63/58/356 64/235/356 66/46/356
f 63/59/357 84/90/357 70/55/357
f 87/61/358 80/56/358 70/55/358
f 70/55/359 84/90/359 85/60/359
f 28/57/360 80/56/360 87/61/360
f 27/62/361 87/61/361 85/60/361
f 69/38/362 68/40/362 28/57/362
f 81/65/363 86/76/363 71/66/363
f 72/36/364 71/66/364 73/68/364
f 53/70/365 54/35/365 72/36/365
f 53/70/366 76/69/366 77/71/366
f 50/73/367 51/114/367 52/72/367
f 76/69/368 73/68/368 88/74/368
f 77/71/369 88/74/369 49/75/369
f 90/77/370 88/74/370 73/68/370
f 88/74/371 90/77/371 48/78/371
f 47/79/372 48/78/372 90/77/372
f 90/77/373 86/76/373 91/81/373
f 27/62/374 91/226/374 81/64/374
f 91/84/375 27/236/375 26/82/375
f 26/82/376 78/86/376 89/83/376
f 40/87/377 46/120/377 47/85/377
f 47/85/378 89/83/378 78/86/378
f 78/86/379 92/220/379 40/87/379
f 78/86/380 26/82/380 25/88/380
f 194/89/381 92/220/381 78/86/381
f 84/90/382 63/59/382 82/91/382
f 63/59/383 36/237/383 37/50/383
f 37/50/384 94/95/384 18/93/384
f 18/93/385 82/91/385 63/59/385
f 83/92/386 82/91/386 18/93/386
f 18/93/387 191/218/387 93/94/387
f 79/51/388 95/96/388 94/95/388
f 18/93/389 94/95/389 95/96/389
f 96/97/390 95/96/390 7/98/390
f 4/53/391 7/98/391 95/96/391
f 3/100/392 99/104/392 98/101/392
f 11/103/393 105/106/393 99/104/393
f 1/105/394 97/228/394 105/106/394
f 102/107/395 101/110/395 5/52/395
f 100/108/396 103/109/396 7/98/396
f 103/109/397 104/238/397 8/99/397
f 101/110/398 100/108/398 4/53/398
f 2/102/399 98/101/399 102/111/399
f 114/113/400 115/136/400 51/114/400
f 39/115/401 108/134/401 109/116/401
f 47/79/402 111/122/402 112/117/402
f 48/78/403 112/117/403 113/118/403
f 40/87/404 109/116/404 110/119/404
f 49/75/405 113/118/405 114/113/405
f 46/121/75 110/227/75 111/122/75
f 112/117/406 122/176/406 123/123/406
f 119/124/407 120/131/407 110/125/407
f 116/127/408 117/133/408 107/128/408
f 113/118/409 123/123/409 124/130/409
f 120/131/410 121/239/410 111/132/410
f 117/133/411 118/138/411 108/134/411
f 114/113/412 124/130/412 125/135/412
f 121/137/413 122/176/413 112/117/413
f 118/138/414 119/192/414 109/116/414
f 133/139/415 132/145/415 101/140/415
f 98/101/416 99/104/416 130/142/416
f 99/104/417 105/106/417 136/144/417
f 132/145/418 131/151/418 100/146/418
f 188/147/419 187/166/419 126/148/419
f 105/106/420 97/228/420 128/150/420
f 131/151/421 134/161/421 103/152/421
f 102/111/422 98/101/422 129/143/422
f 134/154/423 135/164/423 104/155/423
f 143/157/424 142/160/424 131/151/424
f 136/144/425 128/150/425 139/158/425
f 142/160/426 145/182/426 134/161/426
f 129/143/427 140/168/427 144/162/427
f 145/163/428 146/189/428 135/164/428
f 186/165/429 137/169/429 126/148/429
f 144/167/430 143/157/430 132/145/430
f 130/142/431 141/171/431 140/168/431
f 137/169/432 138/172/432 127/170/432
f 130/142/433 136/144/433 147/159/433
f 127/170/434 149/223/434 24/149/434
f 106/129/435 127/170/435 138/172/435
f 150/173/436 149/223/436 127/170/436
f 162/174/437 151/229/437 116/127/437
f 156/175/438 157/179/438 122/176/438
f 141/171/439 147/159/439 171/177/439
f 157/179/440 158/183/440 123/123/440
f 161/180/441 162/174/441 138/172/441
f 166/181/442 169/201/442 145/182/442
f 158/183/443 159/187/443 124/130/443
f 147/159/444 139/158/444 163/184/444
f 116/127/445 151/229/445 152/185/445
f 185/186/446 161/180/446 137/169/446
f 159/187/447 160/240/447 125/135/447
f 169/188/448 170/204/448 146/189/448
f 152/185/449 153/191/449 118/138/449
f 140/168/450 141/171/450 165/178/450
f 153/191/451 154/194/451 119/192/451
f 167/193/452 166/181/452 142/160/452
f 154/194/453 155/241/453 120/195/453
f 140/168/454 164/190/454 168/196/454
f 155/197/455 156/175/455 121/137/455
f 168/199/456 167/193/456 143/157/456
f 176/200/457 179/242/457 169/201/457
f 164/190/458 174/207/458 178/202/458
f 179/203/459 180/231/459 170/204/459
f 185/186/460 184/216/460 172/205/460
f 178/206/461 177/210/461 167/193/461
f 165/178/462 175/209/462 174/207/462
f 165/178/463 171/177/463 181/208/463
f 177/210/464 176/200/464 166/181/464
f 171/177/465 163/184/465 173/211/465
f 172/205/466 151/229/466 162/174/466
f 13/1/467 9/3/467 33/212/467
f 56/24/468 57/23/468 10/4/468
f 32/213/469 31/215/469 182/22/469
f 182/22/470 56/24/470 33/212/470
f 30/214/471 29/230/471 183/27/471
f 183/27/472 182/22/472 31/215/472
f 135/164/473 187/166/473 188/147/473
f 170/204/474 180/231/474 184/216/474
f 170/204/475 185/186/475 186/165/475
f 146/189/476 186/165/476 187/166/476
f 191/218/477 18/93/477 96/97/477
f 96/97/478 8/99/478 190/217/478
f 8/99/479 104/155/479 188/147/479
f 188/147/480 24/149/480 189/217/480
f 189/217/481 93/94/481 191/218/481
f 192/217/482 150/173/482 106/129/482
f 107/128/483 108/134/483 39/115/483
f 148/219/484 193/217/484 194/89/484
f 193/217/485 148/219/485 192/217/485
f 39/115/486 40/87/486 92/220/486
f 92/220/487 194/89/487 193/217/487
f 93/221/488 189/217/488 195/217/488
f 196/222/489 195/217/489 150/173/489
f 150/173/490 192/217/490 148/219/490
f 150/173/491 195/217/491 189/217/491
f 189/217/492 24/149/492 149/223/492
f 83/92/493 93/221/493 196/222/493
f 196/222/494 148/219/494 25/88/494
f 197/217/158 83/92/158 196/222/158
f 85/60/495 197/217/495 25/88/495
f 84/90/496 83/92/496 197/217/496
f 15/2/497 207/5/497 208/1/497
f 207/5/498 209/21/498 205/4/498
f 236/6/499 234/232/499 262/8/499
f 262/8/500 42/233/500 45/7/500
f 45/7/501 261/34/501 236/6/501
f 234/10/502 236/37/502 235/9/502
f 216/11/503 235/9/503 215/12/503
f 214/14/504 210/15/504 217/13/504
f 213/16/505 242/17/505 210/15/505
f 242/17/506 213/16/506 211/18/506
f 361/22/507 243/24/507 244/23/507
f 248/25/508 223/230/508 362/27/508
f 362/27/184 227/26/184 228/48/184
f 245/32/509 223/234/509 248/30/509
f 248/30/510 228/29/510 246/31/510
f 247/28/511 245/32/511 248/30/511
f 246/31/512 201/52/512 202/33/512
f 202/33/513 245/32/513 247/28/513
f 54/35/514 259/36/514 261/34/514
f 259/36/515 258/66/515 236/6/515
f 236/37/516 258/39/516 256/38/516
f 235/9/517 256/38/517 255/40/517
f 215/12/518 255/40/518 254/41/518
f 214/14/519 254/41/519 252/42/519
f 213/16/520 252/42/520 249/43/520
f 211/18/521 249/43/521 231/44/521
f 244/23/522 205/4/522 231/45/522
f 244/23/523 253/46/523 229/47/523
f 229/47/524 230/49/524 228/48/524
f 230/50/525 266/51/525 246/31/525
f 201/52/526 246/31/526 266/51/526
f 231/44/527 249/43/527 251/54/527
f 257/55/528 251/54/528 249/43/528
f 267/56/529 257/55/529 252/42/529
f 254/41/530 255/40/530 222/57/530
f 253/46/531 251/235/531 250/58/531
f 250/59/532 251/54/532 257/55/532
f 257/55/533 267/56/533 274/61/533
f 274/61/534 272/60/534 271/90/534
f 274/61/535 267/56/535 222/57/535
f 272/60/536 274/61/536 221/62/536
f 256/38/537 268/64/537 222/57/537
f 258/66/538 273/76/538 268/65/538
f 259/36/539 263/69/539 260/68/539
f 53/70/540 263/69/540 259/36/540
f 264/71/541 263/69/541 53/70/541
f 241/73/542 264/71/542 52/72/542
f 275/74/543 260/68/543 263/69/543
f 240/75/544 275/74/544 264/71/544
f 277/77/545 273/76/545 260/68/545
f 239/78/546 277/77/546 275/74/546
f 238/79/547 276/80/547 277/77/547
f 277/77/548 276/80/548 278/81/548
f 221/62/549 222/57/549 268/64/549
f 220/82/550 221/236/550 278/84/550
f 278/84/551 276/83/551 265/86/551
f 238/85/552 237/120/552 233/87/552
f 233/87/553 279/220/553 265/86/553
f 265/86/554 276/83/554 238/85/554
f 219/88/555 220/82/555 265/86/555
f 265/86/556 279/220/556 373/89/556
f 271/90/557 270/92/557 269/91/557
f 230/50/558 229/237/558 250/59/558
f 250/59/559 269/91/559 212/93/559
f 212/93/560 281/95/560 230/50/560
f 212/93/561 269/91/561 270/92/561
f 270/92/562 280/94/562 370/218/562
f 281/95/563 282/96/563 266/51/563
f 212/93/564 283/97/564 282/96/564
f 203/98/565 282/96/565 283/97/565
f 282/96/566 203/98/566 200/53/566
f 284/101/567 285/104/567 199/100/567
f 285/104/568 291/106/568 206/103/568
f 291/106/569 97/228/569 1/105/569
f 201/52/570 287/110/570 288/107/570
f 203/98/571 289/109/571 286/108/571
f 204/99/572 290/238/572 289/109/572
f 200/53/573 286/108/573 287/110/573
f 288/111/574 284/101/574 198/102/574
f 51/114/575 115/136/575 300/113/575
f 232/115/576 233/87/576 295/116/576
f 238/79/577 239/78/577 298/117/577
f 239/78/578 240/75/578 299/118/578
f 233/87/579 237/120/579 296/119/579
f 240/75/580 241/73/580 300/113/580
f 237/121/235 238/79/235 297/122/235
f 298/117/581 299/118/581 308/123/581
f 296/125/582 305/131/582 304/124/582
f 293/128/583 302/133/583 301/127/583
f 299/118/584 300/113/584 309/130/584
f 297/132/585 306/239/585 305/131/585
f 294/134/586 303/138/586 302/133/586
f 300/113/587 115/136/587 125/135/587
f 298/117/588 307/176/588 306/137/588
f 295/116/589 304/192/589 303/138/589
f 287/140/590 315/145/590 316/139/590
f 284/101/591 312/143/591 313/142/591
f 285/104/592 313/142/592 319/144/592
f 286/146/593 314/151/593 315/145/593
f 367/147/594 218/149/594 310/148/594
f 291/106/595 319/144/595 128/150/595
f 289/152/596 317/161/596 314/151/596
f 288/111/597 316/153/597 312/143/597
f 290/155/598 318/164/598 317/154/598
f 314/151/599 324/160/599 325/157/599
f 319/144/600 329/159/600 139/158/600
f 317/161/601 327/182/601 324/160/601
f 326/162/602 322/168/602 312/143/602
f 318/164/603 328/189/603 327/163/603
f 310/148/604 320/169/604 365/165/604
f 315/145/605 325/157/605 326/167/605
f 322/168/606 323/171/606 313/142/606
f 311/170/607 321/172/607 320/169/607
f 313/142/608 323/171/608 329/159/608
f 311/170/609 310/148/609 218/149/609
f 321/172/610 311/170/610 292/129/610
f 311/170/611 331/223/611 332/173/611
f 301/127/612 333/229/612 343/174/612
f 307/176/613 339/179/613 338/175/613
f 323/171/614 345/178/614 351/177/614
f 308/123/615 340/183/615 339/179/615
f 321/172/616 343/174/616 342/180/616
f 327/182/617 349/201/617 346/181/617
f 309/130/618 341/187/618 340/183/618
f 329/159/619 351/177/619 163/184/619
f 301/127/620 302/133/620 334/185/620
f 320/169/621 342/180/621 364/186/621
f 125/135/447 160/240/447 341/187/447
f 328/189/622 350/204/622 349/188/622
f 303/138/623 335/191/623 334/185/623
f 322/168/624 344/190/624 345/178/624
f 304/192/625 336/194/625 335/191/625
f 324/160/626 346/181/626 347/193/626
f 305/195/627 337/241/627 336/194/627
f 348/196/628 344/190/628 322/168/628
f 306/137/629 338/175/629 337/197/629
f 325/157/630 347/193/630 348/199/630
f 349/201/631 358/242/631 355/200/631
f 357/202/632 353/207/632 344/190/632
f 350/204/633 359/231/633 358/203/633
f 364/186/634 342/180/634 352/205/634
f 347/193/635 356/210/635 357/206/635
f 353/207/636 354/209/636 345/178/636
f 345/178/637 354/209/637 360/208/637
f 346/181/638 355/200/638 356/210/638
f 351/177/639 360/208/639 173/211/639
f 343/174/640 333/229/640 352/205/640
f 208/1/641 243/24/641 33/212/641
f 205/4/642 244/23/642 243/24/642
f 361/22/643 225/215/643 226/213/643
f 226/213/644 33/212/644 243/24/644
f 224/214/645 225/215/645 361/22/645
f 361/22/297 362/27/297 223/230/297
f 367/147/646 366/166/646 318/164/646
f 350/204/647 364/186/647 363/216/647
f 365/165/648 364/186/648 350/204/648
f 366/166/649 365/165/649 328/189/649
f 283/97/650 212/93/650 370/218/650
f 370/218/651 369/217/651 204/99/651
f 204/99/652 369/217/652 367/147/652
f 368/217/653 218/149/653 367/147/653
f 370/218/654 280/94/654 368/217/654
f 292/129/655 332/173/655 371/217/655
f 293/128/656 371/217/656 232/115/656
f 373/89/657 372/217/657 330/219/657
f 372/217/658 232/115/658 371/217/658
f 279/220/659 233/87/659 232/115/659
f 232/115/660 372/217/660 373/89/660
f 374/217/661 368/217/661 280/221/661
f 332/173/662 374/217/662 375/222/662
f 375/222/663 330/219/663 371/217/663
f 368/217/664 374/217/664 332/173/664
f 332/173/665 331/223/665 218/149/665
f 375/222/666 280/221/666 270/92/666
f 376/217/667 219/88/667 330/219/667
f 375/222/668 270/92/668 376/217/668
f 219/88/669 376/217/669 272/60/669
f 271/90/670 272/60/670 376/217/670
l 74 75
l 261 262
