# Blender 4.3.0
# www.blender.org
mtllib padlock.mtl
o 南京錠
v -0.142610 -0.350231 2.269978
v -0.142059 -0.342491 2.271078
v 0.025599 -0.308301 2.243995
v -0.150389 -0.342452 2.269816
v -0.025668 -0.309479 2.243893
v -0.144058 -0.346628 2.270688
v 0.021245 -0.128684 2.248397
v 0.011940 -0.087706 2.258630
v 0.018869 -0.098060 2.250793
v 0.022138 -0.112381 2.247349
v -0.021245 -0.128684 2.248397
v -0.022138 -0.112381 2.247349
v -0.018869 -0.098060 2.250793
v 0.024034 -0.312521 2.245870
v -0.018633 -0.313192 2.247041
v -0.147499 -0.342591 2.270646
v 0.012251 -0.185307 2.257335
v -0.012251 -0.185307 2.257335
v 0.016772 -0.185373 2.271105
v 0.015705 -0.185357 2.262902
v -0.147893 -0.347533 2.269785
v -0.015705 -0.185357 2.262902
v 0.006806 -0.183318 2.253564
v 0.000000 -0.183490 2.252438
v -0.006806 -0.183318 2.253564
v -0.013992 -0.308138 2.236829
v 0.013992 -0.308138 2.236829
v 0.010344 -0.086358 2.271108
v -0.142358 -0.058097 2.271087
v -0.142419 -0.049644 2.269816
v 0.016910 -0.089431 2.262466
v -0.150198 -0.057423 2.269978
v -0.142558 -0.052534 2.270646
v 0.024657 -0.098824 2.259140
v -0.146595 -0.055975 2.270688
v 0.028440 -0.113209 2.257368
v -0.147499 -0.052140 2.269785
v 0.027238 -0.128544 2.258008
v 0.029057 -0.129012 2.271104
v -0.011039 -0.086520 2.271107
v -0.016910 -0.089431 2.262466
v -0.011786 -0.087547 2.258840
v -0.023716 -0.095138 2.271105
v -0.142419 -0.350422 2.223749
v -0.150198 -0.342643 2.223586
v -0.028086 -0.103421 2.271104
v -0.142748 -0.342452 2.222516
v -0.024657 -0.098824 2.259140
v -0.147499 -0.347927 2.223779
v -0.030502 -0.113227 2.271103
v -0.028440 -0.113209 2.257368
v -0.027238 -0.128544 2.258008
v -0.000501 -0.086360 2.258929
v -0.006670 -0.088445 2.254218
v 0.000000 -0.089700 2.251127
v 0.006670 -0.088445 2.254218
v -0.009056 -0.093729 2.248470
v 0.000000 -0.095832 2.245342
v 0.009056 -0.093729 2.248470
v -0.010920 -0.101593 2.244071
v 0.000000 -0.104414 2.241102
v 0.010920 -0.101593 2.244071
v -0.012084 -0.112597 2.241133
v 0.000000 -0.113326 2.239090
v 0.012084 -0.112597 2.241133
v -0.011650 -0.128397 2.242374
v 0.000000 -0.122529 2.239629
v 0.011650 -0.128397 2.242374
v -0.146595 -0.344091 2.222876
v 0.028616 -0.313099 2.271108
v -0.027195 -0.313430 2.271108
v -0.142558 -0.347533 2.222918
v -0.035203 -0.308410 2.269586
v -0.032790 -0.308414 2.255594
v -0.142610 -0.049835 2.223586
v 0.032790 -0.308414 2.255594
v 0.035203 -0.308410 2.269586
v -0.142372 -0.057323 2.222512
v -0.150389 -0.057614 2.223749
v -0.144058 -0.053438 2.222876
v -0.147499 -0.057475 2.222918
v -0.147893 -0.052534 2.223779
v 0.142419 -0.350422 2.269816
v 0.150198 -0.342643 2.269978
v 0.142458 -0.342093 2.271078
v 0.147499 -0.347927 2.269785
v 0.034859 -0.310433 2.271107
v 0.031340 -0.311677 2.256368
v 0.000000 -0.142864 2.243416
v 0.146595 -0.344091 2.270688
v 0.142558 -0.347533 2.270646
v 0.142610 -0.049835 2.269978
v 0.141936 -0.057675 2.271087
v 0.150389 -0.057614 2.269816
v 0.144058 -0.053438 2.270688
v 0.147499 -0.057475 2.270646
v 0.147893 -0.052534 2.269785
v 0.142610 -0.350231 2.223586
v 0.142372 -0.342743 2.222512
v 0.150389 -0.342452 2.223749
v 0.144058 -0.346628 2.222876
v 0.147499 -0.342591 2.222918
v 0.013362 -0.311638 2.238189
v 0.000000 -0.311556 2.235809
v -0.013362 -0.311638 2.238189
v 0.147893 -0.347533 2.223779
v -0.031340 -0.311677 2.256368
v 0.142419 -0.049644 2.223749
v 0.150198 -0.057423 2.223586
v 0.142748 -0.057614 2.222516
v 0.147499 -0.052140 2.223779
v 0.000000 -0.308335 2.234519
v -0.006858 -0.188369 2.253560
v 0.000000 -0.188208 2.252371
v 0.006858 -0.188369 2.253560
v 0.146595 -0.055975 2.222876
v 0.142558 -0.052534 2.222918
v -0.029057 -0.129012 2.271104
v -0.017906 -0.089338 2.271106
v 0.017906 -0.089338 2.271106
v 0.023716 -0.095138 2.271105
v 0.028086 -0.103421 2.271104
v 0.030502 -0.113227 2.271103
v -0.034859 -0.310433 2.271107
v -0.016772 -0.185373 2.271105
vn -0.0323 -0.0374 0.9988
vn 0.0374 -0.0323 0.9988
vn 0.0255 0.1366 0.9903
vn -0.1034 -0.4331 0.8954
vn -0.0721 -0.1338 0.9884
vn -0.4185 -0.3999 0.8154
vn -0.1557 -0.0495 0.9866
vn -0.5336 -0.1215 0.8370
vn -0.0495 0.1555 0.9866
vn -0.1335 0.0721 0.9884
vn -0.0373 0.0320 0.9988
vn -0.3999 0.4185 0.8154
vn -0.1215 0.5335 0.8370
vn -0.4331 0.1034 0.8954
vn -0.4000 -0.4185 -0.8154
vn -0.0494 -0.1564 -0.9865
vn -0.1215 -0.5335 -0.8370
vn -0.1349 -0.0722 -0.9882
vn -0.4331 -0.1034 -0.8954
vn -0.0379 -0.0331 -0.9987
vn -0.1034 0.4331 -0.8954
vn -0.0722 0.1347 -0.9882
vn -0.4186 0.3999 -0.8154
vn -0.1563 0.0494 -0.9865
vn -0.0330 0.0378 -0.9987
vn -0.5335 0.1215 -0.8370
vn 0.4000 -0.4185 0.8154
vn 0.0495 -0.1557 0.9866
vn 0.1215 -0.5335 0.8370
vn 0.1338 -0.0721 0.9884
vn 0.4331 -0.1034 0.8954
vn 0.1034 0.4331 0.8954
vn 0.0721 0.1335 0.9884
vn 0.4185 0.3999 0.8154
vn 0.1555 0.0495 0.9866
vn 0.0320 0.0374 0.9988
vn 0.5336 0.1215 0.8370
vn 0.1034 -0.4331 -0.8954
vn 0.0722 -0.1347 -0.9883
vn 0.4185 -0.3999 -0.8154
vn 0.1563 -0.0494 -0.9865
vn 0.0330 -0.0378 -0.9987
vn 0.5336 -0.1215 -0.8370
vn 0.4000 0.4185 -0.8154
vn 0.0494 0.1564 -0.9865
vn 0.1215 0.5336 -0.8370
vn 0.1349 0.0722 -0.9882
vn 0.4331 0.1034 -0.8954
vn 0.0379 0.0331 -0.9987
vn -0.5957 0.1581 0.7875
vn -0.8866 0.1593 0.4342
vn -0.9522 0.0323 0.3037
vn 0.7385 0.0314 0.6735
vn 0.9521 0.0323 0.3041
vn 0.5993 0.3111 0.7376
vn -0.0000 -0.0865 0.9963
vn -0.2249 0.0623 0.9724
vn -0.3150 -0.0747 0.9461
vn -0.0797 0.0470 0.9957
vn -0.6043 0.7791 0.1665
vn -0.0282 0.1350 0.9904
vn -0.0000 0.2064 0.9785
vn -0.2698 0.1477 0.9515
vn -0.0000 0.0942 0.9956
vn 0.2698 0.1477 0.9515
vn -0.0258 -0.1361 0.9904
vn 0.0009 -0.9823 0.1873
vn -0.3759 -0.8674 0.3260
vn -0.8040 -0.4930 0.3325
vn -0.6147 -0.5082 0.6033
vn -0.6144 -0.1102 0.7813
vn 0.0279 -0.1358 0.9903
vn 0.3729 -0.8689 0.3255
vn 0.6151 -0.5094 0.6018
vn 0.8026 -0.4943 0.3339
vn 0.6144 -0.1102 0.7813
vn 0.1963 -0.8500 0.4888
vn -0.0000 -0.7705 0.6374
vn -0.1928 -0.8512 0.4881
vn 0.2631 -0.6220 0.7375
vn -0.0000 -0.5150 0.8572
vn -0.2629 -0.6217 0.7378
vn 0.3021 -0.3734 0.8771
vn -0.0000 -0.2730 0.9620
vn -0.3021 -0.3734 0.8771
vn 0.2451 -0.0724 0.9668
vn -0.0000 -0.0377 0.9993
vn -0.2451 -0.0724 0.9668
vn 0.2884 0.6375 0.7144
vn 0.1649 0.9670 0.1944
vn 0.5929 0.7877 0.1672
vn 0.0776 0.0474 0.9959
vn 0.8979 0.1535 0.4125
vn 0.9972 0.0708 0.0238
vn 0.1731 0.0057 0.9849
vn -0.0000 0.0279 0.9996
vn 0.2241 0.0619 0.9726
vn -0.9972 0.0708 0.0238
vn -0.1731 0.0056 0.9849
vn 0.3209 0.0967 0.9422
vn 0.3151 -0.0746 0.9461
vn -0.7385 0.0312 0.6735
vn 0.1478 0.0228 0.9888
vn 0.9177 0.1527 0.3668
vn -0.4471 0.8172 0.3636
vn 0.6445 0.1553 0.7487
vn -0.0000 0.1027 0.9947
vn -0.3209 0.0967 0.9422
vn -0.6444 0.1553 0.7487
vn -0.5649 -0.8117 0.1486
vn -0.1141 -0.0846 0.9899
vn -0.0750 -0.1144 0.9906
vn -0.1383 -0.0107 0.9903
vn -0.1347 -0.0505 0.9896
vn -0.9100 -0.0968 0.4031
vn -0.9177 0.1527 0.3668
vn 0.5706 -0.8070 0.1525
vn 0.0762 -0.1145 0.9905
vn 0.1141 -0.0846 0.9899
vn 0.1383 -0.0107 0.9903
vn 0.1347 -0.0505 0.9896
vn 0.9100 -0.0968 0.4031
vn -0.1480 0.0228 0.9887
vn -0.0002 0.4755 0.8797
vn -0.3045 0.6492 0.6970
vt 0.956588 0.007639
vt 0.956523 0.355239
vt 0.930533 0.148182
vt 0.665290 0.373425
vt 0.671300 0.374820
vt 0.665791 0.377861
vt 0.674300 0.377366
vt 0.676591 0.372807
vt 0.008654 0.986251
vt 0.002635 0.980806
vt 0.008596 0.980555
vt 0.004319 0.985354
vt 0.689208 0.007108
vt 0.692146 0.002169
vt 0.695771 0.007172
vt 0.684389 0.002629
vt 0.682407 0.007231
vt 0.007311 0.632573
vt 0.002585 0.631765
vt 0.009844 0.626223
vt 0.374652 0.623289
vt 0.369487 0.618778
vt 0.376501 0.618698
vt 0.366892 0.623701
vt 0.358027 0.981555
vt 0.362393 0.982609
vt 0.357222 0.986551
vt 0.363369 0.618923
vt 0.007253 0.261942
vt 0.005804 0.267952
vt 0.001681 0.263244
vt 0.002775 0.271417
vt 0.007493 0.273501
vt 0.355952 0.628048
vt 0.361287 0.632692
vt 0.356761 0.633511
vt 0.664431 0.021334
vt 0.670162 0.026749
vt 0.663071 0.026837
vt 0.672423 0.021507
vt 0.375214 0.633565
vt 0.370549 0.632535
vt 0.375818 0.628757
vt 0.676003 0.026424
vt 0.683726 0.355501
vt 0.689655 0.356950
vt 0.685548 0.360888
vt 0.693514 0.359882
vt 0.695572 0.355074
vt 0.376171 0.987033
vt 0.371154 0.982450
vt 0.376055 0.981611
vt 0.372052 0.985718
vt 0.377246 0.270425
vt 0.371245 0.268940
vt 0.375733 0.265029
vt 0.367710 0.265987
vt 0.365696 0.270628
vt 0.724711 0.628519
vt 0.731246 0.634799
vt 0.724973 0.633819
vt 0.728765 0.629479
vt 0.360223 0.262458
vt 0.355646 0.267572
vt 0.355523 0.260559
vt 0.360585 0.270137
vt 0.362955 0.266865
vt 0.355856 0.273704
vt 0.362956 0.634772
vt 0.731059 0.980945
vt 0.725820 0.981835
vt 0.369567 0.980394
vt 0.748506 0.379068
vt 0.836337 0.379062
vt 0.888387 0.530427
vt 0.875353 0.845385
vt 0.918703 0.845504
vt 0.778493 0.996782
vt 0.476941 0.557312
vt 0.501025 0.382303
vt 0.484627 0.560481
vt 0.381840 0.565298
vt 0.385156 0.481069
vt 0.388272 0.564086
vt 0.512110 0.476483
vt 0.526239 0.495109
vt 0.512110 0.514051
vt 0.497979 0.495109
vt 0.214394 0.514315
vt 0.141702 0.527383
vt 0.136285 0.512347
vt 0.862840 0.634510
vt 0.798962 0.635630
vt 0.774384 0.618355
vt 0.216136 0.540102
vt 0.139629 0.541347
vt 0.829080 0.740256
vt 0.892878 0.741389
vt 0.804405 0.757517
vt 0.110611 0.534892
vt 0.090164 0.527041
vt 0.109514 0.518927
vt 0.071737 0.538544
vt 0.050250 0.527845
vt 0.070231 0.516632
vt 0.089376 0.549999
vt 0.039295 0.541904
vt 0.018134 0.529044
vt 0.037477 0.515450
vt 0.767113 0.639319
vt 0.747260 0.632474
vt 0.015730 0.544718
vt 0.001404 0.530102
vt 0.013719 0.515471
vt 0.439516 0.377779
vt 0.453311 0.416202
vt 0.437781 0.436303
vt 0.461051 0.481069
vt 0.464356 0.565298
vt 0.456185 0.564051
vt 0.866263 0.996826
vt 0.869264 0.999926
vt 0.982832 0.998728
vt 0.971673 0.996636
vt 0.982227 0.845323
vt 0.486305 0.367115
vt 0.467539 0.379982
vt 0.941709 0.379286
vt 0.952838 0.377200
vt 0.951876 0.530630
vt 0.848384 0.843096
vt 0.848485 0.848429
vt 0.722885 0.167996
vt 0.007659 0.000338
vt 0.355149 0.000309
vt 0.355278 0.501914
vt 0.383650 0.353642
vt 0.384301 0.356952
vt 0.355151 0.988140
vt 0.955507 0.003127
vt 0.003402 0.001401
vt 0.136342 0.621336
vt 0.359629 0.500697
vt 0.384156 0.002382
vt 0.359632 0.001403
vt 0.722036 0.988300
vt 0.954491 0.359388
vt 0.844986 0.530538
vt 0.467575 0.563793
vt 0.817997 0.527495
vt 0.693554 0.379553
vt 0.982685 0.777499
vt 0.884489 0.776020
vt 0.839310 0.375964
vt 0.754114 0.376236
vt 0.811787 0.775369
vt 0.394088 0.421399
vt 0.503684 0.388527
vt 0.512109 0.393989
vt 0.520532 0.388527
vt 0.781725 0.600508
vt 0.817899 0.532828
vt 0.158719 0.506831
vt 0.827978 0.645166
vt 0.881683 0.645883
vt 0.952423 0.640357
vt 0.952166 0.646036
vt 0.952845 0.617997
vt 0.952700 0.630071
vt 0.850167 0.617851
vt 0.854509 0.599872
vt 0.161519 0.547555
vt 0.214939 0.548237
vt 0.982564 0.735576
vt 0.909518 0.730902
vt 0.982407 0.729905
vt 0.149839 0.552463
vt 0.982826 0.757924
vt 0.982735 0.745853
vt 0.880100 0.758035
vt 0.777532 0.743409
vt 0.095094 0.507219
vt 0.711620 0.609599
vt 0.726571 0.618414
vt 0.709260 0.618502
vt 0.756801 0.757461
vt 0.742145 0.766296
vt 0.739779 0.757391
vt 0.765831 0.774290
vt 0.735572 0.601590
vt 0.952652 0.598426
vt 0.374028 0.205674
vt 0.369221 0.188651
vt 0.381156 0.205674
vt 0.369221 0.222698
vt 0.406703 0.377779
vt 0.423110 0.364224
vt 0.730938 0.999178
vt 0.723822 0.996320
vt 0.700652 0.376699
vt 0.809901 0.531449
vt 0.808851 0.528062
vt 0.840554 0.844486
vt 0.928144 0.223017
vt 0.930493 0.216095
vt 0.928144 0.139521
vt 0.761944 0.216009
vt 0.813331 0.202157
vt 0.813331 0.160367
vt 0.761944 0.146509
vt 0.747157 0.144461
vt 0.747157 0.218055
vt 0.738156 0.147352
vt 0.738156 0.215163
vt 0.730573 0.209792
vt 0.730573 0.152723
vt 0.725307 0.159846
vt 0.725307 0.202667
vt 0.722834 0.193963
vt 0.010103 0.502141
vt 0.135155 0.617038
vt 0.382821 0.007858
vt 0.202894 0.505858
vt 0.362403 0.189163
vt 0.362403 0.222187
vt 0.840245 0.846812
s 1
usemtl マテリアル.004
f 2/1/1 85/2/2 71/3/3
f 1/4/4 6/5/5 21/6/6
f 16/7/7 6/5/5 2/8/1
f 21/9/6 16/10/7 4/11/8
f 21/9/6 6/12/5 16/10/7
f 33/13/9 35/14/10 29/15/11
f 37/16/12 33/13/9 30/17/13
f 37/16/12 35/14/10 33/13/9
f 32/18/14 35/19/10 37/20/12
f 49/21/15 72/22/16 44/23/17
f 49/21/15 69/24/18 72/22/16
f 45/25/19 69/26/18 49/27/15
f 72/22/16 69/24/18 47/28/20
f 75/29/21 80/30/22 82/31/23
f 81/32/24 80/30/22 78/33/25
f 82/34/23 81/35/24 79/36/26
f 82/31/23 80/30/22 81/32/24
f 86/37/27 91/38/28 83/39/29
f 86/37/27 90/40/30 91/38/28
f 84/41/31 90/42/30 86/43/27
f 91/38/28 90/40/30 85/44/2
f 92/45/32 95/46/33 97/47/34
f 96/48/35 95/46/33 93/49/36
f 97/50/34 96/51/35 94/52/37
f 97/50/34 95/53/33 96/51/35
f 98/54/38 101/55/39 106/56/40
f 102/57/41 101/55/39 99/58/42
f 106/59/40 102/60/41 100/61/43
f 106/59/40 101/62/39 102/60/41
f 111/63/44 117/64/45 108/65/46
f 111/63/44 116/66/47 117/64/45
f 109/67/48 116/66/47 111/63/44
f 117/64/45 116/66/47 110/68/49
f 32/18/14 4/11/8 16/10/7
f 45/25/19 79/36/26 81/69/24
f 72/22/16 101/55/39 98/54/38
f 117/64/45 80/30/22 75/29/21
f 102/60/41 116/70/47 109/71/48
f 84/41/31 94/52/37 96/72/35
f 91/38/28 6/5/5 1/4/4
f 33/13/9 95/46/33 92/45/32
f 3/73/50 76/74/51 20/75/52
f 18/76/53 22/77/54 5/78/55
f 114/79/56 27/80/57 115/81/58
f 87/82/59 88/83/60 70/84/61
f 89/85/62 68/86/63 67/87/64
f 66/88/65 89/85/62 67/87/64
f 28/89/66 53/90/67 8/91/68
f 34/92/69 9/93/70 10/94/71
f 53/90/67 40/95/72 42/96/73
f 13/97/74 48/98/75 12/99/76
f 53/90/67 42/96/73 54/100/77
f 53/90/67 54/100/77 55/101/78
f 56/102/79 53/90/67 55/101/78
f 8/91/68 53/90/67 56/102/79
f 54/100/77 42/96/73 57/103/80
f 55/101/78 57/103/80 58/104/81
f 59/105/82 55/101/78 58/104/81
f 8/91/68 56/102/79 59/105/82
f 57/103/80 13/106/74 60/107/83
f 58/104/81 60/107/83 61/108/84
f 62/109/85 58/104/81 61/108/84
f 9/93/70 59/110/82 62/111/85
f 61/108/84 63/112/86 64/113/87
f 65/114/88 61/108/84 64/113/87
f 105/115/89 5/116/55 15/117/90
f 107/118/91 124/119/92 71/120/3
f 5/78/55 74/121/93 107/122/91
f 124/123/92 73/124/94 125/125/95
f 27/80/57 114/79/56 112/126/96
f 114/79/56 26/127/97 112/126/96
f 77/128/98 87/129/59 19/130/99
f 25/131/100 18/76/53 113/132/101
f 100/61/43 94/52/37 84/41/31
f 40/133/72 93/49/36 29/15/11
f 108/65/46 30/134/13 92/135/32
f 4/11/8 79/36/26 45/25/19
f 99/136/42 78/33/25 110/68/49
f 44/137/17 21/6/6 49/138/15
f 49/139/15 4/11/8 45/25/19
f 16/140/7 29/15/11 35/14/10
f 30/134/13 82/31/23 37/141/12
f 35/19/10 32/18/14 16/10/7
f 37/20/12 79/36/26 32/18/14
f 81/142/24 47/28/20 69/24/18
f 99/58/42 72/22/16 47/28/20
f 69/26/18 45/25/19 81/69/24
f 44/23/17 72/22/16 98/54/38
f 78/33/25 117/64/45 110/68/49
f 108/65/46 117/64/45 75/29/21
f 110/68/49 102/143/41 99/136/42
f 100/61/43 102/60/41 109/71/48
f 83/39/29 106/144/40 86/37/27
f 86/43/27 100/61/43 84/41/31
f 108/65/46 97/145/34 111/63/44
f 111/146/44 94/52/37 109/71/48
f 96/48/35 85/2/2 90/147/30
f 2/8/1 91/38/28 85/44/2
f 90/42/30 84/41/31 96/72/35
f 83/39/29 91/38/28 1/4/4
f 93/49/36 33/13/9 29/15/11
f 30/17/13 33/13/9 92/45/32
f 44/137/17 83/39/29 1/4/4
f 77/128/98 20/75/52 76/74/51
f 73/124/94 22/77/54 125/125/95
f 17/148/102 3/73/50 20/75/52
f 5/78/55 113/132/101 18/76/53
f 5/78/55 22/77/54 74/121/93
f 114/79/56 113/149/101 26/127/97
f 3/73/50 115/150/58 27/151/57
f 22/77/54 118/152/103 125/125/95
f 18/76/53 52/153/104 22/77/54
f 88/154/60 77/128/98 76/74/51
f 14/155/105 76/74/51 3/73/50
f 25/131/100 11/156/106 18/76/53
f 70/84/61 88/83/60 14/157/105
f 89/85/62 25/158/100 24/159/107
f 89/85/62 23/160/108 68/86/63
f 7/161/109 23/162/108 17/148/102
f 31/163/110 28/89/66 8/91/68
f 28/89/66 40/95/72 53/90/67
f 8/164/68 34/92/69 31/165/110
f 31/165/110 121/166/111 120/167/112
f 34/92/69 123/168/113 122/169/114
f 122/169/114 121/166/111 34/92/69
f 36/170/115 34/92/69 10/94/71
f 38/171/116 123/168/113 36/170/115
f 7/161/109 36/170/115 10/94/71
f 41/172/117 40/95/72 119/173/118
f 43/174/119 41/175/117 119/176/118
f 48/177/75 42/96/73 41/172/117
f 50/178/120 48/98/75 46/179/121
f 48/98/75 43/174/119 46/179/121
f 50/178/120 52/153/104 51/180/122
f 12/99/76 48/98/75 51/180/122
f 51/180/122 11/156/106 12/99/76
f 12/99/76 60/181/83 13/97/74
f 59/105/82 56/102/79 55/101/78
f 55/101/78 54/100/77 57/103/80
f 57/103/80 42/96/73 13/106/74
f 9/182/70 8/91/68 59/105/82
f 62/109/85 59/105/82 58/104/81
f 58/104/81 57/103/80 60/107/83
f 65/114/88 62/109/85 61/108/84
f 61/108/84 60/107/83 63/112/86
f 62/111/85 10/94/71 9/93/70
f 67/183/64 65/184/88 64/185/87
f 63/186/86 67/187/64 64/188/87
f 12/99/76 66/189/65 63/186/86
f 68/190/63 10/94/71 65/184/88
f 38/171/116 17/148/102 20/75/52
f 39/191/123 20/75/52 19/130/99
f 15/117/90 70/84/61 14/157/105
f 104/192/124 27/193/57 112/194/96
f 26/195/97 104/192/124 112/194/96
f 15/117/90 103/196/125 104/197/124
f 105/198/89 26/199/97 5/78/55
f 15/117/90 104/197/124 105/115/89
f 103/200/125 3/73/50 27/151/57
f 73/124/94 107/122/91 74/121/93
f 115/150/58 24/201/107 114/202/56
f 15/117/90 107/118/91 71/120/3
f 15/117/90 5/116/55 107/118/91
f 23/162/108 115/150/58 17/148/102
f 113/132/101 24/203/107 25/131/100
f 85/2/2 87/204/59 70/205/61
f 71/3/3 124/206/92 2/1/1
f 85/2/2 70/205/61 71/3/3
f 100/61/43 109/71/48 94/52/37
f 39/207/123 19/208/99 87/204/59
f 87/204/59 85/2/2 93/49/36
f 29/15/11 2/1/1 124/206/92
f 124/206/92 125/209/95 118/210/103
f 124/206/92 118/210/103 50/211/120
f 39/207/123 87/204/59 93/49/36
f 123/212/113 39/207/123 93/49/36
f 29/15/11 124/206/92 50/211/120
f 29/15/11 50/211/120 46/213/121
f 122/214/114 123/212/113 93/49/36
f 121/215/111 122/214/114 93/49/36
f 29/15/11 46/213/121 43/216/119
f 29/15/11 43/216/119 119/217/118
f 120/218/112 121/215/111 93/49/36
f 28/219/66 120/218/112 93/49/36
f 29/15/11 119/217/118 40/133/72
f 40/133/72 28/219/66 93/49/36
f 108/65/46 75/29/21 30/134/13
f 4/11/8 32/18/14 79/36/26
f 99/136/42 47/220/20 78/33/25
f 44/137/17 1/4/4 21/6/6
f 49/139/15 21/9/6 4/11/8
f 16/140/7 2/1/1 29/15/11
f 30/134/13 75/29/21 82/31/23
f 37/20/12 82/34/23 79/36/26
f 81/142/24 78/221/25 47/28/20
f 99/58/42 101/55/39 72/22/16
f 78/33/25 80/30/22 117/64/45
f 110/68/49 116/66/47 102/143/41
f 83/39/29 98/222/38 106/144/40
f 86/43/27 106/59/40 100/61/43
f 108/65/46 92/135/32 97/145/34
f 111/146/44 97/50/34 94/52/37
f 96/48/35 93/49/36 85/2/2
f 2/8/1 6/5/5 91/38/28
f 93/49/36 95/46/33 33/13/9
f 44/137/17 98/222/38 83/39/29
f 77/128/98 19/130/99 20/75/52
f 73/124/94 74/121/93 22/77/54
f 5/78/55 26/199/97 113/132/101
f 3/73/50 17/148/102 115/150/58
f 22/77/54 52/153/104 118/152/103
f 18/76/53 11/156/106 52/153/104
f 88/154/60 87/129/59 77/128/98
f 14/155/105 88/154/60 76/74/51
f 25/131/100 66/189/65 11/156/106
f 89/85/62 66/88/65 25/158/100
f 89/85/62 24/159/107 23/160/108
f 7/161/109 68/190/63 23/162/108
f 31/163/110 120/223/112 28/89/66
f 8/164/68 9/93/70 34/92/69
f 31/165/110 34/92/69 121/166/111
f 34/92/69 36/170/115 123/168/113
f 38/171/116 39/191/123 123/168/113
f 7/161/109 38/171/116 36/170/115
f 41/172/117 42/96/73 40/95/72
f 43/174/119 48/98/75 41/175/117
f 48/177/75 13/106/74 42/96/73
f 50/178/120 51/180/122 48/98/75
f 50/178/120 118/152/103 52/153/104
f 51/180/122 52/153/104 11/156/106
f 12/99/76 63/186/86 60/181/83
f 62/111/85 65/184/88 10/94/71
f 67/183/64 68/190/63 65/184/88
f 63/186/86 66/189/65 67/187/64
f 12/99/76 11/156/106 66/189/65
f 68/190/63 7/161/109 10/94/71
f 38/171/116 7/161/109 17/148/102
f 39/191/123 38/171/116 20/75/52
f 15/117/90 71/120/3 70/84/61
f 104/192/124 103/224/125 27/193/57
f 26/195/97 105/225/89 104/192/124
f 15/117/90 14/157/105 103/196/125
f 103/200/125 14/155/105 3/73/50
f 73/124/94 124/123/92 107/122/91
f 115/150/58 23/162/108 24/201/107
f 113/132/101 114/226/56 24/203/107
