# Blender 4.3.0
# www.blender.org
mtllib lowerTeeth.mtl
o 下歯
v -0.983629 0.101031 2.011152
v -0.901009 0.128562 2.069691
v -0.842840 0.098159 2.007840
v -0.760221 0.125690 2.066379
v -0.702051 0.095287 2.004529
v -0.619432 0.122817 2.063068
v -0.561262 0.092414 2.001218
v -0.478643 0.119945 2.059757
v -0.420473 0.089541 1.997907
v -0.337854 0.117073 2.056446
v -0.279684 0.086670 1.994596
v -0.197065 0.114200 2.053135
v -0.138896 0.083797 1.991284
v -0.056276 0.111327 2.049824
v 0.753349 -0.061294 2.011832
v 0.330982 -0.069911 2.001898
v 0.194802 -0.072792 1.994273
v -1.015576 -0.027403 2.087531
v -0.969498 0.133772 2.058411
v -1.006301 -0.049700 2.030658
v -0.937358 0.131413 1.979939
v -0.867823 -0.040862 2.051736
v -0.886575 0.112955 2.009410
v -0.882273 0.110704 2.042201
v -0.876988 -0.026911 2.113727
v -0.918550 -0.023984 2.142289
v -0.934729 0.154894 2.066412
v -0.889872 0.256394 1.979005
v -0.872646 0.246204 1.980562
v -0.868127 0.260416 1.998229
v -0.886140 0.268099 1.997210
v -0.903361 0.107003 1.988326
v -1.000676 -0.036961 2.103919
v -0.963543 -0.060485 2.003009
v -0.884903 -0.054857 2.043761
v -0.985099 -0.019603 2.133546
v -0.897525 -0.054594 2.010076
v -0.874787 -0.030276 2.084220
v -0.828709 0.130899 2.055100
v -0.865512 -0.052572 2.027347
v -0.796569 0.128540 1.976628
v -0.727034 -0.043734 2.048425
v -0.745786 0.110083 2.006099
v -0.741484 0.107832 2.038890
v -0.736199 -0.029783 2.110415
v -0.777761 -0.026856 2.138978
v -0.793940 0.152022 2.063101
v -0.749083 0.253521 1.975694
v -0.731857 0.243332 1.977250
v -0.727338 0.257543 1.994918
v -0.745351 0.265226 1.993899
v -0.762572 0.104130 1.985014
v -0.859887 -0.039833 2.100607
v -0.822754 -0.063357 1.999698
v -0.744114 -0.057730 2.040450
v -0.844310 -0.022475 2.130234
v -0.756736 -0.057466 2.006765
v -0.733998 -0.033148 2.080909
v -0.687920 0.128027 2.051789
v -0.724723 -0.055444 2.024035
v -0.655780 0.125668 1.973317
v -0.586246 -0.046607 2.045114
v -0.604997 0.107211 2.002788
v -0.600695 0.104960 2.035578
v -0.595410 -0.032655 2.107104
v -0.636972 -0.029728 2.135667
v -0.653151 0.149149 2.059790
v -0.608294 0.250649 1.972383
v -0.591068 0.240460 1.973939
v -0.586549 0.254671 1.991607
v -0.604562 0.262354 1.990588
v -0.621783 0.101258 1.981703
v -0.719098 -0.042706 2.097296
v -0.681965 -0.066229 1.996386
v -0.603325 -0.060602 2.037139
v -0.703521 -0.025347 2.126923
v -0.615947 -0.060339 2.003453
v -0.593209 -0.036020 2.077597
v -0.547131 0.125155 2.048477
v -0.583934 -0.058317 2.020724
v -0.514991 0.122796 1.970005
v -0.445457 -0.049479 2.041803
v -0.464208 0.104339 1.999477
v -0.459906 0.102087 2.032267
v -0.454621 -0.035528 2.103793
v -0.496183 -0.032601 2.132355
v -0.512362 0.146277 2.056479
v -0.451548 0.250475 1.967815
v -0.444527 0.253019 1.983430
v -0.453819 0.260524 1.988291
v -0.481365 0.243718 1.983264
v -0.480994 0.098386 1.978392
v -0.578309 -0.045578 2.093985
v -0.541176 -0.069102 1.993075
v -0.462536 -0.063474 2.033828
v -0.562732 -0.028220 2.123612
v -0.475158 -0.063211 2.000142
v -0.452420 -0.038893 2.074286
v -0.406342 0.122282 2.045166
v -0.443145 -0.061189 2.017413
v -0.374203 0.119923 1.966694
v -0.304668 -0.052351 2.038492
v -0.323420 0.101466 1.996166
v -0.319117 0.099215 2.028956
v -0.313832 -0.038400 2.100482
v -0.355394 -0.035473 2.129044
v -0.371573 0.143405 2.053167
v -0.326717 0.244904 1.965760
v -0.309490 0.234715 1.967317
v -0.304972 0.248926 1.984985
v -0.322984 0.256609 1.983965
v -0.340205 0.095513 1.975081
v -0.437520 -0.048450 2.090674
v -0.400387 -0.071974 1.989764
v -0.321747 -0.066347 2.030517
v -0.421943 -0.031092 2.120301
v -0.334369 -0.066083 1.996831
v -0.311631 -0.041765 2.070975
v -0.265553 0.119410 2.041855
v -0.302356 -0.064061 2.014102
v -0.233414 0.117051 1.963383
v -0.163879 -0.055223 2.035181
v -0.182631 0.098593 1.992855
v -0.178328 0.096343 2.025645
v -0.173044 -0.041272 2.097171
v -0.214605 -0.038345 2.125733
v -0.230784 0.140532 2.049856
v -0.185928 0.242032 1.962449
v -0.168701 0.231843 1.964006
v -0.164183 0.246054 1.981673
v -0.182195 0.253737 1.980654
v -0.199417 0.092641 1.971770
v -0.296731 -0.051323 2.087363
v -0.259599 -0.074846 1.986453
v -0.180958 -0.069219 2.027205
v -0.281155 -0.033964 2.116990
v -0.193580 -0.068956 1.993520
v -0.170842 -0.044637 2.067664
v -0.124764 0.116538 2.038544
v -0.161568 -0.066934 2.010791
v -0.092625 0.114179 1.960072
v -0.023090 -0.058096 2.031869
v -0.037539 0.093470 2.022334
v -0.032255 -0.044145 2.093859
v -0.073816 -0.041218 2.122422
v -0.089995 0.137660 2.046545
v -0.029181 0.241858 1.957881
v -0.022160 0.244402 1.973497
v -0.031452 0.251907 1.978357
v -0.058998 0.235101 1.973330
v -0.049967 0.100495 1.971497
v -0.155942 -0.054195 2.084052
v -0.118810 -0.077719 1.983142
v -0.040169 -0.072091 2.023894
v -0.140366 -0.036837 2.113678
v -0.052791 -0.071828 1.990209
v 1.015578 -0.027406 2.087526
v 0.969497 0.133780 2.058409
v 0.983608 0.101093 2.011130
v 0.988744 -0.047832 2.010493
v 0.946323 -0.059633 2.001763
v 0.937235 0.131794 1.979885
v 0.871342 -0.031876 2.098857
v 0.869517 -0.049197 2.049967
v 0.882916 0.104786 2.020012
v 0.893009 0.138586 2.060608
v 0.893901 -0.022680 2.130836
v 0.958396 -0.015138 2.142463
v 0.897712 0.244479 1.978615
v 0.870719 0.265560 1.980238
v 0.867415 0.258999 1.993508
v 0.905790 0.246872 2.003707
v 0.875872 0.263603 2.003251
v 0.903366 0.106842 1.988340
v 0.936708 -0.034271 2.127968
v 1.010605 -0.049650 2.045108
v 0.997762 -0.026419 2.122362
v 0.897521 -0.054686 2.010106
v 0.871775 -0.047115 2.043886
v 0.874789 -0.030278 2.084214
v 0.828708 0.130906 2.055098
v 0.842818 0.098224 2.007818
v 0.858001 -0.058528 2.021154
v 0.785945 -0.057124 1.995577
v 0.832799 -0.057909 2.002156
v 0.796447 0.128921 1.976574
v 0.730553 -0.034748 2.095546
v 0.727637 -0.049366 2.049633
v 0.742127 0.101917 2.016701
v 0.752219 0.135717 2.057295
v 0.753112 -0.025553 2.127524
v 0.817607 -0.018010 2.139152
v 0.756924 0.241606 1.975304
v 0.729930 0.262688 1.976927
v 0.726626 0.256127 1.990196
v 0.765000 0.244000 2.000396
v 0.735083 0.260730 1.999940
v 0.762577 0.103971 1.985029
v 0.795918 -0.037144 2.124657
v 0.856973 -0.029291 2.119051
v 0.730986 -0.049987 2.040575
v 0.733661 -0.036574 2.082919
v 0.687919 0.128035 2.051786
v 0.702031 0.095349 2.004508
v 0.717212 -0.061400 2.017843
v 0.655658 0.126050 1.973263
v 0.585896 -0.045911 2.045580
v 0.601338 0.099043 2.013390
v 0.611431 0.132843 2.053985
v 0.595415 -0.032748 2.107132
v 0.688135 -0.025059 2.132658
v 0.641009 -0.021777 2.135430
v 0.616135 0.238734 1.971993
v 0.589141 0.259815 1.973616
v 0.585837 0.253254 1.986885
v 0.624212 0.241127 1.997085
v 0.594294 0.257858 1.996629
v 0.621788 0.101099 1.981717
v 0.712961 -0.033124 2.119056
v 0.600494 -0.060506 2.036974
v 0.626253 -0.036953 2.122014
v 0.615666 -0.056397 2.002531
v 0.593822 -0.048211 2.046778
v 0.588671 -0.038791 2.089961
v 0.547130 0.125162 2.048475
v 0.561242 0.092476 2.001197
v 0.576423 -0.064272 2.014532
v 0.514869 0.123176 1.969952
v 0.445107 -0.048784 2.042269
v 0.460549 0.096170 2.010079
v 0.470642 0.129969 2.050674
v 0.454626 -0.035620 2.103821
v 0.547346 -0.027931 2.129347
v 0.500220 -0.024649 2.132119
v 0.475346 0.235862 1.968682
v 0.448352 0.256943 1.970305
v 0.445048 0.250382 1.983574
v 0.483423 0.238256 1.993773
v 0.453505 0.254986 1.993318
v 0.481000 0.098224 1.978407
v 0.572172 -0.035997 2.115746
v 0.459705 -0.063378 2.033663
v 0.485464 -0.039825 2.118703
v 0.474878 -0.059269 1.999220
v 0.453313 -0.047106 2.043525
v 0.447287 -0.040259 2.087900
v 0.406341 0.122291 2.045164
v 0.420453 0.089604 1.997885
v 0.425486 -0.063794 1.998190
v 0.363578 -0.065741 1.985644
v 0.374080 0.120304 1.966641
v 0.306510 -0.050972 2.080194
v 0.304665 -0.052349 2.038499
v 0.319760 0.093297 2.006768
v 0.329853 0.127098 2.047362
v 0.326677 -0.040357 2.114056
v 0.406557 -0.030803 2.126036
v 0.359431 -0.027521 2.128808
v 0.334557 0.232989 1.965371
v 0.307563 0.254071 1.966994
v 0.304259 0.247510 1.980263
v 0.342633 0.235384 1.990462
v 0.312717 0.252113 1.990007
v 0.340211 0.095353 1.975095
v 0.429851 -0.039793 2.113968
v 0.439147 -0.063798 2.033180
v 0.312524 -0.049978 2.040214
v 0.306497 -0.043131 2.084589
v 0.265552 0.119418 2.041853
v 0.279664 0.086730 1.994575
v 0.290103 -0.068678 2.001744
v 0.258030 -0.067216 1.983013
v 0.233291 0.117432 1.963329
v 0.164875 -0.062816 2.036603
v 0.178971 0.090425 2.003457
v 0.189064 0.124226 2.044051
v 0.173048 -0.041365 2.097198
v 0.218642 -0.030394 2.125497
v 0.193768 0.230117 1.962059
v 0.166774 0.251198 1.963682
v 0.163470 0.244637 1.976951
v 0.201845 0.232511 1.987151
v 0.171928 0.249241 1.986695
v 0.199422 0.092481 1.971784
v 0.303079 -0.061989 2.051009
v 0.203887 -0.045570 2.112081
v 0.281317 -0.034408 2.116911
v 0.171735 -0.052850 2.036902
v 0.165709 -0.046003 2.081277
v 0.124763 0.116547 2.038541
v 0.138875 0.083858 1.991263
v 0.144011 -0.065067 1.990626
v 0.101589 -0.076867 1.981896
v 0.092502 0.114560 1.960018
v 0.023088 -0.058094 2.031876
v 0.038182 0.087553 2.000145
v 0.048275 0.121353 2.040740
v 0.049287 -0.039650 2.111115
v 0.113662 -0.032371 2.122596
v 0.052979 0.227245 1.958748
v 0.025985 0.248326 1.960371
v 0.022681 0.241765 1.973640
v 0.061056 0.229639 1.983840
v 0.031139 0.246369 1.983384
v 0.058633 0.089609 1.968473
v 0.146039 -0.044010 2.109396
v 0.039872 -0.072063 2.021649
v 0.029808 -0.053679 2.085778
v 0.157569 -0.069542 2.026557
v 0.052788 -0.071920 1.990239
v -0.946953 0.180197 1.996408
v -0.806165 0.177324 1.993097
v -0.665376 0.174452 1.989786
v -0.524587 0.171580 1.986474
v -0.383798 0.168707 1.983163
v -0.243009 0.165835 1.979852
v -0.102220 0.162963 1.976541
v 0.934751 0.154841 2.066444
v 0.946755 0.180526 1.996266
v 0.793962 0.151968 2.063133
v 0.805966 0.177654 1.992954
v 0.653173 0.149096 2.059822
v 0.665177 0.174782 1.989643
v 0.679103 -0.064800 1.994862
v 0.512384 0.146224 2.056511
v 0.524387 0.171910 1.986332
v 0.538314 -0.067673 1.991551
v 0.371595 0.143352 2.053200
v 0.383599 0.169037 1.983021
v 0.230806 0.140479 2.049888
v 0.242810 0.166165 1.979710
v 0.090017 0.137607 2.046577
v 0.102021 0.163293 1.976398
v -1.246825 0.148981 1.987337
v -1.089777 0.150463 1.950303
v -1.186409 -0.057495 2.094511
v 1.246755 0.149149 1.987276
v 1.089766 0.150521 1.950305
v 1.265936 -0.068628 1.903116
v -1.306917 -0.038305 2.044976
v -1.251587 -0.032824 2.089171
v -1.152593 0.182395 2.022251
v -1.213711 0.143927 2.026016
v -1.320230 -0.026256 2.009818
v -1.318195 -0.036711 1.951853
v -1.212376 0.210675 1.918857
v -1.128708 -0.084999 1.927830
v -1.181473 -0.073673 1.883807
v -1.151790 0.156823 1.881992
v -1.114759 0.135745 1.904004
v -1.139985 -0.060566 2.067685
v -1.105582 -0.076940 1.980966
v -1.104442 0.196444 1.989349
v -1.117795 0.348819 1.879600
v -1.098523 0.335586 1.852232
v -1.066876 0.356195 1.856227
v -1.065334 0.342862 1.887200
v -1.094898 0.342406 1.909617
v -1.190928 0.164525 1.883869
v -1.241291 -0.051253 2.084315
v -1.302325 -0.056329 1.958136
v -1.213531 -0.082178 1.894123
v -1.132012 -0.090109 1.999765
v -1.257227 -0.062032 1.883276
v 1.289867 -0.027589 2.064055
v 1.233833 -0.043085 2.094321
v 1.152590 0.182406 2.022248
v 1.213712 0.143928 2.026014
v 1.320237 -0.026296 2.009834
v 1.291909 -0.047615 1.908521
v 1.322173 -0.038886 1.969310
v 1.212114 0.211172 1.918694
v 1.128766 -0.085075 1.927794
v 1.181462 -0.073674 1.883810
v 1.142366 0.139530 1.885885
v 1.105963 0.138684 1.914078
v 1.110231 -0.082696 1.965339
v 1.155660 -0.061663 2.078577
v 1.113759 -0.071984 2.025423
v 1.116807 0.349757 1.879139
v 1.093443 0.343420 1.850994
v 1.068667 0.352780 1.856769
v 1.095009 0.342264 1.909719
v 1.062244 0.356223 1.875202
v 1.191009 0.164308 1.883875
v 1.189361 -0.067412 2.075175
v 1.190512 -0.086138 1.904233
v 1.130072 -0.087360 2.007199
v 1.299482 -0.048313 2.037495
v 1.190715 -0.044014 2.094827
v 1.239652 -0.059692 1.879023
v -1.173957 0.269403 1.947444
v -1.076518 0.373135 1.864720
v 1.104456 0.196362 1.989397
v 1.173759 0.269858 1.947112
v 1.080938 0.371693 1.863471
v -1.121268 0.057578 1.935573
v -1.040149 0.089259 1.994112
v -1.122075 -0.068333 2.053342
v -0.960643 0.062442 1.931794
v -0.879524 0.094123 1.990333
v -0.800018 0.067307 1.928015
v -0.718900 0.098987 1.986554
v -0.639394 0.072171 1.924237
v -0.558275 0.103851 1.982776
v -0.478769 0.077035 1.920458
v -0.397650 0.108715 1.978998
v -0.479575 -0.048876 2.038227
v -0.318144 0.081901 1.916679
v -0.237025 0.113579 1.975219
v -0.318951 -0.044012 2.034449
v -0.157519 0.086763 1.912901
v -0.076401 0.118442 1.971441
v -0.158326 -0.039148 2.030670
v 0.385918 -0.077922 1.920136
v 0.220691 -0.072817 1.920671
v -1.145878 -0.078986 2.014467
v -1.108813 0.090993 1.982832
v -1.136276 -0.094107 1.955079
v -1.076595 0.090265 1.904360
v -1.002405 -0.069405 2.023304
v -0.998424 -0.078267 1.976158
v -1.024943 0.074403 1.933831
v -1.020532 0.072373 1.966622
v -1.089639 -0.056638 2.067090
v -1.025454 -0.057184 2.054203
v -1.075159 0.113849 1.990833
v -1.019700 0.220993 1.902169
v -1.012817 0.223890 1.917785
v -1.022477 0.230915 1.922645
v -1.049137 0.212734 1.917619
v -1.041406 0.067608 1.912747
v -1.093027 -0.102713 1.927430
v -1.014416 -0.093026 1.966019
v -1.043439 -0.073132 2.051447
v -1.027392 -0.093486 1.934497
v -0.986044 -0.067445 2.008173
v -0.948189 0.095857 1.979054
v -0.975652 -0.089243 1.951300
v -0.915971 0.095129 1.900582
v -0.837799 -0.073403 1.972379
v -0.859907 0.077237 1.962844
v -0.847659 -0.059934 2.034369
v -0.889315 -0.059116 2.062932
v -0.914534 0.118713 1.987055
v -0.859076 0.225858 1.898391
v -0.852192 0.228754 1.914006
v -0.861853 0.235779 1.918867
v -0.888512 0.217598 1.913840
v -0.872675 0.083623 1.912007
v -0.970679 -0.076236 2.024561
v -0.932402 -0.097849 1.923651
v -0.854148 -0.088245 1.964404
v -0.956001 -0.058111 2.054188
v -0.866767 -0.088622 1.930719
v -0.825419 -0.062581 2.004395
v -0.787564 0.100721 1.975275
v -0.815027 -0.084379 1.947522
v -0.755346 0.099993 1.896803
v -0.677175 -0.068539 1.968600
v -0.699282 0.082101 1.959065
v -0.687034 -0.055070 2.030591
v -0.728691 -0.054251 2.059153
v -0.753909 0.123577 1.983276
v -0.698451 0.230722 1.894612
v -0.691568 0.233618 1.910228
v -0.701228 0.240643 1.915088
v -0.727887 0.222463 1.910062
v -0.712050 0.088487 1.908228
v -0.810054 -0.071372 2.020782
v -0.771778 -0.092985 1.919873
v -0.693523 -0.083381 1.960626
v -0.795376 -0.053247 2.050410
v -0.706142 -0.083757 1.926940
v -0.664794 -0.057717 2.000616
v -0.626939 0.105585 1.971497
v -0.654402 -0.079515 1.943743
v -0.594721 0.104857 1.893024
v -0.516550 -0.063674 1.964822
v -0.543068 0.088995 1.922496
v -0.538658 0.086964 1.955287
v -0.526409 -0.050206 2.026812
v -0.568066 -0.049387 2.055374
v -0.593284 0.128441 1.979497
v -0.537826 0.235586 1.890834
v -0.530943 0.238483 1.906449
v -0.540603 0.245507 1.911310
v -0.567262 0.227327 1.906283
v -0.559531 0.082201 1.901411
v -0.649429 -0.066508 2.017004
v -0.611153 -0.088120 1.916094
v -0.532898 -0.078517 1.956847
v -0.634752 -0.048383 2.046631
v -0.545517 -0.078893 1.923161
v -0.503379 -0.059530 1.999352
v -0.466314 0.110449 1.967718
v -0.494273 -0.071713 1.939396
v -0.449356 -0.075557 1.908879
v -0.434096 0.109721 1.889246
v -0.359906 -0.049949 2.008189
v -0.355925 -0.058810 1.961043
v -0.378033 0.091829 1.951508
v -0.447140 -0.037181 2.051975
v -0.382955 -0.037728 2.039088
v -0.432660 0.133305 1.975719
v -0.377201 0.240450 1.887055
v -0.370318 0.243347 1.902671
v -0.379978 0.250371 1.907531
v -0.406638 0.232191 1.902505
v -0.390800 0.098217 1.900671
v -0.459707 -0.083986 1.925691
v -0.372274 -0.073653 1.953068
v -0.398494 -0.051928 2.037856
v -0.384893 -0.074029 1.919383
v -0.342754 -0.054666 1.995574
v -0.305689 0.115313 1.963939
v -0.333648 -0.066849 1.935617
v -0.288732 -0.070693 1.905101
v -0.273471 0.114586 1.885467
v -0.199281 -0.045085 2.004410
v -0.195300 -0.053946 1.957265
v -0.221819 0.098725 1.914938
v -0.217408 0.096692 1.947729
v -0.286515 -0.032317 2.048197
v -0.222330 -0.032863 2.035309
v -0.272035 0.138170 1.971940
v -0.216576 0.245314 1.883276
v -0.209693 0.248211 1.898892
v -0.219353 0.255235 1.903752
v -0.246012 0.237055 1.898726
v -0.238282 0.091930 1.893854
v -0.299082 -0.079122 1.921912
v -0.211649 -0.068789 1.949290
v -0.237870 -0.047064 2.034077
v -0.224268 -0.069165 1.915604
v -0.182129 -0.049801 1.991795
v -0.145065 0.120178 1.960160
v -0.173023 -0.061984 1.931839
v -0.128107 -0.065829 1.901322
v -0.112847 0.119450 1.881688
v -0.038656 -0.040221 2.000632
v -0.034675 -0.049082 1.953486
v -0.056783 0.101557 1.943951
v -0.125890 -0.027453 2.044418
v -0.061705 -0.027999 2.031531
v -0.111410 0.143034 1.968161
v -0.055952 0.250178 1.879498
v -0.049068 0.253075 1.895113
v -0.058729 0.260100 1.899974
v -0.085388 0.241919 1.894947
v -0.069551 0.107944 1.893114
v -0.138457 -0.074258 1.918134
v -0.050667 -0.063841 1.943347
v -0.077264 -0.042228 2.030250
v -0.063643 -0.064301 1.911825
v 1.142807 -0.088974 1.971619
v 1.146158 -0.075714 2.013962
v 1.108813 0.090999 1.982831
v 1.121250 0.057644 1.935551
v 1.128472 -0.099675 1.948886
v 1.076492 0.090651 1.904307
v 0.998110 -0.077554 1.976624
v 1.020874 0.066429 1.944434
v 1.032666 0.099676 1.985029
v 1.008284 -0.064890 2.038176
v 1.101274 -0.061907 2.063702
v 1.054375 -0.056242 2.066474
v 1.042727 0.205194 1.903037
v 1.016836 0.227615 1.904660
v 1.013204 0.221230 1.917929
v 1.050915 0.207175 1.928129
v 1.021884 0.225399 1.927673
v 1.041403 0.067450 1.912761
v 1.125660 -0.071220 2.050100
v 1.011950 -0.092870 1.968018
v 1.038870 -0.070652 2.053058
v 1.027311 -0.089535 1.933575
v 0.985533 -0.070850 2.010184
v 0.948187 0.095868 1.979051
v 0.960626 0.062504 1.931773
v 0.958212 -0.086489 1.931136
v 0.915247 -0.096126 1.922405
v 0.915868 0.095513 1.900528
v 0.837485 -0.072691 1.972845
v 0.860249 0.071295 1.940656
v 0.872042 0.104542 1.981249
v 0.847658 -0.060026 2.034397
v 0.940649 -0.057043 2.059923
v 0.893750 -0.051378 2.062695
v 0.882103 0.210057 1.899258
v 0.856211 0.232479 1.900881
v 0.852579 0.226094 1.914149
v 0.890291 0.212039 1.924350
v 0.861259 0.230263 1.923894
v 0.880778 0.072311 1.908983
v 0.965035 -0.066356 2.046321
v 0.851325 -0.088006 1.964239
v 0.878245 -0.065788 2.049279
v 0.979952 -0.089412 1.965750
v 0.866759 -0.088713 1.930749
v 0.825895 -0.070829 1.973633
v 0.820222 -0.063686 2.018008
v 0.787563 0.100731 1.975272
v 0.800001 0.067368 1.927994
v 0.797587 -0.081625 1.927357
v 0.754622 -0.091262 1.918627
v 0.755242 0.100382 1.896749
v 0.677172 -0.068536 1.968608
v 0.699625 0.076160 1.936876
v 0.711416 0.109405 1.977471
v 0.704272 -0.051444 2.047846
v 0.768933 -0.047435 2.059327
v 0.721478 0.214921 1.895479
v 0.695586 0.237343 1.897102
v 0.691954 0.230958 1.910372
v 0.729665 0.216905 1.920570
v 0.700634 0.235127 1.920115
v 0.720153 0.077176 1.905204
v 0.800679 -0.060698 2.046127
v 0.693227 -0.083338 1.958381
v 0.684107 -0.064468 2.022509
v 0.810901 -0.086782 1.963288
v 0.706134 -0.083849 1.926970
v 0.664789 -0.069923 1.969797
v 0.660121 -0.060254 2.012980
v 0.626938 0.105593 1.971495
v 0.639376 0.072233 1.924216
v 0.646598 -0.085082 1.937551
v 0.594618 0.105243 1.892971
v 0.516236 -0.062963 1.965289
v 0.538999 0.081022 1.933099
v 0.550792 0.114268 1.973693
v 0.526409 -0.050298 2.026840
v 0.619400 -0.047315 2.052366
v 0.572500 -0.041650 2.055138
v 0.560853 0.219787 1.891701
v 0.534962 0.242207 1.893324
v 0.531329 0.235822 1.906593
v 0.569042 0.221767 1.916793
v 0.540009 0.239992 1.916337
v 0.559528 0.082042 1.901425
v 0.643785 -0.056628 2.038764
v 0.530075 -0.078278 1.956682
v 0.556995 -0.056060 2.041722
v 0.545437 -0.074943 1.922239
v 0.504645 -0.061100 1.966076
v 0.498973 -0.053957 2.010451
v 0.466313 0.110459 1.967715
v 0.478752 0.077098 1.920437
v 0.481305 -0.078640 1.927607
v 0.449347 -0.075556 1.908876
v 0.433993 0.110107 1.889192
v 0.356535 -0.066443 1.962466
v 0.378375 0.085886 1.929320
v 0.390167 0.119132 1.969914
v 0.365784 -0.045434 2.023061
v 0.411876 -0.036786 2.051359
v 0.400229 0.224649 1.887922
v 0.374337 0.247072 1.889545
v 0.370705 0.240687 1.902814
v 0.408415 0.226632 1.913014
v 0.379384 0.244856 1.912558
v 0.398903 0.086904 1.897647
v 0.494603 -0.072618 1.976872
v 0.396370 -0.051196 2.037944
v 0.474267 -0.043970 2.042774
v 0.343546 -0.047991 1.993054
v 0.305688 0.115323 1.963937
v 0.318127 0.081961 1.916659
v 0.315384 -0.071493 1.916963
v 0.253456 -0.070303 1.904417
v 0.273368 0.114973 1.885413
v 0.195298 -0.053943 1.957272
v 0.217750 0.090750 1.925541
v 0.229542 0.123997 1.966135
v 0.222265 -0.037109 2.036364
v 0.287728 -0.040702 2.049110
v 0.239603 0.229514 1.884143
v 0.213712 0.251936 1.885767
v 0.210080 0.245550 1.899036
v 0.247791 0.231496 1.909235
v 0.218760 0.249720 1.908780
v 0.238279 0.091769 1.893868
v 0.197950 -0.052722 2.000829
v 0.337015 -0.071098 1.951259
v 0.325803 -0.046103 2.027890
v 0.182915 -0.055330 1.958461
v 0.178247 -0.045662 2.001644
v 0.145064 0.120185 1.960158
v 0.157502 0.086827 1.912879
v 0.155088 -0.062168 1.912243
v 0.112123 -0.071805 1.903512
v 0.112743 0.119837 1.881635
v 0.038644 -0.040286 2.000607
v 0.034362 -0.048370 1.953952
v 0.057125 0.095617 1.921762
v 0.068917 0.128861 1.962357
v 0.061640 -0.032245 2.032585
v 0.126434 -0.027978 2.044213
v 0.078979 0.234378 1.880365
v 0.053087 0.256800 1.881988
v 0.049455 0.250415 1.895257
v 0.087166 0.236360 1.905457
v 0.058135 0.254584 1.905001
v 0.077654 0.096633 1.890089
v 0.157776 -0.042103 2.031277
v 0.045116 -0.061927 1.956504
v 0.157510 -0.069612 1.938377
v 0.063634 -0.064392 1.911856
v -1.088649 0.138500 1.920829
v -0.928025 0.143364 1.917050
v -0.767400 0.148228 1.913272
v -0.606775 0.153092 1.909493
v -0.446150 0.157956 1.905715
v -0.285526 0.162820 1.901936
v -0.124901 0.167685 1.898157
v 1.075178 0.113794 1.990866
v 1.088467 0.138840 1.920686
v 1.090240 -0.101141 1.925906
v 0.914553 0.118659 1.987087
v 0.927842 0.143704 1.916908
v 0.753927 0.123525 1.983307
v 0.767217 0.148569 1.913129
v 0.593304 0.128387 1.979530
v 0.606593 0.153432 1.909351
v 0.608366 -0.086548 1.914570
v 0.432678 0.133251 1.975751
v 0.445968 0.158295 1.905572
v 0.272054 0.138116 1.971972
v 0.285342 0.163162 1.901793
v 0.111429 0.142980 1.968194
v 0.124718 0.168026 1.898015
vn -0.8755 0.1933 -0.4428
vn -0.7365 -0.5927 -0.3261
vn -0.9565 -0.1782 0.2311
vn -0.4699 -0.1833 0.8635
vn -0.7709 0.4714 0.4285
vn 0.9176 -0.0982 -0.3851
vn 0.9790 0.0917 0.1823
vn 0.9133 -0.3986 -0.0836
vn -0.4862 -0.7476 0.4525
vn -0.8048 0.4169 -0.4225
vn 0.7731 0.6077 0.1817
vn -0.1511 0.9756 0.1591
vn -0.1652 0.5188 0.8388
vn 0.4850 -0.1341 -0.8642
vn -0.2509 0.0053 -0.9680
vn 0.6727 0.1267 -0.7290
vn 0.5631 0.3154 0.7638
vn 0.3831 -0.9228 0.0412
vn -0.2231 -0.7405 -0.6339
vn 0.7319 -0.3702 0.5721
vn 0.4463 -0.6283 -0.6372
vn -0.8755 0.1933 -0.4429
vn 0.5630 0.3154 0.7639
vn 0.5631 0.3154 0.7639
vn -0.7704 0.4711 0.4296
vn 0.9156 -0.0982 -0.3899
vn 0.9786 0.0922 0.1841
vn -0.7880 0.3966 -0.4709
vn 0.3204 0.4436 -0.8370
vn -0.7080 0.6847 -0.1730
vn 0.1197 0.9431 0.3101
vn 0.4869 -0.1332 -0.8633
vn -0.2530 0.0085 -0.9674
vn 0.9121 0.4058 0.0587
vn 0.5649 0.3150 0.7627
vn 0.9790 0.0917 0.1822
vn -0.1510 0.9756 0.1591
vn -0.2510 0.0053 -0.9680
vn 0.6728 0.1267 -0.7289
vn 0.6601 -0.1264 -0.7405
vn 0.9874 0.0865 0.1326
vn 0.9125 -0.4018 -0.0766
vn 0.4376 -0.6303 -0.6413
vn 0.3224 0.4410 -0.8376
vn -0.2282 -0.0015 -0.9736
vn 0.9138 0.4020 0.0578
vn -0.2197 -0.7387 -0.6373
vn 0.9461 -0.2067 0.2495
vn 0.8797 0.2110 -0.4262
vn 0.7704 0.4647 0.4365
vn 0.7529 -0.6468 -0.1214
vn 0.5598 -0.4750 -0.6790
vn -0.7611 -0.6436 -0.0800
vn -0.7997 -0.4444 0.4038
vn -0.9773 -0.0190 -0.2110
vn 0.8129 0.3865 -0.4356
vn -0.9533 0.2691 0.1372
vn -0.1904 0.8249 0.5323
vn -0.3870 0.6995 -0.6007
vn 0.6480 0.7282 0.2232
vn 0.4238 0.4181 -0.8035
vn 0.2463 0.0128 -0.9691
vn -0.6973 0.2465 0.6731
vn -0.5165 -0.1265 -0.8469
vn -0.0240 -0.8288 0.5591
vn 0.0409 -0.7777 -0.6273
vn -0.4935 -0.2740 0.8254
vn 0.9330 -0.2463 0.2625
vn 0.8768 0.2016 -0.4365
vn 0.8613 -0.5022 -0.0771
vn 0.6016 -0.7118 -0.3624
vn -0.1004 -0.6064 -0.7888
vn -0.5024 -0.7434 -0.4415
vn -0.5271 -0.1153 -0.8420
vn -0.7977 -0.6012 -0.0479
vn -0.7932 -0.4553 0.4045
vn -0.9773 -0.0184 -0.2109
vn 0.6283 -0.3680 0.6854
vn 0.8129 0.3866 -0.4356
vn -0.1905 0.8248 0.5323
vn 0.2491 0.0150 -0.9684
vn -0.0231 -0.8280 0.5602
vn -0.4936 -0.2740 0.8254
vn 0.8855 -0.3585 0.2956
vn 0.8761 0.1928 -0.4418
vn 0.7717 0.4641 0.4348
vn 0.8667 -0.4925 -0.0797
vn 0.5930 -0.7067 -0.3860
vn -0.9326 -0.3507 -0.0855
vn -0.7599 -0.3292 0.5606
vn -0.9787 -0.0206 -0.2044
vn -0.1921 -0.0867 0.9775
vn 0.1520 0.5097 0.8468
vn -0.7069 0.2521 0.6608
vn 0.2666 -0.1944 0.9440
vn -0.1905 0.8249 0.5323
vn -0.3871 0.6995 -0.6007
vn 0.2488 0.0061 -0.9685
vn -0.5126 -0.1291 -0.8489
vn -0.4549 -0.8895 -0.0419
vn 0.1753 -0.7134 -0.6784
vn -0.2254 -0.7386 0.6353
vn 0.6049 -0.7000 -0.3796
vn 0.8792 0.1903 -0.4368
vn 0.9107 -0.4126 -0.0185
vn 0.2666 -0.1943 0.9440
vn 0.8449 -0.3776 0.3790
vn 0.7735 0.4614 0.4345
vn 0.1753 -0.7135 -0.6784
vn 0.4955 -0.6186 -0.6097
vn 0.8831 0.2060 -0.4215
vn 0.9651 -0.2487 -0.0821
vn -0.0610 -0.6359 -0.7694
vn -0.4946 -0.7476 -0.4432
vn -0.5270 -0.1153 -0.8420
vn -0.9006 -0.4033 -0.1620
vn -0.7448 -0.5623 0.3594
vn -0.9774 -0.0177 -0.2108
vn -0.1572 -0.1371 0.9780
vn -0.7059 0.2549 0.6608
vn 0.2458 -0.1857 0.9514
vn 0.7736 0.4613 0.4345
vn -0.9533 0.2692 0.1372
vn -0.1904 0.8248 0.5323
vn 0.2480 0.0163 -0.9686
vn 0.5442 -0.4225 0.7248
vn -0.5244 -0.4369 0.7308
vn 0.5703 -0.6754 -0.4676
vn 0.8802 0.1955 -0.4324
vn 0.9717 -0.2022 -0.1223
vn -0.7810 -0.6232 -0.0407
vn -0.7649 -0.3177 0.5604
vn -0.9783 -0.0254 -0.2058
vn -0.1522 -0.1016 0.9831
vn 0.1512 0.5102 0.8467
vn 0.4607 -0.2676 0.8462
vn 0.7748 0.4637 0.4297
vn 0.4831 -0.8538 0.1937
vn 0.8273 -0.3118 0.4673
vn 0.8129 0.3865 -0.4355
vn 0.2481 0.0087 -0.9687
vn -0.5152 -0.1304 -0.8471
vn -0.2179 -0.7392 0.6373
vn -0.4216 -0.7303 -0.5375
vn 0.5718 -0.4794 -0.6658
vn 0.8836 0.2085 -0.4193
vn 0.9645 -0.2512 -0.0813
vn -0.9247 -0.3598 -0.1246
vn -0.7076 -0.5375 0.4588
vn -0.9785 -0.0218 -0.2051
vn 0.7731 0.4607 0.4360
vn -0.6984 0.2432 0.6731
vn 0.5048 -0.8628 -0.0277
vn -0.3987 -0.9171 -0.0066
vn 0.0479 -0.7581 -0.6504
vn -0.4697 -0.6240 -0.6244
vn -0.4352 -0.2651 0.8604
vn 0.5163 -0.3976 0.7585
vn 0.1219 -0.4700 0.8742
vn 0.1144 0.4263 0.8973
vn -0.3927 0.0038 0.9196
vn -0.8323 0.4763 0.2835
vn -0.9841 -0.0448 0.1719
vn -0.7673 -0.3576 0.5323
vn 0.1721 -0.1340 -0.9759
vn 0.7088 -0.1787 -0.6824
vn 0.2474 -0.4954 -0.8327
vn -0.3053 -0.7387 0.6009
vn -0.6070 0.6646 0.4358
vn -0.4334 0.4585 0.7758
vn 0.0781 0.6949 0.7148
vn 0.8947 0.2713 0.3547
vn 0.1881 0.9587 -0.2134
vn -0.4234 0.0922 -0.9012
vn -0.8408 0.4042 -0.3602
vn -0.2452 0.1478 -0.9581
vn 0.6925 0.2704 -0.6688
vn 0.9939 -0.1103 0.0005
vn -0.1445 -0.9116 -0.3849
vn 0.2364 -0.9501 0.2037
vn -0.5546 -0.8311 -0.0417
vn 0.5721 -0.6876 -0.4471
vn -0.4746 -0.4361 -0.7646
vn 0.6173 -0.4131 0.6695
vn 0.8733 -0.4860 0.0341
vn -0.9354 -0.1658 -0.3122
vn 0.9705 0.0056 0.2412
vn 0.8304 0.4817 0.2800
vn 0.6753 -0.0302 0.7369
vn 0.7666 -0.2478 -0.5924
vn 0.2511 -0.3745 -0.8926
vn 0.3856 0.0932 -0.9179
vn -0.2327 -0.4932 -0.8382
vn -0.5592 -0.6915 -0.4572
vn -0.3190 -0.1378 -0.9377
vn -0.7905 -0.4523 0.4129
vn -0.7325 0.2006 0.6505
vn -0.9961 -0.0870 0.0153
vn -0.4670 -0.4520 0.7600
vn 0.0839 -0.8775 0.4722
vn 0.2889 -0.3054 0.9073
vn -0.1599 -0.1534 0.9751
vn 0.6075 0.6654 0.4338
vn -0.1130 0.4279 0.8967
vn 0.4239 0.4602 0.7801
vn -0.6579 0.1545 -0.7371
vn -0.0480 0.9602 -0.2750
vn 0.2140 0.1787 -0.9604
vn -0.8856 0.4314 0.1722
vn -0.0999 0.6891 0.7177
vn 0.6816 0.7236 -0.1085
vn 0.8379 0.4102 -0.3599
vn -0.7912 -0.1930 -0.5802
vn -0.1961 -0.9627 0.1863
vn -0.7717 -0.6246 -0.1200
vn 0.6166 -0.7017 0.3571
vn 0.9338 -0.3238 -0.1521
vn 0.4328 -0.8234 -0.3669
vn -0.8866 0.1461 -0.4388
vn -0.6982 -0.6503 -0.2993
vn -0.8053 -0.5128 0.2977
vn -0.5488 -0.3923 0.7382
vn -0.7927 0.4264 0.4358
vn 0.9194 -0.0517 -0.3899
vn 0.9714 0.1369 0.1938
vn 0.9296 -0.3486 -0.1197
vn -0.8071 0.3561 -0.4709
vn 0.2975 0.4592 -0.8370
vn -0.7418 0.6479 -0.1729
vn 0.0717 0.9480 0.3101
vn 0.4930 -0.1084 -0.8633
vn -0.2531 -0.0043 -0.9674
vn 0.8904 0.4515 0.0587
vn 0.5441 0.3312 0.7709
vn 0.4467 -0.8947 -0.0008
vn 0.1771 -0.7613 0.6238
vn -0.1913 -0.7592 -0.6221
vn 0.8297 -0.3793 0.4095
vn 0.4763 -0.6039 -0.6391
vn -0.1264 -0.1020 0.9867
vn 0.5447 -0.0636 0.8362
vn -0.8842 0.1487 -0.4429
vn -0.7055 -0.6292 -0.3261
vn -0.9462 -0.2264 0.2311
vn -0.4600 -0.2068 0.8635
vn -0.7933 0.4315 0.4296
vn 0.6656 -0.0928 -0.7405
vn 0.9817 0.1364 0.1326
vn 0.9317 -0.3550 -0.0766
vn 0.4689 -0.6073 -0.6413
vn -0.4477 -0.7712 0.4525
vn 0.2996 0.4568 -0.8376
vn -0.7418 0.6479 -0.1730
vn -0.2278 -0.0131 -0.9736
vn 0.8923 0.4478 0.0578
vn 0.5482 0.3432 0.7627
vn 0.4293 -0.9022 0.0412
vn -0.1820 -0.7489 -0.6373
vn 0.7497 -0.3327 0.5721
vn -0.4600 -0.2069 0.8635
vn 0.9817 0.1364 0.1327
vn 0.9317 -0.3550 -0.0767
vn -0.4477 -0.7713 0.4525
vn 0.2997 0.4568 -0.8376
vn -0.2278 -0.0130 -0.9736
vn 0.8923 0.4477 0.0578
vn -0.8842 0.1487 -0.4428
vn 0.9726 0.1416 0.1841
vn 0.9323 -0.3518 -0.0836
vn 0.4930 -0.1083 -0.8633
vn 0.8903 0.4515 0.0587
vn -0.1853 -0.7509 -0.6339
vn 0.4776 -0.6049 -0.6372
vn -0.8877 0.1505 -0.4352
vn -0.7675 -0.5444 -0.3386
vn -0.8070 -0.5025 0.3102
vn -0.5451 -0.3998 0.7369
vn -0.7926 0.4264 0.4358
vn 0.6680 -0.0887 -0.7388
vn 0.9810 0.1317 0.1425
vn 0.9296 -0.3495 -0.1171
vn 0.4720 -0.6167 -0.6300
vn -0.2284 -0.0081 -0.9735
vn -0.2092 -0.9527 -0.2203
vn 0.4315 -0.9018 0.0248
vn 0.1958 -0.7235 0.6619
vn 0.8303 -0.3774 0.4102
vn -0.1272 -0.1048 0.9863
vn 0.5511 -0.0420 0.8334
vn -0.1667 -0.5104 -0.8437
vn 0.9299 -0.3463 -0.1240
vn 0.4973 -0.1038 -0.8614
vn -0.2531 -0.0003 -0.9674
vn 0.4798 -0.6137 -0.6270
vn -0.1696 -0.5132 -0.8414
vn -0.8877 0.1504 -0.4352
vn 0.9293 -0.3518 -0.1129
vn 0.4707 -0.6159 -0.6317
vn 0.1961 -0.7255 0.6597
vn 0.8289 -0.3819 0.4087
vn 0.4543 -0.8908 -0.0018
vn -0.1271 -0.1049 0.9863
vn 0.5509 -0.0426 0.8335
vn -0.2085 -0.9530 -0.2198
vn 0.8662 -0.4029 0.2956
vn 0.8848 0.1481 -0.4419
vn 0.7942 0.4244 0.4348
vn 0.8406 -0.5357 -0.0797
vn 0.5564 -0.7358 -0.3860
vn -0.9491 -0.3030 -0.0855
vn -0.7756 -0.2903 0.5606
vn -0.9785 0.0290 -0.2044
vn -0.1963 -0.0769 0.9775
vn 0.1776 0.5014 0.8468
vn -0.6933 0.2876 0.6608
vn 0.2564 -0.2076 0.9440
vn 0.8315 0.3449 -0.4356
vn -0.9384 0.3171 0.1372
vn -0.1484 0.8334 0.5323
vn -0.3511 0.7182 -0.6007
vn 0.6841 0.6944 0.2232
vn 0.4445 0.3961 -0.8035
vn 0.2487 -0.0065 -0.9685
vn -0.5184 -0.1029 -0.8489
vn -0.4994 -0.8653 -0.0419
vn 0.1389 -0.7214 -0.6784
vn -0.2625 -0.7263 0.6353
vn 0.8928 -0.3465 0.2878
vn 0.8905 0.1648 -0.4241
vn 0.7224 -0.6817 -0.1156
vn 0.5350 -0.5027 -0.6790
vn -0.9499 -0.3004 -0.0865
vn -0.9784 0.0279 -0.2050
vn -0.6932 0.2876 0.6608
vn 0.6841 0.6945 0.2232
vn 0.4444 0.3961 -0.8035
vn 0.2467 0.0003 -0.9691
vn -0.5222 -0.1002 -0.8469
vn -0.4962 -0.8682 -0.0082
vn 0.0144 -0.7680 -0.6403
vn -0.2628 -0.7261 0.6353
vn 0.5468 -0.5077 -0.6658
vn 0.8930 0.1634 -0.4193
vn 0.9505 -0.2998 -0.0813
vn -0.9417 -0.3125 -0.1246
vn -0.7339 -0.5010 0.4588
vn -0.9784 0.0278 -0.2051
vn 0.7954 0.4209 0.4360
vn -0.9384 0.3171 0.1373
vn 0.6840 0.6945 0.2232
vn -0.6852 0.2783 0.6731
vn 0.4604 -0.8873 -0.0277
vn -0.4446 -0.8957 -0.0066
vn 0.0094 -0.7596 -0.6504
vn -0.5008 -0.5994 -0.6244
vn -0.4481 -0.2427 0.8604
vn 0.4954 -0.4233 0.7585
vn 0.5687 -0.7297 -0.3796
vn 0.8877 0.1455 -0.4368
vn 0.8886 -0.4583 -0.0185
vn 0.8247 -0.4199 0.3790
vn 0.7959 0.4216 0.4345
vn 0.4444 0.3962 -0.8035
vn 0.2488 -0.0065 -0.9685
vn 0.1390 -0.7214 -0.6784
vn 0.5353 -0.7034 -0.4676
vn 0.8890 0.1507 -0.4325
vn 0.9602 -0.2511 -0.1223
vn -0.8115 -0.5829 -0.0407
vn -0.7800 -0.2785 0.5604
vn -0.9783 0.0242 -0.2058
vn -0.1571 -0.0937 0.9831
vn 0.1768 0.5019 0.8467
vn 0.4466 -0.2906 0.8462
vn 0.7973 0.4239 0.4297
vn 0.4393 -0.8772 0.1937
vn 0.8104 -0.3533 0.4673
vn 0.2483 -0.0039 -0.9687
vn -0.5212 -0.1042 -0.8471
vn -0.2551 -0.7272 0.6373
vn -0.4580 -0.7080 -0.5375
vn 0.9385 -0.2424 0.2458
vn 0.8887 0.1634 -0.4283
vn 0.7916 0.4234 0.4405
vn 0.7065 -0.6993 -0.1091
vn 0.4546 -0.6497 -0.6093
vn -0.0931 -0.6320 -0.7694
vn -0.5295 -0.7241 -0.4420
vn -0.5322 -0.0884 -0.8420
vn -0.9210 -0.3575 -0.1549
vn -0.7588 -0.5252 0.3852
vn -0.9773 0.0311 -0.2097
vn -0.9384 0.3170 0.1372
vn 0.2485 0.0037 -0.9686
vn -0.6825 0.2780 0.6760
vn 0.5549 -0.4883 -0.6735
vn 0.8931 0.1630 -0.4193
vn 0.8802 -0.4726 -0.0446
vn -0.9525 -0.2551 -0.1662
vn -0.8175 -0.3822 0.4309
vn -0.9769 0.0315 -0.2113
vn 0.3094 -0.9508 -0.0169
vn 0.8267 -0.4036 0.3920
vn 0.7955 0.4207 0.4361
vn -0.6839 0.2815 0.6731
vn 0.4934 -0.4329 0.7544
vn -0.4793 -0.8731 0.0897
vn 0.0020 -0.7535 -0.6574
vn -0.4651 -0.3057 0.8308
vn -0.2533 0.5749 -0.7780
vn 0.1964 -0.3557 0.9137
vn 0.1965 -0.3557 0.9137
vn -0.1748 0.5254 0.8327
vn 0.6263 -0.3581 0.6925
vn -0.4608 -0.6659 -0.5867
vn 0.1673 -0.0782 0.9828
vn 0.1477 0.5007 0.8530
vn 0.3115 -0.6429 -0.6998
vn 0.1477 0.5007 0.8529
vn 0.5912 -0.4094 0.6949
vn -0.4685 -0.5639 -0.6801
vn 0.5765 -0.4110 0.7062
vn 0.8757 -0.2865 0.3887
vn 0.4880 -0.8728 -0.0060
vn 0.1816 -0.5907 -0.7862
vn 0.8599 -0.3101 0.4055
vn 0.1080 -0.1331 0.9852
vn 0.7322 0.1939 0.6529
vn -0.6742 0.7286 -0.1206
vn 0.0757 -0.9632 -0.2580
vn -0.2010 0.5128 0.8346
vn -0.2012 0.5159 0.8327
vn 0.2142 -0.3453 0.9137
vn 0.5697 -0.4388 0.6949
vn -0.4964 -0.5394 -0.6801
vn 0.5670 -0.4347 0.6997
vn -0.4995 -0.5979 -0.6269
vn 0.8431 -0.3533 0.4055
vn 0.1012 -0.1384 0.9852
vn 0.1728 0.4925 0.8530
vn 0.5550 -0.4396 0.7062
vn 0.1515 -0.5992 -0.7862
vn 0.5966 -0.3963 0.6978
vn -0.4862 -0.2331 0.8422
vn 0.1335 -0.3420 0.9302
vn 0.1726 0.4887 0.8552
vn -0.5006 -0.6137 -0.6106
vn 0.1018 -0.1191 0.9876
vn 0.1729 0.4925 0.8529
vt 0.546019 0.202250
vt 0.383834 0.225023
vt 0.386400 0.096335
vt 0.376235 0.000000
vt 0.586595 0.024611
vt 0.570563 0.562500
vt 0.561767 0.659813
vt 0.381703 0.588314
vt 0.375871 0.050854
vt 0.610789 0.156429
vt 0.678747 0.655632
vt 0.624925 0.910089
vt 0.581856 0.896129
vt 0.597965 1.000000
vt 0.561114 0.487337
vt 0.577980 0.354056
vt 0.663541 0.532292
vt 0.561092 0.762193
vt 0.364137 0.547921
vt 0.134086 0.679800
vt 0.223543 0.512867
vt 0.381520 0.722157
vt 0.383246 0.473992
vt 0.381703 0.588313
vt 0.610789 0.156428
vt 0.561115 0.487337
vt 0.561092 0.762194
vt 0.570564 0.562500
vt 0.752082 0.540549
vt 0.875000 0.645274
vt 0.763032 0.665822
vt 0.561114 0.487338
vt 0.577980 0.354057
vt 0.626288 0.374054
vt 0.685008 0.632960
vt 0.586595 0.024612
vt 0.678747 0.655633
vt 0.624925 0.910090
vt 0.546019 0.202249
vt 0.561768 0.659814
vt 0.581856 0.896128
vt 0.561115 0.487338
vt 0.663541 0.532293
vt 0.564504 0.514304
vt 0.561767 0.659812
vt 0.875000 0.645273
vt 0.763032 0.665821
vt 0.577981 0.354057
vt 0.561091 0.762196
vt 0.134086 0.679801
vt 0.381521 0.722157
vt 0.377342 0.096344
vt 0.565828 0.202455
vt 0.592390 0.024642
vt 0.375760 0.186646
vt 0.376005 0.277020
vt 0.375114 0.576934
vt 0.375080 0.687500
vt 0.583802 0.590205
vt 0.625000 0.156415
vt 0.665547 0.642006
vt 0.751373 0.712464
vt 0.742913 0.594718
vt 0.875000 0.677041
vt 0.795348 0.507310
vt 0.652784 0.533088
vt 0.625000 0.319094
vt 0.593855 0.353871
vt 0.585549 0.746248
vt 0.584791 0.487812
vt 0.253108 0.723319
vt 0.356068 0.500000
vt 0.250000 0.500000
vt 0.142631 0.520812
vt 0.374990 0.774502
vt 0.377343 0.096345
vt 0.565832 0.202454
vt 0.592389 0.024642
vt 0.375929 0.176571
vt 0.375708 0.242322
vt 0.375000 0.409422
vt 0.374984 0.481937
vt 0.584790 0.487811
vt 0.375109 0.585859
vt 0.583804 0.590204
vt 0.375808 0.014644
vt 0.625000 0.156413
vt 0.665550 0.642006
vt 0.751372 0.712465
vt 0.742912 0.594717
vt 0.875000 0.677037
vt 0.795351 0.507311
vt 0.652787 0.533093
vt 0.625000 0.319091
vt 0.593854 0.353870
vt 0.585552 0.746243
vt 0.142632 0.520812
vt 0.303580 0.500000
vt 0.375867 0.088863
vt 0.565826 0.202442
vt 0.592390 0.024641
vt 0.375929 0.176572
vt 0.375707 0.242322
vt 0.375181 0.592448
vt 0.375021 0.722190
vt 0.583804 0.590207
vt 0.375000 0.840578
vt 0.593821 0.896129
vt 0.585554 0.746250
vt 0.375521 0.937500
vt 0.625000 0.156417
vt 0.665547 0.642007
vt 0.751373 0.712465
vt 0.742914 0.594718
vt 0.795351 0.507309
vt 0.625000 0.319092
vt 0.593856 0.353872
vt 0.584792 0.487813
vt 0.142630 0.520812
vt 0.371464 0.552914
vt 0.375000 0.797060
vt 0.565828 0.202453
vt 0.375868 0.161137
vt 0.375181 0.592447
vt 0.375021 0.722189
vt 0.583805 0.590207
vt 0.593821 0.896128
vt 0.585550 0.746250
vt 0.375929 0.073429
vt 0.592389 0.024641
vt 0.665548 0.642004
vt 0.875000 0.677036
vt 0.795351 0.507310
vt 0.652784 0.533090
vt 0.584792 0.487810
vt 0.142630 0.520813
vt 0.375910 0.278466
vt 0.565828 0.202449
vt 0.377343 0.153655
vt 0.374984 0.481938
vt 0.375060 0.588327
vt 0.374622 0.671800
vt 0.583803 0.590207
vt 0.585552 0.746248
vt 0.742913 0.594717
vt 0.652784 0.533089
vt 0.593854 0.353872
vt 0.375733 0.991427
vt 0.374128 0.761119
vt 0.375826 0.264072
vt 0.565826 0.202451
vt 0.377342 0.153655
vt 0.374216 0.589646
vt 0.583804 0.590206
vt 0.585553 0.746247
vt 0.375679 0.972799
vt 0.597984 1.000000
vt 0.375000 0.141821
vt 0.375844 0.062500
vt 0.375800 0.000000
vt 0.625000 0.156414
vt 0.665549 0.642004
vt 0.875000 0.677039
vt 0.795350 0.507310
vt 0.652785 0.533088
vt 0.593854 0.353871
vt 0.133623 0.617998
vt 0.322997 0.741385
vt 0.143932 0.500000
vt 0.303579 0.500000
vt 0.565826 0.202448
vt 0.371101 0.698291
vt 0.583806 0.590206
vt 0.625000 0.156416
vt 0.751372 0.712464
vt 0.875000 0.677035
vt 0.585551 0.746248
vt 0.584791 0.487814
vt 0.134128 0.570356
vt 0.373584 0.546879
vt 0.364623 0.548779
vt 0.374985 0.474039
vt 0.374985 0.775963
vt 0.375000 0.767985
vt 0.375658 0.987499
vt 0.064453 0.031824
vt 0.060944 0.224383
vt 0.023432 0.051905
vt 0.723553 0.145249
vt 0.876918 0.158610
vt 0.878228 0.184524
vt 0.302393 0.688488
vt 0.283825 0.722048
vt 0.113755 0.663201
vt 0.856755 0.238648
vt 0.878723 0.225306
vt 0.693479 0.204363
vt 0.622370 0.150996
vt 0.715335 0.187965
vt 0.107257 0.387062
vt 0.132091 0.388082
vt 0.130659 0.422146
vt 0.628692 0.446240
vt 0.589821 0.412495
vt 0.660412 0.285233
vt 0.463119 0.732182
vt 0.279986 0.758244
vt 0.264023 0.927260
vt 0.311824 0.839673
vt 0.335942 0.972090
vt 0.396907 0.844898
vt 0.411078 0.886293
vt 0.245781 0.908115
vt 0.260761 0.858374
vt 0.258388 0.951805
vt 0.345728 0.816736
vt 0.292051 0.825790
vt 0.551843 0.620441
vt 0.624450 0.617731
vt 0.558672 0.633343
vt 0.333123 0.042001
vt 0.295830 0.193546
vt 0.283316 0.037433
vt 0.426832 0.454509
vt 0.378838 0.449224
vt 0.401894 0.276330
vt 0.784968 0.815524
vt 0.729859 0.815067
vt 0.780864 0.635939
vt 0.029802 0.555188
vt 0.244354 0.540807
vt 0.212320 0.578014
vt 0.027322 0.501852
vt 0.617915 0.912181
vt 0.644264 0.887094
vt 0.634826 0.919097
vt 0.255289 0.301622
vt 0.218126 0.228856
vt 0.253552 0.186572
vt 0.378642 0.081130
vt 0.390090 0.078537
vt 0.383761 0.097781
vt 0.044054 0.384051
vt 0.033814 0.390259
vt 0.033920 0.378160
vt 0.233430 0.421413
vt 0.235464 0.392640
vt 0.244474 0.426506
vt 0.262279 0.395107
vt 0.402369 0.103666
vt 0.443798 0.242776
vt 0.294761 0.292173
vt 0.770807 0.452227
vt 0.743571 0.632485
vt 0.783626 0.459505
vt 0.809984 0.635141
vt 0.490955 0.912603
vt 0.548579 0.936639
vt 0.511641 0.937760
vt 0.608055 0.937948
vt 0.623076 0.821569
vt 0.581635 0.785246
vt 0.613354 0.794995
vt 0.513974 0.793530
vt 0.515967 0.808105
vt 0.488758 0.815727
vt 0.382622 0.088725
vt 0.375830 0.000000
vt 0.752082 0.540548
vt 0.365537 0.546919
vt 0.353529 0.779221
vt 0.144401 0.750000
vt 0.125000 0.650363
vt 0.377777 0.687500
vt 0.385383 0.907534
vt 0.373762 0.801712
vt 0.384208 0.774716
vt 0.376181 0.985856
vt 0.564504 0.514303
vt 0.763031 0.665822
vt 0.561091 0.762193
vt 0.564505 0.514304
vt 0.561768 0.659812
vt 0.752081 0.540548
vt 0.586594 0.024611
vt 0.561766 0.659813
vt 0.875000 0.645272
vt 0.561114 0.487336
vt 0.561091 0.762195
vt 0.546019 0.202251
vt 0.384582 0.221199
vt 0.564505 0.514305
vt 0.383246 0.473991
vt 0.195795 0.509281
vt 0.313983 0.738068
vt 0.144402 0.750000
vt 0.373466 0.794718
vt 0.390476 0.342484
vt 0.376937 0.299625
vt 0.546020 0.202250
vt 0.384582 0.221200
vt 0.610789 0.156431
vt 0.626288 0.374053
vt 0.561091 0.762194
vt 0.195795 0.509280
vt 0.364138 0.547921
vt 0.564505 0.514303
vt 0.561767 0.659814
vt 0.381702 0.588313
vt 0.577980 0.354055
vt 0.314842 0.736470
vt 0.373539 0.795764
vt 0.376937 0.299624
vt 0.375867 0.088864
vt 0.565829 0.202451
vt 0.375182 0.592448
vt 0.583802 0.590207
vt 0.593820 0.896130
vt 0.585552 0.746249
vt 0.742914 0.594717
vt 0.795349 0.507311
vt 0.652785 0.533087
vt 0.625000 0.319093
vt 0.593853 0.353873
vt 0.584796 0.487812
vt 0.142630 0.520811
vt 0.371465 0.552915
vt 0.375868 0.088863
vt 0.565824 0.202446
vt 0.592394 0.024641
vt 0.376005 0.277019
vt 0.583805 0.590209
vt 0.585551 0.746244
vt 0.665549 0.642001
vt 0.652784 0.533087
vt 0.593852 0.353870
vt 0.584790 0.487809
vt 0.142629 0.520812
vt 0.371464 0.552913
vt 0.565827 0.202451
vt 0.377343 0.153654
vt 0.583806 0.590205
vt 0.625000 0.156418
vt 0.665549 0.642005
vt 0.742915 0.594718
vt 0.875000 0.677031
vt 0.795353 0.507309
vt 0.652783 0.533084
vt 0.625000 0.319089
vt 0.593857 0.353872
vt 0.585551 0.746246
vt 0.584793 0.487813
vt 0.134127 0.570357
vt 0.373584 0.546881
vt 0.364623 0.548781
vt 0.565827 0.202456
vt 0.375181 0.592449
vt 0.583804 0.590208
vt 0.593820 0.896129
vt 0.585547 0.746242
vt 0.375928 0.073428
vt 0.592387 0.024640
vt 0.665549 0.642006
vt 0.875000 0.677044
vt 0.795348 0.507309
vt 0.652783 0.533088
vt 0.625000 0.319095
vt 0.593854 0.353869
vt 0.584794 0.487814
vt 0.565828 0.202454
vt 0.374216 0.589647
vt 0.583805 0.590208
vt 0.593821 0.896127
vt 0.585552 0.746244
vt 0.597985 1.000000
vt 0.751371 0.712463
vt 0.795354 0.507310
vt 0.652786 0.533090
vt 0.625000 0.319087
vt 0.584795 0.487810
vt 0.133622 0.618000
vt 0.303582 0.500000
vt 0.375000 0.797061
vt 0.377342 0.096343
vt 0.565827 0.202450
vt 0.592391 0.024641
vt 0.375694 0.186475
vt 0.375910 0.278465
vt 0.373198 0.674670
vt 0.583802 0.590206
vt 0.625000 0.156412
vt 0.795350 0.507311
vt 0.652785 0.533089
vt 0.593856 0.353871
vt 0.585551 0.746250
vt 0.565828 0.202451
vt 0.375867 0.161137
vt 0.375000 0.232006
vt 0.665547 0.642004
vt 0.875000 0.677038
vt 0.585551 0.746249
vt 0.584793 0.487811
vt 0.177003 0.734323
vt 0.351825 0.534753
vt 0.381794 0.338734
vt 0.782422 0.538493
vt 0.785783 0.662738
vt 0.383162 0.828347
vt 0.377598 0.971504
vt 0.624766 0.077959
vt 0.624754 0.333514
vt 0.674748 0.543438
vt 0.305307 0.748729
vt 0.125000 0.519811
vt 0.375000 0.995914
vt 0.782421 0.538493
vt 0.674749 0.543439
vt 0.624766 0.077960
vt 0.674748 0.543439
vt 0.625000 1.000000
vt 0.624857 0.872998
vt 0.377598 0.971503
vt 0.624642 0.106743
vt 0.305307 0.748728
vt 0.305308 0.748728
vt 0.624856 0.872998
vt 0.383162 0.828348
vt 0.375000 0.366460
vt 0.375808 0.014645
vt 0.375428 0.913103
vt 0.375808 1.000000
vt 0.625000 0.880989
vt 0.625000 0.078554
vt 0.375522 0.312500
vt 0.125000 0.731067
vt 0.375000 0.865743
vt 0.625000 0.880988
vt 0.625000 0.078557
vt 0.375299 0.342411
vt 0.125000 0.731068
vt 0.375482 0.003290
vt 0.374985 0.475279
vt 0.375482 0.997107
vt 0.322998 0.741385
vt 0.375481 0.003290
vt 0.597983 1.000000
vt 0.375481 0.997107
vt 0.625000 0.880987
vt 0.625000 0.078559
vt 0.375733 0.001627
vt 0.375000 0.200720
vt 0.134127 0.570356
vt 0.145807 0.732371
vt 0.376225 0.342495
vt 0.374988 0.471157
vt 0.625000 0.078556
vt 0.375000 0.983351
vt 0.375000 0.366461
vt 0.375658 0.003374
vt 0.375000 0.200721
vt 0.141649 0.732192
vt 0.806300 0.025041
vt 0.679810 0.061851
vt 0.594872 0.037599
vt 0.659303 0.556693
vt 0.652727 0.434716
vt 0.105217 0.758219
vt 0.103045 0.040070
vt 0.107699 0.244146
vt 0.104332 0.717191
vt 0.132042 0.207175
vt 0.657024 0.257126
vt 0.663618 0.262778
vt 0.024850 0.035308
vt 0.556153 0.140709
vt 0.576614 0.078461
vt 0.475671 0.054438
vt 0.483654 0.034375
vt 0.444260 0.035389
vt 0.141125 0.412308
vt 0.441937 0.750689
vt 0.638918 0.283996
vt 0.449279 0.719177
vt 0.519953 0.631640
vt 0.527493 0.639198
vt 0.288426 0.967497
vt 0.234447 0.026982
vt 0.497106 0.356791
vt 0.477938 0.459942
vt 0.207642 0.031461
vt 0.699284 0.812912
vt 0.722005 0.633709
vt 0.825765 0.813209
vt 0.243251 0.505696
vt 0.032866 0.470022
vt 0.038089 0.594571
vt 0.383184 0.560997
vt 0.401493 0.585406
vt 0.647524 0.853135
vt 0.303335 0.028902
vt 0.754714 0.469626
vt 0.489438 0.862145
vt 0.476068 0.861188
vt 0.557255 0.952692
vt 0.547024 0.782012
vt 0.624857 0.872997
vt 0.624642 0.106744
vt 0.597964 1.000000
vt 0.624642 0.106745
vt 0.597966 1.000000
vt 0.624642 0.106742
vt 0.374985 0.475280
vt 0.374985 0.474038
vt 0.597987 1.000000
vt 0.375658 0.003373
vt 0.375429 0.913103
vt 0.597982 1.000000
vt 0.625000 0.078562
vt 0.141650 0.732194
vt 0.597981 1.000000
vt 0.625000 0.880990
vt 0.625000 0.078552
vt 0.374988 0.471158
vt 0.625000 0.880986
vt 0.375000 0.983350
vt 0.375299 0.911267
vt 0.597986 1.000000
vt 0.625000 0.078558
vt 0.128470 0.588978
vt 0.223746 0.737249
vt 0.375000 0.752760
vt 0.375787 0.001450
vt 0.375787 0.982310
vt 0.367205 0.576076
vt 0.375000 0.752759
vt 0.141650 0.732193
vt 0.141650 0.732192
vt 0.813088 0.057716
vt 0.149205 0.048127
vt 0.391460 0.948443
vt 0.501296 0.461007
vt 0.141649 0.732193
vt 0.141648 0.732192
s 1
usemtl マテリアル.002
f 1/1/1 20/2/2 18/3/3
f 36/4/4 19/5/5 18/3/3
f 23/6/6 24/7/7 22/8/8
f 18/3/3 20/2/2 33/9/9
f 19/5/5 311/10/10 1/1/1
f 30/11/11 31/12/12 27/13/13
f 27/13/13 31/12/12 19/14/5
f 32/15/14 21/16/15 29/17/16
f 24/7/7 23/6/6 30/11/11
f 24/7/7 30/11/11 2/18/17
f 35/19/18 33/20/9 34/21/19
f 22/8/8 25/22/20 35/19/18
f 22/8/8 35/19/18 37/23/21
f 3/1/22 40/2/2 38/3/3
f 56/4/4 39/5/5 38/3/3
f 43/6/6 44/7/7 42/8/8
f 38/3/3 40/2/2 53/9/9
f 39/5/5 312/10/10 3/1/22
f 50/11/11 51/12/12 47/13/13
f 47/13/13 51/12/12 39/14/5
f 52/15/14 41/16/15 49/17/16
f 44/7/7 43/6/6 50/11/11
f 44/7/7 50/11/11 4/18/23
f 55/19/18 53/20/9 54/21/19
f 42/8/8 45/22/20 55/19/18
f 42/8/8 55/19/18 57/23/21
f 5/1/22 60/2/2 58/3/3
f 76/4/4 59/5/5 58/3/3
f 63/6/6 64/7/7 62/24/8
f 58/3/3 60/2/2 73/9/9
f 59/5/5 313/25/10 5/1/22
f 70/11/11 71/12/12 67/13/13
f 67/13/13 71/12/12 59/14/5
f 72/26/14 61/16/15 69/17/16
f 64/7/7 63/6/6 70/11/11
f 64/7/7 70/11/11 6/27/24
f 75/19/18 73/20/9 74/21/19
f 62/24/8 65/22/20 75/19/18
f 62/24/8 75/19/18 77/23/21
f 7/1/1 80/2/2 78/3/3
f 96/4/4 79/5/25 78/3/3
f 83/28/26 84/7/27 82/8/8
f 78/3/3 80/2/2 93/9/9
f 79/5/25 314/10/28 7/1/1
f 88/29/29 91/30/30 90/31/31
f 92/32/32 81/33/33 88/34/29
f 84/7/27 83/28/26 89/35/34
f 84/7/27 89/35/34 8/18/35
f 95/19/18 93/20/9 94/21/19
f 82/8/8 85/22/20 95/19/18
f 82/8/8 95/19/18 97/23/21
f 9/1/1 100/2/2 98/3/3
f 116/4/4 99/36/5 98/3/3
f 103/6/6 104/7/36 102/8/8
f 98/3/3 100/2/2 113/9/9
f 99/36/5 315/10/10 9/1/1
f 110/37/11 111/38/37 107/13/13
f 107/13/13 111/38/37 99/14/5
f 112/32/14 101/16/38 109/17/39
f 104/7/36 103/6/6 110/37/11
f 104/7/36 110/37/11 10/18/23
f 115/19/18 113/20/9 114/21/19
f 102/8/8 105/22/20 115/19/18
f 102/8/8 115/19/18 117/23/21
f 11/39/1 120/2/2 118/3/3
f 136/4/4 119/36/5 118/3/3
f 123/6/6 124/40/36 122/8/8
f 118/3/3 120/2/2 133/9/9
f 119/36/5 316/10/10 11/39/1
f 130/37/11 131/12/37 127/41/13
f 127/41/13 131/12/37 119/14/5
f 132/42/14 121/16/15 129/43/39
f 124/40/36 123/6/6 130/37/11
f 124/40/36 130/37/11 12/18/23
f 135/19/18 133/20/9 134/21/19
f 122/8/8 125/22/20 135/19/18
f 122/8/8 135/19/18 137/23/21
f 13/39/1 140/2/2 138/3/3
f 155/4/4 139/5/25 138/3/3
f 151/44/40 143/45/41 142/8/42
f 151/44/40 142/8/42 156/23/43
f 138/3/3 140/2/2 152/9/9
f 139/5/25 317/10/28 13/39/1
f 147/29/44 150/46/30 149/47/31
f 151/44/40 141/48/45 147/34/44
f 143/45/41 151/44/40 148/35/46
f 143/45/41 148/35/46 14/49/35
f 154/19/18 152/50/9 153/21/47
f 142/8/42 144/51/20 154/19/18
f 142/8/42 154/19/18 156/23/43
f 157/52/48 159/53/49 158/54/50
f 176/55/51 159/53/49 157/52/48
f 160/56/52 159/53/49 176/55/51
f 164/57/53 163/58/54 165/59/55
f 319/60/56 158/54/50 159/53/49
f 171/61/57 173/62/58 170/63/59
f 173/62/58 172/64/60 170/63/59
f 170/63/59 172/64/60 169/65/61
f 170/66/59 169/67/61 162/68/62
f 162/68/62 169/67/61 319/60/56
f 162/68/62 319/60/56 159/53/49
f 171/61/57 165/59/55 166/69/63
f 165/59/55 170/63/59 174/70/64
f 175/71/65 164/72/53 161/73/66
f 176/74/51 175/71/65 161/73/66
f 163/58/54 175/71/65 167/75/67
f 180/76/68 182/77/69 181/78/50
f 179/79/70 182/77/69 180/76/68
f 183/80/71 182/77/69 179/79/70
f 184/81/72 15/82/73 198/83/74
f 188/84/75 187/58/76 189/85/77
f 200/86/78 183/80/71 179/79/70
f 321/87/79 181/78/50 182/77/69
f 195/88/57 197/89/80 194/90/59
f 197/89/80 196/91/60 194/90/59
f 194/90/59 196/91/60 193/92/61
f 194/93/59 193/94/61 186/95/81
f 186/95/81 193/94/61 321/87/79
f 186/95/81 321/87/79 182/77/69
f 195/88/57 189/85/77 190/96/63
f 189/85/77 194/90/59 198/83/74
f 183/97/71 199/71/82 15/98/73
f 187/58/76 199/71/82 191/75/83
f 202/99/84 204/100/85 203/101/86
f 201/102/87 204/100/85 202/99/84
f 205/103/88 204/100/85 201/102/87
f 207/104/89 210/105/90 208/106/91
f 212/107/92 322/108/93 209/109/94
f 212/107/92 211/110/95 322/108/93
f 323/111/56 203/101/86 204/100/85
f 215/112/57 217/113/96 214/114/97
f 217/113/96 216/91/60 214/114/97
f 214/114/97 216/91/60 213/115/61
f 214/66/97 213/116/61 206/117/98
f 206/117/98 213/116/61 323/111/56
f 206/117/98 323/111/56 204/100/85
f 215/112/57 208/106/91 209/109/94
f 208/106/91 214/114/97 218/118/99
f 205/119/88 220/120/100 324/73/101
f 221/121/102 212/107/92 210/105/90
f 227/103/103 226/122/104 223/123/105
f 229/124/89 232/125/90 230/126/91
f 234/107/92 325/127/93 231/128/94
f 234/107/92 233/110/106 325/127/93
f 227/103/103 223/123/105 224/129/107
f 326/111/56 225/130/108 226/122/104
f 237/131/57 239/89/80 236/90/97
f 239/89/80 238/132/60 236/90/97
f 236/90/97 238/132/60 235/133/61
f 236/134/97 235/116/61 228/68/98
f 228/68/98 235/116/61 326/111/56
f 228/68/98 326/111/56 226/122/104
f 237/131/57 230/126/91 231/128/94
f 230/126/91 236/90/97 240/135/99
f 227/136/103 242/120/100 327/73/109
f 243/121/102 234/107/92 232/125/90
f 249/137/110 248/138/111 245/139/112
f 250/81/113 16/140/114 264/70/115
f 253/141/116 252/142/117 254/143/118
f 258/107/119 328/127/93 255/144/120
f 258/107/119 257/110/121 328/127/93
f 329/60/79 247/54/122 248/138/111
f 261/61/123 263/89/124 260/145/97
f 263/89/124 262/91/60 260/145/97
f 260/145/97 262/91/60 259/92/61
f 260/146/97 259/94/61 251/147/125
f 251/147/125 259/94/61 329/60/79
f 251/147/125 329/60/79 248/138/111
f 261/61/123 254/143/118 255/144/120
f 254/143/118 260/145/97 264/70/115
f 265/148/126 257/110/121 256/149/127
f 271/150/128 270/151/129 267/152/130
f 274/153/131 277/125/132 275/154/133
f 278/107/134 330/127/135 276/155/94
f 278/107/134 287/156/136 330/127/135
f 287/156/136 269/157/137 330/127/135
f 285/158/138 268/159/139 287/160/136
f 331/161/140 269/101/137 270/151/129
f 281/162/57 283/89/58 280/145/97
f 283/89/58 282/163/60 280/145/97
f 280/145/97 282/163/60 279/164/61
f 280/165/97 279/116/61 273/166/141
f 273/166/141 279/116/61 331/161/140
f 273/166/141 331/161/140 270/151/129
f 281/162/57 275/154/133 276/155/94
f 275/154/133 280/145/97 284/70/142
f 285/167/138 286/168/143 274/153/131
f 271/169/128 285/167/138 17/170/144
f 286/121/143 278/107/134 277/125/132
f 292/56/145 291/171/146 288/139/147
f 295/141/148 308/172/149 296/173/150
f 333/174/56 290/101/151 291/171/146
f 302/61/57 304/175/58 301/145/97
f 304/175/58 303/176/60 301/145/97
f 301/145/97 303/176/60 300/164/61
f 301/66/97 300/116/61 294/68/62
f 294/68/62 300/116/61 333/174/56
f 294/68/62 333/174/56 291/171/146
f 302/61/57 296/173/150 297/177/152
f 296/173/150 301/145/97 305/178/64
f 309/179/153 308/172/149 307/180/154
f 309/179/153 307/181/154 293/73/155
f 307/180/154 295/141/148 310/182/156
f 298/183/157 308/184/149 306/185/158
f 336/186/159 342/187/160 341/188/161
f 334/189/162 344/190/163 340/191/164
f 349/192/165 350/193/166 348/194/167
f 341/195/161 340/191/164 360/196/168
f 342/197/160 392/198/169 343/199/170
f 358/200/171 357/201/172 393/202/173
f 359/203/174 346/204/175 355/205/176
f 350/193/166 349/192/165 356/206/177
f 350/193/166 356/206/177 335/207/178
f 362/208/179 363/209/180 361/210/181
f 363/209/180 336/211/159 360/212/168
f 348/213/167 347/214/182 362/208/179
f 348/213/167 362/208/179 364/215/183
f 351/216/184 363/209/180 352/217/185
f 351/216/184 336/211/159 363/209/180
f 345/218/186 364/219/183 361/220/181
f 369/221/187 337/222/188 365/223/189
f 370/224/190 391/225/191 385/226/192
f 374/227/193 373/228/194 375/229/195
f 379/230/196 394/231/197 338/232/198
f 379/230/196 378/233/199 394/231/197
f 386/234/200 366/235/201 390/236/202
f 395/237/203 367/238/204 368/239/205
f 382/240/206 396/241/207 381/242/208
f 382/243/206 384/244/209 396/245/207
f 384/246/209 383/247/210 396/248/207
f 396/248/207 383/247/210 380/249/211
f 381/242/208 380/250/211 372/251/212
f 372/252/212 380/249/211 395/237/203
f 372/252/212 395/237/203 337/222/188
f 382/253/206 375/229/195 376/254/213
f 375/229/195 381/255/208 385/256/192
f 373/257/194 388/258/214 377/259/215
f 386/234/200 378/260/199 388/258/214
f 378/260/199 386/234/200 390/236/202
f 389/261/216 371/262/217 369/263/187
f 370/264/190 339/265/218 391/266/191
f 397/1/219 419/2/220 417/267/221
f 399/268/222 418/5/223 417/267/221
f 423/6/224 424/7/225 422/8/226
f 418/5/223 710/10/227 397/1/219
f 428/269/228 431/46/229 430/31/230
f 432/15/231 420/16/232 428/34/228
f 424/7/225 423/6/224 429/35/233
f 424/7/225 429/35/233 398/18/234
f 434/270/235 435/271/236 433/21/237
f 435/271/236 399/272/222 417/273/221
f 422/8/226 421/274/238 434/270/235
f 422/8/226 434/270/235 436/23/239
f 425/275/240 435/276/236 426/277/241
f 425/275/240 399/278/222 435/276/236
f 400/1/242 439/2/243 437/3/244
f 454/4/245 438/5/246 437/3/244
f 450/279/247 442/7/248 441/24/249
f 450/279/247 441/24/249 455/23/250
f 437/3/244 439/2/243 451/9/251
f 438/5/246 711/10/227 400/1/242
f 446/269/252 449/46/253 448/280/230
f 450/279/247 440/16/254 446/34/252
f 442/7/248 450/279/247 447/35/255
f 442/7/248 447/35/255 401/281/256
f 453/19/257 451/20/251 452/21/258
f 441/24/249 443/22/259 453/19/257
f 441/24/249 453/19/257 455/23/250
f 402/1/242 458/2/243 456/3/244
f 473/4/260 457/5/246 456/3/244
f 469/282/247 461/283/261 460/24/262
f 469/282/247 460/24/262 474/23/250
f 456/3/244 458/2/243 470/9/263
f 457/5/246 712/25/227 402/1/242
f 465/284/264 468/46/229 467/280/230
f 469/282/247 459/33/265 465/34/264
f 461/283/261 469/282/247 466/35/266
f 461/283/261 466/35/266 403/18/256
f 472/19/257 470/20/263 471/21/258
f 460/24/262 462/22/259 472/19/257
f 460/24/262 472/19/257 474/23/250
f 404/1/267 477/2/243 475/3/244
f 493/4/245 476/285/246 475/3/244
f 480/6/224 481/286/268 479/24/269
f 475/3/244 477/2/243 490/9/251
f 476/285/246 713/10/227 404/1/267
f 485/269/228 488/287/229 487/31/230
f 489/288/270 478/33/232 485/34/228
f 481/286/268 480/6/224 486/35/271
f 481/286/268 486/35/271 405/289/256
f 492/19/257 490/20/251 491/21/272
f 479/24/269 482/22/259 492/19/257
f 479/24/269 492/19/257 494/23/273
f 406/290/274 497/291/275 495/267/276
f 408/268/277 496/5/278 495/267/276
f 510/292/279 502/7/280 501/24/281
f 510/292/279 501/24/281 514/293/282
f 496/5/278 714/25/227 406/290/274
f 506/284/264 509/30/229 508/280/230
f 510/292/279 499/16/283 506/34/264
f 502/7/280 510/292/279 507/35/255
f 502/7/280 507/35/255 407/281/234
f 511/294/284 512/19/285 513/295/286
f 513/295/286 408/296/277 495/273/276
f 501/24/281 500/274/287 512/19/285
f 501/24/281 512/19/285 514/293/282
f 503/275/288 513/297/286 504/277/289
f 503/275/288 408/278/277 513/297/286
f 498/298/290 514/293/282 511/299/284
f 409/300/274 517/301/275 515/267/276
f 411/268/277 516/5/278 515/267/276
f 522/6/224 523/286/225 521/8/291
f 516/5/278 715/302/227 409/300/274
f 527/269/228 530/46/229 529/31/230
f 531/42/292 519/33/293 527/303/228
f 523/286/225 522/6/224 528/35/271
f 523/286/225 528/35/271 410/304/234
f 532/305/284 533/306/285 534/295/286
f 534/295/286 411/272/277 515/273/276
f 521/8/291 520/274/287 533/306/285
f 521/8/291 533/306/285 535/23/294
f 524/275/288 534/297/286 525/277/289
f 524/275/288 411/278/277 534/297/286
f 518/298/295 535/23/294 532/299/284
f 412/1/296 538/301/275 536/267/276
f 414/268/277 537/36/223 536/267/276
f 551/307/279 543/308/280 542/309/297
f 551/307/279 542/309/297 555/23/298
f 537/36/223 716/10/227 412/1/296
f 547/284/264 550/46/253 549/280/230
f 551/307/279 540/310/283 547/34/264
f 543/308/280 551/307/279 548/35/255
f 543/308/280 548/35/255 413/281/234
f 554/311/299 414/272/277 536/273/276
f 542/309/297 541/274/300 553/270/301
f 542/309/297 553/270/301 555/23/298
f 544/275/302 554/312/299 545/277/303
f 544/275/302 414/278/277 554/312/299
f 539/298/290 555/23/298 552/313/304
f 557/314/305 559/315/306 558/130/307
f 556/79/308 559/315/306 557/314/305
f 560/80/309 559/315/306 556/79/308
f 562/316/310 565/105/311 563/317/312
f 567/107/313 717/318/314 564/319/315
f 567/107/313 566/110/316 717/318/314
f 718/111/317 558/130/307 559/315/306
f 570/61/318 572/175/319 569/320/320
f 572/175/319 571/64/321 569/320/320
f 569/320/320 571/64/321 568/321/322
f 569/322/320 568/323/322 561/324/323
f 561/324/323 568/323/322 718/111/317
f 561/324/323 718/111/317 559/315/306
f 570/61/318 563/317/312 564/319/315
f 563/317/312 569/320/320 573/325/324
f 560/326/309 575/327/325 719/73/326
f 576/121/327 567/107/313 565/105/311
f 578/328/328 580/329/329 579/330/307
f 599/55/330 580/329/329 578/328/328
f 581/331/331 580/329/329 599/55/330
f 584/104/332 587/125/311 585/332/333
f 589/107/313 720/127/314 586/333/334
f 589/107/313 588/110/316 720/127/314
f 721/174/317 579/330/307 580/329/329
f 592/334/318 594/62/319 591/145/320
f 594/62/319 593/91/335 591/145/320
f 591/145/320 593/91/335 590/115/336
f 591/335/320 590/94/336 583/336/337
f 583/336/337 590/94/336 721/174/317
f 583/336/337 721/174/317 580/329/329
f 592/334/318 585/332/333 586/333/334
f 585/332/333 591/145/320 595/337/338
f 599/338/330 597/339/339 582/73/340
f 598/121/341 589/107/313 587/125/311
f 605/56/342 604/340/343 601/341/344
f 608/141/345 621/172/346 609/342/347
f 723/343/317 603/101/348 604/340/343
f 615/344/349 617/175/319 614/345/320
f 617/175/319 616/346/350 614/345/320
f 614/345/320 616/346/350 613/347/336
f 614/348/320 613/349/336 607/350/337
f 607/350/337 613/349/336 723/343/317
f 607/350/337 723/343/317 604/340/343
f 615/344/349 609/342/347 610/351/351
f 609/342/347 614/345/320 618/352/338
f 622/353/352 621/172/346 620/354/353
f 622/353/352 620/355/353 606/73/354
f 620/354/353 608/141/345 623/182/355
f 611/183/356 621/184/346 619/185/357
f 628/80/358 627/356/359 624/123/360
f 630/357/310 633/105/311 631/358/312
f 635/107/313 724/359/314 632/360/334
f 635/107/313 634/110/316 724/359/314
f 628/80/358 624/123/360 625/361/361
f 725/87/317 626/362/362 627/356/359
f 638/363/318 640/113/319 637/320/320
f 640/113/319 639/364/335 637/320/320
f 637/320/320 639/364/335 636/365/363
f 637/366/320 636/367/363 629/368/364
f 629/368/364 636/367/363 725/87/317
f 629/368/364 725/87/317 627/356/359
f 638/363/318 631/358/312 632/360/334
f 631/358/312 637/320/320 641/369/324
f 628/74/358 643/339/325 726/73/365
f 644/121/327 635/107/313 633/105/311
f 650/150/366 649/370/367 646/152/368
f 653/371/369 656/125/370 654/372/371
f 657/107/372 727/373/373 655/374/315
f 657/107/372 666/156/374 727/373/373
f 666/156/374 648/375/375 727/373/373
f 664/158/376 647/159/377 666/160/374
f 728/161/317 648/54/375 649/370/367
f 660/344/318 662/376/319 659/114/320
f 662/376/319 661/91/350 659/114/320
f 659/114/320 661/91/350 658/377/336
f 659/378/320 658/379/336 652/166/378
f 652/166/378 658/379/336 728/161/317
f 652/166/378 728/161/317 649/370/367
f 660/344/318 654/372/371 655/374/315
f 654/372/371 659/114/320 663/380/379
f 664/381/376 665/168/380 653/371/369
f 650/169/366 664/381/376 415/382/381
f 665/383/380 657/107/372 656/125/370
f 667/384/382 669/385/383 668/386/384
f 685/387/385 669/385/383 667/384/382
f 670/388/386 669/385/383 685/387/385
f 671/81/387 416/82/388 683/118/389
f 673/141/390 684/389/391 674/390/392
f 730/391/317 668/386/384 669/385/383
f 680/61/393 682/62/319 679/145/320
f 682/62/319 681/132/321 679/145/320
f 679/145/320 681/132/321 678/392/336
f 679/393/320 678/116/336 672/394/394
f 672/394/394 678/116/336 730/391/317
f 672/394/394 730/391/317 669/385/383
f 680/61/393 674/390/392 675/395/395
f 674/390/392 679/145/320 683/118/389
f 691/56/396 690/396/397 687/397/398
f 695/124/399 694/58/400 696/154/401
f 708/398/402 687/397/398 688/361/403
f 687/397/398 708/398/402 691/56/396
f 732/60/317 689/130/404 690/396/397
f 702/399/318 704/175/319 701/145/320
f 704/175/319 703/400/335 701/145/320
f 701/145/320 703/400/335 700/164/322
f 701/165/320 700/116/322 693/68/337
f 693/68/337 700/116/322 732/60/317
f 693/68/337 732/60/317 690/396/397
f 702/399/318 696/154/401 697/401/405
f 696/154/401 701/145/320 705/402/338
f 706/403/406 707/404/407 708/119/402
f 708/119/402 707/404/407 692/73/408
f 694/58/400 707/404/407 698/75/409
f 18/3/3 19/5/5 1/1/1
f 34/405/19 32/15/14 37/23/21
f 22/8/8 32/15/14 23/6/6
f 30/11/11 28/406/410 31/407/12
f 25/22/20 24/7/7 2/18/17
f 22/8/8 24/7/7 25/22/20
f 25/22/20 2/18/17 26/408/411
f 36/409/4 27/13/13 19/14/5
f 26/408/411 27/13/13 36/409/4
f 26/408/411 2/18/17 27/13/13
f 18/3/3 33/9/9 36/4/4
f 19/5/5 31/410/12 311/10/10
f 311/10/10 31/410/12 28/411/410
f 54/405/19 3/1/22 41/16/15
f 2/18/17 30/11/11 27/13/13
f 29/17/16 21/16/15 28/411/410
f 21/16/15 1/1/1 311/10/10
f 21/16/15 311/10/10 28/411/410
f 30/11/11 23/6/6 29/412/16
f 23/6/6 32/15/14 29/412/16
f 33/20/9 35/19/18 26/413/411
f 20/414/2 34/21/19 33/20/9
f 25/22/20 26/408/411 35/19/18
f 36/409/4 33/415/9 26/408/411
f 37/23/21 35/19/18 34/405/19
f 38/3/3 39/5/5 3/1/22
f 54/405/19 52/15/14 57/23/21
f 42/8/8 52/15/14 43/6/6
f 50/11/11 48/416/410 51/407/12
f 45/22/20 44/7/7 4/18/23
f 42/8/8 44/7/7 45/22/20
f 45/22/20 4/18/23 46/408/411
f 56/409/4 47/13/13 39/14/5
f 46/408/411 47/13/13 56/409/4
f 46/408/411 4/18/23 47/13/13
f 38/3/3 53/9/9 56/4/4
f 39/5/5 51/410/12 312/10/10
f 312/10/10 51/410/12 48/411/410
f 74/405/19 5/1/22 61/16/15
f 4/18/23 50/11/11 47/13/13
f 49/17/16 41/16/15 48/411/410
f 41/16/15 3/1/22 312/10/10
f 41/16/15 312/10/10 48/411/410
f 50/11/11 43/6/6 49/417/16
f 43/6/6 52/15/14 49/417/16
f 53/20/9 55/19/18 46/413/411
f 40/414/2 54/21/19 53/20/9
f 45/22/20 46/408/411 55/19/18
f 56/409/4 53/415/9 46/408/411
f 57/23/21 55/19/18 54/405/19
f 58/3/3 59/5/5 5/1/22
f 74/405/19 72/26/14 77/23/21
f 62/24/8 72/26/14 63/6/6
f 70/11/11 68/416/410 71/407/12
f 65/22/20 64/7/7 6/27/24
f 62/24/8 64/7/7 65/22/20
f 65/22/20 6/27/24 66/408/412
f 76/409/4 67/13/13 59/14/5
f 66/408/412 67/13/13 76/409/4
f 66/408/412 6/27/24 67/13/13
f 58/3/3 73/9/9 76/4/4
f 59/5/5 71/418/12 313/25/10
f 313/25/10 71/418/12 68/411/410
f 94/405/19 7/1/1 81/33/33
f 6/27/24 70/11/11 67/13/13
f 69/17/16 61/16/15 68/411/410
f 61/16/15 5/1/22 313/25/10
f 61/16/15 313/25/10 68/411/410
f 70/11/11 63/6/6 69/419/16
f 63/6/6 72/26/14 69/419/16
f 73/20/9 75/19/18 66/413/412
f 60/414/2 74/21/19 73/20/9
f 65/22/20 66/408/412 75/19/18
f 76/409/4 73/415/9 66/408/412
f 77/23/21 75/19/18 74/405/19
f 78/3/3 79/5/25 7/1/1
f 94/405/19 92/32/32 97/23/21
f 82/8/8 92/32/32 83/28/26
f 91/420/30 87/41/413 90/421/31
f 85/22/20 84/7/27 8/18/35
f 82/8/8 84/7/27 85/22/20
f 85/22/20 8/18/35 86/408/411
f 96/422/4 87/41/413 79/14/25
f 86/408/411 87/41/413 96/422/4
f 86/408/411 8/18/35 87/41/413
f 78/3/3 93/9/9 96/4/4
f 79/5/25 91/423/30 314/10/28
f 88/29/29 90/31/31 89/35/34
f 8/18/35 90/421/31 87/41/413
f 8/18/35 89/35/34 90/421/31
f 88/34/29 314/10/28 91/423/30
f 81/33/33 7/1/1 314/10/28
f 114/405/19 9/1/1 101/16/38
f 89/35/34 83/28/26 88/29/29
f 83/28/26 92/32/32 88/29/29
f 93/20/9 95/19/18 86/424/411
f 80/414/2 94/21/19 93/20/9
f 85/22/20 86/408/411 95/19/18
f 96/422/4 93/415/9 86/408/411
f 97/23/21 95/19/18 94/405/19
f 98/3/3 99/36/5 9/1/1
f 114/405/19 112/32/14 117/23/21
f 102/8/8 112/32/14 103/6/6
f 110/37/11 108/416/410 111/407/37
f 105/22/20 104/7/36 10/18/23
f 102/8/8 104/7/36 105/22/20
f 105/22/20 10/18/23 106/408/411
f 116/409/4 107/13/13 99/14/5
f 106/408/411 107/13/13 116/409/4
f 106/408/411 10/18/23 107/13/13
f 98/3/3 113/9/9 116/4/4
f 99/36/5 111/410/37 315/10/10
f 315/10/10 111/410/37 108/411/410
f 134/405/19 11/39/1 121/16/15
f 10/18/23 110/37/11 107/13/13
f 109/17/39 101/16/38 108/411/410
f 101/16/38 9/1/1 315/10/10
f 101/16/38 315/10/10 108/411/410
f 110/37/11 103/6/6 109/417/39
f 103/6/6 112/32/14 109/417/39
f 113/20/9 115/19/18 106/413/411
f 100/414/2 114/21/19 113/20/9
f 105/22/20 106/408/411 115/19/18
f 116/409/4 113/415/9 106/408/411
f 117/23/21 115/19/18 114/405/19
f 118/3/3 119/36/5 11/39/1
f 134/405/19 132/42/14 137/23/21
f 122/8/8 132/42/14 123/6/6
f 130/37/11 128/416/410 131/407/37
f 125/22/20 124/40/36 12/18/23
f 122/8/8 124/40/36 125/22/20
f 125/22/20 12/18/23 126/408/412
f 136/409/4 127/41/13 119/14/5
f 126/408/412 127/41/13 136/409/4
f 126/408/412 12/18/23 127/41/13
f 118/3/3 133/9/9 136/4/4
f 119/36/5 131/410/37 316/10/10
f 316/10/10 131/410/37 128/411/410
f 153/405/47 13/39/1 141/48/45
f 12/18/23 130/37/11 127/41/13
f 129/43/39 121/16/15 128/411/410
f 121/16/15 11/39/1 316/10/10
f 121/16/15 316/10/10 128/411/410
f 130/37/11 123/6/6 129/417/39
f 123/6/6 132/42/14 129/417/39
f 133/20/9 135/19/18 126/425/412
f 120/414/2 134/21/19 133/20/9
f 125/22/20 126/408/412 135/19/18
f 136/409/4 133/415/9 126/408/412
f 137/23/21 135/19/18 134/405/19
f 138/3/3 139/5/25 13/39/1
f 153/405/47 151/44/40 156/23/43
f 150/420/30 146/41/413 149/426/31
f 144/51/20 143/45/41 14/49/35
f 142/8/42 143/45/41 144/51/20
f 144/51/20 14/49/35 145/427/412
f 155/409/4 146/41/413 139/14/25
f 145/427/412 146/41/413 155/409/4
f 145/427/412 14/49/35 146/41/413
f 138/3/3 152/9/9 155/4/4
f 139/5/25 150/423/30 317/10/28
f 147/29/44 149/47/31 148/35/46
f 14/49/35 149/426/31 146/41/413
f 14/49/35 148/35/46 149/426/31
f 147/34/44 317/10/28 150/423/30
f 141/48/45 13/39/1 317/10/28
f 161/428/66 174/70/64 162/68/62
f 148/35/46 151/44/40 147/29/44
f 152/50/9 154/19/18 145/413/412
f 140/414/2 153/21/47 152/50/9
f 144/51/20 145/427/412 154/19/18
f 155/409/4 152/415/9 145/427/412
f 156/23/43 154/19/18 153/405/47
f 177/429/414 157/52/48 158/54/50
f 161/428/66 162/68/62 160/56/52
f 178/182/415 165/59/55 174/70/64
f 160/56/52 162/68/62 159/53/49
f 165/59/55 163/58/54 166/69/63
f 163/58/54 167/75/67 166/69/63
f 166/69/63 168/430/416 318/108/417
f 158/375/50 168/430/416 177/431/414
f 318/108/417 172/420/60 173/432/58
f 177/429/414 176/55/51 157/52/48
f 169/67/61 172/433/60 319/60/56
f 319/60/56 172/433/60 158/54/50
f 318/108/417 173/432/58 166/69/63
f 182/77/69 185/434/418 186/95/81
f 174/70/64 170/66/59 162/68/62
f 165/59/55 171/61/57 170/63/59
f 173/432/58 171/61/57 166/69/63
f 177/435/414 175/71/65 176/74/51
f 164/57/53 175/71/65 163/58/54
f 167/75/67 175/436/65 168/430/416
f 168/430/416 175/436/65 177/431/414
f 176/55/51 161/428/66 160/56/52
f 161/428/66 164/57/53 178/182/415
f 200/86/78 180/76/68 181/78/50
f 184/81/72 186/95/81 185/434/418
f 184/81/72 198/83/74 186/95/81
f 15/82/73 189/85/77 198/83/74
f 189/85/77 187/58/76 190/96/63
f 187/58/76 191/75/83 190/96/63
f 190/96/63 192/430/416 320/108/419
f 181/375/50 192/430/416 200/431/78
f 320/108/419 196/420/60 197/437/80
f 200/86/78 179/79/70 180/76/68
f 193/94/61 196/438/60 321/87/79
f 321/87/79 196/438/60 181/78/50
f 320/108/419 197/437/80 190/96/63
f 324/439/101 218/118/99 206/117/98
f 198/83/74 194/93/59 186/95/81
f 189/85/77 195/88/57 194/90/59
f 197/437/80 195/88/57 190/96/63
f 200/440/78 199/71/82 183/97/71
f 199/71/82 188/84/75 15/82/73
f 188/84/75 199/71/82 187/58/76
f 191/75/83 199/436/82 192/430/416
f 192/430/416 199/436/82 200/431/78
f 185/434/418 15/82/73 184/81/72
f 185/434/418 183/80/71 15/82/73
f 219/441/420 202/99/84 203/101/86
f 204/100/85 324/439/101 206/117/98
f 222/442/421 208/106/91 218/118/99
f 208/106/91 210/105/90 209/109/94
f 203/375/86 211/110/95 219/443/420
f 212/107/92 209/109/94 210/105/90
f 201/102/87 219/441/420 205/103/88
f 322/108/93 216/420/60 217/437/96
f 213/116/61 216/438/60 323/111/56
f 323/111/56 216/438/60 203/101/86
f 322/108/93 217/437/96 209/109/94
f 205/119/88 221/444/102 220/120/100
f 218/118/99 214/66/97 206/117/98
f 208/106/91 215/112/57 214/114/97
f 217/437/96 215/112/57 209/109/94
f 226/122/104 224/129/107 223/123/105
f 207/104/89 220/120/100 210/105/90
f 222/442/421 220/120/100 207/104/89
f 220/120/100 221/121/102 210/105/90
f 212/107/92 221/121/102 211/110/95
f 221/121/102 219/443/420 211/110/95
f 222/442/421 324/439/101 220/120/100
f 327/439/109 240/135/99 228/68/98
f 241/445/422 224/129/107 225/130/108
f 226/122/104 327/439/109 228/68/98
f 244/442/421 230/126/91 240/135/99
f 230/126/91 232/125/90 231/128/94
f 225/446/108 233/110/106 241/447/422
f 234/107/92 231/128/94 232/125/90
f 325/127/93 238/420/60 239/448/80
f 224/129/107 241/445/422 227/103/103
f 235/116/61 238/449/60 326/111/56
f 326/111/56 238/449/60 225/130/108
f 325/127/93 239/448/80 231/128/94
f 227/136/103 243/444/102 242/120/100
f 240/135/99 236/134/97 228/68/98
f 230/126/91 237/131/57 236/90/97
f 239/448/80 237/131/57 231/128/94
f 248/138/111 246/159/423 245/139/112
f 229/124/89 242/120/100 232/125/90
f 244/442/421 242/120/100 229/124/89
f 242/120/100 243/121/102 232/125/90
f 234/107/92 243/121/102 233/110/106
f 243/121/102 241/447/422 233/110/106
f 244/442/421 327/439/109 242/120/100
f 16/140/114 254/143/118 264/70/115
f 265/450/126 246/159/423 247/54/122
f 250/81/113 251/147/125 249/137/110
f 250/81/113 264/70/115 251/147/125
f 249/137/110 251/147/125 248/138/111
f 254/143/118 252/142/117 255/144/120
f 252/142/117 256/149/127 255/144/120
f 247/375/122 257/110/121 265/148/126
f 258/107/119 255/144/120 256/149/127
f 328/127/93 262/420/60 263/437/124
f 246/159/423 266/451/424 245/139/112
f 246/159/423 265/450/126 266/451/424
f 245/139/112 266/451/424 249/137/110
f 259/94/61 262/438/60 329/60/79
f 329/60/79 262/438/60 247/54/122
f 328/127/93 263/437/124 255/144/120
f 256/149/127 266/452/424 265/453/126
f 264/70/115 260/146/97 251/147/125
f 254/143/118 261/61/123 260/145/97
f 263/437/124 261/61/123 255/144/120
f 270/151/129 268/159/139 267/152/130
f 266/452/424 252/142/117 16/170/114
f 16/140/114 252/142/117 253/141/116
f 258/107/119 256/149/127 257/110/121
f 249/137/110 16/140/114 250/81/113
f 249/137/110 266/451/424 16/140/114
f 272/454/425 284/70/142 273/166/141
f 287/160/136 268/159/139 269/101/137
f 270/151/129 272/454/425 273/166/141
f 17/455/144 275/154/133 284/70/142
f 275/154/133 277/125/132 276/155/94
f 330/127/135 282/420/60 283/437/58
f 278/107/134 276/155/94 277/125/132
f 268/159/139 285/158/138 267/152/130
f 267/152/130 285/158/138 271/150/128
f 279/116/61 282/456/60 331/161/140
f 331/161/140 282/456/60 269/101/137
f 330/127/135 283/437/58 276/155/94
f 291/171/146 289/159/426 288/139/147
f 284/70/142 280/165/97 273/166/141
f 275/154/133 281/162/57 280/145/97
f 283/437/58 281/162/57 276/155/94
f 285/167/138 274/153/131 17/170/144
f 274/153/131 286/121/143 277/125/132
f 278/107/134 286/121/143 287/156/136
f 286/121/143 285/457/138 287/156/136
f 271/150/128 17/455/144 272/454/425
f 293/458/155 305/178/64 294/68/62
f 306/459/158 289/159/426 290/101/151
f 293/458/155 294/68/62 292/56/145
f 310/182/156 296/173/150 305/178/64
f 292/56/145 294/68/62 291/171/146
f 296/173/150 308/172/149 297/177/152
f 308/172/149 298/183/157 297/177/152
f 297/177/152 299/430/427 332/127/417
f 290/375/151 299/430/427 306/185/158
f 332/127/417 303/420/60 304/437/58
f 289/159/426 309/460/153 288/139/147
f 289/159/426 306/459/158 309/460/153
f 288/139/147 309/460/153 292/56/145
f 300/116/61 303/449/60 333/174/56
f 333/174/56 303/449/60 290/101/151
f 332/127/417 304/437/58 297/177/152
f 340/191/164 343/199/170 334/189/162
f 305/178/64 301/66/97 294/68/62
f 296/173/150 302/61/57 301/145/97
f 304/437/58 302/61/57 297/177/152
f 306/461/158 308/172/149 309/179/153
f 295/141/148 307/180/154 308/172/149
f 298/183/157 306/185/158 299/430/427
f 309/460/153 293/458/155 292/56/145
f 293/458/155 307/180/154 310/182/156
f 341/195/161 342/197/160 343/199/170
f 345/462/186 334/463/162 346/464/175
f 343/199/170 392/198/169 334/189/162
f 345/218/186 359/203/174 364/219/183
f 348/465/167 359/203/174 349/466/165
f 352/467/185 350/193/166 335/207/178
f 342/187/160 351/468/184 353/469/428
f 348/194/167 350/193/166 347/470/182
f 351/468/184 335/471/178 353/469/428
f 355/205/176 393/472/173 356/473/177
f 341/188/161 360/474/168 336/186/159
f 342/197/160 358/475/171 392/198/169
f 392/476/169 358/477/171 354/478/429
f 358/200/171 353/469/428 357/201/172
f 393/479/173 354/478/429 358/477/171
f 356/480/177 393/202/173 357/201/172
f 335/471/178 357/201/172 353/469/428
f 335/207/178 356/206/177 357/481/172
f 360/212/168 361/210/181 363/209/180
f 355/205/176 346/204/175 354/482/429
f 346/464/175 334/463/162 392/476/169
f 346/464/175 392/476/169 354/478/429
f 356/206/177 349/192/165 355/483/176
f 349/466/165 359/203/174 355/205/176
f 344/484/163 361/220/181 340/485/164
f 347/214/182 352/217/185 363/209/180
f 347/214/182 363/209/180 362/208/179
f 364/486/183 362/208/179 361/210/181
f 368/239/205 366/487/201 365/223/189
f 337/488/188 371/489/217 372/251/212
f 365/223/189 337/222/188 368/239/205
f 337/222/188 395/237/203 368/239/205
f 390/490/202 366/487/201 367/238/204
f 370/224/190 372/251/212 371/489/217
f 370/224/190 385/226/192 372/251/212
f 376/254/213 377/491/215 338/492/198
f 375/229/195 373/228/194 376/254/213
f 391/493/191 375/229/195 385/256/192
f 367/494/204 378/233/199 390/495/202
f 379/230/196 338/232/198 377/496/215
f 394/231/197 383/497/210 384/498/209
f 366/235/201 389/261/216 365/499/189
f 366/235/201 386/234/200 389/261/216
f 365/223/189 389/500/216 369/221/187
f 380/249/211 383/247/210 395/237/203
f 395/237/203 383/247/210 367/238/204
f 381/242/208 396/241/207 380/250/211
f 394/231/197 384/498/209 338/232/198
f 376/254/213 384/501/209 382/253/206
f 385/226/192 381/242/208 372/251/212
f 375/229/195 382/253/206 381/255/208
f 387/502/430 386/234/200 388/258/214
f 391/266/191 387/502/430 374/503/193
f 389/261/216 387/502/430 339/265/218
f 374/503/193 387/502/430 373/257/194
f 433/405/237 397/1/219 420/16/232
f 387/502/430 388/258/214 373/257/194
f 379/504/196 388/258/214 378/260/199
f 377/259/215 388/258/214 379/504/196
f 371/262/217 339/265/218 370/505/190
f 371/262/217 389/261/216 339/265/218
f 417/267/221 418/5/223 397/1/219
f 433/405/237 432/15/231 436/23/239
f 422/8/226 432/15/231 423/6/224
f 426/277/241 424/7/225 398/18/234
f 418/14/223 425/275/240 427/13/431
f 422/8/226 424/7/225 421/274/238
f 425/275/240 398/18/234 427/13/431
f 431/420/229 427/13/431 430/506/230
f 418/5/223 431/423/229 710/10/227
f 428/269/228 430/31/230 429/35/233
f 398/18/234 430/506/230 427/13/431
f 398/18/234 429/35/233 430/506/230
f 428/34/228 710/10/227 431/423/229
f 420/16/232 397/1/219 710/10/227
f 435/271/236 419/414/220 433/21/237
f 429/35/233 423/6/224 428/269/228
f 423/6/224 432/15/231 428/269/228
f 452/405/258 400/1/242 440/16/254
f 421/274/238 426/277/241 435/276/236
f 421/274/238 435/276/236 434/270/235
f 436/23/239 434/270/235 433/405/237
f 437/3/244 438/5/246 400/1/242
f 452/405/258 450/279/247 455/23/250
f 449/420/253 445/41/432 448/506/230
f 443/22/259 442/7/248 401/281/256
f 441/24/249 442/7/248 443/22/259
f 443/22/259 401/281/256 444/408/433
f 454/409/245 445/41/432 438/14/246
f 444/408/433 445/41/432 454/409/245
f 444/408/433 401/281/256 445/41/432
f 437/3/244 451/9/251 454/4/245
f 438/5/246 449/507/253 711/10/227
f 446/269/252 448/280/230 447/35/255
f 401/281/256 448/506/230 445/41/432
f 401/281/256 447/35/255 448/506/230
f 446/34/252 711/10/227 449/507/253
f 440/16/254 400/1/242 711/10/227
f 471/405/258 402/1/242 459/33/265
f 447/35/255 450/279/247 446/269/252
f 34/405/19 1/1/1 21/16/15
f 451/20/251 453/19/257 444/424/433
f 439/414/243 452/21/258 451/20/251
f 443/22/259 444/408/433 453/19/257
f 454/409/245 451/415/251 444/408/433
f 455/23/250 453/19/257 452/405/258
f 456/3/244 457/5/246 402/1/242
f 471/405/258 469/282/247 474/23/250
f 468/420/229 464/13/432 467/506/230
f 462/22/259 461/283/261 403/18/256
f 460/24/262 461/283/261 462/22/259
f 462/22/259 403/18/256 463/408/433
f 473/409/260 464/13/432 457/14/246
f 463/408/433 464/13/432 473/409/260
f 463/408/433 403/18/256 464/13/432
f 456/3/244 470/9/263 473/4/260
f 457/5/246 468/423/229 712/25/227
f 465/284/264 467/280/230 466/35/266
f 403/18/256 467/506/230 464/13/432
f 403/18/256 466/35/266 467/506/230
f 465/34/264 712/25/227 468/423/229
f 459/33/265 402/1/242 712/25/227
f 491/405/272 404/1/267 478/33/232
f 466/35/266 469/282/247 465/284/264
f 470/20/263 472/19/257 463/424/433
f 458/414/243 471/21/258 470/20/263
f 462/22/259 463/408/433 472/19/257
f 473/409/260 470/415/263 463/408/433
f 474/23/250 472/19/257 471/405/258
f 475/3/244 476/285/246 404/1/267
f 491/405/272 489/288/270 494/23/273
f 479/24/269 489/288/270 480/6/224
f 488/420/229 484/41/432 487/506/230
f 482/22/259 481/286/268 405/289/256
f 479/24/269 481/286/268 482/22/259
f 482/22/259 405/289/256 483/408/433
f 493/409/245 484/41/432 476/508/246
f 483/408/433 484/41/432 493/409/245
f 483/408/433 405/289/256 484/41/432
f 475/3/244 490/9/251 493/4/245
f 476/285/246 488/509/229 713/10/227
f 485/269/228 487/31/230 486/35/271
f 405/289/256 487/506/230 484/41/432
f 405/289/256 486/35/271 487/506/230
f 485/34/228 713/10/227 488/509/229
f 478/33/232 404/1/267 713/10/227
f 498/298/290 406/290/274 499/16/283
f 486/35/271 480/6/224 485/269/228
f 480/6/224 489/288/270 485/269/228
f 490/20/251 492/19/257 483/425/433
f 477/414/243 491/21/272 490/20/251
f 482/22/259 483/408/433 492/19/257
f 493/409/245 490/415/251 483/408/433
f 494/23/273 492/19/257 491/405/272
f 495/267/276 496/5/278 406/290/274
f 498/298/290 510/292/279 514/293/282
f 504/277/289 502/7/280 407/281/234
f 496/510/278 503/275/288 505/13/431
f 501/24/281 502/7/280 500/274/287
f 503/275/288 407/281/234 505/13/431
f 509/420/229 505/13/431 508/421/230
f 497/291/275 511/299/284 495/267/276
f 496/5/278 509/511/229 714/25/227
f 506/284/264 508/280/230 507/35/255
f 407/281/234 508/421/230 505/13/431
f 407/281/234 507/35/255 508/421/230
f 506/34/264 714/25/227 509/511/229
f 499/16/283 406/290/274 714/25/227
f 518/298/295 409/300/274 519/33/293
f 507/35/255 510/292/279 506/284/264
f 511/294/284 513/295/286 495/273/276
f 500/274/287 504/277/289 513/297/286
f 500/274/287 513/297/286 512/19/285
f 514/293/282 512/19/285 511/299/284
f 498/298/290 511/299/284 497/291/275
f 515/267/276 516/5/278 409/300/274
f 518/298/295 531/42/292 535/23/294
f 521/8/291 531/42/292 522/6/224
f 525/277/289 523/286/225 410/304/234
f 516/14/278 524/275/288 526/13/431
f 521/8/291 523/286/225 520/274/287
f 524/275/288 410/304/234 526/13/431
f 530/420/229 526/13/431 529/421/230
f 517/301/275 532/299/284 515/267/276
f 516/5/278 530/423/229 715/302/227
f 527/269/228 529/31/230 528/35/271
f 410/304/234 529/421/230 526/13/431
f 410/304/234 528/35/271 529/421/230
f 527/303/228 715/302/227 530/423/229
f 519/33/293 409/300/274 715/302/227
f 539/298/290 412/1/296 540/310/283
f 528/35/271 522/6/224 527/269/228
f 522/6/224 531/42/292 527/269/228
f 532/305/284 534/295/286 515/273/276
f 520/274/287 525/277/289 534/297/286
f 520/274/287 534/297/286 533/306/285
f 535/23/294 533/306/285 532/299/284
f 518/298/295 532/299/284 517/301/275
f 536/267/276 537/36/223 412/1/296
f 539/298/290 551/307/279 555/23/298
f 545/277/303 543/308/280 413/281/234
f 537/14/223 544/275/302 546/13/431
f 542/309/297 543/308/280 541/274/300
f 544/275/302 413/281/234 546/13/431
f 550/420/253 546/13/431 549/506/230
f 538/301/275 552/313/304 536/267/276
f 537/36/223 550/423/253 716/10/227
f 547/284/264 549/280/230 548/35/255
f 413/281/234 549/506/230 546/13/431
f 413/281/234 548/35/255 549/506/230
f 547/34/264 716/10/227 550/423/253
f 540/310/283 412/1/296 716/10/227
f 719/439/326 573/325/324 561/324/323
f 548/35/255 551/307/279 547/284/264
f 552/294/304 553/270/301 554/311/299
f 552/294/304 554/311/299 536/273/276
f 541/274/300 545/277/303 554/312/299
f 541/274/300 554/312/299 553/270/301
f 555/23/298 553/270/301 552/313/304
f 539/298/290 552/313/304 538/301/275
f 574/445/434 557/314/305 558/130/307
f 559/315/306 719/439/326 561/324/323
f 577/512/435 563/317/312 573/325/324
f 563/317/312 565/105/311 564/319/315
f 558/375/307 566/110/316 574/447/434
f 567/107/313 564/319/315 565/105/311
f 556/79/308 574/445/434 560/80/309
f 717/318/314 571/420/321 572/437/319
f 568/323/322 571/433/321 718/111/317
f 718/111/317 571/433/321 558/130/307
f 717/318/314 572/437/319 564/319/315
f 560/326/309 576/444/327 575/327/325
f 573/325/324 569/322/320 561/324/323
f 563/317/312 570/61/318 569/320/320
f 572/437/319 570/61/318 564/319/315
f 582/458/340 595/337/338 583/336/337
f 562/316/310 575/327/325 565/105/311
f 577/512/435 575/327/325 562/316/310
f 575/327/325 576/121/327 565/105/311
f 567/107/313 576/121/327 566/110/316
f 576/121/327 574/447/434 566/110/316
f 577/512/435 719/439/326 575/327/325
f 596/441/436 578/328/328 579/330/307
f 582/458/340 583/336/337 581/331/331
f 600/513/437 585/332/333 595/337/338
f 581/331/331 583/336/337 580/329/329
f 585/332/333 587/125/311 586/333/334
f 579/514/307 588/110/316 596/443/436
f 589/107/313 586/333/334 587/125/311
f 720/127/314 593/420/335 594/432/319
f 578/328/328 596/441/436 599/55/330
f 590/94/336 593/438/335 721/174/317
f 721/174/317 593/438/335 579/330/307
f 720/127/314 594/432/319 586/333/334
f 599/338/330 598/444/341 597/339/339
f 595/337/338 591/335/320 583/336/337
f 585/332/333 592/334/318 591/145/320
f 594/432/319 592/334/318 586/333/334
f 604/340/343 602/159/438 601/341/344
f 584/104/332 597/339/339 587/125/311
f 600/513/437 597/339/339 584/104/332
f 597/339/339 598/121/341 587/125/311
f 589/107/313 598/121/341 588/110/316
f 598/121/341 596/443/436 588/110/316
f 599/55/330 582/458/340 581/331/331
f 582/458/340 597/339/339 600/513/437
f 606/428/354 618/352/338 607/350/337
f 619/515/357 602/159/438 603/101/348
f 606/428/354 607/350/337 605/56/342
f 623/182/355 609/342/347 618/352/338
f 605/56/342 607/350/337 604/340/343
f 609/342/347 621/172/346 610/351/351
f 621/172/346 611/183/356 610/351/351
f 610/351/351 612/516/439 722/127/440
f 603/517/348 612/516/439 619/185/357
f 722/127/440 616/420/350 617/437/319
f 602/159/438 622/451/352 601/341/344
f 602/159/438 619/515/357 622/451/352
f 601/341/344 622/451/352 605/56/342
f 613/349/336 616/518/350 723/343/317
f 723/343/317 616/518/350 603/101/348
f 722/127/440 617/437/319 610/351/351
f 627/356/359 625/361/361 624/123/360
f 618/352/338 614/348/320 607/350/337
f 609/342/347 615/344/349 614/345/320
f 617/437/319 615/344/349 610/351/351
f 619/519/357 621/172/346 622/353/352
f 608/141/345 620/354/353 621/172/346
f 611/183/356 619/185/357 612/516/439
f 622/451/352 606/428/354 605/56/342
f 606/428/354 620/354/353 623/182/355
f 726/439/365 641/369/324 629/368/364
f 642/445/441 625/361/361 626/362/362
f 627/356/359 726/439/365 629/368/364
f 645/442/435 631/358/312 641/369/324
f 631/358/312 633/105/311 632/360/334
f 626/520/362 634/110/316 642/447/441
f 635/107/313 632/360/334 633/105/311
f 724/359/314 639/420/335 640/521/319
f 625/361/361 642/445/441 628/80/358
f 636/367/363 639/522/335 725/87/317
f 725/87/317 639/522/335 626/362/362
f 724/359/314 640/521/319 632/360/334
f 628/74/358 644/168/327 643/339/325
f 641/369/324 637/366/320 629/368/364
f 631/358/312 638/363/318 637/320/320
f 640/521/319 638/363/318 632/360/334
f 649/370/367 647/159/377 646/152/368
f 630/357/310 643/339/325 633/105/311
f 645/442/435 643/339/325 630/357/310
f 643/339/325 644/121/327 633/105/311
f 635/107/313 644/121/327 634/110/316
f 644/121/327 642/447/441 634/110/316
f 645/442/435 726/439/365 643/339/325
f 651/454/442 663/380/379 652/166/378
f 666/160/374 647/159/377 648/54/375
f 649/370/367 651/454/442 652/166/378
f 415/523/381 654/372/371 663/380/379
f 654/372/371 656/125/370 655/374/315
f 727/373/373 661/420/350 662/524/319
f 657/107/372 655/374/315 656/125/370
f 647/159/377 664/158/376 646/152/368
f 646/152/368 664/158/376 650/150/366
f 658/379/336 661/456/350 728/161/317
f 728/161/317 661/456/350 648/54/375
f 727/373/373 662/524/319 655/374/315
f 416/82/388 674/390/392 683/118/389
f 663/380/379 659/378/320 652/166/378
f 654/372/371 660/344/318 659/114/320
f 662/524/319 660/344/318 655/374/315
f 664/381/376 653/371/369 415/382/381
f 653/371/369 665/383/380 656/125/370
f 657/107/372 665/383/380 666/156/374
f 665/383/380 664/525/376 666/156/374
f 650/150/366 415/523/381 651/454/442
f 686/429/443 667/384/382 668/386/384
f 671/81/387 672/394/394 670/388/386
f 671/81/387 683/118/389 672/394/394
f 670/388/386 672/394/394 669/385/383
f 674/390/392 684/389/391 675/395/395
f 684/389/391 676/75/444 675/395/395
f 675/395/395 677/526/445 729/318/446
f 668/527/384 677/526/445 686/431/443
f 729/318/446 681/420/321 682/437/319
f 686/429/443 685/387/385 667/384/382
f 678/116/336 681/528/321 730/391/317
f 730/391/317 681/528/321 668/386/384
f 729/318/446 682/437/319 675/395/395
f 690/396/397 688/361/403 687/397/398
f 683/118/389 679/393/320 672/394/394
f 674/390/392 680/61/393 679/145/320
f 682/437/319 680/61/393 675/395/395
f 685/529/385 677/530/445 684/389/391
f 686/435/443 677/530/445 685/529/385
f 685/529/385 684/389/391 416/98/388
f 416/82/388 684/389/391 673/141/390
f 676/75/444 684/531/391 677/526/445
f 670/388/386 416/82/388 671/81/387
f 670/388/386 685/387/385 416/82/388
f 692/428/408 705/402/338 693/68/337
f 706/532/406 688/361/403 689/130/404
f 692/428/408 693/68/337 691/56/396
f 709/182/447 696/154/401 705/402/338
f 691/56/396 693/68/337 690/396/397
f 696/154/401 694/58/400 697/401/405
f 694/58/400 698/75/409 697/401/405
f 697/401/405 699/430/448 731/127/449
f 689/446/404 699/430/448 706/533/406
f 731/127/449 703/420/335 704/432/319
f 688/361/403 706/532/406 708/398/402
f 700/116/322 703/456/335 732/60/317
f 732/60/317 703/456/335 689/130/404
f 731/127/449 704/432/319 697/401/405
f 705/402/338 701/165/320 693/68/337
f 696/154/401 702/399/318 701/145/320
f 704/432/319 702/399/318 697/401/405
f 695/124/399 707/534/407 694/58/400
f 709/182/447 707/534/407 695/124/399
f 698/75/409 706/533/406 699/430/448
f 698/75/409 707/535/407 706/533/406
f 708/398/402 692/428/408 691/56/396
f 692/428/408 707/534/407 709/182/447
f 34/405/19 21/16/15 32/15/14
f 22/8/8 37/23/21 32/15/14
f 30/11/11 29/412/16 28/406/410
f 54/405/19 40/2/2 3/1/22
f 54/405/19 41/16/15 52/15/14
f 42/8/8 57/23/21 52/15/14
f 50/11/11 49/417/16 48/416/410
f 74/405/19 60/2/2 5/1/22
f 74/405/19 61/16/15 72/26/14
f 62/24/8 77/23/21 72/26/14
f 70/11/11 69/419/16 68/416/410
f 94/405/19 80/2/2 7/1/1
f 94/405/19 81/33/33 92/32/32
f 82/8/8 97/23/21 92/32/32
f 91/420/30 79/14/25 87/41/413
f 88/34/29 81/33/33 314/10/28
f 114/405/19 100/2/2 9/1/1
f 114/405/19 101/16/38 112/32/14
f 102/8/8 117/23/21 112/32/14
f 110/37/11 109/417/39 108/416/410
f 134/405/19 120/2/2 11/39/1
f 134/405/19 121/16/15 132/42/14
f 122/8/8 137/23/21 132/42/14
f 130/37/11 129/417/39 128/416/410
f 153/405/47 140/2/2 13/39/1
f 153/405/47 141/48/45 151/44/40
f 150/420/30 139/14/25 146/41/413
f 147/34/44 141/48/45 317/10/28
f 161/428/66 178/182/415 174/70/64
f 178/182/415 164/57/53 165/59/55
f 166/69/63 167/75/67 168/430/416
f 158/375/50 318/108/417 168/430/416
f 318/108/417 158/375/50 172/420/60
f 182/77/69 183/80/71 185/434/418
f 15/82/73 188/84/75 189/85/77
f 190/96/63 191/75/83 192/430/416
f 181/375/50 320/108/419 192/430/416
f 320/108/419 181/375/50 196/420/60
f 324/439/101 222/442/421 218/118/99
f 204/100/85 205/103/88 324/439/101
f 222/442/421 207/104/89 208/106/91
f 203/375/86 322/108/93 211/110/95
f 201/102/87 202/99/84 219/441/420
f 322/108/93 203/375/86 216/420/60
f 205/119/88 219/536/420 221/444/102
f 226/122/104 225/130/108 224/129/107
f 327/439/109 244/442/421 240/135/99
f 226/122/104 227/103/103 327/439/109
f 244/442/421 229/124/89 230/126/91
f 225/446/108 325/127/93 233/110/106
f 325/127/93 225/446/108 238/420/60
f 227/136/103 241/537/422 243/444/102
f 248/138/111 247/54/122 246/159/423
f 16/140/114 253/141/116 254/143/118
f 247/375/122 328/127/93 257/110/121
f 328/127/93 247/375/122 262/420/60
f 256/149/127 252/142/117 266/452/424
f 270/151/129 269/101/137 268/159/139
f 272/454/425 17/455/144 284/70/142
f 270/151/129 271/150/128 272/454/425
f 17/455/144 274/153/131 275/154/133
f 330/127/135 269/157/137 282/420/60
f 291/171/146 290/101/151 289/159/426
f 293/458/155 310/182/156 305/178/64
f 310/182/156 295/141/148 296/173/150
f 297/177/152 298/183/157 299/430/427
f 290/375/151 332/127/417 299/430/427
f 332/127/417 290/375/151 303/420/60
f 340/191/164 341/195/161 343/199/170
f 345/462/186 344/538/163 334/463/162
f 345/218/186 346/204/175 359/203/174
f 348/465/167 364/219/183 359/203/174
f 352/467/185 347/470/182 350/193/166
f 342/187/160 336/186/159 351/468/184
f 351/468/184 352/539/185 335/471/178
f 355/205/176 354/482/429 393/472/173
f 358/200/171 342/187/160 353/469/428
f 360/212/168 340/540/164 361/210/181
f 344/484/163 345/218/186 361/220/181
f 368/239/205 367/238/204 366/487/201
f 337/488/188 369/541/187 371/489/217
f 376/254/213 373/228/194 377/491/215
f 391/493/191 374/227/193 375/229/195
f 367/494/204 394/231/197 378/233/199
f 394/231/197 367/494/204 383/497/210
f 376/254/213 338/492/198 384/501/209
f 387/502/430 389/261/216 386/234/200
f 391/266/191 339/265/218 387/502/430
f 433/405/237 419/2/220 397/1/219
f 433/405/237 420/16/232 432/15/231
f 422/8/226 436/23/239 432/15/231
f 426/277/241 421/274/238 424/7/225
f 418/14/223 399/278/222 425/275/240
f 425/275/240 426/277/241 398/18/234
f 431/420/229 418/14/223 427/13/431
f 428/34/228 420/16/232 710/10/227
f 435/271/236 417/273/221 419/414/220
f 452/405/258 439/2/243 400/1/242
f 452/405/258 440/16/254 450/279/247
f 449/420/253 438/14/246 445/41/432
f 446/34/252 440/16/254 711/10/227
f 471/405/258 458/2/243 402/1/242
f 34/405/19 20/2/2 1/1/1
f 471/405/258 459/33/265 469/282/247
f 468/420/229 457/14/246 464/13/432
f 465/34/264 459/33/265 712/25/227
f 491/405/272 477/2/243 404/1/267
f 491/405/272 478/33/232 489/288/270
f 479/24/269 494/23/273 489/288/270
f 488/420/229 476/508/246 484/41/432
f 485/34/228 478/33/232 713/10/227
f 498/298/290 497/291/275 406/290/274
f 498/298/290 499/16/283 510/292/279
f 504/277/289 500/274/287 502/7/280
f 496/510/278 408/278/277 503/275/288
f 503/275/288 504/277/289 407/281/234
f 509/420/229 496/510/278 505/13/431
f 506/34/264 499/16/283 714/25/227
f 518/298/295 517/301/275 409/300/274
f 518/298/295 519/33/293 531/42/292
f 521/8/291 535/23/294 531/42/292
f 525/277/289 520/274/287 523/286/225
f 516/14/278 411/278/277 524/275/288
f 524/275/288 525/277/289 410/304/234
f 530/420/229 516/14/278 526/13/431
f 527/303/228 519/33/293 715/302/227
f 539/298/290 538/301/275 412/1/296
f 539/298/290 540/310/283 551/307/279
f 545/277/303 541/274/300 543/308/280
f 537/14/223 414/278/277 544/275/302
f 544/275/302 545/277/303 413/281/234
f 550/420/253 537/14/223 546/13/431
f 547/34/264 540/310/283 716/10/227
f 719/439/326 577/512/435 573/325/324
f 559/315/306 560/80/309 719/439/326
f 577/512/435 562/316/310 563/317/312
f 558/375/307 717/318/314 566/110/316
f 556/79/308 557/314/305 574/445/434
f 717/318/314 558/375/307 571/420/321
f 560/326/309 574/542/434 576/444/327
f 582/458/340 600/513/437 595/337/338
f 600/513/437 584/104/332 585/332/333
f 579/514/307 720/127/314 588/110/316
f 720/127/314 579/514/307 593/420/335
f 599/338/330 596/543/436 598/444/341
f 604/340/343 603/101/348 602/159/438
f 606/428/354 623/182/355 618/352/338
f 623/182/355 608/141/345 609/342/347
f 610/351/351 611/183/356 612/516/439
f 603/517/348 722/127/440 612/516/439
f 722/127/440 603/517/348 616/420/350
f 627/356/359 626/362/362 625/361/361
f 726/439/365 645/442/435 641/369/324
f 627/356/359 628/80/358 726/439/365
f 645/442/435 630/357/310 631/358/312
f 626/520/362 724/359/314 634/110/316
f 724/359/314 626/520/362 639/420/335
f 628/74/358 642/542/441 644/168/327
f 649/370/367 648/54/375 647/159/377
f 651/454/442 415/523/381 663/380/379
f 649/370/367 650/150/366 651/454/442
f 415/523/381 653/371/369 654/372/371
f 727/373/373 648/375/375 661/420/350
f 416/82/388 673/141/390 674/390/392
f 675/395/395 676/75/444 677/526/445
f 668/527/384 729/318/446 677/526/445
f 729/318/446 668/527/384 681/420/321
f 690/396/397 689/130/404 688/361/403
f 692/428/408 709/182/447 705/402/338
f 709/182/447 695/124/399 696/154/401
f 697/401/405 698/75/409 699/430/448
f 689/446/404 731/127/449 699/430/448
f 731/127/449 689/446/404 703/420/335
