# Blender 4.1.1
# www.blender.org
mtllib W_moji.mtl
o テキスト
v 0.245000 -0.306000 0.651886
v 0.021000 0.252000 0.651886
v -0.205000 -0.306000 0.651886
v -0.224000 -0.306000 0.651886
v -0.500000 0.382000 0.651886
v -0.402000 0.382000 0.651886
v -0.214000 -0.088000 0.651886
v -0.025000 0.382000 0.651886
v 0.068000 0.382000 0.651886
v 0.258000 -0.088000 0.651886
v 0.444000 0.382000 0.651886
v 0.541000 0.382000 0.651886
v 0.264000 -0.306000 0.651886
v 0.245000 -0.306000 0.251886
v 0.021000 0.252000 0.251886
v -0.205000 -0.306000 0.251886
v -0.224000 -0.306000 0.251886
v -0.500000 0.382000 0.251886
v -0.402000 0.382000 0.251886
v -0.214000 -0.088000 0.251886
v -0.025000 0.382000 0.251886
v 0.068000 0.382000 0.251886
v 0.258000 -0.088000 0.251886
v 0.444000 0.382000 0.251886
v 0.541000 0.382000 0.251886
v 0.264000 -0.306000 0.251886
v 0.245000 -0.306000 0.251886
v 0.234553 -0.321451 0.254333
v 0.225129 -0.335389 0.261435
v 0.217650 -0.346451 0.272497
v 0.212848 -0.353553 0.286435
v 0.211193 -0.356000 0.301886
v 0.211193 -0.356000 0.601886
v 0.212848 -0.353553 0.617337
v 0.217650 -0.346451 0.631275
v 0.225129 -0.335389 0.642337
v 0.234553 -0.321451 0.649439
v 0.245000 -0.306000 0.651886
v 0.021000 0.252000 0.251886
v 0.020936 0.210684 0.254333
v 0.020879 0.173412 0.261435
v 0.020833 0.143833 0.272497
v 0.020804 0.124843 0.286435
v 0.020794 0.118299 0.301886
v 0.020794 0.118299 0.601886
v 0.020804 0.124843 0.617337
v 0.020833 0.143833 0.631275
v 0.020879 0.173412 0.642337
v 0.020936 0.210684 0.649439
v 0.021000 0.252000 0.651886
v -0.205000 -0.306000 0.251886
v -0.194588 -0.321451 0.254333
v -0.185195 -0.335389 0.261435
v -0.177741 -0.346451 0.272497
v -0.172955 -0.353553 0.286435
v -0.171306 -0.356000 0.301886
v -0.171306 -0.356000 0.601886
v -0.172955 -0.353553 0.617337
v -0.177741 -0.346451 0.631275
v -0.185195 -0.335389 0.642337
v -0.194588 -0.321451 0.649439
v -0.205000 -0.306000 0.651886
v -0.224000 -0.306000 0.251886
v -0.234449 -0.321451 0.254333
v -0.243876 -0.335389 0.261435
v -0.251357 -0.346451 0.272497
v -0.256160 -0.353553 0.286435
v -0.257815 -0.356000 0.301886
v -0.257815 -0.356000 0.601886
v -0.256160 -0.353553 0.617337
v -0.251357 -0.346451 0.631275
v -0.243876 -0.335389 0.642337
v -0.234449 -0.321451 0.649439
v -0.224000 -0.306000 0.651886
v -0.500000 0.382000 0.251886
v -0.522846 0.397451 0.254333
v -0.543456 0.411389 0.261435
v -0.559812 0.422451 0.272497
v -0.570313 0.429553 0.286435
v -0.573931 0.432000 0.301886
v -0.573931 0.432000 0.601886
v -0.570313 0.429553 0.617337
v -0.559812 0.422451 0.631275
v -0.543456 0.411389 0.642337
v -0.522846 0.397451 0.649439
v -0.500000 0.382000 0.651886
v -0.402000 0.382000 0.251886
v -0.391539 0.397451 0.254333
v -0.382103 0.411389 0.261435
v -0.374613 0.422451 0.272497
v -0.369805 0.429553 0.286435
v -0.368148 0.432000 0.301886
v -0.368148 0.432000 0.601886
v -0.369805 0.429553 0.617337
v -0.374613 0.422451 0.631275
v -0.382102 0.411389 0.642337
v -0.391539 0.397451 0.649439
v -0.402000 0.382000 0.651886
v -0.214000 -0.088000 0.251886
v -0.213962 -0.046492 0.254333
v -0.213928 -0.009048 0.261435
v -0.213900 0.020668 0.272497
v -0.213883 0.039747 0.286435
v -0.213877 0.046321 0.301886
v -0.213877 0.046321 0.601886
v -0.213883 0.039747 0.617337
v -0.213900 0.020668 0.631275
v -0.213928 -0.009048 0.642337
v -0.213962 -0.046492 0.649439
v -0.214000 -0.088000 0.651886
v -0.025000 0.382000 0.251886
v -0.035440 0.397451 0.254333
v -0.044858 0.411389 0.261435
v -0.052333 0.422451 0.272497
v -0.057131 0.429553 0.286435
v -0.058785 0.432000 0.301886
v -0.058785 0.432000 0.601886
v -0.057131 0.429553 0.617337
v -0.052332 0.422451 0.631275
v -0.044858 0.411389 0.642337
v -0.035440 0.397451 0.649439
v -0.025000 0.382000 0.651886
v 0.068000 0.382000 0.251886
v 0.078420 0.397451 0.254333
v 0.087819 0.411389 0.261435
v 0.095279 0.422451 0.272497
v 0.100068 0.429553 0.286435
v 0.101718 0.432000 0.301886
v 0.101718 0.432000 0.601886
v 0.100068 0.429553 0.617337
v 0.095279 0.422451 0.631275
v 0.087819 0.411389 0.642337
v 0.078420 0.397451 0.649439
v 0.068000 0.382000 0.651886
v 0.258000 -0.088000 0.251886
v 0.257847 -0.046397 0.254333
v 0.257710 -0.008866 0.261435
v 0.257600 0.020918 0.272497
v 0.257530 0.040041 0.286435
v 0.257506 0.046630 0.301886
v 0.257506 0.046630 0.601886
v 0.257530 0.040041 0.617337
v 0.257600 0.020918 0.631275
v 0.257710 -0.008866 0.642337
v 0.257847 -0.046397 0.649439
v 0.258000 -0.088000 0.651886
v 0.444000 0.382000 0.251886
v 0.433498 0.397451 0.254333
v 0.424024 0.411389 0.261435
v 0.416505 0.422451 0.272497
v 0.411678 0.429553 0.286435
v 0.410014 0.432000 0.301886
v 0.410014 0.432000 0.601886
v 0.411678 0.429553 0.617337
v 0.416505 0.422451 0.631275
v 0.424024 0.411389 0.642337
v 0.433498 0.397451 0.649439
v 0.444000 0.382000 0.651886
v 0.541000 0.382000 0.251886
v 0.563877 0.397451 0.254333
v 0.584514 0.411389 0.261435
v 0.600893 0.422451 0.272497
v 0.611408 0.429553 0.286435
v 0.615031 0.432000 0.301886
v 0.615031 0.432000 0.601886
v 0.611408 0.429553 0.617337
v 0.600893 0.422451 0.631275
v 0.584514 0.411389 0.642337
v 0.563877 0.397451 0.649439
v 0.541000 0.382000 0.651886
v 0.264000 -0.306000 0.251886
v 0.274435 -0.321451 0.254333
v 0.283849 -0.335389 0.261435
v 0.291320 -0.346451 0.272497
v 0.296117 -0.353553 0.286435
v 0.297770 -0.356000 0.301886
v 0.297770 -0.356000 0.601886
v 0.296117 -0.353553 0.617337
v 0.291320 -0.346451 0.631275
v 0.283849 -0.335389 0.642337
v 0.274435 -0.321451 0.649439
v 0.264000 -0.306000 0.651886
vn -0.0000 -0.0000 1.0000
vn -0.0000 -0.0000 -1.0000
vn -0.0001 -0.0751 -0.9972
vn -0.0729 -0.1078 -0.9915
vn -0.1723 -0.2548 -0.9515
vn -0.0003 -0.2099 -0.9777
vn -0.3116 -0.4608 -0.8310
vn -0.0006 -0.3937 -0.9192
vn -0.4360 -0.6448 -0.6278
vn -0.0011 -0.6970 -0.7171
vn -0.5264 -0.7786 -0.3416
vn -0.0015 -0.9740 -0.2267
vn -0.5578 -0.8250 -0.0913
vn -0.0015 -0.9740 0.2267
vn -0.5578 -0.8249 0.0913
vn -0.5264 -0.7786 0.3416
vn -0.4360 -0.6448 0.6278
vn -0.0011 -0.6970 0.7171
vn -0.3116 -0.4608 0.8310
vn -0.0006 -0.3937 0.9192
vn -0.1723 -0.2548 0.9515
vn -0.0003 -0.2099 0.9777
vn -0.0729 -0.1078 0.9915
vn -0.0001 -0.0751 0.9972
vn 0.0728 -0.1080 -0.9915
vn -0.0001 -0.0591 -0.9983
vn 0.1720 -0.2552 -0.9515
vn 0.3110 -0.4616 -0.8308
vn 0.4351 -0.6457 -0.6275
vn 0.5253 -0.7794 -0.3414
vn 0.5565 -0.8258 0.0912
vn 0.5253 -0.7794 0.3414
vn 0.4351 -0.6457 0.6275
vn 0.3110 -0.4616 0.8308
vn 0.1720 -0.2552 0.9515
vn 0.0728 -0.1080 0.9915
vn -0.0001 -0.0591 0.9983
vn -0.1723 -0.2547 -0.9515
vn -0.4361 -0.6448 -0.6278
vn 0.5565 -0.8258 -0.0912
vn -0.5265 -0.7785 -0.3417
vn -0.5579 -0.8249 0.0913
vn -0.5265 -0.7785 0.3417
vn -0.4361 -0.6448 0.6278
vn -0.1723 -0.2547 0.9515
vn -0.0732 0.0495 -0.9961
vn -0.1963 0.1328 -0.9715
vn -0.3644 0.2465 -0.8980
vn -0.5569 0.3766 -0.7403
vn -0.5579 -0.8249 -0.0913
vn -0.7441 0.5032 -0.4395
vn -0.8215 0.5556 0.1284
vn -0.7441 0.5032 0.4395
vn -0.5569 0.3766 0.7403
vn -0.3644 0.2465 0.8980
vn -0.1963 0.1328 0.9715
vn -0.0732 0.0495 0.9961
vn 0.1724 0.2546 -0.9516
vn 0.3118 0.4606 -0.8311
vn 0.4363 0.6445 -0.6279
vn 0.5269 0.7782 -0.3417
vn 0.5583 0.8246 -0.0913
vn -0.8215 0.5556 -0.1284
vn 0.5583 0.8246 0.0913
vn 0.5269 0.7782 0.3417
vn 0.4363 0.6445 0.6279
vn 0.3118 0.4606 0.8311
vn 0.1724 0.2546 0.9516
vn 0.0001 0.0746 -0.9972
vn 0.0729 0.1077 -0.9915
vn 0.0002 0.2089 -0.9779
vn 0.0004 0.3920 -0.9200
vn 0.0006 0.6951 -0.7189
vn 0.0009 0.9737 -0.2278
vn 0.0009 0.9737 0.2278
vn 0.0006 0.6951 0.7189
vn 0.0004 0.3920 0.9200
vn 0.0002 0.2089 0.9779
vn 0.0729 0.1077 0.9915
vn 0.0001 0.0746 0.9972
vn -0.0729 0.1078 -0.9915
vn 0.0001 0.0589 -0.9983
vn -0.1722 0.2548 -0.9515
vn -0.3115 0.4610 -0.8309
vn -0.4358 0.6450 -0.6277
vn -0.5262 0.7787 -0.3416
vn -0.5575 0.8251 0.0913
vn -0.5262 0.7787 0.3416
vn -0.4358 0.6450 0.6277
vn -0.3115 0.4610 0.8309
vn -0.1722 0.2548 0.9515
vn -0.0729 0.1078 0.9915
vn 0.0001 0.0589 0.9983
vn 0.1720 0.2551 -0.9515
vn 0.3112 0.4614 -0.8308
vn 0.4353 0.6455 -0.6275
vn 0.5255 0.7793 -0.3415
vn 0.5568 0.8256 -0.0912
vn -0.5575 0.8251 -0.0913
vn 0.5568 0.8256 0.0912
vn 0.5255 0.7793 0.3415
vn 0.4353 0.6455 0.6275
vn 0.3112 0.4614 0.8308
vn 0.1720 0.2551 0.9515
vn -0.0003 0.0744 -0.9972
vn 0.0728 0.1079 -0.9915
vn -0.0008 0.2083 -0.9781
vn -0.0014 0.3912 -0.9203
vn -0.0025 0.6942 -0.7198
vn -0.0036 0.9736 -0.2283
vn -0.0036 0.9736 0.2283
vn -0.0025 0.6942 0.7198
vn -0.0014 0.3912 0.9203
vn -0.0008 0.2083 0.9781
vn 0.0728 0.1079 0.9915
vn -0.0003 0.0744 0.9972
vn -0.0730 0.1074 -0.9915
vn -0.0002 0.0587 -0.9983
vn -0.1727 0.2541 -0.9516
vn -0.3125 0.4597 -0.8313
vn -0.4374 0.6435 -0.6282
vn -0.5282 0.7772 -0.3420
vn -0.5598 0.8236 0.0914
vn -0.5282 0.7772 0.3420
vn -0.4374 0.6435 0.6282
vn -0.3125 0.4597 0.8313
vn -0.1727 0.2541 0.9516
vn -0.0730 0.1074 0.9915
vn -0.0002 0.0587 0.9983
vn 0.0732 0.0494 -0.9961
vn 0.1963 0.1326 -0.9715
vn 0.3643 0.2461 -0.8982
vn 0.5569 0.3761 -0.7405
vn -0.5598 0.8236 -0.0914
vn 0.7443 0.5027 -0.4397
vn 0.8218 0.5551 0.1285
vn 0.7443 0.5027 0.4397
vn 0.5569 0.3761 0.7405
vn 0.3643 0.2461 0.8982
vn 0.1963 0.1326 0.9715
vn 0.0732 0.0494 0.9961
vn 0.1722 -0.2549 -0.9515
vn 0.3114 -0.4611 -0.8309
vn 0.4357 -0.6451 -0.6277
vn 0.5260 -0.7789 -0.3416
vn 0.5574 -0.8252 -0.0913
vn 0.8218 0.5551 -0.1285
vn 0.5574 -0.8252 0.0913
vn 0.5260 -0.7789 0.3416
vn 0.4357 -0.6451 0.6277
vn 0.3114 -0.4611 0.8309
vn 0.1722 -0.2549 0.9515
vn 0.0728 -0.1078 -0.9915
vn 0.0728 -0.1078 0.9915
vt 0.250000 0.000000
vt 0.416667 0.000000
vt 0.333333 0.000000
vt 0.500000 0.000000
vt 0.666667 0.000000
vt 0.583333 0.000000
vt 0.083333 0.000000
vt 0.750000 0.000000
vt 0.916667 0.000000
vt 0.833333 0.000000
vt 1.000000 0.000000
vt 0.166667 0.000000
vt 0.000000 0.000000
vt 0.076923 0.090909
vt 0.000000 0.090909
vt 0.076923 0.181818
vt 0.000000 0.181818
vt 0.076923 0.272727
vt 0.000000 0.272727
vt 0.076923 0.363636
vt 0.000000 0.363636
vt 0.076923 0.454545
vt 0.000000 0.454545
vt 0.076923 0.545455
vt 0.000000 0.545455
vt 0.000000 0.636364
vt 0.000000 0.727273
vt 0.076923 0.636364
vt 0.000000 0.818182
vt 0.076923 0.727273
vt 0.000000 0.909091
vt 0.076923 0.818182
vt 0.000000 1.000000
vt 0.076923 0.909091
vt 0.153846 0.000000
vt 0.076923 0.000000
vt 0.153846 0.090909
vt 0.153846 0.181818
vt 0.153846 0.272727
vt 0.153846 0.363636
vt 0.153846 0.545455
vt 0.153846 0.636364
vt 0.153846 0.727273
vt 0.153846 0.818182
vt 0.153846 0.909091
vt 0.153846 1.000000
vt 0.076923 1.000000
vt 0.230769 0.000000
vt 0.230769 0.090909
vt 0.230769 0.181818
vt 0.230769 0.272727
vt 0.153846 0.454545
vt 0.230769 0.363636
vt 0.230769 0.545455
vt 0.230769 0.636364
vt 0.230769 0.727273
vt 0.230769 0.818182
vt 0.230769 0.909091
vt 0.230769 1.000000
vt 0.307692 0.000000
vt 0.307692 0.090909
vt 0.307692 0.181818
vt 0.307692 0.272727
vt 0.230769 0.454545
vt 0.307692 0.363636
vt 0.307692 0.545455
vt 0.307692 0.636364
vt 0.307692 0.727273
vt 0.307692 0.818182
vt 0.307692 0.909091
vt 0.307692 1.000000
vt 0.384615 0.090909
vt 0.384615 0.181818
vt 0.384615 0.272727
vt 0.384615 0.363636
vt 0.384615 0.454545
vt 0.307692 0.454545
vt 0.384615 0.545455
vt 0.384615 0.636364
vt 0.384615 0.727273
vt 0.384615 0.818182
vt 0.384615 0.909091
vt 0.461538 0.090909
vt 0.384615 0.000000
vt 0.461538 0.181818
vt 0.461538 0.272727
vt 0.461538 0.363636
vt 0.461538 0.454545
vt 0.461538 0.545455
vt 0.461538 0.636364
vt 0.461538 0.727273
vt 0.461538 0.818182
vt 0.384615 1.000000
vt 0.461538 0.909091
vt 0.538462 0.000000
vt 0.461538 0.000000
vt 0.538462 0.090909
vt 0.538462 0.181818
vt 0.538462 0.272727
vt 0.538462 0.363636
vt 0.538462 0.545455
vt 0.538462 0.636364
vt 0.538462 0.727273
vt 0.538462 0.818182
vt 0.538462 0.909091
vt 0.538462 1.000000
vt 0.461538 1.000000
vt 0.615385 0.090909
vt 0.615385 0.181818
vt 0.615385 0.272727
vt 0.615385 0.363636
vt 0.615385 0.454545
vt 0.538462 0.454545
vt 0.615385 0.545455
vt 0.615385 0.636364
vt 0.615385 0.727273
vt 0.615385 0.818182
vt 0.615385 0.909091
vt 0.692308 0.090909
vt 0.615385 0.000000
vt 0.692308 0.181818
vt 0.692308 0.272727
vt 0.692308 0.363636
vt 0.692308 0.454545
vt 0.692308 0.545455
vt 0.692308 0.636364
vt 0.692308 0.727273
vt 0.692308 0.818182
vt 0.615385 1.000000
vt 0.692308 0.909091
vt 0.769231 0.000000
vt 0.692308 0.000000
vt 0.769231 0.090909
vt 0.769231 0.181818
vt 0.769231 0.272727
vt 0.769231 0.363636
vt 0.769231 0.545455
vt 0.769231 0.636364
vt 0.769231 0.727273
vt 0.769231 0.818182
vt 0.769231 0.909091
vt 0.769231 1.000000
vt 0.692308 1.000000
vt 0.846154 0.000000
vt 0.846154 0.090909
vt 0.846154 0.181818
vt 0.846154 0.272727
vt 0.769231 0.454545
vt 0.846154 0.363636
vt 0.846154 0.545455
vt 0.846154 0.636364
vt 0.846154 0.727273
vt 0.846154 0.818182
vt 0.846154 0.909091
vt 0.846154 1.000000
vt 0.923077 0.090909
vt 0.923077 0.181818
vt 0.923077 0.272727
vt 0.923077 0.363636
vt 0.923077 0.454545
vt 0.846154 0.454545
vt 0.923077 0.545455
vt 0.923077 0.636364
vt 0.923077 0.727273
vt 0.923077 0.818182
vt 0.923077 0.909091
vt 0.923077 0.000000
vt 1.000000 0.090909
vt 1.000000 0.181818
vt 1.000000 0.272727
vt 1.000000 0.363636
vt 1.000000 0.545455
vt 1.000000 0.636364
vt 1.000000 0.727273
vt 1.000000 0.818182
vt 1.000000 0.909091
vt 1.000000 1.000000
vt 0.923077 1.000000
vt 1.000000 0.454545
s 0
usemtl マテリアル.001
f 4/1/1 6/2/1 5/3/1
f 4/1/1 7/4/1 6/2/1
f 7/4/1 9/5/1 8/6/1
f 7/4/1 2/7/1 9/5/1
f 2/7/1 10/8/1 9/5/1
f 10/8/1 12/9/1 11/10/1
f 10/8/1 13/11/1 12/9/1
f 7/4/1 3/12/1 2/7/1
f 1/13/1 10/8/1 2/7/1
f 4/1/1 3/12/1 7/4/1
f 1/13/1 13/11/1 10/8/1
f 17/1/2 18/3/2 19/2/2
f 17/1/2 19/2/2 20/4/2
f 20/4/2 21/6/2 22/5/2
f 20/4/2 22/5/2 15/7/2
f 15/7/2 22/5/2 23/8/2
f 23/8/2 24/10/2 25/9/2
f 23/8/2 25/9/2 26/11/2
f 20/4/2 15/7/2 16/12/2
f 14/13/2 15/7/2 23/8/2
f 17/1/2 20/4/2 16/12/2
f 14/13/2 23/8/2 26/11/2
s 1
f 40/14/3 27/13/4 28/15/5
f 41/16/6 28/15/5 29/17/7
f 42/18/8 29/17/7 30/19/9
f 43/20/10 30/19/9 31/21/11
f 44/22/12 31/21/11 32/23/13
f 45/24/14 32/23/13 33/25/15
f 34/26/16 45/24/14 33/25/15
f 35/27/17 46/28/18 34/26/16
f 36/29/19 47/30/20 35/27/17
f 37/31/21 48/32/22 36/29/19
f 38/33/23 49/34/24 37/31/21
f 40/14/3 51/35/25 39/36/26
f 41/16/6 52/37/27 40/14/3
f 42/18/8 53/38/28 41/16/6
f 43/20/10 54/39/29 42/18/8
f 44/22/12 55/40/30 43/20/10
f 57/41/31 44/22/12 45/24/14
f 58/42/32 45/24/14 46/28/18
f 59/43/33 46/28/18 47/30/20
f 60/44/34 47/30/20 48/32/22
f 61/45/35 48/32/22 49/34/24
f 62/46/36 49/34/24 50/47/37
f 52/37/27 63/48/4 51/35/25
f 53/38/28 64/49/38 52/37/27
f 54/39/29 65/50/7 53/38/28
f 55/40/30 66/51/39 54/39/29
f 56/52/40 67/53/41 55/40/30
f 69/54/42 56/52/40 57/41/31
f 70/55/43 57/41/31 58/42/32
f 71/56/44 58/42/32 59/43/33
f 72/57/19 59/43/33 60/44/34
f 73/58/45 60/44/34 61/45/35
f 74/59/23 61/45/35 62/46/36
f 64/49/38 75/60/46 63/48/4
f 65/50/7 76/61/47 64/49/38
f 66/51/39 77/62/48 65/50/7
f 67/53/41 78/63/49 66/51/39
f 68/64/50 79/65/51 67/53/41
f 81/66/52 68/64/50 69/54/42
f 82/67/53 69/54/42 70/55/43
f 83/68/54 70/55/43 71/56/44
f 84/69/55 71/56/44 72/57/19
f 85/70/56 72/57/19 73/58/45
f 86/71/57 73/58/45 74/59/23
f 88/72/58 75/60/46 76/61/47
f 89/73/59 76/61/47 77/62/48
f 90/74/60 77/62/48 78/63/49
f 91/75/61 78/63/49 79/65/51
f 92/76/62 79/65/51 80/77/63
f 93/78/64 80/77/63 81/66/52
f 82/67/53 93/78/64 81/66/52
f 83/68/54 94/79/65 82/67/53
f 84/69/55 95/80/66 83/68/54
f 85/70/56 96/81/67 84/69/55
f 86/71/57 97/82/68 85/70/56
f 100/83/69 87/84/70 88/72/58
f 101/85/71 88/72/58 89/73/59
f 102/86/72 89/73/59 90/74/60
f 103/87/73 90/74/60 91/75/61
f 104/88/74 91/75/61 92/76/62
f 105/89/75 92/76/62 93/78/64
f 94/79/65 105/89/75 93/78/64
f 95/80/66 106/90/76 94/79/65
f 96/81/67 107/91/77 95/80/66
f 97/82/68 108/92/78 96/81/67
f 98/93/79 109/94/80 97/82/68
f 100/83/69 111/95/81 99/96/82
f 101/85/71 112/97/83 100/83/69
f 102/86/72 113/98/84 101/85/71
f 103/87/73 114/99/85 102/86/72
f 104/88/74 115/100/86 103/87/73
f 117/101/87 104/88/74 105/89/75
f 118/102/88 105/89/75 106/90/76
f 119/103/89 106/90/76 107/91/77
f 120/104/90 107/91/77 108/92/78
f 121/105/91 108/92/78 109/94/80
f 122/106/92 109/94/80 110/107/93
f 124/108/94 111/95/81 112/97/83
f 125/109/95 112/97/83 113/98/84
f 126/110/96 113/98/84 114/99/85
f 127/111/97 114/99/85 115/100/86
f 128/112/98 115/100/86 116/113/99
f 129/114/100 116/113/99 117/101/87
f 118/102/88 129/114/100 117/101/87
f 119/103/89 130/115/101 118/102/88
f 120/104/90 131/116/102 119/103/89
f 121/105/91 132/117/103 120/104/90
f 122/106/92 133/118/104 121/105/91
f 136/119/105 123/120/106 124/108/94
f 137/121/107 124/108/94 125/109/95
f 138/122/108 125/109/95 126/110/96
f 139/123/109 126/110/96 127/111/97
f 140/124/110 127/111/97 128/112/98
f 141/125/111 128/112/98 129/114/100
f 130/115/101 141/125/111 129/114/100
f 131/116/102 142/126/112 130/115/101
f 132/117/103 143/127/113 131/116/102
f 133/118/104 144/128/114 132/117/103
f 134/129/115 145/130/116 133/118/104
f 136/119/105 147/131/117 135/132/118
f 137/121/107 148/133/119 136/119/105
f 138/122/108 149/134/120 137/121/107
f 139/123/109 150/135/121 138/122/108
f 140/124/110 151/136/122 139/123/109
f 153/137/123 140/124/110 141/125/111
f 154/138/124 141/125/111 142/126/112
f 155/139/125 142/126/112 143/127/113
f 156/140/126 143/127/113 144/128/114
f 157/141/127 144/128/114 145/130/116
f 158/142/128 145/130/116 146/143/129
f 148/133/119 159/144/130 147/131/117
f 149/134/120 160/145/131 148/133/119
f 150/135/121 161/146/132 149/134/120
f 151/136/122 162/147/133 150/135/121
f 152/148/134 163/149/135 151/136/122
f 165/150/136 152/148/134 153/137/123
f 166/151/137 153/137/123 154/138/124
f 167/152/138 154/138/124 155/139/125
f 168/153/139 155/139/125 156/140/126
f 169/154/140 156/140/126 157/141/127
f 170/155/141 157/141/127 158/142/128
f 172/156/142 159/144/130 160/145/131
f 173/157/143 160/145/131 161/146/132
f 174/158/144 161/146/132 162/147/133
f 175/159/145 162/147/133 163/149/135
f 176/160/146 163/149/135 164/161/147
f 177/162/148 164/161/147 165/150/136
f 166/151/137 177/162/148 165/150/136
f 167/152/138 178/163/149 166/151/137
f 168/153/139 179/164/150 167/152/138
f 169/154/140 180/165/151 168/153/139
f 170/155/141 181/166/152 169/154/140
f 172/156/142 27/11/4 171/167/153
f 173/157/143 28/168/5 172/156/142
f 174/158/144 29/169/7 173/157/143
f 175/159/145 30/170/9 174/158/144
f 176/160/146 31/171/11 175/159/145
f 33/172/15 176/160/146 177/162/148
f 34/173/16 177/162/148 178/163/149
f 35/174/17 178/163/149 179/164/150
f 36/175/19 179/164/150 180/165/151
f 37/176/21 180/165/151 181/166/152
f 38/177/23 181/166/152 182/178/154
f 40/14/3 39/36/26 27/13/4
f 41/16/6 40/14/3 28/15/5
f 42/18/8 41/16/6 29/17/7
f 43/20/10 42/18/8 30/19/9
f 44/22/12 43/20/10 31/21/11
f 45/24/14 44/22/12 32/23/13
f 34/26/16 46/28/18 45/24/14
f 35/27/17 47/30/20 46/28/18
f 36/29/19 48/32/22 47/30/20
f 37/31/21 49/34/24 48/32/22
f 38/33/23 50/47/37 49/34/24
f 40/14/3 52/37/27 51/35/25
f 41/16/6 53/38/28 52/37/27
f 42/18/8 54/39/29 53/38/28
f 43/20/10 55/40/30 54/39/29
f 44/22/12 56/52/40 55/40/30
f 57/41/31 56/52/40 44/22/12
f 58/42/32 57/41/31 45/24/14
f 59/43/33 58/42/32 46/28/18
f 60/44/34 59/43/33 47/30/20
f 61/45/35 60/44/34 48/32/22
f 62/46/36 61/45/35 49/34/24
f 52/37/27 64/49/38 63/48/4
f 53/38/28 65/50/7 64/49/38
f 54/39/29 66/51/39 65/50/7
f 55/40/30 67/53/41 66/51/39
f 56/52/40 68/64/50 67/53/41
f 69/54/42 68/64/50 56/52/40
f 70/55/43 69/54/42 57/41/31
f 71/56/44 70/55/43 58/42/32
f 72/57/19 71/56/44 59/43/33
f 73/58/45 72/57/19 60/44/34
f 74/59/23 73/58/45 61/45/35
f 64/49/38 76/61/47 75/60/46
f 65/50/7 77/62/48 76/61/47
f 66/51/39 78/63/49 77/62/48
f 67/53/41 79/65/51 78/63/49
f 68/64/50 80/77/63 79/65/51
f 81/66/52 80/77/63 68/64/50
f 82/67/53 81/66/52 69/54/42
f 83/68/54 82/67/53 70/55/43
f 84/69/55 83/68/54 71/56/44
f 85/70/56 84/69/55 72/57/19
f 86/71/57 85/70/56 73/58/45
f 88/72/58 87/84/70 75/60/46
f 89/73/59 88/72/58 76/61/47
f 90/74/60 89/73/59 77/62/48
f 91/75/61 90/74/60 78/63/49
f 92/76/62 91/75/61 79/65/51
f 93/78/64 92/76/62 80/77/63
f 82/67/53 94/79/65 93/78/64
f 83/68/54 95/80/66 94/79/65
f 84/69/55 96/81/67 95/80/66
f 85/70/56 97/82/68 96/81/67
f 86/71/57 98/93/79 97/82/68
f 100/83/69 99/96/82 87/84/70
f 101/85/71 100/83/69 88/72/58
f 102/86/72 101/85/71 89/73/59
f 103/87/73 102/86/72 90/74/60
f 104/88/74 103/87/73 91/75/61
f 105/89/75 104/88/74 92/76/62
f 94/79/65 106/90/76 105/89/75
f 95/80/66 107/91/77 106/90/76
f 96/81/67 108/92/78 107/91/77
f 97/82/68 109/94/80 108/92/78
f 98/93/79 110/107/93 109/94/80
f 100/83/69 112/97/83 111/95/81
f 101/85/71 113/98/84 112/97/83
f 102/86/72 114/99/85 113/98/84
f 103/87/73 115/100/86 114/99/85
f 104/88/74 116/113/99 115/100/86
f 117/101/87 116/113/99 104/88/74
f 118/102/88 117/101/87 105/89/75
f 119/103/89 118/102/88 106/90/76
f 120/104/90 119/103/89 107/91/77
f 121/105/91 120/104/90 108/92/78
f 122/106/92 121/105/91 109/94/80
f 124/108/94 123/120/106 111/95/81
f 125/109/95 124/108/94 112/97/83
f 126/110/96 125/109/95 113/98/84
f 127/111/97 126/110/96 114/99/85
f 128/112/98 127/111/97 115/100/86
f 129/114/100 128/112/98 116/113/99
f 118/102/88 130/115/101 129/114/100
f 119/103/89 131/116/102 130/115/101
f 120/104/90 132/117/103 131/116/102
f 121/105/91 133/118/104 132/117/103
f 122/106/92 134/129/115 133/118/104
f 136/119/105 135/132/118 123/120/106
f 137/121/107 136/119/105 124/108/94
f 138/122/108 137/121/107 125/109/95
f 139/123/109 138/122/108 126/110/96
f 140/124/110 139/123/109 127/111/97
f 141/125/111 140/124/110 128/112/98
f 130/115/101 142/126/112 141/125/111
f 131/116/102 143/127/113 142/126/112
f 132/117/103 144/128/114 143/127/113
f 133/118/104 145/130/116 144/128/114
f 134/129/115 146/143/129 145/130/116
f 136/119/105 148/133/119 147/131/117
f 137/121/107 149/134/120 148/133/119
f 138/122/108 150/135/121 149/134/120
f 139/123/109 151/136/122 150/135/121
f 140/124/110 152/148/134 151/136/122
f 153/137/123 152/148/134 140/124/110
f 154/138/124 153/137/123 141/125/111
f 155/139/125 154/138/124 142/126/112
f 156/140/126 155/139/125 143/127/113
f 157/141/127 156/140/126 144/128/114
f 158/142/128 157/141/127 145/130/116
f 148/133/119 160/145/131 159/144/130
f 149/134/120 161/146/132 160/145/131
f 150/135/121 162/147/133 161/146/132
f 151/136/122 163/149/135 162/147/133
f 152/148/134 164/161/147 163/149/135
f 165/150/136 164/161/147 152/148/134
f 166/151/137 165/150/136 153/137/123
f 167/152/138 166/151/137 154/138/124
f 168/153/139 167/152/138 155/139/125
f 169/154/140 168/153/139 156/140/126
f 170/155/141 169/154/140 157/141/127
f 172/156/142 171/167/153 159/144/130
f 173/157/143 172/156/142 160/145/131
f 174/158/144 173/157/143 161/146/132
f 175/159/145 174/158/144 162/147/133
f 176/160/146 175/159/145 163/149/135
f 177/162/148 176/160/146 164/161/147
f 166/151/137 178/163/149 177/162/148
f 167/152/138 179/164/150 178/163/149
f 168/153/139 180/165/151 179/164/150
f 169/154/140 181/166/152 180/165/151
f 170/155/141 182/178/154 181/166/152
f 172/156/142 28/168/5 27/11/4
f 173/157/143 29/169/7 28/168/5
f 174/158/144 30/170/9 29/169/7
f 175/159/145 31/171/11 30/170/9
f 176/160/146 32/179/13 31/171/11
f 33/172/15 32/179/13 176/160/146
f 34/173/16 33/172/15 177/162/148
f 35/174/17 34/173/16 178/163/149
f 36/175/19 35/174/17 179/164/150
f 37/176/21 36/175/19 180/165/151
f 38/177/23 37/176/21 181/166/152
