# Blender 4.1.1
# www.blender.org
mtllib Head.mtl
o щан
v -0.251046 -0.279628 -0.300711
v -0.242858 0.276321 -0.243552
v -0.234478 -0.149772 0.231755
v -0.242854 0.270519 0.240532
v -0.126406 -0.200082 0.265868
v -0.002298 -0.218729 0.277456
v -0.002298 0.342708 0.299208
v -0.130094 0.324070 0.285368
v -0.277202 0.166130 0.280751
v -0.285673 0.046307 0.294591
v -0.270710 -0.084353 0.280574
v -0.294012 -0.271324 -0.227211
v -0.305686 -0.277212 -0.080446
v -0.273210 -0.187786 0.131098
v -0.283983 0.311429 0.126195
v -0.298742 0.325402 0.000000
v -0.283983 0.311459 -0.126194
v -0.277629 0.156241 -0.280751
v -0.297155 0.012223 -0.283509
v -0.290279 -0.232986 -0.313911
v -0.002298 -0.337608 -0.349270
v -0.130660 -0.318004 -0.336123
v -0.130094 0.330535 -0.293679
v -0.002298 0.349173 -0.307519
v -0.166828 0.392183 0.155808
v -0.179539 0.414288 0.000000
v -0.166828 0.395579 -0.151802
v -0.002298 0.429327 0.164972
v -0.002298 0.458267 -0.000000
v -0.002298 0.431913 -0.160453
v -0.002298 -0.308500 0.114670
v -0.002298 -0.401648 -0.073007
v -0.002298 -0.393457 -0.251494
v -0.097195 -0.307534 0.111747
v -0.082894 -0.352400 -0.075740
v -0.170125 -0.353600 -0.248513
v -0.154360 -0.243940 -0.360401
v -0.002298 -0.237443 -0.387894
v -0.161295 -0.000561 -0.342422
v -0.002298 -0.000683 -0.374136
v -0.151262 0.194532 -0.353107
v -0.002298 0.205214 -0.377307
v -0.304588 -0.102081 0.168289
v -0.362234 -0.115541 -0.025615
v -0.333007 -0.176000 -0.197578
v -0.368031 0.047519 0.159431
v -0.403303 0.041485 0.000000
v -0.378931 0.025797 -0.159431
v -0.363494 0.181494 0.150267
v -0.389119 0.189660 -0.000000
v -0.363614 0.172679 -0.150267
v -0.002298 -0.096262 0.376667
v -0.147618 -0.098200 0.351872
v -0.002298 0.038637 0.411996
v -0.156881 0.047083 0.380284
v -0.002298 0.202630 0.385904
v -0.151262 0.191687 0.361106
v -0.278191 -0.019023 0.287582
v -0.302567 -0.136723 -0.263043
v -0.162566 -0.161085 -0.327133
v -0.002298 -0.154615 -0.341624
v -0.336220 -0.027281 0.163860
v -0.384564 -0.037028 -0.012808
v -0.360951 -0.074644 -0.180731
v -0.002298 -0.028813 0.394332
v -0.152249 -0.025559 0.366077
v 0.246451 -0.279628 -0.300711
v 0.238263 0.276321 -0.243552
v 0.229882 -0.149772 0.231755
v 0.238259 0.270519 0.240533
v 0.121811 -0.200081 0.265868
v 0.125498 0.324070 0.285367
v 0.272606 0.166130 0.280751
v 0.281077 0.046307 0.294591
v 0.266114 -0.084353 0.280574
v 0.289416 -0.271324 -0.227211
v 0.301090 -0.277212 -0.080446
v 0.268614 -0.187785 0.131098
v 0.279387 0.311429 0.126195
v 0.294146 0.325402 -0.000000
v 0.279388 0.311460 -0.126195
v 0.273034 0.156241 -0.280751
v 0.292560 0.012223 -0.283509
v 0.285683 -0.232986 -0.313911
v 0.126065 -0.318004 -0.336123
v 0.125498 0.330535 -0.293679
v 0.162233 0.392184 0.155808
v 0.174943 0.414287 -0.000000
v 0.162233 0.395579 -0.151802
v 0.092599 -0.307535 0.111747
v 0.078298 -0.352400 -0.075740
v 0.165530 -0.353600 -0.248513
v 0.149764 -0.243940 -0.360401
v 0.156699 -0.000562 -0.342423
v 0.146666 0.194532 -0.353107
v 0.299993 -0.102081 0.168289
v 0.357638 -0.115541 -0.025615
v 0.328411 -0.176000 -0.197578
v 0.363435 0.047519 0.159431
v 0.398708 0.041486 0.000000
v 0.374335 0.025797 -0.159431
v 0.358898 0.181493 0.150267
v 0.384523 0.189660 0.000000
v 0.359019 0.172679 -0.150267
v 0.143023 -0.098200 0.351872
v 0.152285 0.047083 0.380284
v 0.146666 0.191687 0.361106
v 0.273596 -0.019023 0.287582
v 0.297972 -0.136723 -0.263042
v 0.157971 -0.161085 -0.327133
v 0.331625 -0.027281 0.163860
v 0.379968 -0.037028 -0.012807
v 0.356355 -0.074644 -0.180731
v 0.147654 -0.025559 0.366077
vn -0.5433 0.4515 0.7079
vn -0.7479 0.3843 -0.5413
vn -0.3925 -0.7768 -0.4924
vn -0.5889 0.6940 -0.4142
vn -0.2149 0.8655 -0.4524
vn -0.5810 0.6773 0.4513
vn -0.5904 0.7918 0.1567
vn -0.5904 0.7918 -0.1565
vn -0.2170 0.8374 0.5017
vn -0.2379 0.9588 0.1554
vn -0.2385 0.9612 -0.1384
vn -0.1804 -0.8541 -0.4878
vn -0.0238 -0.8754 0.4828
vn -0.5200 -0.8532 -0.0392
vn -0.4705 -0.7632 0.4429
vn -0.3172 -0.9275 0.1978
vn -0.3184 -0.9331 0.1673
vn -0.3728 -0.3946 -0.8398
vn -0.1488 -0.3558 -0.9226
vn -0.4266 -0.0824 -0.9007
vn -0.0859 -0.0938 -0.9919
vn -0.3912 0.0706 -0.9176
vn -0.1955 -0.0436 -0.9797
vn -0.5437 0.3880 -0.7442
vn -0.1748 0.4170 -0.8920
vn -0.6778 -0.6612 -0.3215
vn -0.8308 -0.0460 -0.5546
vn -0.8225 0.1222 -0.5555
vn -0.7458 -0.4755 0.4666
vn -0.8626 -0.4047 0.3035
vn -0.9313 -0.3535 -0.0883
vn -0.8916 -0.1480 0.4280
vn -0.9263 -0.2648 0.2681
vn -0.9826 -0.1539 -0.1037
vn -0.8473 0.1197 0.5174
vn -0.9757 0.0477 0.2140
vn -0.9806 0.1123 -0.1609
vn -0.7232 0.4423 0.5304
vn -0.8262 0.5371 0.1701
vn -0.8345 0.5135 -0.1997
vn -0.4838 -0.6212 0.6165
vn -0.5260 -0.1954 0.8277
vn -0.5495 0.1341 0.8247
vn -0.1648 -0.6209 0.7664
vn -0.1845 -0.2490 0.9508
vn -0.1919 0.1364 0.9719
vn -0.1776 0.5099 0.8417
vn -0.1622 -0.1993 0.9664
vn -0.5079 -0.1964 0.8387
vn -0.9644 -0.2535 -0.0748
vn -0.9068 -0.3053 0.2908
vn -0.8790 -0.3527 0.3209
vn -0.9217 0.0826 -0.3790
vn -0.1759 0.4801 -0.8594
vn -0.2809 0.3335 -0.8999
vn 0.5124 0.4867 0.7075
vn 0.7556 0.5058 -0.4162
vn 0.5653 -0.7888 -0.2414
vn 0.5889 0.6940 -0.4142
vn 0.2149 0.8655 -0.4524
vn 0.5259 0.6823 0.5078
vn 0.5874 0.7933 0.1605
vn 0.5904 0.7918 -0.1565
vn 0.1784 0.8268 0.5335
vn 0.2260 0.9595 0.1683
vn 0.2385 0.9612 -0.1384
vn 0.2140 -0.8676 -0.4489
vn 0.1741 -0.8230 0.5408
vn 0.5200 -0.8532 -0.0392
vn 0.4900 -0.7363 0.4666
vn 0.4842 -0.7768 0.4027
vn 0.3184 -0.9331 0.1673
vn 0.3166 -0.4953 -0.8090
vn 0.1520 -0.3515 -0.9238
vn 0.4041 -0.1101 -0.9081
vn 0.0859 -0.0938 -0.9919
vn 0.3912 0.0706 -0.9176
vn 0.1955 -0.0436 -0.9797
vn 0.5437 0.3880 -0.7442
vn 0.1748 0.4170 -0.8920
vn 0.9286 -0.3230 -0.1828
vn 0.8362 -0.0336 -0.5474
vn 0.8219 0.1204 -0.5568
vn 0.7117 -0.6284 0.3139
vn 0.8539 -0.4359 0.2841
vn 0.9479 -0.3144 -0.0506
vn 0.8916 -0.1480 0.4280
vn 0.9034 -0.3715 0.2139
vn 0.9692 -0.2106 -0.1274
vn 0.8473 0.1197 0.5174
vn 0.9757 0.0477 0.2140
vn 0.9798 0.0938 -0.1769
vn 0.7232 0.4423 0.5304
vn 0.8262 0.5371 0.1701
vn 0.8221 0.5474 -0.1566
vn 0.4838 -0.6212 0.6165
vn 0.5260 -0.1954 0.8277
vn 0.5520 0.1307 0.8236
vn 0.1648 -0.6209 0.7664
vn 0.1845 -0.2490 0.9508
vn 0.1733 0.1548 0.9726
vn 0.1665 0.5189 0.8385
vn 0.5079 -0.1964 0.8387
vn 0.9622 -0.2611 -0.0768
vn 0.8937 -0.3623 0.2645
vn 0.8571 -0.1546 -0.4913
vn 0.0984 0.3624 -0.9268
vn 0.3195 0.4105 -0.8540
vn -0.5124 0.4867 0.7075
vn -0.7556 0.5058 -0.4162
vn -0.5653 -0.7888 -0.2414
vn -0.5426 0.7014 -0.4621
vn -0.1774 0.8577 -0.4826
vn -0.5259 0.6823 0.5078
vn -0.5874 0.7933 0.1605
vn -0.5979 0.7879 -0.1472
vn -0.1784 0.8268 0.5335
vn -0.2260 0.9595 0.1683
vn -0.2208 0.9624 -0.1581
vn -0.2140 -0.8676 -0.4489
vn -0.1741 -0.8230 0.5408
vn -0.2273 -0.9662 0.1215
vn -0.4901 -0.7363 0.4666
vn -0.4842 -0.7768 0.4027
vn -0.5608 -0.8243 -0.0777
vn -0.3166 -0.4953 -0.8090
vn -0.1520 -0.3514 -0.9238
vn -0.4041 -0.1101 -0.9081
vn -0.1917 -0.2028 -0.9603
vn -0.4917 -0.0224 -0.8705
vn -0.1593 -0.0152 -0.9871
vn -0.5274 0.4078 -0.7454
vn -0.1590 0.4307 -0.8884
vn -0.9286 -0.3230 -0.1828
vn -0.8362 -0.0336 -0.5474
vn -0.8219 0.1204 -0.5568
vn -0.7117 -0.6284 0.3139
vn -0.8539 -0.4359 0.2841
vn -0.9479 -0.3144 -0.0506
vn -0.8115 -0.3160 0.4916
vn -0.9034 -0.3715 0.2139
vn -0.9692 -0.2105 -0.1275
vn -0.8287 0.0661 0.5558
vn -0.9806 0.0939 0.1723
vn -0.9798 0.0938 -0.1769
vn -0.7232 0.5255 0.4482
vn -0.8221 0.5474 0.1568
vn -0.8221 0.5474 -0.1566
vn -0.4230 -0.6807 0.5981
vn -0.5470 -0.1510 0.8234
vn -0.5520 0.1307 0.8236
vn -0.1186 -0.6548 0.7464
vn -0.2074 -0.2005 0.9575
vn -0.1733 0.1548 0.9726
vn -0.1665 0.5189 0.8385
vn -0.5285 -0.1501 0.8355
vn -0.9622 -0.2611 -0.0768
vn -0.8937 -0.3623 0.2646
vn -0.8571 -0.1546 -0.4913
vn -0.0984 0.3624 -0.9268
vn -0.3195 0.4105 -0.8540
vn 0.5433 0.4515 0.7079
vn 0.7479 0.3842 -0.5413
vn 0.3925 -0.7768 -0.4924
vn 0.5426 0.7014 -0.4621
vn 0.1774 0.8577 -0.4826
vn 0.5810 0.6773 0.4513
vn 0.5904 0.7918 0.1567
vn 0.5979 0.7879 -0.1472
vn 0.2170 0.8374 0.5017
vn 0.2379 0.9588 0.1554
vn 0.2208 0.9624 -0.1581
vn 0.1804 -0.8541 -0.4878
vn 0.0238 -0.8754 0.4828
vn 0.2273 -0.9662 0.1215
vn 0.4705 -0.7632 0.4429
vn 0.3172 -0.9275 0.1978
vn 0.5608 -0.8243 -0.0777
vn 0.3728 -0.3946 -0.8398
vn 0.1488 -0.3558 -0.9226
vn 0.4266 -0.0824 -0.9007
vn 0.1917 -0.2028 -0.9603
vn 0.4916 -0.0224 -0.8705
vn 0.1593 -0.0152 -0.9871
vn 0.5274 0.4078 -0.7454
vn 0.1590 0.4307 -0.8884
vn 0.6778 -0.6612 -0.3215
vn 0.8308 -0.0460 -0.5546
vn 0.8225 0.1222 -0.5555
vn 0.7458 -0.4755 0.4666
vn 0.8626 -0.4047 0.3035
vn 0.9313 -0.3535 -0.0883
vn 0.8115 -0.3160 0.4916
vn 0.9263 -0.2648 0.2681
vn 0.9826 -0.1539 -0.1037
vn 0.8287 0.0661 0.5558
vn 0.9806 0.0939 0.1723
vn 0.9806 0.1123 -0.1609
vn 0.7232 0.5255 0.4482
vn 0.8221 0.5473 0.1568
vn 0.8345 0.5135 -0.1997
vn 0.4230 -0.6807 0.5981
vn 0.5470 -0.1510 0.8234
vn 0.5495 0.1341 0.8247
vn 0.1186 -0.6548 0.7464
vn 0.2074 -0.2005 0.9575
vn 0.1919 0.1364 0.9719
vn 0.1776 0.5099 0.8417
vn 0.1622 -0.1993 0.9664
vn 0.5285 -0.1502 0.8355
vn 0.9644 -0.2535 -0.0748
vn 0.9068 -0.3053 0.2908
vn 0.8790 -0.3527 0.3209
vn 0.9217 0.0826 -0.3790
vn 0.1759 0.4801 -0.8594
vn 0.2809 0.3335 -0.8999
vt 0.562500 0.437500
vt 0.625000 0.500000
vt 0.562500 0.500000
vt 0.562500 0.687500
vt 0.625000 0.750000
vt 0.562500 0.750000
vt 0.312500 0.687500
vt 0.375000 0.750000
vt 0.312500 0.750000
vt 0.687500 0.687500
vt 0.625000 0.687500
vt 0.750000 0.687500
vt 0.687500 0.750000
vt 0.687500 0.562500
vt 0.625000 0.562500
vt 0.687500 0.625000
vt 0.625000 0.625000
vt 0.687500 0.500000
vt 0.750000 0.562500
vt 0.750000 0.625000
vt 0.250000 0.687500
vt 0.250000 0.750000
vt 0.250000 0.500000
vt 0.312500 0.562500
vt 0.250000 0.562500
vt 0.312500 0.625000
vt 0.250000 0.625000
vt 0.312500 0.500000
vt 0.375000 0.562500
vt 0.375000 0.625000
vt 0.437500 0.812500
vt 0.375000 0.812500
vt 0.437500 0.875000
vt 0.375000 0.875000
vt 0.468750 0.750000
vt 0.500000 0.812500
vt 0.468750 0.812500
vt 0.468750 0.875000
vt 0.500000 0.750000
vt 0.562500 0.812500
vt 0.500000 0.875000
vt 0.625000 0.812500
vt 0.562500 0.875000
vt 0.375000 0.687500
vt 0.437500 0.750000
vt 0.468750 0.687500
vt 0.500000 0.687500
vt 0.375000 0.500000
vt 0.437500 0.562500
vt 0.437500 0.625000
vt 0.437500 0.687500
vt 0.500000 0.500000
vt 0.468750 0.562500
vt 0.468750 0.500000
vt 0.500000 0.625000
vt 0.468750 0.625000
vt 0.500000 0.562500
vt 0.562500 0.562500
vt 0.562500 0.625000
vt 0.437500 0.437500
vt 0.375000 0.437500
vt 0.500000 0.437500
vt 0.468750 0.437500
vt 0.437500 0.375000
vt 0.375000 0.375000
vt 0.500000 0.375000
vt 0.468750 0.375000
vt 0.562500 0.375000
vt 0.625000 0.437500
vt 0.437500 0.500000
vt 0.750000 0.500000
vt 0.625000 0.375000
vt 0.750000 0.750000
vt 0.625000 0.875000
s 0
f 57/1/1 4/2/1 9/3/1
f 51/4/2 2/5/2 18/6/2
f 36/7/3 1/8/3 22/9/3
f 27/10/4 2/5/4 17/11/4
f 30/12/5 23/13/5 27/10/5
f 4/2/6 25/14/6 15/15/6
f 15/15/7 26/16/7 16/17/7
f 26/16/8 17/11/8 16/17/8
f 8/18/9 28/19/9 25/14/9
f 25/14/10 29/20/10 26/16/10
f 29/20/11 27/10/11 26/16/11
f 33/21/12 22/9/12 21/22/12
f 6/23/13 34/24/13 31/25/13
f 35/26/14 33/21/14 32/27/14
f 5/28/15 14/29/15 34/24/15
f 34/24/16 13/30/16 35/26/16
f 13/30/17 36/7/17 35/26/17
f 1/8/18 37/31/18 22/32/18
f 22/32/19 38/33/19 21/34/19
f 59/35/20 39/36/20 60/37/20
f 39/36/21 61/38/21 60/37/21
f 18/6/22 39/36/22 19/39/22
f 41/40/23 40/41/23 39/36/23
f 2/5/24 41/40/24 18/6/24
f 23/42/25 42/43/25 41/40/25
f 12/44/26 20/45/26 1/8/26
f 64/46/27 19/39/27 59/35/27
f 48/47/28 18/6/28 19/39/28
f 3/48/29 43/49/29 14/29/29
f 14/29/30 44/50/30 13/30/30
f 13/30/31 45/51/31 12/44/31
f 10/52/32 62/53/32 58/54/32
f 62/53/33 47/55/33 63/56/33
f 63/56/34 48/47/34 64/46/34
f 9/3/35 46/57/35 10/52/35
f 49/58/36 47/55/36 46/57/36
f 47/55/37 51/4/37 48/47/37
f 4/2/38 49/58/38 9/3/38
f 15/15/39 50/59/39 49/58/39
f 50/59/40 17/11/40 51/4/40
f 53/60/41 3/48/41 5/61/41
f 55/62/42 58/54/42 66/63/42
f 55/62/43 9/3/43 10/52/43
f 52/64/44 5/61/44 6/65/44
f 54/66/45 66/63/45 65/67/45
f 54/66/46 57/1/46 55/62/46
f 56/68/47 8/69/47 57/1/47
f 52/64/48 66/63/48 53/60/48
f 66/63/49 11/70/49 53/60/49
f 44/50/50 64/46/50 45/51/50
f 43/49/51 63/56/51 44/50/51
f 11/70/52 62/53/52 43/49/52
f 45/51/53 59/35/53 20/45/53
f 37/31/54 61/38/54 38/33/54
f 20/45/55 60/37/55 37/31/55
f 107/1/56 70/2/56 72/69/56
f 104/4/57 68/5/57 81/11/57
f 92/7/58 67/8/58 76/44/58
f 68/5/59 89/10/59 81/11/59
f 86/13/60 30/12/60 89/10/60
f 70/2/61 87/14/61 72/18/61
f 79/15/62 88/16/62 87/14/62
f 81/11/63 88/16/63 80/17/63
f 72/18/64 28/19/64 7/71/64
f 87/14/65 29/20/65 28/19/65
f 89/10/66 29/20/66 88/16/66
f 33/21/67 85/9/67 92/7/67
f 6/23/68 90/24/68 71/28/68
f 33/21/69 91/26/69 32/27/69
f 71/28/70 78/29/70 69/48/70
f 90/24/71 77/30/71 78/29/71
f 92/7/72 77/30/72 91/26/72
f 67/8/73 93/31/73 84/45/73
f 85/32/74 38/33/74 93/31/74
f 109/35/75 94/36/75 83/39/75
f 61/38/76 94/36/76 110/37/76
f 94/36/77 82/6/77 83/39/77
f 40/41/78 95/40/78 94/36/78
f 95/40/79 68/5/79 82/6/79
f 42/43/80 86/42/80 95/40/80
f 76/44/81 84/45/81 98/51/81
f 113/46/82 83/39/82 101/47/82
f 101/47/83 82/6/83 104/4/83
f 69/48/84 96/49/84 75/70/84
f 78/29/85 97/50/85 96/49/85
f 77/30/86 98/51/86 97/50/86
f 111/53/87 74/52/87 108/54/87
f 111/53/88 100/55/88 99/57/88
f 112/56/89 101/47/89 100/55/89
f 99/57/90 73/3/90 74/52/90
f 100/55/91 102/58/91 99/57/91
f 100/55/92 104/4/92 103/59/92
f 102/58/93 70/2/93 73/3/93
f 103/59/94 79/15/94 102/58/94
f 103/59/95 81/11/95 80/17/95
f 69/48/96 105/60/96 71/61/96
f 108/54/97 106/62/97 114/63/97
f 106/62/98 73/3/98 107/1/98
f 71/61/99 52/64/99 6/65/99
f 114/63/100 54/66/100 65/67/100
f 54/66/101 107/1/101 56/68/101
f 56/68/102 72/69/102 7/72/102
f 52/64/100 114/63/100 65/67/100
f 75/70/103 114/63/103 105/60/103
f 97/50/104 113/46/104 112/56/104
f 96/49/105 112/56/105 111/53/105
f 75/70/87 111/53/87 108/54/87
f 98/51/106 109/35/106 113/46/106
f 93/31/107 61/38/107 110/37/107
f 84/45/108 110/37/108 109/35/108
f 57/1/109 8/69/109 4/2/109
f 51/4/110 17/11/110 2/5/110
f 36/7/111 12/44/111 1/8/111
f 27/10/112 23/13/112 2/5/112
f 30/12/113 24/73/113 23/13/113
f 4/2/114 8/18/114 25/14/114
f 15/15/115 25/14/115 26/16/115
f 26/16/116 27/10/116 17/11/116
f 8/18/117 7/71/117 28/19/117
f 25/14/118 28/19/118 29/20/118
f 29/20/119 30/12/119 27/10/119
f 33/21/120 36/7/120 22/9/120
f 6/23/121 5/28/121 34/24/121
f 35/26/122 36/7/122 33/21/122
f 5/28/123 3/48/123 14/29/123
f 34/24/124 14/29/124 13/30/124
f 13/30/125 12/44/125 36/7/125
f 1/8/126 20/45/126 37/31/126
f 22/32/127 37/31/127 38/33/127
f 59/35/128 19/39/128 39/36/128
f 39/36/129 40/41/129 61/38/129
f 18/6/130 41/40/130 39/36/130
f 41/40/131 42/43/131 40/41/131
f 2/5/132 23/42/132 41/40/132
f 23/42/133 24/74/133 42/43/133
f 12/44/134 45/51/134 20/45/134
f 64/46/135 48/47/135 19/39/135
f 48/47/136 51/4/136 18/6/136
f 3/48/137 11/70/137 43/49/137
f 14/29/138 43/49/138 44/50/138
f 13/30/139 44/50/139 45/51/139
f 10/52/140 46/57/140 62/53/140
f 62/53/141 46/57/141 47/55/141
f 63/56/142 47/55/142 48/47/142
f 9/3/143 49/58/143 46/57/143
f 49/58/144 50/59/144 47/55/144
f 47/55/145 50/59/145 51/4/145
f 4/2/146 15/15/146 49/58/146
f 15/15/147 16/17/147 50/59/147
f 50/59/148 16/17/148 17/11/148
f 53/60/149 11/70/149 3/48/149
f 55/62/150 10/52/150 58/54/150
f 55/62/151 57/1/151 9/3/151
f 52/64/152 53/60/152 5/61/152
f 54/66/153 55/62/153 66/63/153
f 54/66/154 56/68/154 57/1/154
f 56/68/155 7/72/155 8/69/155
f 52/64/45 65/67/45 66/63/45
f 66/63/156 58/54/156 11/70/156
f 44/50/157 63/56/157 64/46/157
f 43/49/158 62/53/158 63/56/158
f 11/70/32 58/54/32 62/53/32
f 45/51/159 64/46/159 59/35/159
f 37/31/160 60/37/160 61/38/160
f 20/45/161 59/35/161 60/37/161
f 107/1/162 73/3/162 70/2/162
f 104/4/163 82/6/163 68/5/163
f 92/7/164 85/9/164 67/8/164
f 68/5/165 86/13/165 89/10/165
f 86/13/166 24/73/166 30/12/166
f 70/2/167 79/15/167 87/14/167
f 79/15/168 80/17/168 88/16/168
f 81/11/169 89/10/169 88/16/169
f 72/18/170 87/14/170 28/19/170
f 87/14/171 88/16/171 29/20/171
f 89/10/172 30/12/172 29/20/172
f 33/21/173 21/22/173 85/9/173
f 6/23/174 31/25/174 90/24/174
f 33/21/175 92/7/175 91/26/175
f 71/28/176 90/24/176 78/29/176
f 90/24/177 91/26/177 77/30/177
f 92/7/178 76/44/178 77/30/178
f 67/8/179 85/32/179 93/31/179
f 85/32/180 21/34/180 38/33/180
f 109/35/181 110/37/181 94/36/181
f 61/38/182 40/41/182 94/36/182
f 94/36/183 95/40/183 82/6/183
f 40/41/184 42/43/184 95/40/184
f 95/40/185 86/42/185 68/5/185
f 42/43/186 24/74/186 86/42/186
f 76/44/187 67/8/187 84/45/187
f 113/46/188 109/35/188 83/39/188
f 101/47/189 83/39/189 82/6/189
f 69/48/190 78/29/190 96/49/190
f 78/29/191 77/30/191 97/50/191
f 77/30/192 76/44/192 98/51/192
f 111/53/193 99/57/193 74/52/193
f 111/53/194 112/56/194 100/55/194
f 112/56/195 113/46/195 101/47/195
f 99/57/196 102/58/196 73/3/196
f 100/55/197 103/59/197 102/58/197
f 100/55/198 101/47/198 104/4/198
f 102/58/199 79/15/199 70/2/199
f 103/59/200 80/17/200 79/15/200
f 103/59/201 104/4/201 81/11/201
f 69/48/202 75/70/202 105/60/202
f 108/54/203 74/52/203 106/62/203
f 106/62/204 74/52/204 73/3/204
f 71/61/205 105/60/205 52/64/205
f 114/63/206 106/62/206 54/66/206
f 54/66/207 106/62/207 107/1/207
f 56/68/208 107/1/208 72/69/208
f 52/64/209 105/60/209 114/63/209
f 75/70/210 108/54/210 114/63/210
f 97/50/211 98/51/211 113/46/211
f 96/49/212 97/50/212 112/56/212
f 75/70/213 96/49/213 111/53/213
f 98/51/214 84/45/214 109/35/214
f 93/31/215 38/33/215 61/38/215
f 84/45/216 93/31/216 110/37/216
