# Blender 4.3.0
# www.blender.org
mtllib tongue.mtl
o 舌
v -0.115013 0.777767 1.587702
v -0.023820 0.744304 0.616041
v -0.049725 0.222067 -0.127679
v 0.070501 0.784802 0.728246
v 0.069443 0.011599 -0.283073
v 0.024566 0.159635 2.197431
v 0.099878 0.250875 -0.113946
v 0.149005 -0.333303 -0.357721
v 0.210794 0.720504 0.610232
v 0.270528 0.559082 0.293008
v 0.150361 -0.016421 -0.289181
v 0.120565 -0.038635 2.545710
v 0.125200 0.145191 2.185535
v 0.106620 0.552793 1.837683
v 0.236304 0.261858 -0.085514
v 0.297751 0.325836 -0.000630
v 0.240517 0.016755 -0.236410
v 0.101668 0.028941 2.814518
v 0.239823 0.676646 1.591481
v 0.359300 0.302327 0.018424
v 0.152307 -0.061121 2.537993
v 0.418332 0.590950 0.598878
v 0.396644 0.290783 0.056158
v 0.274863 -0.145801 -0.244572
v 0.190777 0.374310 1.901555
v 0.276342 0.596750 1.614726
v 0.432745 0.324091 0.184431
v 0.372008 0.134982 -0.071309
v 0.158767 -0.092688 2.528005
v 0.189836 0.342821 1.870809
v 0.292710 0.533822 1.555115
v 0.353137 0.539010 1.128173
v 0.349190 0.021976 -0.024329
v 0.258602 -0.248900 -0.234050
v 0.156259 0.279597 1.880561
v 0.247960 0.464123 1.110542
v 0.359450 0.237359 0.322073
v 0.126020 -0.025062 2.168795
v -0.000978 -0.043237 2.176145
v 0.140732 -0.233241 -0.049131
v -0.197633 0.242447 1.821232
v 0.065499 -0.234680 -0.040451
v 0.107335 -0.296675 -0.103743
v 0.115686 -0.357010 -0.178960
v 0.123187 -0.407618 -0.285197
v -0.082907 -0.220703 -0.086549
v -0.352883 0.447406 1.588048
v -0.040788 -0.122983 2.520679
v -0.206321 -0.116599 -0.113083
v 0.081871 -0.399791 -0.297532
v -0.173096 -0.152204 -0.180498
v -0.399749 0.353041 1.872728
v -0.401982 0.595603 1.452441
v -0.019002 -0.301901 -0.318438
v -0.188333 0.112697 2.174315
v -0.397273 0.416968 1.875259
v -0.407921 0.611826 1.620998
v -0.284237 0.548893 0.311741
v -0.262549 0.326723 0.024225
v 0.028447 -0.311642 -0.349454
v -0.264982 0.521154 1.881941
v -0.059961 -0.012630 -0.274390
v -0.049251 0.591316 0.294776
v 0.063050 -0.279693 -0.364685
v 0.098566 -0.335971 -0.363823
v 0.153214 -0.040304 2.733177
v 0.189521 -0.042683 2.690002
v 0.041105 -0.012756 2.474058
v 0.011203 0.082951 2.290825
v 0.083909 0.837552 1.371543
v 0.134289 0.660183 0.431679
v 0.112123 0.567440 0.254443
v -0.052575 0.451855 0.093982
v 0.023510 0.650754 0.400543
v 0.110173 -0.018688 2.655650
v 0.118240 0.075624 2.282112
v 0.040241 0.250508 2.107433
v 0.063212 0.661040 1.748748
v 0.163708 0.839901 1.253028
v 0.229048 0.797799 0.878069
v 0.052965 -0.031287 2.550103
v 0.111405 -0.033555 2.609263
v 0.119226 -0.019713 2.466915
v 0.139550 0.011655 2.372586
v 0.127802 0.693524 1.675125
v 0.183752 0.807117 1.376834
v 0.216327 0.654492 0.452993
v 0.193248 0.386026 0.032189
v 0.194484 -0.273308 -0.338689
v -0.006109 0.597423 1.834704
v 0.170775 0.119011 -0.207716
v 0.023110 0.775037 1.586339
v 0.144959 0.854003 1.126543
v 0.137402 0.492241 0.147774
v 0.159275 -0.034841 2.656844
v 0.142131 0.220979 2.095791
v 0.061603 0.318407 2.045182
v 0.165802 0.597404 1.761179
v 0.272623 0.758496 1.379362
v 0.268910 0.803870 1.002339
v 0.360819 0.720847 0.847457
v 0.325707 0.593972 0.393125
v 0.271796 0.157961 -0.146233
v 0.198299 -0.131123 -0.313560
v 0.162190 -0.233503 -0.352246
v 0.146145 -0.051309 2.602221
v 0.159848 -0.034996 2.430707
v 0.158970 0.350746 1.968121
v 0.214435 0.620338 1.692472
v 0.255912 0.723234 1.491598
v 0.327786 0.249571 -0.052841
v 0.237223 -0.135246 -0.288254
v 0.154782 0.734507 1.589955
v 0.260644 0.811373 1.130875
v 0.320012 0.677610 0.601036
v 0.348759 0.506067 0.262739
v 0.317145 0.683403 1.434442
v 0.353807 0.716212 1.254905
v 0.374569 0.724548 1.000189
v 0.399455 0.565014 0.440652
v 0.397583 0.483187 0.284751
v 0.184535 0.072859 2.221316
v 0.287580 -0.018364 -0.210893
v 0.336506 0.760588 1.130633
v 0.377525 0.637511 0.594610
v 0.174906 -0.064539 2.421116
v 0.349005 0.638886 1.381281
v 0.412669 0.659444 0.890300
v 0.437244 0.466821 0.372316
v 0.335026 0.133314 -0.115852
v 0.199577 0.152833 2.109086
v 0.199728 -0.035720 2.293101
v 0.209382 0.106068 2.069775
v 0.212266 0.453600 1.786171
v 0.431023 0.570685 0.723569
v 0.406264 0.218929 0.018232
v 0.388352 0.690503 1.123383
v 0.163188 -0.080322 2.613712
v 0.398340 0.133565 0.014512
v 0.269763 -0.195790 -0.243582
v 0.421686 0.212159 0.081412
v 0.218515 0.070407 2.144981
v 0.138224 -0.121811 2.581944
v 0.155954 -0.095861 2.349475
v 0.389404 0.523638 0.882597
v 0.415793 0.197658 0.153674
v 0.398043 0.614677 1.099508
v 0.155403 0.050527 2.080939
v 0.159926 0.370296 1.742821
v 0.269831 0.489076 1.425790
v 0.315476 0.477952 0.980969
v 0.368012 0.132821 0.161202
v 0.405260 0.437823 0.604423
v 0.415640 0.346395 0.389844
v 0.339235 -0.016124 -0.102597
v 0.287992 0.271227 0.465569
v 0.316580 -0.006747 0.012596
v 0.195247 0.006050 2.162318
v 0.210065 0.427780 1.728852
v 0.348781 0.334757 0.503954
v 0.067204 0.037479 2.066713
v 0.134842 0.371313 1.671900
v 0.161263 0.435059 1.366448
v 0.173340 0.412780 0.984298
v 0.261949 -0.065207 0.017677
v 0.183687 0.426832 1.531540
v 0.247702 -0.264442 -0.189815
v 0.073109 -0.142664 2.580758
v 0.103916 -0.131923 2.446121
v 0.054275 -0.119762 2.364151
v 0.122050 -0.074332 2.261978
v 0.174733 0.328139 0.710762
v 0.223077 0.085582 0.226559
v 0.235715 -0.226977 -0.114041
v 0.049461 0.251080 1.836392
v 0.205429 -0.215344 -0.069231
v 0.277408 0.368150 0.705113
v 0.254717 0.181163 0.339595
v 0.255368 0.008427 0.108493
v 0.128807 -0.129980 2.518808
v -0.004541 -0.088599 2.271389
v -0.089667 0.287031 1.739677
v -0.006137 0.329078 1.668830
v 0.058065 0.412490 1.365536
v 0.075324 0.360923 0.861268
v 0.093090 0.043730 0.217775
v 0.120071 -0.063445 0.098820
v 0.191558 -0.371719 -0.262889
v 0.194567 -0.057366 0.073922
v 0.089761 0.376350 1.585457
v 0.191483 -0.336481 -0.193092
v 0.137212 0.427755 1.111482
v 0.041868 -0.139872 2.449268
v -0.036845 0.030549 2.064594
v -0.051186 0.406530 1.365560
v 0.014084 0.391352 0.983475
v 0.161235 -0.322895 -0.152189
v 0.105698 0.296567 0.670327
v 0.118703 0.127203 0.323248
v -0.054325 -0.110971 2.358025
v -0.132261 0.327033 1.667127
v -0.012998 0.161162 0.389890
v -0.011406 0.307165 0.718322
v 0.066005 -0.147017 2.524170
v 0.070597 -0.095323 0.080098
v -0.066490 0.231016 1.827124
v -0.053771 0.355969 1.583543
v 0.014232 0.412375 1.111374
v 0.151588 -0.387958 -0.238924
v 0.018350 -0.116545 2.635129
v 0.023058 -0.138987 2.581083
v -0.180166 0.031428 2.087715
v -0.152486 0.093863 1.994947
v -0.189169 0.357345 1.620460
v -0.182538 0.402197 1.479253
v -0.168001 0.424297 1.364677
v -0.110321 0.404485 0.982368
v -0.134141 0.167152 0.370003
v -0.144782 0.090872 0.249832
v 0.078147 -0.371569 -0.203606
v -0.041722 0.067991 0.248260
v -0.112784 -0.067991 2.259120
v -0.244257 0.122692 1.990737
v -0.299584 0.392546 1.632449
v -0.270803 0.461106 1.365217
v -0.259009 0.473250 1.239719
v -0.229439 0.129255 0.256828
v 0.006055 -0.311832 -0.150157
v -0.013660 -0.234915 -0.056519
v -0.134569 0.428470 1.111204
v 0.105651 -0.398491 -0.248797
v -0.028910 -0.131730 2.446238
v -0.317463 0.322056 1.773461
v -0.295549 0.444841 1.483887
v -0.302388 0.487121 0.982215
v 0.011075 -0.352408 -0.223073
v -0.159810 0.334961 0.713498
v -0.144196 -0.070550 0.059198
v 0.002377 -0.142486 2.523353
v -0.090178 -0.101252 2.391724
v -0.312750 0.176858 1.975067
v -0.352952 0.509670 1.418829
v -0.343788 0.531757 1.243642
v -0.312551 0.458079 0.819630
v -0.143046 -0.180521 -0.099385
v -0.262203 0.060014 0.139650
v -0.265457 0.478157 1.111018
v -0.254394 0.377732 0.707797
v -0.274968 0.216133 0.345011
v -0.016930 -0.079133 2.655102
v -0.021958 -0.119873 2.582514
v -0.155172 -0.045094 2.253933
v -0.252501 0.075818 2.081684
v -0.418331 0.428888 1.778198
v 0.006358 -0.354848 -0.254632
v -0.335541 0.396462 0.600030
v -0.319999 0.096721 0.122148
v -0.165722 -0.019699 2.171621
v -0.103794 -0.072267 2.400139
v -0.385362 0.602306 1.247496
v -0.371566 0.160757 0.058379
v -0.343610 0.106365 -0.019599
v -0.363271 0.274293 1.899268
v -0.390600 0.443499 1.679284
v -0.349562 0.545062 1.113578
v -0.359913 0.502773 0.803935
v -0.360932 0.282684 0.329794
v -0.016000 -0.051959 2.654819
v -0.040521 -0.097992 2.565837
v -0.216325 0.029703 2.166124
v -0.358673 0.260930 1.954877
v -0.402059 0.474826 0.486534
v -0.381084 0.213058 0.070220
v 0.013323 -0.355785 -0.300584
v -0.389113 0.558336 0.765013
v -0.394678 0.270051 0.210051
v -0.356704 0.362714 1.936986
v -0.426104 0.521302 1.740158
v -0.336858 0.134043 -0.045103
v 0.037826 -0.358651 -0.327863
v -0.374618 0.258604 0.067918
v -0.196297 -0.103756 -0.189204
v -0.384537 0.619264 1.071515
v -0.399414 0.490191 0.424128
v -0.402485 0.334653 0.225841
v -0.043448 -0.029682 2.466311
v -0.367229 0.606028 1.750196
v -0.376545 0.637688 1.677376
v -0.351572 0.734624 1.317189
v -0.370322 0.676611 0.877521
v -0.328068 0.173461 -0.046527
v -0.386334 0.611761 0.755012
v -0.369369 0.713558 1.216515
v -0.233225 0.103018 2.137498
v -0.254115 0.006116 -0.147319
v 0.020417 -0.008463 2.686082
v -0.304823 0.777545 1.303843
v -0.306905 0.725961 0.808245
v -0.305363 0.231084 -0.033282
v -0.270452 0.089732 -0.127201
v -0.136491 -0.052838 -0.251545
v -0.156960 -0.098309 -0.242305
v -0.377796 0.560753 0.487953
v -0.352270 0.479095 0.266086
v -0.360976 0.289669 0.066542
v -0.014607 -0.054686 2.602639
v -0.093728 0.069212 2.281579
v -0.282693 0.671161 0.587614
v -0.276904 0.610631 0.426549
v -0.178366 0.051636 -0.196137
v -0.055918 -0.145086 -0.313350
v -0.316269 0.361166 0.092320
v -0.043547 -0.069588 2.536007
v -0.067641 -0.204566 -0.309346
v -0.246382 0.665606 1.748463
v -0.279282 0.699514 1.674915
v -0.244980 0.795688 1.420946
v -0.196940 0.834465 1.255278
v -0.168657 0.805690 0.877819
v -0.224642 0.408775 0.093888
v 0.004425 -0.226361 -0.346790
v -0.345822 0.705777 1.557673
v -0.304158 0.779566 1.131389
v -0.181737 0.727750 1.673925
v -0.131609 0.811970 1.487613
v -0.078366 0.846437 1.372423
v -0.090528 0.849975 1.002110
v -0.210586 0.492235 0.189005
v -0.177360 0.608369 0.364850
v -0.004823 -0.040763 2.545560
v -0.203459 0.832228 1.130555
v -0.216604 0.751328 0.740360
v 0.109981 0.003718 2.690215
v 0.032205 -0.021250 2.655269
v 0.034530 -0.033325 2.610308
v -0.002414 0.024609 2.382683
v -0.080199 0.272856 2.089240
v -0.090486 0.689974 1.745723
v -0.090597 0.859337 1.250474
v -0.050523 0.814350 0.822063
v -0.119807 0.674106 0.476178
v -0.237280 0.751862 1.589514
v -0.182146 0.714533 0.606039
v -0.112231 0.149524 2.189527
v -0.106093 0.341134 -0.012261
v 0.030284 -0.156610 -0.343869
v -0.078953 0.864769 1.125124
v 0.082371 0.024199 2.382900
v 0.029288 0.865782 1.249533
v 0.079644 0.855890 1.000387
v 0.068146 0.831508 0.880321
v 0.075016 0.368642 -0.001200
v -0.137220 0.545447 1.884522
v 0.033704 0.868841 1.123678
v 0.109881 -0.260810 -0.366026
v 0.152055 -0.385008 -0.336430
v 0.157120 0.016659 2.764977
v 0.212024 -0.326877 -0.303931
v 0.110685 -0.015684 2.767094
v 0.075479 -0.013942 2.768432
v 0.049104 0.000203 2.773031
v 0.146129 -0.403167 -0.307534
v 0.103585 -0.396430 -0.322993
v 0.084818 0.033743 2.803075
v 0.121619 -0.367031 -0.353372
v 0.114599 -0.045711 2.740921
v 0.068585 0.045246 2.769272
v 0.047790 0.038389 2.769460
v 0.046346 0.024709 2.783040
v 0.147191 0.034564 2.763832
v 0.116901 0.045907 2.767410
v 0.182677 0.011436 2.740287
v 0.177865 -0.007695 2.744137
v 0.022930 -0.031332 2.741351
v 0.006738 -0.013062 2.744023
v 0.080865 -0.047925 2.742059
v 0.041291 -0.041649 2.741358
v 0.010084 0.010180 2.750493
v 0.138191 0.041199 2.748835
v 0.125157 -0.113901 2.641730
v 0.095887 -0.071573 2.706146
v -0.007577 -0.010157 2.720070
v 0.025089 0.027944 2.742998
v 0.074507 0.033915 2.730101
v 0.073724 0.045414 2.752187
v 0.012590 0.011642 2.719498
v 0.050814 -0.069079 2.704999
v 0.069738 -0.125005 2.634418
v 0.163996 -0.085047 2.659779
v 0.106890 0.129840 -0.207831
v 0.036781 0.813052 1.484629
v 0.108750 -0.129920 -0.339123
v 0.031168 0.725077 1.673728
v 0.188703 0.777802 0.762037
v 0.159728 0.779222 1.489586
v 0.254525 0.506429 0.207004
v 0.269496 0.793453 1.257898
v 0.320463 0.724629 0.752216
v 0.358789 0.562040 0.365695
v 0.178557 -0.340103 -0.338720
v 0.225129 -0.272840 -0.307878
v 0.420683 0.451166 0.282921
v 0.370130 0.216055 -0.042630
v 0.198247 0.303296 1.933761
v 0.203917 0.480912 1.806954
v 0.442731 0.397637 0.328116
v 0.385966 0.122401 -0.039627
v 0.184459 -0.048381 2.254417
v 0.153806 -0.109656 2.436239
v 0.181228 0.367226 1.808145
v 0.143997 0.001789 2.768553
v 0.185412 -0.374253 -0.304089
v 0.307180 0.512530 1.246067
v 0.121562 0.150555 1.969611
v 0.109143 0.301625 1.806656
v 0.351023 0.457569 0.812454
v 0.218199 -0.335736 -0.265411
v 0.221682 0.394798 0.858076
v 0.063959 0.314051 1.741521
v 0.197643 0.452343 1.240845
v 0.089522 0.399190 1.482296
v 0.216960 0.252400 0.499367
v 0.107215 0.185179 0.425800
v 0.160574 -0.399553 -0.287828
v 0.057509 0.419969 1.240693
v -0.051347 0.384432 1.481458
v 0.012818 0.232430 0.542861
v -0.118462 0.425230 1.240560
v -0.070188 0.363175 0.858303
v -0.239281 0.306532 1.742306
v 0.046675 -0.299620 -0.112022
v -0.106260 0.225993 0.494509
v -0.047574 -0.078941 0.087751
v 0.116929 -0.405455 -0.307838
v -0.213341 0.405992 0.858453
v -0.206268 0.434641 0.982542
v -0.221500 0.270005 0.501691
v 0.058444 -0.389174 -0.270831
v -0.327467 0.311555 0.437661
v -0.301373 0.021381 -0.008711
v -0.368882 0.170701 0.141516
v -0.285351 0.003616 -0.090881
v -0.384518 0.552321 1.423190
v -0.060519 -0.291965 -0.237001
v -0.365030 0.549368 0.944052
v -0.382352 0.415566 0.503434
v -0.083086 -0.252887 -0.266666
v -0.420000 0.469297 1.813211
v 0.081276 -0.384830 -0.330143
v -0.391638 0.433842 0.279029
v -0.132207 0.000860 2.309861
v -0.091745 -0.209180 -0.285738
v -0.366898 0.545976 1.815881
v -0.315923 0.756641 0.999649
v -0.344123 0.584581 0.456717
v 0.084245 -0.369471 -0.346258
v -0.307552 0.479518 0.226040
v -0.061425 0.012671 2.375180
v -0.339072 0.472581 1.889768
v -0.215796 0.234078 2.080725
v -0.275634 0.595857 1.815991
v -0.216514 0.813631 1.003714
v -0.212783 0.237847 -0.075773
v -0.158027 0.256971 2.087833
v -0.172523 0.151302 -0.150508
v -0.163629 0.622756 1.814688
v 0.000256 -0.055345 -0.306019
v -0.130015 0.535086 0.220703
v -0.021764 0.100665 -0.219261
v -0.007341 0.534654 0.199307
v -0.075983 0.738046 1.672640
v 0.160364 0.023314 2.724057
v 0.163590 0.029399 2.744325
v 0.192787 -0.012763 2.710475
v 0.190524 -0.030613 2.713841
vn 0.1558 0.9785 0.1354
vn -0.2396 0.7675 0.5946
vn 0.1106 0.2801 0.9536
vn -0.0820 -0.2259 -0.9707
vn 0.3178 -0.1656 -0.9336
vn 0.0513 -0.4926 -0.8687
vn -0.0574 0.6346 0.7707
vn 0.1981 0.6284 0.7522
vn -0.0438 0.6250 0.7794
vn 0.1328 0.6743 0.7264
vn 0.1298 0.6747 0.7266
vn -0.0783 0.9229 0.3771
vn 0.0088 0.8675 0.4973
vn 0.1352 0.9019 0.4102
vn -0.0775 0.7031 0.7069
vn -0.0907 0.9776 0.1901
vn 0.1183 0.9425 0.3125
vn 0.1679 0.9599 0.2244
vn 0.0393 0.9986 -0.0345
vn 0.0626 0.9932 0.0977
vn 0.2370 0.9714 -0.0108
vn 0.1048 0.2923 -0.9506
vn 0.3414 0.1440 -0.9288
vn 0.0779 0.0818 -0.9936
vn -0.0991 0.9564 -0.2748
vn 0.0751 0.9694 -0.2338
vn 0.0671 0.9435 -0.3244
vn -0.0112 0.8979 -0.4400
vn -0.0529 0.9301 -0.3634
vn 0.1068 0.9005 -0.4215
vn 0.5711 -0.0268 -0.8204
vn 0.1097 0.7919 -0.6007
vn 0.1595 0.7425 -0.6506
vn 0.0165 0.7180 -0.6959
vn 0.1342 0.8836 0.4487
vn 0.2913 0.8000 0.5245
vn -0.0272 0.8134 0.5811
vn 0.0269 0.5775 -0.8160
vn 0.2003 0.5267 -0.8261
vn -0.0167 0.4660 -0.8846
vn 0.2385 0.7357 0.6339
vn 0.0071 0.7882 0.6153
vn 0.1775 0.8305 0.5280
vn 0.2183 0.4012 -0.8896
vn 0.2878 0.9495 0.1247
vn 0.4189 0.2400 -0.8758
vn 0.1047 0.9839 -0.1450
vn 0.3193 0.9258 -0.2025
vn 0.2349 0.9287 -0.2871
vn 0.2287 0.9139 -0.3354
vn 0.3398 0.6157 0.7110
vn 0.3161 0.7097 0.6296
vn 0.4077 0.6318 0.6592
vn 0.3624 0.7606 0.5386
vn 0.3447 0.8729 0.3454
vn 0.3600 0.8989 0.2499
vn 0.4457 0.8948 0.0271
vn 0.4267 0.8993 -0.0958
vn 0.2220 0.8898 -0.3988
vn 0.2560 0.8311 -0.4937
vn 0.0888 0.8520 -0.5160
vn 0.2555 0.7856 -0.5635
vn 0.3194 0.9008 0.2941
vn 0.3894 0.8110 0.4366
vn 0.0475 0.7303 0.6815
vn 0.3285 0.6954 -0.6391
vn 0.2156 0.6376 -0.7396
vn 0.3784 0.8405 -0.3878
vn 0.4364 0.7399 -0.5120
vn 0.5279 0.7549 0.3891
vn 0.3451 0.9346 0.0857
vn 0.7497 0.5959 0.2878
vn 0.5465 0.5482 0.6331
vn 0.3982 0.4798 -0.7818
vn 0.4802 0.6104 0.6300
vn 0.5846 0.7649 0.2704
vn 0.5185 0.8405 0.1575
vn 0.3727 0.8139 0.4456
vn 0.5919 0.7174 0.3674
vn 0.6562 0.1352 -0.7424
vn 0.4575 0.8561 -0.2403
vn 0.6358 0.7586 -0.1425
vn 0.6410 0.3013 -0.7059
vn 0.4669 0.3580 -0.8086
vn 0.6304 0.5605 0.5370
vn 0.6706 0.7395 0.0578
vn 0.7450 0.6667 -0.0211
vn 0.4214 0.8560 -0.2994
vn 0.6352 0.7355 -0.2356
vn 0.6984 0.6627 -0.2703
vn 0.5608 0.5945 -0.5763
vn 0.1359 0.8119 0.5677
vn 0.4532 0.5481 -0.7030
vn 0.7716 0.4785 0.4192
vn 0.6508 0.6318 -0.4211
vn 0.7880 0.4316 -0.4391
vn 0.6892 0.3700 -0.6230
vn 0.9318 0.1927 0.3077
vn 0.7154 0.1697 -0.6778
vn 0.8191 0.4761 0.3200
vn 0.8204 0.5379 0.1937
vn 0.6289 0.6296 0.4561
vn 0.9281 0.3551 0.1117
vn 0.8624 -0.0214 -0.5057
vn 0.9286 0.3707 -0.0164
vn 0.8702 0.4756 -0.1287
vn 0.8223 -0.1407 -0.5514
vn 0.8329 0.4404 -0.3351
vn 0.4942 0.7671 -0.4091
vn 0.8832 0.2396 0.4031
vn 0.9443 0.2979 -0.1398
vn 0.6683 0.0871 0.7388
vn 0.8344 -0.3431 -0.4313
vn 0.6226 -0.2972 -0.7239
vn 0.9691 0.1492 -0.1964
vn 0.9106 0.1710 -0.3762
vn 0.7898 0.5536 0.2641
vn 0.8298 0.5527 0.0772
vn 0.9992 -0.0391 0.0059
vn 0.9984 -0.0554 0.0079
vn 0.9895 -0.1002 -0.1042
vn 0.7907 -0.3932 -0.4693
vn 0.9797 -0.1059 -0.1703
vn 0.9693 -0.1358 0.2048
vn 0.8712 0.2271 0.4353
vn 0.9671 0.0812 0.2412
vn 0.9740 -0.1799 0.1380
vn 0.9977 0.0620 0.0292
vn 0.9263 -0.1708 -0.3358
vn 0.9270 -0.3244 0.1882
vn 0.4269 -0.4871 0.7619
vn 0.8434 -0.4637 0.2714
vn 0.8991 -0.3968 0.1848
vn 0.6548 -0.3338 0.6781
vn 0.9656 -0.2539 0.0564
vn 0.9535 -0.3003 0.0257
vn 0.6213 -0.6634 -0.4170
vn 0.9491 -0.1113 -0.2946
vn 0.9365 -0.2856 -0.2035
vn 0.6295 -0.7746 -0.0613
vn 0.4555 -0.8643 -0.2135
vn 0.6275 -0.5576 -0.5434
vn 0.7861 -0.5539 -0.2743
vn 0.9524 -0.2905 -0.0921
vn 0.9346 -0.3358 -0.1172
vn 0.7930 -0.5657 0.2261
vn 0.7412 -0.6595 0.1253
vn 0.7279 -0.6493 0.2202
vn 0.5480 -0.8157 0.1854
vn 0.6151 -0.7455 0.2566
vn 0.6223 -0.7064 0.3373
vn 0.6764 -0.6304 0.3809
vn 0.3482 -0.6887 0.6359
vn 0.8560 -0.4820 0.1867
vn 0.3506 -0.6916 -0.6315
vn 0.6236 -0.7360 -0.2633
vn 0.8159 -0.5782 -0.0046
vn 0.6398 -0.7685 0.0044
vn 0.1943 -0.9012 -0.3875
vn 0.5742 -0.7583 -0.3087
vn 0.7187 -0.5658 0.4041
vn 0.4711 -0.8545 -0.2187
vn 0.4872 -0.7358 -0.4703
vn 0.4599 -0.8802 -0.1170
vn 0.8282 -0.5044 0.2442
vn 0.5803 -0.8124 0.0574
vn 0.4349 -0.8927 0.1183
vn 0.4482 -0.8330 0.3245
vn 0.4696 -0.7838 0.4063
vn 0.1450 -0.6527 0.7436
vn 0.8617 -0.5073 -0.0131
vn 0.7262 -0.6134 -0.3104
vn 0.5841 -0.6800 0.4432
vn 0.4925 -0.6879 0.5331
vn 0.3576 -0.8914 0.2784
vn 0.2647 -0.9401 0.2149
vn 0.3659 -0.7831 0.5028
vn 0.6782 -0.7161 0.1652
vn 0.4236 -0.9058 -0.0079
vn 0.2396 -0.9586 -0.1541
vn 0.1390 -0.7695 -0.6233
vn 0.3610 -0.6444 -0.6741
vn 0.2953 -0.7505 -0.5913
vn 0.2059 -0.8366 -0.5077
vn 0.5627 -0.5838 0.5852
vn 0.6784 -0.5642 0.4706
vn 0.3138 -0.8448 -0.4335
vn 0.2591 -0.9366 -0.2360
vn 0.3329 -0.9400 -0.0743
vn 0.3543 -0.9348 0.0232
vn 0.0639 -0.7928 -0.6061
vn 0.1438 -0.9197 -0.3654
vn 0.2223 -0.9602 -0.1690
vn 0.2119 -0.9714 0.1075
vn 0.5679 -0.6901 0.4487
vn 0.2751 -0.8967 0.3467
vn 0.3252 -0.8547 0.4047
vn 0.2489 -0.7673 0.5911
vn 0.3597 -0.6569 0.6626
vn 0.0590 -0.9599 -0.2739
vn -0.0070 -0.8743 -0.4853
vn 0.1450 -0.9169 0.3718
vn 0.2661 -0.9239 -0.2749
vn 0.3410 -0.6878 -0.6408
vn 0.4369 -0.8987 0.0372
vn 0.1449 -0.8204 0.5531
vn 0.1132 -0.7477 0.6543
vn 0.2353 -0.6704 0.7037
vn -0.0346 -0.9281 -0.3708
vn 0.0841 -0.9964 -0.0067
vn -0.0002 -0.9874 -0.1580
vn 0.2451 -0.6590 0.7110
vn 0.0150 -0.8636 -0.5040
vn 0.0199 -0.9516 -0.3067
vn 0.4936 -0.6061 0.6237
vn 0.1350 -0.9844 -0.1126
vn 0.1037 -0.9945 -0.0125
vn 0.0115 -0.9955 0.0945
vn 0.1018 -0.9479 0.3020
vn -0.0121 -0.8090 -0.5877
vn -0.0772 -0.9034 -0.4217
vn -0.0119 -0.9736 -0.2281
vn -0.0447 -0.9889 -0.1415
vn 0.3411 -0.7204 0.6039
vn 0.2999 -0.8644 0.4036
vn -0.0569 -0.9312 0.3599
vn 0.0095 -0.9753 0.2206
vn 0.1471 -0.8811 0.4495
vn -0.0180 -0.9127 0.4082
vn -0.0377 -0.8715 0.4889
vn -0.0722 -0.7761 0.6264
vn 0.1501 -0.7327 0.6638
vn -0.0308 -0.7492 0.6617
vn 0.0496 -0.6762 0.7350
vn -0.2069 -0.8809 0.4256
vn -0.2413 -0.8314 0.5006
vn 0.0170 -0.9952 0.0960
vn -0.1577 -0.7130 0.6832
vn -0.2215 -0.9509 -0.2161
vn -0.2303 -0.9719 0.0488
vn -0.2694 -0.9595 -0.0818
vn -0.0225 -0.6893 0.7242
vn -0.1244 -0.7802 -0.6131
vn -0.1628 -0.7894 -0.5918
vn -0.2093 -0.9007 -0.3807
vn -0.1799 -0.9826 -0.0470
vn -0.2314 -0.9701 0.0734
vn 0.0909 -0.7401 0.6663
vn 0.0862 -0.8107 0.5791
vn -0.0888 -0.9415 0.3251
vn -0.1476 -0.9441 0.2948
vn -0.2539 -0.8386 -0.4820
vn -0.1706 -0.7712 0.6133
vn -0.1951 -0.8655 0.4614
vn -0.2365 -0.9369 -0.2576
vn -0.2475 -0.9552 -0.1625
vn -0.2942 -0.8910 0.3459
vn -0.2357 -0.7722 0.5900
vn -0.1116 -0.6439 0.7569
vn -0.2804 -0.7070 0.6492
vn -0.3382 -0.7200 0.6060
vn -0.3894 -0.8547 -0.3434
vn -0.2695 -0.7276 0.6308
vn -0.2709 -0.8229 -0.4994
vn -0.0527 -0.9580 -0.2817
vn -0.3497 -0.7556 0.5538
vn -0.2878 -0.9138 -0.2867
vn -0.4878 -0.7435 0.4575
vn -0.3745 -0.7769 -0.5062
vn -0.4434 -0.7520 -0.4878
vn -0.4548 -0.8107 -0.3686
vn -0.3870 -0.7884 0.4782
vn -0.4519 -0.8757 -0.1702
vn -0.4679 -0.8426 -0.2666
vn -0.4442 -0.8936 -0.0645
vn -0.4945 -0.8202 0.2878
vn -0.2007 -0.9593 0.1987
vn -0.3983 -0.8801 0.2585
vn -0.3789 -0.9091 0.1733
vn -0.4924 -0.8161 0.3026
vn -0.3350 -0.9344 -0.1209
vn -0.4202 -0.8176 0.3936
vn -0.4890 -0.7393 0.4628
vn -0.6472 -0.7081 0.2824
vn -0.4863 -0.8724 0.0494
vn -0.6055 -0.7849 0.1312
vn -0.1425 -0.8429 -0.5189
vn -0.5059 -0.7100 0.4898
vn -0.6140 -0.7889 0.0256
vn -0.6733 -0.7389 -0.0262
vn -0.6185 -0.7684 0.1642
vn -0.7031 -0.6573 -0.2713
vn -0.7056 -0.6779 -0.2062
vn -0.7208 -0.6127 -0.3242
vn -0.7260 -0.6875 -0.0169
vn -0.7205 -0.6889 -0.0789
vn -0.7008 -0.6885 -0.1869
vn -0.6116 -0.7369 -0.2880
vn -0.7801 -0.6255 0.0142
vn -0.6189 -0.7514 0.2287
vn -0.6221 -0.6839 0.3811
vn -0.6643 -0.6931 0.2798
vn -0.7255 -0.5907 0.3532
vn -0.6816 -0.6394 0.3558
vn -0.6274 -0.7253 -0.2835
vn -0.6114 -0.7904 0.0378
vn -0.8201 -0.5433 0.1794
vn -0.8382 -0.5344 0.1089
vn -0.6652 -0.6676 0.3345
vn -0.4208 -0.9005 0.1095
vn -0.8534 -0.4713 0.2228
vn -0.8060 -0.5803 0.1168
vn -0.8766 -0.4392 0.1969
vn -0.7872 -0.6148 0.0483
vn -0.9528 -0.2946 -0.0727
vn -0.9241 -0.0907 0.3712
vn -0.7851 -0.5678 -0.2476
vn -0.9244 -0.2066 0.3206
vn -0.9608 -0.2466 0.1264
vn -0.9388 -0.3202 -0.1269
vn -0.9918 -0.0971 -0.0836
vn -0.8855 -0.4425 -0.1419
vn -0.7673 -0.6365 -0.0779
vn -0.9913 -0.1314 -0.0047
vn -0.9837 -0.1616 0.0786
vn -0.9527 -0.2783 0.1225
vn -0.7871 -0.5025 -0.3577
vn -0.6702 -0.4248 -0.6086
vn -0.9992 -0.0185 0.0366
vn -0.5982 0.2011 0.7757
vn -0.3301 -0.5143 0.7915
vn -0.9920 0.0596 -0.1117
vn -0.9735 -0.0239 -0.2275
vn -0.9286 -0.2943 -0.2261
vn -0.8594 0.0172 -0.5110
vn -0.8838 -0.3821 -0.2701
vn -0.7352 0.2177 0.6419
vn -0.8954 0.2268 0.3831
vn -0.9588 0.2305 0.1660
vn -0.7020 0.4478 0.5538
vn -0.7782 0.2482 0.5769
vn -0.6182 0.2890 0.7310
vn -0.9115 0.4017 0.0880
vn -0.8553 0.5096 -0.0939
vn -0.8305 -0.3358 -0.4444
vn -0.7401 -0.2727 -0.6147
vn -0.9642 0.2607 -0.0490
vn -0.5109 -0.6297 -0.5852
vn -0.3376 -0.7664 -0.5465
vn -0.9504 0.2845 -0.1260
vn -0.8730 0.3908 -0.2918
vn -0.8859 0.2339 -0.4006
vn -0.8106 0.5511 -0.1980
vn -0.2568 -0.5629 -0.7856
vn -0.7114 0.4663 -0.5258
vn -0.7950 0.5086 0.3306
vn -0.4945 0.7709 0.4015
vn -0.5369 0.4998 0.6797
vn -0.7053 0.2866 -0.6484
vn -0.6639 0.6826 0.3054
vn -0.5724 0.6605 0.4859
vn -0.6241 0.2124 -0.7519
vn -0.6818 -0.0559 -0.7294
vn -0.7811 -0.0973 -0.6168
vn -0.8591 0.5114 -0.0214
vn -0.7524 0.6565 0.0537
vn -0.5197 0.4901 -0.6998
vn -0.3110 0.4941 -0.8119
vn -0.4387 0.5036 0.7443
vn -0.3890 0.4759 0.7888
vn -0.6160 0.7610 0.2034
vn -0.5027 0.1880 -0.8437
vn -0.5560 0.8290 0.0603
vn -0.5868 0.8086 -0.0420
vn -0.6240 0.7734 -0.1114
vn -0.5599 0.8033 -0.2032
vn -0.4311 -0.2803 -0.8577
vn -0.4362 0.8476 -0.3023
vn -0.5945 0.7405 -0.3136
vn -0.4033 0.7293 -0.5526
vn -0.2681 0.7213 -0.6386
vn -0.4887 0.6409 -0.5919
vn -0.3894 0.7730 0.5008
vn -0.3453 0.6942 0.6315
vn -0.2521 0.6477 0.7190
vn -0.4333 0.3292 -0.8390
vn -0.3690 0.8317 0.4149
vn -0.4233 0.1474 -0.8939
vn -0.3807 0.9082 0.1740
vn -0.5759 -0.0954 -0.8120
vn -0.2775 0.3754 -0.8843
vn -0.2601 0.6778 0.6877
vn -0.2379 0.7785 0.5808
vn -0.3141 0.8930 0.3223
vn -0.3285 0.9425 0.0614
vn -0.3493 0.0207 -0.9368
vn -0.3800 0.9145 -0.1388
vn -0.2851 0.9304 -0.2303
vn -0.3200 0.9062 -0.2763
vn -0.2347 0.9092 -0.3439
vn -0.4452 0.8610 0.2460
vn -0.3640 0.8078 -0.4636
vn -0.2470 0.7741 -0.5829
vn -0.1166 0.6226 -0.7738
vn 0.0258 0.6558 -0.7545
vn -0.2221 0.5773 0.7857
vn -0.1605 0.8224 -0.5458
vn -0.1437 0.6888 -0.7105
vn -0.3358 0.6507 -0.6810
vn -0.0854 0.7599 -0.6444
vn -0.1600 0.8652 0.4753
vn -0.1616 0.2219 -0.9616
vn -0.1407 0.9522 0.2713
vn -0.3544 0.9340 -0.0451
vn -0.1356 0.9898 -0.0431
vn -0.1823 -0.0217 -0.9830
vn -0.1508 0.9769 -0.1516
vn -0.1508 0.9013 -0.4060
vn -0.3557 0.8501 -0.3883
vn -0.1954 0.8699 -0.4528
vn -0.1415 0.9873 0.0725
vn -0.0738 0.8683 -0.4905
vn -0.1203 0.8665 0.4844
vn -0.2873 0.5874 -0.7566
vn -0.2217 0.5974 0.7707
vn -0.1341 0.5346 -0.8344
vn -0.0310 0.8231 -0.5671
vn -0.0470 0.9421 0.3320
vn -0.1711 0.3354 -0.9264
vn -0.8189 0.3654 0.4427
vn 0.8564 0.4767 0.1983
vn -0.1077 0.9658 -0.2359
vn 0.2308 0.9521 -0.2005
vn -0.0695 0.8533 -0.5168
vn 0.3414 0.8054 -0.4845
vn 0.7926 -0.4597 0.4006
vn 0.9692 -0.2039 -0.1381
vn 0.6320 -0.7225 0.2803
vn 0.2887 -0.8768 0.3845
vn 0.0174 -0.8195 0.5728
vn -0.1493 -0.7930 0.5907
vn -0.0017 -0.8973 0.4414
vn -0.4088 -0.6018 0.6861
vn -0.6642 -0.3310 0.6703
vn -0.7510 -0.4685 0.4653
vn -0.9508 0.2934 0.0996
vn -0.4913 0.8607 -0.1339
vn 0.0532 0.8059 -0.5896
vn 0.1365 0.8958 -0.4230
vn -0.2416 0.8996 -0.3638
vn -0.2801 0.8053 -0.5225
vn -0.1808 0.9762 -0.1199
vn -0.0284 0.9935 0.1101
vn -0.3818 0.9041 0.1918
vn -0.6521 0.7576 0.0293
vn -0.8672 0.4965 -0.0386
vn -0.4896 0.7932 -0.3620
vn -0.9360 -0.1717 0.3073
vn -0.5786 -0.7583 0.3003
vn -0.2952 -0.8273 0.4780
vn -0.2010 -0.9533 0.2253
vn 0.0992 -0.9803 0.1711
vn 0.5439 -0.8326 0.1051
vn 0.9866 -0.1067 -0.1237
vn 0.5218 0.6970 -0.4919
vn 0.8982 0.3808 -0.2197
vn 0.6664 0.7260 -0.1696
vn 0.2020 0.9629 -0.1788
vn 0.8450 0.1076 -0.5238
vn 0.9571 -0.2836 -0.0592
vn -0.8214 -0.5354 -0.1968
vn -0.6139 0.6591 -0.4345
vn -0.5407 0.5696 0.6190
vn -0.1769 0.9711 0.1601
vn 0.5644 0.8254 -0.0133
vt 0.953439 0.274387
vt 0.968893 0.266927
vt 0.986494 0.271146
vt 0.081466 0.194884
vt 0.065419 0.276699
vt 0.048603 0.260521
vt 0.787697 0.222899
vt 0.775218 0.335473
vt 0.746068 0.234729
vt 0.791054 0.300075
vt 0.733931 0.304273
vt 0.683823 0.231716
vt 0.699142 0.257866
vt 0.683823 0.293002
vt 0.729779 0.226561
vt 0.653186 0.232292
vt 0.668505 0.289037
vt 0.653186 0.300310
vt 0.622549 0.266355
vt 0.637867 0.269773
vt 0.622549 0.311778
vt 0.186712 0.273642
vt 0.124690 0.310621
vt 0.123407 0.252917
vt 0.584127 0.228542
vt 0.591912 0.274552
vt 0.571843 0.274682
vt 0.515836 0.257655
vt 0.554105 0.239092
vt 0.520921 0.293852
vt 0.091736 0.366751
vt 0.443389 0.299058
vt 0.394686 0.328348
vt 0.389700 0.281075
vt 0.836501 0.301445
vt 0.821627 0.339024
vt 0.821627 0.247279
vt 0.292478 0.288095
vt 0.274562 0.324361
vt 0.250728 0.262069
vt 0.714460 0.335309
vt 0.714461 0.258472
vt 0.699142 0.308033
vt 0.221680 0.313866
vt 0.637867 0.327170
vt 0.163845 0.349030
vt 0.607230 0.280972
vt 0.591912 0.340750
vt 0.576593 0.321597
vt 0.553973 0.329454
vt 0.733480 0.376649
vt 0.806372 0.350266
vt 0.791054 0.375650
vt 0.699142 0.358568
vt 0.668505 0.346955
vt 0.653186 0.346920
vt 0.622549 0.366025
vt 0.607230 0.362937
vt 0.525816 0.333820
vt 0.485346 0.351361
vt 0.477152 0.290353
vt 0.456081 0.340480
vt 0.850613 0.345301
vt 0.836501 0.365928
vt 0.806372 0.273762
vt 0.371982 0.376944
vt 0.331054 0.348804
vt 0.512162 0.371100
vt 0.475092 0.396773
vt 0.921102 0.308732
vt 0.963391 0.372698
vt 0.921189 0.377016
vt 0.863582 0.349829
vt 0.846549 0.414307
vt 0.764703 0.420977
vt 0.281774 0.382284
vt 0.717004 0.402593
vt 0.653186 0.397494
vt 0.637867 0.380776
vt 0.683823 0.358469
vt 0.668505 0.404928
vt 0.149499 0.403666
vt 0.576593 0.384811
vt 0.588546 0.411604
vt 0.273890 0.446877
vt 0.220262 0.371636
vt 0.702060 0.424983
vt 0.622549 0.412494
vt 0.607230 0.431693
vt 0.553761 0.381844
vt 0.553075 0.417637
vt 0.522597 0.428346
vt 0.372955 0.424223
vt 0.814684 0.412099
vt 0.330934 0.405349
vt 0.795747 0.439412
vt 0.481699 0.426794
vt 0.388862 0.451869
vt 0.328879 0.448834
vt 0.751498 0.473267
vt 0.197679 0.437257
vt 0.660833 0.448322
vt 0.637867 0.445067
vt 0.683823 0.416090
vt 0.622549 0.465593
vt 0.147294 0.463570
vt 0.594114 0.464204
vt 0.553276 0.453850
vt 0.086752 0.455656
vt 0.481756 0.452313
vt 0.505820 0.400226
vt 0.688271 0.472759
vt 0.506818 0.476538
vt 0.955693 0.451062
vt 0.924655 0.470679
vt 0.053999 0.454339
vt 0.040890 0.447128
vt 0.443857 0.484484
vt 0.363677 0.482848
vt 0.846721 0.474425
vt 0.863582 0.424926
vt 0.803823 0.495597
vt 0.494102 0.497778
vt 0.395183 0.508708
vt 0.788236 0.551694
vt 0.760655 0.499278
vt 0.722414 0.514259
vt 0.728221 0.474125
vt 0.654186 0.487084
vt 0.620822 0.516380
vt 0.572081 0.490765
vt 0.132025 0.515116
vt 0.674916 0.531861
vt 0.984792 0.514271
vt 0.929573 0.560463
vt 0.514951 0.563506
vt 0.430348 0.548610
vt 0.919092 0.533830
vt 0.863582 0.505186
vt 0.828440 0.511249
vt 0.806372 0.573652
vt 0.317939 0.517665
vt 0.745098 0.533555
vt 0.850613 0.574451
vt 0.836501 0.599279
vt 0.746627 0.593511
vt 0.729779 0.564679
vt 0.250388 0.554062
vt 0.124466 0.571516
vt 0.555801 0.561171
vt 0.624868 0.574573
vt 0.594781 0.562070
vt 0.063682 0.517170
vt 0.607230 0.611231
vt 0.587426 0.592188
vt 0.536218 0.601959
vt 0.428017 0.587827
vt 0.917990 0.621021
vt 0.320131 0.586654
vt 0.791054 0.612077
vt 0.714461 0.603344
vt 0.711879 0.550049
vt 0.659843 0.596472
vt 0.821627 0.651107
vt 0.821627 0.575599
vt 0.336737 0.617108
vt 0.699142 0.638397
vt 0.729779 0.627235
vt 0.675540 0.634317
vt 0.156998 0.641554
vt 0.637867 0.594915
vt 0.622549 0.640858
vt 0.570880 0.638441
vt 0.529122 0.636837
vt 0.932579 0.678053
vt 0.935530 0.593083
vt 0.989533 0.607191
vt 0.090647 0.628625
vt 0.052550 0.604436
vt 0.491093 0.598804
vt 0.398952 0.651523
vt 0.591912 0.662813
vt 0.607230 0.680850
vt 0.495177 0.653901
vt 0.090179 0.688805
vt 0.046469 0.637276
vt 0.863582 0.614496
vt 0.850613 0.661975
vt 0.787597 0.684164
vt 0.766814 0.625043
vt 0.736495 0.667951
vt 0.806372 0.646059
vt 0.342283 0.654392
vt 0.212736 0.669747
vt 0.714461 0.665052
vt 0.683823 0.675713
vt 0.653186 0.664458
vt 0.637867 0.657086
vt 0.734312 0.726072
vt 0.699142 0.709930
vt 0.668505 0.687221
vt 0.622549 0.691295
vt 0.150597 0.705171
vt 0.572000 0.683022
vt 0.536575 0.667677
vt 0.463823 0.671838
vt 0.377661 0.688115
vt 0.836501 0.719920
vt 0.806372 0.742749
vt 0.565819 0.709559
vt 0.043519 0.692059
vt 0.025123 0.702972
vt 0.009804 0.699142
vt 0.068141 0.726985
vt 0.493123 0.709274
vt 0.453966 0.719970
vt 0.390256 0.713291
vt 0.821627 0.761465
vt 0.863582 0.719775
vt 0.850613 0.742036
vt 0.267516 0.726513
vt 0.714461 0.740998
vt 0.683823 0.741132
vt 0.251247 0.693251
vt 0.653186 0.710582
vt 0.637867 0.718581
vt 0.622549 0.741447
vt 0.591912 0.722481
vt 0.786811 0.752131
vt 0.699142 0.768050
vt 0.668505 0.748838
vt 0.653186 0.756531
vt 0.186326 0.731113
vt 0.116885 0.750361
vt 0.572482 0.756588
vt 0.607230 0.744628
vt 0.065609 0.749335
vt 0.521553 0.713917
vt 0.543419 0.745665
vt 0.511476 0.755950
vt 0.467200 0.768206
vt 0.921861 0.687004
vt 0.922532 0.755497
vt 0.376733 0.745302
vt 0.536135 0.793204
vt 0.507213 0.802115
vt 0.077966 0.807081
vt 0.046338 0.760862
vt 0.391697 0.784373
vt 0.836501 0.833751
vt 0.863582 0.816149
vt 0.850613 0.834384
vt 0.285081 0.764188
vt 0.774166 0.802453
vt 0.732845 0.789061
vt 0.690199 0.804047
vt 0.637867 0.790681
vt 0.622549 0.801841
vt 0.226945 0.752469
vt 0.171102 0.768610
vt 0.113747 0.803453
vt 0.591912 0.778753
vt 0.714461 0.813758
vt 0.231636 0.790602
vt 0.157961 0.804726
vt 0.668505 0.806862
vt 0.653186 0.807042
vt 0.571580 0.813097
vt 0.469363 0.806504
vt 0.932431 0.791071
vt 0.921205 0.835371
vt 0.379236 0.827576
vt 0.806372 0.870152
vt 0.286556 0.800156
vt 0.791054 0.844715
vt 0.055506 0.822113
vt 0.042401 0.814983
vt 0.473330 0.838038
vt 0.821628 0.862240
vt 0.266746 0.842209
vt 0.772854 0.855733
vt 0.722303 0.867296
vt 0.692083 0.851141
vt 0.206602 0.826508
vt 0.653186 0.857669
vt 0.668505 0.864652
vt 0.637867 0.857028
vt 0.157041 0.851160
vt 0.607230 0.794072
vt 0.591912 0.839196
vt 0.607230 0.836018
vt 0.571282 0.856200
vt 0.078963 0.880797
vt 0.537145 0.839522
vt 0.499349 0.864664
vt 0.263317 0.880006
vt 0.622549 0.863910
vt 0.607230 0.886862
vt 0.029429 0.850084
vt 0.025123 0.856158
vt 0.009804 0.852328
vt 0.053271 0.849681
vt 0.424743 0.865727
vt 0.843420 0.913906
vt 0.821628 0.921155
vt 0.863582 0.902853
vt 0.767964 0.901620
vt 0.791054 0.917622
vt 0.699780 0.916081
vt 0.162313 0.926786
vt 0.637868 0.911591
vt 0.659642 0.910086
vt 0.683823 0.894742
vt 0.622549 0.921503
vt 0.586804 0.891321
vt 0.522972 0.894979
vt 0.553606 0.904715
vt 0.494924 0.917650
vt 0.416212 0.901994
vt 0.106121 0.953314
vt 0.133841 0.895737
vt 0.584628 0.925855
vt 0.602107 0.937827
vt 0.536003 0.946548
vt 0.108204 0.867160
vt 0.052014 0.915735
vt 0.055760 0.902114
vt 0.425904 0.936623
vt 0.354762 0.917052
vt 0.806920 0.952642
vt 0.267608 0.918460
vt 0.392183 0.962226
vt 0.844715 0.978487
vt 0.751860 0.922813
vt 0.763320 0.964548
vt 0.745098 0.965807
vt 0.721110 0.954816
vt 0.666558 0.980099
vt 0.660031 0.944567
vt 0.637868 0.964562
vt 0.619077 0.971333
vt 0.579347 0.977800
vt 0.453546 0.968934
vt 0.158975 0.979785
vt 0.124465 0.990196
vt 0.529283 0.989025
vt 0.954342 0.978192
vt 0.968723 0.969509
vt 0.990196 0.974877
vt 0.459116 0.987415
vt 0.397943 0.985576
vt 0.344233 0.977890
vt 0.316176 0.990196
vt 0.295846 0.965776
vt 0.806372 0.990196
vt 0.729779 0.982290
vt 0.711230 0.989314
vt 0.821655 0.021100
vt 0.842824 0.022705
vt 0.829148 0.069833
vt 0.397760 0.014707
vt 0.336006 0.029294
vt 0.343679 0.011107
vt 0.745098 0.009804
vt 0.765783 0.016384
vt 0.745098 0.043118
vt 0.801698 0.044172
vt 0.760473 0.068900
vt 0.658561 0.012697
vt 0.688852 0.048294
vt 0.592576 0.070689
vt 0.216349 0.019940
vt 0.167344 0.065383
vt 0.159107 0.019971
vt 0.622105 0.012743
vt 0.576894 0.036615
vt 0.586732 0.009804
vt 0.086397 0.009804
vt 0.086178 0.043932
vt 0.055112 0.019284
vt 0.534382 0.013122
vt 0.520061 0.032781
vt 0.463034 0.014982
vt 0.479845 0.052927
vt 0.398120 0.041368
vt 0.533270 0.064352
vt 0.059896 0.091627
vt 0.050279 0.051625
vt 0.398197 0.068738
vt 0.863624 0.065304
vt 0.850613 0.130015
vt 0.806372 0.096963
vt 0.339893 0.059938
vt 0.712270 0.029054
vt 0.699142 0.092862
vt 0.729779 0.033622
vt 0.714461 0.105905
vt 0.293745 0.075164
vt 0.212680 0.080273
vt 0.267928 0.035131
vt 0.633113 0.061962
vt 0.645187 0.082588
vt 0.355255 0.093271
vt 0.310856 0.160363
vt 0.746720 0.105573
vt 0.787768 0.119761
vt 0.678154 0.106603
vt 0.230868 0.126648
vt 0.643408 0.117457
vt 0.622549 0.113146
vt 0.607230 0.103775
vt 0.583209 0.113198
vt 0.123828 0.056233
vt 0.108125 0.126762
vt 0.552152 0.127552
vt 0.527608 0.093693
vt 0.967381 0.121553
vt 0.971784 0.114358
vt 0.990196 0.117034
vt 0.025123 0.113205
vt 0.036666 0.122721
vt 0.009804 0.117034
vt 0.051245 0.111935
vt 0.464805 0.117483
vt 0.423124 0.160101
vt 0.414924 0.102528
vt 0.836501 0.148833
vt 0.821627 0.153734
vt 0.806372 0.172748
vt 0.272582 0.136514
vt 0.699142 0.158934
vt 0.192767 0.155971
vt 0.658800 0.157737
vt 0.165885 0.110483
vt 0.247169 0.183134
vt 0.729779 0.166340
vt 0.714461 0.181921
vt 0.683823 0.174214
vt 0.637868 0.174319
vt 0.154644 0.170816
vt 0.607230 0.159247
vt 0.591912 0.180726
vt 0.573396 0.159967
vt 0.554080 0.176676
vt 0.946800 0.144986
vt 0.923565 0.148079
vt 0.931255 0.091324
vt 0.492355 0.132138
vt 0.455764 0.165010
vt 0.339023 0.228646
vt 0.340474 0.289146
vt 0.788218 0.169928
vt 0.468863 0.199227
vt 0.384993 0.207700
vt 0.390283 0.134026
vt 0.425667 0.230644
vt 0.699142 0.208666
vt 0.185067 0.218140
vt 0.668505 0.216550
vt 0.622549 0.167214
vt 0.622549 0.221297
vt 0.122767 0.196674
vt 0.607230 0.214160
vt 0.531380 0.203061
vt 0.521996 0.133554
vt 0.507472 0.181327
vt 0.637868 0.220704
vt 0.491326 0.230153
vt 0.836501 0.215111
vt 0.349618 0.147647
vt 0.745098 0.165886
vt 0.292515 0.228475
vt 0.462646 0.245986
vt 0.850613 0.245025
vt 0.231548 0.220145
vt 0.918676 0.044816
vt 0.914852 0.457629
vt 0.913692 0.222376
vt 0.913439 0.329241
vt 0.905813 0.223967
vt 0.905631 0.363701
vt 0.909497 0.549352
vt 0.900618 0.524194
vt 0.893662 0.598292
vt 0.889906 0.668136
vt 0.911296 0.739643
vt 0.910202 0.809643
vt 0.888008 0.748081
vt 0.918813 0.899704
vt 0.918340 0.954804
vt 0.891921 0.931880
vt 0.917180 0.980404
vt 0.909323 0.986326
vt 0.913411 0.129635
vt 0.909132 0.029837
vt 0.893760 0.295574
vt 0.885141 0.309615
vt 0.885141 0.179492
vt 0.893760 0.147304
vt 0.875098 0.198076
vt 0.863582 0.245628
vt 0.863582 0.153013
vt 0.875098 0.100657
vt 0.887323 0.054786
vt 0.905088 0.119346
vt 0.895311 0.009804
vt 0.871874 0.017063
vt 0.871131 0.975468
vt 0.875098 0.898437
vt 0.887602 0.839532
vt 0.875098 0.805545
vt 0.875098 0.723143
vt 0.874462 0.606333
vt 0.879832 0.497409
vt 0.887142 0.405630
vt 0.905689 0.477908
vt 0.875098 0.401361
vt 0.875098 0.325504
vt 0.028990 0.270431
vt 0.062133 0.305374
vt 0.054100 0.332305
vt 0.027861 0.330452
vt 0.049994 0.391100
vt 0.294144 0.484024
vt 0.353502 0.532942
vt 0.025123 0.549785
vt 0.025123 0.542126
vt 0.042283 0.544018
vt 0.989963 0.729760
vt 0.934004 0.748144
vt 0.937390 0.715967
vt 0.935757 0.892695
vt 0.948706 0.830174
vt 0.990119 0.821680
vt 0.221793 0.954999
vt 0.228348 0.985937
vt 0.057631 0.971601
vt 0.943410 0.951382
vt 0.959575 0.936535
vt 0.046635 0.942343
vt 0.101828 0.983675
vt 0.270220 0.009804
vt 0.300858 0.009804
vt 0.478429 0.088069
vt 0.729779 0.102933
vt 0.047201 0.077048
vt 0.028950 0.086023
vt 0.053006 0.148517
vt 0.922694 0.208677
vt 0.966281 0.180066
vt 0.951017 0.239647
vt 0.922155 0.009804
vt 0.914057 0.388849
vt 0.885882 0.986703
vt 0.009804 0.545956
s 1
usemtl マテリアル.005
f 371/1/1 364/2/2 18/3/3
f 65/4/4 8/5/5 365/6/6
f 337/7/7 97/8/8 353/9/9
f 77/10/10 97/8/8 337/7/7
f 97/8/8 90/11/11 353/9/9
f 1/12/12 471/13/13 92/14/14
f 353/9/9 90/11/11 466/15/15
f 326/16/16 391/17/17 70/18/18
f 354/19/19 349/20/20 93/21/21
f 392/22/22 105/23/23 355/24/24
f 340/25/25 351/26/26 4/27/27
f 74/28/28 2/29/29 71/30/30
f 2/29/29 4/27/27 71/30/30
f 105/23/23 89/31/31 8/5/5
f 94/32/32 88/33/33 352/34/34
f 348/35/35 76/36/36 69/37/37
f 390/38/38 91/39/39 5/40/40
f 90/11/11 78/41/41 338/42/42
f 338/42/42 393/43/43 471/13/13
f 5/40/40 11/44/44 392/22/22
f 349/20/20 70/18/18 79/45/45
f 11/44/44 104/46/46 392/22/22
f 392/22/22 104/46/46 105/23/23
f 351/26/26 350/47/47 80/48/48
f 4/27/27 394/49/49 9/50/50
f 4/27/27 351/26/26 394/49/49
f 97/8/8 14/51/51 90/11/11
f 13/52/52 96/53/53 77/10/10
f 78/41/41 85/54/54 393/43/43
f 395/55/55 86/56/56 70/18/18
f 92/14/14 395/55/55 391/17/17
f 93/21/21 79/45/45 114/57/57
f 350/47/47 93/21/21 100/58/58
f 71/30/30 87/59/59 10/60/60
f 72/61/61 10/60/60 396/62/62
f 83/63/63 84/64/64 348/35/35
f 76/36/36 13/52/52 6/65/65
f 88/33/33 16/66/66 15/67/67
f 87/59/59 9/50/50 102/68/68
f 396/62/62 10/60/60 116/69/69
f 371/70/1 18/71/3 370/72/70
f 396/62/62 116/69/69 16/66/66
f 83/63/63 12/73/71 107/74/72
f 96/53/53 108/75/73 97/8/8
f 15/67/67 103/76/74 91/39/39
f 14/51/51 98/77/75 78/41/41
f 395/55/55 99/78/76 86/56/56
f 86/56/56 397/79/77 79/45/45
f 113/80/78 110/81/79 395/55/55
f 104/46/46 112/82/80 105/23/23
f 394/49/49 80/48/48 398/83/81
f 80/48/48 100/58/58 101/84/82
f 103/76/74 130/85/83 17/86/84
f 98/77/75 109/87/85 85/54/54
f 114/57/57 397/79/77 124/88/86
f 17/86/84 112/82/80 104/46/46
f 100/58/58 124/88/86 119/89/87
f 115/90/88 398/83/81 125/91/89
f 102/68/68 115/90/88 120/92/90
f 16/66/66 116/69/69 20/93/91
f 76/36/36 122/94/92 13/52/52
f 84/64/64 122/94/92 76/36/36
f 16/66/66 111/95/93 15/67/67
f 122/94/92 131/96/94 96/53/53
f 20/93/91 121/97/95 23/98/96
f 111/95/93 20/93/91 403/99/97
f 131/96/94 25/100/98 108/75/73
f 103/76/74 111/95/93 403/99/97
f 130/85/83 123/101/99 17/86/84
f 110/81/79 117/102/100 99/78/76
f 99/78/76 118/103/101 397/79/77
f 19/104/102 117/102/100 110/81/79
f 124/88/86 118/103/101 137/105/103
f 123/101/99 24/106/104 112/82/80
f 101/84/82 119/89/87 128/107/105
f 125/91/89 101/84/82 22/108/106
f 112/82/80 401/109/107 89/31/31
f 121/97/95 120/92/90 402/110/108
f 399/111/109 120/92/90 121/97/95
f 109/87/85 26/112/110 19/104/102
f 119/89/87 137/105/103 128/107/105
f 120/92/90 22/108/106 129/113/111
f 370/72/70 18/114/3 357/115/112
f 401/109/107 358/116/113 400/117/114
f 23/98/96 27/118/115 136/119/116
f 107/74/72 126/120/117 122/94/92
f 21/121/118 126/120/117 107/74/72
f 126/120/117 142/122/119 131/96/94
f 20/93/91 23/98/96 403/99/97
f 403/99/97 23/98/96 136/119/116
f 27/118/115 129/113/111 406/123/120
f 402/110/108 129/113/111 27/118/115
f 136/119/116 27/118/115 141/124/121
f 142/122/119 133/125/122 404/126/123
f 25/100/98 134/127/124 405/128/125
f 405/128/125 134/127/124 26/112/110
f 26/112/110 127/129/126 117/102/100
f 137/105/103 127/129/126 147/130/127
f 128/107/105 137/105/103 147/130/127
f 128/107/105 147/130/127 135/131/128
f 401/109/107 24/106/104 140/132/129
f 129/113/111 135/131/128 406/123/120
f 31/133/130 147/130/127 127/129/126
f 26/112/110 31/133/130 127/129/126
f 135/131/128 147/130/127 406/123/120
f 357/115/112 18/134/3 411/135/131
f 27/118/115 406/123/120 141/124/121
f 406/123/120 154/136/132 146/137/133
f 141/124/121 406/123/120 146/137/133
f 357/115/112 411/135/131 373/138/134
f 29/139/135 132/140/136 126/120/117
f 132/140/136 158/141/137 142/122/119
f 136/119/116 141/124/121 407/142/138
f 404/126/123 30/143/139 25/100/98
f 134/127/124 31/133/130 26/112/110
f 409/144/140 144/145/141 132/140/136
f 133/125/122 35/146/142 404/126/123
f 30/143/139 410/147/143 134/127/124
f 140/132/129 155/148/144 34/149/145
f 406/123/120 147/130/127 153/150/146
f 147/130/127 32/151/147 145/152/148
f 401/109/107 34/149/145 358/153/113
f 145/152/148 32/151/147 151/154/149
f 153/150/146 416/155/150 160/156/151
f 146/137/133 154/136/132 152/157/152
f 373/138/134 411/135/131 66/158/153
f 146/137/133 152/157/152 33/159/154
f 158/141/137 148/160/155 133/125/122
f 410/147/143 149/161/156 159/162/157
f 159/162/157 150/163/158 31/133/130
f 155/148/144 33/159/154 34/149/145
f 144/145/141 171/164/159 408/165/160
f 33/159/154 152/157/152 157/166/161
f 149/161/156 162/167/162 159/162/157
f 35/146/142 415/168/163 410/147/143
f 162/167/162 166/169/164 159/162/157
f 33/159/154 157/166/161 167/170/165
f 413/171/166 36/172/167 32/151/147
f 160/156/151 177/173/168 156/174/169
f 359/175/170 411/176/131 18/177/3
f 417/178/171 412/179/172 358/153/113
f 152/157/152 37/180/173 179/181/174
f 416/155/150 151/154/149 418/182/175
f 151/154/149 36/172/167 164/183/176
f 37/180/173 156/174/169 178/184/177
f 188/185/178 412/186/172 417/178/171
f 180/187/179 169/188/180 409/144/140
f 148/160/155 161/189/181 414/190/182
f 414/190/182 175/191/183 35/146/142
f 38/192/184 161/189/181 148/160/155
f 157/166/161 165/193/185 174/194/186
f 415/168/163 419/195/187 149/161/156
f 162/167/162 190/196/188 166/169/164
f 166/169/164 163/197/189 150/163/158
f 150/163/158 420/198/190 413/171/166
f 161/189/181 206/199/191 175/191/183
f 419/195/187 183/200/192 162/167/162
f 190/196/188 421/201/193 166/169/164
f 420/198/190 192/202/194 36/172/167
f 167/170/165 174/194/186 191/203/195
f 177/173/168 418/182/175 172/204/196
f 417/178/171 167/170/165 188/185/178
f 156/174/169 422/205/197 178/184/177
f 156/174/169 177/173/168 422/205/197
f 179/181/174 173/206/198 189/207/199
f 169/188/180 170/208/200 144/145/141
f 171/164/159 39/209/201 38/192/184
f 422/205/197 172/204/196 198/210/202
f 412/211/172 362/212/203 356/213/204
f 412/211/172 424/214/205 362/212/203
f 173/206/198 199/215/206 186/216/207
f 173/206/198 186/216/207 189/207/199
f 189/207/199 186/216/207 187/217/208
f 170/208/200 181/218/209 171/164/159
f 169/188/180 204/219/210 193/220/211
f 189/207/199 187/217/208 40/221/212
f 206/199/191 182/222/213 419/195/187
f 183/200/192 207/223/214 190/196/188
f 174/194/186 176/224/215 191/203/195
f 421/201/193 184/225/216 163/197/189
f 163/197/189 425/226/217 420/198/190
f 425/226/217 208/227/218 192/202/194
f 418/182/175 164/183/176 185/228/219
f 161/189/181 39/209/201 194/229/220
f 182/222/213 201/230/221 183/200/192
f 426/231/222 195/232/223 184/225/216
f 207/223/214 426/231/222 421/201/193
f 191/203/195 197/233/224 209/234/225
f 198/210/202 185/228/219 203/235/226
f 208/227/218 196/236/227 164/183/176
f 188/185/178 209/234/225 424/237/205
f 188/185/178 191/203/195 209/234/225
f 423/238/228 427/239/229 202/240/230
f 199/215/206 202/240/230 221/241/231
f 366/242/232 359/175/170 376/243/233
f 187/217/208 186/216/207 205/244/234
f 203/235/226 432/245/235 427/239/229
f 427/239/229 218/246/236 202/240/230
f 45/247/237 362/248/203 424/237/205
f 221/241/231 433/249/238 205/244/234
f 170/208/200 193/220/211 200/250/239
f 193/220/211 239/251/240 232/252/241
f 40/221/212 205/244/234 42/253/242
f 206/199/191 194/229/220 213/254/243
f 206/199/191 213/254/243 41/255/244
f 201/230/221 214/256/245 207/223/214
f 195/232/223 428/257/246 425/226/217
f 428/257/246 230/258/247 208/227/218
f 197/233/224 43/259/248 44/260/249
f 209/234/225 44/260/249 231/261/250
f 196/236/227 429/262/251 185/228/219
f 201/230/221 430/263/252 214/256/245
f 182/222/213 41/255/244 430/263/252
f 431/264/253 220/265/254 44/260/249
f 215/266/255 216/267/256 195/232/223
f 214/256/245 215/266/255 426/231/222
f 429/262/251 237/268/257 203/235/226
f 218/246/236 219/269/258 221/241/231
f 360/270/259 377/271/260 376/243/233
f 219/269/258 238/272/261 433/249/238
f 39/209/201 181/218/209 258/273/262
f 433/249/238 229/274/263 42/253/242
f 194/229/220 39/209/201 212/275/264
f 45/247/237 434/276/265 362/277/203
f 218/246/236 227/278/266 219/269/258
f 219/269/258 227/278/266 238/272/261
f 181/218/209 200/250/239 222/279/267
f 238/272/261 46/280/268 229/274/263
f 213/254/243 212/275/264 223/281/269
f 41/255/244 223/281/269 233/282/270
f 214/256/245 430/263/252 224/283/271
f 431/264/253 228/284/272 220/265/254
f 229/274/263 46/280/268 228/284/272
f 216/267/256 215/266/255 225/285/273
f 215/266/255 224/283/271 234/286/274
f 225/285/273 226/287/275 428/257/246
f 228/284/272 236/288/276 220/265/254
f 217/289/277 435/290/278 429/262/251
f 230/258/247 436/291/279 217/289/277
f 435/290/278 248/292/280 237/268/257
f 231/261/250 50/293/281 45/247/237
f 237/268/257 437/294/282 432/245/235
f 437/294/282 249/295/283 218/246/236
f 46/280/268 245/296/284 236/288/276
f 247/297/285 235/298/286 436/291/279
f 362/299/203 363/300/287 356/301/204
f 362/299/203 434/302/265 363/300/287
f 227/278/266 246/303/288 238/272/261
f 246/303/288 245/296/284 46/280/268
f 222/279/267 240/304/289 252/305/290
f 232/252/241 48/306/291 240/304/289
f 223/281/269 212/275/264 241/307/292
f 212/275/264 258/273/262 253/308/293
f 224/283/271 233/282/270 264/309/294
f 233/282/270 241/307/292 264/309/294
f 245/296/284 444/310/295 236/288/276
f 226/287/275 225/285/273 243/311/296
f 225/285/273 234/286/274 242/312/297
f 234/286/274 47/313/298 242/312/297
f 243/311/296 265/314/299 247/297/285
f 235/298/286 244/315/300 435/290/278
f 437/294/282 439/316/301 249/295/283
f 248/292/280 256/317/302 437/294/282
f 439/316/301 267/318/303 249/295/283
f 249/295/283 257/319/304 246/303/288
f 444/310/295 274/320/305 255/321/306
f 235/298/286 266/322/307 244/315/300
f 265/314/299 445/323/308 235/298/286
f 266/322/307 446/324/309 256/317/302
f 255/321/306 274/320/305 438/325/310
f 256/317/302 446/324/309 439/316/301
f 50/293/281 363/326/287 434/327/265
f 267/318/303 441/328/311 257/319/304
f 257/319/304 441/328/311 440/329/312
f 258/273/262 252/305/290 270/330/313
f 440/329/312 49/331/314 245/296/284
f 441/328/311 261/332/315 440/329/312
f 252/305/290 259/333/316 270/330/313
f 263/334/317 241/307/292 271/335/318
f 241/307/292 253/308/293 271/335/318
f 263/334/317 271/335/318 52/336/319
f 264/309/294 254/337/320 53/338/321
f 243/311/296 443/339/322 260/340/323
f 260/340/323 283/341/324 265/314/299
f 265/314/299 283/341/324 445/323/308
f 445/323/308 275/342/325 266/322/307
f 446/324/309 276/343/326 267/318/303
f 447/344/327 54/345/328 274/320/305
f 283/341/324 275/342/325 445/323/308
f 275/342/325 272/346/329 276/343/326
f 369/347/330 361/348/331 18/349/3
f 272/346/329 285/350/332 276/343/326
f 273/351/333 262/352/334 261/332/315
f 262/352/334 279/353/335 442/354/336
f 270/330/313 294/355/337 271/335/318
f 254/337/320 52/336/319 448/356/338
f 254/337/320 448/356/338 278/357/339
f 53/338/321 254/337/320 278/357/339
f 260/340/323 53/338/321 283/341/324
f 270/358/313 259/359/316 451/360/340
f 273/361/333 279/362/335 262/363/334
f 52/364/319 271/365/318 56/366/341
f 271/365/318 294/367/337 277/368/342
f 53/369/321 57/370/343 290/371/344
f 282/372/345 452/373/346 447/374/327
f 283/375/324 292/376/347 275/377/325
f 274/378/305 280/379/348 449/380/349
f 272/381/329 284/382/350 285/383/332
f 284/382/350 450/384/351 285/383/332
f 285/383/332 281/385/352 273/361/333
f 292/376/347 303/386/353 284/382/350
f 456/387/354 449/388/349 280/379/348
f 450/384/351 305/389/355 281/385/352
f 313/390/356 286/391/357 259/359/316
f 294/367/337 451/360/340 55/392/358
f 281/385/352 291/393/359 279/362/335
f 57/370/343 278/394/339 288/395/360
f 278/394/339 448/396/338 287/397/361
f 300/398/362 302/399/363 295/400/364
f 293/401/365 57/370/343 289/402/366
f 305/389/355 299/403/367 291/393/359
f 299/403/367 465/404/368 300/398/362
f 56/366/341 277/368/342 459/405/369
f 294/367/337 55/392/358 460/406/370
f 57/370/343 288/395/360 322/407/371
f 302/399/363 300/398/362 301/408/372
f 289/402/366 322/407/371 297/409/373
f 293/401/365 289/402/366 323/410/374
f 293/401/365 454/411/375 290/371/344
f 454/411/375 298/412/376 290/371/344
f 290/371/344 298/412/376 303/386/353
f 54/413/328 60/414/377 280/379/348
f 298/412/376 308/415/378 455/416/379
f 364/417/2 369/418/330 18/419/3
f 363/420/287 365/421/6 356/422/204
f 456/423/354 365/421/6 363/420/287
f 457/424/380 320/425/381 312/426/382
f 286/391/357 458/427/383 451/360/340
f 55/392/358 307/428/384 344/429/385
f 300/398/362 465/404/368 310/430/386
f 288/395/360 287/397/361 316/431/387
f 302/399/363 301/408/372 311/432/388
f 297/409/373 322/407/371 317/433/389
f 54/413/328 314/434/390 60/414/377
f 310/430/386 465/404/368 62/435/391
f 287/397/361 461/436/392 315/437/393
f 322/407/371 316/431/387 342/438/394
f 297/409/373 317/433/389 318/439/395
f 314/434/390 311/432/388 321/440/396
f 462/441/397 319/442/398 298/412/376
f 323/410/374 462/441/397 454/411/375
f 332/443/399 343/444/400 308/415/378
f 364/445/2 368/446/401 369/447/330
f 58/448/402 328/449/403 457/424/380
f 390/38/38 3/450/404 7/451/405
f 460/406/370 344/429/385 464/452/406
f 58/448/402 468/453/407 328/449/403
f 320/425/381 345/454/408 59/455/409
f 328/449/403 73/456/410 320/425/381
f 316/431/387 315/437/393 324/457/411
f 311/432/388 62/435/391 346/458/412
f 317/433/389 342/438/394 325/459/413
f 317/433/389 325/459/413 326/16/16
f 331/460/414 318/439/395 347/461/415
f 60/414/377 321/440/396 64/462/416
f 462/441/397 331/460/414 327/463/417
f 343/444/400 341/464/418 309/465/419
f 309/465/419 329/466/420 58/448/402
f 315/437/393 466/15/15 338/42/42
f 342/438/394 324/457/411 1/12/12
f 318/439/395 326/16/16 339/467/421
f 327/463/417 340/25/25 319/442/398
f 319/442/398 340/25/25 332/443/399
f 340/25/25 2/29/29 343/444/400
f 329/466/420 63/468/422 468/453/407
f 336/469/423 69/37/37 307/428/384
f 69/37/37 6/65/65 344/429/385
f 465/404/368 463/470/424 3/450/404
f 463/470/424 345/454/408 3/450/404
f 61/471/425 464/452/406 353/9/9
f 344/429/385 337/7/7 464/452/406
f 465/404/368 3/450/404 469/472/426
f 63/468/422 470/473/427 468/453/407
f 73/456/410 352/34/34 345/454/408
f 68/474/428 348/35/35 336/469/423
f 6/65/65 77/10/10 337/7/7
f 469/472/426 5/40/40 62/435/391
f 324/457/411 338/42/42 471/13/13
f 467/475/429 392/22/22 346/458/412
f 339/467/421 326/16/16 349/20/20
f 347/461/415 349/20/20 354/19/19
f 346/458/412 355/24/24 64/462/416
f 327/463/417 347/461/415 350/47/47
f 64/462/416 355/24/24 65/4/4
f 355/24/24 8/5/5 65/4/4
f 2/29/29 74/28/28 341/464/418
f 369/447/330 368/446/401 378/476/430
f 372/477/431 357/115/112 373/138/134
f 385/478/432 371/70/1 379/479/433
f 384/480/434 385/478/432 472/481/435
f 372/477/431 373/138/134 475/482/436
f 67/483/437 475/482/436 389/484/438
f 389/484/438 66/158/153 380/485/439
f 66/158/153 366/242/232 380/485/439
f 380/485/439 366/242/232 381/486/440
f 376/243/233 387/487/441 381/486/440
f 381/486/440 387/487/441 388/488/442
f 377/271/260 374/489/443 387/487/441
f 374/489/443 375/490/444 250/491/445
f 378/492/430 382/493/446 375/490/444
f 378/476/430 383/494/447 382/495/446
f 333/496/448 75/497/449 334/498/450
f 384/480/434 333/496/448 296/499/451
f 335/500/452 81/501/453 330/502/454
f 334/498/450 335/500/452 306/503/455
f 296/499/451 334/498/450 268/504/456
f 306/503/455 330/502/454 313/390/356
f 386/505/457 296/499/451 268/504/456
f 382/495/446 268/504/456 250/506/445
f 268/504/456 306/503/455 269/507/458
f 250/491/445 269/508/458 251/509/459
f 251/509/459 269/508/458 48/306/291
f 374/489/443 250/491/445 210/510/460
f 210/510/460 251/509/459 211/511/461
f 239/251/240 251/509/459 48/306/291
f 168/512/462 388/488/442 211/511/461
f 204/219/210 168/512/462 239/251/240
f 380/485/439 381/486/440 388/488/442
f 143/513/463 380/485/439 168/512/462
f 138/514/464 389/484/438 143/513/463
f 29/139/135 138/514/464 143/513/463
f 21/121/118 138/514/464 29/139/135
f 95/515/465 474/516/466 67/483/437
f 106/517/467 95/515/465 138/514/464
f 12/73/71 106/517/467 21/121/118
f 75/497/449 333/496/448 95/515/465
f 333/496/448 472/481/435 95/515/465
f 82/518/468 95/515/465 106/517/467
f 81/501/453 82/518/468 12/73/71
f 365/6/6 8/5/5 356/519/204
f 470/473/427 72/61/61 94/32/32
f 470/473/427 94/32/32 73/456/410
f 63/468/422 72/61/61 470/473/427
f 63/468/422 74/28/28 72/61/61
f 72/61/61 74/28/28 71/30/30
f 73/456/410 94/32/32 352/34/34
f 469/472/426 390/38/38 5/40/40
f 391/17/17 1/12/12 92/14/14
f 338/42/42 466/15/15 90/11/11
f 467/475/429 5/40/40 392/22/22
f 349/20/20 326/16/16 70/18/18
f 326/16/16 325/459/413 391/17/17
f 83/63/63 81/501/453 12/73/71
f 346/458/412 392/22/22 355/24/24
f 2/29/29 340/25/25 4/27/27
f 350/47/47 354/19/19 93/21/21
f 355/24/24 105/23/23 8/5/5
f 87/59/59 71/30/30 9/50/50
f 71/30/30 4/27/27 9/50/50
f 15/67/67 352/34/34 88/33/33
f 68/474/428 83/63/63 348/35/35
f 69/37/37 76/36/36 6/65/65
f 91/39/39 7/451/405 15/67/67
f 5/40/40 91/39/39 11/44/44
f 338/42/42 78/41/41 393/43/43
f 92/14/14 471/13/13 393/43/43
f 93/21/21 349/20/20 79/45/45
f 394/49/49 351/26/26 80/48/48
f 6/65/65 13/52/52 77/10/10
f 77/10/10 96/53/53 97/8/8
f 113/80/78 393/43/43 85/54/54
f 90/11/11 14/51/51 78/41/41
f 17/86/84 91/39/39 103/76/74
f 396/62/62 88/33/33 94/32/32
f 70/18/18 86/56/56 79/45/45
f 391/17/17 395/55/55 70/18/18
f 92/14/14 113/80/78 395/55/55
f 80/48/48 350/47/47 100/58/58
f 100/58/58 93/21/21 114/57/57
f 8/520/5 400/521/114 356/522/204
f 8/5/5 89/31/31 400/521/114
f 94/32/32 72/61/61 396/62/62
f 72/61/61 71/30/30 10/60/60
f 398/83/81 9/50/50 394/49/49
f 348/35/35 84/64/64 76/36/36
f 102/68/68 9/50/50 115/90/88
f 10/60/60 87/59/59 102/68/68
f 83/63/63 107/74/72 84/64/64
f 78/41/41 98/77/75 85/54/54
f 86/56/56 99/78/76 397/79/77
f 114/57/57 79/45/45 397/79/77
f 395/55/55 110/81/79 99/78/76
f 11/44/44 17/86/84 104/46/46
f 19/104/102 85/54/54 109/87/85
f 398/83/81 80/48/48 101/84/82
f 105/23/23 112/82/80 89/31/31
f 15/67/67 111/95/93 103/76/74
f 14/51/51 108/75/73 98/77/75
f 399/111/109 10/60/60 102/68/68
f 113/80/78 19/104/102 110/81/79
f 100/58/58 114/57/57 124/88/86
f 101/84/82 100/58/58 119/89/87
f 399/111/109 102/68/68 120/92/90
f 120/92/90 115/90/88 125/91/89
f 89/31/31 401/109/107 400/523/114
f 404/126/123 131/96/94 142/122/119
f 84/64/64 107/74/72 122/94/92
f 107/74/72 12/73/71 21/121/118
f 13/52/52 122/94/92 96/53/53
f 96/53/53 131/96/94 108/75/73
f 97/8/8 108/75/73 14/51/51
f 20/93/91 116/69/69 121/97/95
f 116/69/69 399/111/109 121/97/95
f 23/98/96 121/97/95 402/110/108
f 111/95/93 16/66/66 20/93/91
f 130/85/83 103/76/74 403/99/97
f 98/77/75 108/75/73 109/87/85
f 99/78/76 117/102/100 118/103/101
f 124/88/86 397/79/77 118/103/101
f 17/86/84 123/101/99 112/82/80
f 125/91/89 398/83/81 101/84/82
f 119/89/87 124/88/86 137/105/103
f 112/82/80 24/106/104 401/109/107
f 120/92/90 125/91/89 22/108/106
f 108/75/73 405/128/125 109/87/85
f 109/87/85 405/128/125 26/112/110
f 108/75/73 25/100/98 405/128/125
f 123/101/99 130/85/83 28/524/469
f 117/102/100 127/129/126 118/103/101
f 19/104/102 26/112/110 117/102/100
f 22/108/106 101/84/82 128/107/105
f 402/110/108 120/92/90 129/113/111
f 23/98/96 402/110/108 27/118/115
f 122/94/92 126/120/117 131/96/94
f 409/144/140 29/139/135 143/513/463
f 130/85/83 403/99/97 28/524/469
f 126/120/117 132/140/136 142/122/119
f 21/121/118 29/139/135 126/120/117
f 28/524/469 403/99/97 136/119/116
f 24/106/104 123/101/99 28/524/469
f 137/105/103 118/103/101 127/129/126
f 22/108/106 128/107/105 135/131/128
f 129/113/111 22/108/106 135/131/128
f 24/106/104 28/524/469 407/142/138
f 24/106/104 407/142/138 155/148/144
f 140/132/129 24/106/104 155/148/144
f 407/142/138 141/124/121 139/525/470
f 28/524/469 136/119/116 407/142/138
f 142/122/119 158/141/137 133/125/122
f 25/100/98 30/143/139 134/127/124
f 139/525/470 141/124/121 146/137/133
f 132/140/136 144/145/141 408/165/160
f 132/140/136 408/165/160 158/141/137
f 412/526/172 400/527/114 358/528/113
f 155/148/144 139/525/470 146/137/133
f 404/126/123 35/146/142 30/143/139
f 155/148/144 407/142/138 139/525/470
f 134/127/124 159/162/157 31/133/130
f 134/127/124 410/147/143 159/162/157
f 147/130/127 31/133/130 32/151/147
f 153/150/146 147/130/127 145/152/148
f 401/109/107 140/132/129 34/149/145
f 154/136/132 406/123/120 153/150/146
f 413/171/166 31/133/130 150/163/158
f 416/155/150 145/152/148 151/154/149
f 153/150/146 145/152/148 416/155/150
f 154/136/132 153/150/146 160/156/151
f 37/180/173 154/136/132 160/156/151
f 152/157/152 154/136/132 37/180/173
f 143/513/463 180/187/179 409/144/140
f 155/148/144 146/137/133 33/159/154
f 133/125/122 414/190/182 35/146/142
f 133/125/122 148/160/155 414/190/182
f 30/143/139 35/146/142 410/147/143
f 38/192/184 408/165/160 171/164/159
f 185/228/219 172/204/196 418/182/175
f 158/141/137 38/192/184 148/160/155
f 410/147/143 415/168/163 149/161/156
f 34/149/145 33/159/154 167/170/165
f 159/162/157 166/169/164 150/163/158
f 151/154/149 32/151/147 36/172/167
f 160/156/151 416/155/150 177/173/168
f 358/153/113 34/149/145 417/178/171
f 417/178/171 34/149/145 167/170/165
f 37/180/173 160/156/151 156/174/169
f 66/158/153 411/135/131 359/175/170
f 418/182/175 151/154/149 164/183/176
f 177/173/168 416/155/150 418/182/175
f 179/181/174 37/180/173 178/184/177
f 179/181/174 178/184/177 173/206/198
f 157/166/161 152/157/152 179/181/174
f 409/144/140 169/188/180 144/145/141
f 165/193/185 157/166/161 179/181/174
f 149/161/156 419/195/187 162/167/162
f 35/146/142 175/191/183 415/168/163
f 167/170/165 157/166/161 174/194/186
f 150/163/158 163/197/189 420/198/190
f 413/171/166 420/198/190 36/172/167
f 414/190/182 161/189/181 175/191/183
f 38/192/184 39/209/201 161/189/181
f 174/194/186 165/193/185 176/224/215
f 176/224/215 165/193/185 189/207/199
f 415/168/163 175/191/183 419/195/187
f 162/167/162 183/200/192 190/196/188
f 166/169/164 421/201/193 163/197/189
f 164/183/176 36/172/167 192/202/194
f 188/185/178 167/170/165 191/203/195
f 422/205/197 177/173/168 172/204/196
f 178/184/177 422/205/197 423/238/228
f 173/206/198 178/184/177 199/215/206
f 66/158/153 359/175/170 366/242/232
f 165/193/185 179/181/174 189/207/199
f 144/145/141 170/208/200 171/164/159
f 180/187/179 204/219/210 169/188/180
f 199/215/206 178/184/177 423/238/228
f 423/238/228 422/205/197 198/210/202
f 188/185/178 424/214/205 412/211/172
f 169/188/180 193/220/211 170/208/200
f 171/164/159 181/218/209 39/209/201
f 176/224/215 189/207/199 40/221/212
f 175/191/183 206/199/191 419/195/187
f 419/195/187 182/222/213 183/200/192
f 191/203/195 176/224/215 197/233/224
f 163/197/189 184/225/216 425/226/217
f 420/198/190 425/226/217 192/202/194
f 190/196/188 207/223/214 421/201/193
f 217/289/277 208/227/218 230/258/247
f 192/202/194 208/227/218 164/183/176
f 161/189/181 194/229/220 206/199/191
f 183/200/192 201/230/221 207/223/214
f 197/233/224 40/221/212 43/259/248
f 197/233/224 176/224/215 40/221/212
f 184/225/216 195/232/223 425/226/217
f 421/201/193 426/231/222 184/225/216
f 185/228/219 164/183/176 196/236/227
f 423/238/228 198/210/202 427/239/229
f 427/239/229 198/210/202 203/235/226
f 199/215/206 423/238/228 202/240/230
f 18/529/3 360/530/259 359/531/170
f 186/216/207 199/215/206 221/241/231
f 376/243/233 359/175/170 360/270/259
f 40/221/212 187/217/208 205/244/234
f 202/240/230 218/246/236 221/241/231
f 186/216/207 221/241/231 205/244/234
f 181/218/209 170/208/200 200/250/239
f 193/220/211 204/219/210 239/251/240
f 200/250/239 193/220/211 232/252/241
f 205/244/234 433/249/238 42/253/242
f 43/259/248 40/221/212 42/253/242
f 206/199/191 41/255/244 182/222/213
f 44/260/249 43/259/248 431/264/253
f 425/226/217 428/257/246 208/227/218
f 207/223/214 214/256/245 426/231/222
f 209/234/225 197/233/224 44/260/249
f 185/228/219 429/262/251 203/235/226
f 431/264/253 42/253/242 229/274/263
f 196/236/227 217/289/277 429/262/251
f 45/247/237 209/234/225 231/261/250
f 201/230/221 182/222/213 430/263/252
f 195/232/223 216/267/256 428/257/246
f 426/231/222 215/266/255 195/232/223
f 231/261/250 44/260/249 220/265/254
f 230/258/247 226/287/275 247/297/285
f 427/239/229 432/245/235 218/246/236
f 203/235/226 237/268/257 432/245/235
f 221/241/231 219/269/258 433/249/238
f 433/249/238 238/272/261 229/274/263
f 213/254/243 194/229/220 212/275/264
f 212/275/264 39/209/201 258/273/262
f 218/246/236 249/295/283 227/278/266
f 258/273/262 181/218/209 222/279/267
f 41/255/244 213/254/243 223/281/269
f 430/263/252 41/255/244 233/282/270
f 431/264/253 229/274/263 228/284/272
f 216/267/256 225/285/273 428/257/246
f 215/266/255 214/256/245 224/283/271
f 225/285/273 215/266/255 234/286/274
f 374/489/443 360/270/259 361/532/331
f 220/265/254 236/288/276 231/261/250
f 217/289/277 436/291/279 435/290/278
f 429/262/251 435/290/278 237/268/257
f 230/258/247 247/297/285 436/291/279
f 231/261/250 236/288/276 438/325/310
f 432/245/235 437/294/282 218/246/236
f 361/533/331 360/270/259 18/534/3
f 228/284/272 46/280/268 236/288/276
f 234/286/274 224/283/271 47/313/298
f 436/291/279 235/298/286 435/290/278
f 231/261/250 438/325/310 50/293/281
f 236/288/276 255/321/306 438/325/310
f 237/268/257 248/292/280 437/294/282
f 45/247/237 50/293/281 434/302/265
f 227/278/266 249/295/283 246/303/288
f 232/252/241 239/251/240 48/306/291
f 238/272/261 246/303/288 46/280/268
f 224/283/271 430/263/252 233/282/270
f 443/339/322 47/313/298 264/309/294
f 222/279/267 200/250/239 240/304/289
f 200/250/239 232/252/241 240/304/289
f 258/273/262 222/279/267 252/305/290
f 246/303/288 257/319/304 245/296/284
f 257/319/304 440/329/312 245/296/284
f 241/307/292 212/275/264 253/308/293
f 233/282/270 223/281/269 241/307/292
f 47/313/298 224/283/271 264/309/294
f 243/311/296 225/285/273 242/312/297
f 226/287/275 243/311/296 247/297/285
f 236/288/276 444/310/295 255/321/306
f 435/290/278 244/315/300 248/292/280
f 247/297/285 265/314/299 235/298/286
f 248/292/280 244/315/300 256/317/302
f 437/294/282 256/317/302 439/316/301
f 249/295/283 267/318/303 257/319/304
f 259/333/316 48/306/291 269/508/458
f 235/298/286 445/323/308 266/322/307
f 244/315/300 266/322/307 256/317/302
f 438/325/310 274/320/305 50/293/281
f 439/316/301 446/324/309 267/318/303
f 361/532/331 375/490/444 374/489/443
f 253/308/293 258/273/262 270/330/313
f 264/309/294 241/307/292 263/334/317
f 264/309/294 263/334/317 254/337/320
f 245/296/284 49/331/314 444/310/295
f 252/305/290 240/304/289 259/333/316
f 273/351/333 276/343/326 285/350/332
f 440/329/312 261/332/315 262/352/334
f 440/329/312 262/352/334 442/354/336
f 271/335/318 253/308/293 270/330/313
f 49/331/314 442/354/336 51/535/471
f 49/331/314 440/329/312 442/354/336
f 254/337/320 263/334/317 52/336/319
f 51/535/471 442/354/336 282/536/345
f 49/331/314 51/535/471 444/310/295
f 243/311/296 242/312/297 443/339/322
f 443/339/322 264/309/294 53/338/321
f 243/311/296 260/340/323 265/314/299
f 444/310/295 51/535/471 447/344/327
f 50/293/281 274/320/305 449/537/349
f 266/322/307 275/342/325 446/324/309
f 369/538/330 375/490/444 361/539/331
f 50/293/281 449/537/349 363/540/287
f 267/318/303 276/343/326 441/328/311
f 444/310/295 447/344/327 274/320/305
f 51/535/471 282/536/345 447/344/327
f 274/320/305 54/345/328 280/541/348
f 446/324/309 275/342/325 276/343/326
f 441/328/311 276/343/326 261/332/315
f 459/405/369 448/396/338 56/366/341
f 260/340/323 443/339/322 53/338/321
f 259/359/316 269/507/458 313/390/356
f 294/367/337 270/358/313 451/360/340
f 273/361/333 281/385/352 279/362/335
f 56/366/341 271/365/318 277/368/342
f 279/362/335 300/398/362 295/400/364
f 442/542/336 295/400/364 282/372/345
f 442/543/336 279/362/335 295/400/364
f 279/362/335 291/393/359 300/398/362
f 448/396/338 52/364/319 56/366/341
f 282/372/345 295/400/364 302/399/363
f 282/372/345 302/399/363 452/373/346
f 283/375/324 53/369/321 290/371/344
f 53/369/321 278/394/339 57/370/343
f 290/371/344 57/370/343 293/401/365
f 275/377/325 292/376/347 272/381/329
f 283/375/324 290/371/344 292/376/347
f 272/381/329 292/376/347 284/382/350
f 285/383/332 450/384/351 281/385/352
f 292/376/347 290/371/344 303/386/353
f 284/382/350 303/386/353 450/384/351
f 450/384/351 304/544/472 305/389/355
f 451/360/340 259/359/316 286/391/357
f 281/385/352 305/389/355 291/393/359
f 288/395/360 278/394/339 287/397/361
f 447/374/327 452/373/346 54/413/328
f 291/393/359 299/403/367 300/398/362
f 277/368/342 294/367/337 460/406/370
f 287/397/361 448/396/338 453/545/473
f 304/544/472 303/386/353 455/416/379
f 289/402/366 57/370/343 322/407/371
f 323/410/374 289/402/366 297/409/373
f 452/373/346 314/434/390 54/413/328
f 452/373/346 302/399/363 314/434/390
f 293/401/365 323/410/374 454/411/375
f 456/387/354 280/379/348 60/414/377
f 58/448/402 455/416/379 309/465/419
f 303/386/353 298/412/376 455/416/379
f 449/546/349 456/387/354 363/547/287
f 305/389/355 304/544/472 312/426/382
f 305/389/355 312/426/382 299/403/367
f 55/392/358 451/360/340 307/428/384
f 455/416/379 308/415/378 309/465/419
f 61/471/425 453/545/473 459/405/369
f 304/544/472 457/424/380 312/426/382
f 304/544/472 58/448/402 457/424/380
f 312/426/382 59/455/409 299/403/367
f 312/426/382 320/425/381 59/455/409
f 307/428/384 451/360/340 458/427/383
f 313/390/356 330/502/454 286/391/357
f 299/403/367 463/470/424 465/404/368
f 299/403/367 59/455/409 463/470/424
f 459/405/369 277/368/342 460/406/370
f 460/406/370 55/392/358 344/429/385
f 322/407/371 288/395/360 316/431/387
f 301/408/372 300/398/362 310/430/386
f 314/434/390 302/399/363 311/432/388
f 298/412/376 332/443/399 308/415/378
f 316/431/387 287/397/361 315/437/393
f 287/397/361 453/545/473 461/436/392
f 318/439/395 323/410/374 297/409/373
f 301/408/372 310/430/386 62/435/391
f 311/432/388 301/408/372 62/435/391
f 317/433/389 322/407/371 342/438/394
f 68/474/428 330/502/454 81/501/453
f 60/414/377 314/434/390 321/440/396
f 298/412/376 319/442/398 332/443/399
f 454/411/375 462/441/397 298/412/376
f 323/410/374 331/460/414 462/441/397
f 60/414/377 65/4/4 456/387/354
f 308/415/378 343/444/400 309/465/419
f 456/387/354 65/4/4 365/548/6
f 457/424/380 328/449/403 320/425/381
f 367/549/474 368/446/401 364/550/2
f 58/448/402 329/466/420 468/453/407
f 320/425/381 73/456/410 345/454/408
f 336/469/423 286/391/357 68/474/428
f 353/9/9 461/436/392 61/471/425
f 458/427/383 336/469/423 307/428/384
f 463/470/424 59/455/409 345/454/408
f 61/471/425 459/405/369 464/452/406
f 459/405/369 460/406/370 464/452/406
f 342/438/394 316/431/387 324/457/411
f 318/439/395 317/433/389 326/16/16
f 321/440/396 311/432/388 346/458/412
f 462/441/397 327/463/417 319/442/398
f 327/463/417 331/460/414 347/461/415
f 65/4/4 60/414/377 64/462/416
f 309/465/419 341/464/418 329/466/420
f 324/457/411 315/437/393 338/42/42
f 315/437/393 461/436/392 466/15/15
f 7/451/405 345/454/408 352/34/34
f 346/458/412 62/435/391 467/475/429
f 325/459/413 342/438/394 1/12/12
f 347/461/415 318/439/395 339/467/421
f 64/462/416 321/440/396 346/458/412
f 332/443/399 340/25/25 343/444/400
f 329/466/420 341/464/418 63/468/422
f 343/444/400 2/29/29 341/464/418
f 328/449/403 468/453/407 73/456/410
f 307/428/384 69/37/37 344/429/385
f 353/9/9 464/452/406 337/7/7
f 344/429/385 6/65/65 337/7/7
f 62/435/391 465/404/368 469/472/426
f 468/453/407 470/473/427 73/456/410
f 336/469/423 348/35/35 69/37/37
f 351/26/26 327/463/417 350/47/47
f 1/12/12 324/457/411 471/13/13
f 62/435/391 5/40/40 467/475/429
f 347/461/415 339/467/421 349/20/20
f 370/72/70 379/479/433 371/70/1
f 350/47/47 347/461/415 354/19/19
f 341/464/418 74/28/28 63/468/422
f 371/70/1 367/549/474 364/551/2
f 375/552/444 369/447/330 378/476/430
f 372/477/431 370/72/70 357/115/112
f 473/553/475 370/72/70 372/477/431
f 472/481/435 385/478/432 379/479/433
f 372/477/431 472/481/435 473/553/475
f 472/481/435 379/479/433 473/553/475
f 384/480/434 383/494/447 385/478/432
f 474/516/466 372/477/431 475/482/436
f 67/483/437 474/516/466 475/482/436
f 475/482/436 373/138/134 66/158/153
f 389/484/438 475/482/436 66/158/153
f 366/242/232 376/243/233 381/486/440
f 376/243/233 377/271/260 387/487/441
f 375/490/444 382/493/446 250/491/445
f 382/495/446 383/494/447 386/505/457
f 378/476/430 368/446/401 383/494/447
f 385/478/432 368/446/401 367/549/474
f 335/500/452 75/497/449 82/518/468
f 367/549/474 371/70/1 385/478/432
f 168/512/462 180/187/179 143/513/463
f 335/500/452 82/518/468 81/501/453
f 296/499/451 333/496/448 334/498/450
f 386/505/457 384/480/434 296/499/451
f 306/503/455 335/500/452 330/502/454
f 268/504/456 334/498/450 306/503/455
f 382/495/446 386/505/457 268/504/456
f 269/507/458 306/503/455 313/390/356
f 250/491/445 268/554/456 269/508/458
f 210/510/460 250/491/445 251/509/459
f 239/251/240 211/511/461 251/509/459
f 387/487/441 374/489/443 210/510/460
f 211/511/461 388/488/442 210/510/460
f 388/488/442 387/487/441 210/510/460
f 239/251/240 168/512/462 211/511/461
f 168/512/462 380/485/439 388/488/442
f 143/513/463 389/484/438 380/485/439
f 138/514/464 67/483/437 389/484/438
f 138/514/464 95/515/465 67/483/437
f 95/515/465 472/481/435 474/516/466
f 21/121/118 106/517/467 138/514/464
f 82/518/468 75/497/449 95/515/465
f 12/73/71 82/518/468 106/517/467
f 333/496/448 384/480/434 472/481/435
f 390/38/38 469/472/426 3/450/404
f 391/17/17 325/459/413 1/12/12
f 83/63/63 68/474/428 81/501/453
f 15/67/67 7/451/405 352/34/34
f 91/39/39 390/38/38 7/451/405
f 113/80/78 92/14/14 393/43/43
f 17/86/84 11/44/44 91/39/39
f 396/62/62 16/66/66 88/33/33
f 398/83/81 115/90/88 9/50/50
f 19/104/102 113/80/78 85/54/54
f 399/111/109 116/69/69 10/60/60
f 404/126/123 25/100/98 131/96/94
f 409/144/140 132/140/136 29/139/135
f 412/526/172 356/555/204 400/527/114
f 413/171/166 32/151/147 31/133/130
f 38/192/184 158/141/137 408/165/160
f 185/228/219 198/210/202 172/204/196
f 217/289/277 196/236/227 208/227/218
f 431/264/253 43/259/248 42/253/242
f 45/247/237 424/237/205 209/234/225
f 230/258/247 428/257/246 226/287/275
f 374/489/443 377/271/260 360/270/259
f 443/339/322 242/312/297 47/313/298
f 259/333/316 240/304/289 48/306/291
f 273/351/333 261/332/315 276/343/326
f 459/405/369 453/545/473 448/396/338
f 304/544/472 450/384/351 303/386/353
f 58/448/402 304/544/472 455/416/379
f 61/471/425 461/436/392 453/545/473
f 318/439/395 331/460/414 323/410/374
f 68/474/428 286/391/357 330/502/454
f 336/469/423 458/427/383 286/391/357
f 353/9/9 466/15/15 461/436/392
f 7/451/405 3/450/404 345/454/408
f 351/26/26 340/25/25 327/463/417
f 370/72/70 473/553/475 379/479/433
f 372/477/431 474/516/466 472/481/435
f 384/480/434 386/505/457 383/494/447
f 385/478/432 383/494/447 368/446/401
f 335/500/452 334/498/450 75/497/449
f 168/512/462 204/219/210 180/187/179
