# Blender 4.1.1
# www.blender.org
mtllib RightThigh.mtl
o 右もも
v -0.039044 0.052628 0.067795
v -0.067065 0.034877 0.009170
v -0.041376 0.039515 -0.052672
v 0.067873 0.087761 -0.032391
v 0.021585 0.079402 0.079050
v 0.069168 0.095037 0.034458
v 0.018677 0.063051 -0.071165
v 0.036783 -0.116099 0.021452
v 0.035932 -0.116099 -0.022514
v -0.052759 -0.116098 0.004593
v -0.034342 -0.116098 0.043197
v 0.005508 -0.116098 0.050702
v -0.035875 -0.116098 -0.036036
v 0.003596 -0.116098 -0.048096
v 0.047578 -0.045720 0.024056
v 0.058372 0.024659 0.028391
v 0.046580 -0.048146 -0.027456
v 0.057227 0.019807 -0.030749
v -0.057528 -0.065773 0.005080
v -0.062296 -0.015448 0.006605
v -0.035910 -0.059856 0.050148
v -0.037477 -0.003614 0.058347
v 0.016226 0.014235 0.068042
v 0.010867 -0.050932 0.058593
v -0.039543 -0.012356 -0.048220
v -0.037709 -0.064227 -0.042674
v 0.013650 0.003335 -0.064843
v 0.008623 -0.056382 -0.057153
vn 0.6891 -0.1321 0.7125
vn 0.9875 -0.1561 -0.0191
vn -0.9202 -0.0835 -0.3824
vn -0.2897 -0.1316 -0.9480
vn 0.6116 -0.1687 -0.7730
vn -0.8947 -0.0793 0.4396
vn -0.1571 -0.1060 0.9819
vn -0.1131 -0.1564 0.9812
vn -0.1337 -0.1314 0.9823
vn -0.8854 -0.1009 0.4537
vn -0.8898 -0.0900 0.4474
vn 0.6416 -0.1340 -0.7553
vn 0.6293 -0.1511 -0.7624
vn -0.2722 -0.0918 -0.9578
vn -0.2791 -0.1118 -0.9537
vn -0.9202 -0.0675 -0.3857
vn -0.9201 -0.0755 -0.3843
vn 0.9879 -0.1549 -0.0064
vn 0.9878 -0.1553 -0.0118
vn 0.7029 -0.1674 0.6913
vn 0.6969 -0.1501 0.7013
vn 0.6760 -0.1431 0.7228
vn 0.9884 -0.1512 -0.0120
vn -0.9196 -0.0817 -0.3843
vn -0.2773 -0.1212 -0.9531
vn 0.6294 -0.1540 -0.7617
vn -0.8989 -0.0893 0.4289
vn -0.1836 -0.1256 0.9749
vn -0.1209 -0.1677 0.9784
vn -0.1486 -0.1467 0.9780
vn -0.8867 -0.1069 0.4498
vn -0.8922 -0.0979 0.4408
vn 0.6510 -0.1201 -0.7495
vn 0.6420 -0.1371 -0.7543
vn -0.2648 -0.0795 -0.9610
vn -0.2696 -0.1006 -0.9577
vn -0.9197 -0.0657 -0.3870
vn -0.9196 -0.0738 -0.3858
vn 0.9885 -0.1514 -0.0027
vn 0.9885 -0.1512 -0.0067
vn 0.6973 -0.1748 0.6952
vn 0.6884 -0.1592 0.7077
vt 0.312629 0.602841
vt 0.312759 0.587915
vt 0.312888 0.572989
vt 0.312888 0.572989
vt 0.313938 0.603989
vt 0.313276 0.583477
vt 0.313939 0.603989
vt 0.313071 0.577943
vt 0.313071 0.577943
vt 0.312500 0.617767
vt 0.312500 0.617767
vt 0.312629 0.602841
vt 0.312500 0.617767
vt 0.313939 0.603988
vt 0.312888 0.572989
vt 0.312759 0.587915
vt 0.312759 0.587915
s 0
f 24/1/1 8/2/1 15/2/1
f 17/3/2 8/2/2 9/4/2
f 19/5/3 13/6/3 10/7/3
f 26/6/4 14/8/4 13/6/4
f 28/9/5 9/4/5 14/8/5
f 19/5/6 11/10/6 21/10/6
f 21/10/7 12/1/7 24/1/7
f 1/11/8 23/12/8 5/1/8
f 22/13/9 24/1/9 23/12/9
f 2/14/10 22/13/10 1/11/10
f 20/5/11 21/10/11 22/13/11
f 7/8/12 18/15/12 27/8/12
f 27/8/13 17/3/13 28/9/13
f 3/6/14 27/8/14 25/6/14
f 25/6/15 28/9/15 26/6/15
f 2/14/16 25/6/16 20/5/16
f 20/5/17 26/6/17 19/5/17
f 4/3/18 16/16/18 18/15/18
f 18/15/19 15/2/19 17/3/19
f 5/1/20 16/16/20 6/17/20
f 23/12/21 15/2/21 16/16/21
f 24/1/22 12/1/22 8/2/22
f 17/3/23 15/2/23 8/2/23
f 19/5/24 26/6/24 13/6/24
f 26/6/25 28/9/25 14/8/25
f 28/9/26 17/3/26 9/4/26
f 19/5/27 10/7/27 11/10/27
f 21/10/28 11/10/28 12/1/28
f 1/11/29 22/13/29 23/12/29
f 22/13/30 21/10/30 24/1/30
f 2/14/31 20/5/31 22/13/31
f 20/5/32 19/5/32 21/10/32
f 7/8/33 4/3/33 18/15/33
f 27/8/34 18/15/34 17/3/34
f 3/6/35 7/8/35 27/8/35
f 25/6/36 27/8/36 28/9/36
f 2/14/37 3/6/37 25/6/37
f 20/5/38 25/6/38 26/6/38
f 4/3/39 6/17/39 16/16/39
f 18/15/40 16/16/40 15/2/40
f 5/1/41 23/12/41 16/16/41
f 23/12/42 24/1/42 15/2/42
