# Blender 4.2.2 LTS
# www.blender.org
mtllib leftLeg.mtl
o 足.001
v 0.033828 -0.052873 -0.014090
v 0.044467 -0.051981 0.002416
v 0.034495 -0.052953 0.020303
v -0.010045 -0.051498 0.017580
v 0.008207 -0.052710 -0.016682
v -0.010495 -0.051432 -0.005653
v 0.009038 -0.052810 0.026206
v 0.006505 -0.036999 -0.029005
v -0.014769 -0.036555 -0.008991
v -0.014190 -0.036762 0.020861
v 0.034655 -0.038132 0.029679
v 0.046140 -0.038263 0.002006
v 0.007805 -0.037463 0.038070
v 0.033612 -0.037759 -0.024112
v -0.024112 0.068005 -0.010075
v -0.023524 0.067983 0.020306
v 0.037772 0.067822 0.001517
v 0.025044 0.067876 -0.025141
v -0.002497 0.067958 -0.030300
v 0.026103 0.067836 0.029603
v -0.001176 0.067908 0.037965
v -0.001289 0.038146 -0.036102
v 0.002853 -0.001603 -0.032488
v 0.032132 0.037660 0.033783
v 0.033506 -0.002574 0.031452
v 0.000255 0.037947 0.043624
v 0.004268 -0.002001 0.040570
v -0.020314 -0.001223 -0.010708
v -0.026547 0.038336 -0.012426
v -0.019684 -0.001400 0.021806
v -0.025860 0.038247 0.023057
v 0.046013 -0.002687 0.001320
v 0.045768 0.037604 0.000945
v 0.032371 -0.002255 -0.027134
v 0.030894 0.037820 -0.030149
v 0.041784 -0.052770 -0.006621
v 0.042141 -0.052813 0.011814
v 0.022555 -0.052890 0.025285
v -0.011461 -0.052220 0.006056
v 0.021725 -0.052791 -0.017514
v -0.003670 -0.052445 -0.011787
v -0.002998 -0.052528 0.022852
v 0.007538 -0.047339 -0.026577
v 0.034813 -0.048057 0.028057
v 0.008750 -0.047633 0.035946
v 0.033866 -0.054465 0.003159
v 0.008770 -0.054427 0.004786
v 0.004862 -0.020934 -0.030615
v -0.012838 -0.046904 -0.008047
v -0.012293 -0.047038 0.020094
v 0.034165 -0.022107 0.030478
v 0.045771 -0.048011 0.002243
v 0.006215 -0.021414 0.039210
v 0.033841 -0.047821 -0.022082
v 0.020684 -0.037375 -0.029856
v 0.042634 -0.038075 -0.012681
v -0.005070 -0.037080 0.032199
v 0.021981 -0.037838 0.037083
v 0.043212 -0.038281 0.017109
v -0.017572 -0.036577 0.006135
v -0.006111 -0.036708 -0.021482
v -0.028309 0.056864 -0.012495
v -0.027618 0.056817 0.023185
v 0.044382 0.056475 0.001063
v 0.029431 0.056590 -0.030231
v -0.013087 0.070158 -0.019660
v -0.023374 0.070169 0.005097
v 0.031180 0.070029 0.015324
v 0.012125 0.070066 0.033152
v -0.012153 0.070128 0.028600
v 0.030661 0.070046 -0.011460
v 0.010961 0.070104 -0.027029
v -0.002920 0.056763 -0.036267
v 0.000782 0.018271 -0.034355
v 0.030675 0.056505 0.034060
v 0.032819 0.017543 0.032546
v -0.001368 0.056657 0.043905
v 0.002261 0.017973 0.042033
v -0.017283 -0.020474 -0.009783
v -0.023430 0.018557 -0.011623
v -0.016681 -0.020688 0.021293
v -0.022772 0.018424 0.022374
v 0.046120 -0.022243 0.001671
v 0.045891 0.017459 0.001059
v 0.033079 -0.021721 -0.025517
v 0.031633 0.017783 -0.028709
v -0.016267 0.038271 -0.027225
v -0.010885 -0.001354 -0.024304
v -0.029875 0.038327 0.005538
v -0.023366 -0.001241 0.005764
v 0.042292 0.037596 0.018883
v 0.042824 -0.002702 0.017768
v 0.017085 0.037786 0.042521
v 0.019705 -0.002322 0.039506
v -0.015032 0.038111 0.036580
v -0.009752 -0.001672 0.034163
v 0.041606 0.037685 -0.016524
v 0.042195 -0.002525 -0.014678
v 0.015545 0.037985 -0.037040
v 0.018292 -0.001925 -0.033401
v -0.004668 -0.047116 -0.019575
v -0.015441 -0.046995 0.006212
v 0.043047 -0.048120 0.016323
v 0.022520 -0.047871 0.034989
v -0.003697 -0.047352 0.030540
v 0.042509 -0.047989 -0.011445
v 0.021311 -0.047577 -0.027406
v 0.019621 -0.021323 -0.031498
v 0.042471 -0.022048 -0.013618
v -0.007187 -0.021017 0.033096
v 0.020972 -0.021803 0.038183
v 0.043072 -0.022262 0.017394
v -0.020201 -0.020496 0.005963
v -0.008270 -0.020632 -0.022784
v -0.017853 0.057043 -0.027183
v -0.013576 0.018458 -0.025822
v -0.031452 0.057073 0.005551
v -0.026621 0.018543 0.005595
v 0.040668 0.056688 0.019005
v 0.042558 0.017447 0.018252
v 0.015478 0.056788 0.042595
v 0.018395 0.017732 0.040945
v -0.016619 0.056959 0.036606
v -0.012392 0.018220 0.035311
v 0.039983 0.056735 -0.016394
v 0.041901 0.017580 -0.015672
v 0.013939 0.056893 -0.036947
v 0.016919 0.018030 -0.035284
v 0.040467 -0.054239 0.002726
v 0.022176 -0.054447 0.003917
v -0.003258 -0.054135 0.005560
v 0.004731 0.075492 0.003485
vn -0.8010 -0.2009 -0.5640
vn -0.5031 -0.2227 -0.8350
vn -0.2358 -0.8158 -0.5280
vn -0.5845 -0.5944 -0.5522
vn -0.9571 -0.1928 0.2164
vn -0.9639 -0.1985 -0.1772
vn -0.7926 -0.6005 -0.1058
vn -0.8309 -0.5241 0.1868
vn 0.9813 -0.0325 0.1896
vn 0.8170 -0.0595 0.5736
vn 0.5907 -0.6154 0.5219
vn 0.9326 -0.2974 0.2045
vn 0.4853 -0.1335 0.8641
vn 0.0645 -0.2006 0.9776
vn 0.0260 -0.8879 0.4593
vn 0.2108 -0.8304 0.5157
vn -0.3926 -0.2228 0.8923
vn -0.7593 -0.2014 0.6188
vn -0.5503 -0.7150 0.4313
vn -0.2164 -0.8647 0.4532
vn 0.7790 -0.1069 -0.6178
vn 0.9717 -0.0412 -0.2325
vn 0.9086 -0.3568 -0.2171
vn 0.5381 -0.7129 -0.4498
vn -0.0644 -0.2342 -0.9700
vn 0.3937 -0.1917 -0.8990
vn 0.1805 -0.8670 -0.4645
vn -0.0437 -0.8793 -0.4743
vn -0.0609 -0.1025 -0.9929
vn 0.4047 -0.0618 -0.9124
vn 0.4036 -0.0666 -0.9125
vn -0.0622 -0.1058 -0.9924
vn 0.7847 -0.0229 -0.6194
vn 0.9727 0.0011 -0.2321
vn 0.9727 -0.0037 -0.2322
vn 0.7843 -0.0282 -0.6198
vn -0.4153 -0.1050 0.9036
vn -0.7737 -0.1367 0.6186
vn -0.7738 -0.1365 0.6186
vn -0.4152 -0.1053 0.9036
vn 0.5037 -0.0261 0.8635
vn 0.0676 -0.0632 0.9957
vn 0.0676 -0.0640 0.9957
vn 0.5037 -0.0276 0.8634
vn 0.9817 0.0088 0.1903
vn 0.8266 -0.0003 0.5627
vn 0.8266 -0.0028 0.5628
vn 0.9817 0.0052 0.1903
vn -0.9632 -0.1558 0.2192
vn -0.9703 -0.1614 -0.1800
vn -0.9705 -0.1606 -0.1801
vn -0.9632 -0.1552 0.2193
vn -0.8125 -0.1549 -0.5620
vn -0.5088 -0.1360 -0.8500
vn -0.5097 -0.1372 -0.8494
vn -0.8128 -0.1547 -0.5616
vn -0.7499 0.3974 -0.5290
vn -0.5271 0.5588 -0.6402
vn -0.5198 -0.0420 -0.8532
vn -0.8116 -0.0793 -0.5788
vn -0.8122 -0.1509 -0.5635
vn -0.5064 -0.1292 -0.8526
vn -0.5076 -0.1342 -0.8511
vn -0.8123 -0.1540 -0.5626
vn -0.9017 0.3826 0.2016
vn -0.8512 0.5239 -0.0333
vn -0.9820 -0.0825 -0.1701
vn -0.9706 -0.0934 0.2220
vn -0.9628 -0.1575 0.2197
vn -0.9706 -0.1602 -0.1799
vn -0.9704 -0.1612 -0.1800
vn -0.9630 -0.1563 0.2195
vn 0.8543 0.4908 0.1710
vn 0.7162 0.6052 0.3476
vn 0.8245 0.0665 0.5619
vn 0.9793 0.0707 0.1898
vn 0.9817 0.0071 0.1903
vn 0.8264 -0.0067 0.5631
vn 0.8265 -0.0026 0.5629
vn 0.9817 0.0084 0.1903
vn 0.4373 0.4765 0.7628
vn 0.1843 0.6001 0.7784
vn 0.0654 0.0016 0.9979
vn 0.5022 0.0261 0.8644
vn 0.5025 -0.0360 0.8638
vn 0.0660 -0.0739 0.9951
vn 0.0672 -0.0670 0.9955
vn 0.5034 -0.0298 0.8635
vn -0.3813 0.4367 0.8148
vn -0.5541 0.5615 0.6145
vn -0.7792 -0.0665 0.6232
vn -0.4184 -0.0499 0.9069
vn -0.4158 -0.1136 0.9023
vn -0.7732 -0.1420 0.6181
vn -0.7734 -0.1383 0.6186
vn -0.4153 -0.1079 0.9033
vn 0.6843 0.5038 -0.5272
vn 0.7286 0.6190 -0.2932
vn 0.9666 0.0840 -0.2423
vn 0.7935 0.0592 -0.6057
vn 0.7860 -0.0154 -0.6181
vn 0.9728 0.0045 -0.2317
vn 0.9727 0.0028 -0.2320
vn 0.7853 -0.0197 -0.6188
vn -0.0392 0.4712 -0.8812
vn 0.1996 0.6167 -0.7615
vn 0.3981 0.0383 -0.9165
vn -0.0402 -0.0124 -0.9991
vn -0.0563 -0.0932 -0.9941
vn 0.4086 -0.0521 -0.9112
vn 0.4065 -0.0581 -0.9118
vn -0.0587 -0.0994 -0.9933
vn 0.4864 -0.8711 -0.0684
vn 0.1106 -0.9904 0.0833
vn 0.0989 -0.9909 -0.0917
vn 0.0042 -0.9961 0.0877
vn 0.0032 -0.9974 0.0726
vn -0.0107 -0.9970 -0.0768
vn -0.0075 -0.9957 -0.0919
vn -0.0445 -0.9961 0.0758
vn -0.2122 -0.9727 0.0936
vn -0.2242 -0.9704 -0.0892
vn -0.0544 -0.9955 -0.0782
vn -0.0841 0.9559 -0.2813
vn -0.2304 0.9720 -0.0466
vn -0.2772 0.9514 0.1340
vn -0.0514 0.9566 0.2869
vn 0.2080 0.9530 0.2203
vn 0.3074 0.9516 -0.0054
vn 0.1817 0.9569 -0.2264
vn -0.8042 -0.2132 -0.5548
vn -0.4857 -0.2455 -0.8389
vn -0.2709 -0.8536 -0.4450
vn -0.5882 -0.7006 -0.4040
vn -0.9566 -0.1941 0.2173
vn -0.9641 -0.1962 -0.1789
vn -0.8409 -0.5180 -0.1568
vn -0.7863 -0.6030 0.1344
vn 0.9812 -0.0316 0.1902
vn 0.8236 -0.0787 0.5616
vn 0.5863 -0.6956 0.4152
vn 0.9214 -0.3466 0.1756
vn 0.4960 -0.1518 0.8550
vn 0.0629 -0.1984 0.9781
vn 0.0174 -0.8827 0.4697
vn 0.2389 -0.8622 0.4468
vn -0.4115 -0.1987 0.8895
vn -0.7679 -0.1875 0.6125
vn -0.5325 -0.6031 0.5939
vn -0.1697 -0.8246 0.5397
vn 0.7715 -0.0883 -0.6301
vn 0.9719 -0.0424 -0.2317
vn 0.9178 -0.3122 -0.2452
vn 0.5298 -0.6409 -0.5555
vn -0.0624 -0.2367 -0.9696
vn 0.3822 -0.1744 -0.9075
vn 0.1439 -0.8366 -0.5286
vn -0.0339 -0.8847 -0.4649
vn -0.0621 -0.1017 -0.9929
vn 0.4039 -0.0611 -0.9128
vn 0.4035 -0.0665 -0.9126
vn -0.0624 -0.1056 -0.9924
vn 0.7844 -0.0226 -0.6198
vn 0.9727 0.0012 -0.2321
vn 0.9727 -0.0036 -0.2322
vn 0.7843 -0.0283 -0.6198
vn -0.4154 -0.1049 0.9036
vn -0.7736 -0.1369 0.6187
vn -0.4153 -0.1052 0.9036
vn 0.5035 -0.0259 0.8636
vn 0.0673 -0.0630 0.9957
vn 0.5037 -0.0275 0.8635
vn 0.8266 -0.0002 0.5628
vn -0.9631 -0.1560 0.2195
vn -0.9633 -0.1551 0.2192
vn -0.8128 -0.1545 -0.5616
vn -0.5098 -0.1353 -0.8496
vn -0.5096 -0.1372 -0.8494
vn -0.8129 -0.1546 -0.5615
vn -0.6066 0.5498 -0.5742
vn -0.4632 0.4304 -0.7747
vn -0.5095 -0.0522 -0.8589
vn -0.8195 -0.0680 -0.5690
vn -0.8127 -0.1502 -0.5630
vn -0.5079 -0.1278 -0.8519
vn -0.5090 -0.1329 -0.8504
vn -0.8127 -0.1535 -0.5621
vn -0.8481 0.5255 0.0672
vn -0.9111 0.3786 -0.1631
vn -0.9789 -0.0938 -0.1814
vn -0.9741 -0.0821 0.2106
vn -0.9627 -0.1577 0.2199
vn -0.9705 -0.1603 -0.1800
vn -0.9629 -0.1565 0.2198
vn 0.7510 0.6063 0.2616
vn 0.7260 0.4848 0.4878
vn 0.8315 0.0562 0.5526
vn 0.9762 0.0817 0.2011
vn 0.9817 0.0070 0.1902
vn 0.8262 -0.0064 0.5634
vn 0.8264 -0.0024 0.5631
vn 0.2854 0.6023 0.7455
vn 0.0650 0.4650 0.8829
vn 0.0776 -0.0082 0.9970
vn 0.4899 0.0380 0.8710
vn 0.5016 -0.0352 0.8644
vn 0.0645 -0.0728 0.9953
vn 0.0661 -0.0663 0.9956
vn 0.5027 -0.0292 0.8640
vn -0.4637 0.5697 0.6785
vn -0.7082 0.4082 0.5761
vn -0.7707 -0.0773 0.6325
vn -0.4320 -0.0376 0.9011
vn -0.4168 -0.1129 0.9020
vn -0.7734 -0.1418 0.6178
vn -0.7736 -0.1382 0.6185
vn -0.4161 -0.1073 0.9030
vn 0.6856 0.6210 -0.3800
vn 0.8422 0.4988 -0.2048
vn 0.9703 0.0727 -0.2308
vn 0.7845 0.0710 -0.6161
vn 0.7854 -0.0147 -0.6188
vn 0.9727 0.0046 -0.2319
vn 0.9727 0.0029 -0.2321
vn 0.7848 -0.0191 -0.6194
vn 0.0936 0.6111 -0.7860
vn 0.3537 0.4953 -0.7935
vn 0.4097 0.0279 -0.9118
vn -0.0556 0.0002 -0.9985
vn -0.0586 -0.0915 -0.9941
vn 0.4067 -0.0506 -0.9121
vn 0.4049 -0.0568 -0.9126
vn -0.0608 -0.0979 -0.9933
vn 0.4937 -0.8684 0.0453
vn 0.0435 -0.9882 0.1470
vn 0.0239 -0.9881 -0.1519
vn 0.0249 -0.9971 0.0722
vn -0.0008 -0.9972 0.0753
vn -0.0066 -0.9968 -0.0795
vn 0.0151 -0.9969 -0.0773
vn -0.0182 -0.9955 0.0928
vn -0.2214 -0.9712 0.0880
vn -0.2314 -0.9692 -0.0843
vn -0.0303 -0.9949 -0.0962
vn -0.0543 0.9814 -0.1844
vn -0.1917 0.9729 -0.1294
vn -0.1805 0.9796 0.0879
vn -0.0327 0.9817 0.1877
vn 0.1375 0.9798 0.1449
vn 0.2037 0.9790 -0.0033
vn 0.1204 0.9815 -0.1487
vt 0.312759 0.587915
vt 0.312699 0.595015
vt 0.312629 0.602841
vt 0.312694 0.595378
vt 0.312704 0.598707
vt 0.312740 0.592269
vt 0.312888 0.572989
vt 0.312824 0.580728
vt 0.312895 0.575750
vt 0.312823 0.580452
vt 0.313588 0.602867
vt 0.313579 0.593876
vt 0.313618 0.602960
vt 0.313573 0.593905
vt 0.313346 0.585766
vt 0.313276 0.583477
vt 0.313607 0.593733
vt 0.313939 0.603988
vt 0.313352 0.585974
vt 0.313182 0.580980
vt 0.313184 0.581035
vt 0.313074 0.578032
vt 0.313071 0.577943
vt 0.313174 0.580711
vt 0.313075 0.578040
vt 0.312981 0.575752
vt 0.312980 0.575547
vt 0.312980 0.575466
vt 0.313181 0.610638
vt 0.312500 0.617767
vt 0.313183 0.610761
vt 0.313219 0.610878
vt 0.312565 0.610304
vt 0.312639 0.602324
vt 0.312575 0.609807
vt 0.312658 0.605822
vt 0.312597 0.609706
vt 0.312761 0.612983
vt 0.312592 0.609806
vt 0.312740 0.613382
vt 0.313208 0.610140
vt 0.313588 0.602866
vt 0.313203 0.610239
vt 0.312980 0.575476
vt 0.313183 0.581033
vt 0.313183 0.581024
vt 0.312800 0.588665
vt 0.312705 0.595277
vt 0.312765 0.588033
vt 0.312693 0.601104
vt 0.312776 0.594606
vt 0.312639 0.602567
vt 0.312917 0.579540
vt 0.312831 0.581226
vt 0.312899 0.576559
vt 0.312873 0.584217
vt 0.312824 0.580521
vt 0.313939 0.603989
vt 0.313578 0.593639
vt 0.313647 0.603054
vt 0.313938 0.603989
vt 0.313617 0.602960
vt 0.313169 0.581091
vt 0.313064 0.580452
vt 0.313143 0.583837
vt 0.313175 0.580765
vt 0.313182 0.580970
vt 0.313071 0.577944
vt 0.312982 0.576421
vt 0.313073 0.578412
vt 0.312990 0.580550
vt 0.313190 0.610784
vt 0.312739 0.613382
vt 0.313210 0.610263
vt 0.312578 0.609775
vt 0.312692 0.605781
vt 0.312570 0.610204
vt 0.313252 0.601578
vt 0.312992 0.599441
vt 0.312888 0.594903
vt 0.312861 0.589916
vt 0.312842 0.585063
vt 0.313019 0.592730
s 0
usemtl Material.007
f 9/1/1 101/2/1 49/1/1
f 8/3/2 101/2/2 61/4/2
f 101/2/3 5/5/3 41/6/3
f 49/1/4 41/6/4 6/1/4
f 10/7/5 102/8/5 50/9/5
f 60/10/6 49/1/6 102/8/6
f 102/8/7 6/1/7 39/10/7
f 102/8/8 4/7/8 50/9/8
f 12/11/9 103/12/9 52/13/9
f 59/14/10 44/15/10 103/12/10
f 103/12/11 3/16/11 37/17/11
f 52/13/12 37/17/12 2/18/12
f 11/19/13 104/20/13 44/15/13
f 58/21/14 45/22/14 104/20/14
f 104/20/15 7/23/15 38/24/15
f 44/15/16 38/24/16 3/16/16
f 13/25/17 105/26/17 45/22/17
f 57/27/18 50/9/18 105/26/18
f 50/9/19 42/28/19 105/26/19
f 105/26/20 7/23/20 45/22/20
f 56/29/21 54/30/21 14/30/21
f 12/11/22 106/31/22 56/29/22
f 52/13/23 36/32/23 106/31/23
f 106/31/24 1/30/24 54/30/24
f 55/33/25 43/34/25 8/3/25
f 14/30/26 107/35/26 55/33/26
f 54/30/27 40/36/27 107/35/27
f 107/35/28 5/5/28 43/34/28
f 100/37/29 48/3/29 23/3/29
f 34/38/30 108/39/30 100/37/30
f 85/40/31 55/33/31 108/39/31
f 108/39/32 8/3/32 48/3/32
f 98/41/33 85/40/33 34/38/33
f 32/42/34 109/43/34 98/41/34
f 83/11/35 56/29/35 109/43/35
f 109/43/36 14/30/36 85/40/36
f 27/23/37 110/44/37 53/22/37
f 96/28/38 81/7/38 110/44/38
f 110/44/39 10/7/39 57/27/39
f 53/22/40 57/27/40 13/25/40
f 25/19/41 111/45/41 51/19/41
f 94/46/42 53/22/42 111/45/42
f 111/45/43 13/25/43 58/21/43
f 51/19/44 58/21/44 11/19/44
f 32/42/45 112/14/45 83/11/45
f 92/14/46 51/19/46 112/14/46
f 112/14/47 11/19/47 59/14/47
f 112/14/48 12/11/48 83/11/48
f 30/7/49 113/10/49 81/7/49
f 90/10/50 79/1/50 113/10/50
f 113/10/51 9/1/51 60/10/51
f 81/7/52 60/10/52 10/7/52
f 88/4/53 79/1/53 28/1/53
f 23/3/54 114/4/54 88/4/54
f 48/3/55 61/4/55 114/4/55
f 114/4/56 9/1/56 79/1/56
f 15/47/57 115/48/57 62/49/57
f 19/50/58 115/48/58 66/51/58
f 73/52/59 87/4/59 115/48/59
f 115/48/60 29/1/60 62/49/60
f 87/4/61 80/1/61 29/1/61
f 22/3/62 116/4/62 87/4/62
f 74/3/63 88/4/63 116/4/63
f 116/4/64 28/1/64 80/1/64
f 16/53/65 117/54/65 63/55/65
f 15/47/66 117/54/66 67/56/66
f 62/49/67 89/57/67 117/54/67
f 63/55/68 89/57/68 31/7/68
f 31/7/69 118/10/69 82/7/69
f 29/1/70 118/10/70 89/57/70
f 80/1/71 90/10/71 118/10/71
f 82/7/72 90/10/72 30/7/72
f 17/58/73 119/59/73 64/60/73
f 20/16/74 119/59/74 68/17/74
f 119/59/75 24/16/75 91/17/75
f 64/60/76 91/17/76 33/61/76
f 33/61/77 120/12/77 84/62/77
f 91/17/78 76/15/78 120/12/78
f 120/12/79 25/19/79 92/14/79
f 84/62/80 92/14/80 32/42/80
f 20/16/81 121/63/81 75/16/81
f 21/64/82 121/63/82 69/65/82
f 121/63/83 26/23/83 93/66/83
f 75/16/84 93/66/84 24/16/84
f 24/16/85 122/67/85 76/15/85
f 93/66/86 78/68/86 122/67/86
f 122/67/87 27/23/87 94/46/87
f 76/15/88 94/46/88 25/19/88
f 21/64/89 123/69/89 77/70/89
f 16/53/90 123/69/90 70/71/90
f 123/69/91 31/7/91 95/28/91
f 77/70/92 95/28/92 26/23/92
f 26/23/93 124/28/93 78/68/93
f 95/28/94 82/7/94 124/28/94
f 124/28/95 30/7/95 96/28/95
f 78/68/96 96/28/96 27/23/96
f 18/30/97 125/72/97 65/30/97
f 17/58/98 125/72/98 71/32/98
f 64/60/99 97/32/99 125/72/99
f 125/72/100 35/30/100 65/30/100
f 97/32/101 86/73/101 35/30/101
f 33/61/102 126/74/102 97/32/102
f 84/62/103 98/41/103 126/74/103
f 126/74/104 34/38/104 86/73/104
f 19/50/105 127/75/105 73/52/105
f 18/30/106 127/75/106 72/76/106
f 65/30/107 99/77/107 127/75/107
f 127/75/108 22/3/108 73/52/108
f 99/77/109 74/3/109 22/3/109
f 35/30/110 128/39/110 99/77/110
f 86/73/111 100/37/111 128/39/111
f 128/39/112 23/3/112 74/3/112
f 2/18/113 129/78/113 36/32/113
f 46/79/114 37/17/114 3/16/114
f 36/32/115 46/79/115 1/30/115
f 3/16/116 130/80/116 46/79/116
f 38/24/117 47/81/117 130/80/117
f 130/80/118 5/5/118 40/36/118
f 130/80/119 1/30/119 46/79/119
f 42/28/120 47/81/120 7/23/120
f 4/7/121 131/82/121 42/28/121
f 131/82/122 6/1/122 41/6/122
f 47/81/123 41/6/123 5/5/123
f 66/51/124 72/76/124 19/50/124
f 15/47/125 132/83/125 66/51/125
f 70/71/126 67/56/126 16/53/126
f 69/65/127 70/71/127 21/64/127
f 68/17/128 69/65/128 20/16/128
f 71/32/129 68/17/129 17/58/129
f 72/76/130 71/32/130 18/30/130
f 9/1/131 61/4/131 101/2/131
f 8/3/132 43/34/132 101/2/132
f 101/2/133 43/34/133 5/5/133
f 49/1/134 101/2/134 41/6/134
f 10/7/135 60/10/135 102/8/135
f 60/10/136 9/1/136 49/1/136
f 102/8/137 49/1/137 6/1/137
f 102/8/138 39/10/138 4/7/138
f 12/11/139 59/14/139 103/12/139
f 59/14/140 11/19/140 44/15/140
f 103/12/141 44/15/141 3/16/141
f 52/13/142 103/12/142 37/17/142
f 11/19/143 58/21/143 104/20/143
f 58/21/144 13/25/144 45/22/144
f 104/20/145 45/22/145 7/23/145
f 44/15/146 104/20/146 38/24/146
f 13/25/147 57/27/147 105/26/147
f 57/27/148 10/7/148 50/9/148
f 50/9/149 4/7/149 42/28/149
f 105/26/150 42/28/150 7/23/150
f 56/29/151 106/31/151 54/30/151
f 12/11/152 52/13/152 106/31/152
f 52/13/153 2/18/153 36/32/153
f 106/31/154 36/32/154 1/30/154
f 55/33/155 107/35/155 43/34/155
f 14/30/156 54/30/156 107/35/156
f 54/30/157 1/30/157 40/36/157
f 107/35/158 40/36/158 5/5/158
f 100/37/159 108/39/159 48/3/159
f 34/38/160 85/40/160 108/39/160
f 85/40/161 14/30/161 55/33/161
f 108/39/162 55/33/162 8/3/162
f 98/41/163 109/43/163 85/40/163
f 32/42/164 83/11/164 109/43/164
f 83/11/165 12/11/165 56/29/165
f 109/43/166 56/29/166 14/30/166
f 27/23/167 96/28/167 110/44/167
f 96/28/168 30/7/168 81/7/168
f 110/44/39 81/7/39 10/7/39
f 53/22/169 110/44/169 57/27/169
f 25/19/170 94/46/170 111/45/170
f 94/46/171 27/23/171 53/22/171
f 111/45/43 53/22/43 13/25/43
f 51/19/172 111/45/172 58/21/172
f 32/42/45 92/14/45 112/14/45
f 92/14/173 25/19/173 51/19/173
f 112/14/47 51/19/47 11/19/47
f 112/14/48 59/14/48 12/11/48
f 30/7/174 90/10/174 113/10/174
f 90/10/50 28/1/50 79/1/50
f 113/10/51 79/1/51 9/1/51
f 81/7/175 113/10/175 60/10/175
f 88/4/176 114/4/176 79/1/176
f 23/3/177 48/3/177 114/4/177
f 48/3/178 8/3/178 61/4/178
f 114/4/179 61/4/179 9/1/179
f 15/47/180 66/51/180 115/48/180
f 19/50/181 73/52/181 115/48/181
f 73/52/182 22/3/182 87/4/182
f 115/48/183 87/4/183 29/1/183
f 87/4/184 116/4/184 80/1/184
f 22/3/185 74/3/185 116/4/185
f 74/3/186 23/3/186 88/4/186
f 116/4/187 88/4/187 28/1/187
f 16/53/188 67/56/188 117/54/188
f 15/47/189 62/49/189 117/54/189
f 62/49/190 29/1/190 89/57/190
f 63/55/191 117/54/191 89/57/191
f 31/7/192 89/57/192 118/10/192
f 29/1/193 80/1/193 118/10/193
f 80/1/71 28/1/71 90/10/71
f 82/7/194 118/10/194 90/10/194
f 17/58/195 68/17/195 119/59/195
f 20/16/196 75/16/196 119/59/196
f 119/59/197 75/16/197 24/16/197
f 64/60/198 119/59/198 91/17/198
f 33/61/199 91/17/199 120/12/199
f 91/17/200 24/16/200 76/15/200
f 120/12/201 76/15/201 25/19/201
f 84/62/80 120/12/80 92/14/80
f 20/16/202 69/65/202 121/63/202
f 21/64/203 77/70/203 121/63/203
f 121/63/204 77/70/204 26/23/204
f 75/16/205 121/63/205 93/66/205
f 24/16/206 93/66/206 122/67/206
f 93/66/207 26/23/207 78/68/207
f 122/67/208 78/68/208 27/23/208
f 76/15/209 122/67/209 94/46/209
f 21/64/210 70/71/210 123/69/210
f 16/53/211 63/55/211 123/69/211
f 123/69/212 63/55/212 31/7/212
f 77/70/213 123/69/213 95/28/213
f 26/23/214 95/28/214 124/28/214
f 95/28/215 31/7/215 82/7/215
f 124/28/216 82/7/216 30/7/216
f 78/68/217 124/28/217 96/28/217
f 18/30/218 71/32/218 125/72/218
f 17/58/219 64/60/219 125/72/219
f 64/60/220 33/61/220 97/32/220
f 125/72/221 97/32/221 35/30/221
f 97/32/222 126/74/222 86/73/222
f 33/61/223 84/62/223 126/74/223
f 84/62/224 32/42/224 98/41/224
f 126/74/225 98/41/225 34/38/225
f 19/50/226 72/76/226 127/75/226
f 18/30/227 65/30/227 127/75/227
f 65/30/228 35/30/228 99/77/228
f 127/75/229 99/77/229 22/3/229
f 99/77/230 128/39/230 74/3/230
f 35/30/231 86/73/231 128/39/231
f 86/73/232 34/38/232 100/37/232
f 128/39/233 100/37/233 23/3/233
f 2/18/234 37/17/234 129/78/234
f 46/79/235 129/78/235 37/17/235
f 36/32/236 129/78/236 46/79/236
f 3/16/237 38/24/237 130/80/237
f 38/24/238 7/23/238 47/81/238
f 130/80/239 47/81/239 5/5/239
f 130/80/240 40/36/240 1/30/240
f 42/28/241 131/82/241 47/81/241
f 4/7/242 39/10/242 131/82/242
f 131/82/243 39/10/243 6/1/243
f 47/81/244 131/82/244 41/6/244
f 66/51/245 132/83/245 72/76/245
f 15/47/246 67/56/246 132/83/246
f 70/71/247 132/83/247 67/56/247
f 69/65/248 132/83/248 70/71/248
f 68/17/249 132/83/249 69/65/249
f 71/32/250 132/83/250 68/17/250
f 72/76/251 132/83/251 71/32/251
