# Blender 4.1.1
# www.blender.org
mtllib SkyEntyu.mtl
o 円柱
v 0.000000 -1339.357788 83.709862
v 0.000000 1339.357788 83.709862
v -16.330984 -1339.357788 82.101395
v -16.330984 1339.357788 82.101395
v -32.034378 -1339.357788 77.337822
v -32.034378 1339.357788 77.337822
v -46.506710 -1339.357788 69.602203
v -46.506710 1339.357788 69.602203
v -59.191811 -1339.357788 59.191811
v -59.191811 1339.357788 59.191811
v -69.602203 -1339.357788 46.506710
v -69.602203 1339.357788 46.506710
v -77.337822 -1339.357788 32.034378
v -77.337822 1339.357788 32.034378
v -82.101395 -1339.357788 16.330984
v -82.101395 1339.357788 16.330984
v -83.709862 -1339.357788 0.000000
v -83.709862 1339.357788 0.000000
v -82.101395 -1339.357788 -16.330984
v -82.101395 1339.357788 -16.330984
v -77.337822 -1339.357788 -32.034378
v -77.337822 1339.357788 -32.034378
v -69.602203 -1339.357788 -46.506710
v -69.602203 1339.357788 -46.506710
v -59.191811 -1339.357788 -59.191811
v -59.191811 1339.357788 -59.191811
v -46.506710 -1339.357788 -69.602203
v -46.506710 1339.357788 -69.602203
v -32.034378 -1339.357788 -77.337822
v -32.034378 1339.357788 -77.337822
v -16.330984 -1339.357788 -82.101395
v -16.330984 1339.357788 -82.101395
v 0.000000 -1339.357788 -83.709862
v 0.000000 1339.357788 -83.709862
v 16.330984 -1339.357788 -82.101395
v 16.330984 1339.357788 -82.101395
v 32.034378 -1339.357788 -77.337822
v 32.034378 1339.357788 -77.337822
v 46.506710 -1339.357788 -69.602203
v 46.506710 1339.357788 -69.602203
v 59.191811 -1339.357788 -59.191811
v 59.191811 1339.357788 -59.191811
v 69.602203 -1339.357788 -46.506710
v 69.602203 1339.357788 -46.506710
v 77.337822 -1339.357788 -32.034378
v 77.337822 1339.357788 -32.034378
v 82.101395 -1339.357788 -16.330984
v 82.101395 1339.357788 -16.330984
v 83.709862 -1339.357788 0.000000
v 83.709862 1339.357788 0.000000
v 82.101395 -1339.357788 16.330984
v 82.101395 1339.357788 16.330984
v 77.337822 -1339.357788 32.034378
v 77.337822 1339.357788 32.034378
v 69.602203 -1339.357788 46.506710
v 69.602203 1339.357788 46.506710
v 59.191811 -1339.357788 59.191811
v 59.191811 1339.357788 59.191811
v 46.506710 -1339.357788 69.602203
v 46.506710 1339.357788 69.602203
v 32.034378 -1339.357788 77.337822
v 32.034378 1339.357788 77.337822
v 16.330984 -1339.357788 82.101395
v 16.330984 1339.357788 82.101395
vn -0.0000 0.0588 -0.9983
vn -0.0000 -0.0588 -0.9983
vn 0.1948 0.0588 -0.9791
vn 0.1948 -0.0588 -0.9791
vn 0.3820 0.0588 -0.9223
vn 0.3820 -0.0588 -0.9223
vn 0.5546 0.0588 -0.8300
vn 0.5546 -0.0588 -0.8300
vn 0.7059 0.0588 -0.7059
vn 0.7059 -0.0588 -0.7059
vn 0.8300 0.0588 -0.5546
vn 0.8300 -0.0588 -0.5546
vn 0.9223 0.0588 -0.3820
vn 0.9223 -0.0588 -0.3820
vn 0.9791 0.0588 -0.1948
vn 0.9791 -0.0588 -0.1948
vn 0.9983 0.0588 -0.0000
vn 0.9983 -0.0588 -0.0000
vn 0.9791 0.0588 0.1948
vn 0.9791 -0.0588 0.1948
vn 0.9223 0.0588 0.3820
vn 0.9223 -0.0588 0.3820
vn 0.8300 0.0588 0.5546
vn 0.8300 -0.0588 0.5546
vn 0.7059 0.0588 0.7059
vn 0.7059 -0.0588 0.7059
vn 0.5546 0.0588 0.8300
vn 0.5546 -0.0588 0.8300
vn 0.3820 0.0588 0.9223
vn 0.3820 -0.0588 0.9223
vn 0.1948 0.0588 0.9791
vn 0.1948 -0.0588 0.9791
vn -0.0000 0.0588 0.9983
vn -0.0000 -0.0588 0.9983
vn -0.1948 0.0588 0.9791
vn -0.1948 -0.0588 0.9791
vn -0.3820 0.0588 0.9223
vn -0.3820 -0.0588 0.9223
vn -0.5546 0.0588 0.8300
vn -0.5546 -0.0588 0.8300
vn -0.7059 0.0588 0.7059
vn -0.7059 -0.0588 0.7059
vn -0.8300 0.0588 0.5546
vn -0.8300 -0.0588 0.5546
vn -0.9223 0.0588 0.3820
vn -0.9223 -0.0588 0.3820
vn -0.9791 0.0588 0.1948
vn -0.9791 -0.0588 0.1948
vn -0.9983 0.0588 -0.0000
vn -0.9983 -0.0588 -0.0000
vn -0.9791 0.0588 -0.1948
vn -0.9791 -0.0588 -0.1948
vn -0.9223 0.0588 -0.3820
vn -0.9223 -0.0588 -0.3820
vn -0.8300 0.0588 -0.5546
vn -0.8300 -0.0588 -0.5546
vn -0.7059 0.0588 -0.7059
vn -0.7059 -0.0588 -0.7059
vn -0.5546 0.0588 -0.8300
vn -0.5546 -0.0588 -0.8300
vn -0.3820 0.0588 -0.9223
vn -0.3820 -0.0588 -0.9223
vn -0.1948 0.0588 -0.9791
vn -0.1948 -0.0588 -0.9791
vt 0.001525 0.031953
vt 0.500775 0.000750
vt 0.001525 0.000750
vt 0.001525 0.063156
vt 0.500775 0.031953
vt 0.001525 0.094359
vt 0.500775 0.063156
vt 0.001525 0.125562
vt 0.500775 0.094359
vt 0.001525 0.156766
vt 0.500775 0.125562
vt 0.001525 0.187969
vt 0.500775 0.156766
vt 0.001525 0.219172
vt 0.500775 0.187969
vt 0.001525 0.250375
vt 0.500775 0.219172
vt 0.001525 0.281578
vt 0.500775 0.250375
vt 0.001525 0.312781
vt 0.500775 0.281578
vt 0.001525 0.343984
vt 0.500775 0.312781
vt 0.001525 0.375187
vt 0.500775 0.343984
vt 0.001525 0.406391
vt 0.500775 0.375187
vt 0.001525 0.437594
vt 0.500775 0.406391
vt 0.001525 0.468797
vt 0.500775 0.437594
vt 0.001525 0.500000
vt 0.500775 0.468797
vt 0.001525 0.531203
vt 0.500775 0.500000
vt 0.001525 0.562406
vt 0.500775 0.531203
vt 0.001525 0.593609
vt 0.500775 0.562406
vt 0.001525 0.624813
vt 0.500775 0.593609
vt 0.001525 0.656016
vt 0.500775 0.624813
vt 0.001525 0.687219
vt 0.500775 0.656016
vt 0.001525 0.718422
vt 0.500775 0.687219
vt 0.001525 0.749625
vt 0.500775 0.718422
vt 0.001525 0.780828
vt 0.500775 0.749625
vt 0.001525 0.812031
vt 0.500775 0.780828
vt 0.001525 0.843235
vt 0.500775 0.812031
vt 0.001525 0.874438
vt 0.500775 0.843235
vt 0.001525 0.905641
vt 0.500775 0.874438
vt 0.001525 0.936844
vt 0.500775 0.905641
vt 0.733816 0.065858
vt 0.554981 0.283768
vt 0.772892 0.462602
vt 0.001525 0.968047
vt 0.500775 0.936844
vt 0.001525 0.999250
vt 0.500775 0.968047
vt 0.553431 0.661539
vt 0.771341 0.482704
vt 0.950176 0.700615
vt 0.811217 0.454979
vt 0.847318 0.440025
vt 0.879809 0.418316
vt 0.907439 0.390685
vt 0.929149 0.358195
vt 0.944103 0.322093
vt 0.951726 0.283768
vt 0.951726 0.244692
vt 0.944103 0.206367
vt 0.929149 0.170266
vt 0.907439 0.137775
vt 0.879809 0.110144
vt 0.847318 0.088435
vt 0.811217 0.073481
vt 0.772892 0.065858
vt 0.695491 0.073481
vt 0.659389 0.088435
vt 0.626899 0.110144
vt 0.599268 0.137775
vt 0.577558 0.170266
vt 0.562605 0.206367
vt 0.554981 0.244692
vt 0.562605 0.322093
vt 0.577558 0.358195
vt 0.599268 0.390685
vt 0.626899 0.418316
vt 0.659389 0.440025
vt 0.695491 0.454979
vt 0.733816 0.462602
vt 0.500775 0.999250
vt 0.942552 0.738940
vt 0.927599 0.775041
vt 0.905889 0.807531
vt 0.878258 0.835162
vt 0.845768 0.856872
vt 0.809667 0.871825
vt 0.771342 0.879449
vt 0.732266 0.879449
vt 0.693940 0.871826
vt 0.657839 0.856872
vt 0.625349 0.835162
vt 0.597718 0.807532
vt 0.576008 0.775041
vt 0.561055 0.738940
vt 0.553431 0.700615
vt 0.561055 0.623214
vt 0.576008 0.587112
vt 0.597718 0.554622
vt 0.625348 0.526991
vt 0.657839 0.505281
vt 0.693940 0.490328
vt 0.732265 0.482704
vt 0.809666 0.490328
vt 0.845768 0.505281
vt 0.878258 0.526991
vt 0.905889 0.554622
vt 0.927599 0.587112
vt 0.942552 0.623213
vt 0.950176 0.661539
s 1
usemtl マテリアル
f 3/1/3 2/2/2 1/3/1
f 5/4/5 4/5/4 3/1/3
f 7/6/7 6/7/6 5/4/5
f 9/8/9 8/9/8 7/6/7
f 11/10/11 10/11/10 9/8/9
f 13/12/13 12/13/12 11/10/11
f 15/14/15 14/15/14 13/12/13
f 17/16/17 16/17/16 15/14/15
f 19/18/19 18/19/18 17/16/17
f 21/20/21 20/21/20 19/18/19
f 23/22/23 22/23/22 21/20/21
f 25/24/25 24/25/24 23/22/23
f 27/26/27 26/27/26 25/24/25
f 29/28/29 28/29/28 27/26/27
f 31/30/31 30/31/30 29/28/29
f 33/32/33 32/33/32 31/30/31
f 35/34/35 34/35/34 33/32/33
f 37/36/37 36/37/36 35/34/35
f 39/38/39 38/39/38 37/36/37
f 41/40/41 40/41/40 39/38/39
f 43/42/43 42/43/42 41/40/41
f 45/44/45 44/45/44 43/42/43
f 47/46/47 46/47/46 45/44/45
f 49/48/49 48/49/48 47/46/47
f 51/50/51 50/51/50 49/48/49
f 53/52/53 52/53/52 51/50/51
f 55/54/55 54/55/54 53/52/53
f 57/56/57 56/57/56 55/54/55
f 59/58/59 58/59/58 57/56/57
f 61/60/61 60/61/60 59/58/59
f 34/62/34 50/63/50 2/64/2
f 63/65/63 62/66/62 61/60/61
f 1/67/1 64/68/64 63/65/63
f 35/69/35 19/70/19 3/71/3
f 3/1/3 4/5/4 2/2/2
f 5/4/5 6/7/6 4/5/4
f 7/6/7 8/9/8 6/7/6
f 9/8/9 10/11/10 8/9/8
f 11/10/11 12/13/12 10/11/10
f 13/12/13 14/15/14 12/13/12
f 15/14/15 16/17/16 14/15/14
f 17/16/17 18/19/18 16/17/16
f 19/18/19 20/21/20 18/19/18
f 21/20/21 22/23/22 20/21/20
f 23/22/23 24/25/24 22/23/22
f 25/24/25 26/27/26 24/25/24
f 27/26/27 28/29/28 26/27/26
f 29/28/29 30/31/30 28/29/28
f 31/30/31 32/33/32 30/31/30
f 33/32/33 34/35/34 32/33/32
f 35/34/35 36/37/36 34/35/34
f 37/36/37 38/39/38 36/37/36
f 39/38/39 40/41/40 38/39/38
f 41/40/41 42/43/42 40/41/40
f 43/42/43 44/45/44 42/43/42
f 45/44/45 46/47/46 44/45/44
f 47/46/47 48/49/48 46/47/46
f 49/48/49 50/51/50 48/49/48
f 51/50/51 52/53/52 50/51/50
f 53/52/53 54/55/54 52/53/52
f 55/54/55 56/57/56 54/55/54
f 57/56/57 58/59/58 56/57/56
f 59/58/59 60/61/60 58/59/58
f 61/60/61 62/66/62 60/61/60
f 2/64/2 4/72/4 6/73/6
f 6/73/6 8/74/8 10/75/10
f 10/75/10 12/76/12 14/77/14
f 14/77/14 16/78/16 18/79/18
f 18/79/18 20/80/20 22/81/22
f 22/81/22 24/82/24 26/83/26
f 26/83/26 28/84/28 30/85/30
f 30/85/30 32/86/32 34/62/34
f 34/62/34 36/87/36 38/88/38
f 38/88/38 40/89/40 42/90/42
f 42/90/42 44/91/44 46/92/46
f 46/92/46 48/93/48 50/63/50
f 50/63/50 52/94/52 54/95/54
f 54/95/54 56/96/56 58/97/58
f 58/97/58 60/98/60 62/99/62
f 62/99/62 64/100/64 2/64/2
f 2/64/2 6/73/6 10/75/10
f 10/75/10 14/77/14 18/79/18
f 18/79/18 22/81/22 26/83/26
f 26/83/26 30/85/30 34/62/34
f 34/62/34 38/88/38 42/90/42
f 42/90/42 46/92/46 50/63/50
f 50/63/50 54/95/54 58/97/58
f 58/97/58 62/99/62 2/64/2
f 2/64/2 10/75/10 18/79/18
f 18/79/18 26/83/26 34/62/34
f 34/62/34 42/90/42 50/63/50
f 50/63/50 58/97/58 2/64/2
f 2/64/2 18/79/18 34/62/34
f 63/65/63 64/68/64 62/66/62
f 1/67/1 2/101/2 64/68/64
f 3/71/3 1/102/1 63/103/63
f 63/103/63 61/104/61 59/105/59
f 59/105/59 57/106/57 55/107/55
f 55/107/55 53/108/53 51/109/51
f 51/109/51 49/110/49 47/111/47
f 47/111/47 45/112/45 43/113/43
f 43/113/43 41/114/41 39/115/39
f 39/115/39 37/116/37 35/69/35
f 35/69/35 33/117/33 31/118/31
f 31/118/31 29/119/29 27/120/27
f 27/120/27 25/121/25 23/122/23
f 23/122/23 21/123/21 19/70/19
f 19/70/19 17/124/17 15/125/15
f 15/125/15 13/126/13 11/127/11
f 11/127/11 9/128/9 7/129/7
f 7/129/7 5/130/5 3/71/3
f 3/71/3 63/103/63 59/105/59
f 59/105/59 55/107/55 51/109/51
f 51/109/51 47/111/47 43/113/43
f 43/113/43 39/115/39 35/69/35
f 35/69/35 31/118/31 27/120/27
f 27/120/27 23/122/23 19/70/19
f 19/70/19 15/125/15 11/127/11
f 11/127/11 7/129/7 3/71/3
f 3/71/3 59/105/59 51/109/51
f 51/109/51 43/113/43 35/69/35
f 35/69/35 27/120/27 19/70/19
f 19/70/19 11/127/11 3/71/3
f 3/71/3 51/109/51 35/69/35
