# Blender 4.1.1
# www.blender.org
mtllib Escape_back.mtl
o 立方体
v 2.532611 -1.388365 -1.388365
v 2.532611 1.388365 -1.388365
v 2.532611 -1.388365 1.388365
v 2.532611 1.388365 1.388365
v -2.532611 -1.388365 -1.388365
v -2.532611 1.388365 -1.388365
v -2.532611 -1.388365 1.388365
v -2.532611 1.388365 1.388365
v 0.000000 -1.850712 1.850712
v 0.000000 1.850712 1.850712
v 0.000000 -1.850712 -1.850712
v 0.000000 1.850712 -1.850712
v 3.376007 -1.850712 0.000000
v 3.376007 1.850712 0.000000
v -3.376007 -1.850712 0.000000
v -3.376007 1.850712 0.000000
v 0.000000 2.317147 0.000000
v 0.000000 -2.317147 0.000000
v 3.376007 0.000000 -1.850712
v 3.376007 0.000000 1.850712
v -3.376007 0.000000 1.850712
v -3.376007 0.000000 -1.850712
v 0.000000 0.000000 -2.317147
v 0.000000 0.000000 2.317147
v -4.226863 0.000000 0.000000
v 4.226863 0.000000 0.000000
vn 0.3614 -0.6593 -0.6593
vn 0.3614 0.6593 -0.6593
vn 0.3614 -0.6593 0.6593
vn 0.3614 0.6593 0.6593
vn -0.3614 -0.6593 -0.6593
vn -0.3614 0.6593 -0.6593
vn -0.3614 -0.6593 0.6593
vn -0.3614 0.6593 0.6593
vn -0.0000 -0.7071 0.7071
vn -0.0000 0.7071 0.7071
vn -0.0000 -0.7071 -0.7071
vn -0.0000 0.7071 -0.7071
vn 0.4807 -0.8769 -0.0000
vn 0.4807 0.8769 -0.0000
vn -0.4807 -0.8769 -0.0000
vn -0.4807 0.8769 -0.0000
vn -0.0000 1.0000 -0.0000
vn -0.0000 -1.0000 -0.0000
vn 0.4807 -0.0000 -0.8769
vn 0.4807 -0.0000 0.8769
vn -0.4807 -0.0000 0.8769
vn -0.4807 -0.0000 -0.8769
vn -0.0000 -0.0000 -1.0000
vn -0.0000 -0.0000 1.0000
vn -1.0000 -0.0000 -0.0000
vn 1.0000 -0.0000 -0.0000
vt 0.500000 0.125000
vt 0.625000 0.250000
vt 0.500000 0.250000
vt 0.500000 0.375000
vt 0.625000 0.500000
vt 0.500000 0.500000
vt 0.500000 0.625000
vt 0.625000 0.750000
vt 0.500000 0.750000
vt 0.500000 0.875000
vt 0.625000 1.000000
vt 0.500000 1.000000
vt 0.250000 0.625000
vt 0.375000 0.750000
vt 0.250000 0.750000
vt 0.750000 0.625000
vt 0.875000 0.750000
vt 0.750000 0.750000
vt 0.625000 0.625000
vt 0.125000 0.750000
vt 0.125000 0.625000
vt 0.125000 0.500000
vt 0.875000 0.500000
vt 0.750000 0.500000
vt 0.375000 0.500000
vt 0.250000 0.500000
vt 0.625000 0.000000
vt 0.500000 0.000000
vt 0.375000 0.000000
vt 0.375000 0.125000
vt 0.375000 0.625000
vt 0.375000 0.250000
vt 0.375000 0.375000
vt 0.375000 0.875000
vt 0.375000 1.000000
vt 0.625000 0.125000
vt 0.625000 0.375000
vt 0.625000 0.875000
vt 0.875000 0.625000
s 1
usemtl マテリアル
f 26/1/26 4/2/4 20/3/20
f 24/4/24 8/5/8 21/6/21
f 25/7/25 6/8/6 22/9/22
f 23/10/23 2/11/2 19/12/19
f 18/13/18 5/14/5 11/15/11
f 17/16/17 2/17/2 12/18/12
f 17/16/17 6/8/6 16/19/16
f 18/13/18 1/20/1 13/21/13
f 6/8/6 23/10/23 22/9/22
f 4/2/4 24/4/24 20/3/20
f 3/22/3 18/13/18 13/21/13
f 8/5/8 17/16/17 16/19/16
f 4/23/4 17/16/17 10/24/10
f 7/25/7 18/13/18 9/26/9
f 8/5/8 25/7/25 21/6/21
f 2/27/2 26/1/26 19/28/19
f 1/29/1 26/1/26 13/30/13
f 7/25/7 25/7/25 15/31/15
f 3/32/3 24/4/24 9/33/9
f 5/14/5 23/10/23 11/34/11
f 23/10/23 1/35/1 11/34/11
f 25/7/25 5/14/5 15/31/15
f 24/4/24 7/25/7 9/33/9
f 26/1/26 3/32/3 13/30/13
f 26/1/26 14/36/14 4/2/4
f 24/4/24 10/37/10 8/5/8
f 25/7/25 16/19/16 6/8/6
f 23/10/23 12/38/12 2/11/2
f 18/13/18 15/31/15 5/14/5
f 17/16/17 14/39/14 2/17/2
f 17/16/17 12/18/12 6/8/6
f 18/13/18 11/15/11 1/20/1
f 6/8/6 12/38/12 23/10/23
f 4/2/4 10/37/10 24/4/24
f 3/22/3 9/26/9 18/13/18
f 8/5/8 10/24/10 17/16/17
f 4/23/4 14/39/14 17/16/17
f 7/25/7 15/31/15 18/13/18
f 8/5/8 16/19/16 25/7/25
f 2/27/2 14/36/14 26/1/26
f 1/29/1 19/28/19 26/1/26
f 7/25/7 21/6/21 25/7/25
f 3/32/3 20/3/20 24/4/24
f 5/14/5 22/9/22 23/10/23
f 23/10/23 19/12/19 1/35/1
f 25/7/25 22/9/22 5/14/5
f 24/4/24 21/6/21 7/25/7
f 26/1/26 20/3/20 3/32/3
